<?xml version="1.0" encoding="UTF-8"?>
<svg viewBox="0 0 271.25 193.75" xmlns="http://www.w3.org/2000/svg">
 <g transform="matrix(1.25,0,0,-1.25,0,193.75)">
  <g transform="scale(.24)">
   <path d="m91.176 617.87c20.59-9.597 32.23-29.762 47.215-45.289 1.293-7.332 7.867-8.734 10.347-15.633 8.301-10.781 10.782-24.152 19.078-34.937 1.403-5.5 5.715-11.535 8.84-17.25 10.563-25.555 30.399-60.063 63.707-58.121 35.785 2.156 70.821 14.449 104.77 0 14.769-7.762 32.015-10.457 50.015-10.891 55.082 0.434 110.49 21.676 162.01 10.891 1.188 0.215 2.805-0.539 3.449 0.648 3.129-2.375 6.578-3.773 10.352-4.097 0.754 4.527 14.226 8.839 6.14 13.695 2.481 5.93 7.442 10.027 12.938 13.043-7.332 3.238-16.277 3.453-24.684 4.207v0.539c8.516 1.617 17.137-0.754 26.086-1.942 2.692 9.168 12.825 11.54 9.594 23.184 3.879 7.981-1.512 16.93-0.758 26.094 1.836 17.254 8.84 33.965 17.785 49.277 7.223 5.067 15.418 5.067 22.637 0 18.004-27.281 53.789-5.39 79.336-10.89 26.086-0.649 51.313-11.321 76.102-19.192 14.339-2.265 29.644 3.879 44.414 2.695 13.148-11.105 9.699-31.918 5.496-46.582-2.481-10.675-14.446-19.3-10.887-30.839-0.324-3.774-6.898-4.957-4.742-9.594 8.621-9.274 24.469-4.531 36.758-6.797l12.5-2.047v-0.754c-11.856-0.758-28.348 1.617-41.821 0.754-1.187-3.773 1.079-6.902 3.45-9.598-1.293-7.332-4.207-14.125-4.207-21.886 7.007-1.617 14.339-2.266 21.238-4.207 15.199-0.11 29.211-6.578 42.363-13.586v-1.403c-18.109 8.411-37.836 12.508-58.75 14.45-3.664-1.832 1.188-4.204-1.398-6.145-7.332-5.824-2.375-14.988-4.746-21.996l2.05-2.16c-4.207-5.711-9.918-7.438-13.8-14.34 15.308-8.949 29.644-19.949 44.629-30.082 1.941-0.648 0.644-3.02 1.941-4.098h-1.941c-15.415 11.215-30.723 23.075-47.321 31.485-3.558-2.371-7.762-6.469-7.441-10.243 0.863-0.648 1.512-1.941 2.695-1.402-23.066-11-37.617-27.605-63.598-31.484-16.168 3.234-22.312-13.266-31.472-22.539-5.715-3.989-4.637-17.36-15.094-12.289-6.144-5.5-9.16-18.442-18.43-16.5l-2.91 3.449c-7.008-8.625-13.691-17.36-17.789-27.387-6.25-2.695-7.867-11.105-10.887-17.035-11.855-18.871-24.683-38.063-23.281-61.68 3.016-28.355-7.113-60.488 6.145-88.957 6.465-10.566 19.617-4.6368 27.484-12.289 6.793-6.5781 6.359-16.176 8.195-24.695-5.5-4.0977-0.109-10.027-6.898-13.691 1.078-4.4219-3.988-2.8047-6.145-4.2071-5.066-3.5586-10.566-1.7265-16.492-1.2929-8.301-2.9102-20.48-5.2852-27.918-2.1563-10.027-1.4023-22.316-3.1289-32.23 1.5078-7.977-3.5586-11.645-18.223-22.637-13.691-6.254-1.8359-12.719 4.3125-17.789-2.6992-5.82-2.0469-14.117 0.43359-19.941 0.54297-3.989 2.3711-8.516 4.6328-12.286 0-0.214-0.86329-0.863-1.9414-0.539-3.2383 0.325 0.86329-0.863 1.2969-1.511 1.9414-7.762-3.4492-14.551 4.0977-21.879 0-3.883 1.9414-9.813-1.293-13.047 2.8047-11.531 14.34-10.129 37.094-1.938 52.727 1.938 7.6562 14.121 10.137 9.594 19.734 5.711 16.496-1.726 33.317-4.203 47.981-6.145 6.687-1.297 19.3-9.594 23.937l-0.539 14.344c-3.449-1.078-4.097 1.398-5.605 3.449-8.625 0.215-16.817-9.273-25.117-2.051-11.211-0.32-21.45-4.851-32.231-4.093-3.125 1.183 0 3.339 0 4.851l2.695 2.695c-6.898 3.559-13.367-1.078-20.48-0.648-2.586-2.262-4.633 1.078-6.899 1.941 0.754 1.618 2.047 3.02 2.047 4.852-8.082 0.863-16.382-1.293-23.929-3.34-2.801 1.399-4.528 3.774-2.696 6.793 0.219 1.617 3.774 3.34 0.649 4.742-3.02-0.429-7.867-1.187-7.547-5.39-3.234-14.879 10.027-24.371 15.738-36.446 10.887-7.332 27.813-13.261 28.133-29.328 2.371-8.41 0.973-18.117-3.449-24.695v-1.9375c-6.574 2.0469-9.594-6.4727-13.797-8.9531-4.852-3.6641-16.168-1.1836-21.774-4.8516-4.851-0.3203-9.164 0.3242-13.042 2.1562-12.18-1.3984-24.469 0.9727-33.524 9.5977-9.484 12.508-7.332 27.496-9.594 43.132-0.429 7.547-9.703 4.637-11.64 11.645-3.235 15.527-16.063 26.957-16.387 43.668-2.262 1.078-4.957-0.539-7.652 0.758-14.336-16.176-34.707-27.93-30.614-51.328 5.176-14.125 5.176-30.082 16.278-41.731 0.429-4.5273 5.281-5.2812 6.25-9.5937 3.773-0.7539 5.39-5.6094 7.547-7.5469 3.558-6.1484 6.144-13.266 2.695-20.598-2.91-7.9765-10.024-11.754-14.984-17.684-16.059-1.9415-30.504-14.016-48.075-5.6055-7.437-3.1289-16.277-3.1289-23.929 0-0.43-0.7539-1.618-0.9727-1.403-2.0508l0.754-0.6445c-5.066-1.1875-13.148-1.1875-17.785 2.6953-15.523 10.027-5.281 32.023-2.695 44.531 1.832 4.4219 7.976 6.1485 10.886 9.5977-1.183 6.6836-0.105 14.988-3.449 19.84-1.937 8.3-1.398 20.054-5.496 27.496 2.801 5.929-4.961 9.379-3.344 15.632 0 4.532-3.125 11 0 15.747-1.937 15.418 6.684 31.16 19.188 41.082 10.242 22.101-14.981 38.925-17.785 58.98-1.184 3.883-6.789 10.027-0.754 12.832 0.863 5.93-6.574 10.027-6.899 17.25-1.293 7.547-12.289 10.352-8.086 19.195 1.403 3.45 4.207 3.989 4.852 8.086 1.727 0.969 1.727 4.098 2.695 6.145-2.695 3.668-9.484 0.758-10.347 6.148 2.48 7.657 8.406 12.184 10.886 19.84 0.864 2.371 6.036 4.742 2.157 7.547-10.563 5.93 4.418 8.625 5.496 14.988-2.262 2.91-6.575 2.266-5.496 6.903 5.496 3.449 9.699 7.976 13.687 13.047-5.062 9.917-9.808 19.625-11.641 30.835-9.699 15.637-11.101 33.536-19.941 48.524-3.988 19.734-18.434 33.101-23.93 50.785 0.11 18.008-24.144 27.606-25.871 46.477-7.9766 9.379-21.774 15.203-26.086 27.386l1.4024 1.512c-11.426 10.891-25.223 18.219-37.727 27.172-7.2226 3.879-14.875 6.035-21.129 11.75 2.4805 5.609 9.5938 3.238 14.336 4.746 26.949 1.078 52.066-14.988 76.641-26.633" fill="#231f20"/>
   <path d="m119.96 634.36c14.231-14.988 32.66-19.84 43.117-39.14 9.27-13.801 19.403-29.328 26.086-45.18h-1.508c-13.367 23.289-22.531 39.359-38.914 59.629-15.199 9.058-28.781 23.937-43.117 31.379 5.606-0.11 10.133-4.637 14.336-6.688" fill="#231f20"/>
   <path d="m152.19 628.76c14.769-14.664 25.441-32.348 32.769-50.57h-1.402c-13.043 25.121-26.301 49.382-51.309 62.863 9.27-0.539 12.074-9.168 19.942-12.293" fill="#231f20"/>
   <path d="m74.6836,618.406c.9727.324 2.2656-.429 2.6953.754l-.5391.754c2.6954-1.508 5.3907-4.312 8.1915-4.203-1.293-.434-4.9571-1.188-4.7422-3.988l-.7539-.758 4.2031-3.988c-2.6953-.969-7.9766-3.235-4.8477-7.657l1.3985-1.402c-.7539,0-1.8321.215-2.1563-.539 .2188-3.344 4.6367-4.422 7.5469-2.91 .4297,7.332 8.8398-.434 8.1914,7.656 3.0195-.539 2.5898,3.883 5.6055,1.402 5.8204-3.019 12.2894-6.793 16.2774-11-.43-2.047-4.527-3.558-1.941-6.144-3.45,1.078-4.743-5.18-8.192-2.051-1.832-.969-1.402-2.586-1.402-4.207 1.402-2.586 4.097-4.312 4.097-7.547-2.261-.215-4.636,0-6.144-2.047-.215-3.883 6.254-8.843 2.047-10.89 .109-3.344 4.636-2.266 6.793-3.453 1.183.757.539,2.265.754,3.453 3.125-.649 6.359-3.668 8.191.754 .109,5.5 2.047,4.312 3.449,9.488 1.293-1.617 1.942-5.176 4.746-2.805 1.399,2.156 0,4.856-2.05,6.254 1.941-.754 3.882-3.879 7.437-4.098l-.539-.644c3.988-6.578 12.289-10.027 14.336-18.547l-1.293-1.402c-3.234,2.695-4.527-4.743-7.652-2.047 .754-7.227-6.793-.754-8.301-5.391 1.508-2.375 2.156-5.285 2.156-8.305-1.832.215-4.957,3.02-5.391-.753l1.942-7.442c.539-1.183-4.852,5.715-4.098-.754 3.453-4.207 7.117-5.929 10.242-10.89l4.204,3.449c.429-1.184 1.726-.539 2.695-.645 3.558,2.696 1.941,6.039 1.293,9.594 1.832-.32 2.371-2.695 4.203-2.801 5.066,6.684 8.191-9.597 12.289,0l5.496-5.39 .649.539 6.898-14.344c-1.402.109-2.262,2.051-4.203,1.297-1.832-2.481.43-7.875-5.391-6.688-2.261-1.832-.644-3.449 0-5.605-2.695,1.078-7.328,1.293-9.594-.539 .11-4.098 2.372-6.903 2.047-11.106-1.722-.324-3.988.86-4.742-1.297l1.942-5.39c-2.696-1.078-1.293,2.91-3.989,1.941-2.695-7.547 8.625-6.039 8.84-12.937 2.481-1.188 3.125,1.617 2.801,3.34v2.05c1.293-.539 3.125-2.265 4.742-.539 2.156,2.371 1.512,6.684.649,9.594l-.649.539 .649.758c1.941-1.297 3.125-4.746 6.144-3.453 1.832,1.402 2.481,2.804 2.801,4.855 5.715.43 8.734-6.148 10.996-10.355-.969-3.664-5.391-.321-5.606-4.098l4.204-6.898-6.899-3.45 5.391-10.136c-1.293-3.02-5.391.109-6.684-2.805l1.293-2.695c-4.203.648-2.695-5.281-2.047-7.547-2.156.43-2.695-1.942-4.097-2.695l.648-4.207c-6.035-2.266-.215-8.625-1.402-13.586l2.695-2.157c-1.941-.214-2.91-3.668-5.391-3.449-6.144,8.625-4.203,21.133-12.289,28.25-2.8,7.547-9.375,17.899-2.8,25.231-5.391,8.519-14.661,15.742-14.336,26.632 1.293,6.364-6.145,8.411-7.547,12.293l-11.641,23.399c4.527,3.883-.324,7.441-2.695,10.89-4.098.54-.863,4.207-2.695,6.903-5.711,10.242-14.2271,19.191-21.2349,28.789-1.9414,1.941.4297,3.988.7539,6.144l-24.1445,21.243c-1.6172,1.941.7539,3.453 1.5078,5.394-3.8789,4.637-8.7305,10.027-13.7969,13.043 1.4024.758 6.793-1.613 8.3008,2.051-.3242,2.48.8633,5.285-1.4023,6.793 3.8828-2.371 7.332-1.942 10.8867-4.852" fill="#f89c35"/>
   <path d="m72.637 529.45h-1.2929c-5.9297 19.625-16.816 38.387-32.879 50.676v1.512c18.648-11.43 27.922-32.024 34.172-52.188" fill="#231f20"/>
   <path d="m59.594 549.4 2.9101-6.899c-3.7734-0.109-3.7734 4.961-5.6055 7.547-3.9882 3.668-7.4375 7.871-10.133 12.293 5.1758-2.695 8.8399-8.625 12.828-12.941" fill="#231f20"/>
   <path d="m631.87 543.14c-1.187-11.43 0.324-24.258-4.746-34.18-3.34-1.941-6.789 2.695-7.652 5.391-6.145 15.636-1.078 33.964 6.898 46.582 5.824-4.637 4.313-10.782 5.5-17.793" fill="#fbcbbb"/>
   <path d="m716.051,553.492c-4.528-6.035-.754-12.289 2.047-18.437-3.77-3.02-.43-6.254-1.399-9.598v-2.047c-.969.215-1.402-.969-2.047-1.402 1.184-4.961 3.016-9.703 1.399-13.801 2.156-6.148-2.047-13.91 3.344-19.734l-3.344-2.157 3.344-7.437c-2.051,0-3.665-2.375-2.051-4.207 1.078-1.184.324-4.746 3.453-3.449l.754-.539c2.801,2.156 4.742,6.254 1.937,9.597-1.183,1.723 3.344,2.91 2.805,5.391-5.496,3.34 1.941,7.008-2.047,10.996 2.692-.539 3.449,3.129 2.047,4.852l-.754.539c1.293,0 1.938,1.402 2.695,2.16-5.066,4.418 4.204,6.144 0,10.133v6.363l4.204.539c1.507,1.941.324,4.961-2.051,5.5 1.187,1.398 2.051,3.988.758,5.391-.758.968-1.832,1.078-2.911,1.402 1.938,2.801 3.016,5.391 3.45,8.949 3.015,2.695 1.507,6.578 4.847,8.84 3.02-1.293-.215-2.371 0-4.742-.644-6.039 10.457-11.106 0-14.449 .864-.973.11-2.481 1.297-3.344-7.008-.649.215-5.281-1.941-8.086 3.879-9.059 6.144-18.438 10.992-26.848l1.941-1.941c2.266,1.183 1.618,4.312.754,6.144 3.559,1.942 1.942,8.196 1.297,11.539-2.48,2.262-6.254,5.176-4.746,9.594 4.961-.215 2.695,5.934 3.449,7.551 9.379,1.723-.539,9.164.754,14.449 1.402,2.262 0,4.742-.754,6.684 3.883-2.805 17.141,1.187 15.633-9.598-2.805-.105-4.637-2.047-3.988-3.988-2.266-4.098.754-7.656 2.691-10.891 .324-.324.758-.969 1.297-.754 0,4.098 5.387,2.801 5.606,6.145 1.292-1.293 3.878-2.047 5.386-.649-.429,3.883.539,7.227 2.805,10.137 2.156.758 5.066-.863 7.543-1.941 .863-2.801 1.187-4.313 2.051-7.547-2.051,1.617-4.528.215-6.145-1.403 .324-2.695 1.508-5.281 3.34-7.437 0-.973-1.184-1.297-1.941-1.402l-.754.644c-.43-4.527 2.371-9.269 6.144-12.937-3.449-2.805.754-5.825 2.051-8.196 2.152-1.617 4.957-3.019 7.543-1.402-.215,3.02-1.832,7.227-4.094,10.246 1.617.32 3.879-.973 4.848,1.293-1.723,3.02-2.262,6.145-4.203,9.059 2.48-.219 5.5-.219 6.254,2.695l-2.051,3.449c.648.215 1.941.863 3.988.539-.32-3.558-1.832-8.519.758-11.539 1.293,2.59 2.691,4.961 3.988,7.551-.863-12.188-4.636-21.566.754-32.887l.645.645c.109-3.02 2.05-9.489 5.5-13.047v-4.746c-2.481-.215-3.235,2.804-4.743,4.207l-1.402-1.403c1.723-5.496 4.637-10.457 8.301-15.093l2.691.754c2.805-1.078-2.586-6.903-.754-10.352-23.39-7.332-47.211-13.91-66.293-31.484 5.067-.758 12.399,11.211 16.387,1.941 .754-9.598-11.75-6.687-17.785-10.137-.434-.433-.863-.754-.754-1.402 4.848-2.047 9.484.648 13.797,1.941 16.922,2.586 35.141,3.45 51.953,4.204-1.398-2.372-.215-5.821-1.398-8.192 0,2.262-2.375,3.879-3.989,4.742-3.343-.754-2.265-4.203-3.449-6.144-.433,1.832-2.371,2.586-4.207,2.695-1.613-5.5-9.269-8.195-3.449-14.344 1.836.434 3.559,1.512 4.207,3.454 1.937-1.833 1.293-4.747 3.988-6.149l4.203,4.852c.215-2.586 1.942-4.743 3.45-6.899 1.183,1.508 5.39,2.047 4.851,5.5 10.133-.433-3.129-9.597 6.145-11.644-2.481-2.7-5.825-8.52-9.594-7.551-3.453-.969-5.285,5.715-8.301,1.402-1.617,1.727-3.449,3.02-5.5,3.449l-.644-.753c-2.047.863-3.883,6.687-6.036,2.695-10.242,3.992-20.16,7.765-30.293,11.644 4.208,1.942 5.391,6.149 6.899,9.598 .109,2.59.109,5.5-2.691,6.148-5.825-2.156-6.579-10.46-12.399-13.589-5.391-1.078-10.023,1.941-14.984,0 2.375-3.34 6.254-2.262 9.593-3.45-5.386-5.175-12.933-7.222-19.941-6.144-6.574,1.941-12.719,6.683-14.984,13.586 .433,2.265-.86,3.558-1.399,5.5 9.16,8.301 25.547,12.183 26.731,26.738-3.879,1.188-8.082-1.078-11.746-2.695-11.75.863-24.364-.215-32.77,8.844-1.726.105-3.988,0-4.203-1.942 .215-11.754 12.719-18.437 15.734-28.789-1.832-2.156-1.832-5.07-2.695-7.656-5.387-9.703-15.305-12.403-26.082-10.891-1.727,2.371-6.684.754-8.734,3.988 3.343,3.883 10.027,3.559 13.582,6.903-5.282,1.183-13.368-4.961-18.43-2.695-5.5,4.203-9.273,10.027-7.438,16.496l19.723.539c.758,3.019-2.695,1.941-4.094,2.91-6.793-.969-12.179,1.512-19.082.539 .11.758-.32,1.082-.754,1.402l-1.937-1.941c-8.41.433-15.418-1.832-23.395,0-2.691-1.078-1.293,3.019-3.988,1.941-1.293-.969-.644-2.371-1.398-3.449-4.203-.43-5.715,10.785-9.594,2.805-1.293.968-3.02,3.34-4.742,4.097l-3.449-1.402c-.758,2.586-1.079,6.039-4.208,6.898-1.078-.429-2.156-.859-3.449-.753-1.508,2.589-2.801,6.902-6.144,6.902l-1.399-1.293c-1.187.539-1.617,2.695-3.343,1.937l6.793,4.747c-2.157,2.804-6.254,6.468-10.887,6.253 1.183,2.911 4.094,6.364 6.789,7.547-.324-2.156.539-3.558 2.047-4.851l3.449.648c-.32-1.941.434-3.558 2.051-4.746 2.91-1.293 6.789,4.098 7.543-.644 .109-.864-.43-2.266.758-2.7 1.937.325 3.878,1.512 5.386,3.344l2.051-4.098 7.543,6.149c-1.832-1.402.539-2.695.754-4.098 1.617,1.508 3.988,3.988 3.988,6.793l-1.937,2.047-1.512-1.293c-3.125,2.586-10.348,2.805-10.887,8.844-2.156,2.047-3.769-.758-5.386-1.403-.434.54 3.015,6.469-2.157,7.657-1.187.215-3.558-.758-3.449,1.398v1.942l9.59-2.696c21.562-12.508 44.629-21.566 65-36.984 .324,5.176-6.899,8.519-10.887,11.644-18.433,10.676-37.187,20.379-56.16,29.547 0,1.938 1.293,5.067-1.937,6.684l-6.145-.539c.324,7.332 9.809,11.324 15.738,14.879l6.68,11c2.156-.324-3.988-6.039 0-8.84 4.637,3.773 4.312,14.016 11.105,14.34 7.329,8.301 5.282,17.898 9.594,27.386 .106-1.402-.648-3.558.539-4.746 3.879-.754 3.664,3.993 5.606,6.149l3.449-6.903c-2.156-1.617-4.637.754-6.902-1.941 2.05-2.371 1.296-6.035 2.05-8.949-1.941-.215-2.804-2.91-1.511-4.098 1.511-2.047 4.851-4.203 6.363-2.047l-.758,7.442c2.481.644 5.824-1.188 7.438,1.398l-1.293,7.551c1.941.539 4.422-1.188 5.5,1.398l-.754,5.395c1.183-.434 1.937.754 2.691,1.508-.43,5.929.863,10.027 1.512,14.988 3.773-2.156 5.281-7.547 5.387-12.293 3.343-2.371 1.078-10.242 7.441-6.145 3.449,1.188-.863,3.125 1.508,4.743-1.942,4.097 3.234,6.793 3.34,11 6.468-2.157 4.312-10.676 9.593-13.801l2.051-6.793c-1.617,0-3.019-.649-3.988-2.051 6.25-6.039-6.039-6.898-2.914-12.293-1.184,0-1.723-1.293-2.692-2.047 1.938-5.824 1.508-12.508 4.848-17.898 4.637-1.293 1.512,3.988 3.449,5.605-4.418,5.391 4.961,5.176 2.696,10.891 1.617.215 3.664-1.941 4.746.648 0,.754.215,1.723-.543,2.047 3.668,2.371 2.48,4.961 5.39,7.547-.214,2.914-4.418,6.578 0,8.949-.32,3.883 1.293,10.895-4.097,13.051 2.695,1.723-.75,3.559 2.16,5.391-1.727,2.48-.324,5.5 1.293,7.656 2.586-.539 4.308-.973 7.543-.758" fill="#f89c35"/>
   <path d="m618.285,419.355 .324,2.375 12.825,2.586 6.039,4.207-3.45,5.176v4.313c14.661-1.727 15.52-1.727 15.52-1.727l7.547,3.449c6.789-3.879 13.473-8.086 19.832-12.937 .324,5.176-6.899,8.519-10.887,11.644-1.722.973-3.555,2.051-5.281,3.02l7.652,3.449c0,0 10.352.863 14.66,0s0,.863 7.762-1.722l10.348-3.454c0,0 9.379-6.898 15.414,1.727s11.211,10.352 11.211,10.352c0-6.903 3.449-15.528 3.449-15.528s3.449-.863 8.625-.863c5.066,0 4.203,9.488 17.137,4.312 12.937-5.171 21.453-5.171 21.453-5.171l.215-1.079c-9.164-4.316-17.785-9.707-25.657-16.929 5.067-.758 12.399,11.211 16.387,1.941 .754-9.598-11.75-6.687-17.785-10.137-.434-.433-.863-.754-.754-1.402 4.848-2.047 9.484.648 13.797,1.941 10.672,1.618 21.988,2.586 33.09,3.235-.754-2.371-2.047-3.344-2.047-3.344s1.723-4.312.863-10.351-2.59-6.04-11.211-7.657l-8.515-1.722 .215-1.188c-3.45,1.293-6.899,2.695-10.458,3.988 4.208,1.942 5.391,6.149 6.899,9.598 .109,2.59.109,5.5-2.691,6.148-5.825-2.156-6.579-10.46-12.399-13.589-5.391-1.078-10.023,1.941-14.984,0 2.375-3.34 6.254-2.262 9.593-3.45-.644-.644-1.293-1.078-1.832-1.617-9.16-.539-16.707-1.078-24.898-1.402-3.664,2.48-6.793,6.039-8.195,10.461 .433,2.265-.86,3.558-1.399,5.5 9.16,8.301 25.547,12.183 26.731,26.738-3.879,1.188-8.082-1.078-11.746-2.695-11.75.863-24.364-.215-32.77,8.844-1.726.105-3.988,0-4.203-1.942 .215-11.754 12.719-18.437 15.734-28.789-1.832-2.156-1.832-5.07-2.695-7.656-2.801-4.961-6.68-8.195-11.422-9.813-6.687.43-14.445,1.078-22.207,1.618-.433.324-.863.753-1.187,1.292 3.343,3.883 10.027,3.559 13.582,6.903-5.282,1.183-13.368-4.961-18.43-2.695-5.5,4.203-9.273,10.027-7.438,16.496l19.723.539c.758,3.019-2.695,1.941-4.094,2.91-6.793-.969-12.179,1.512-19.082.539 .11.758-.32,1.082-.754,1.402l-1.937-1.941c-8.41.433-15.418-1.832-23.395,0-2.691-1.078-1.293,3.019-3.988,1.941-1.293-.969-.644-2.371-1.398-3.449-3.344-.324-4.961,6.578-7.438,5.605" fill="#fabe71"/>
   <path d="m840.016,528.152c2.691-14.554-.325-31.484-12.508-40.433-1.293-.106-2.477.109-3.449,1.293 .972,13.047 2.265,25.773 9.054,36.445l4.746,5.395 2.157-2.7" fill="#fbcbbb"/>
   <path d="m685.871,522.656c-.109-4.207 3.664-9.597-.754-13.047v-1.402c-3.668,6.469-13.691-4.637-15.633,6.902 .539,4.852.864,10.028 6.145,12.289 4.422.864 8.301-.753 10.242-4.742" fill="#231f20"/>
   <path d="m680.371,520.715c.758-1.293-.754-3.988-2.695-4.207-2.047-.32-3.555.539-4.742,2.051 1.187,2.371 4.851,3.558 7.437,2.156" fill="#f89c35"/>
   <path d="m779.648,509.609c3.129-5.07-3.339-7.55-6.144-10.246-3.445-.215-6.465.325-8.836,2.696l-3.449-3.45c-4.313,3.344-.649,8.305-.758,12.508 4.312,7.871 16.277,8.844 19.187-1.508" fill="#231f20"/>
   <path d="m774.262,508.207-2.91-2.695c-.219.968-1.293.754-1.942.754l-.754,4.097c2.262.215 4.094-.324 5.606-2.156" fill="#f89c35"/>
   <path d="m648.141,499.363h-.539v-2.047c-.969.754-.969,3.02-2.692,2.047l-1.512-1.293c1.512,1.293-.105,4.637 2.805,4.746 .324-.757 2.695-1.726 1.938-3.453" fill="#231f20"/>
   <path d="m687.27,483.621c4.312-10.781 9.593-22.535 6.144-34.828-.32,4.207-4.633,7.871-4.848,12.832-4.636,3.449-9.593-.215-13.582-1.941-9.593-.969-20.914-2.047-27.382,6.144-2.586,5.719-5.067,12.188-4.204,18.442 1.188,4.097 5.715,3.019 5.5,7.656 6.465,3.879 14.227,7.222 22.637,4.742 6.035-2.91 12.61-7.117 15.735-13.047" fill="#231f20"/>
   <path d="m641.461,487.074c-.219,1.293.754,6.684 3.449,8.086 2.801-1.941-2.265-5.39-3.449-8.086" fill="#231f20"/>
   <path d="m790.535,482.328c4.961-6.578 2.91-14.879-.539-21.242-7.219-6.578-17.351-12.938-28.133-8.301-4.203.539-9.918,5.606-11.535-1.297-.969-2.156-.969-5.066-2.91-6.144-1.613,10.89 2.59,20.918 5.605,30.73 2.372,1.188 3.989,2.805 4.747,5.5 8.515,10.781 25.113,10.676 32.765.754" fill="#231f20"/>
   <path d="m796.9 486.32-3.453 4.098h1.942l1.511-4.098" fill="#231f20"/>
   <path d="m666.79 487.72c-0.32-2.696-1.508-4.961-4.848-4.742-2.371-0.973-2.695 1.293-3.449 2.695 0 4.633 5.067 2.695 8.297 2.047" fill="#fff"/>
   <path d="m635.855,487.074-3.343-2.804c1.941-1.836 5.5-2.372 5.5-5.391-3.449.105-6.903,1.402-8.196,4.742v1.402c.649,0 1.618.11 2.051-.753-1.187,2.046 1.617,6.468 3.988,2.804" fill="#231f20"/>
   <path d="m661.94 467.23c4.633-1.187 10.672-1.187 13.688 3.45l2.047 2.046c1.187-1.832-1.938-4.636-2.692-6.902-5.5-3.555-14.121-2.262-19.187 1.406-3.449 3.664-6.899 10.348-3.449 15.743l2.156 2.695c-1.836-6.902 1.937-13.481 7.437-18.438" fill="#cce86e"/>
   <path d="m796.14 476.83-2.696 7.442 2.696-2.696v-4.746" fill="#231f20"/>
   <path d="m772.859,482.328c-.109-2.805-1.726-5.285-4.203-6.254l-3.988.754c1.293,3.453 5.066,4.422 8.191,5.5" fill="#fff"/>
   <path d="m638.012,472.73c-3.344,2.157-7.762,3.344-9.594,7.551 4.527.215 7.219-4.855 9.594-7.551" fill="#231f20"/>
   <path d="m786.547,475.426c1.726-4.957-.32-9.918-3.449-13.801-5.606-6.254-15.414-5.176-22.637-3.234l-4.742,2.695c.754,2.051-1.078,3.668.754,6.148 3.343-5.609 9.488-9.812 17.031-8.304 5.93,4.636 10.348,9.273 11.644,16.496h1.399" fill="#cce86e"/>
   <path d="m640.06 463.78-6.899 7.442 6.899-5.395v-2.047" fill="#231f20"/>
   <path d="m804.98,469.926v-1.938h-2.695c.11.539-.32.86-.644,1.293l1.937,1.942c.11-.864 1.942-.11 1.402-1.297" fill="#231f20"/>
   <path d="m806.383,460.332c-1.617-1.512-3.449,0-4.742.754-1.403-2.371 2.586-3.883 2.695-6.145-3.344-.648-4.637,3.125-6.902,4.743 .433,1.187-.754,1.836-1.293,2.695l3.449.758c-.969,1.508-3.34,1.508-1.399,3.34 4.094,2.265 4.094-4.957 8.192-4.852v-1.293" fill="#231f20"/>
   <path d="m799.59,452.785v-1.297c-2.156-.215-4.094,2.266-4.203,3.992 2.047.645 2.804-1.726 4.203-2.695" fill="#231f20"/>
   <path d="m794.74 449.33-2.051 3.453c0.219-1.941 4.422-1.187 2.051-3.453" fill="#231f20"/>
   <path d="m217.832,442.539c-.539-2.156-4.203-3.234-2.801-6.144 2.371-2.266 4.633-4.422 4.742-7.551-6.359-1.293-14.335,11.863-17.031,1.402 1.078-7.223 2.586-14.23 8.84-19.191 .324-3.559 3.988-5.715 4.742-8.844l4.852-8.195c-4.852,1.297-10.242,8.738-14.446,3.992 .325-4.746 5.391-7.442 6.899-11.645-2.91-1.511-6.25-1.836-10.133-.648-.859.648-.859,2.91-2.801,2.156-6.039-11.539 9.379-17.469 14.336-26.848 .754-1.941-.754-6.148 1.293-8.195-.863-.324-1.941-.754-3.234-.648-.649,1.402-1.832,2.375-2.91,3.453-3.879-2.051 1.726-3.774.754-6.149 4.636-3.019 8.086-8.195 7.546-13.046-5.39-4.637 1.293-9.165 2.047-13.801-7.113.754-9.269,17.25-16.492,9.597 3.449-9.707 11.75-17.687 12.289-28.574-4.312,4.098-4.203,13.262-12.289,12.938-3.555-3.235-1.722-6.793-1.293-10.891-2.801,1.402-4.742,5.715-8.84,4.098-2.261-1.508-1.078-4.422-1.507-6.793-1.618-.754-2.047,1.402-3.235,1.941-2.156-5.39 3.235-11.215 6.145-16.281 2.91.43 3.343,4.742 3.988,7.437 2.695-4.527 7.328-9.918 12.289-11.644l3.449,4.746c2.371-3.559 5.93-7.117 10.348-7.441 5.605,5.5-.969,12.832-1.402,19.191 3.773-5.281 7.761-11.106 14.445-13.043 3.664.535 1.402,4.957.539,6.898l-.539.539c2.91-1.617 7.113-8.085 11.641-3.988-.325,4.637-5.282,7.332-6.25,11.645-.754,5.39-3.235,10.351-4.852,15.636 4.312-2.48 7.008-11.539 13.043-7.441 0,4.098-4.203,6.902-2.695,10.891-1.832,2.48-4.204,4.961-4.098,8.195 1.941-1.941 3.992.43 5.391,1.941l-7.438,10.996c.434-.429 3.774.754 3.988,2.805l-.539.645c1.832-.321 5.5-.321 7.438-2.696-1.723,10.571-10.563,20.489-8.192,32.782-4.093.539-4.093,5.066-6.144,7.656v1.941l2.695-1.941c2.695.43 2.586,3.558 3.449,5.391-1.402,3.125-7.328,3.449-4.093,7.546 3.769-1.722 9.16-8.734 13.687-4.097-1.617,2.156-1.617,5.609.754,7.441-.754,4.637-1.508,9.164-2.156,13.801 2.59-.645 6.469-2.371 8.84,1.293-.754,5.609-4.313,9.812-8.84,13.805 8.41-6.688 8.41,7.976 13.043,10.89 2.59.539 4.636,1.832 7.547,1.403 .968-3.344 4.203-4.637 0-6.903 0-.539.109-1.617-.649-2.051 2.375-4.527 6.254-2.91 9.594-1.398l12.289-5.395c-6.145-.32-13.367.758-17.031-3.449-1.293-2.265.648-5.715 2.695-6.902-4.418-2.477-14.012.219-13.043-7.438 1.293-3.019 9.379-5.714 3.449-8.949-.968-1.836 1.188-4.746 3.45-5.394-2.586-2.047-10.348,4.097-10.993-2.911-1.082-3.019 3.125-3.988 4.094-5.39-1.402-3.883-10.242-3.02-6.898-8.949 2.261-1.942 7.328-3.883 3.449-7.547 4.203-4.746 11.535-7.332 16.492-12.942-2.695.649-4.742-.754-6.144-2.695-.754-6.793 12.398-5.715 6.144-13.047 2.695-5.39 16.168-6.578 8.731-14.449 .539.215-5.821.215-6.036-3.449l7.438-8.735c-2.586-1.726-7.223,7.981-9.594.645 .863-6.899 12.934-10.781 5.496-17.68 6.039-7.441 1.293-18.441 11.75-22 3.449,3.02 0,6.149 3.989,8.949-2.481,2.7 2.589,3.778 2.695,6.149l-7.438,10.242c3.774-.32 8.946-8.086 14.336-4.098 0,7.551-9.593,9.274-11.64,15.743 4.636-2.262 8.945-5.067 13.043-8.84 2.261-.434 3.234,2.265 4.742,3.449-2.696,3.344-5.172,7.227-8.84,10.137-1.293,1.511-3.77,2.91-1.293,4.746 1.617,5.496-4.957,8.41-6.898,10.89 3.558-.109 7.652-5.5 10.886-.539 .215,7.114-10.023,10.352-14.984,15.743 2.59,2.48 7.547-4.208 9.594,2.046 2.375,3.559-5.387,4.532-.754,7.442l-2.696,2.695c1.512.969 4.852.754 6.145,3.449v2.696c1.836-1.723 4.637-1.723 6.898-2.696 .864,1.512 3.774,2.481 2.696,4.852-4.313,6.902-13.043,8.844-19.188,14.344 1.832,2.156-.539,4.097-.754,6.144 4.961,2.371 13.258-5.39 13.797,4.207-3.449,6.145-11.531,6.793-17.246,10.137 3.988.32 7.652,1.398 9.055,5.605l-.754.539c1.726,1.403 2.48,3.02 2.801,4.852l-1.508,1.508c5.715-.32 11.965-.32 15.953,2.695-.324,3.883-5.281,6.258-7.652,7.442 5.39,2.156 12.718-7.118 17.136.753-5.496,5.071 3.989,7.981 4.852,11.54 7.437.429 9.269-6.899 13.582-11.54-3.449-2.261-9.375,1.836-11.641-3.449-.754-4.203 3.559-5.39 6.145-6.902l-17.68-.539c-1.617-1.399-3.015-3.34-1.508-4.852 4.528-4.957 11.535-4.422 15.844-8.195-4.418-2.156-13.687,1.512-13.687-5.496l4.093-3.453c-1.937-2.91-15.09,1.297-12.394-6.899 8.515-2.48 11.64-8.843 20.48-10.246l5.606-2.047c-4.098-3.343-14.66,1.508-13.692-6.902 5.606-3.773 10.352-5.5 15.739-10.242-8.516,2.586-13.258-4.313-20.481-4.746-1.183-1.184-.644-3.34-.754-4.742 2.371-4.208 9.164-2.481 8.84-8.305-2.695-1.184-5.066,2.695-6.793-1.293 1.297-5.606 7.438-7.871 10.996-11.754l-6.144-.539c-2.371-7.438 12.289-7.008 5.39-12.938 .754-6.468 8.192-11.539 12.395-17.254-1.074-5.929-13.149-1.726-12.395-8.839l12.395-13.051c-8.192-2.371.972-7.332 0-11.645l1.941-1.941c-1.617.648-2.261-1.293-3.449-2.047-.863-4.527 4.203-5.176 6.359-7.547 .539,0 1.618.215 1.942-.754 .863,1.938 1.617,5.391-.649,6.899l-2.047,1.402c1.184.863 1.184,4.852 3.45,2.695 2.156-1.726 4.851-3.988 7.437-2.695-2.262,1.941-3.773,3.988-3.988,6.793 1.293-.109 2.48.215 3.449,1.402 .539,9.383-10.348,11.106-15.199,17.789 5.281,1.727 18.434-10.027 19.187,1.942 3.344.648 2.696,4.637 2.696,6.363-3.02,4.852-8.946,8.625-13.582,12.832 2.156,2.266-1.184,4.637-.754,6.254l-5.391,3.34c2.481.863 7.438-3.77 10.887-.645 .648,7.442-8.082,7.008-11.641,11.645 4.957-2.156 10.563-2.91 15.09-6.363 1.617,0 3.02.757 4.098,2.16 2.695,6.683-6.36,6.144-9.594,8.949h-.648c3.558,0 11.644-3.129 17.031,0-1.184,6.469-13.258,7.656-8.945,15.742-.54.43-.864,1.617-1.942,1.403 1.942,3.449 11.426,2.046 8.192,9.488l-11.641,8.84c3.773,1.941 14.121-1.403 13.043,5.609-1.078,3.883-6.145,3.449-8.945,6.145 1.183.433.539,1.941.753,2.695 4.637-.324 9.809-5.067 13.582-1.399-4.636,3.879 1.188,11.86-7.546,11.75-1.184.539-.43,2.157-.645,3.45 3.34.109 9.055,1.402 6.789,6.687-2.156,1.942-6.574,1.617-6.789,5.5 .539-1.187 1.938-.433 2.801-.539 .109,1.293 2.59,2.695.539,3.988 .969,2.266-4.633,3.668-.539,5.606v8.09c2.695.105 5.5-3.453 9.594-1.942-1.618-1.187-2.371-2.91-2.157-4.851 .758-.539 1.078-1.727 2.157-1.297-.215-1.832-3.664-3.02-1.399-4.852 1.399-3.879 5.281-.968 7.543-2.801 1.188-2.375-1.941-4.097-4.203-4.851l-.648-.543c2.156-5.391 8.3-3.559 11.75-6.898 3.664,1.078 5.929-1.833 8.839-2.696-4.418-1.941-15.953,4.742-21.882-3.453 1.726-3.559 8.191-3.988 4.742-9.594-1.617-1.187-5.387-.109-4.742-3.453 2.695-4.203 10.562-2.262 10.132-7.437-3.449.859-6.25-2.16-9.593-3.453 .754-6.469 8.625-4.204 12.504-7.657-5.391-.754-10.672-.32-12.504-5.39 5.39-1.942 10.347-4.637 15.738-6.145 .324-3.019-5.176-2.371-3.988-6.148 2.047-3.559 6.359-1.508 8.84-4.203-2.696-4.746-9.165.754-12.29-2.696-2.265.215-4.203,0-5.39-2.05-.969-2.586 1.187-3.879 2.695-5.391 3.449,0 5.067-3.449 8.192-4.203l-3.45-3.992 6.145-6.145c2.265-.215-3.555.215-4.742,1.402l-4.852-4.207c3.774-4.961 9.809-7.656 14.445-12.293-4.097.864-6.468-.105-9.593-2.695 1.507-2.48 5.605-6.684 8.191-8.195-.754-2.156-5.066-2.156-4.203-5.606l14.445-12.293c-6.683-4.742 3.34-9.273 4.094-14.34-3.879,1.079-3.879-3.992-2.691-6.148 1.937-.754 4.523-2.262 6.789-.754 3.234,1.836-.43,3.774.754,6.149 1.832,3.015 8.191,2.695 4.742,7.652 3.019,1.402 0,3.559 0,5.394-2.477,4.957-7.762,3.34-10.348,8.192 4.098-.969 5.281,4.961 2.91,7.551l-8.297,6.254c4.743-1.512 10.778-3.129 14.981-1.512 .648,9.597-10.238,8.844-14.981,14.449 4.957.973 7.543-5.715 12.286-3.34 1.187-1.187 3.343-.539 4.851-.758l2.047,2.161c-1.184,1.722-3.449,3.449-2.695,5.39l-5.496,2.801c3.773-2.371 8.945-1.184 13.043-3.449l1.293,1.402c-2.477,3.559-5.497,6.363-8.192,8.734 1.942,1.399 4.957-.109 6.145,2.911-.649,1.507-2.696,3.125-1.942,4.636 2.91,2.91 12.828-1.511 10.133,6.793-7.008,3.02-14.551,4.961-21.234,8.95 3.019-.11 5.711,0 7.652,1.941-.969,4.527-3.125,7.98-8.301,7.656l-.754.645c3.344.758 7.871-1.723 9.594,2.05-.105,10.028-12.289,5.715-17.031,11.645l12.289,1.402c2.695,2.586-2.266,4.637-.649,6.903-.859,1.183-2.371.429-3.449,1.293 4.203,1.726 11.86-3.668 15.739,1.941-3.125,2.91-5.391,5.715-9.594,6.902-.106,1.184.433,2.692-.754,3.45 4.098.429 8.625-1.188 11.75,1.402 1.617,8.949-8.516,6.145-12.289,10.348 3.449,1.402 13.476-3.34 17.785,1.297-1.293,1.832-2.047,3.558-2.047,5.39l-5.605.754c.429.324.968.754.754,1.297l-16.493,3.449c7.547.215 16.168-.863 21.344,3.449 4.957-2.047 4.742,4.852 9.484,3.45 1.188.757 1.403,1.941 1.293,3.453-2.046,0-1.293,2.586-.535,3.449h1.293c2.801,3.019-2.59,5.391-.758,8.086l-9.484.754c6.898,3.453 15.629,6.797 24.578,8.304h2.695l-4.746-4.851 3.45-3.453c.324-.106-3.77-2.477-3.45-4.742 3.129-3.45 8.196-1.832 11.645-4.098-4.207-.43-7.762-1.941-10.887-4.207-.433-4.313 3.231-5.172 2.692-8.84-.754-1.508-4.204-2.371-2.153-4.203 1.293-2.375 3.664-1.727 5.606-2.699 1.508-2.371-8.086-6.039-.758-8.196-.859-2.371-4.848-1.507-3.449-4.742l2.804-2.156-5.5-4.746 3.989-4.852-3.989-3.988 6.145-5.609c-3.77,3.019-5.711-2.371-8.836-2.696 .754-4.312 6.465-5.82 9.594-8.84-3.129.54-4.637-3.234-6.903-4.746l5.5-5.5c-4.203,1.942-8.839-.214-10.996-3.449 2.696-4.097 7.547-4.851 10.996-8.301-3.558,1.942-6.254-.539-8.945-2.695-1.187-2.805 2.371-3.129 3.445-4.746-1.937-.863-4.308-.324-5.496-2.695 .864-5.176 7.008-6.469 10.242-10.246-3.882,1.941-3.449-3.016-6.144-4.094 1.832-3.129 6.035-4.098 8.836-6.039-.535-1.512-4.309-2.914-3.449-5.61l6.363-3.449c-1.188-.43-.648-1.726-.758-2.695l5.5-4.207c-1.187-1.184-3.988-.215-4.203-2.695 .754-4.637 5.82-4.204 8.297-7.442-.969-3.879 1.187-9.594 3.449-13.801-.644-.539-1.832-.859-1.398-1.941 1.398-3.555 5.281-1.832 7.543-1.293 1.617,2.914 1.187,6.039-.754,8.734l-1.399,1.403c1.184,2.047 2.153-1.184 3.446.754 2.156,3.453-2.368,6.144-3.985,8.195 1.938.754 5.926-.754 6.141,2.695 .109,3.668-3.988,5.391-6.141,7.551 3.879,2.477-1.726,4.633-.758,7.437h-1.402c1.188,1.079.434,2.915.758,4.208l-3.449,3.449c1.398.429 2.371,1.617 3.449,2.695 0,5.5-4.637,5.715-8.192,8.195-1.078.969 2.911-.754 3.989,1.403 2.261,2.047-1.297,4.422 0,6.039 3.015-1.078 7.758-1.188 9.051,2.047-1.293,4.527-5.387,6.148-9.051,8.304 7.222,2.262 13.902-4.422 20.48-6.902-2.48-1.402-8.515-1.941-6.683-5.609l11.531-6.036-3.449-3.343c2.695-4.098 8.41-3.02 11.644-6.793-.539-1.293-4.422-2.805-3.449-5.5 2.91-2.91 7.652-2.481 9.594-5.391l-3.989-4.851c2.372-3.883 7.114-4.747 10.129-8.196l-3.988-4.207c1.297-2.586 3.988-4.637 6.145-6.793-1.399-.429-3.45-1.722-4.848-3.449 2.691-4.098 5.602-8.086 6.141-12.937-4.633-5.61 2.156-8.411 5.605-11.754 .973.324 2.051.429 2.695,1.402-5.929,3.449 3.668,5.82-1.402,9.594 .863.863 3.559.539 2.695,2.804 .864,2.59-1.617,3.774-2.695,5.391 .434.648 6.793.648 4.746,4.852-1.617,2.375-3.344,4.855-5.5,6.793 3.129,1.296 4.852,4.531 2.156,7.55l-5.386,4.743c3.23.648 5.496,4.207 2.691,6.902l-5.605,4.851c3.128,1.188 0,4.637 0,6.903-2.801,4.312-13.043,3.558-9.59,10.89 .215,2.801-3.129,3.125-4.746,4.743 .863,1.296 3.558-.43 3.449,1.832-.215,9.382-11.211,7.117-15.738,13.05 1.511.645 5.714-1.296 6.902,2.157 1.184,8.195-9.488,5.714-10.996,11.644 2.586-2.371 4.527,0 6.789,1.403 1.187,2.91-1.832,4.636-2.695,6.792-1.075.325-2.153.54-2.692,1.403 5.82.644 2.371,5.281 1.293,8.84-.863.863-2.051.863-2.695,2.047 2.48-.536 3.988,1.082 5.39,2.699-.214,4.418-4.097,6.578-7.437,8.301 1.832,1.296 7.437-.325 7.437,3.988l-.539.758c5.067,1.617 14.336,11.75 18.43,2.156l10.352-4.207c-3.235-1.832-6.903,1.187-9.598-2.695 1.187-6.36 9.598-4.528 13.582-8.301l5.5-3.453c-2.156.539-8.625,2.914-11.641-1.938 1.614-4.746 8.082-4.637 11.641-7.551-1.402-2.261-7.008-.754-6.254-5.39 5.5-4.422 13.152-4.528 17.25-11-1.187-1.617-8.41.758-9.594-4.742 5.282-3.129 10.887-5.286 17.032-6.364-3.668,1.512-5.825-1.722-8.196-3.988 1.078-1.512 4.313-2.91 2.051-4.852l-.754-.757c3.016-.536 6.789,3.343 9.59-.536-1.723,0-3.664-2.48-5.387-4.101 1.184-4.094 6.789-3.016 9.594-6.145-1.297-.644-3.129-1.183-4.207-2.695 1.078-3.988 7.332-4.312 8.301-8.84-.969-2.051-3.879-3.238-2.696-6.258 4.637-1.507 7.442-11.535 12.938-6.793-7.008,5.61 2.48,12.293-4.098,17.903 2.371-1.078 3.235,1.617 4.743,2.695-.106,3.559-4.633,6.578-6.68,8.195 2.047,1.508-.758,4.313-.758,6.575 1.297,1.726 8.301,1.726 4.746,6.363l-.758.539c.758-.106 1.078.324 1.512.754-3.449,1.836-6.469,6.793-4.203,10.246 9.699,4.203 17.785,22.426 29.531,11.644 20.16-12.292 43.551-16.496 62.844-30.73 11.535-1.187 21.558-5.824 32.23-8.844-.214-1.937-1.183-3.449-2.695-4.742-1.723.43.758,3.988-2.152,4.742-4.746-1.508-7.332-8.086-12.289-8.949-1.188.863-.219,2.805-2.051,3.453-3.774-2.48-8.731-4.961-8.297-10.246 2.691-4.203 4.203,1.836 6.898,1.402 1.075-1.507.754-3.664 2.692-4.851l6.363,3.449c3.879-5.82-3.883-9.273-5.605-13.047-6.364,1.188-13.153-1.293-17.789-6.902-5.711-.43-9.375-5.391-14.336-7.438-2.696-.648-2.157,2.586-4.094,3.45l-8.195-10.891 2.05-1.508c-.433-.324-.863-.648-.754-1.402 2.477-1.293 4.094,2.91 6.145,4.203 .32-4.203 6.141-2.801 9.055-2.047-1.297-2.156-.973-4.852-3.45-6.144-1.402,1.722-2.914-.649-4.207-.758-5.066-12.614-9.808-25.446-17.89-36.985-4.313-4.418-7.332-9.488-8.735-14.988-.968.539-1.507,1.941-2.695,1.941l-4.848-9.597c.43,1.187-.753,1.941-1.293,2.804-3.773-2.265-4.097-8.195-6.359-12.398l-2.699,2.805c-.43-1.942-2.477-3.239-4.742-2.805-5.606-6.148-11.856-12.078-12.285-20.488 .753-.649 1.507-1.832 2.691-1.403 2.695,3.883 7.656,8.305 10.352,11-.649-4.097 3.23-2.695 3.984-4.851l1.402-1.297c4.207,1.512 2.371,6.687 4.742,9.598-.105-2.262.325-4.098 2.157-5.391l4.746,10.137v-25.34c-4.746,0-2.696-5.5-3.989-8.195-.648,4.961-1.511,9.703-4.207,13.8-1.722-.429-2.476-2.48-2.152-4.203-1.512-.972-3.992,2.047-5.391-1.402-.109-1.293.43-3.129-.753-3.992-1.618.543-.219,5.394-3.993,3.992l-4.847-10.352c-1.188,0-.11,5.176-3.449,6.36l-6.793-9.594c-.54,1.293-1.723,2.371-2.696,3.234-2.691-3.129-3.449-8.086-2.152-12.183l2.691,1.293c.758-1.293 1.188-3.02 2.805-3.989l6.145,8.84c1.832-4.097.214-9.597 3.449-13.047 2.586,3.883 3.234,8.196 4.847,12.399 .758-3.125-.214-6.145 2.051-8.949 3.125-.539 2.156,3.238 3.34,4.746 .863-2.805.754-7.442 3.449-10.137 1.942,2.371 1.942,5.391 2.805,8.195 .324-4.312 1.617-11.105 4.094-15.851 3.234,2.695 2.156,6.902 3.449,10.351-.754-4.957 1.617-11.32-2.152-15.203v-2.695c-1.297,1.078 0,3.449-2.051,4.207-2.477.754-2.696-1.512-3.34-2.805v-2.695c-2.695,2.047-.324,7.437-4.742,7.437-2.91-1.183-.434-4.312-2.157-6.144-.753,1.941-2.804,3.344-4.203,4.851-1.726-2.91-2.804-6.144-3.234-9.593l-6.359,6.144c-.219-5.07-6.039-9.7029-1.942-14.9881 2.696-.4297 3.02,3.0195 4.094,3.9883 0-2.4805 2.371-4.0977 4.207-6.0391l4.742,5.5c1.078-2.1562.754-4.8515 3.34-6.2539l2.805,2.8047c.644,0 1.398-5.5 4.093-5.5l2.696,4.0977 3.449-4.0977c.754.8633 2.051,1.4024 2.051,2.6953 3.554-3.7734 2.801-10.2422 5.496-14.9883 6.035-18.8671 38.375-3.7734 34.926-28.789v-2.8047c-.864,2.1562-3.125.9726-4.743,1.5117-6.578-5.3906 4.309-14.7734-4.207-17.2539-16.382-4.6367-4.957,11.9688-10.238,17.793-2.805,11.4297-12.074,24.1523-23.93,27.3867-.753.2148-3.449.6484-4.207-1.293-.105-4.8515 6.145-5.7148 9.055-8.8398 10.027-9.2735 14.77-21.7813 11.43-35.6914-2.375,4.4179-.649,11.1054-6.039,13.6914-6.36-2.2617-2.262-10.0274-3.449-14.9883-1.833-.9688-4.094,1.5117-6.79.543 3.016,10.9961.106,21.7812-4.742,30.8359-3.019,2.5898-6.468,7.5469-10.996,7.5469-.972-1.1836-2.805-2.2617-2.051-4.0977 8.196-7.0078 12.075-17.789 10.137-28.6797 0-1.1875-.543-4.0976-1.941-5.6054 .644,4.5273-.758,7.3281-4.203,10.9961-2.696,1.9414-4.207-1.4024-5.391-3.4493l-1.293-8.0898c-5.281-.3203-9.164,2.6992-13.797,3.9922 1.184,15.2031-4.746,30.7305-19.187,38.3867-1.942,22.1016.754,35.7965-2.051,57.4725-1.508,14.664-.215,27.387 1.293,41.836 5.39,10.781 17.894,7.008 25.441,13.586 9.918,3.449 15.199,13.586 24.039,19.945 1.293,1.942-2.265,4.637-4.207,2.7-13.043-6.793-21.234-21.028-36.972-21.137l-6.789-4.203c-.754,5.715.968,14.988 1.402,19.945-5.606-.754-4.207-8.086-8.301-11.754-2.48-12.183-3.234-26.308-4.742-38.277-2.695.433-2.59,6.254-6.902,5.5-2.692,1.187-4.528-1.727-5.387-3.449-4.098,1.941-3.559,6.793-5.5,10.242-1.938-3.125-1.508-5.067-5.606-6.145-2.476,3.449-2.8,9.594-7.437,10.352l-4.094-4.856 .645-.754h-5.387c-.434,3.02-4.527-.105-5.606,2.696-2.05-2.047-1.617-5.176-2.05-8.086-1.938-.324-5.282,4.527-6.145,0-.754-1.727-.644-4.203-.644-6.254-1.727-1.508-6.039,3.234-6.039-1.402v-2.696c-.645,1.293-2.047.539-2.907.754l-1.297-1.508c1.512-4.422-.214-10.242 1.297-14.879l4.203,6.145c1.399-1.402 4.309-2.266 4.743.648v2.047c3.664-1.508 5.281,2.051 5.39,5.5v2.696c2.91-1.079 2.262-6.039 6.145-4.098l2.152,4.098c.863-1.618 3.559-5.391 5.5-2.157l.645.754c3.234-3.558 3.558-11.644 9.593-10.89l2.051,2.05c1.184-.972 2.262-2.804 4.094-2.05l4.203,5.39c.973-.644 5.82-4.742 8.195,0 1.832-.863 3.555-2.695 6.145-1.941l1.293-20.485c-1.617-1.726-4.422,2.696-6.145-.753-2.695,2.8-1.941,7.332-6.144,9.593-2.805-2.156-.434-6.359-2.051-8.84-.43,3.559-4.633,1.293-6.141,3.989-1.187,2.156-3.449,4.961-6.144,4.851-.434-2.695-1.942-4.957-4.203-6.898-1.942.754-3.668,1.617-6.145,1.293 0-7.871-8.949,1.832-8.195-6.688-1.078-.215-1.508,1.188-2.695.539-1.184-1.183-.43-3.125-.754-4.742l-1.938,1.293c2.586-6.683-10.457-7.871-4.851-13.5858l4.851,3.9918 1.293-3.9918c2.695.7539 4.203,2.3711 5.391,4.7458 3.23-2.1559 2.152-8.3044 6.359-9.4919-1.078,5.9336 7.113,4.6407 5.387,10.8949 2.695-2.6996 3.019-8.8441 7.437-10.2464 3.668,2.1562.434,9.1644 6.899,7.5468 2.375-1.5078 2.375-4.2031 5.5-4.2031l2.695,2.8008c1.078-2.1523 3.34-4.3125 6.145-3.4492l3.449,4.0976c2.91-16.2812-2.156-37.3086 15.195-46.582 4.852-7.7617 7.871-19.9453 2.695-28.7891l-1.398-1.9414c-2.371,2.1563-.109,10.7852-6.144,8.8438-4.637-3.5586-4.637-8.5195-4.743-13.586h-6.363c.324,14.6641 4.852,42.2657-12.824,51.3243-1.832-.4297-4.098.7539-4.742-1.5078-2.051-6.5782 8.621-6.254 8.73-12.9415 2.695-10.996 3.449-23.7226 2.156-35.582l-6.144-4.7461c-3.129,3.1289.859,12.6172-6.254,13.0469-6.789-2.2617-.539-13.1523-6.789-12.5078l-8.192,4.207c3.016,7.5469-.648,12.6172 2.047,20.5938-.863,7.1172 1.403,14.0195 1.403,22.5351-1.727.6485-3.02,2.1602-4.852,2.1602-4.312-5.2852-.109-11.1094-3.449-16.5-.863-10.8906 2.156-20.918-2.695-30.0821l-2.051-1.5117c-2.586,3.5586.109,12.6172-7.543,11.1055-3.883-3.8789-2.371-7.2227-2.805-12.5078-2.371.6484-5.281,1.4023-6.144,4.207-3.446,12.5078-2.801,30.1914 4.207,41.836 3.015-.6446 5.496,1.0781 6.683,3.4531-1.617,3.5547-6.683,3.9883-10.133,2.6953-8.949-13.1563-11.644-29.2227-7.652-45.2891l-2.695-2.0508c-1.617,2.2657-1.512,7.6563-6.145,6.1485-3.129-1.5078-2.48-4.8516-2.695-7.5469-4.637.3242-4.637,6.3594-6.899,9.5977-3.128,15.6328 3.45,32.1289 17.137,41.1875-.429,1.9414.863,3.1289 1.297,4.8515-2.805,2.8047 1.074,6.2539 0,9.5977 4.203,18.3317-3.992,35.0427-6.148,52.6207-7.004,4.957-2.801,15.957-8.836,21.887-2.481,6.149 6.035,18.547-4.746,19.84-.86,9.059 7.656,17.793.539,25.988 2.265,11.106 2.265,22.321-2.692,32.239-1.297.109-2.48-.215-3.449-1.403 3.016-12.289 3.664-26.308-.539-38.277 3.77-5.606.539-11.754 0-18.547-4.852-2.481-11.211-3.664-17.141-4.852v.754c-9.379.325-19.941-.324-29.32-2.047 .324,3.989-2.156,5.391-4.203,7.547-7.328-2.695-14.984,2.157-21.883-1.402 .969,3.883-4.312,3.129-3.449,6.793-7.652-.539-15.844,1.836-23.176-2.047 1.188,3.449 1.078,6.902-1.293,10.352-7.652.754-16.062-.758-22.637-4.098-7.222,6.039-18.753,3.664-26.839-.758h-1.293c2.261,4.856 2.8,7.981 0,12.293-6.793,1.188-13.692-1.508-19.188-5.391-.43,3.129-1.617,5.176-4.851,6.793l-10.133-4.097c1.941,3.883 1.187,9.168 4.742,12.293 4.422-1.942 4.961,3.668 8.301,5.609 2.05,12.508 1.187,24.258 3.234,36.985-2.371,1.507-2.91,5.175-6.144,3.449-3.555-4.528 1.293-9.598-1.293-14.449-8.082-5.391 1.183-13.801-2.696-19.84-2.695,1.293-7.004-.754-7.437-4.098-.754-9.379-4.094-17.793-9.594-25.449-6.035,4.316-10.023-1.832-13.043-6.145-4.312-8.515-13.473-13.91-21.988-16.281-.649,1.188-.649,2.48-1.942,3.234l-2.156-1.941c-.105-1.078-2.047,1.402-1.293,2.695-1.078,1.512-3.234,0-3.449-.754-1.402,1.942.109,5.067-2.695,6.254-.969-.863-.969-2.047-2.157-2.804 .325,2.375-.324,4.531-2.047,6.148-2.585-2.805-4.527-6.148-5.39-9.598-2.262,1.079-1.078,4.852-4.203,6.254l-2.696-5.5c-1.832-1.293 1.079,2.59-2.156,3.453-4.094-1.941-2.801-7.226-5.387-10.351-.972,2.262-.648,4.957-2.804,6.898-2.262-4.527-3.449-9.593-4.742-14.34l-3.45,4.747c-2.156-3.235-4.097-7.875-4.851-12.293v-1.297c-1.508,2.375-1.508,5.179-3.235,7.441-3.664-4.422-1.937-9.273-1.507-14.34l4.742-6.902c1.941,4.207 2.695,8.734 4.203,13.047 1.402-2.586.648-7.008 4.098-7.547 3.234,3.019 2.156,7.656 3.449,11.539 1.183-2.051.105-6.578 3.449-6.688 1.941,1.618 1.941,3.993 2.695,6.149l.645-6.149c2.59-1.617 3.988,2.805 4.851,4.747l.539,4.851c.754-2.265-.109-5.285 2.157-6.902 3.879,2.48 3.554,8.195 5.496,12.293l.648-12.293h2.801c.324-1.617-.859-3.879 1.402-4.852 1.188-.429 1.727.754 2.696,1.403 9.703-6.903 3.449-18.114 6.144-26.633-3.664-1.188-2.586,9.379-7.547,5.39l-.754-6.144c-3.449,3.664-3.878,9.703-8.839,11.644l-2.696-5.5-2.8,2.805c-3.45-1.832-1.508-6.902-1.942-10.351-.324,2.585-2.156,4.636-3.449,6.898-1.832-4.203-2.371-9.594-2.047-13.801l-5.605,5.61c-3.989-.325-.11-7.227-4.743-6.149-.324-4.961-8.73-7.332-2.695-12.2929 1.184,1.293 3.125,2.375 3.449,3.9919l2.696-2.6989 1.293,7.5509 6.253-8.3048c1.832.6484 1.832,3.3438 2.692,4.8558 2.914-.864 1.512-5.7152 5.39-5.3949 1.833,1.836 2.481,3.9919 2.157,6.6879 .863-1.403.863-3.559 2.695-4.7465 7.008,1.0782.859,11.6445 2.801,13.8005l6.144-13.0466c4.637-1.1836 2.266,4.6366 4.852,5.3946l-.754-.648c2.48-1.293 2.371-4.852 5.496-4.7466 1.402.8636 1.402,2.2656 2.156,3.4536 1.618-4.8559 10.996-11.2153 4.743-16.5004 .324-4.6368 3.558-1.5078 6.144-3.4493 10.781-5.0664 16.602-16.7109 16.492-27.3867-2.695-2.2656-2.261-5.7148-5.605-7.4414-3.879,0-3.664,5.9297-8.192,4.7461-6.035-3.7773 1.188-17.039-10.347-14.3437-.11,5.1757 3.558,13.1562-.539,18.332-1.293,4.2031.215,12.832-6.899,15.2031-.969.1094-2.265-.4297-2.695.7539-4.418-5.1758 1.726-9.164 2.695-13.8008 2.262-7.332 2.371-16.6054-3.449-23.1835-3.02.7539.863,4.207-1.402,6.1484-1.508,1.293-2.262,4.0937-4.743,3.9883-4.203-2.6953-2.91-7.6563-4.097-11.6446-2.801-.3242-4.957.5391-6.899,2.0469 .539,3.668 4.957,7.9805 1.403,11v1.293h1.293c3.019,7.5469-3.559,14.5586-1.293,21.2422-1.188,2.1562-3.34,2.2656-5.391,2.1562l-2.156-2.1562c2.265-10.1367 4.746-20.4883.648-30.8399l-3.988-2.6953c-1.727,3.7735 1.184,11.1055-5.605,11-3.02-3.0195-2.372-7.6562-3.235-11.539-4.851-2.6954-6.789,3.9921-9.055,6.6875-1.183,8.8398-1.183,18.7617 2.696,26.0937-.863,2.6953 2.156,4.6367 0,6.8984-.863-4.4179-8.84-2.2617-6.684-7.5468-4.633-6.5782-4.418-15.8516-4.203-23.2891-2.371.2148-5.82-.3242-8.301-2.1562v-5.3946c-5.172,1.1875-1.183,7.2266-3.234,10.2461-3.016,10.1367 3.883,17.5742 5.391,26.7422 5.066,1.1836 9.164,5.0664 10.347,10.2422 .11,12.832-4.957,29.3283-9.054,42.4843-1.403,21.887-13.153,48.09 4.851,67.066 5.172,3.883 7.328,9.059 10.887,13.696 1.832-.973-.539-5.176 2.156-5.391 5.93,22.86-11.211,41.945-19.836,60.922-2.371,2.586-.535,5.391-2.047,8.84 0,2.805 2.047,4.746 3.989,6.902-4.852,4.207-6.684,9.813-8.192,15.742 5.82,7.442-7.762,7.332-9.594,14.34-.429,6.473 3.879,12.508 6.899,18.332 1.078,1.832 1.941,3.45 3.449,4.746-3.125,4.528-9.484,1.399-12.289,6.145 4.852,9.488 9.488,17.254 15.738,26.094-2.586,1.078-6.25,3.129-4.851,6.148 4.207,3.774 8.41,6.145 10.996,10.887-1.403,3.129-4.528,1.836-6.899,2.16 2.371,5.93 12.075,10.348 12.395,17.789 5.066,6.148 9.812,10.781 14.984,15.098 .215,5.281-5.39,2.695-3.449,8.84 1.078-1.184 2.91-.43 4.203-.54 1.512,2.157 2.805,5.391 1.402,8.086 6.254-1.722 3.235,7.551 8.84,6.254 1.723,1.512 3.235,3.02 2.801,5.395 4.742,1.293 9.594.754 14.336-2.051" fill="#f89c35"/>
   <path d="m203.391,256.645 3.449-12.075 1.723-24.047-5.172-10.351c0,0-8.625-3.449-15.524-11.969-6.898-8.625-13.797-10.351-15.523-20.703-1.617-10.352 1.726-22.32 1.726-22.32s3.45-15.528 10.348-25.879c6.035-9.055 5.496-12.828 13.473-18.328-.106,3.988.539,8.84 2.156,12.613 1.293-2.262 3.125-4.313 3.449-6.898 .434,3.449-1.508,8.519 1.942,10.351l2.8-2.805 2.696,5.5c4.961-1.941 5.39-7.98 8.839-11.644l.754,6.144c1.293.973 2.157,1.079 2.805.649 .43,2.801.645,4.418.645,4.418l1.511,12.508c-.863,1.296-2.05,2.589-3.558,3.668-.969-.649-1.508-1.832-2.696-1.403-2.261.973-1.078,3.235-1.402,4.852h-2.801l-.648,12.293c-1.942-4.098-1.617-9.813-5.496-12.293-2.266,1.617-1.403,4.637-2.157,6.902l-.539-4.851c-.863-1.942-2.261-6.364-4.851-4.747l-.645,6.149c-.754-2.156-.754-4.531-2.695-6.149-3.344.11-2.266,4.637-3.449,6.688-1.293-3.883-.215-8.52-3.449-11.539-3.45.539-2.696,4.961-4.098,7.547-1.508-4.313-2.262-8.84-4.203-13.047l-4.742,6.902c-.43,5.067-2.157,9.918 1.507,14.34 1.727-2.262 1.727-5.066 3.235-7.441v1.297c.754,4.418 2.695,9.058 4.851,12.293l3.45-4.747c1.293,4.747 2.48,9.813 4.742,14.34 2.156-1.941 1.832-4.636 2.804-6.898 2.586,3.125 1.293,8.41 5.387,10.351 3.235-.863.324-4.746 2.156-3.453l2.696,5.5c3.125-1.402 1.941-5.175 4.203-6.254 .863,3.45 2.805,6.793 5.39,9.598 1.723-1.617 2.372-3.773 2.047-6.148 1.188.757 1.188,1.941 2.157,2.804 2.804-1.187 1.293-4.312 2.695-6.254 .215.754 2.371,2.266 3.449.754-.324-.539-.215-1.402.11-1.941l.214,1.402 12.071,13.805c0,0 0-11.973 3.129-12.941 1.293.753 2.476,1.507 3.664,2.371 2.156,3.019 4.957,8.843 8.625,19.195 15.519,43.023 12.07,54.992 12.07,54.992l-22.313,30.945-20.265,1.942c-.215-.324-.43-.539-.754-.863-1.508.109-3.016.648-4.313,1.402l-10.777.969-6.898-27.496zm5.605-153.868c.215-.324.43-.539.535-.754-.105.645-.32,1.184-.644,1.618 0-.325 0-.539.109-.864zm3.125-3.7731c6.145,1.5081.43,11.6441 2.262,13.6911l4.746-9.918c-.109-.324-.219-.648-.324-.972-1.942-8.0862-3.45-6.6839-6.684-2.8011" fill="#fabe71"/>
   <path d="m519.762,213.625-8.625-5.176-17.246-18.871v-41.297l.863-3.453h.109c.86-.215 2.262.539 2.907-.754v2.696c0,4.636 4.312-.106 6.039,1.402 0,2.051-.11,4.527.644,6.254 .863,4.527 4.207-.324 6.145,0 .433,2.91 0,6.039 2.05,8.086 1.079-2.801 5.172.324 5.606-2.696h5.387l-.645.754 4.094,4.856c4.637-.758 4.961-6.903 7.437-10.352 4.098,1.078 3.668,3.02 5.606,6.145 1.941-3.449 1.402-8.301 5.5-10.242 .859,1.722 2.695,4.636 5.387,3.449 1.402.324 2.371-.215 3.128-.973v32.676c0,0 6.899,18.867-3.449,20.594s-30.937,6.902-30.937,6.902zm-22.098-81.09 1.402,2.051c1.399-1.402 4.309-2.266 4.743.648v2.047c3.664-1.508 5.281,2.051 5.39,5.5v2.696c2.91-1.079 2.262-6.039 6.145-4.098l2.152,4.098c.863-1.618 3.559-5.391 5.5-2.157l.645.754c3.234-3.558 3.558-11.644 9.593-10.89l2.051,2.05c1.184-.972 2.262-2.804 4.094-2.05l4.203,5.39c.973-.644 5.82-4.742 8.195,0 .645-.324 1.293-.754 1.938-1.183-.43-6.254-1.184-13.371-1.938-19.95-1.297,2.59-1.511,5.715-4.851,7.547-2.805-2.156-.434-6.359-2.051-8.84-.43,3.559-4.633,1.293-6.141,3.989-1.187,2.156-3.449,4.961-6.144,4.851-.434-2.695-1.942-4.957-4.203-6.898-1.942.754-3.668,1.617-6.145,1.293 0-7.871-8.949,1.832-8.195-6.688-1.078-.215-1.508,1.188-2.695.539-1.184-1.183-.43-3.125-.754-4.742l-1.938,1.293c1.723-4.422-3.449-6.469-5.5-8.949-1.508,3.988-.105,8.305-2.371,18.223-1.078,4.746-2.156,9.382-3.125,13.476zm7.547-35.2577c.969-1.1835 2.371-2.4804 4.203-4.0976 10.348-8.625 24.035-18.8672 24.035-18.8672l15.524,22.3203c0,0 .109.4297.109,1.0742l-2.156-2.2617c-3.125,0-3.125,2.6953-5.5,4.2031-6.465,1.6176-3.231-5.3906-6.899-7.5468-4.418,1.4023-4.742,7.5468-7.437,10.2464 1.726-6.2542-6.465-4.9613-5.387-10.8949-4.207,1.1875-3.129,7.336-6.359,9.4919-1.188-2.3747-2.696-3.9919-5.391-4.7458l-1.293,3.9918-3.449-2.9137" fill="#fabe71"/>
   <path d="m819.316,439.195c-3.554,1.942-5.066-3.879-8.836-2.047-.648-2.265-1.941-4.207-1.402-6.902-.863,1.188-2.051,1.512-3.449,1.297-3.234-3.992-7.762-7.766-6.793-13.59l1.293-1.398 6.898,6.144c.325-1.726 2.266-2.804 3.453-4.203 1.614.969 3.989,2.586 3.989,4.852 1.074-2.696 3.449-.649 4.847,0 1.188.754.539,2.261.754,3.449 2.805-1.508 4.422,1.617 6.145,3.449-.215,1.727 0,3.883 2.051,4.207h2.695c.32-6.363-1.512-11.43-3.453-16.5-15.52-.215-36.324-2.262-54.649-3.449 2.696,5.93-4.636,4.422-4.203,9.598 15.414,8.304 32.121,13.91 48.723,19.086l1.937-3.993" fill="#fabe71"/>
   <path d="m529.78 430.25c-3.015-2.262-7.976 1.942-10.238-2.695 0 2.051-3.129 4.422 0 6.148 3.773-0.215 6.898-2.265 10.238-3.453" fill="#f89c35"/>
   <path d="m763.91 426.15c-0.43 1.403-5.281 3.02-2.691 5.395l2.691-5.395" fill="#231f20"/>
   <path d="m581.85 426.8c-4.207-1.508-7.762-3.344-6.145-8.844l5.387-8.301c-7.219-4.312-18.11-2.48-25.867-6.898-3.344-0.863-5.282 1.832-7.657 2.91 6.578-2.266 9.703 3.774 15.094 3.234 3.34 4.204-2.48 7.981-4.207 11.754h11.75c2.051 1.942-0.969 3.45-0.644 5.496 2.585 1.836 4.527-1.078 6.789 1.942v2.914l5.5-4.207" fill="#f89c35"/>
   <path d="m664.1 430.25c-0.325-1.723-3.02-3.234-4.852-3.449 0.43 2.266 1.617 4.312 4.852 3.449" fill="#231f20"/>
   <path d="m655.8 419.25c0.754 3.449 3.449 4.852 6.144 6.898-2.371-2.8-2.695-5.175-6.144-6.898" fill="#231f20"/>
   <path d="m730.387,421.945c-3.879-4.746-9.699-5.39-13.688-10.136 1.723,3.129-.863,6.578 0,9.597-1.941.754-1.941-1.511-2.804-2.156 3.019-2.695-2.586-3.668-.54-6.902-3.339,3.668-6.789,8.41-9.05,13.047 7.972-1.184 16.922-3.235 26.082-3.45" fill="#f89a83"/>
   <path d="m524.934,421.406c-1.293-1.511-3.664-3.453-3.231-6.148 1.293-2.695 4.418-.969 6.684-1.508-1.297-1.832-6.364-2.371-3.989-5.391 3.665-3.019 8.512-2.589 12.286-5.605-3.879-1.402-9.485.32-12.286-3.344l3.989-4.851c-5.176-4.317-12.074-4.961-17.035-10.137-3.34,2.91-6.899,5.066-10.887,6.144v.539c3.344,1.942 8.195-1.183 11.644,2.911-1.078,3.668-3.019,6.687-6.898,8.195 3.34,1.512 8.082-.43 10.133,3.453 .969,3.125-1.617,5.066-2.696,7.438h-1.296c3.128.218 10.781,1.402 6.902,7.55l-4.852,2.696c4.203,2.371 7.653-1.403 11.532-1.942" fill="#f89c35"/>
   <path d="m653.746,402.754c.973-4.746 4.746-8.738 7.438-12.188-16.598-9.812-33.629-18.761-49.797-29.543 1.722,3.989-2.91,8.086-5.606,9.598 2.91,7.008 6.36-5.285 8.84,2.801l2.152-2.047c1.942,1.617 3.668,3.449 3.45,6.145 2.48-2.586 3.234,1.617 4.746,2.695-1.297,3.558-4.313,8.949-8.196,8.949-.968-4.312-3.449.324-5.386-2.047l1.293-7.547c-3.02,1.078-4.637,14.989-10.887,8.301v-.754c-1.402,1.942-4.098,3.449-6.898,2.696-4.098,3.449-5.286,8.085-5.5,12.941 .863,2.695 3.664,3.664 6.039,4.203l2.152-4.746c1.187,2.699 5.93,0 5.5,3.992l2.695-6.148c1.832,2.699 5.172,3.343 4.848,6.902 3.449-.754 5.824,1.941 9.594,1.941 2.05-4.636 3.668,3.02 6.898,1.508 9.055,1.078 17.789.434 26.625.649v-8.301" fill="#fabe71"/>
   <path d="m576.352,403.508c0-8.844 11.644-13.586 8.949-22.535 2.695-5.715 6.144-12.188 12.285-15.207-.43-4.313 3.234-7.762 4.746-10.891-6.144-4.637-12.937-10.781-19.836-14.988-6.789,2.375-13.473,5.609-19.832,9.597 2.477-.429 4.848.325 5.387,2.696-1.938,1.617-1.184,5.715-4.742,5.39 2.695.325 3.882-.859 5.5,1.512-1.188,8.086-11.106,9.918-17.032,13.586 3.555.43 8.836-1.508 10.133,2.695-1.726,3.344-3.988,5.285-7.437,6.145 3.449,3.668 16.273-8.625 12.285,3.453-6.035,9.598-15.844,3.773-23.176,10.352l14.875-.754c1.727,1.617 0,3.449-.535,4.851 6.141,1.293 12.285,2.801 18.43,4.098" fill="#f89c35"/>
   <path d="m790 399.41v4.098l1.297-2.051-1.297-2.047" fill="#231f20"/>
   <path d="m796.141,400.703c-.969-.863-.215-2.59-1.399-3.344-2.265.754-1.617,3.668-.758,4.852 1.079.324 1.403-.859 2.157-1.508" fill="#231f20"/>
   <path d="m629.063,383.02-.645-.754c-1.617,1.183-2.371,2.695-2.051,4.851l1.293,1.293c1.078-1.078 4.637-3.558 1.403-5.39" fill="#231f20"/>
   <path d="m724.246,377.52c12.824-1.079 27.699-.969 37.617,10.351 8.301-.648 14.875-5.605 22.528-7.656-.43-1.184-1.723-1.832-1.293-3.449l1.293-1.403 4.207,3.453c3.015-2.05-2.371-5.824 1.398-8.195 0-1.512-.539-3.129 1.297-4.101l2.152.648c-1.074-1.617 1.618-5.066 3.989-6.145 1.082.43 2.156.645 2.695,1.293 .863-.648.863-1.941 2.156-2.695-1.722-1.293-2.476-3.234-2.156-5.391l1.512-1.402c-7.977-6.793-17.789-11.539-28.137-14.449-8.082-9.059-21.879-10.137-34.277-12.293h-1.399c3.664,2.156 1.938,4.531 0,6.902-7.332,1.508-10.133-7.441-16.277-10.89-3.559-1.618-7.762-2.266-11.106-4.746-6.898.539-11.531,8.304-19.187,5.285-7.328-.43-12.719,18.437-19.723,8.301-18.972,10.351-39.344,18.117-58.211,27.39 16.602,10.781 33.524,20.809 50.774,30.082 14.66-16.93 41.824-1.187 60.148-10.89" fill="#fabe71"/>
   <path d="m730.39 372.67c-4.094-1.941-7.977-2.371-11.641-0.754-7.976-2.48-19.187 1.941-28.023 1.508l2.047 1.402c13.363 1.293 26.085 3.668 37.617-2.156" fill="#231f20"/>
   <path d="m278.844,261.281c-3.016-2.695.109-5.605-2.91-8.301 4.636-10.89-7.762-16.496-5.391-28.144-.859-1.184-2.047-1.508-3.449-1.293l-1.293,1.293c-3.34-6.254.109-12.723-4.852-18.438-2.695,1.079-.105,10.028-4.742,6.145l-3.449-12.289c-2.262,1.508-1.403,5.715-2.695,8.301-1.618-2.157-2.586-4.528-3.45-6.903-1.937-.754-1.937,1.942-2.8,2.7l-3.45-2.7-2.695,8.844c-5.281-1.187-2.695-6.902-6.145-9.598-2.695,4.747-.214,9.274-3.449,13.805-4.203-1.512-.215-6.363-3.449-8.305-1.832,4.528-1.832,9.598-2.695,14.45-4.528,2.48-4.637-3.989-6.899-6.145-2.265,4.418-1.187,11.211-3.449,16.387l-2.695-3.449c-1.188,3.988-3.879,11.539-4.852,17.898-3.879-2.262-3.879,4.637-2.695,6.688 .539,3.015 1.512-.758 2.695,1.507 4.203-3.882 10.781,2.371 11.75-6.254 2.481-1.402 9.809.54 9.594-5.39 1.726-1.188 4.418,1.508 5.391,2.695 0-1.187 1.507-1.941 2.046-2.695 3.125,1.617 1.188,9.812 6.899,6.144 4.098-2.48 2.051-7.546 5.496-10.351-.215,2.48 3.344,4.637 5.391,2.805 1.078-1.188 2.695-.54 4.203-.754 .218-.864-.539-2.266.648-2.696 .863,1.832 3.879,4.098 2.695,7.547 2.372,2.371 10.457.106 7.653,6.903 5.176.539.433,9.273 6.683,9.593 .325,3.992 5.282,6.258 4.204,10.891 2.804-2.262 1.832-8.086 2.156-10.891" fill="#231f20"/>
   <path d="m532.59,219.445c-1.078-6.144 3.879-8.086 8.301-10.351 .859-5.824-.325-14.235 8.082-13.586 2.156-7.008 4.312-13.047 3.343-19.949 .969,4.636-5.39,3.453-5.39,7.656-1.617-1.508-3.344-4.203-5.5-2.156-2.692,4.097-1.617,11.105-8.836,10.242 .215-3.016-2.805-4.957-4.203-7.547-2.266.648-3.883,3.773-4.746,6.148l-4.094-3.992c-.539,1.188-1.942.434-2.695.539-2.266-1.722-.973-5.066-3.45-6.683-1.941.109-3.449,1.078-4.742,2.695-2.265-6.902-6.469-1.402-8.949-8.195-2.477-1.293-4.633,3.882-5.387-.645l.539-.758-.539-.754c-1.078,4.313-1.078,7.547 0,11.645l.539-.539c2.371,1.512 2.907,3.883 3.446,6.148 1.078-.863 2.695-.754 4.207-.754 1.507,1.938-.325,4.957 1.293,6.899 1.402.863 3.234-1.508 5.39-.754l.754,11.644c2.586-.109 4.848-1.187 6.899-2.695 2.586,2.586.753,6.793 1.402,10.242 2.691,1.297 7.004-.644 7.437-4.097h.754l1.403,11c1.507-.539 2.691-2.051 4.742-1.403" fill="#231f20"/>
   <path d="m306.762,191.301c.754-4.203-4.742-10.781 2.156-12.938 8.191.649 14.336,7.547 22.527,6.149-.754-2.16-1.722-4.422-4.093-5.5l-.649-7.442c-1.937,1.403-4.742,6.145-8.191,3.45-2.91-3.34.109-8.086-5.606-9.055 3.883-4.207 3.664-14.774 11.75-13.047 .43,2.156-.324,6.359 3.34,4.203 1.836-1.508 4.098-.105 5.391,1.402v3.989c4.097-1.723 7.222-3.879 9.054-8.086-2.586.215-5.605.215-6.144-2.805 1.512-5.82-2.156-6.469-5.606-9.594 .754-2.804 3.774-5.285 6.145-6.793 1.941-.863 3.449-.539 4.852,1.399 .109,1.297-.43,3.019.753,3.992 1.512-2.156 2.372-3.559 4.743-4.746 7.332,5.07 11.211-6.145 18.433-5.391-2.047-8.195 11.426-5.824 10.348-13.047 3.988-7.765 4.742-18.4371 1.941-25.9879 0,1.1875-1.402,1.9414-1.941,2.6992l-3.449-.6484c.863,12.0781-7.762,24.2621-18.539,30.0821-1.188-.754-2.586-.754-3.344-2.047v-2.695c8.086-8.41 17.57-17.899 13.691-29.5471l-2.695-2.6953c-1.402,2.5898.109,6.2539-2.91,8.1953-2.696,1.2969-4.313-1.7227-5.391-3.3438-2.476-3.4492 2.91-12.8281-4.742-11.75 3.234,9.0547 3.234,21.5629-3.449,28.7889-4.098,5.824-9.918,10.457-17.141,10.352-2.047-1.188-.539-4.422 0-6.149 8.625-3.125 14.231-12.183 15.738-20.5934-.214-3.8828-1.722-7.5469-4.742-9.4883 1.293,3.5586-2.156,6.6836-4.851,9.4883-4.848-.4297-3.555-5.8243-4.743-8.9493-7.437.8633-14.55,4.6368-19.187,11-3.555,6.6837-1.184,15.9567-4.742,22.5357 .863,7.222-.969,15.203-4.852,21.242l-6.898,4.097c-7.114,11.969-9.485,27.063-16.383,39.68 .539,3.883 4.742,4.742 7.543,6.254-.645-1.512-1.613-2.371-1.293-4.207 4.527,3.019.863-5.066 6.144-3.34 4.637,4.637 10.782,8.731 17.032,10.887" fill="#dbb688"/>
   <path d="m284.879,209.094v-1.832h-1.508c-.324-.539-.644-1.293-.863-1.942v-.215l-.106-.214c-.863-2.59-1.078-5.61-2.265-8.09l10.133,4.097c3.234-1.617 4.421-3.664 4.851-6.793 5.496,3.883 12.395,6.579 19.188,5.391 2.8-4.312 2.261-7.437 0-12.293h1.293c8.086,4.422 19.617,6.797 26.839.758 6.575,3.34 14.985,4.852 22.637,4.098 2.371-3.45 2.481-6.903 1.293-10.352 7.332,3.883 15.524,1.508 23.176,2.047-.863-3.664 4.418-2.91 3.449-6.793 6.899,3.559 14.555-1.293 21.883,1.402 2.047-2.156 4.527-3.558 4.203-7.547 9.379,1.723 19.941,2.372 29.32,2.047v-.754c5.93,1.188 12.289,2.371 17.141,4.852 .539,6.793 3.77,12.941 0,18.547 2.371,6.793 3.23,14.125 2.91,21.566h-2.695c0-2.156-1.188-5.39-3.559-5.39 0,1.078-2.371,4.312-2.371,5.39 0-4.312-7.113-5.39-10.562-5.39l-2.266,1.078v3.234l-1.184,1.078-1.187-2.156-2.371-1.078c-1.184-1.078-1.184-3.235-4.742-3.235v-2.156c-2.371,0-4.743-3.344-5.93-4.422-2.371,0-5.93-1.078-8.301-1.078-2.371,4.313-3.555,10.891-3.555,15.203 0,0-10.671-5.39-10.671-6.468h-2.371c-1.188,1.078-3.559,4.312-4.743,6.468l1.184,2.157v6.578c-5.82,0-11.75-2.157-16.492-2.157 0-1.078-2.371-3.343-2.371-3.343l-2.371-1.078c-2.372,0-2.372,3.343-2.372,4.421-1.187,0-2.371,2.157-3.558,2.157h-8.301l-1.184-1.078h-7.113v3.234c-1.187,0-3.558,3.234-4.746,4.312h-4.742l-1.078-2.156h-4.742c0-1.078-3.555-1.078-4.743-1.078s-4.742-1.078-5.929-1.078l-1.184-1.078h-2.371l-1.187,1.078v2.156h-11.856l-1.187-1.078h-4.743c0-1.078-1.187-1.078-2.371-1.078l1.184,2.156-2.371,1.078h-2.371c0-1.078-3.555-3.234-4.742-3.234h-5.606c-.215-4.746-.648-9.488-1.402-14.34-3.34-1.941-3.879-7.551-8.301-5.609" fill="#feeed3"/>
   <path d="m569.668,198.637c.648.859 1.512,1.722 2.59,2.801v2.371c1.183,1.187 3.555,3.562 3.555,4.746v8.304c0-2.375 2.371,1.184 3.558,1.184 0,5.824-1.187,14.125-1.187,20.059h7.117c0,4.742-3.559,11.859-3.559,16.605 1.188,0 2.371,1.184 3.559,1.184l2.371,2.371v3.558c0,1.188-1.188,3.559-1.188,5.93l2.371,2.266h3.559l1.184,1.187h10.566c0,2.371-1.187,0-1.187,3.559-2.372,0-2.372,1.183-2.372,3.558 2.372,0 7.114,1.188 9.485,1.188l2.375,2.371v7.113l-2.375,2.375v4.742c4.746,0 8.301-3.558 13.043-1.183v4.742c0,1.187 1.187,2.375 1.187,3.559l2.371,1.187c3.559,0 8.301-1.187 11.86-1.187 1.183,1.187 2.371,3.558 3.554,4.746v9.488h4.743c0-1.188 3.449-2.371 4.636-2.371v6.898c-2.265,2.371-7.007,9.489-9.379,9.489 2.372,0 7.114-1.184 9.379-1.184v1.402c8.84-3.668 17.461-7.875 25.438-13.695 11.535-1.187 21.558-5.824 32.23-8.844-.214-1.937-1.183-3.449-2.695-4.742-1.723.43.758,3.988-2.152,4.742-4.746-1.508-7.332-8.086-12.289-8.949-1.188.863-.219,2.805-2.051,3.453-3.774-2.48-8.731-4.961-8.297-10.246 2.691-4.203 4.203,1.836 6.898,1.402 1.075-1.507.754-3.664 2.692-4.851l6.363,3.449c3.879-5.82-3.883-9.273-5.605-13.047-6.364,1.188-13.153-1.293-17.789-6.902-5.711-.43-9.375-5.391-14.336-7.438-2.696-.648-2.157,2.586-4.094,3.45l-8.195-10.891 2.05-1.508c-.433-.324-.863-.648-.754-1.402 2.477-1.293 4.094,2.91 6.145,4.203 .32-4.203 6.141-2.801 9.055-2.047-1.297-2.156-.973-4.852-3.45-6.144-1.402,1.722-2.914-.649-4.207-.758-5.066-12.614-9.808-25.446-17.89-36.985-1.297-1.402-2.481-2.8-3.559-4.203-2.156-2.156-4.097-4.746-4.742-5.933-1.187,0-2.371-1.184-2.371-1.184h-5.93c0,0-4.742-3.559-5.929-3.559h-1.723c.969.864 2.047,1.727 3.234,2.586 1.293,1.942-2.265,4.637-4.207,2.7-13.043-6.793-21.234-21.028-36.972-21.137l-6.789-4.203c-.754,5.715.968,14.988 1.402,19.945-.543-.105-.973-.215-1.297-.32zm43.551-.543c-.754-.645-1.403-1.399-2.051-2.047 .539.433.973.648 1.297.648l.754,1.399zm-6.578-6.793c-.645-.535-1.184-1.184-1.723-1.723h2.801c0,2.156-.86.43-1.078,1.723zm-2.477-2.477c-3.125-3.019-6.469-5.715-10.672-7.117-7.547-6.578-20.051-2.805-25.441-13.586-1.508-14.449-2.801-27.172-1.293-41.836 2.805-21.676.109-35.3709 2.051-57.4725 14.441-7.6562 20.371-23.1836 19.187-38.3867 4.633-1.293 8.516-4.3125 13.797-3.9922l1.293,8.0898c1.184,2.0469 2.695,5.3907 5.391,3.4493 3.445-3.668 4.847-6.4688 4.203-10.9961 1.398,1.5078 1.941,4.4179 1.941,5.6054 .969,5.0664.535,10.2422-.973,14.8789-.429.1094-.753.1094-1.183.1094 0-2.375-5.93-2.375-8.301-2.375l-7.008,7.1172c-1.183,0-3.558-1.1836-4.742-1.1836 0,1.1836-3.559,3.5586-3.559,4.7422l-1.183,1.1875c-1.188,0-3.559,1.1875-3.559,3.5586-1.183,0-2.371,1.1836-3.558,2.3711v5.8242c-1.184,0-4.742,4.7422-4.742,5.9297 1.187,2.3711 2.371,4.7422 2.371,8.3008l-2.371,1.1875v15.4179h2.371l1.187,1.1876 1.184,1.187v4.743c0,1.187-1.184,2.375-2.371,2.375 0,2.371 0,5.929 2.371,8.3v5.825l-1.184,1.183-1.187,1.188-2.371,1.183v4.746c1.187,1.188 4.742,5.93 7.117,5.93v3.559c-1.188,0-3.559,2.371-3.559,2.371 0,3.558 1.184,7.117 3.559,8.304v2.372l-1.188,1.187-3.558,1.184 2.371,4.746 2.375,1.187c0,0 4.742,4.742 4.742,5.821h-3.559c1.188,0 1.188,1.187 1.188,2.375 1.183,0 9.484,5.929 9.484,7.113h-2.371c2.371,0 0,1.187 2.371,1.187 0,4.528 8.406,5.825 9.379,9.922zm18.215-143.4099c.648-.1094 1.293-.2188 1.941-.2188l2.371,1.1875c0,1.1875 1.188,2.375 1.188,3.5586 3.555-1.1836 5.926-2.3711 9.484-2.3711l.215.4297c2.266-6.1445 2.695-13.0469.973-20.2695-2.375,4.4179-.649,11.1054-6.039,13.6914-6.36-2.2617-2.262-10.0274-3.449-14.9883-1.833-.9688-4.094,1.5117-6.79.543 1.723,6.25 1.508,12.5078.106,18.4375zm24.902-1.1875c.321-.1094.539-.2149.754-.2149h1.184c1.078,0 2.265,2.3711 2.265,3.5586l1.184,1.1875h3.559c0,1.1836 2.371,2.3711 3.558,3.5547v5.9336l1.078,2.1562c3.555-2.375 5.496-6.2539 4.528-13.4804v-2.8047c-.864,2.1562-3.125.9726-4.743,1.5117-6.578-5.3906 4.309-14.7734-4.207-17.2539-14.765-4.2031-6.898,9.0586-9.16,15.8516zm-172.468,4.5312h.429v-2.375c3.559,0 5.93,4.7461 9.488,4.7461 1.184-1.1875 4.743-3.5586 4.743-7.1172l.644-.7539c-.969-7.2265-.644-14.7734 1.297-22.4297l-2.695-2.0508c-1.617,2.2657-1.512,7.6563-6.145,6.1485-3.129-1.5078-2.48-4.8516-2.695-7.5469-4.637.3242-4.637,6.3594-6.899,9.5977-1.402,7.3281-.757,14.8789 1.833,21.7812zm21.558-11.6484 1.399-1.4024h2.265c0,1.1875 2.371,3.5586 2.371,3.5586 6.254,0 11.75-2.5859 17.141-3.0195 .215-6.8984.539-13.3672-2.695-19.4063l-2.051-1.5117c-2.586,3.5586.109,12.6172-7.543,11.1055-3.883-3.8789-2.371-7.2227-2.805-12.5078-2.371.6484-5.281,1.4023-6.144,4.207-1.508,5.6055-2.262,12.293-1.938,18.9766zm30.074,1.9414c1.293,1.5117 3.125,2.5898 5.606,2.5898 0,0 4.742-2.375 4.742-4.7461h2.371c2.371,2.3711 5.93,4.7461 7.113,7.1172h5.176c1.184-8.4101 1.293-17.3594.324-25.8789l-6.144-4.7461c-3.129,3.1289.859,12.6172-6.254,13.0469-6.789-2.2617-.539-13.1523-6.789-12.5078l-8.192,4.207c3.016,7.5469-.648,12.6172 2.047,20.5938v.3242zm32.66,1.5117 .11-.1094v2.3711c1.183,1.1875 5.926,4.7461 5.926,7.1172h2.371c0-2.3711 1.187,0 1.187-2.3711h2.371l1.188-1.1875h3.555c0,.4297.324,1.0781.863,1.7266 3.449-7.5469 4.742-17.1446.429-24.586l-1.398-1.9414c-2.371,2.1563-.109,10.7852-6.144,8.8438-4.637-3.5586-4.637-8.5195-4.743-13.586h-6.363c.219,6.3594 1.078,15.0938.648,23.7227zm6.036,150.5235v4.422c.539,0 1.187,0 1.617-.11-.645-1.293-.969-2.8-1.617-4.312" fill="#feeed3"/>
   <path d="m163.828,67.7344h3.883c1.184,0 5.93-3.5586 5.93-3.5586v-.8633c-2.051-5.8242-1.836-12.7227-1.727-18.4375-2.371.2148-5.82-.3242-8.301-2.1562v-5.3946c-5.172,1.1875-1.183,7.2266-3.234,10.2461-2.262,7.5469 1.078,13.6914 3.449,20.1641zm16.817-4.7461c2.585.7539 5.82,1.1875 7.222,1.1875 0,1.1836 4.742,3.5586 5.93,3.5586h8.191c2.047-9.4883 3.774-18.9766 0-28.4688l-3.988-2.6953c-1.727,3.7735 1.184,11.1055-5.605,11-3.02-3.0195-2.372-7.6562-3.235-11.539-4.851-2.6954-6.789,3.9921-9.055,6.6875-.863,6.6835-1.078,13.9062.54,20.2695zm28.027,1.1875h.43c1.187,2.3711 4.742,4.6367 7.113,7.0078 2.59,0 5.605.6484 8.515.9687-3.125-4.7421 2.481-8.5156 3.344-12.9375 2.262-7.332 2.371-16.6054-3.449-23.1835-3.02.7539.863,4.207-1.402,6.1484-1.508,1.293-2.262,4.0937-4.743,3.9883-4.203-2.6953-2.91-7.6563-4.097-11.6446-2.801-.3242-4.957.5391-6.899,2.0469 .539,3.668 4.957,7.9805 1.403,11v1.293h1.293c2.156,5.2851-.539,10.3515-1.508,15.3125zm17.355,8.0859c.539-.2148 1.399.1094 2.047,0v.1094c-.648,0-1.402,0-2.047-.1094zm6.145-3.0195c3.016,2.4805 7.758,5.9297 7.758,7.8711 2.59.8633 6.468,1.1875 10.351,1.1875 6.141-5.9297 9.485-14.5586 9.375-22.5352-2.695-2.2656-2.261-5.7148-5.605-7.4414-3.879,0-3.664,5.9297-8.192,4.7461-6.035-3.7773 1.188-17.039-10.347-14.3437-.11,5.1757 3.558,13.1562-.539,18.332-.969,3.125-.325,8.5195-2.801,12.1836" fill="#feeed3"/>
   <path d="m280.137,185.59c-.969-2.481-1.184-4.422-1.184-7.117l-1.617,3.234c.215,1.832 1.402,3.02 2.801,3.883zm.433-10.57 .754-.864v-1.074c-.324.645-.539,1.293-.754,1.938zm1.508-3.989 1.617-1.617v-2.695c-.539,1.402-1.078,2.91-1.617,4.312zm3.34-9.488c.434-.539.648-.973.648-1.508 1.188,0 2.372-1.187 2.372-2.375 1.187,0 2.371-2.371 3.558-2.371l1.184-2.371v-2.375h3.558c0-3.559 5.821-7.117 5.821-10.672 3.558,0 10.671-10.676 11.855-13.051 2.375,0 5.93-3.554 5.93-5.929l1.187-1.184h2.371c0,2.371 1.184,0 1.184,2.371h3.559c1.187,0 3.558-2.371 5.929-2.371l1.184-2.266h2.371c0,1.079 2.375,3.45 2.375,4.637 2.586,0 6.465-.324 10.129-1.187v-2.047c8.086-8.41 17.57-17.899 13.691-29.5471l-2.695-2.6953c-1.402,2.5898.109,6.2539-2.91,8.1953-2.696,1.2969-4.313-1.7227-5.391-3.3438-2.476-3.4492 2.91-12.8281-4.742-11.75 3.234,9.0547 3.234,21.5629-3.449,28.7889-4.098,5.824-9.918,10.457-17.141,10.352-2.047-1.188-.539-4.422 0-6.149 8.625-3.125 14.231-12.183 15.738-20.5934-.214-3.8828-1.722-7.5469-4.742-9.4883 1.293,3.5586-2.156,6.6836-4.851,9.4883-4.848-.4297-3.555-5.8243-4.743-8.9493-7.437.8633-14.55,4.6368-19.187,11-3.555,6.6837-1.184,15.9567-4.742,22.5357 .863,7.222-.969,15.203-4.852,21.242l-6.898,4.097c-3.559,5.93-5.926,12.723-8.301,19.516zm73.84-41.406c8.191-6.469 14.012-16.606 13.258-26.6331l3.449.6484c.539-.7578 1.941-1.5117 1.941-2.6992 2.801,7.5508 2.047,18.2229-1.941,25.9879 .863,5.825-7.867,5.391-10.024,9.379h-1.832c-1.187-1.183-2.371-2.371-4.742-2.371v-3.558c0-.215 0-.539-.109-.754" fill="#feeed3"/>
   <path d="m656.551,417.094 .863.859v2.266h1.184v4.746l5.929,5.93h4.743v-1.188h3.558l1.184-2.371h2.047c.324-.215.539-.324.863-.539v.539h.648c0,1.187-1.187,1.187-1.187,3.559h-.86c-.218.214-.324.429-.539.753 1.075.758 2.586,2.051 2.586,2.805 1.188,0 8.301,0 8.301,1.188 2.371,0 5.926-1.188 8.301-1.188l.539-.648c.539-11.321 12.824-18.008 15.734-28.141-1.832-2.156-1.832-5.07-2.695-7.656-3.879-7.117-10.238-10.461-17.676-11.215-2.48.215-4.851.324-6.574.324 0-.109 0-.215-.109-.215-.539,0-1.078.106-1.723.215-1.727,2.371-6.684.754-8.734,3.988 .214.325.433.54.648.754h.43v.325c3.664,2.804 9.269,2.914 12.504,5.824-3.016.644-7.004-1.078-10.887-2.266l-1.617.863h-7.543c-4.637,4.098-7.438,9.379-5.821,15.204l19.723.539c.758,3.019-2.695,1.941-4.094,2.91-6.793-.969-12.179,1.512-19.082.539 .11.648-.215.973-.644,1.297zm86.34,10.242h.972l1.184,2.371h14.121l2.371-1.184 1.188-1.187v-1.188l-1.188-1.183-2.371-1.188c0-.863-.754-1.832-1.078-2.804-.32-.321-.645-.539-.969-.86-.648-.218-1.078-.648-1.402-1.078-.86-.863-1.832-1.617-2.696-2.48 1.297-.219 2.696.429 4.207,1.398h1.938c0,1.082 1.187,2.266 2.371,2.266h2.371v1.187h2.375v.539c1.184-.324 2.262-1.293 3.125-3.449 .43-5.394-3.344-6.793-7.871-7.656-.215,0-.43-.11-.644-.11-3.235-.648-6.793-.968-9.27-2.371-.434-.433-.863-.754-.754-1.402 2.477-1.078 4.957-.863 7.328-.215 4.203.106 9.055.539 10.457.539 0-.648-.324-.972-.539-1.402-1.078-.863-1.941-2.051-2.695-3.344h-1.512v-2.48c-.644-.969-1.293-2.047-2.047-3.02-.324-.215-.863-.43-1.508-.43 0-2.265-1.078-.214-1.187-2.156-.105,0-.215-.109-.324-.215-1.938.106-10.024.864-12.934.325-.863-.11-1.617-.219-2.48-.543 1.726-2.371 4.207-2.586 6.683-2.911l.758-1.617h.969c-2.805-2.371-6.145-3.883-9.594-4.742h-.754c-.433,0-1.187-.219-2.156-.433-2.047-.325-4.098-.215-6.145,0v.433c-.324.32-1.402.539-2.695.539-5.605,2.371-10.457,6.684-12.398,12.723 .433,2.265-.86,3.558-1.399,5.5 8.516,7.762 23.281,11.644 26.192,23.828" fill="#feeed3"/>
   <path d="m672.504,332.125c-.324.648-.649,1.293-.649,2.371v10.027l-2.585,1.836c0-3.668 2.585,7.332 2.585,9.164 0-.968 1.188-2.804 2.481-2.804 0,3.668 1.293,11 5.066,11.969 0-.969 1.293-1.833 1.293-2.801h2.481c0,.968 5.066,2.801 5.066,2.801l1.293.863c0,.969 3.774,3.668 5.067,4.637 2.48,0 5.066.863 5.066,1.832 7.547,0 17.676.863 26.516.863 0-.863 2.589-1.832 2.589-2.695v-3.668l2.477-.969 1.293-1.832v-4.528h3.773c0-.972 1.293-1.836 1.293-2.804v-5.5c2.481,1.832 1.188-11.86 1.188-12.832 2.586,0 2.586.972 3.879,1.832 0-1.832-1.293-3.559-1.293-5.391-1.184-.644-2.156-1.293-3.125-1.941-.11.109-.324.324-.43.433-7.332,1.508-10.133-7.441-16.277-10.89-3.344-1.512-7.117-2.157-10.242-4.098-.106,0-.215,0-.325.109h-3.554c-5.391,1.832-9.703,7.114-16.172,4.528-7.004-.43-12.18,16.711-18.754,9.488" fill="#feeed3"/>
   <path d="m139.254,479.957-.539,6.793 1.832,13.371 6.144-4.531 5.387,7.117-3.555,9.813-5.066,11.429c.645-3.019 1.402-5.715-1.617-8.086-.969.106-2.266-.539-2.695.645l-4.204-3.449c-3.125,4.961-6.789,6.683-10.242,10.89-.754,6.469 4.637-.429 4.098.754l-1.942,7.442c.434,3.773 3.559.968 5.391.753 0,3.02-.648,5.93-2.156,8.305 1.508,4.637 9.055-1.836 8.301,5.391 3.125-2.696 4.418,4.742 7.652,2.047l1.293,1.402c-2.047,8.52-10.348,11.969-14.336,18.547l.539.644c-3.555.219-5.496,3.344-7.437,4.098 2.05-1.398 3.449-4.098 2.05-6.254-2.804-2.371-3.453,1.188-4.746,2.805-1.402-5.176-3.34-3.988-3.449-9.488-1.832-4.422-5.066-1.403-8.191-.754-.215-1.188.429-2.696-.754-3.453-2.157,1.187-6.684.109-6.793,3.453 4.207,2.047-2.262,7.007-2.047,10.89 1.508,2.047 3.883,1.832 6.144,2.047 0,3.235-2.695,4.961-4.097,7.547 0,1.621-.43,3.238 1.402,4.207 3.449-3.129 4.742,3.129 8.192,2.051-2.586,2.586 1.511,4.097 1.941,6.144-3.988,4.207-10.457,7.981-16.2774,11-3.0157,2.481-2.586-1.941-5.6055-1.402 .6484-8.09-7.7617-.324-8.1914-7.656-2.9102-1.512-7.3281-.434-7.5469,2.91 .3242.754 1.4024.539 2.1563.539l-1.3985,1.402c-3.1289,4.422 2.1524,6.688 4.8477,7.657l-4.2031,3.988 .7539.758c-.2149,2.8 3.4492,3.554 4.7422,3.988-2.8008-.109-5.4961,2.695-8.1915,4.203l.5391-.754c-.4297-1.183-1.7226-.43-2.6953-.754-3.5547,2.91-7.0039,2.481-10.8867,4.852 2.2656-1.508 1.0781-4.313 1.4023-6.793-1.5078-3.664-6.8984-1.293-8.3008-2.051 5.0664-3.016 9.918-8.406 13.7969-13.043-.7539-1.941-3.125-3.453-1.5078-5.394l24.1445-21.243c-.3242-2.156-2.6953-4.203-.7539-6.144 7.0078-9.598 15.5239-18.547 21.2349-28.789 1.832-2.696-1.403-6.363 2.695-6.903 2.371-3.449 7.222-7.007 2.695-10.89l11.641-23.399c1.402-3.882 8.84-5.929 7.547-12.293-.11-2.261.214-4.312.863-6.359" fill="#fabe71"/>
   <path d="m608.797,168.012-13.363-11.106-2.051-11.215 2.805,3.989c3.339-1.184 2.261-6.36 3.449-6.36l4.847,10.352c3.774,1.402 2.375-3.449 3.993-3.992 1.183.863.644,2.699.753,3.992 1.399,3.449 3.879.43 5.391,1.402-.324,1.723.43,3.774 2.152,4.203 2.696-4.097 3.559-8.839 4.207-13.8 1.293,2.695-.757,8.195 3.989,8.195v1.508c-3.344,7.226-6.36,13.695-7.977,16.929-.758-2.804-.433-6.254-3.668-7.441l-1.402,1.297c-.43,1.293-2.047,1.293-3.125,2.047zm-18.539-39.356-1.727-9.597 5.067-16.391c.863,1.941 1.726,3.883 1.836,5.824l6.359-6.144c.43,3.449 1.508,6.683 3.234,9.593 1.399-1.507 3.45-2.91 4.203-4.851 1.723,1.832-.753,4.961 2.157,6.144 4.418,0 2.047-5.39 4.742-7.437v2.695c.644,1.293.863,3.559 3.34,2.805 2.051-.758.754-3.129 2.051-4.207v2.695c3.769,3.883 1.398,10.246 2.152,15.203-1.293-3.449-.215-7.656-3.449-10.351-2.477,4.746-3.77,11.539-4.094,15.851-.863-2.804-.863-5.824-2.805-8.195-2.695,2.695-2.586,7.332-3.449,10.137-1.184-1.508-.215-5.285-3.34-4.746-2.265,2.804-1.293,5.824-2.051,8.949-1.613-4.203-2.261-8.516-4.847-12.399-3.235,3.45-1.617,8.95-3.449,13.047l-5.93-8.625zm5.496-34.2888c.973-4.207 4.746-12.4024 20.266-9.8125 3.988.7539 7.437,2.1562 10.347,4.3125-.429.6484-.863,1.1875-1.398,1.832 0-1.2929-1.297-1.832-2.051-2.6953l-3.449,4.0977-2.696-4.0977c-2.695,0-3.449,5.5-4.093,5.5l-2.805-2.8047c-2.586,1.4024-2.262,4.0977-3.34,6.2539l-4.742-5.5c-1.836,1.9414-4.207,3.5586-4.207,6.0391-.645-.6445-1.074-2.1563-1.832-3.125" fill="#fabe71"/>
  </g>
 </g>
</svg>
