<?xml version='1.0' encoding='utf-8'?>
<svg xmlns="http://www.w3.org/2000/svg" enable-background="new 0 0 850.39 850.39" version="1.1" viewBox="0 0 850.39 850.39">
<path d="m441.36 252.1s56.426-33.598 74.574-25.852c48.797 20.828 105.53 156.94 80.029 192.13-30.716 42.379-114.16-33.401-114.16-33.401s0.056-59.535-11.995-96.086c-3.64-11.038-28.445-36.788-28.445-36.788z" fill="#C2CCDD"/>
<path d="m705.99 427.56s50.591 48.289 49.786 77.094c-0.231 8.292-4.969 32.813-4.969 32.813l-10.938-4.969s3.977-20.81 3.977-27.844c0-24.846-37.856-55.82-37.856-55.82v-21.274z" fill="#ACB5C5"/>
<path d="m101.48 317.49s14.767 1.962 18.239-1.569c5.297-5.391-0.527-29.708-0.527-29.708s-7.847 6.793-14.715 14.294c-7.027 7.674-12.348 15.414-12.941 15.414l9.944 1.569z" fill="#ACB5C5"/>
<path d="m552.66 448.84s6.578 97.625 0 129.26c-2.539 12.211-23.484 33.805-19.883 45.734 3.492 11.555 32.672 18.133 44.742 18.172 14.984 0.047 50.07-8.266 55.68-22.148 7.109-17.594-17.398-55.617-14.914-74.43 2.727-20.602 36.945-74.477 36.945-74.477l-102.57-22.109z" fill="#ACB5C5"/>
<path d="m558.58 639.18s8.546-22.743 13.832-21.787c5.351 0.968 5.103 24.607 5.103 24.607s-8.524-0.65-10.784-1.091c-2.004-0.39-8.151-1.729-8.151-1.729z" fill="#78737E" opacity=".5"/>
<path d="m459.48 194.79c-17.636 0-32.809 30.476-32.809 30.476l37.785 18.891 40.766-15.906c0-1e-3 -15.669-33.461-45.742-33.461z" fill="#C2CCDD"/>
<path d="m446.06 450.21s-65.125 11.25-81.531 24.852c-23.109 19.156-60.23 76.717-55.68 106.39 1.652 10.771 20.754 26.648 30.82 30.82 13.551 5.609 48.124 10.197 58.664 0 15.762-15.248 10.773-68.133 28.34-83.016 12.668-10.734 59.762-11.438 59.762-11.438l-40.375-67.609z" fill="#C2CCDD"/>
<path d="m406.79 459.91c52.691 110.37 198.86 85.508 198.86 85.508s134.23-14.914 94.453-153.12c-28.953-100.62-146.66-85.508-146.66-85.508s-169.49 105.28-146.65 153.12z" fill="#C2CCDD"/>
<path d="m592.71 467.86s6.578 97.625 0 129.26c-2.539 12.211-23.484 33.805-19.883 45.734 3.492 11.555 32.672 18.133 44.742 18.172 14.984 0.047 50.07-8.266 55.68-22.148 7.109-17.594-17.398-55.617-14.914-74.43 2.727-20.602 36.945-74.477 36.945-74.477l-102.57-22.109z" fill="#C2CCDD"/>
<path d="m553.44 306.79c-6.477-44.227-101.57-93.141-153.61-91.469-104.27 3.348-97.133 118.23-140.2 144.17-18.176 10.949-64.777-8.25-82.523-19.887-12.379-8.117-38.5-25.355-44.746-38.773-2.293-4.922-1.094-18.48-5.965-20.883-4.555-2.246-13.187 17.334-18.049 22.717-4.952 5.482-24.099 16.384-21.721 20.037 3.202 4.917 10.614-0.323 12.926 1.988 14.532 14.532 29.931 26.14 63.137 49.219 56.453 39.235 131.74 47.473 131.74 47.473s2.289 8.983 10.675 15.927c14.082 11.658 33.326 5.561 33.326 5.561s36.906 16.052 75.312 16.052c72.28-2e-3 147.18-101.05 139.69-152.13z" fill="#C2CCDD"/>
<path d="m426.67 236.21s56.426-33.598 74.574-25.852c48.797 20.828 105.53 156.94 80.029 192.13-30.716 42.379-114.16-33.401-114.16-33.401s0.056-59.535-11.995-96.086c-3.64-11.038-28.445-36.788-28.445-36.788z" fill="#ACB5C5" opacity=".5"/>
<path d="m731.75 531.79s-12.75 9.594-14.75 14.328c-4.219 9.977 0 43.344 0 43.344s34.555-15.766 39.047-26.711c2.609-6.352-5.242-26.977-5.242-26.977l-10.938-4.969-8.117 0.985z" fill="#C2CCDD"/>
<path d="m511.72 240.18c28.913 6.104 54.093 54.368 60.695 101.42 6.516 46.431-26.026 78.239-26.026 78.239s31.29 5.355 43.347-16.595c7.961-14.493 7.573-49.982 4.058-66.142-6.734-30.965-24.786-133.84-107.77-127.91-14.371 1.026-49.711 21.342-57.722 26.045-1.053 0.618-1.634 0.966-1.634 0.966l25.203 30.473c0 1e-3 27.678-33.287 59.848-26.495z" fill="#C2CCDD"/>
<path d="m511.72 240.08c28.913 6.104 56.835 54.064 60.695 101.42 9.574 117.43-105.31 27.585-105.31 27.585s70.806 77.504 122.63 34.059c12.672-10.624 7.573-49.982 4.058-66.142-6.734-30.965-23.73-130.1-107.77-127.91-14.402 0.375-49.711 21.342-57.722 26.045-1.053 0.618-1.634 0.966-1.634 0.966l25.203 30.473c1e-3 1e-3 27.679-33.287 59.849-26.495z" fill="#C2CCDD"/>
<path d="m306.13 420.95c23.757 0.972 33.289-11.813 33.289-11.813s8.244 22.273-14.411 24.592c-12.466 1.276-21.623-12.891-18.878-12.779z" fill="#ACB5C5" opacity=".5"/>
<path d="m314.88 592.75s9.399-22.015 20.102-16.376c6.022 3.173-4.945 30.273-4.945 30.273s-6.955-5.499-9.121-7.485c-1.623-1.489-6.036-6.412-6.036-6.412z" fill="#78737E" opacity=".5"/>
<path d="m337.48 611.25s11.66-28.613 18.887-27.246c6.758 1.281 4.791 33.387 4.791 33.387l-13.128-2.456-10.55-3.685z" fill="#78737E" opacity=".5"/>
<path d="m576.32 648.01s12.188-23.086 18.984-21.07c7 2.078 4.523 31.562 4.523 31.562s-10.194-3.15-13.525-4.403c-3.571-1.344-9.982-6.089-9.982-6.089z" fill="#78737E" opacity=".5"/>
<path d="m620.7 631.21c-8.078-0.586-15.492 28.43-15.492 28.43s9.714 1.38 12.992 1.38c3.218 0 12.992-1.38 12.992-1.38s-2.937-27.883-10.492-28.43z" fill="#78737E" opacity=".5"/>
<path d="m705.99 427.56s-0.712 0.814-0.844 2.751c-1.59 23.305-18.47 51.087-67.261 127.84-4.576 7.199 18.742 51.156 23 68.781 1.086 4.508 1.138 22.608 1.138 22.608s7.999-4.124 11.229-10.671c2.534-5.137 1.284-11.594 0.5-15.352-3.73-17.883-17.18-43.922-15.414-59.078 2.406-20.641 26.669-54.594 36.945-74.477 17.233-33.337 10.707-62.405 10.707-62.405z" fill="#fff" opacity=".2"/>
<path d="m717 589.46s28.581-12.972 38.242-25.203c4.24-5.368-4.438-28.484-4.438-28.484l-10.938-4.969s-8.908 1.874-8.117 3.992c6.594 17.654-14.749 54.664-14.749 54.664z" fill="#ACB5C5"/>
<path d="m266.72 381.4s-13.059-18.039-10.941-20.156c0.163-0.163 2.893-1.195 3.698-1.658 1.144-0.657 4.099-2.819 4.099-2.819l3.144 24.633z" fill="#ACB5C5" opacity=".5"/>
<path d="m270.78 349.74c1.998 5.208 14.188 19.34 14.188 19.34l-9.066-26.227-3 4.253-2.122 2.634z" fill="#ACB5C5" opacity=".5"/>
<path d="m279.47 337.1c-0.39 2.442 21.66 16.16 21.66 16.16l-17.566-23.785s-1.411 2.782-1.973 3.802c-0.508 0.922-2.068 3.486-2.121 3.823z" fill="#ACB5C5" opacity=".5"/>
<path d="m293.05 421.22s-48.949-4.879-92.849-26.331c-48.619-23.756-84.809-56.193-100.65-70.193-0.894-0.79 36.982 33.999 84.08 57.496 50.308 25.1 109.42 39.028 109.42 39.028z" fill="#ACB5C5" opacity=".5"/>
<path d="m532.36 502.13c3.831 10.788 61.656 4.43 61.656 4.43l1.609 40.094s-57.204 4.989-72.945-4.648c-3.861-2.365 9.68-39.876 9.68-39.876z" fill="#ACB5C5" opacity=".5"/>
<path d="m446.58 455.93c-8.373 0-32.832 2.992-32.832 2.992s12.548 37.522 23.445 43.203c13.116 6.837 66.461-46.195 9.387-46.195z" fill="#C2CCDD"/>
<path d="m448.09 458.78c-8.373 0-32.832 2.992-32.832 2.992s12.548 37.522 23.445 43.203c13.115 6.837 66.461-46.195 9.387-46.195z" fill="#ACB5C5" opacity=".5"/>
<path d="m538.64 624.95s10.825-14.232 15.205-12.123c4.721 2.273-1.183 24.649-1.183 24.649s-7.66-2.896-9.978-4.099c-1.799-0.934-6.488-4.441-6.488-4.441" fill="#78737E" opacity=".5"/>
<path d="m438.7 504.98s-21.917-1.155-34.03 11.931c-19.633 21.211-14.338 101.47-6.337 95.364 13.695-10.451 11.307-72.544 29.949-84.164 12.529-7.81 58.152-10.289 58.152-10.289l-47.734-12.842z" fill="#fff" opacity=".2"/>
<path d="m445.56 474.82c-18.91 34.031-13.918 155.11-13.918 155.11s4.973 25.852 46.734 25.852c27.352 0 41.758-16.906 41.758-16.906s-1.734-55.258 0-73.57c2.617-27.711 20.875-109.38 20.875-109.38l-44.742-20.883c0-1e-3 -35.789 12.929-50.707 39.773z" fill="#C2CCDD"/>
<path d="m534.29 459.62c-16.685 16.685-30.974 77.958-33.141 105.52-2.397 30.491 5.353 53.173 12.5 66.758 2.181 4.145 6.486 6.971 6.486 6.971s-2.125-55.367 0-73.57c3.227-27.648 22.803-108.67 22.803-108.67s-5.656 0-8.648 2.992z" fill="#fff" opacity=".2"/>
<path d="m461.26 654.06s8.277-27.628 15.027-27.042c6.688 0.586 8.351 28.458 8.351 28.458s-8.918 0.321-11.891 0.142c-2.872-0.174-11.487-1.558-11.487-1.558z" fill="#78737E" opacity=".5"/>
<path d="m451.87 617.63c-5.777-2.625-18.039 17.836-18.039 17.836s4.032 6.572 7.255 9.018c3.893 2.954 11.47 6.907 11.47 6.907s6.732-30.386-0.686-33.761z" fill="#78737E" opacity=".5"/>
<ellipse cx="365.77" cy="323.98" rx="34.593" ry="39.005" fill="#fff" opacity=".2"/>
<ellipse cx="363.3" cy="325.73" rx="25.93" ry="27.532" fill="#fff"/>
<path d="m383.58 328.17c0-12.253-9.469-22.184-21.145-22.184-11.68 0-21.145 9.931-21.145 22.184 0 12.255 9.465 22.189 21.145 22.189 11.676 0 21.145-9.934 21.145-22.189z" fill="#CCE3C3"/>
<ellipse cx="362.06" cy="330.88" rx="14.131" ry="15.691" fill="#231F20"/>
<path d="m383.08 330.88c0-4.445-3.082-8.051-6.883-8.051s-6.883 3.605-6.883 8.051c0 4.449 3.082 8.055 6.883 8.055s6.883-3.606 6.883-8.055z" fill="#fff"/>
<path d="m347.94 402.56c0.643-0.643 0.658 3.008 0 3.635-16.757 15.986-53.01 17.622-53.01 17.622l-0.494-2.429s39.055-4.38 53.504-18.828z" fill="#ACB5C5"/>
<path d="m332.75 434.73c14.908-4.338 9.44-24.041 9.44-24.041l-3.558 1.63s3.943 16.207-6.31 19.439c-14.972 4.72-25.655-9.214-25.655-9.214l-4.169 0.471c1e-3 0 11.928 17.047 30.252 11.715z" fill="#ACB5C5"/>
<path d="m344.28 399.04c2.29 2.289 5.065 12.379 5.065 12.379l1.733-0.723s-1.73-10.936-4.718-12.35c-0.495-0.235-2.468 0.306-2.08 0.694z" fill="#ACB5C5"/>
<path d="m431.53 241.69s40.495-34.521 75.928-25.487c84.931 21.656 100.63 189.75 53.876 200.16-24.825 5.53-95.062-27.072-95.062-27.072v13.188s66.229 35.297 97.821 31.032c66-8.912 27.837-215.41-58.873-223.78-42.747-4.126-78.224 26.469-78.224 26.469l4.534 5.481z" fill="#fff" opacity=".2"/>
<path d="m430.36 218.79l4.317 1.069s14.328-21.917 26.068-21.917c16.279 0 25.68 11.55 25.68 11.55l4.707-0.543s-15.253-15.183-32.904-14.1c-14.198 0.871-27.868 23.941-27.868 23.941z" fill="#fff" opacity=".2"/>
</svg>