<?xml version='1.0' encoding='utf-8'?>
<svg xmlns="http://www.w3.org/2000/svg" width="400" height="400" viewBox="0 0 105.83333 105.83333" version="1.1" id="svg59546"> <defs id="defs59543"/> <g id="layer1"> <path style="fill:#69b933;fill-opacity:1;stroke:#000000;stroke-width:0.238001px;stroke-linecap:butt;stroke-linejoin:miter;stroke-opacity:1" d="m 43.667162,61.218211 c 0,0 -19.481376,-19.896638 -30.517827,-15.99674 C 8.3035063,46.933819 3.967686,54.63938 5.7751856,59.585964 9.7586692,70.487565 36.465205,72.404838 36.465205,72.404838 l -16.721633,2.890057 10.949142,0.499799 -6.73184,4.369004 9.149796,-2.222495 -1.823043,6.697413 9.074188,-10.428948" id="path148141"/> <path style="fill:#71c837;stroke:#000000;stroke-width:0.264583px;stroke-linecap:butt;stroke-linejoin:miter;stroke-opacity:1" d="m 63.167945,59.672414 c 0,0 11.71124,-17.86437 20.538945,-16.944628 9.690773,1.009663 21.90593,13.827067 18.22831,22.849575 -3.938466,9.662474 -34.145995,0.513474 -34.145995,0.513474 l 19.768736,8.472316 -12.580103,-1.026949 5.134736,5.134737 -8.729052,-2.824104 -0.513474,6.161684 -3.851051,-8.472317 -1.026948,-4.877998" id="path147483"/> <path style="fill:#71c837;stroke:#000000;stroke-width:0.264583px;stroke-linecap:butt;stroke-linejoin:miter;stroke-opacity:1" d="m 25.170896,54.794415 c -0.910484,8.629824 7.922998,16.867956 15.660945,20.795681 5.418616,2.75045 12.585981,2.512939 18.228315,0.256739 C 64.398297,73.712273 69.30551,69.140612 71.383522,63.780205 73.583214,58.105913 74.162552,50.300656 70.356576,45.55189 60.265393,37.352754 66.15341,40.158431 63.681417,36.566103 33.77431,-6.8952285 27.765569,40.093049 25.170896,54.794415 Z" id="path146555"/> <ellipse style="fill:#ffffff;fill-opacity:1;stroke:#000000;stroke-width:0.264583;stroke-opacity:1" id="ellipse148070" cx="30.562366" cy="26.938471" rx="5.3914733" ry="5.0063677"/> <ellipse style="fill:#ffffff;fill-opacity:1;stroke:#000000;stroke-width:0.282985;stroke-opacity:1" id="path147944" cx="52.384995" cy="23.600893" rx="5.1255355" ry="6.0241141"/> <ellipse style="fill:#22280b;fill-opacity:1;stroke:#000000;stroke-width:0.150589;stroke-opacity:1" id="path161326" cx="33.145432" cy="27.451944" rx="1.3406811" ry="0.9555757"/> <path id="ellipse158516" style="fill:#71c837;fill-opacity:1;stroke:#000000;stroke-width:0.264583;stroke-opacity:1" d="m 30.562614,21.932057 a 5.3914733,5.0063677 0 0 0 -5.391919,5.006412 5.3914733,5.0063677 0 0 0 0.242879,1.483631 l 10.500652,-2.087211 a 5.3914733,5.0063677 0 0 0 -5.351612,-4.402832 z"/> <circle style="fill:#22280b;fill-opacity:1;stroke:#000000;stroke-width:0.264583;stroke-opacity:1" id="path161448" cx="55.594208" cy="24.114367" r="1.1553158"/> <path id="ellipse158518" style="fill:#71c837;fill-opacity:1;stroke:#000000;stroke-width:0.282985;stroke-opacity:1" d="m 52.385054,17.576767 a 5.1255355,6.024114 0 0 0 -5.125786,6.023922 5.1255355,6.024114 0 0 0 0.351917,2.186429 l 9.898105,-2.155423 a 5.1255355,6.024114 0 0 0 10e-4,-0.03101 5.1255355,6.024114 0 0 0 -5.125268,-6.023922 z"/> <path id="path162996" style="fill:#dee49e;fill-opacity:1;stroke:#000000;stroke-width:0.264583px;stroke-linecap:butt;stroke-linejoin:miter;stroke-opacity:1" d="m 60.857404,26.810312 c -5.01582,-0.425148 -5.347965,5.87329 -10.269384,6.931508 -7.408119,-1.924003 -10.936631,-0.471152 -15.661018,3.08099 -2.184519,0.198956 -7.505118,-2.71046 -9.499475,-1.796979 -1.575386,0.721579 -1.797306,4.877739 -1.797306,4.877739 -2.170898,5.892437 12.441027,6.772084 16.174721,7.702373 0,0 -7.306135,7.489295 -6.892358,11.455958 0.497829,4.772422 9.938025,10.960695 10.827004,11.751926 -0.02783,0.05079 -0.05615,0.106251 -0.08372,0.15503 l 1.797306,6.161897 c 0,0 0.03223,0.03413 0.03411,0.03617 3.617693,0.723244 7.536817,0.493755 11.089246,-0.490411 l -1.881024,-6.47764 C 54.364823,68.99883 54.03997,67.961568 53.71934,67.045581 56.123437,64.514056 62.971795,56.760579 61.473389,52.010324 60.281377,48.231407 50.845613,46.68455 50.845613,46.68455 59.091922,42.835378 70.365812,36.318719 64.708332,30.66124 c 0,0 -2.04207,-3.697607 -3.850928,-3.850928 z"/> <path style="fill:none;stroke:#000000;stroke-width:0.264583px;stroke-linecap:butt;stroke-linejoin:miter;stroke-opacity:1" d="m 60.600576,31.94484 c -1.286476,-0.422312 -2.427031,-1.136466 -4.364527,-0.256737 0,0 -1.985495,7.05036 -4.877998,7.18863 -12.343885,-6.201987 -11.321847,1.561876 -16.687893,2.567369 -2.595472,0.244885 -7.188631,-3.080843 -7.188631,-3.080843 -1.968449,1.026948 -2.731475,2.053895 -1.283683,3.080843" id="path161756"/> <path style="fill:#71c837;fill-opacity:1;stroke:#000000;stroke-width:0.264583px;stroke-linecap:butt;stroke-linejoin:miter;stroke-opacity:1" d="m 40.061631,71.482309 4.878,11.809892 -4.621262,4.364525 4.107789,-0.256734 -2.310632,4.877997 4.522143,-3.800036 4.412297,3.132522 -1.489074,-4.723956 3.33758,-0.25674 -5.391473,-3.851052 -4.10779,-12.066629" id="path153620"/> <path style="fill:#71c837;fill-opacity:1;stroke:#000000;stroke-width:0.264583px;stroke-linecap:butt;stroke-linejoin:miter;stroke-opacity:1" d="m 54.438893,69.941888 3.594316,10.526208 -1.797157,4.877999 2.567368,-1.540418 2.824105,3.851049 0.08403,-2.661387 5.899715,0.846438 -5.470274,-3.319783 3.851054,-1.540425 -5.904947,-1.026947 -0.256737,-9.499261" id="path157937"/> <path style="fill:#445016;stroke:#000000;stroke-width:0.264583px;stroke-linecap:butt;stroke-linejoin:miter;stroke-opacity:1" d="m 23.02272,20.446384 0.96696,1.952123 11.040789,0.203631 -1.450439,-2.928183 z" id="path169299"/> <path style="fill:#445016;fill-opacity:1;stroke:#000000;stroke-width:0.264583px;stroke-linecap:butt;stroke-linejoin:miter;stroke-opacity:1" d="m 44.16942,19.364736 1.797158,1.797157 12.323368,-5.134736 -2.053894,-2.567368 z" id="path169334"/> </g> </svg>