<?xml version="1.0" encoding="UTF-8"?>
<svg width="404.96" height="404.96" enable-background="new 0 0 404.958 619" viewBox="0 0 404.958 619" xmlns="http://www.w3.org/2000/svg" xmlns:xlink="http://www.w3.org/1999/xlink">
 <defs>
  <linearGradient id="a">
   <stop stop-color="#f9f4f6" offset="0"/>
   <stop stop-color="#f9f4f6" stop-opacity="0" offset="1"/>
  </linearGradient>
  <linearGradient id="f" x1="331.27" x2="347.58" y1="325.44" y2="340.46" gradientUnits="userSpaceOnUse">
   <stop stop-color="#fff" offset="0"/>
   <stop stop-color="#fff" offset=".8587"/>
   <stop stop-color="#fff" offset="1"/>
  </linearGradient>
  <linearGradient id="e" x1="128.68" x2="122.75" y1="139.54" y2="295.58" gradientTransform="scale(1.3803 .72449)" gradientUnits="userSpaceOnUse">
   <stop stop-color="#fff" offset="0"/>
   <stop stop-color="#fff" stop-opacity="0" offset="1"/>
  </linearGradient>
  <linearGradient id="d" x1="518.63" x2="523.96" y1="278.61" y2="525.87" gradientTransform="matrix(1.0264 0 0 .85537 -355.1 33.268)" gradientUnits="userSpaceOnUse">
   <stop stop-color="#f9ed9b" offset="0"/>
   <stop stop-color="#f9ed9b" stop-opacity="0" offset="1"/>
  </linearGradient>
  <radialGradient id="c" cx="129.49" cy="146.52" r="12.672" gradientUnits="userSpaceOnUse" xlink:href="#a"/>
  <radialGradient id="b" cx="132.94" cy="142.71" r="13.011" gradientTransform="matrix(-.97401 0 0 1.0267 391.92 4.6974)" gradientUnits="userSpaceOnUse" xlink:href="#a"/>
 </defs>
 <path d="m137.43 468.85c-9.1684 14.159-29.201 19.141-44.744 11.125-15.543-8.0134-20.711-25.989-11.544-40.147s29.202-19.142 44.745-11.126c15.545 8.0143 20.712 25.989 11.544 40.149z" fill="#c9baba"/>
 <path d="m307.46 437.81c9.9732 13.719 5.8503 31.909-9.2104 40.626s-35.353 4.6653-45.325-9.0534-5.8511-31.909 9.2087-40.627 35.353-4.6627 45.327 9.0551z" fill="#cbbcbc"/>
 <path d="m297.7 411.41c42.299 0 49.55-15.711 49.55-58.009" fill="none" stroke="#c5b5b5" stroke-opacity=".92885" stroke-width="6.8645"/>
 <path d="m322.45 358.08c0.62638 3.5206-0.97047 8.1636-0.87609 12.393-0.23167 2.1168-0.46421 4.2294-0.72077 6.3325-1.2785 10.518-3.1259 20.827-8.0478 30.587-1.2305 2.5244-2.551 5.0008-4.0209 7.4119-16.85 15.66-36.012 25.72-50.384 45.837-1.5968 2.321-4.7914 4.643-8.6475 5.4384-2.0628 1.1515-4.0938 1.9195-6.2072 2.4961s-4.3083 0.9636-6.704 1.3506c-7.986 0.77311-15.97-2.3211-23.954-3.869-15.969-2.3211-29.544 9.2851-45.174 5.4144-2.6222-0.60922-5.205-1.3712-7.7354-2.2344-2.1348-1.5557-4.3032-3.0882-6.4947-4.6095-18.048-17.915-42.8-27.974-58.967-48.383-1.1953-2.2344-2.3211-4.5083-3.3842-6.8113-1.9984-4.4594-3.9806-9.0809-5.7499-13.803-0.88466-2.3605-1.7161-4.7459-2.4669-7.1511-9.7604-24.559 3.8141-47.773 12.262-70.406 0.78341-2.2507 1.5351-4.5091 2.2807-6.7667 2.2473-6.7727 4.443-13.543 7.6368-20.12 5.5894-11.606 13.575-23.987 25.569-31.187 2.2104-1.4561 4.4722-2.8402 6.783-4.1539 18.485-10.51 40.081-16.546 63.151-16.546 27.95 0 53.735 8.8595 74.449 23.801 2.3013 1.6604 4.54 3.3954 6.7118 5.2024 2.9929 2.7655 6.9872 5.8606 9.382 9.7296 2.1958 4.256 4.2414 8.4631 6.2758 12.622 1.016 2.0791 2.0276 4.147 3.047 6.2046 5.0497 12.898 11.438 24.504 18.624 36.885 2.3948 5.4169 0.79799 10.832 3.0186 15.918 0.26944 2.775 0.38013 5.5817 0.34495 8.4184z" fill="#c5b5b5"/>
 <path d="m342.61 192.76c-25.524 20.909-27.627 25.463 4.8498 38.479-33.92-5.1715-33.26-1.8817-10.28 21.695-17.894-17.696-13.469-15.104 4.5614-3.7068-6.4423-2.0568-11.373-3.1371-15.016-2.8857s-6.0013 1.8371-6.9803 4.8575c-1.6157 3.5155-1.8534 8.4691 3.9514 13.357-9.7956-5.1681-12.502-7.853-7.2129-12.493-8.2039 6.3866-8.4116 10.819 5.4736 11.954-14.264 1.9796-12.567 8.2554 3.5129 15.598-21.251-4.3641-26.457-5.3002-4.3641-12.618-29.548 11.819-31.795 17.257-13.018 49.81-23.927-26.478-26.83-25.841-11.743 7.7423-16.905-30.817-19.746-29.933-28.219 2.8805 6.9383-29.625 8.2451-27.322 14.056 2.5819-6.5462-17.905-11.111-23.566-17.084-19.536-2.9852 2.0147-6.3213 6.4509-7.865 13.857 1.1918-7.6144 3.2074-9.6309 4.528-8.0606 1.2957 1.566 1.8937 6.7178 2.8187 14.308-2.1203-5.0952-4.3452-8.2777-5.7044-9.4258-3.7995-1.783-6.7306-1.5325-2.8925 2.7252-7.7663-7.3965-10.555-6.2184-1.2099 1.4493-12.804-2.8299-13.824-0.7182-3.9702 8.844-11.763-4.2671-12.655-1.0829-6.7675 9.9003-10.05-16.45-13.23-20.664 1.4493-4.6919-22.318-16.944-26.778-13.704-30.605 17.013-2.5064-29.668-4.3813-31.86-13.567-2.17 1.3128-10.558 1.8139-17.572 1.1206-21.458s-2.5785-4.6447-4.8746-2.2172c-4.625 1.4793-9.6601 6.1446-12.697 17.399 2.6514-14.736 4.8815-20.038 10.592-17.536-7.744-3.198-12.006 1.4115-12.086 18.038-1.8139-15.468-0.42903-20.038 10.153-15.751-13.458-7.6796-17.719-6.5032-9.1495 12.365-10.431-18.116-8.0306-18.541 6.4423-7.8392-13.272-7.2609-14.471-3.3945-9.0551 12.216-7.2317-14.895-8.095-18.578 5.9747-8.2769-17.565-15.37-20.198-16.756-2.63 1.5445-22.689-21.899-26.607-22.197-22.837 13.231-10.311-32.618-12.603-31.14-23.732 0.53457 6.1677-27.551 3.4949-24.909-9.6618-2.829 3.7085-9.2173 6.1626-16.068 6.6431-21.004s-1.0099-7.9628-4.2465-7.8684c-5.1252-3.2272-11.996-3.3327-21.736 5.3174 8.7926-11.694 14.715-14.633 22.746-8.9204-2.4858-10.612-2.8651-12.573 2.6428-3.1379-12.055-13.419-18.224-15.438-24.581 8.6064 6.6654-24.436 9.8445-23.49 19.033-5.5946-11.18-17.564-16.35-18.176-24.697 6.118 6.916-26.693 10.157-28.349 24.279-7.3304-12.824-25.319-14.766-27.961-4.2242-1.2553-8.7085-29.924-11.757-32.873-11.482 3.9033-4.8875-37.861-5.6821-41.136-7.1554-41.961s-3.6262 0.80314-32.128 26.257c13.218-14.362 19.85-22.77 20.399-30.786 0.27458-4.0089-0.97218-7.9199-2.9835-8.802-3.3954-8.1361-7.5552-13.244-15.195-2.7999 8.2683-9.2731 11.974-4.0003 13.578 3.2109 0.52427 0.31491-1.0537 2.5673-5.4341 4.159-4.3847 1.4759-11.573 2.2893-21.729 3.1757 9.4438-2.2593 15.926-4.449 19.885-5.5045 3.9265-4.2165 5.332-7.297 5.6692-3.1765-1.7504-12.205-4.5675-17.208-11.497-2.7158 7.0859-14.651 7.9534-11.651 5.8863 2.1426-2.3777-11.52-7.6908-12.249-19.469-3.8724 10.932-10.909 15.398-12.715 17.157 2.7441 3.0796-20.436 3.452-23.608 2.6566-1.9864 0.40844-25.688-0.35009-26.582-5.042-0.8409 0.399-28.76-3.1345-30.885-27.52-15.442 28.108-18.41 32.158-20.067 40.774 6.2879-6.8516-32.516-9.1349-37.019-27.498-70.702 18.363 27.739 20.678 26.351 25.125-5.2007-1.9298 26.794-1.7256 23.422-7.756-3.7146 3.8518 23.452 5.7207 21.64 9.6438-0.3887-4.0217 19.421-5.9901 18.626-11.629-1.1816 6.5607 17.068 9.4515 15.123 12.227-0.25055-2.6548 11.972-5.4247 10.516-12.05-1.6398 4.4164 9.31 7.4291 7.9525 10.598-0.31319 0.95417 5.5122 2.0636 4.1161 2.7836-0.69846 0.52428 1.0245 0.65728-1.3703-0.42045-4.0046-1.0846-2.6008-3.3808-5.441-6.9906-8.6844 10.26 1.3609 15.263 1.1103 3.2066 4.1504 17.446-8.7591 17.831-14.228-2.1228-26.175 23.172 8.1507 25.952 9.7802-0.0429 9.2902 29.599-1.5196 30.423-5.1612 6.6637-26.349 27.558 20.566 28.884 17.014 9.2782-11.634 22.643 23.568 25.605 23.34 22.486-11.135 8.2468 33.093 10.411 31.941 19.012 0.25656-5.0368 28.399-3.6365 26.268 4.9896 1.0194-6.5736 19.707-5.9206 16.3-1.6827-1.3283 1.4664 9.1778 3.5558 14.212 6.6586 15.959 3.2134 1.7925 7.4394 0.29689 7.6119-7.4368 4.8197 6.8207 5.5843 7.4025-0.45134 1.5934 9.2302 4.0217 11.659 1.6509 6.8679-9.0045 10.489 11.753 14.206 13.525 5.4504-3.228 16.846 18.284 21.222 18.04 22.711-9.0877 7.3785 27.128 11.754 27.37 28.294 6.2021-7.9396 22.114-3.712 22.817 14.597 13.383-5.0179 5.6357-6.5127 8.7368-5.5173 9.5579 1.4158 1.5617 5.3243 0.84433 10.387-3.5018-3.7523 5.4427-0.70017 3.3988 1.88-2.503 1.5788 3.2992 3.1276 5.9558 3.4674 2.0448 2.8136 8.3438 4.419 10.122 4.8669-0.03175 4.4731 14.181 7.895 15.125 14.529 0.91984 1.5806 12.152 6.3702 9.1512 13.146 2.3931-2.497 10.008-3.0101 16.259 7.6771 8.6716-8.8938 16.928-6.5882 20.021 10.91 14.426-9.7081 9.8737-4.2234 11.061 6.0613 11.132-8.7634 5.574-10.513 9.6232 0.03347 13.827-4.6944 1.7668-6.3145 3.5712-5.9798 5.5396s2.6179 4.1007 5.8889 2.8616c-2.7321 5.8812-1.9795 9.2533-0.58863 1.2399 0.55946 15.218 1.7582 19.052 6.0716 1.5188-2.3717 25.369-1.6286 29.368 13.377 5.1896-12.853 28.34-13.365 31.366 8.1696 6.7281-19.747 27.746-17.446 27.828 9.57 10.48z" fill="#380000" fill-opacity=".29249"/>
 <path d="m355.37 313.96c10.133 3.5858 15.049 15.811 10.981 27.304s-15.578 17.906-25.713 14.319-15.049-15.811-10.981-27.304 15.578-17.905 25.713-14.319z" fill="#380000" fill-opacity=".29249"/>
 <path d="m360.05 333.19c0 6.7529-5.2822 12.227-11.798 12.227s-11.798-5.4744-11.798-12.227 5.2822-12.227 11.798-12.227 11.798 5.4744 11.798 12.227z" fill="#380000" fill-opacity=".29249" opacity=".3"/>
 <g transform="matrix(.85806 0 0 .85806 38.942 68.91)" fill="#f0ab00">
  <path d="m118.95 462.79c-10.685 16.501-34.031 22.307-52.146 12.965-18.114-9.339-24.137-30.288-13.454-46.788 10.687-16.502 34.033-22.308 52.147-12.967 18.116 9.34 24.138 30.288 13.453 46.79z"/>
  <path d="m128.82 447.54c-9.813 15.155-32.146 20.025-49.883 10.881-17.738-9.146-24.16-28.846-14.349-43.999s32.148-20.025 49.885-10.881 24.16 28.845 14.347 43.999z"/>
  <path d="m52.986 460.5c4.524-4.174 10.417-7.643 16.307-11.11"/>
  <path d="m52.986 460.5c4.524-4.174 10.417-7.643 16.307-11.11"/>
  <path d="m53.952,461.637c4.829-4.335 10.413-7.62 15.982-10.899 1.643-.968.38-3.676-1.281-2.697-5.784,3.407-11.617,6.817-16.632,11.321-1.428,1.282.494,3.565 1.931,2.275z"/>
  <path d="m75.216 476.84c1.792-5.584 4.162-9.243 7.32-14.121"/>
  <path d="m75.216 476.84c1.792-5.584 4.162-9.243 7.32-14.121"/>
  <path d="m76.616 477.36c1.667-5.005 4.292-9.378 7.143-13.783 1.044-1.612-1.397-3.33-2.444-1.711-2.987 4.615-5.752 9.216-7.498 14.459-0.609 1.825 2.19 2.863 2.799 1.035z"/>
 </g>
 <g transform="matrix(.85806 0 0 .85806 38.942 68.91)">
  <path d="m128.82 447.54c-9.813 15.155-32.146 20.025-49.883 10.881-17.738-9.146-24.16-28.846-14.349-43.999s32.148-20.025 49.885-10.881 24.16 28.845 14.347 43.999z" fill="#f0d200"/>
  <path d="m52.986 460.5c4.524-4.174 10.417-7.643 16.307-11.11" fill="#fff"/>
  <path d="m53.952,461.637c4.829-4.335 10.413-7.62 15.982-10.899 1.643-.968.38-3.676-1.281-2.697-5.784,3.407-11.617,6.817-16.632,11.321-1.428,1.282.494,3.565 1.931,2.275z"/>
  <path d="m75.216 476.84c1.792-5.584 4.162-9.243 7.32-14.121" fill="#fff"/>
  <path d="m76.616 477.36c1.667-5.005 4.292-9.378 7.143-13.783 1.044-1.612-1.397-3.33-2.444-1.711-2.987 4.615-5.752 9.216-7.498 14.459-0.609 1.825 2.19 2.863 2.799 1.035z"/>
 </g>
 <g transform="matrix(.85806 0 0 .85806 37.765 70.087)" fill="#f0ab00">
  <path d="m311.48 422.87c11.623 15.988 6.818 37.187-10.734 47.346s-41.201 5.437-52.823-10.551c-11.625-15.989-6.819-37.187 10.732-47.348s41.201-5.434 52.825 10.553z"/>
  <path d="m300.74 408.1c10.675 14.683 5.396 34.65-11.788 44.6-17.186 9.948-39.771 6.109-50.445-8.573s-5.396-34.651 11.79-44.601c17.184-9.949 39.769-6.11 50.443 8.574z"/>
  <path d="m279.23 474.28c-2.112-5.493-2.899-11.752-3.688-18.011"/>
  <path d="m279.23 474.28c-2.112-5.493-2.899-11.752-3.688-18.011"/>
  <path d="m280.582,473.636c-2.068-5.677-2.813-11.666-3.566-17.629-.241-1.912-3.18-1.385-2.939.518 .789,6.248 1.645,12.449 3.809,18.393 .657,1.805 3.349.514 2.696-1.282z"/>
  <path d="m305.65 464.02c-4.762-3.96-7.34-7.505-10.774-12.231"/>
  <path d="m305.65 464.02c-4.762-3.96-7.34-7.505-10.774-12.231"/>
  <path d="m306.5 462.8c-4.118-3.483-7.336-7.633-10.492-11.975-1.131-1.557-3.402 0.381-2.275 1.932 3.315 4.561 6.733 8.832 11.057 12.488 1.47 1.244 3.168-1.212 1.71-2.445z"/>
 </g>
 <g transform="matrix(.85806 0 0 .85806 37.765 70.087)">
  <path d="m300.74 408.1c10.675 14.683 5.396 34.65-11.788 44.6-17.186 9.948-39.771 6.109-50.445-8.573s-5.396-34.651 11.79-44.601c17.184-9.949 39.769-6.11 50.443 8.574z" fill="#f0d200"/>
  <path d="m279.23 474.28c-2.112-5.493-2.899-11.752-3.688-18.011" fill="#fff"/>
  <path d="m280.582,473.636c-2.068-5.677-2.813-11.666-3.566-17.629-.241-1.912-3.18-1.385-2.939.518 .789,6.248 1.645,12.449 3.809,18.393 .657,1.805 3.349.514 2.696-1.282z"/>
  <path d="m305.65 464.02c-4.762-3.96-7.34-7.505-10.774-12.231" fill="#fff"/>
  <path d="m306.5 462.8c-4.118-3.483-7.336-7.633-10.492-11.975-1.131-1.557-3.402 0.381-2.275 1.932 3.315 4.561 6.733 8.832 11.057 12.488 1.47 1.244 3.168-1.212 1.71-2.445z"/>
 </g>
 <path d="m292.25 410.21c42.299 0 49.55-15.711 49.55-58.009" fill="none" stroke="#f0e656" stroke-width="6.8645"/>
 <path d="m314.43 358.59c0.62638 3.5206-0.97047 8.1636-0.87609 12.393-0.23167 2.1168-0.46421 4.2294-0.72077 6.3325-1.2785 10.518-3.1259 20.827-8.0478 30.587-1.2305 2.5244-2.551 5.0008-4.0209 7.4119-16.85 15.66-36.012 25.72-50.384 45.837-1.5968 2.321-4.7914 4.643-8.6475 5.4384-2.0628 1.1515-4.0938 1.9195-6.2072 2.4961s-4.3083 0.96361-6.704 1.3506c-7.986 0.77312-15.97-2.3211-23.954-3.869-15.969-2.3211-29.544 9.2851-45.174 5.4144-2.6222-0.60921-5.205-1.3712-7.7354-2.2344-2.1348-1.5557-4.3032-3.0882-6.4947-4.6095-18.048-17.915-42.8-27.974-58.967-48.383-1.1953-2.2344-2.3211-4.5083-3.3842-6.8113-1.9984-4.4594-3.9806-9.0809-5.7499-13.803-0.88466-2.3605-1.7161-4.746-2.4669-7.1511-9.7604-24.559 3.8141-47.773 12.262-70.406 0.78341-2.2507 1.5351-4.5091 2.2807-6.7667 2.2473-6.7727 4.443-13.543 7.6368-20.12 5.5894-11.606 13.575-23.987 25.569-31.187 2.2104-1.4561 4.4722-2.8402 6.783-4.1539 18.485-10.51 40.081-16.546 63.151-16.546 27.95 0 53.735 8.8595 74.449 23.801 2.3013 1.6604 4.54 3.3954 6.7118 5.2024 2.9929 2.7655 6.9872 5.8606 9.382 9.7296 2.1958 4.256 4.2414 8.4631 6.2758 12.622 1.016 2.0791 2.0276 4.147 3.047 6.2046 5.0497 12.898 11.438 24.504 18.624 36.885 2.3948 5.4169 0.79799 10.832 3.0186 15.918 0.26944 2.775 0.38013 5.5817 0.34495 8.4184z" fill="#f0d200" stroke="#f0e656" stroke-width="6.0064"/>
 <path d="m315.61 375.36c0.62942 3.076-0.97517 7.1327-0.88033 10.828-0.23279 1.8495-0.46646 3.6953-0.72426 5.5328-1.2847 9.1899-3.141 18.197-8.0867 26.725-1.2364 2.2056-2.5634 4.3693-4.0404 6.4759-16.931 13.683-36.186 22.472-50.628 40.048-1.6046 2.028-4.8146 4.0566-8.6894 4.7516-2.0728 1.0061-4.1136 1.6771-6.2373 2.1809s-4.3292 0.84193-6.7365 1.18c-8.0246 0.67549-16.048-2.028-24.07-3.3804-16.047-2.0279-29.687 8.1125-45.393 4.7306-2.6349-0.53227-5.2302-1.198-7.7729-1.9522-2.1452-1.3592-4.324-2.6982-6.5261-4.0274-18.135-15.652-43.007-24.441-59.252-42.273-1.2011-1.9522-2.3323-3.939-3.4006-5.9512-2.0081-3.8962-3.9998-7.9341-5.7777-12.06-0.88894-2.0625-1.7244-4.1466-2.4789-6.248-9.8077-21.458 3.8326-41.74 12.321-61.515 0.7872-1.9665 1.5425-3.9397 2.2918-5.9122 2.2582-5.9174 4.4646-11.833 7.6737-17.579 5.6165-10.14 13.64-20.958 25.693-27.249 2.2211-1.2722 4.4939-2.4815 6.8158-3.6293 18.575-9.1831 40.275-14.457 63.456-14.457 28.085 0 53.995 7.7407 74.809 20.795 2.3125 1.4507 4.562 2.9666 6.7442 4.5454 3.0074 2.4163 7.021 5.1205 9.4275 8.5009 2.2064 3.7185 4.2619 7.3943 6.3062 11.028 1.0209 1.8165 2.0374 3.6233 3.0617 5.4211 5.0741 11.269 11.493 21.409 18.714 32.227 2.4064 4.7329 0.80185 9.4643 3.0333 13.908 0.27075 2.4246 0.38197 4.8768 0.34662 7.3553z" fill="url(#d)"/>
 <path d="m334.6 193.27c-25.524 20.909-27.627 25.463 4.8498 38.479-33.92-5.1715-33.26-1.8817-10.28 21.695-17.894-17.696-13.469-15.104 4.5614-3.7068-6.4423-2.0568-11.373-3.1371-15.016-2.8857s-6.0013 1.8371-6.9803 4.8575c-1.6157 3.5155-1.8534 8.4691 3.9514 13.357-9.7956-5.1681-12.502-7.853-7.2129-12.493-8.2039 6.3866-8.4116 10.819 5.4736 11.954-14.264 1.9796-12.567 8.2554 3.5129 15.598-21.251-4.3641-26.457-5.3002-4.3641-12.618-29.548 11.819-31.795 17.257-13.018 49.81-23.927-26.478-26.83-25.841-11.743 7.7423-16.905-30.817-19.746-29.933-28.219 2.8805 6.9383-29.625 8.2451-27.322 14.056 2.5819-6.5462-17.905-11.111-23.566-17.084-19.536-2.9852 2.0147-6.3213 6.4509-7.865 13.857 1.1918-7.6144 3.2074-9.6309 4.528-8.0606 1.2957 1.566 1.8937 6.7178 2.8187 14.308-2.1203-5.0952-4.3452-8.2777-5.7044-9.4258-3.7995-1.783-6.7306-1.5325-2.8925 2.7252-7.7663-7.3965-10.555-6.2184-1.2099 1.4493-12.804-2.8299-13.824-0.71821-3.9702 8.844-11.763-4.2671-12.655-1.0829-6.7675 9.9003-10.05-16.45-13.23-20.664 1.4493-4.6919-22.318-16.944-26.778-13.704-30.605 17.013-2.5064-29.668-4.3813-31.86-13.567-2.17 1.3128-10.558 1.8139-17.572 1.1206-21.458s-2.5785-4.6447-4.8746-2.2172c-4.625 1.4793-9.6601 6.1446-12.697 17.399 2.6514-14.736 4.8815-20.038 10.592-17.536-7.744-3.198-12.006 1.4115-12.086 18.038-1.8139-15.468-0.42903-20.038 10.153-15.751-13.458-7.6797-17.719-6.5033-9.1495 12.365-10.431-18.116-8.0306-18.541 6.4423-7.8393-13.272-7.2609-14.471-3.3945-9.0551 12.216-7.2317-14.895-8.095-18.578 5.9747-8.2769-17.565-15.37-20.198-16.756-2.63 1.5445-22.689-21.899-26.607-22.197-22.837 13.231-10.311-32.618-12.603-31.14-23.732 0.53457 6.1677-27.551 3.4949-24.909-9.6618-2.829 3.7085-9.2173 6.1626-16.068 6.6431-21.004s-1.0099-7.9628-4.2465-7.8684c-5.1252-3.2272-11.996-3.3327-21.736 5.3174 8.7926-11.694 14.715-14.633 22.746-8.9204-2.4858-10.612-2.8651-12.573 2.6428-3.1379-12.055-13.419-18.224-15.438-24.581 8.6064 6.6654-24.436 9.8445-23.49 19.033-5.5946-11.18-17.564-16.35-18.176-24.697 6.118 6.916-26.693 10.157-28.349 24.279-7.3304-12.824-25.319-14.766-27.961-4.2242-1.2553-8.7085-29.924-11.757-32.873-11.482 3.9033-4.8875-37.861-5.6821-41.136-7.1554-41.961s-3.6262 0.80315-32.128 26.257c13.218-14.362 19.85-22.77 20.399-30.786 0.27458-4.0088-0.97218-7.9199-2.9835-8.802-3.3954-8.1361-7.5552-13.244-15.195-2.7999 8.2683-9.2731 11.974-4.0003 13.578 3.2109 0.52427 0.31491-1.0537 2.5673-5.4341 4.159-4.3847 1.4759-11.573 2.2893-21.729 3.1757 9.4438-2.2593 15.926-4.449 19.885-5.5045 3.9265-4.2165 5.332-7.297 5.6692-3.1765-1.7504-12.205-4.5675-17.208-11.497-2.7158 7.0859-14.651 7.9534-11.651 5.8863 2.1426-2.3777-11.52-7.6908-12.249-19.469-3.8724 10.932-10.909 15.398-12.715 17.157 2.7441 3.0796-20.436 3.452-23.608 2.6566-1.9864 0.40844-25.688-0.35009-26.582-5.042-0.84089 0.399-28.76-3.1345-30.885-27.52-15.442 28.108-18.41 32.158-20.067 40.774 6.2879-6.8516-32.516-9.1349-37.019-27.498-70.702 18.363 27.739 20.678 26.351 25.125-5.2007-1.9298 26.794-1.7256 23.422-7.756-3.7146 3.8518 23.452 5.7207 21.64 9.6438-0.3887-4.0217 19.421-5.9901 18.626-11.629-1.1816 6.5607 17.068 9.4515 15.123 12.227-0.25055-2.6548 11.972-5.4247 10.516-12.05-1.6398 4.4164 9.31 7.4291 7.9525 10.598-0.31319 0.95417 5.5122 2.0636 4.1161 2.7836-0.69846 0.52428 1.0245 0.65728-1.3703-0.42045-4.0046-1.0846-2.6008-3.3808-5.441-6.9906-8.6844 10.26 1.3609 15.263 1.1103 3.2066 4.1504 17.446-8.7591 17.831-14.228-2.1228-26.175 23.172 8.1507 25.952 9.7802-0.0429 9.2902 29.599-1.5196 30.423-5.1612 6.6637-26.349 27.558 20.566 28.884 17.014 9.2782-11.634 22.643 23.568 25.605 23.34 22.486-11.135 8.2468 33.093 10.411 31.941 19.012 0.25656-5.0368 28.399-3.6365 26.268 4.9896 1.0194-6.5736 19.707-5.9206 16.3-1.6827-1.3283 1.4664 9.1778 3.5558 14.212 6.6586 15.959 3.2134 1.7925 7.4394 0.29689 7.6119-7.4368 4.8197 6.8207 5.5843 7.4025-0.45134 1.5934 9.2302 4.0217 11.659 1.6509 6.8679-9.0045 10.489 11.753 14.206 13.525 5.4504-3.228 16.846 18.284 21.222 18.04 22.711-9.0877 7.3785 27.128 11.754 27.37 28.294 6.2021-7.9396 22.114-3.712 22.817 14.597 13.383-5.0179 5.6357-6.5127 8.7368-5.5173 9.5579 1.4158 1.5617 5.3243 0.84433 10.387-3.5018-3.7523 5.4427-0.70017 3.3988 1.88-2.503 1.5788 3.2992 3.1276 5.9558 3.4674 2.0448 2.8136 8.3438 4.419 10.122 4.8669-0.03175 4.4731 14.181 7.895 15.125 14.529 0.91984 1.5806 12.152 6.3702 9.1512 13.146 2.3931-2.497 10.008-3.0101 16.259 7.6771 8.6716-8.8938 16.928-6.5882 20.021 10.91 14.426-9.7081 9.8737-4.2234 11.061 6.0613 11.132-8.7634 5.574-10.513 9.6232 0.03347 13.827-4.6944 1.7668-6.3145 3.5712-5.9798 5.5396s2.6179 4.1007 5.8889 2.8616c-2.7321 5.8812-1.9795 9.2533-0.58863 1.2399 0.55946 15.218 1.7582 19.052 6.0716 1.5188-2.3717 25.369-1.6286 29.368 13.377 5.1896-12.853 28.34-13.365 31.366 8.1696 6.7281-19.747 27.746-17.446 27.828 9.57 10.48z" fill="#f0ab00"/>
 <path d="m291.04 219.27c0 49.392-43.016 89.431-96.079 89.431s-96.079-40.04-96.079-89.431 43.016-89.432 96.079-89.432 96.079 40.041 96.079 89.432z" fill="#f0d200" stroke="#f0e656" stroke-width="6.0064"/>
 <path d="m116.99 166.35c-16.732-25.923 13.665-48.479 28.833-26.902" fill="#f0ab00"/>
 <g transform="matrix(.85806 0 0 .85806 35.412 75.971)">
  <path d="m96.426,104.691c-6.709-10.807-8.161-24.626 1.749-34.022 9.391-8.904 22.272-5.386 29.367,4.276 1.139,1.551 3.411-.385 2.276-1.931-7.861-10.706-21.068-13.936-32.095-5.856-12.697,9.302-11.493,26.734-3.993,38.814 1.001,1.614 3.712.355 2.696-1.281z" fill="#f0e656"/>
 </g>
 <path d="m274.58 169.59c16.495-26.076-14.108-48.352-29.08-26.636" fill="#f0ab00"/>
 <g transform="matrix(.85806 0 0 .85806 35.412 75.971)">
  <path d="m279.95 109.96c7.54-12.39 8.283-27.948-3.195-38.18-10.703-9.54-25.367-5.372-33.14 5.426-1.126 1.564 1.32 3.274 2.445 1.712 6.914-9.606 18.448-12.666 28.247-5.295 11.216 8.437 9.741 23.874 3.197 34.626-0.995 1.636 1.443 3.358 2.446 1.711z" fill="#f0e656"/>
 </g>
 <path d="m223.36 260.96c0 11.013-12.715 19.94-28.4 19.94s-28.401-8.9273-28.401-19.94 12.716-19.94 28.401-19.94 28.4 8.9273 28.4 19.94z" fill="#df3a00"/>
 <g transform="matrix(.85806 0 0 .85806 35.412 75.971)">
  <path d="m276.694,193.741-.127-.181-.183.305 .31-.124z"/>
  <path d="m276.332,192.25-.352.022c-.195,1.013-.318.652-.117,1.506 .22-.087.705-.279.803-.667-.133-.005-.444.292-.572.109 .18-.245.354-.139.58-.462-.167-.402-.268.164-.525-.085l.183-.423z"/>
  <path d="m275.615,193.06 .228-.44c-.091.152-.313.299-.228.44z"/>
  <path d="m275.396,193.088c-.174-.107.138-.348.139-.406l-.448.53 .309-.124z"/>
  <path d="m274.634,192.751-.109.025c-.006.108.048.036.109-.025z"/>
  <path d="m274.224,192.678c-.003.241.141.152.301.098l.003-.043c-.04-.219.228-.619.357-.436 .219-.029.038.395.303.172l-.081-.436c-.307-.055-.708.515-.883.645z"/>
  <path d="m274.634,192.751 .112.011c-.017-.09-.064-.058-.112-.011z"/>
  <path d="m275.006,192.951 .131-.052 .047-.193-.178.245z"/>
  <path d="m273.572,192.469c.267-.577.433.239.656-.205-.262-.071-.301-.585-.123-.891l-.35.08c-.176.188-.223.679-.183,1.016z"/>
  <path d="m273.584,190.752-.103.078 .103-.078z"/>
  <path d="m271.781,191.268 .878-.367c-.133.172-.176.366-.351.381 .263.185.439-.184.659-.04-.132.583-.439-.11-.483.438 .175.044.439.107.747-.311l.128.479 .135-.644c-.043-.219-.396.394-.307-.053 .063-.275.19-.285.29-.318-.218.057-.303-.647-.688-.694-.397-.072-.657.923-1.008,1.129z"/>
  <path d="m271.998,190.587 .042-.254-.086.332 .044-.078z"/>
  <path d="m270.992,191.13 .48-.263c.019.066-.007.201-.022.322 .037-.145.215-.353.242-.474 .038-.608-.484.027-.703.06-.398-.423.128-.291.123-.881 .132.063.09.199.267.302-.078-.73-.658-.292-.904-.203 .037.075-.009.251.114.239l-.262.112c.052.513.185.694.665.786z"/>
  <path d="m271.607,191.341c-.143-.005-.176-.062-.159-.143-.019.161-.015.285.159.143z"/>
  <path d="m270.366,189.971 .108.022-.108-.022z"/>
  <path d="m270.332,190.699-.221-.143 .004.295c.044-.018.176-.016.217-.152z"/>
  <path d="m261.259,186.912c-.041.237.02.375.222.387-.107.3-.338.17-.502.313 .197.271-.101.359-.118.675 .27.11.503-.253.779-.086l-.063.338c.411-.091 1.103-.2 1.376.163 .305.212.596.142 1.009.109 1.176.496 2.522.631 3.732,1.324l.38-.53c-.035.313.311.099.146.47-.047-.097-.134-.058-.222-.078 .104.608.752.192 1.022.492-.002-.119.117-.648.247-.704-.249.645.396.128.235.912 .266.304.209-.566.519-.34 .169-.371-.267-.304-.229-.616 .215-.272.268.242.392-.168-.487-.397-1.803.066-2.726.012l.208-.334c-.523.118-1.231-.097-1.395-.806-.027.374-.59-.395-.771.415-.055-.217-.097-.197-.233-.316l-.12.236c-.223-.078-.066-.456-.335-.504 .066.388-.152.435-.314.695-.181-.465-.429-.898-.603-1.286-.011.116-.023.247.022.421-.144-.171-.21.164-.292.266-.178-.034-.03-.47.044-.689-.281-.227-.668.572-.823.222l-.019.375c-.352-.008-.518-.474-.911-.462-.041-.532.414-.33.623-.493-.044-.124-.193-.195-.199-.369-.225.202-.58.463-.836.639 .341-.51-.13-.612-.245-.683z"/>
  <path d="m262.341,186.955 .159-.161c-.044.021-.086.042-.133.002l-.026.159z"/>
  <path d="m261.259,186.912 .008-.059c-.044.022-.038.038-.008.059z"/>
  <path d="m262.991,188.745-.038-.043-.055-.032 .093.075z"/>
  <path d="m263.729,187.228 .167.457c.016-.168.028-.3-.167-.457z"/>
  <path d="m265.824,188.287c.087-.04.082-.158.164-.255-.134-.06-.218.038-.164.255z"/>
  <path d="m261.966,186.75-.308.03-.127.064 .435-.094z"/>
  <path d="m255.874,187.17c.151.468.564.303.845.46 .602-.084.286-.913.823-.832l-.297.852c.535.078 1.226.44 1.864-.214 .013.116.071.269-.096.361 .356.052.498-1.195.894-.79-.577.431.009.548-.252,1.057l-.083.045c.309.017.776-.175.961-.086 .068-.22-.009-.612.259-.563-.094-.075.017-.314.085-.536-.337.174-.446-.01-.688.241-.075-.329.128-.069.052-.398l-.291.218c-.144-.108.243-.253.009-.375-.074.163-.326.298-.513.211l.083-.086c-.18.078-.356-.119-.406.384l-.056-.527-.053.338c-.377-.229-.338-1.061-.972-.781 .103.132-.057.282-.14.328 .165.283.333-.181.555-.176-.051.338-.502.646-.297.908-.183-.462-.536-.081-.459-.935-.326-.136-.546.237-.844-.04l.038-.122c-.189.532-.223-.32-.604.186l.154.164c-.061.224-.148.206-.28.223 .034-.083.034-.083.018-.2-.127.389-.527.376-.602.483 .146.101.418-.186.633-.25-.15.214-.194.553-.34.452z"/>
  <path d="m259.687,186.571-.158.164c.052-.023.107-.068.158-.164z"/>
  <path d="m254.49,186.167c-.198-.133.129-.331-.038-.549-.276.23.138.617-.161.988-.085-.267-.383.105-.472.095 .144-.216.193-.756.175-.872-.113.131-.248-.171-.39-.213 .286.404-.333.138-.087.564-.085.308-.455.472-.542.204 .052-.225.151-.157.241-.146 .154-.416-.178-.277-.154-.679-.446.526-1.502.28-1.368,1.3 .08.202.218-.008.347-.025-.308-.261.088-.508.148-.674 .119.185.429-.07.308.262l-.299.314c.713.331 1.738.466 2.625.499l-.366-.094c.097-.249.275-.231.438-.328l-.051-.666c.099.068.222-.005.165.218 .188-.239.163-.413.129-.645 .305-.054.298.201.604-.167-.358-.61-.486.35-.929-.212l-.323.826z"/>
  <path d="m255.584,186.024-.182.296 .206-.122-.024-.174z"/>
  <path d="m255.107,187.376 .131-.328c-.195-.135-.212.063-.131.328z"/>
  <path d="m252.78,185.473-.301.055 .16.16c.021-.143.101-.19.141-.215z"/>
  <path d="m250.532,186.798c.396-.006.612-.281.993.108 .287-.384.034-.794.191-1.158-.203-.124-.296.584-.544.685-.025-.37-.344.03-.544-.084 .003.152-.024.32-.096.449z"/>
  <path d="m249.401,185.223c-.18-.03-.398.223-.517.03 .05-.225.17-.291.269-.216 .002-.522-.209.051-.358-.321 .011.059.069.156 0,.26-.468-.193-.326.381-.915-.004-.107.126-.196.111-.223.455-.305-.471-.125-.446-.515-.864-.005.201.085.672.033,1.096-.538-.652-.624.033-.964-.452 .046-.019.108-.124.207-.057 .009-.603-.337.081-.539-.057l.068-.51c-.209.064-.582.37-.803-.026l.077-.251c-.543.346-1.125.113-1.573.268l-.217-.338c-.622.353.588.224.104.959-.013-.955-.324.281-.643-.095-.145-.377.354-.189.195-.624-.099.482-.188.137-.377.274 .058-.457-.379-.07-.248-.582l-.668.837c-.096-.261-.283-.22-.42-.157 .344.009-.106.68.271.897 .557-.195 1.502-.389 2.18-.061 .115-.62.445.046.59-.457l.045.581c.456-.096-.079-.353.045-.571 .205-.066.335.323.298.549 .317.061.05-.168.24-.493l.152.707c1.008-.116 2.397-.504 3.477.087l-.028-.44c.479.312 1-.821 1.323.163l.212-.344c-.117.194-.009.653-.188.924 .162-.124.285.06.45-.052l-.226-.24c.236-.336.401-.083.41.244 .452-.373-.109-.772-.141-1.144-.665.708-.435-.854-1.012-.602-.358.202-.019.404-.071.627z"/>
  <path d="m249.898,186.493 .095-.102-.095.102z"/>
  <path d="m241.377,184.85-.154.022c-.054.107.03.034.154-.022z"/>
  <path d="m250.629,186.349-.001-.006-.005.005 .006.001z"/>
  <path d="m251.056,185.342-.143-.035-.006.198 .149-.163z"/>
  <path d="m239.829,184.282 .001.227-.001-.227z"/>
  <path d="m235.595,184.363 .092.005-.092-.005z"/>
  <path d="m225.83,187.117c-.204.235-.491.501-.53.917l-.071-.218c-.094.16-.375.669.063.928l-.014-.21c.18-.439.375.253.67.289 .244-.218.1-1.084.437-1.003 .106-.072.169.15.196.323 .28-.049.155-.707.312-.863 .628,1.567.677-.74 1.431.2 .216-.202.596-.153.831-.568-.058.459.317-.052.374.435-.164-.992 1.036.177.795-1.063 .528.22 0-.087.581.058 .031.139-.055.163-.084.197 .26.201.196-.619.491-.077 .44.022.002-.346.185-.72 .475.075.383.262.721.733-.071-.598.244-.354.404-.695-.058-.02-.381-.088-.223-.344 .535.009.348-.456.814-.696 .35.614-.484.099.025.546-.258.354-.494.361-.573.862 .411-.03.884-.214 1.292-.562 .259.049-.083.33.118.358 .474.221.591-.783.981-.543l-.036.348c.168-.474.795.046 1.181-.234-.066-.167-.112-.28-.066-.396 .063.857.544-.484 1,.095-.069-.542.314-.875.569-.946 .099.141.091.37.097.512-.434-.294-.37.62-.675.892 .252-.298.712-.035.928-.447l-.071.434c.373.04.287-.988.696-.605l-.028.314c.791-.107 1.713.524 2.35-.188 .06-.257-.257-.868-.274-1.069-.388.216-.606.667-.895.888l-.001-.491c-.064.336-.409.529-.213.797-.23.249-.185-.435-.451-.159 .01-.513.173-.565.168-.995l-.233.25c.07-.202-.149-.165-.08-.369-.426.65-.63-.199-1.082.109l.26.074c.01.285-.137.265-.243.355-.144-.394-.215-.333-.462-.493-.191.238-.271.757-.543.771 .021-.545-.474-.265-.563-.717-.015.543-.517.226-.526.542-.137.121-.342.073-.369-.212l.103-.101-.149-.01 .014-.12c-.132-.003-.093.389-.289.133-.014-.142.078-.147.146-.208-.363-.078-.519.868-.861.43-.026.263-.419.351-.257.904-.132-.182-.154-.642-.433-.513-.097.504-.35-.125-.521.219 .215-.551-.022-.141.163-.66-.231-.167-.426.525-.782.49l-.134-.356c-.101.188-.176.604-.372.227l.077.335c-.267-.135-.569.025-.897-.303l-.159.688c-.537-.608-.924.169-1.074.82-.145.008-.382-.049-.417-.188l.092-.272c-.21.032-.563-.258-.533.3-.166.218-.255-.319-.439-.361-.207.852-1.442-.186-1.213.964 .177-.045.575.088.889-.052-.047.159.088.36-.024.418-.309.14-.61-.225-.878.051l-.197-.717c-.834-.536-.711,1.371-1.519.538z"/>
  <path d="m230.076,185.786-.335-.298 .104.303c.062-.069.139-.093.231-.005z"/>
  <path d="m229.845,185.792-.104.187 .131-.11-.027-.077z"/>
  <path d="m224.95,187.619c-.063-.006-.188-.019-.256.1 .103.052.249.026.256-.1z"/>
  <path d="m224.769,187.936 .164.059-.018-.086-.146.027z"/>
  <path d="m218.945,192.218-.021.593c-.198-.134-.363.352-.508-.041 .168.556-.565.47.092.937 .74-.861 2.107-1.577 2.865-2.787l-.013.366c.262-.866 1.145.115.994-1.21l.252.579c.35.002.071-1.089.673-.673l-.151-.211c.076-.042.16.042.236,0l-.084-.084c.079-.34.218-.385.492-.343 .104.171-.053.128-.088.212 .183.133.136-.35.3-.418 .205.104.124.258.146.342 .368-.452.861.061.822-.938-.034-.17-.26-.237-.109-.388-.451-.13-.569.319-.756.668l.083-.032c.168.928-.281-.136-.461.425-.076-.39.084-.47.068-.67-.749-.414-.354.808-1.046.169l.019-.042c-.104-.041-.136.174-.189.303 .086.083.207.081.31.122-.055.129.088.507.139.677-.297-.292-.042.253-.305.171-.242-.29-.027-.377-.061-.588l-.078.338c-.172.128-.382-.247-.575-.366-.016.337.192.121.266.54-.427-.286-1.226.33-1.423.865 .107-.126-.172-.363.031-.411-.109-.036-.22.254-.061.494-.15.35-.546.475-.938.445l.235.179c.09.544-.705.108-.886.609l.011-.001c-.074.139.266.762-.024.806-.158-.313-.031-.377-.257-.637z"/>
  <path d="m218.167,193.681-.155-.385c-.183.032.008.533.208.702 .024-.126.248-.079.11-.262-.053-.032-.146-.139-.163-.055z"/>
  <path d="m216.196,195.805c.03.103.152.192.219.284 .375-.474.775-1.137 1.16-1.091 .22-.065-.175-.52-.093-.813l.357.207c-.088-.297.521-.266-.035-.648-.056-.035.119.31-.04.314l-.144-.181-.135.262-.134-.271c-.546-.013.409.811-.09.958l-.402-.408c-.239.209-.204.459-.647.423 0,0 .207.199.16.081 .059-.017.271.093.369.237 .006.652-.197-.289-.594-.208 .005.57-.261,1.336-.765,1.2 .392.087.48.529.307.668-.226-.056-.215-.27-.321-.407-.118.037-.288.008-.294.139 .337.101.605.44.595.735 .627-.149.107-1.129.527-1.481z"/>
  <path d="m216.449,196.242-.034-.153-.134.162 .168-.009z"/>
 </g>
 <g transform="matrix(.85806 0 0 .85806 35.412 75.971)">
  <path d="m86.632,195.484 .218.05-.072-.347-.146.297z"/>
  <path d="m87.909,196.351 .243-.249c-.536-.883-.201-.697-.927-1.198-.105.211-.335.675-.143,1.027 .101-.083.13-.511.349-.46 .032.301-.167.337-.115.727 .395.188.086-.298.444-.284l.149.437z"/>
  <path d="m87.895,195.273 .127.479c-.036-.173.03-.43-.127-.479z"/>
  <path d="m88.038,195.107c.201-.036.131.351.169.395l-.021-.692-.148.297z"/>
  <path d="m88.832,194.852 .065-.091c-.067-.086-.06.005-.065.091z"/>
  <path d="m89.187,194.633c-.156-.183-.206-.02-.29.127l.027.035c.174.137.24.614.022.563-.143.167-.291-.27-.339.073l.349.272c.262-.162.185-.856.231-1.07z"/>
  <path d="m88.832,194.852-.091.066c.072.056.086,0 .091-.066z"/>
  <path d="m88.421,194.95-.063.126 .095.175-.032-.301z"/>
  <path d="m89.813,194.355c.177.611-.481.109-.357.591 .242-.121.606.239.673.588l.208-.292c.01-.259-.273-.661-.524-.887z"/>
  <path d="m90.917,195.656 .025-.127-.025.127z"/>
  <path d="m91.955,194.124-.437.833c-.01-.216-.102-.393.023-.514-.32.022-.218.417-.478.443-.276-.532.406-.19.087-.64-.163.077-.408.189-.369.71l-.405-.276 .316.576c.173.137.04-.562.263-.162 .13.25.041.338-.012.431 .125-.19.645.308.962.103 .347-.192-.088-1.124.05-1.504z"/>
  <path d="m92.222,194.787 .129.224-.145-.311 .016.087z"/>
  <path d="m92.651,193.735-.204.506c-.056-.04-.122-.16-.186-.264 .063.135.058.409.114.519 .354.497.353-.324.501-.486 .571.079.083.306.456.763-.14.033-.192-.099-.392-.068 .516.52.683-.184.818-.408-.074-.036-.148-.202-.235-.115l.132-.252c-.357-.369-.574-.426-1.004-.195z"/>
  <path d="m92.042,193.958c.113-.085.175-.062.213.012-.086-.138-.168-.231-.213-.012z"/>
  <path d="m93.854,194.246c-.033-.027-.063-.002-.097.051 .032.016.064.01.097-.051z"/>
  <path d="m93.431,193.656 .259-.028-.186-.229c-.022.044-.126.124-.073.257z"/>
  <path d="m102.913,191.623c-.084-.225-.204-.311-.379-.214-.062-.313.197-.324.264-.534-.303-.126-.095-.36-.239-.64-.287.05-.3.485-.62.49l-.121-.321c-.305.297-.828.757-1.253.595-.37-.018-.579.197-.906.443-1.269.179-2.412.935-3.803,1.058l.013.649c-.159-.273-.307.101-.398-.294 .096.051.142-.032.225-.067-.449-.426-.72.279-1.114.206 .074.092.301.583.233.709-.197-.664-.383.148-.737-.567-.394-.07.184.575-.194.593 .097.396.392.07.554.338 0,.348-.354-.022-.199.377 .607-.013 1.356-1.147 2.134-1.637l.03.392c.347-.4 1.044-.64 1.578-.157-.19-.321.693-.021.384-.789 .166.146.189.105.366.122l-.035-.264c.224-.065.306.329.555.231-.271-.291-.117-.445-.127-.749 .411.294.853.528 1.205.765-.053-.104-.113-.222-.247-.344 .212.069.085-.25.099-.378 .167-.065.279.381.336.604 .352.045.248-.836.564-.623l-.184-.327c.3-.18.683.128 1.007-.091 .308.432-.177.5-.265.75 .101.082.262.063.355.208 .082-.29.244-.701.37-.987-.027.613.418.452.549.453z"/>
  <path d="m101.993,192.156-.048.221 .108-.072-.06-.149z"/>
  <path d="m102.913,191.623 .023.054-.023-.054z"/>
  <path d="m100.509,190.982 .055.017 .063-.002-.118-.015z"/>
  <path d="m100.709,192.654-.382-.298c.077.151.138.267.382.298z"/>
  <path d="m98.426,192.909c-.047.083.024.177.013.304 .141-.029.152-.158-.013-.304z"/>
  <path d="m102.408,192.134 .239-.188 .074-.122-.313.31z"/>
  <path d="m107.498,188.885c-.344-.382-.644-.027-.964-.038-.501.357.146.947-.363,1.126l-.118-.896c-.511.181-1.302.186-1.551,1.061-.066-.096-.192-.204-.088-.362-.34.121.137,1.284-.398,1.11 .291-.646-.274-.479-.297-1.046l.051-.079c-.282.131-.597.513-.8.525 .052.226.312.521.062.621 .117.014.143.278.194.505 .2-.319.386-.2.47-.534 .226.253-.076.119.15.373l.144-.325c.176.029-.085.334.175.333-.016-.177.136-.412.338-.422l-.03.114c.118-.152.363-.059.168-.526l.297.439-.113-.323c.437.027.782.783 1.201.243-.148-.07-.078-.276-.026-.356-.272-.175-.208.315-.401.414-.112-.323.142-.806-.158-.943 .371.324.51-.179.824.617 .343-.03.373-.465.753-.356l.02.126c-.063-.561.329.177.452-.441l-.206-.081c-.042-.226.042-.259.155-.321 .005.088.005.088.069.189-.052-.404.32-.546.342-.673-.176-.035-.304.331-.47.472 .044-.255-.06-.582.118-.546z"/>
  <path d="m104.416,191.167 .058-.218-.058.218z"/>
  <path d="m109.171,189.273c.232.047.013.354.248.491 .162-.318-.365-.515-.237-.972 .181.213.312-.245.399-.271-.051.255.111.772.171.873 .053-.165.29.062.433.047-.41-.264.253-.256-.13-.556-.038-.317.247-.613.425-.398 .033.229-.083.204-.169.229 .01.444.264.188.387.569 .215-.667 1.285-.832.816-1.732-.148-.17-.205.089-.32.152 .38.123.092.507.095.685-.175-.125-.373.231-.377-.124l.168-.409c-.786-.029-1.804.248-2.64.562l.378-.056c.009.267-.163.32-.273.471l.313.593c-.116-.024-.198.089-.237-.138-.075.292.019.442.143.643-.251.166-.349-.071-.471.384 .563.424.293-.507.911-.159l-.033-.884z"/>
  <path d="m108.24,189.823 .042-.341-.135.19 .093.151z"/>
  <path d="m108.118,188.399 .015.352c.235.048.169-.14-.015-.352z"/>
  <path d="m110.985,189.257 .255-.167-.202-.087c.03.141-.026.216-.053.254z"/>
  <path d="m112.661,187.271c-.384.122-.501.446-1,.188-.145.448.236.764.208,1.155 .232.06.085-.64.29-.809 .144.345.319-.128.55-.078-.05-.144-.077-.311-.048-.456z"/>
  <path d="m114.211,188.449c.177-.022.317-.33.48-.178 .011.23-.083.329-.197.285 .137.502.184-.109.42.205-.024-.054-.105-.13-.066-.25 .489.051.212-.461.866-.26 .072-.153.162-.164.105-.503 .404.394.227.411.691.751-.038-.199-.229-.645-.274-1.07 .669.547.609-.14 1.04.278-.041.026-.082.141-.19.091 .109.594.311-.137.536-.037l.027.513c.187-.099.499-.464.775-.111l-.035.261c.467-.434 1.064-.304 1.479-.534l.247.298c.567-.426-.594-.14-.207-.932 .117.935.29-.335.648.042 .176.372-.332.2-.134.629 .051-.485.172-.144.345-.286-.019.458.376.058.286.573l.602-.857c.109.258.29.21.423.143-.342.002.083-.683-.31-.887-.561.247-1.494.361-2.208.209-.037.633-.452.032-.527.554l-.126-.565c-.442.174.13.335.037.571-.191.101-.378-.261-.376-.491-.328-.005-.024.175-.162.528l-.267-.67c-1.001.31-2.28.844-3.466.657l.143.416c-.549-.16-.722,1.076-1.311.228l-.1.39c.054-.219-.187-.627-.095-.938-.119.166-.294.025-.418.18l.29.165c-.124.39-.357.195-.469-.114-.314.487.347.705.485,1.051 .417-.869.656.693 1.116.287 .281-.296-.09-.393-.103-.622z"/>
  <path d="m113.371,187.377-.062.126 .062-.126z"/>
  <path d="m122.078,187.501 .152-.028c.05-.108-.032-.033-.152.028z"/>
  <path d="m112.709,187.728 .003.005 .003-.006-.006.001z"/>
  <path d="m112.621,188.811 .144-.008-.056-.191-.088.199z"/>
  <path d="m123.599,188.018 .003-.227-.003.227z"/>
  <path d="m127.659,188.365-.086-.017 .086.017z"/>
  <path d="m137.239,190.115c.297-.026.678-.017 1.007-.279l-.106.203c.174-.048.76-.198.639-.688l-.149.154c-.456.175-.086-.444-.289-.687-.354-.031-.841.693-1.033.393-.127-.024-.028-.231.068-.376-.251-.172-.583.4-.794.404 .5-1.68-.987.148-1.062-.991-.305.057-.617-.183-1.044.049 .294-.362-.307-.122-.105-.568-.35.94-.864-.703-1.226.503-.37-.469-.036.077-.491-.354 .031-.139.119-.115.161-.13-.154-.312-.432.429-.487-.156-.411-.161-.144.323-.463.615-.412-.219-.254-.365-.404-.916-.151.584-.364.255-.634.526 .049.038.327.204.091.395-.494-.176-.475.323-.969.407-.138-.693.475.058.14-.527 .35-.255.575-.188.822-.636-.406-.103-.928-.079-1.413.123-.236-.129.171-.289-.017-.381-.412-.362-.769.557-1.086.215l.113-.331c-.268.431-.785-.153-1.226.068 .038.174.063.292-.002.401 .077-.856-.61.408-.971-.225-.005.546-.415.827-.663.865-.08-.152-.05-.379-.041-.521 .389.349.427-.567.773-.796-.291.263-.725-.06-.981.321l.113-.421c-.379-.089-.371.944-.747.51l.048-.31c-.789-.022-1.733-.511-2.364.187-.052.259.271.859.288,1.06 .371-.229.588-.687.879-.917l-.008.491c.068-.338.418-.543.23-.804 .241-.257.17.429.447.144-.033.514-.194.571-.205,1.001l.237-.258c-.077.196.136.182.06.379 .444-.594.587.278 1.036.03l-.241-.107c.014-.285.154-.246.264-.322 .102.41.175.359.393.549 .206-.212.348-.717.615-.695-.094.538.42.323.434.782 .1-.535.527-.157.592-.468 .153-.102.343-.029.312.257l-.116.086 .139.029-.037.117c.124.02.166-.372.299-.094-.016.142-.103.135-.179.186 .32.103.675-.765.892-.227 .085-.245.473-.206.465-.787 .078.216-.021.663.27.627 .231-.451.288.229.546-.046-.36.458-.024.141-.342.579 .156.23.539-.369.857-.224l.004.378c.15-.148.363-.517.41-.1l.046-.34c.194.209.53.153.696.561l.416-.595c.234.745.849.3 1.3-.202 .132.069.31.241.272.379l-.209.189c.196.081.342.508.598.014 .252-.103.052.403.18.532 .636-.618 1.048.875 1.535-.204-.171-.051-.428-.365-.774-.409 .129-.11.127-.35.258-.34 .352.043.39.502.783.41l-.275.695c.293.871 1.374-.541 1.425.618z"/>
  <path d="m133.132,188.793 .144.431 .054-.317c-.085.029-.16.01-.198-.114z"/>
  <path d="m133.33,188.906 .175-.109c-.051-.021-.104-.021-.161.029l-.014.08z"/>
  <path d="m138.188,190.372c.038.048.112.144.245.108-.03-.107-.15-.191-.245-.108z"/>
  <path d="m138.542,190.278-.068-.155-.051.072 .119.083z"/>
  <path d="m145.103,193.503 .604-.095c-.089.221.453.298.078.508 .541-.259.617.472.973-.235-1.147-.517-2.127-2.078-3.738-2.193l.364-.146c-.956.154-.523-1.09-1.651-.336l.382-.502c-.208-.328-.995.465-.976-.291l-.093.246-.135-.216-.022.12c-.328.102-.438.002-.564-.275 .075-.188.134-.019.223-.03-.005-.232-.354.039-.52-.037-.058-.213.128-.256.184-.326-.633.036-.596-.666-1.344.039-.104.142.002.345-.216.344 .211.405.629.178 1.044.079l-.083-.037c.633-.707.106.235.645.096-.261.27-.419.184-.578.34 .119.826.844-.134.707.808l-.043.006c.02.113.208.026.341.007 .025-.119-.04-.224-.06-.338 .134-.019.373-.341.488-.472-.085.416.239-.089.315.191-.121.361-.31.212-.469.35l.328-.102c.202.09-.014.461-.022.689 .299-.153.008-.229.335-.499-.028.519.882.902 1.498.842-.172-.038-.271.305-.408.154 .015.108.341.073.502-.165 .44-.062.658.376.747.773l.098-.289c.491-.226.305.696.831.758l-.004-.011c.153.042.688-.424.815-.137-.277.218-.373.104-.576.382z"/>
  <path d="m146.808,194.019-.384.203c.069.168.575-.081.722-.293-.145-.009-.146-.234-.314-.076-.024.055-.121.16-.024.166z"/>
  <path d="m149.043,196.229c.11-.017.211-.128.312-.184-.499-.462-1.177-.953-1.141-1.371-.074-.25-.522.147-.811.044l.19-.386c-.271.065-.314-.575-.644.026-.022.05.312-.143.319.041l-.17.152 .259.159-.26.137c-.008.587.786-.409.948.152l-.408.403c.204.265.46.252.407.706 0,0 .209-.196.088-.158-.015-.062.102-.274.25-.364 .673.062-.299.18-.23.597 .574.038 1.392.432 1.203.905 .125-.373.61-.39.755-.188-.08.211-.316.162-.474.244 .03.121-.02.28.123.307 .145-.307.539-.512.875-.436-.132-.663-1.251-.325-1.591-.786z"/>
  <path d="m149.521,196.033-.166.012 .169.163-.003-.175z"/>
 </g>
 <g transform="matrix(.85806 0 0 .85806 35.412 75.971)">
  <path d="m105.956,205.498 .159.078-.076-.343-.083.265z"/>
  <path d="m106.926,206.507 .155-.207c-.443-.922-.191-.698-.744-1.279-.06.189-.192.604-.029.968 .066-.066.057-.473.216-.395 .044.294-.095.302-.031.684 .294.235.04-.275.296-.212l.137.441z"/>
  <path d="m106.84,205.469 .124.478c-.037-.173-.008-.41-.124-.478z"/>
  <path d="m106.931,205.328c.141-.007.117.355.148.403l-.063-.669-.085.266z"/>
  <path d="m107.479,205.191 .04-.08c-.054-.09-.042-.001-.04.08z"/>
  <path d="m107.717,205.029c-.124-.197-.148-.047-.198.083l.021.037c.133.156.212.624.054.545-.09.141-.225-.3-.236.023l.267.31c.175-.119.073-.798.092-.998z"/>
  <path d="m107.479,205.191-.061.051c.056.064.062.013.061-.051z"/>
  <path d="m107.193,205.229-.036.113 .079.181-.043-.294z"/>
  <path d="m108.144,204.848c.167.613-.335.039-.214.52 .164-.083.447.314.518.659l.128-.253c-.011-.248-.239-.674-.432-.926z"/>
  <path d="m109.014,206.253 .01-.118-.01.118z"/>
  <path d="m109.647,204.911-.254.749c-.021-.21-.098-.393-.017-.494-.225-.02-.126.375-.308.366-.231-.55.274-.13.019-.607-.11.053-.276.131-.214.637l-.306-.322 .262.598c.132.156-.008-.535.176-.119 .109.259.051.331.021.413 .077-.164.476.383.687.227 .228-.142-.139-1.099-.066-1.448z"/>
  <path d="m109.878,205.586 .105.233-.123-.32 .018.087z"/>
  <path d="m110.114,204.626-.112.462c-.042-.045-.096-.171-.148-.279 .053.139.067.402.113.517 .282.526.229-.267.323-.405 .408.152.079.307.37.797-.097.014-.142-.121-.281-.117 .396.57.469-.088.551-.288-.055-.044-.117-.215-.173-.143l.078-.227c-.275-.401-.432-.485-.721-.317z"/>
  <path d="m109.698,204.761c.074-.068.12-.037.151.039-.07-.144-.133-.245-.151-.039z"/>
  <path d="m110.995,205.277c-.025-.031-.045-.011-.065.036 .023.02.046.02.065-.036z"/>
  <path d="m110.66,204.651 .182.007-.145-.246c-.014.04-.082.104-.037.239z"/>
  <path d="m117.174,203.816c-.069-.229-.156-.328-.273-.252-.058-.314.122-.295.159-.492-.216-.158-.083-.364-.195-.654-.198.017-.187.441-.409.41l-.099-.328c-.199.256-.54.647-.844.441-.259-.059-.394.128-.609.331-.875.033-1.638.615-2.606.568l.046.632c-.127-.285-.209.061-.296-.334 .07.061.098-.013.154-.037-.341-.47-.489.185-.771.061 .058.099.248.606.207.717-.179-.668-.261.093-.554-.646-.282-.119.165.581-.101.548 .093.396.281.12.411.4 .021.337-.25-.067-.117.339 .427.071.883-.935 1.4-1.318l.044.385c.22-.346.696-.494 1.095.042-.151-.336.483.066.225-.72 .124.162.138.125.263.164l-.039-.261c.153-.037.233.363.4.294-.204-.315-.104-.448-.128-.746 .302.333.622.612.878.883l-.189-.364c.151.091.047-.234.049-.358 .113-.045.213.404.264.629 .246.084.13-.789.361-.544l-.143-.341c.2-.142.481.203.695.025 .234.457-.099.469-.148.703 .074.091.185.092.257.244 .042-.274.135-.657.21-.923 .011.594.312.486.403.502z"/>
  <path d="m116.562,204.233-.023.211 .071-.058-.048-.153z"/>
  <path d="m117.174,203.816 .018.056-.018-.056z"/>
  <path d="m115.474,202.918 .039.022 .044.005-.083-.027z"/>
  <path d="m115.697,204.575-.281-.335c.062.156.11.277.281.335z"/>
  <path d="m114.122,204.554 .026.297c.096-.011.097-.135-.026-.297z"/>
  <path d="m116.848,204.259 .157-.157 .045-.111-.202.268z"/>
  <path d="m120.229,201.597c-.248-.402-.446-.098-.667-.135-.334.302.135.947-.209,1.072l-.115-.894c-.346.127-.894.053-1.03.888-.049-.102-.141-.22-.076-.365-.23.084.148,1.276-.229,1.051 .173-.606-.21-.498-.25-1.058l.032-.073c-.19.1-.391.445-.531.435 .045.226.24.548.069.612 .082.03.111.29.158.518 .124-.288.257-.156.301-.475 .167.272-.047.11.12.382l.085-.305c.123.046-.044.32.135.345-.019-.176.076-.392.215-.381l-.016.109c.075-.138.248-.021.094-.501l.223.462-.091-.329c.303.071.569.85.836.36-.104-.084-.064-.28-.031-.353-.194-.2-.131.289-.26.366-.09-.33.067-.778-.146-.943 .269.356.345-.125.591.69 .235.005.239-.419.505-.274l.018.126c-.063-.56.232.208.296-.384l-.145-.103c-.037-.228.021-.245.096-.299 .006.088.006.088.054.193-.049-.403.201-.513.212-.636-.122-.05-.198.301-.307.426 .022-.246-.06-.578.063-.527z"/>
  <path d="m118.191,203.53 .03-.208-.03.208z"/>
  <path d="m121.389,202.124c.16.066.019.351.184.507 .101-.301-.265-.541-.19-.982 .13.227.206-.216.266-.234-.028.249.097.774.141.878 .032-.159.2.086.296.084-.287-.296.167-.231-.104-.561-.034-.317.153-.586.281-.358 .028.229-.052.195-.11.212 .019.44.186.208.279.597 .129-.646.859-.706.52-1.64-.105-.177-.14.064-.218.118 .265.162.074.508.081.687-.123-.139-.25.197-.262-.155l.106-.39c-.54-.096-1.233.091-1.797.33l.258-.023c.015.265-.102.302-.173.442l.232.613c-.08-.034-.133.072-.166-.156-.042.282.027.439.117.647-.166.143-.241-.1-.309.339 .398.468.184-.476.616-.078l-.048-.877z"/>
  <path d="m120.769,202.587 .018-.333-.086.177 .068.156z"/>
  <path d="m120.64,201.169 .021.349c.163.068.112-.123-.021-.349z"/>
  <path d="m122.627,202.264 .17-.143-.14-.104c.025.142-.011.211-.03.247z"/>
  <path d="m123.731,200.424c-.261.096-.334.41-.681.12-.089.435.177.775.167,1.162 .159.075.044-.631.181-.784 .105.352.215-.106.374-.041l-.041-.457z"/>
  <path d="m124.805,201.7c.12-.01.211-.306.324-.145 .011.23-.052.321-.13.27 .1.508.123-.096.288.232-.017-.055-.073-.137-.048-.253 .332.084.14-.444.584-.2 .047-.146.108-.146.067-.488 .277.419.157.423.473.785-.027-.2-.158-.654-.192-1.08 .457.577.413-.112.706.325-.028.024-.055.137-.128.083 .075.598.209-.123.362-.013l.019.514c.125-.09.336-.44.522-.075l-.023.259c.315-.412.717-.254.998-.465l.164.313c.385-.395-.399-.174-.132-.945 .071.942.199-.309.438.068 .115.375-.226.194-.097.626 .039-.484.117-.14.235-.279-.018.458.253.064.186.578l.417-.846c.069.26.191.216.283.152-.231-.005.068-.682-.194-.894-.384.226-1.015.355-1.5.145-.029.631-.306.011-.36.529l-.083-.57c-.301.153.087.34.022.572-.129.092-.255-.278-.253-.507-.222-.02-.017.173-.111.52l-.18-.681c-.682.267-1.544.742-2.354.465l.102.422c-.376-.196-.476,1.021-.889.138l-.062.381c.034-.214-.137-.636-.08-.938-.079.157-.2.006-.282.151l.2.183c-.078.379-.24.17-.322-.145-.206.463.25.724.349,1.078 .269-.836.456.733.76.361 .185-.276-.067-.397-.079-.626z"/>
  <path d="m124.217,200.577-.04.121 .04-.121z"/>
  <path d="m130.119,201.117 .103-.025c.035-.108-.021-.034-.103.025z"/>
  <path d="m123.77 200.88 2e-3 6e-3 2e-3 -6e-3h-4e-3z"/>
  <path d="m123.731,201.952 .098.002-.042-.193-.056.191z"/>
  <path d="m131.131,201.663 .008-.227-.008.227z"/>
  <path d="m133.849,201.989-.057-.016 .057.016z"/>
  <path d="m140.314,203.026c.215-.063.488-.102.753-.393l-.098.207c.13-.068.571-.283.534-.735l-.124.165c-.349.224-.017-.413-.141-.62-.256.014-.678.766-.788.502-.089-.007.002-.218.085-.369-.167-.133-.459.456-.61.486 .506-1.665-.715.25-.663-.859-.219.082-.419-.127-.738.136 .236-.379-.206-.093-.028-.546-.319.949-.555-.615-.897.597-.224-.428-.03.079-.317-.305 .031-.139.091-.123.121-.141-.086-.291-.331.458-.327-.122-.272-.14-.122.326-.361.629-.268-.197-.149-.35-.217-.888-.142.586-.267.27-.469.55 .031.035.211.187.038.387-.326-.151-.344.342-.685.449-.054-.681.32.034.126-.529 .254-.27.404-.213.601-.669-.273-.083-.633-.035-.976.188-.155-.117.133-.294.009-.376-.264-.341-.555.591-.754.261l.092-.331c-.202.423-.526-.147-.835.077 .018.174.03.29-.019.4 .088-.855-.43.415-.649-.212-.024.545-.311.831-.479.871-.048-.151-.021-.378-.01-.52 .25.343.309-.571.553-.804-.207.266-.491-.051-.677.332l.091-.422c-.255-.085-.282.947-.523.519l.042-.31c-.533-.021-1.162-.541-1.604.149-.04.257.167.864.173,1.065 .253-.222.41-.675.612-.899l-.018.491c.054-.336.295-.535.175-.8 .169-.25.104.428.298.158-.036.51-.146.561-.165.992l.166-.246c-.057.195.086.181.029.377 .316-.598.386.271.695.017l-.159-.104c.019-.285.112-.248.189-.325 .055.408.105.356.245.544 .146-.215.26-.72.44-.702-.084.538.271.317.261.775 .089-.536.361-.163.418-.474 .107-.103.232-.032.199.253l-.082.087 .092.027-.03.117c.082.018.128-.373.206-.097-.018.141-.076.136-.13.188 .21.101.491-.764.612-.248 .07-.248.333-.227.358-.803 .042.211-.05.659.15.61 .183-.458.183.213.375-.072-.272.471-.024.141-.266.59 .093.221.388-.391.596-.263l-.021.375c.111-.154.28-.529.285-.118l.054-.34c.119.198.352.126.437.522l.325-.608c.105.73.563.225.916-.3 .087.056.198.209.161.348l-.16.203c.131.062.197.467.416-.038 .184-.122.003.39.081.504 .497-.657.651.763 1.089-.33-.115-.036-.267-.32-.506-.333 .1-.118.119-.352.21-.354 .245.013.23.457.515.333l-.257.7c.124.822 1.037-.684.96.424z"/>
  <path d="m137.549,202.149 .067.409 .062-.315c-.062.036-.112.024-.129-.094z"/>
  <path d="m137.678,202.243 .13-.123c-.033-.015-.07-.011-.114.042l-.016.081z"/>
  <path d="m140.97,203.152c.022.042.065.123.165.072-.01-.099-.088-.163-.165-.072z"/>
  <path d="m141.236,203.018-.033-.139-.044.075 .077.064z"/>
  <path d="m145.841,204.903 .496-.193c-.1.211.325.182-.002.433 .468-.325.435.304.815-.38-.849-.262-1.483-1.432-2.706-1.289l.297-.19c-.749.29-.274-.925-1.219-.053l.348-.524c-.123-.271-.807.587-.71-.116l-.097.242-.078-.179-.03.115c-.259.147-.33.072-.396-.165 .076-.186.103-.039.171-.064 .02-.215-.271.094-.387.049-.019-.195.122-.259.171-.332-.467.111-.367-.562-.986.2-.09.148-.035.329-.192.354 .109.359.435.092.75-.053l-.057-.025c.543-.754.045.223.466,0-.224.293-.335.243-.466.406-.003.754.646-.26.439.637l-.033.013c.002.101.152-.01.254-.049l-.007-.303c.102-.039.318-.375.419-.515-.11.398.191-.12.217.126-.132.353-.258.246-.394.398l.258-.146c.143.051-.063.428-.096.64 .243-.189.032-.212.311-.513-.081.483.558.69 1.036.54-.127-.008-.245.322-.331.205-.002.097.25.013.403-.229 .339-.116.475.215.494.557l.111-.274c.416-.292.159.56.569.517l-.002-.009c.117.008.602-.501.669-.27-.245.24-.308.157-.505.439z"/>
  <path d="m147.146,205.051-.337.245c.033.135.475-.172.623-.383-.117.017-.087-.18-.245-.012-.026.053-.118.162-.041.15z"/>
  <path d="m148.759,206.489 .288-.212c-.369-.295-.883-.578-.805-.938-.034-.198-.457.227-.687.197l.203-.365c-.235.11-.2-.425-.543.153-.027.051.278-.186.264-.031l-.159.163 .198.083-.233.167c-.076.498.705-.502.778-.06l-.391.42c.14.182.358.122.257.513 0,0 .201-.205.094-.149-.005-.049.119-.25.255-.354 .562-.077-.274.209-.268.545 .479-.08 1.128.098.905.526 .154-.333.571-.437.67-.294-.096.19-.292.191-.437.289 .01.095-.053.235.065.232 .164-.281.528-.523.807-.52-.029-.53-1.031-.044-1.261-.365z"/>
  <path d="m149.19,206.236-.143.042 .124.104 .019-.146z"/>
 </g>
 <g transform="matrix(.85806 0 0 .85806 35.412 75.971)">
  <path d="m268.672,206.4-.093-.165-.164.313 .257-.148z"/>
  <path d="m268.458,204.981-.286.053c-.21,1.003-.291.664-.174,1.477 .183-.104.585-.334.685-.721-.107.006-.375.323-.469.157 .159-.254.293-.167.494-.502-.114-.376-.226.183-.421-.036l.171-.428z"/>
  <path d="m267.836,205.833 .207-.449c-.082.157-.269.319-.207.449z"/>
  <path d="m267.657,205.88c-.135-.088.13-.351.133-.408l-.39.556 .257-.148z"/>
  <path d="m267.059,205.619-.09.035c-.011.106.038.03.09-.035z"/>
  <path d="m266.73,205.585c-.016.235.105.135.238.069l.005-.043c-.021-.209.216-.623.312-.456 .178-.048.01.381.235.14l-.042-.417c-.245-.026-.599.565-.748.707z"/>
  <path d="m267.059,205.619 .09.001c-.009-.086-.049-.05-.09-.001z"/>
  <path d="m267.349,205.781 .108-.063 .048-.192-.156.255z"/>
  <path d="m266.215,205.439c.246-.585.337.194.541-.258-.207-.046-.212-.542-.053-.857l-.287.109c-.152.199-.216.683-.201,1.006z"/>
  <path d="m266.313,203.767-.087.085 .087-.085z"/>
  <path d="m264.834,204.418 .727-.431c-.116.179-.161.372-.303.401 .202.159.364-.216.533-.093-.137.581-.348-.071-.413.467 .14.028.349.069.619-.364l.078.455 .143-.64c-.023-.209-.341.42-.244-.025 .064-.273.167-.293.25-.335-.179.074-.209-.608-.519-.621-.316-.036-.578.956-.871,1.186z"/>
  <path d="m265.044,203.735 .047-.252-.086.332 .039-.08z"/>
  <path d="m264.205,204.348 .4-.296c.012.063-.016.196-.035.315 .038-.144.192-.362.221-.482 .063-.597-.393.066-.569.116-.3-.38.118-.294.145-.87 .104.051.063.187.2.273-.026-.707-.516-.23-.719-.124 .025.07-.021.247.079.224l-.217.131c.015.497.112.663.495.713z"/>
  <path d="m264.689,204.504c-.114.007-.138-.046-.12-.127-.024.159-.028.28.12.127z"/>
  <path d="m263.761,203.268 .087.013-.087-.013z"/>
  <path d="m263.695,203.981-.17-.121-.013.289c.038-.023.143-.031.183-.168z"/>
  <path d="m256.621,200.901c-.045.236-.005.368.157.366-.102.302-.279.188-.417.339 .143.253-.1.36-.131.671 .21.091.416-.281.628-.134l-.067.336c.333-.116.892-.268 1.091.073 .232.188.469.101.801.042 .908.43 1.989.441 2.923,1.037l.332-.547c-.044.309.244.073.092.45-.032-.092-.104-.047-.174-.06 .052.588.595.131.794.409 .005-.116.128-.643.236-.708-.234.651.313.093.142.872 .198.275.198-.57.436-.375 .156-.376-.199-.275-.152-.583 .188-.283.203.214.324-.196-.374-.344-1.452.2-2.191.217l.186-.343c-.428.154-.984-.004-1.078-.687-.041.369-.452-.344-.641.463-.032-.208-.066-.187-.171-.292l-.108.241c-.174-.061-.03-.439-.24-.477 .031.381-.146.437-.287.701-.12-.446-.296-.855-.414-1.226l-.004.413c-.106-.16-.178.175-.248.279-.141-.022 0-.46.071-.68-.213-.206-.564.604-.671.271l-.034.37c-.28.015-.388-.434-.704-.396-.005-.521.349-.351.524-.524-.029-.119-.145-.179-.141-.35-.189.212-.487.492-.701.682 .296-.52-.075-.591-.163-.654z"/>
  <path d="m257.483,200.875 .136-.169c-.035.023-.07.046-.105.011l-.031.158z"/>
  <path d="m256.621,200.901 .01-.059-.01.059z"/>
  <path d="m257.91,202.593-.028-.04-.042-.028 .07.068z"/>
  <path d="m258.58,201.054 .109.438c.022-.165.039-.295-.109-.438z"/>
  <path d="m260.2,201.96c.072-.045.073-.162.145-.262-.105-.049-.177.054-.145.262z"/>
  <path d="m257.195,200.697-.248.049-.105.071 .353-.12z"/>
  <path d="m252.325,201.418c.093.471.431.281.646.422 .483-.114.275-.916.699-.864l-.281.856c.422.049.952.371 1.495-.308 .003.114.042.262-.096.361 .281.033.46-1.204.753-.825-.482.456-.021.541-.256,1.056l-.069.049c.246-.003.627-.207.768-.125 .066-.221.024-.602.235-.571-.071-.068.029-.311.097-.533-.278.189-.352.003-.559.264-.042-.32.105-.075.063-.395l-.243.23c-.108-.1.207-.262.026-.37-.067.165-.275.311-.419.235l.07-.089c-.147.086-.277-.099-.344.4l-.017-.517-.06.336c-.288-.207-.213-1.029-.732-.721 .075.125-.061.281-.129.331 .117.271.274-.196.451-.203-.059.336-.434.664-.284.912-.121-.446-.422-.052-.315-.898-.253-.118-.448.262-.67.004l.036-.122c-.178.534-.161-.301-.489.211l.112.157c-.059.223-.129.213-.233.23 .031-.083.031-.083.025-.199-.121.389-.435.377-.5.489 .11.094.339-.19.512-.257-.129.215-.182.554-.292.454z"/>
  <path d="m255.389,200.642-.135.17c.043-.026.089-.073.135-.17z"/>
  <path d="m251.284,200.469c-.15-.125.119-.333-.002-.542-.231.239.077.605-.18.984-.053-.261-.309.119-.379.112 .125-.219.193-.756.185-.87-.097.134-.188-.16-.298-.196 .206.39-.271.149-.098.562-.084.308-.386.484-.44.222 .053-.224.128-.161.198-.154 .145-.417-.126-.267-.087-.666-.382.542-1.203.329-1.15,1.335 .053.204.173-.014.275-.035-.23-.247.096-.507.152-.673 .085.178.344-.086.23.248l-.253.322c.547.301 1.353.396 2.053.395l-.285-.079c.09-.251.23-.24.364-.342l-.005-.657c.074.063.176-.013.118.21 .162-.244.151-.416.137-.644 .245-.065.226.188.487-.188-.252-.591-.404.365-.725-.175l-.297.831z"/>
  <path d="m252.158,200.287-.159.3 .169-.128-.01-.172z"/>
  <path d="m251.709,201.644 .121-.33c-.148-.126-.172.07-.121.33z"/>
  <path d="m249.965,199.846-.241.066 .118.152c.024-.142.09-.192.123-.218z"/>
  <path d="m248.123,201.201c.313-.015.499-.296.775.101 .245-.38.069-.793.212-1.155-.152-.126-.263.58-.463.678 0-.367-.272.037-.425-.073l-.099.449z"/>
  <path d="m247.314,199.659c-.141-.026-.326.23-.409.041 .051-.224.148-.292.224-.22 .028-.519-.168.055-.267-.312 .005.058.047.154-.014.258-.359-.182-.276.385-.722.015-.091.127-.161.114-.198.456-.214-.476-.075-.449-.356-.88-.015.201.03.675-.032,1.099-.385-.678-.49.024-.731-.465 .037-.018.092-.123.165-.056 .039-.601-.269.081-.42-.056l.08-.508c-.167.064-.477.369-.629-.026l.073-.25c-.444.345-.89.113-1.25.268l-.152-.337c-.506.337.448.232.032.957 .038-.948-.268.281-.496-.124-.093-.387.284-.165.185-.61-.103.476-.154.125-.309.248 .069-.454-.291-.095-.162-.597l-.566.82c-.062-.263-.21-.226-.32-.167 .268.018-.118.677.166.902 .447-.214 1.189-.286 1.707.016 .122-.618.347.046.487-.456l.005.579c.363-.096-.044-.352.064-.569 .164-.066.246.322.205.547 .247.061.048-.167.214-.491l.084.704c.8-.143 1.901-.453 2.725.091l.001-.438c.361.3.831-.836 1.034.134l.186-.346c-.103.195-.041.649-.196.921 .134-.126.221.054.356-.061l-.165-.234c.204-.339.321-.09.311.234 .377-.38-.045-.765-.051-1.134-.562.718-.298-.84-.767-.577-.297.207-.039.402-.092.624z"/>
  <path d="m247.64,200.911 .081-.104-.081.104z"/>
  <path d="m241.039,199.211-.122.02c-.048.105.022.034.122-.02z"/>
  <path d="m248.22 200.75v-6e-3l-4e-3 5e-3 4e-3 1e-3z"/>
  <path d="m248.613,199.743-.11-.032-.016.197 .126-.165z"/>
  <path d="m239.854,198.609-.01.227 .01-.227z"/>
  <path d="m236.542,198.446 .071.01-.071-.01z"/>
  <path d="m228.726,199.982c-.17.2-.405.42-.447.822l-.052-.224c-.078.143-.313.601.029.917l-.006-.208c.152-.403.291.302.523.38 .197-.178.106-1.047.372-.918 .086-.056.129.172.146.345 .229.014.153-.637.286-.75 .456,1.66.569-.596 1.129.406 .176-.175.473-.084.672-.47-.063.449.25-.015.276.474-.09-1 .803.285.667-.945 .411.313.005-.085.461.164 .019.142-.051.148-.076.177 .198.243.184-.559.393-.001 .342.058.015-.345.173-.703 .368.113.288.292.533.789-.031-.602.205-.333.345-.66-.044-.025-.294-.119-.159-.36 .418.052.292-.427.669-.628 .245.64-.384.059-.005.546-.218.333-.402.32-.486.814 .322.003.699-.143 1.033-.457 .201.07-.08.322.076.367 .361.284.5-.686.796-.399l-.044.343c.153-.458.618.087.933-.171-.044-.171-.074-.286-.033-.4 .009.859.448-.457.776.145-.028-.544.288-.858.491-.916 .07.145.053.374.05.516-.323-.315-.319.6-.57.857 .211-.286.558,0 .746-.4l-.077.429c.289.055.273-.96.573-.542l-.037.311c.622-.012 1.313.584 1.846-.095 .061-.255-.157-.872-.16-1.074-.315.207-.509.652-.745.866l.023-.491c-.067.334-.347.52-.206.792-.192.244-.123-.439-.345-.169 .032-.513.163-.561.18-.99l-.195.245c.065-.196-.107-.18-.044-.376-.363.609-.479-.274-.849.007l.2.09c-.007.283-.121.253-.208.339-.093-.4-.151-.344-.337-.516-.162.229-.25.743-.463.744 .043-.544-.357-.288-.404-.744-.038.542-.416.2-.438.515-.112.114-.271.056-.278-.231l.085-.095-.116-.017 .016-.12c-.104-.01-.09.384-.232.118-.004-.143.068-.143.125-.2-.281-.086-.446.83-.695.342-.032.257-.345.287-.243.856-.095-.196-.092-.665-.314-.557-.099.495-.269-.153-.418.177 .192-.532-.012-.143.157-.646-.174-.185-.357.489-.635.426l-.089-.366c-.087.18-.164.588-.302.196l.046.341c-.202-.156-.447-.021-.69-.374l-.153.674c-.396-.654-.74.001-.887.621-.114-.008-.298-.092-.319-.233l.083-.26c-.167.008-.433-.318-.432.237-.139.197-.188-.344-.331-.407-.194.82-1.133-.347-.989.819 .141-.024.449.152.7.049-.042.152.057.367-.033.412-.246.104-.472-.292-.691-.049l-.133-.732c-.642-.628-.636,1.125-1.243.226z"/>
  <path d="m232.146,199.282-.252-.342 .069.312c.053-.065.114-.074.183.03z"/>
  <path d="m231.964,199.251-.09.173c.043-.002.082-.024.106-.094l-.016-.079z"/>
  <path d="m228.01,200.347c-.05-.016-.149-.046-.206.061 .08.067.198.061.206-.061z"/>
  <path d="m227.858,200.631 .129.081-.013-.086-.116.005z"/>
  <path d="m223.021,203.564-.006.545c-.17-.161-.297.256-.429-.133 .156.544-.464.329.105.88 .58-.685 1.731-1.007 2.364-1.989l-.008.347c.21-.782.923.311.805-.985l.201.598c.279.063.064-1.032.545-.527l-.119-.229c.062-.027.127.065.192.048l-.067-.099c.077-.291.196-.297.426-.186 .081.184-.05.104-.082.172 .147.166.13-.276.263-.316 .162.131.095.27.111.355 .3-.388.68.185.669-.797-.024-.172-.202-.27-.079-.396-.356-.192-.461.23-.615.544l.067-.02c.115.919-.213-.147-.384.322-.049-.373.087-.414.074-.618-.603-.535-.321.662-.88-.094l.017-.034c-.087-.067-.113.141-.16.253 .068.095.166.113.249.171-.046.115.064.502.104.674-.236-.332-.036.236-.248.112-.192-.321-.019-.367-.043-.576l-.066.311c-.14.094-.307-.302-.463-.451-.016.321.155.149.211.563-.344-.348-1.002.106-1.159.583 .087-.102-.143-.376.023-.388-.089-.053-.179.206-.048.461-.107.331-.473.301-.812.178l.2.22c.073.513-.588-.039-.735.391l.009.001c-.061.115.235.757-.005.743-.139-.314-.033-.35-.227-.634z"/>
  <path d="m222.402,204.769-.144-.382c-.154-.004.024.491.2.683 .016-.111.206-.026.083-.22-.044-.039-.127-.155-.139-.081z"/>
  <path d="m220.753,206.248 .206.291c.303-.344.623-.855.956-.739 .187-.013-.171-.498-.109-.744l.316.259c-.066-.26.471-.09-.024-.556-.046-.038.11.302-.038.259l-.127-.189-.125.187-.122-.267c-.477-.125.379.807-.047.836l-.364-.443c-.201.141-.16.37-.55.254 0,0 .189.216.144.102 .051-.004.24.134.332.28 .033.579-.185-.294-.527-.297 .025.509-.166,1.131-.62.921 .352.147.454.55.31.639-.204-.089-.207-.273-.31-.412-.103.012-.256-.044-.253.07 .306.146.563.491.574.743 .541-.012.023-.959.378-1.194z"/>
  <path d="m220.998,206.679-.039-.14-.109.116 .148.024z"/>
 </g>
 <path d="m347.35 314.47c10.133 3.5858 15.049 15.811 10.981 27.304s-15.578 17.906-25.713 14.319-15.049-15.811-10.981-27.304 15.578-17.905 25.713-14.319z" fill="#f0ab00" stroke="#f0e656" stroke-width="6.0064"/>
 <path d="m352.04 333.7c0 6.753-5.2822 12.227-11.798 12.227s-11.798-5.4744-11.798-12.227 5.2822-12.227 11.798-12.227 11.798 5.4744 11.798 12.227z" fill="url(#f)" opacity=".3"/>
 <path d="m120.49 159.88c-12.577-19.485 10.271-36.44 21.673-20.221" fill="url(#c)"/>
 <path d="m271.43 164.58c12.577-19.485-10.271-36.44-21.673-20.221" fill="url(#b)"/>
 <path d="m215.68 255.37c0 7.9259-9.1505 14.351-20.439 14.351s-20.439-6.4247-20.439-14.351 9.1511-14.351 20.439-14.351 20.439 6.4247 20.439 14.351z" fill="#df7f00" fill-opacity=".45059"/>
 <path transform="matrix(.61633 0 0 .59483 80.239 87.601)" d="m318.91 168.28a130.04 68.255 0 1 1 -260.07 0 130.04 68.255 0 1 1 260.07 0z" fill="url(#e)" opacity=".8"/>
 <path d="m188.72 183.39c1.5239 7.5235-1.7487 14.535-7.309 15.66s-11.303-4.0595-12.827-11.583 1.7487-14.535 7.309-15.66 11.304 4.0595 12.827 11.583z"/>
 <path d="m212.6 189.12c-2.3408 7.3107-8.6192 11.834-14.022 10.103s-7.8847-9.0594-5.5439-16.369 8.6184-11.834 14.022-10.103 7.8864 9.0594 5.5448 16.369z"/>
 <path d="m184.69 189.05c0 3.3379-2.164 6.0425-4.8343 6.0425s-4.8343-2.7055-4.8343-6.0425 2.164-6.0425 4.8343-6.0425 4.8343 2.7055 4.8343 6.0425z" fill="#fff"/>
 <path d="m206.42 189.26c0 3.3378-2.164 6.0433-4.8343 6.0433s-4.8343-2.7055-4.8343-6.0433 2.164-6.0425 4.8343-6.0425 4.8343 2.7055 4.8343 6.0425z" fill="#fff"/>
</svg>
