<?xml version="1.0" encoding="UTF-8"?>
<svg viewBox="0 0 307.21 287.46" xmlns="http://www.w3.org/2000/svg">
 <g fill-rule="evenodd">
  <path d="m109.62 213.37c-113.82 26.879-92.729 89.192 108.88 59.038" fill="none" stroke="#7f3f00" stroke-linecap="round" stroke-width="10"/>
  <g stroke="#000">
   <g fill="#ffff83">
    <g transform="matrix(.98847 .41467 -.45044 .90997 174.06 -113.82)">
     <path d="m-1.3609 286.66c23.237 6.5602 30.57-9.217 14.559-33.907-7.6797-11.842-25.449-4.1968-23.97 5.8742"/>
     <path d="m1.229 273.4c12.576 5.4498 12.136 0.55548 6.5634-6.1441-7.6929-5.077-16.342-7.0841-14.864 2.9869"/>
    </g>
    <g transform="matrix(-1.0497 .25736 .27956 .96632 1276.4 -54.484)">
     <path d="m1153-126.78c23.237 6.5602 30.57-9.217 14.559-33.907-7.6797-11.842-25.449-4.1968-23.97 5.8742"/>
     <path d="m1155.6-140.04c12.576 5.4497 12.136 0.55548 6.5634-6.1441-7.6929-5.077-16.342-7.0841-14.864 2.9868"/>
    </g>
    <g transform="matrix(1.2794 .25736 -.34075 .96632 150.38 -47.035)">
     <path d="m135.2 144.28c23.237 6.5602 30.57-9.217 14.559-33.907-7.6797-11.842-25.449-4.1968-23.97 5.8742"/>
     <path d="m137.79 131.02c12.576 5.4497 12.136 0.55548 6.5634-6.1441-7.6929-5.077-16.342-7.0841-14.864 2.9868"/>
    </g>
    <path d="m166.25 9.0954c-65.461-21.308-113.88 15.99-136.94 71.595-18.969 51.169 16.976 68.093 62.171 82.749 51.185 10.362 108.8 19.818 154.42-5.7117 22.28-18.986 34.959-60.319 26.854-83.529-20.943-36.021-65.737-55.762-106.5-65.103z" stroke-width=".759"/>
   </g>
   <g transform="matrix(.93815 0 0 1.2888 121.33 -200.41)" fill="#7f3f00">
    <path d="m4.5652 330.72c0.52509 11.805 20.012 13.825 41.208 14.304 23.591-2.693 18.849-44.41 3.9815-47.696-16.204-8.212-55.898-20.791-45.189 33.392h-1e-5z" stroke-width=".789"/>
    <path d="m15.927 332.96c0.26459 8.5472 10.084 10.01 20.764 10.356 11.888-1.9501 10.739-37.12 3.2478-39.499-8.1654-5.9454-29.408-10.087-24.012 29.143z" stroke-width=".477"/>
   </g>
  </g>
  <path d="m169.36 11.578c-65.461-21.308-113.88 15.99-136.94 71.595-18.969 51.169 16.976 68.093 62.171 82.749 51.185 10.362 108.8 19.818 154.42-5.7117 22.28-18.986 34.959-60.319 26.854-83.529-20.943-36.021-65.737-55.762-106.5-65.103z" fill="#ffff83" stroke="#7f3f00" stroke-width="9"/>
  <path d="m174.57 12.196c-83.145-19.016-116.8 12.306-139.87 67.911 42.21-32.593 50.37-50.475 103-11.86 84.045-22.796 107.39-2.7068 140.63 27.625-1.5636-76.255-96.177-80.971-103.76-83.675z" fill="#7f3f00" stroke="#2e5f0b" stroke-width=".759"/>
  <g fill="none" stroke="#ffa5c1" stroke-miterlimit="3.5" stroke-width="4.2">
   <path d="m77.312 132.42c-0.77104 3.2395 2.5124 6.1592 6.5195 6.6181 5.1578 0.59067 9.7236-2.6128 10.332-6.5318 0.74823-4.8203-4.1745-9.0416-10.197-9.5301-7.178-0.58215-13.419 3.9114-14.058 9.406-0.72777 6.2574 5.5658 11.729 13.415 12.408"/>
   <path d="m228.66 142c0.65459 3.2395-2.1328 6.1592-5.5342 6.6181-4.3783 0.59067-8.2542-2.6128-8.7706-6.5318-0.63522-4.8203 3.5436-9.0416 8.6563-9.5301 6.0932-0.58215 11.391 3.9114 11.934 9.406 0.61784 6.2574-4.7247 11.729-11.388 12.408"/>
  </g>
 </g>
 <g stroke="#000">
  <g fill="#f4f4f6" stroke-linecap="round" stroke-linejoin="round" stroke-width="10">
   <path d="m115.46 117.96c-0.22009 2.4166-0.5571 4.3635-0.75277 4.3484-0.19564-0.015099-0.17584-1.9864 0.04425-4.403 0.2201-2.4166 0.55714-4.3635 0.75278-4.3484 0.19567 0.015106 0.17583 1.9864-0.044258 4.403z"/>
   <path d="m188.55 124.48c-0.22009 2.4166-0.55708 4.3635-0.75276 4.3484-0.19565-0.015106-0.17584-1.9864 0.04425-4.403s0.55713-4.3635 0.75278-4.3484c0.19568 0.015099 0.17583 1.9864-0.044266 4.403z"/>
  </g>
  <g transform="matrix(-.84961 0 0 .79841 1341.7 178.52)" fill-rule="evenodd">
   <path d="m1423.6 61.754c-6.793 22.624 14.708 50.733 34.34 35.139 2.7032-1.9623 5.5923-20.768-4.4465-36.106-6.7363-8.1816-23.971-3.8293-29.894 0.96673z" fill="#ffff83"/>
   <g fill="none">
    <path d="m1422.2 69.227l13.675-0.8766 0.3506-0.1753"/>
    <path d="m1423.3 78.519l13.675-0.8766 0.3507-0.1753"/>
    <path d="m1426.1 86.583l13.675-0.8766 0.3506-0.1753"/>
   </g>
  </g>
 </g>
 <g transform="matrix(-.55172 -.83403 .83403 -.55172 580.14 1592)">
  <g fill-rule="evenodd" stroke="#000">
   <g transform="matrix(.74885 -.66274 .66274 .74885 -244.12 665.35)">
    <path d="m1399.9 859.35c-6.793 22.624 14.708 50.733 34.34 35.139 2.7031-1.9623 5.592-20.768-4.4468-36.106-6.7363-8.1817-23.971-3.8294-29.894 0.96668z" fill="#ffff83"/>
    <path d="m1403.1 884.18l13.675-0.8766 0.3506-0.1754" fill="none"/>
   </g>
   <g fill="none">
    <path d="m1375.7 386.48l9.6594-9.7193 0.1464-0.3636"/>
    <path d="m1382.6 392.74l9.6594-9.7192 0.1464-0.3637"/>
    <path d="m1400 400.69l9.6595-9.7193 0.1464-0.3636"/>
   </g>
  </g>
 </g>
 <g fill-rule="evenodd" stroke="#000">
  <g transform="matrix(.85784 0 0 .79841 224.32 176.03)">
   <path d="m-48.74 61.754c-6.793 22.624 14.708 50.733 34.34 35.139 2.7032-1.9623 5.5922-20.768-4.4467-36.106-6.7363-8.1816-23.971-3.8293-29.894 0.96673z" fill="#ffff83"/>
   <g fill="none">
    <path d="m-50.125 69.227l13.675-0.8766 0.3506-0.1753"/>
    <path d="m-49.073 78.519l13.675-0.8766 0.3506-0.1753"/>
    <path d="m-46.268 86.583l13.675-0.8766 0.3507-0.1753"/>
   </g>
  </g>
  <path d="m163.4 193.59c-6.793 22.624 14.708 50.733 34.34 35.139 2.7032-1.9623 5.5922-20.768-4.4466-36.106-6.7363-8.1816-23.971-3.8293-29.894 0.96674z" fill="#ffff83"/>
  <g fill="none">
   <path d="m162.01 201.06l13.675-0.8766 0.3506-0.1753"/>
   <path d="m163.06 210.35l13.675-0.8766 0.3506-0.1753"/>
   <path d="m165.87 218.42l13.675-0.8766 0.3506-0.1753"/>
  </g>
 </g>
 <path d="m169.1 155.54h3c1 0 2.2929 0.70711 3 0 0.70711-0.70711 1.0761-0.61731 2-1 1.3066-0.5412 2.2929-0.29289 3-1 0.70711-0.70711 0.29289-1.2929 1-2 0.70711-0.70711 0.29289-1.2929 1-2l2-2v-1" fill="none" stroke="#000" stroke-width="5"/>
</svg>
