<?xml version="1.0" encoding="UTF-8"?>
<svg enable-background="new 0 0 346.658 466.762" viewBox="0 0 346.658 466.762" xmlns="http://www.w3.org/2000/svg">
 <path d="m187.07 461.68s-9.594-11.483-9.594-33.191h-8.296c0 21.708-9.596 33.191-9.596 33.191" fill="#bed63a" stroke="#515c19" stroke-width="2.526"/>
 <path d="m345.4 185.96c0 129.12-97.513 242.8-172.06 242.8-71.689 0-172.07-103.3-172.07-242.8-1e-3 -102 70.061-184.7 172.07-184.7 102 0 172.06 82.692 172.06 184.7z" fill="#bed63a" stroke="#515c19" stroke-width="2.526"/>
 <path d="m187.07 461.68a13.743 3.818 0 1 0 -27.486 0 13.743 3.818 0 1 0 27.486 0" fill="#bed63a" stroke="#515c19" stroke-width="2.526"/>
 <path d="m180.57 29.483s125.04 65.676 95.988 286.7c0 0 63.527-103.32 32.838-188.19-33.533-92.739-128.83-98.514-128.83-98.514z" fill="#d6e584"/>
</svg>
