<?xml version="1.0" encoding="UTF-8"?>
<svg viewBox="0 0 640 480" xmlns="http://www.w3.org/2000/svg">
 <path d="m140.47 74.475c-3.2976 1.9605-7.2399 3.675-11.1 5.7-3.3399 3.1185-7.7964 4.6605-11.1 8.7 8.1036-1.296 16.16-1.9815 24.6-2.7 10.587-4.254 21.385-8.8815 33.3-10.2v0.9c-11.056 2.1315-20.828 6.4185-30.9 10.2 3.0444 3.7605 7.1577-0.86851 10.8-0.9 9.9-3.396 20.699-6.825 30.9-8.4 0.25558 0.375 1.2843 0.71851 0.89999 1.2l-0.89999 0.6c1.1121 0.63149 3.8556-0.396 3.9 1.8 0.4698 1.746-2.2734 1.404-1.2 3 9.3831-0.56851 19.154-0.22501 27.9 3 6.5097-0.996 12.681-3.5685 19.5-1.8 1.2375 1.8315-0.306 3.8895-1.2 5.4-2.3625 1.0605-3.5625 1.9185-6 3 5.352-1.7685 11.18-2.2815 17.4-1.5l2.4-0.9c0.9798 2.004-2.6202 6.1185 0.89999 6.6 0.59309-0.48149 1.2798-2.196 2.1-1.8-1.8492 5.4315-4.4202 11.26-5.4 17.1 8.8641-4.4685 14.007-14.925 14.4-25.5-0.56491-3.3105-2.1069-6.9105-6-7.5-3.6492-0.6105-7.9347-1.4685-11.4 0.9l0.60001-1.5c2.8653-0.525 6.2931-1.2105 9-0.60001 2.9508 0.246 5.1786 1.6185 7.5 3.6 5.3919 11.904-3.5214 24.246-10.5 33.9-0.04921 2.5185-2.9637 5.0895-0.3 7.2 4.3641-3.4815 7.2786-6.5685 10.5-11.1h0.59998c0.46411 2.646-3.1359 3.675-2.7 6.3-2.6637 1.6605-2.4927 4.404-4.2 6.6 3.2496-2.7105 5.8218-5.9685 9-9.3 0.7641 3.504-3.3504 4.875-4.8 8.1-3.3492 4.4895-9.006 7.575-10.8 12.9 5.2218-2.925 12.422-8.0685 18.9-5.7 0.3786 0.031494 0.72058 1.0605 0 0.89999-7.3359-0.52501-15.22 3.7605-20.4 8.7 0.036285 1.575-3.0492 2.946-1.2 5.1 1.2363-0.096008 1.0653 1.104 1.8 1.5-0.90601 1.4895 1.1508 0.97501 0.60001 2.1-4.2492 2.304-3.7347 7.9605-8.4 9.6-5.1048 3.3315-11.276 5.5605-15.6 10.5-1.5048 0.0327-1.3323-1.3395-2.7-1.5-1.5468 1.1895-3.0891 2.7315-5.4 2.7-1.9746 1.9185-3.3468 4.146-5.4 5.1l-3.3-3.3c-2.1891 0.6315-2.7024 2.6895-3.9 4.2 1.7109 2.604 6.6819 0.71851 7.8 4.5 3.8532 1.704 6.9387 4.6185 10.8 6.3 7.452-2.196 4.3665-11.967 9.6-16.5 12.765-7.4673 28.364-8.496 41.1-15.9 0.6351 0.204 1.8351 1.2315 0.90002 2.4-6.7794 2.2605-11.236 7.575-14.4 13.5-8.8347 6.9315-14.32 17.389-27 18-1.548-0.26729-2.0625 0.7605-3.3 1.2 2.6097 2.646 6.381 5.3895 9.9 6.9 0.59399-0.48151 1.2798-0.3105 2.1 0 6.0363-4.425 9.9798-9.9105 18-12 0.20731-1.5105 2.0931-2.3673 1.5-4.2 7.1064-13.94 24.419-9.4815 38.1-11.1l13.8-2.7c1.146 0.204 2.0028 1.746 1.2 2.7-6.396 2.1315-12.567 6.246-16.2 12.3-4.5948 4.2327-10.595 6.4605-16.5 9.9-2.3226-0.010498-4.2081 2.2185-6.6 2.4-6.8649 0.84601-13.036-4.9815-19.5-1.8 2.5218 2.475 6.9786 2.646 9.9 5.7 3.5919 0.88951 5.3064 4.8327 9 4.8 0.76291 2.2605 2.6484 0.375 3.9 1.5 6.2907 0.41849 13.147 2.646 19.8 3.6 0.8895 1.104 2.0895 0.93269 3.6 0.60001 3.804 2.5605 9.4605 0.67499 13.2 3.9 6.3738 0.8895 9.9738 7.0605 14.4 11.4 3.8016 7.146 9.2871 12.804 14.7 18.9 0.58588 0.93269 2.1294 0.58949 2.4 2.1-0.099609 0.71851-0.6141 1.575-1.5 1.8-3.7419-2.454-9.9129-0.56729-14.4-1.8-4.0839-0.825-8.0262-0.3105-11.7-2.1-14.496-2.154-22.553-16.211-26.7-28.8-6.1371-4.554-15.052-3.0105-21.9-6.9-6.3504-3.1395-11.664-8.2815-18.6-10.8-3.3492-1.254-5.406 1.6605-7.2 3.3-4.7202 4.875 3.6798 6.075 4.8 9.3 2.9931 3.1185 5.2218 6.204 8.7 8.1 2.0073 3.246 4.2351 7.0185 5.1 11.1l1.2 1.5c0.84961 8.8185 3.4206 19.446-1.8 27.6-2.4927 6.7606-7.4637 12.589-8.4 19.5-0.6069 0.97498-1.9782 0.46054-2.4-0.30002-0.2637-8.8394-5.0637-16.725-5.1-25.5-5.6202-9.7395-4.077-22.596 0.90001-32.1l0.3-2.7c-3.906-3.5673-7.506-7.5105-10.5-11.4-2.8335 6.975 2.4798 14.175-1.8 20.1 0.681 13.446-13.376 19.104-16.5 30.3-2.7036 3.2039-4.4181 6.8039-7.2 10.2-0.8181 1.7461 0.5544 4.4894-1.8 5.1-2.7891-1.6394-0.73111-5.2394-1.5-7.5-1.9746-6.6539-3.1746-13.167-3.9-20.4 1.5831-15.74 12.382-29.454 26.7-35.4 0.7665-4.5105-0.948-9.1395-4.5-11.1-3.6468-0.78149-6.5613-4.0395-10.2-3.3-4.0746 3.0315-9.9036 3.204-10.5 9-3.6879 5.004-5.5734 12.546-10.8 17.1-2.4879 2.304 1.6266 4.1895 1.2 6.9 1.7976 1.746-0.6024 4.3185 1.5 6-0.38791 5.175-3.6444 8.775-5.1 13.5-0.9444 2.8184-0.9444 6.2461-2.7 8.4-0.81569 2.9894-0.81569 6.075-0.90001 8.7-0.43019 0.80392-1.6302 0.80392-2.1 0 0.2988-10.854-9.4722-17.71-9.6-28.8l0.60001-8.7c-8.3565 0.074997-17.271-4.3815-26.1-4.2-2.1411-0.1815-4.8843 0.67499-6.6-0.90001 0.1734-0.996-0.5121-2.196 0.60001-2.7 5.7444 2.3895 8.1444-5.154 12.9-6.6 5.8722-1.8105 8.7855-7.8105 13.5-11.1 5.3988-2.3673 11.056-4.425 16.5-6.9 5.5266-0.26729 12.04-0.78149 17.4 1.2l7.5-5.7c-3.7746-4.1685-10.117-3.996-14.7-6.6-4.5024-0.65399-9.3012 1.746-12.6-1.8-0.4722-0.91049 0.38431-1.9395 1.2-2.7-10.758-2.6673-16.071 6.9315-23.1 12-0.85651-0.095993-2.0565-0.095993-2.4-1.2 0.17221-4.0395 3.771-7.296 6-10.2-3.771 1.0185-7.1988 4.275-11.1 5.1-0.042297-0.65399-1.0698-1.3395-0.60001-2.4 0.3867-0.13948 1.2435-0.65398 1.2-1.2-5.4423-2.3685-8.6988 2.775-13.2 2.7-1.3266-0.43951-0.98309-1.6395-0.89999-2.4 0.6024-0.954 1.4589-1.296 2.4-2.4-0.59761-1.296-2.9976-0.4395-3.9-1.8-2.8686 0.16051-5.6121-0.696-8.1-2.1-2.3109 1.2327-6.0831 1.575-6.6 4.8 0.1746 0.375 1.5456 0.375 0.89999 1.2-0.89639 0.37498-2.6109 0.031494-2.4-1.2 0.1323-3.054 3.2181-4.425 5.1-6-3.4254-1.5105-4.1109-7.6815-8.7-4.8-0.7254-0.48151-2.2677-0.825-2.4-1.2 1.5036-0.65401 4.7601-0.31052 4.2-2.4-1.3254-0.3105-2.0109-1.3395-3-2.1-6.0387 1.104-11.867 2.9895-17.1-0.89999v-1.8c2.8335 2.604 9.1758 3.1185 13.2 1.5-1.9677-3.696-7.281-4.554-10.2-7.8-2.3953-2.5815-5.4808-4.125-7.2-7.5-3.7664-1.254-6.8519 2.175-9.9 3-1.4086 1.404-3.2942 2.4315-3.9 4.2-0.079681 0.97499 1.9781 1.6605 0.9 2.4-1.6652 0.1185-2.8652-0.7395-2.7-2.4 1.7203-6.054 8.2348-7.7685 13.5-9.9 0.5625-0.954-0.6375-1.9815-1.2-2.4l-8.4 2.1c2.1058-2.025 5.1914-2.5395 7.8-3.6l-3.3-6.9c-2.3942-1.6395-5.4797-2.6685-7.2-5.1 2.0637-1.1685 4.1203 1.746 6.6 2.4-1.4508-2.5395-5.5652-4.9395-8.4-6.6l-7.5-5.7c0.56485-0.1815 0.050392-1.0395 0.60001-0.9l14.4 9c-1.7508-3.654 4.0769-6.7395 0-10.2-4.3219-3.396-7.2363-8.8815-6.3-15 1.4637-0.054001 2.6637 2.175 3.6 3.3-2.8219 0.9315-0.079681 3.846 0 5.7l3.9 4.8 7.5-0.60001c-3.2519-5.196-7.8797-12.054-7.2-19.8-0.85077-0.48149 0.005852-1.1685 0-1.5 2.4059-1.2105 3.2625 2.3895 5.7 2.7l0.89999 2.4c3.3481-2.3685 7.119-3.9105 10.8-5.4-0.9387-2.1105-2.9952-4.6815-5.4-5.1-0.33749-0.78149-0.33749-1.8105 0.9-1.5 3.5613 0.375 4.7613 5.5185 7.8 6 8.2746-7.1685 18.217-13.681 28.2-16.5"/>
 <path d="m185.17 81.475c-1.7577 0.504-3.8157 1.3605-5.1 2.7 0.2565 3.804 4.0278-0.48149 5.1 3 9.5556-0.91049 19.669-2.9685 29.4 0-2.5323 1.6605-6.8169 2.346-9.3 4.8 0.2544 0.63149 0.4254 1.3185 0.90001 1.2 8.4399-4.3395 18.895-5.8815 27.9-7.5l2.1 0.3-0.90001 1.2c-6.7758 1.6605-12.605 4.746-18.9 7.2-0.56131 1.146 0.4677 1.8315 0.89999 2.4l6.3-2.7c-0.3903 1.9605 0.981 3.504 2.4 3.6 1.152 4.5315 9.0375 4.1895 6.6 10.2h-0.60001c-0.047989 3.075-0.73349 6.504-2.4 9-1.419 0.9315-5.5323 0.7605-3.9 3.9-0.26131-0.054001-0.43231-0.054001-0.3 0-1.6758-3.4815 2.2665-6.225 1.2-10.5-0.819-0.52501-0.819-2.754-2.1-1.5l-0.59999 0.89999c2.0532 0.246 0.681 2.8185 0.59999 4.2-1.8048-1.554-2.6613-3.954-2.7-6.3-3.7323-2.1105-2.0181-8.2815-6.6-9-1.5891-1.6815-3.4746-3.9105-6-4.5-2.4456 0.9315-1.2456 2.9895-3.9 1.5-2.1456-0.5685-3.1746 1.4895-4.2 2.7v1.2c-3.0879-2.0685-6.1734-5.496-10.2-6-0.6012 0.504-1.1157 1.0185-1.2 1.8-5.5722-1.6395-11.401-4.725-17.7-6-1.4145 0.41851-0.90001 1.9605-0.60001 2.7 3.3 3.0315 8.6133 4.746 12 7.2-12.129-0.225-25.842-2.9685-36.9 1.8-0.42659-0.654 1.4589-2.8815-0.89999-3-2.4411 0.63149-4.1556 3.204-6.6 3.6 0.044388-1.425 2.4444-1.0815 1.5-3.3l-0.3-0.3c-4.5831 4.0605-10.583 9.8895-14.4 13.8 0.73141-2.5395 3.9891-4.596 3.3-7.5-2.7399 3.075-5.6544 8.3895-8.7 10.5 2.1891-6.396 3.7323-14.11 10.2-17.4-0.98309-1.5105-2.5254-0.1395-3.6 0.3-5.4387 3.675-5.2677 9.1605-9 14.4-1.0677 2.304-1.0677 5.7315-1.2 8.4-0.3819 2.1315-3.9819 2.646-3 4.8l3.9-3.3c3.1746 7.6605 10.889 10.575 18.3 11.4 5.2734 1.575 9.7302 5.004 15.3 5.1l0.29999-0.90001-12.3-5.4c5.2302-1.1685 10.372 1.9185 15.9 1.5-0.21329 1.275 1.1577 2.304 2.1 2.7 4.7145 0.6315 9.3435-2.625 12.6-3l-10.5 5.4c-0.6423 0.46051-0.47101 1.6605-0.3 2.4 6.6855-0.7395 12.857-5.5395 19.8-7.2l8.7-2.1c1.1556 2.046 3.7266 1.1895 5.7 0.60001 2.6556 0.58949 5.0544 2.1315 7.5 3-0.045609 0.504 0.1266 2.5605 1.8 2.7 0.3831-0.1395 1.0689-0.3105 1.5 0-2.8311 3.2895-8.1444 2.775-12.3 3-1.1589-1.596-2.5302-0.054001-4.2-0.60001l-19.2 3c6.9855-2.454 17.27-6.225 26.1-8.7 0.59761-0.4395 0.76891-0.954 0.3-1.5-13.758 2.946-26.785 7.575-39.6 13.2-6.3843-1.1685-12.727-3.225-19.2-3l0.89999 0.90001c7.8024 0.4185 13.459 3.504 20.7 4.5-1.071 0.8895 0.30119 1.575 0.3 2.4 5.1435 0.546 10.629-0.1395 15.9-0.29999l0.3-0.60001-1.2-1.2h-10.2c2.229-0.6105 3.9435-0.4395 6-1.5l-0.59999-1.2c3.171-1.5105 6.2565-0.3105 9.6-0.89999 8.3133 0.074997 16.027-2.325 24.3-2.4 1.6689-0.95401 4.7544-1.125 4.8-3.9v-1.2c4.7544-0.3105 9.5532-0.1395 14.7 0 1.0242-0.48151 0.68192-2.025 0.3-2.4-0.9903-1.1685-2.7036-0.48149-4.2-0.59999 3.5532-1.425 8.0097 0.2895 10.8-2.4-0.3903-3.1395-4.1613-1.7685-6-3.3 3.0387-0.69601 6.6387-0.010498 9.6-0.60001 1.6665-0.78149 0.63751-2.154 0-2.7-1.248-0.825-3.819-0.3105-4.2-1.2 2.4375-1.3395 6.2085-0.825 7.2-3.9-0.477-1.554-0.99149-2.754-3-3 2.0085-3.1815 3.723-6.954 3.3-10.8 0.9375 0.93149 2.823-0.43951 3.6-1.5 2.994-3.5685 5.5653-7.3395 9-10.8 0.67979 5.5185-3.2637 9.6315-6.6 12.6 0.079803 0.975 0.25201 1.6605 0.90001 2.1 0.72299-0.096001 1.2375-1.125 1.8-0.89999-0.3915 1.4895 0.8085 2.346 1.2 3h0.89999c-0.091492 0.8895-1.806 1.0605-0.89999 2.1-2.9625 2.3895-7.4202 5.8185-9.6 9.3 1.494 2.6895 1.494-1.596 3.3-1.2 1.9653-2.625 5.5653-3.3105 8.1-6-2.0202 3.0315-3.3915 5.775-2.4 9.3 1.4085-2.6685 1.7508-6.6105 4.8-8.4-1.506 3.846-3.2202 7.7895-3.3 12.3-1.1202 0.46051-0.77701 1.4895-1.2 2.1 0.42299 0.41849 1.2798 0.7605 1.5 0.29999 0.4653-0.91049 1.1508-1.254 2.1-1.5 1.4508-1.9815 2.6508-3.8685 4.8-5.1 0.25081 0.375 1.2786 0.7185 2.1 0.3l-9 8.7c0.8085 0.97501 0.8085 2.8605 0 4.2-3.8202 3.975-10.334 6.204-12.6 12.3l0.60001 0.29999c2.694-3.1395 6.294-4.854 9.3-7.8l0.29999 5.7c-2.6202 3.075-6.3915 4.9605-9.3 7.2 2.394 2.7315 4.623-2.0685 7.5-2.1-3.5625 5.175-11.79 7.746-18.6 10.5-2.4468-2.4105-4.3323 2.7327-5.1-1.8-4.3746-1.125-2.3181 7.275-7.5 6-0.30359-1.296-1.5036-1.4673-2.4-2.1-1.3311 2.004-3.5601 1.4895-5.4 1.2-2.2734 1.8315-5.1879 2.6895-7.5 4.5 0.25562-3.8685-4.0302-1.9815-6.3-1.5-2.3589 2.775-9.0435-2.7105-8.1 3-2.1435 1.146-2.6577-1.9395-5.1-1.2 0.55652-0.73949 0.38551-1.425 0-2.1-2.1867-0.696-3.5577 1.1895-5.1 1.8-0.171-0.6105 0.6855-1.296-0.3-2.1-1.2435 0.28949-2.6145 1.3185-3.6 0.3 4.7565-6.696 16.928-5.6685 22.2-13.5l-0.90001-0.59999c-6.9444 5.8605-15.686 7.404-23.7 11.1-3.8133 0.074997-7.4133 3.1605-11.1 3.9 4.7145-6.225 12.429-9.825 19.5-12.3 8.5278-2.154 17.612-2.496 25.8-6 1.7544-0.78149 3.6399-2.8395 3.9-4.5l-0.89999-0.89999c-5.0169 5.646-11.188 5.304-18 7.2-12.215 2.046-24.899 6.1605-33 15.3l-6-1.5v-0.3c5.0157-2.8815 13.072-2.8815 14.7-9.3-0.08548-0.954-0.2565-2.496-1.2-2.7-0.085495 2.946-2.4843 5.5185-5.1 6.6-5.2698 0.63152-10.756 7.146-15.9 2.1l-5.4-2.1 4.2-4.8c-2.7399 0.4605-5.4831 4.2315-8.7 2.4l-0.6-1.5c4.5024-2.154 9.6456-2.8395 13.5-6l-0.89999-0.3-13.8 4.5c-3.3819-1.896-1.3254-7.725-6-8.4-0.2964 2.3895-4.4097 2.5605-2.1 5.4-0.7677 0.58949-0.7677 1.6185-0.90001 2.4-5.6952-3.1815-10.839-7.6395-15-12.6 3.3048-0.354 6.3903 0.675 9.6 0.89999 0.9048-0.5685 0.3903-1.596-0.3-2.1-3.5952-0.696-7.0231-1.896-11.1-1.5l-0.9-1.5c4.4625-1.4685 10.119-0.26849 14.1 0.60001 1.3323-0.696 0.6468-1.3815 0-2.1-4.6665-0.3105-9.8098-2.025-15-0.89999-1.3231-0.26851-0.6375-1.9815-1.2-2.7 0.73359-3.7395 6.7336 0.204 7.8-3.3-2.6098-2.6685-9.1231-1.6395-10.2-6.9-0.46523-2.454-1.3231-4.3395-0.6-6.6 1.6769 0.204 1.8481 2.775 4.2 1.8 1.0769-2.2815-3.3797-3.4815-4.5-5.1l6.9-0.9c1.5902 0.975 3.1336 4.404 5.4 3 0.1335-1.6815-2.0953-2.5395-2.7-3.9 0.60468-0.01049 1.2902-1.0395 0.89999-1.8-3.5519 0.58952-4.4086-3.525-6-5.1-0.46641-2.8815-2.5231-4.7685-2.4-7.8 0.73359 1.8315 0.90585 4.0605 3 5.1 1.1625-0.354 2.0192 0.846 3.3 0.3 2.8336-2.7105 6.0903-5.454 10.5-5.4l1.2 1.2c3.4758-4.6815 12.046-4.1685 16.8-3.9h0.3c-2.8254-3.0105-7.4544-1.296-11.4-1.5 4.4601-3.7395 10.46-6.4815 16.5-6 0.3024 0.375-0.21211 0.375-0.3 0.6 2.1456 2.6895 4.2024-0.7395 6.3-0.3 4.0734-0.954 6.3012 3.504 9.9 0l1.5 0.9 15.9-6c4.5423 1.2315 9.5133-1.1685 14.1-1.8l1.8 0.3" fill="#844409"/>
 <path d="m120.68 89.875c-4.1097 1.704-7.5387 7.5315-12.3 6.6 0.6468-1.6395 2.5335-2.154 3.3-3.3l1.5 0.6c-0.7242-3.7395 4.9323-2.8815 7.5-3.9" fill="#7f3f00"/>
 <path d="m234.97 105.78c-0.6048-3.954-5.2335-5.325-8.1-8.1 3.552-1.5105 7.8375-2.025 10.8-4.2l8.1 0.6-10.8 11.7" fill="#7f3f00"/>
 <path d="m108.38 93.175c-2.781 2.346-3.2952 6.1185-7.5 6-0.42306-0.396-1.2809-1.0815-0.9-2.1 2.3625-1.554 5.1048-3.4395 8.4-3.9" fill="#7f3f00"/>
 <path d="m184.27 96.775l1.5 1.2-8.1-3.9c2.1843 0.71851 4.4133 1.575 6.6 2.7" fill="#7f3f00"/>
 <path d="m214.88 103.68c-1.9323-1.854-4.8456-3.225-5.1-5.7 2.3109 1.275 4.1964 3.3315 5.1 5.7" fill="#7f3f00"/>
 <path d="m207.07 100.98c-0.6456-0.86851-2.5311-0.86851-2.4-1.8 0.89639 0.58951 2.4399 0.58951 2.4 1.8" fill="#7f3f00"/>
 <path d="m142.57 106.38v-0.3 0.3z" fill="#ff9f40"/>
 <path d="m141.07 107.58c-0.29759 0.76049-1.3266 0.246-1.8 0.6 0.30238-0.52499 1.1589-0.696 1.8-0.6" fill="#7f3f00"/>
 <path d="m137.77 109.08c-4.7121 3.7185-9.1686 7.6605-12.9 12.6-1.0677-1.3395 0.3036-2.8815 0.89999-3.9 3.8601-3.2685 7.2879-7.0395 12-8.7" fill="#7f3f00"/>
 <path d="m123.38 115.08c-0.2544-0.91049 0.6036-1.7685 1.2-1.8 0.089104 0.71851-0.9399 1.0605-1.2 1.8" fill="#7f3f00"/>
 <path d="m120.08 121.98c-1.4109-1.125-0.21091-3.0105 0.6-4.2 2.1036 1.704-1.4964 2.3895-0.6 4.2" fill="#7f3f00"/>
 <path d="m230.77 121.08c-1.2048 0.63149-2.4048 1.3185-3.9 1.2 0.2952-2.1105 2.352-0.73951 3.9-1.2" fill="#7f3f00"/>
 <path d="m122.47 123.18c2.0181 2.8185 4.2456 5.3895 7.2 7.5-3.9819-1.254-7.9254-3.3105-9.6-7.8 0.8181 1.0605 1.6746 0.88951 2.4 0.3" fill="#7f3f00"/>
 <path d="m128.17 124.38c0.43141 0.075005 0.43141 0.58951 0 0.60001l-0.29999 0.6-1.5-1.8c0.5169 0.3315 1.0314 1.1895 1.8 0.6" fill="#7f3f00"/>
 <path d="m220.27 125.88h0.3-0.3" fill="#ff9f40"/>
 <path d="m174.38 133.68c0.34228-0.825 2.3988-1.1685 2.1-3l4.5 0.89999-6.6 2.1" fill="#7f3f00"/>
 <path d="m220.57 132.18c-5.4036-0.696-10.204 4.104-15.3 1.5 5.2677 0.375 11.096-5.1105 15.3-1.5" fill="#7f3f00"/>
 <path d="m202.88 133.08l-1.8-0.90001 1.8 0.3v0.60001" fill="#7f3f00"/>
 <path d="m232.27 141.77c-6.1335 12.504-19.332 21.933-33.3 24-2.1444 0.16051-4.8879-0.52499-6-2.1-0.77341-0.1395-1.2879 0.546-2.1 0 14.183-2.5395 30.468-8.7105 35.1-24.6 0.1665-0.56851 0.681-0.56851 0.90001 0-0.9048 6.4605-5.3613 12.118-9.9 16.5 3.5097-1.296 6.7677-4.896 9.6-7.5 2.3097-3.5685 4.5375-7.1685 6-10.8 1.1085 0.71849 0.42299 3.1185-0.3 4.5"/>
 <path d="m163.28 147.48h-3.3l3-1.2c0.59999-0.054001 0.085495 0.804 0.3 1.2" fill="#7f3f00"/>
 <path d="m216.68 155.88h0.29999v-0.3h-0.29999v0.3z" fill="#ff9f40"/>
 <path d="m210.68 160.08c-4.7601 1.9185-9.3879 5.004-15 3.9 4.5831-0.6105 9.7254-2.325 15-3.9" fill="#7f3f00"/>
 <path d="m261.08 162.77c-4.2492 8.9895-14.364 14.819-21.9 21.6-1.7202 0.075012-3.777 1.446-5.4 0.3l-4.5 1.8c1.3242-4.425 0.80969-12.31 6.9-15.3 8.4798-3.354 16.365-5.4105 24.9-8.4" fill="#007f00"/>
 <path d="m132.38 170.57l-5.4-4.5 0.6-1.2 9 3.9-4.2 1.8" fill="#7f3f00"/>
 <path d="m149.77 173.88l-1.2 1.2c-4.3698-0.91051-8.9976-2.2815-12.9-3 4.4169-4.0815 8.7024 1.0605 13.2 1.2l0.89999 0.59999" fill="#7f3f00"/>
 <path d="m304.27 171.48c-5.2815 1.6605-6.4815 8.004-11.4 10.8-6.3948 3.7185-12.737 7.3185-19.8 9-3.9081-0.3105-8.0214-0.825-11.4-2.7 0.1206-4.9815 3.7206-9.954 7.2-13.5 11.263-5.025 23.605 0.11848 35.4-3.6" fill="#007f00"/>
 <path d="m154.28 175.08c-0.64232 0.4605-1.4988 1.146-2.4 1.2 0.044403-0.7395 1.5867-1.254 2.4-1.2" fill="#7f3f00"/>
 <path d="m198.98 179.28l-6.9-0.90001c2.0121-3.1815 4.5831 0.58951 6.9 0.90001" fill="#7f3f00"/>
 <path d="m165.38 184.38c2.4855-2.496 4.371-7.4685 8.7-6.9l-8.7 6.9" fill="#7f3f00"/>
 <path d="m199.88 179.28h0.29999-0.29999" fill="#0f0"/>
 <path d="m218.18 189.18c-0.089111 0.58949-1.1181 0.58949-1.5 0.90001-0.6468-0.48151-0.3036-1.1673 0.29999-1.5l1.2 0.60001" fill="#007f00"/>
 <path d="m237.38 200.57l2.7-0.59999-1.8 2.1c-2.5335-1.3395-3.3915-4.254-6.6-4.2-2.448-1.425-3.9903-4.5105-6.9-5.4l-2.7-1.2c1.3242-0.99602 3.7242 0.8895 5.4 1.8 2.952 3.204 6.723 4.746 9.9 7.5" fill="#007f00"/>
 <path d="m202.88 196.38c0.29759 6.246-5.5311 11.561-8.1 16.8-1.5444 1.275-2.0589 2.475-3.3 3.6-8.3577-3.354-11.101 7.9605-18.9 4.5-6.771 1.2327-11.742-3.7395-17.7-3l-1.8-0.29999c6.0435-7.125 14.1-9.0105 19.8-16.5 9.0423-3.654 18.47-8.9673 29.4-5.7l0.60001 0.60001" fill="#007f00"/>
 <path d="m258.97 197.28l0.30002 0.29999-0.30002-0.29999" fill="#0f0"/>
 <path d="m272.17 205.07l0.90002 0.90001c-3.3936-0.78151-7.3359-2.6673-9.6-5.7 3.2919 0.97499 4.6641 4.746 8.7 4.8" fill="#007f00"/>
 <path d="m278.17 207.48c-1.6371 0.63269-2.6661-0.91051-4.5-0.90001l4.5 0.90001" fill="#007f00"/>
 <path d="m296.47 211.88c1.6617 2.5605 3.8895-0.1815 5.7 0.60001 3.846 0.58949 7.9605 1.6185 11.7 3 5.6883 2.2185 12.031 7.875 14.7 13.8 2.9871 5.046 7.1016 9.504 10.8 14.4-10.041 0.7605-20.155-0.954-29.1-5.1-8.8815-6.1395-14.196-15.396-16.2-25.2-0.56732-0.65399-0.9093-1.3395-1.5-0.89999-4.2093-2.154-9.1806-2.8395-13.8-4.2 5.9907 0.675 11.991 2.5605 17.7 3.6" fill="#007f00"/>
 <path d="m251.77 217.38c3.8508-0.010498 3.1641 3.9327 6 5.4 4.0206 8.304 4.7073 17.733 3.9 27.6-2.6214 5.7328-4.1637 11.904-8.1 17.1 0.50729 1.3183-1.0347 1.6606-0.89999 2.4-5.6202-9.6539-3.7347-20.282-8.1-30.3-0.9492-8.325 3.3363-14.839 5.7-21.9-0.82021-4.254-5.7915-6.1395-7.8-9.6 4.0653 1.9185 5.7798 6.204 9.3 9.3" fill="#007f00"/>
 <path d="m233.47 218.57c-2.7048 6.1605-1.3335 14.389-6.6 19.5-7.4181 6.8895-10.504 16.661-17.1 24-1.9746-1.6816-1.4601-4.9395-2.1-7.8-2.9601-9.4815-1.2456-19.767 4.2-28.8 4.3242-5.3673 8.9532-9.996 15-12.6l5.1-2.1c0.33751 2.475 1.7085 5.046 1.5 7.8" fill="#007f00"/>
 <path d="m189.67 219.18c2.5266 5.2185 5.2689 10.018 4.2 16.5-3.9012 5.346-4.0734 11.346-6.9 17.4-0.94441-3.6539-5.5722-7.0815-5.7-11.4-2.4435-6.654-3.129-15.74 2.4-21 1.8411-1.0815 3.8988-2.1105 6-1.5" fill="#007f00"/>
</svg>
