<?xml version="1.0" encoding="UTF-8"?>
<!DOCTYPE svg PUBLIC "-//W3C//DTD SVG 1.1//EN" "http://www.w3.org/Graphics/SVG/1.1/DTD/svg11.dtd">
<!-- Creator: CorelDRAW SE -->
<svg xmlns="http://www.w3.org/2000/svg" xml:space="preserve" width="264.69mm" height="222.91mm" version="1.1" style="shape-rendering:geometricPrecision; text-rendering:geometricPrecision; image-rendering:optimizeQuality; fill-rule:evenodd; clip-rule:evenodd"
viewBox="0 0 18586 15653"
 xmlns:xlink="http://www.w3.org/1999/xlink">
 <defs>
  <style type="text/css">
   <![CDATA[
    .fil5 {fill:#262626}
    .fil2 {fill:#966142}
    .fil1 {fill:#B37550}
    .fil3 {fill:#B88161}
    .fil0 {fill:#E0AA8B}
    .fil4 {fill:#EDA4AC}
   ]]>
  </style>
 </defs>
 <g id="Vrstva_x0020_1">
  <metadata id="CorelCorpID_0Corel-Layer"/>
  <g id="_520664816">
   <path class="fil0" d="M12615 13824c138,-4 424,71 759,111 335,40 720,45 1085,-37 365,-83 710,-253 1008,-418 298,-165 548,-325 835,-573 288,-247 613,-582 788,-868 175,-285 200,-520 228,-780 27,-260 57,-545 20,-863 -38,-317 -143,-668 -270,-1075 -128,-408 -278,-873 -473,-1338 -195,-466 -435,-931 -628,-1451 -192,-520 -337,-1096 -402,-1538 -65,-443 -50,-753 -38,-1176 13,-422 23,-958 110,-1435 88,-478 253,-898 400,-1238 148,-341 278,-601 401,-768 122,-168 237,-243 352,-285 115,-43 230,-53 320,-23 90,30 155,100 193,190 37,90 47,200 42,338 -5,137 -25,302 -95,530 -70,228 -190,518 -292,728 -103,210 -188,340 -275,635 -88,295 -178,755 -213,1233 -35,478 -15,973 53,1413 67,440 182,826 337,1296 155,470 350,1025 513,1483 163,458 293,818 428,1128 135,310 275,570 385,828 110,258 190,513 242,815 53,303 78,653 35,943 -42,290 -152,520 -357,821 -205,300 -505,670 -771,957 -265,288 -495,493 -792,706 -298,212 -663,433 -943,560 -280,128 -476,163 -726,243 -250,80 -555,205 -875,300 -320,95 -655,160 -925,187 -271,28 -476,18 -593,8 -118,-10 -148,-20 -148,-50 -1,-30 27,-80 54,-140 27,-60 53,-131 67,-204 14,-73 16,-149 21,-247 6,-98 13,-217 17,-313 3,-96 2,-168 1,-241 -1,-74 -1,-148 -5,-227 -4,-78 -12,-161 127,-165z"/>
   <path class="fil1" d="M4729 8161c-73,460 -128,1395 -156,2156 -27,760 -27,1345 -22,1956 5,610 15,1245 20,1588 5,343 5,393 -53,405 -57,13 -172,-12 -335,58 -162,70 -372,235 -540,390 -167,155 -293,300 -373,437 -80,138 -115,268 -120,338 -5,70 20,80 245,73 226,-8 651,-33 1086,-58 435,-25 880,-50 1283,-42 403,7 763,47 1040,75 278,27 473,42 778,35 305,-8 721,-38 1231,-83 510,-45 1115,-105 1631,-127 515,-23 940,-8 1218,2 277,10 407,15 492,10 85,-5 125,-20 173,-77 47,-58 102,-158 135,-456 32,-297 43,-793 -10,-1305 -53,-513 -168,-1043 -373,-1501 -205,-458 -500,-843 -825,-1138 -325,-295 -680,-500 -1051,-705 -370,-205 -755,-410 -1130,-633 -375,-223 -740,-463 -980,-700 -241,-238 -356,-473 -431,-645 -76,-171 -113,-279 -150,-347 -38,-67 -76,-94 -283,-90 -207,4 -582,39 -962,44 -380,5 -766,-20 -981,-40 -215,-20 -260,-35 -327,-50 -68,-15 -158,-30 -230,430z"/>
   <path class="fil2" d="M7356 7980c-218,46 -635,44 -1053,59 -418,15 -836,47 -1082,226 -246,179 -321,504 -393,666 -71,161 -138,158 -166,22 -27,-136 -15,-406 6,-628 22,-221 52,-394 108,-486 56,-93 139,-105 344,-95 205,10 533,42 878,64 345,21 708,31 979,18 271,-12 451,-47 533,-17 81,30 63,125 -154,171z"/>
   <path class="fil0" d="M8944 11754c-218,47 -480,119 -683,303 -203,184 -345,479 -329,753 16,274 191,526 276,610 85,84 81,-1 83,-173 2,-171 13,-429 194,-609 181,-180 534,-282 764,-412 230,-130 338,-288 360,-385 23,-98 -40,-136 -157,-144 -118,-9 -291,11 -508,57z"/>
   <path class="fil1" d="M8981 1820c-10,-130 143,-298 385,-517 243,-218 576,-489 904,-680 329,-191 654,-304 858,-374 204,-70 287,-97 355,-76 69,21 124,91 211,238 86,146 203,368 282,607 79,239 119,494 108,769 -12,276 -74,571 -162,873 -87,303 -200,613 -277,776 -78,162 -120,177 -204,113 -84,-63 -209,-206 -370,-345 -162,-139 -359,-274 -555,-401 -197,-128 -392,-248 -588,-358 -197,-110 -394,-210 -579,-306 -185,-96 -358,-189 -368,-319z"/>
   <path class="fil0" d="M9395 1976c104,-112 334,-302 560,-471 227,-168 449,-316 638,-422 189,-107 344,-172 450,-197 107,-25 164,-10 233,83 69,92 149,263 210,476 61,214 104,472 100,722 -4,250 -54,493 -106,695 -53,203 -108,365 -175,427 -68,61 -148,21 -317,-104 -169,-125 -426,-335 -630,-478 -204,-142 -354,-217 -515,-299 -162,-81 -334,-169 -432,-229 -97,-60 -120,-92 -16,-203z"/>
   <path class="fil3" d="M11393 1541c-30,197 -60,630 -127,862 -68,231 -173,261 -344,263 -171,3 -409,-22 -486,-7 -78,15 5,70 167,199 163,129 405,331 535,429 130,97 148,90 183,18 35,-71 87,-206 139,-367 51,-162 101,-349 119,-558 17,-209 2,-439 -19,-603 -21,-164 -49,-261 -78,-329 -29,-67 -59,-105 -89,93z"/>
   <path class="fil1" d="M3946 1909c-65,-142 -230,-389 -446,-638 -216,-249 -484,-499 -738,-685 -254,-187 -494,-309 -685,-387 -192,-77 -334,-110 -427,-97 -92,12 -135,70 -186,241 -51,171 -111,456 -179,783 -67,326 -142,694 -144,1030 -1,337 72,642 114,858 43,217 55,344 85,390 30,47 78,12 179,-62 101,-74 256,-187 458,-318 201,-131 449,-281 733,-421 283,-140 604,-270 815,-349 211,-79 314,-106 383,-138 68,-31 103,-66 38,-207z"/>
   <path class="fil0" d="M3674 2072c-77,-89 -220,-239 -361,-366 -142,-128 -282,-233 -440,-322 -159,-89 -337,-161 -501,-207 -164,-47 -314,-67 -402,-56 -89,12 -117,54 -143,167 -26,112 -51,295 -67,494 -17,199 -24,414 -23,633 1,218 11,441 19,565 7,124 12,149 77,134 65,-15 190,-70 253,-102 62,-31 62,-38 231,-146 169,-108 507,-315 778,-440 271,-125 477,-168 573,-203 96,-35 84,-62 6,-151z"/>
   <path class="fil3" d="M3263 1725c-19,50 -13,170 -71,275 -58,105 -181,195 -330,301 -149,105 -324,227 -416,315 -93,88 -103,143 -45,144 58,0 185,-54 414,-152 228,-99 560,-243 726,-338 167,-95 168,-141 112,-226 -56,-84 -168,-207 -247,-278 -79,-71 -124,-91 -143,-41z"/>
   <path class="fil1" d="M12305 4541c-153,-240 -488,-655 -900,-1035 -413,-381 -903,-726 -1353,-1008 -451,-283 -861,-503 -1336,-668 -475,-165 -1016,-275 -1548,-313 -533,-37 -1058,-2 -1643,115 -586,118 -1231,318 -1751,515 -521,198 -916,393 -1271,588 -355,195 -670,390 -1043,688 -372,298 -803,698 -1048,918 -245,220 -305,260 -327,295 -23,35 -8,65 72,180 80,115 225,315 448,543 222,228 523,483 890,763 368,280 803,585 1203,828 400,242 766,422 1096,550 330,127 625,202 1175,252 550,50 1356,76 2006,38 650,-38 1146,-138 1618,-273 473,-135 923,-305 1278,-450 356,-145 616,-265 868,-423 253,-157 498,-352 756,-625 257,-272 527,-623 680,-820 153,-198 188,-243 220,-298 33,-55 63,-120 -90,-360z"/>
   <path class="fil0" d="M5860 1640c161,-56 516,-101 882,-121 367,-20 744,-15 934,15 190,30 193,85 148,171 -45,86 -138,204 -310,364 -173,160 -425,362 -606,566 -180,204 -287,409 -397,502 -110,92 -223,72 -298,-16 -75,-89 -112,-247 -182,-404 -70,-158 -173,-316 -222,-463 -49,-148 -44,-285 -59,-388 -15,-102 -50,-170 110,-226z"/>
   <path class="fil4" d="M5600 4450c122,-28 367,-40 603,-47 236,-7 462,-8 587,8 125,16 149,50 160,101 11,51 10,120 -9,240 -18,120 -55,292 -102,432 -46,141 -104,251 -189,353 -85,102 -198,196 -283,254 -86,58 -145,80 -186,85 -41,5 -65,-7 -113,-78 -47,-72 -118,-202 -225,-398 -107,-196 -250,-459 -316,-609 -66,-150 -56,-188 -52,-228 4,-41 3,-85 125,-113z"/>
   <g>
    <path class="fil5" d="M12412 15287l58 -87 49 140c-40,-8 -16,8 -60,-15 -41,-23 -23,-15 -47,-38zm1311 -127c38,152 9,27 -17,79 -17,-27 -18,-14 -31,-68 -5,-22 -3,-73 -3,-95 58,76 9,-86 51,84zm-506 -501c-5,-5 -13,-12 -15,-16 -3,-4 -11,-12 -14,-17 -5,-6 -18,-30 -22,-39 -18,-37 -16,-48 -31,-85 -26,-62 -44,-97 -71,-160 -43,-102 -90,-199 -113,-334 229,5 119,34 222,488 18,78 28,86 44,163zm-460 -475c103,339 196,1069 317,1131 42,-166 -176,-908 -213,-1120l9 -121c82,65 105,199 140,299 105,300 257,592 304,951 -299,50 -411,53 -700,16 -30,-289 -82,-664 -62,-951 20,29 8,7 35,58 4,8 15,32 19,41 117,284 13,684 205,767 54,-174 -130,-939 -54,-1071zm731 777c40,128 90,237 16,334 -142,-8 -75,52 -126,-87l-224 -1194c47,39 39,9 90,155l244 792zm-819 -564c-69,-83 -63,-112 -95,-227 -64,-229 -42,-213 14,-269l81 496zm2441 -616c15,-5 21,-41 97,31l171 266c-111,-164 -296,-195 -268,-297zm-1546 1217c-44,-94 -294,-920 -289,-1005l172 2c0,468 202,836 117,1003zm-60 -1006c148,-13 283,-46 419,3l129 42c564,39 805,-336 1088,-99l609 573c-330,201 -1467,651 -1915,704 -33,-170 -92,-448 -148,-634l-182 -589zm2302 486c-103,-251 -507,-575 -568,-771 159,25 643,545 751,693l-183 78zm275 -105c-68,-49 -10,2 -59,-49l-112 -148c-58,-77 -78,-113 -135,-180 -110,-130 -223,-234 -286,-389 182,30 605,510 693,673 -46,51 -58,52 -101,93zm273 -873c62,33 384,319 324,380 -61,60 -144,-97 -180,-147 -57,-81 -117,-136 -144,-233zm-1 631c-30,28 -49,38 -83,60 -127,-83 -215,-213 -323,-339 -93,-109 -232,-244 -266,-396 297,31 515,421 732,592 -32,67 -1,26 -60,83zm202 -174c-94,52 -103,40 -172,-51 -116,-154 -311,-352 -351,-495 179,68 399,394 523,546zm-729 -566c-1,-8 2,-11 4,-17 47,-13 101,-51 161,159 -58,-24 -61,-18 -120,-67 -54,-45 -20,-5 -42,-42l-3 -33zm363 28l-208 -151c82,-85 182,72 208,151zm884 -1273c108,35 82,41 157,106 34,30 42,30 64,52 36,37 24,27 53,78 -61,-24 -94,-35 -172,-73 -30,-14 -50,-21 -80,-34 -8,-4 -35,-16 -41,-19l-43 -27 62 -83zm737 674l-23 19c-154,243 -706,853 -969,962 -143,-66 -627,-542 -693,-646 88,-129 308,-263 431,-406l302 -330c280,-230 424,85 853,243l70 44c48,-41 27,1 38,-68l-628 -526c262,74 363,261 675,306 -25,-128 -304,-231 -399,-395 247,49 452,202 633,285 -27,139 -154,257 -290,512zm-588 -3383c196,-69 361,-162 575,-206 100,124 273,607 354,778 121,258 217,566 236,909 -178,-12 -775,-130 -873,-64 -15,29 -62,-16 35,66 98,82 552,206 769,303 -30,18 -5,12 -58,19 -138,19 -522,-147 -780,-131 51,110 124,129 245,181 120,53 198,84 286,173 -116,-29 -499,-181 -611,-121 75,109 363,255 504,348 29,19 60,39 83,59l51 50c4,5 14,26 17,20 3,-5 12,14 18,21l-765 -272c83,-275 138,-766 105,-1123 -14,-155 -85,-324 -105,-495 -23,-198 -88,-357 -86,-515zm983 2741c-140,-54 -232,-136 -369,-213 -77,-44 -106,-63 -181,-106l-154 -125c221,33 552,188 775,265l-71 179zm-221 -28c-115,-25 -286,-110 -402,-160 -394,-171 -250,-51 -308,-256 115,24 635,308 710,416zm-12163 2935l48 256 -282 -3 -11 -282c-9,-197 -42,-345 -63,-545 -50,-476 -10,-1141 -21,-1616 -9,-383 59,-662 44,-1095 -6,-188 9,-386 13,-576 5,-207 30,-253 -85,-403l-27 -33c-26,41 -12,-2 -21,66 -16,109 -2,-53 -2,47 -1,262 -88,563 -154,806 -63,225 -245,669 -168,898 29,-69 22,-198 42,-299 25,-127 188,-694 281,-776 15,319 45,692 12,1005 -17,164 -1,360 -21,500 -74,509 -84,2009 59,2371 -315,41 -859,57 -1180,63 -267,5 -364,-33 -585,-51 -256,-22 -197,79 -337,109 -39,8 -121,2 -164,1 45,-220 352,-627 477,-763 343,-373 713,-325 738,-419 2,-10 9,-12 14,-17l119 67c51,-92 0,-38 107,-90 -93,-219 -18,-901 -30,-1324 -4,-151 18,-227 25,-350l-18 -228c7,-169 86,-211 32,-707 -53,-487 -51,-1984 17,-2551l36 -148c1,89 1,181 6,269 13,196 47,160 58,172 -15,-278 -17,-556 -3,-835l55 -756c191,-86 1000,84 1296,77 360,-9 1101,70 1325,-100 1,172 -102,531 85,565 71,-156 -52,-35 -22,-242 8,-61 7,-37 27,-68 248,609 142,352 548,807 662,743 1332,841 1991,1323 109,81 242,274 330,314l-61 -101 120 30c280,127 494,308 676,536 190,239 373,632 460,921 91,-176 -188,-557 -301,-842l203 193c54,78 103,136 153,222 531,918 828,1830 785,2969 -38,978 -156,884 -584,872 -234,-6 -473,-44 -695,-50 -189,-6 -428,63 -689,61 -471,-4 -922,57 -1388,95 -326,27 -1885,80 -2170,50 -115,-11 -245,6 -357,-18 -96,-22 -74,-71 -333,-45 -57,20 -33,27 -45,-31 -107,-31 -148,-57 -161,-143l-43 -14c-40,-363 147,-472 399,-584 170,-76 545,-156 755,-194 109,-49 870,-60 1038,-38 414,56 150,-51 433,4 147,28 299,39 357,-93 -116,12 -171,45 -323,11 -75,-17 -208,-72 -260,-119 -133,-119 -221,-283 -363,-385 -167,-121 -209,-63 -398,-354 -386,-596 -151,-1026 300,-1499 181,-190 705,-439 984,-500l-250 197c-50,51 -145,151 -109,231 107,-154 101,-189 269,-303 449,-302 655,-211 884,-222 123,-6 113,-52 224,23 73,48 50,75 178,80 -52,-477 -1090,-223 -1332,-155 -725,204 -1757,1147 -1378,1979 121,265 214,345 357,534l439 445c-974,5 -394,-82 -1444,117 -385,74 -887,295 -921,681zm12495 -3223c-112,-50 -565,-307 -661,-410 270,7 532,154 725,254l-64 156zm100 -304c-113,-25 -379,-173 -510,-238 -173,-84 -109,-56 -143,-101l506 102c16,2 63,10 75,13 60,17 36,11 71,34l1 190zm-6 -379c-143,-26 -224,-80 -349,-128l-89 -26c-133,-39 -186,-53 -240,-122 86,33 70,10 175,34l494 88 9 154zm-1250 -1914c29,-17 13,-17 63,-27l260 -4c-44,38 32,-6 -53,40 -7,5 -33,15 -42,19 -266,114 -195,100 -228,-28zm47 -193c-139,46 -79,11 -112,-9 41,-29 -8,-24 66,-26 160,-4 -63,-59 46,35zm-15 -154c69,-74 272,-119 380,-147 41,184 102,212 147,365l-448 18c41,-60 2,-31 81,-78 55,-31 140,-38 177,-154l-337 -4zm-209 -114c91,-80 18,-24 183,-65 240,-61 147,-13 185,13l-273 95c-162,-4 -48,-5 -95,-43zm-7 -137c66,-69 321,-155 377,-168 79,-19 78,5 119,7l22 111 -518 50zm-131 -238l398 -17c-67,98 -225,138 -339,164l-59 -147zm178 -112c38,-18 183,-80 229,-94 110,-34 125,-24 145,93 -126,5 -299,47 -374,1zm-73 -219c38,-55 1,-37 89,-87 3,-2 82,-36 100,-43 145,-62 118,-60 170,58 -87,72 -223,68 -359,72zm-339 -220c334,96 372,-73 497,6 -143,65 -298,110 -348,257 126,83 210,30 382,21 -6,6 -14,13 -19,17l-305 149c-70,-75 -197,-404 -207,-450zm581 -200c2,124 45,99 -115,117 -16,2 -96,11 -108,11 -60,4 -19,14 -68,-11l291 -117zm-784 -1957c2,-2 10,-57 119,-33 102,22 35,9 59,62 -18,10 -17,77 -178,-29zm146 2112c-54,-185 -161,-379 -245,-539 -200,-379 -273,-787 -404,-1153 -77,-216 -149,-356 -185,-610l587 68c-45,35 12,2 -68,36 -26,10 -42,14 -68,22 -56,19 -59,17 -98,37 61,118 165,102 320,134 -6,5 -16,10 -22,13l-167 57c-84,21 -65,15 -121,40 112,73 392,-33 530,-51l540 1694c-485,114 -244,170 -599,252zm-478 -2351c61,-57 -30,-33 128,-68l296 -37 30 158 -454 -53zm-391 -219l421 52c-97,70 -298,96 -412,119l-9 -171zm152 -201c-28,23 -71,64 -130,71 -72,7 -55,-8 -74,-82l204 11zm573 25c-130,-146 -576,-2 -752,-147 175,-43 557,-58 756,-30 50,86 57,245 67,355l-672 -62c6,-5 15,-10 20,-13 5,-2 14,-8 21,-11 6,-2 14,-6 21,-9 198,-67 444,31 539,-83zm-381 -342c94,-68 287,-89 384,-33 -43,113 17,48 -384,33zm-411 -211l432 60c-134,100 -222,9 -380,118 45,96 -22,9 174,145l-217 10 -9 -333zm-15 -346c130,63 226,67 358,112 -64,58 -252,105 -357,126l-1 -238zm228 -27c184,-21 401,-70 555,-87l7 476 -589 -62c132,-108 349,-70 427,-179 -73,-67 -83,-47 -201,-73l-178 -60c-4,-11 -15,-9 -21,-15zm-13978 -1081c-54,-361 -97,-601 -60,-993l130 -945c162,5 93,56 288,58 317,4 592,214 755,446l61 -111 95 73c196,149 404,312 533,511 -32,22 -4,8 -61,32 -3,1 -66,23 -66,24 -1073,352 -1493,833 -1675,905zm14262 -1121c-60,-33 -22,-13 -61,-53 305,-53 492,5 782,8l-70 185 -559 -110c-57,-14 -51,-8 -92,-30zm-526 2169c-46,-626 -12,-1303 168,-1884 146,-470 77,-607 343,-476 43,21 39,19 64,40 -122,13 -186,20 -263,81 25,83 13,60 90,103l140 70 -248 44c-5,207 44,117 261,164 145,32 185,73 375,41 -58,-94 -32,-68 -168,-95 -137,-27 -136,-10 -202,-81l556 41c-38,368 -331,787 -304,1605 -182,52 -626,42 -745,140 161,93 166,93 421,90 -74,63 -398,116 -488,117zm-9370 -2326c126,-72 462,-65 634,-56l-90 38c-130,26 -437,81 -544,18zm1431 80c-15,-169 -221,-4 -22,-158l171 -132c485,139 992,276 1420,519 108,60 214,99 322,168 98,63 194,120 307,180l589 363c613,386 522,415 832,638l252 212c289,187 742,794 865,1069 -25,56 -47,99 -88,148 -69,82 -54,28 -107,122 -164,295 -341,345 -430,491l-200 264c-284,282 -1139,486 -1228,584 165,-46 334,-96 490,-146 157,-51 325,-143 463,-167 -167,279 -864,607 -1228,793 -395,201 -665,401 -1032,475 -123,24 -240,73 -375,105 -152,35 -287,52 -435,88 -358,85 -1185,343 -1503,242l-82 -39c-177,-59 -420,4 -589,13 -353,19 -550,-99 -894,-89 -327,8 -594,74 -882,-9 -497,-145 -975,-366 -1405,-614 -115,-67 -199,-111 -304,-186 -309,-222 -570,-356 -870,-631 -299,-273 -657,-416 -1105,-911 -115,-126 -124,-183 -194,-298 -56,-91 -112,-70 -223,-264 195,-270 1255,-1276 1575,-1420l151 -80c213,-224 525,-355 815,-511 164,-88 472,-127 614,-249 142,-124 346,-147 509,-213 1,-1 62,-38 91,-53 244,-122 1876,-634 2201,-541l48 24c-273,111 -579,171 -848,307l-75 51c-3,-6 -13,10 -18,16l785 -268c5,5 11,13 14,16l355 218c15,6 39,25 43,17 4,-7 15,4 21,8l-336 69c-42,18 -62,99 -46,154l96 93c-67,91 -73,107 26,170l-79 113c51,49 110,63 179,82 -25,66 -39,141 -31,199 13,92 19,92 130,93l-40 -184c116,-23 94,6 154,-70l-98 -105c-3,-10 -14,-8 -19,-13 165,-13 184,29 254,-82 -83,-49 -204,-45 -304,-84l-61 -34c100,-43 228,-36 363,-18 142,18 247,66 336,-38 -79,-71 -252,-51 -372,-61 -134,-12 -255,-29 -372,-45l141 -65c48,-9 87,-5 135,-5 97,2 194,1 290,4 170,3 389,85 460,-61 -156,-51 -659,-21 -871,-18 73,-55 195,-45 287,-54 383,-40 788,43 840,-99 -120,-60 -389,-11 -544,-11 -141,0 -427,33 -532,-56 342,-8 935,28 1218,-26zm8269 -298c44,-210 18,-104 365,-74 -59,48 -55,47 -164,62 -75,11 -126,13 -201,12zm126 -300c113,-88 204,-2 209,-12 4,-7 13,8 19,12 -54,30 -93,44 -194,20 -5,-1 -15,-2 -18,-9 -3,-8 -11,-8 -16,-11zm1005 27c-116,-35 -549,-45 -702,-101 -93,-35 -42,-11 -90,-49 259,-15 641,-19 848,52 19,38 19,18 12,82 -11,89 -201,442 -236,541l-760 -139c-195,-64 149,61 -43,-18 -5,-2 -17,-1 -20,-10 -4,-10 -14,-7 -20,-12 232,-87 737,57 895,-56 -30,-30 -2,-13 -50,-36l-40 -16c-2,-1 -88,-16 -93,-17 -81,-11 -159,-13 -237,-29 -114,-24 -333,-66 -416,-105l114 -31c394,-42 776,139 838,-56zm-766 -384c78,84 115,79 230,113 -84,68 -180,49 -330,46 68,-169 53,-113 100,-159zm-6896 1162c104,-172 612,-550 826,-669 440,-245 339,-264 813,-319 183,-21 64,-114 43,-170 203,-2 174,0 236,190l104 472c30,92 -12,-6 30,54 100,139 88,104 91,386 6,654 -37,776 -265,1245 -123,-43 -341,-241 -464,-327l-446 -302c-295,-195 -684,-356 -968,-560zm7800 -1151c-126,-92 -481,-73 -609,-136 -67,-33 -18,-7 -63,-65l733 60c0,91 -3,89 -33,164 -15,37 -37,91 -53,123 -109,4 -229,-26 -324,-47 -82,-19 -234,-56 -295,-105 148,-1 221,8 359,31 46,8 123,26 171,23 93,-6 101,-37 114,-48zm-15838 2416c-97,-399 -228,-1288 -143,-1742 55,-291 131,-500 190,-763 63,-278 113,-445 247,-674 182,-3 482,78 603,206 74,78 -46,55 156,102 176,41 210,87 331,189 453,379 913,725 1238,1332 -37,30 17,-2 -56,38l-121 44c-324,-321 -369,-432 -845,-703 -684,-388 -276,-215 -832,-324 -218,-42 -129,-81 -245,-110 -271,571 -197,1630 -137,2223 -112,64 -234,151 -386,182zm15021 -2489c-1,0 -71,7 -72,7l-41 -20c60,-36 -16,-24 68,-22 158,5 -43,-43 45,35zm-7549 868l-72 -27c-803,-282 -1524,-234 -2449,-206 -184,5 -488,57 -598,48 -207,-18 -346,65 -530,110 -317,77 -909,311 -1062,330 -4,-7 -10,-26 -12,-22 -2,5 -9,-16 -12,-21l-65 -143c-113,-236 -187,-261 -330,-446 -419,-544 -1021,-924 -1641,-1209 -176,-81 -41,3 -129,-120 -430,0 -409,-107 -581,272 -105,232 -212,458 -249,725l-15 32 -48 256 16 86c21,-334 122,-592 266,-865 48,-90 69,-178 154,-241l-201 763c-32,145 -74,225 -101,390 -23,137 -34,270 -54,398 -66,472 62,1153 125,1586l-440 234 -25 41 -57 17c-34,26 -65,51 -116,103 -151,67 -188,123 -338,202 23,43 0,32 89,-27 87,-59 129,-104 214,-113 5,-6 11,-14 15,-18l106 -79 4 13 29 -32c102,-87 53,29 85,-55 4,-13 18,-9 26,-14 55,-62 301,-181 407,-207 -63,120 -213,196 -321,296 -117,109 -199,210 -312,321 -130,127 -570,491 -600,659 102,85 113,23 219,235 71,144 97,195 194,294 207,210 782,648 1065,834 157,103 577,489 815,626 423,243 329,262 908,533 355,165 1037,457 1405,528l-63 1589c-5,513 -74,1045 -61,1585 14,551 35,1072 39,1613 5,554 -20,1070 -32,1617 -534,73 -1009,487 -1239,920 -109,206 -248,391 -162,476 59,59 90,21 215,16l924 -45c373,-13 786,-38 1157,-66 1156,-86 602,157 1647,81 137,-10 146,10 264,34 201,41 1248,-47 1452,-74 627,-85 1679,-147 2337,-142l895 19c174,10 147,-9 229,89 145,-112 184,-100 518,-76 415,28 489,-27 835,-64 141,-15 109,-33 255,-64 186,-39 319,-98 495,-135 224,-46 672,-225 883,-322 134,-62 289,-111 426,-179 344,-171 567,-211 833,-404 370,-267 646,-443 978,-865 105,-133 182,-206 280,-324 88,-104 182,-250 270,-366 146,-190 309,-346 367,-552 56,-196 -9,-116 129,-183 -123,-251 91,-275 109,-284 -63,-181 -49,-210 -50,-433 -1,-378 -106,-941 -253,-1266l-473 -1055c-21,-46 -70,-136 -84,-180 -52,-165 -13,-64 35,-169 -270,-84 -115,-127 -182,-268 -19,-41 -70,-11 -88,-226 -14,-150 -48,-56 -99,-208 -24,-73 -9,-74 -20,-112 -14,-50 -69,-138 -100,-227 -29,-84 -55,-180 -78,-271 -107,-435 -431,-1192 -491,-1581 -29,-190 -167,-807 -151,-1008 9,-113 -32,-31 49,-102 -109,-88 -84,-47 -88,-240 -13,-561 87,-1048 158,-1581 99,-740 1041,-1956 660,-2596 -224,-377 -652,-114 -854,89 -249,250 -514,989 -695,1379 -47,102 -177,377 -210,480 -86,269 -215,938 -194,1188l110 -97 7 1367c0,54 5,187 -2,231 -29,166 -22,15 -78,140 179,105 91,148 177,573 40,195 111,392 177,567 138,370 242,740 400,1099l476 1023c64,188 122,239 139,400 16,138 -2,28 75,160 122,208 230,761 237,775 146,313 73,377 135,615 32,125 51,162 59,323 53,1053 -220,1525 -824,2185 -178,194 -640,619 -909,617 -18,162 -34,111 -187,190 -54,28 9,-1 -56,33 -62,32 -47,32 -110,36l-120 -14 5 97c-318,57 -265,134 -938,215l-852 28c-122,-17 -127,-43 -129,-162 -45,-30 -39,-28 -95,-42l-8 222 -168 -44c-81,-92 -86,-154 -157,-231l-83 105c-142,-92 -149,81 -220,-445 -17,-126 -7,-196 -39,-308 -200,-683 -175,-591 -487,-1239 -64,-134 -138,-323 -217,-443 -205,-309 -768,-758 -1108,-964 -155,-94 -283,-148 -427,-236 -680,-414 -1122,-583 -1720,-1018 -126,-92 -239,-241 -340,-354 -258,-290 -420,-429 -453,-949 784,-105 1021,-301 1144,-326 524,-102 631,-66 1159,-305l116 -86c5,-4 10,-11 15,-15 307,-271 1051,-568 1306,-938 67,-99 470,-320 904,-1055l225 -287c47,-158 -612,-875 -773,-1035 -21,-20 -42,-35 -59,-55 -77,-91 -26,-12 -68,-110 174,-176 375,-887 428,-1178 82,-452 124,-1041 -54,-1442 -67,-152 -154,-439 -259,-545 -187,-191 -32,-181 -302,-295 -62,-27 -46,-13 -143,-4 -369,33 -1063,279 -1174,449 94,-15 109,-64 322,-139l-814 513c-159,176 -126,246 -292,326 44,-118 57,-74 150,-203 -252,147 -140,153 -169,253 -106,128 -191,165 -282,286l-86 87 -30 27c-60,81 -54,15 -25,88 33,84 49,13 58,6 47,-36 26,-64 124,-139 135,-103 179,-135 288,-259 350,-398 967,-829 1488,-994 625,-198 597,-292 859,144 266,440 312,754 315,1309 1,311 -290,1249 -483,1574 -38,63 -13,27 -49,69 -56,-67 -46,-62 -131,-100 17,-211 164,-409 221,-643 95,-394 76,-1573 -290,-1850l-66 -49c-157,-121 -481,112 -609,183 -201,111 -310,211 -470,308 -584,350 -628,514 -873,677 -155,-84 -404,-150 -447,-296zm7586 -1203c86,24 302,88 353,148l-402 -9 49 -139zm881 120c-46,36 -28,57 -171,24 -67,-15 -101,-28 -161,-40l-233 -62c-40,-20 -31,-21 -54,-40l559 76c55,22 26,14 60,42zm-799 -195c82,-213 470,-418 663,-318 78,41 81,137 105,232 -152,-16 -437,-115 -544,-55 46,138 157,79 272,166l-496 -25z"/>
    <path class="fil5" d="M5552 4513c193,-3 231,-48 417,-21 160,24 286,5 450,17l-161 49c-209,44 -368,41 -402,154 92,58 249,-27 389,-28 -5,4 -13,10 -17,13l-52 36c-172,100 -365,94 -392,266 189,-8 277,-98 447,-121 -98,145 -115,48 -256,248 97,67 150,16 275,5 -83,187 -126,105 -131,225 116,19 20,33 106,-54 193,-195 285,-161 292,-291 -129,-15 -233,32 -340,53 111,-168 372,-126 394,-361 1,-9 3,-34 4,-43 6,-95 41,-13 -8,-98 -54,-95 6,20 -68,-53l389 -9c29,583 -327,1265 -742,1316 -158,-230 -635,-892 -594,-1303zm1370 -187c-289,19 -111,44 -650,49 -247,3 -440,12 -665,27 -155,10 -169,-5 -169,164 0,118 28,197 59,290 330,998 738,914 571,1463 -66,217 -156,296 -430,281 -325,-18 -453,-275 -456,-15 49,27 62,21 121,44 147,58 237,91 424,93 192,1 233,-50 347,-161l83 -74c151,96 301,226 538,277 127,28 227,3 320,-46 73,-39 93,-9 74,-94 -24,-108 -125,-11 -240,4 -64,8 -132,0 -194,-15 -572,-139 -429,-457 -424,-697 238,-63 520,-392 613,-629 108,-274 287,-697 78,-961z"/>
    <path class="fil5" d="M2470 4253c-200,-12 -685,-118 -847,-13 74,126 129,76 328,87 362,18 826,92 1192,138l1223 104c52,6 138,14 199,24 3,1 96,26 97,26 72,32 14,-7 71,47 -189,63 -467,158 -653,249 -392,192 -898,334 -1288,498 -208,86 -465,154 -640,245 78,139 269,5 622,-125 219,-80 461,-139 662,-232l1291 -511c-45,337 -1080,1510 -1133,1684 244,-16 526,-573 794,-907 126,-158 220,-327 337,-500 67,-100 76,-205 132,-299 78,-131 160,-66 167,-227l-1229 -200c-176,-8 -258,-2 -424,-34 -208,-39 -669,-40 -901,-54z"/>
    <path class="fil5" d="M7725 4884c-54,-50 -37,14 -80,-151 123,27 179,72 274,117 117,54 134,63 203,160 170,-19 686,331 813,440 97,83 244,203 364,269 122,67 250,198 390,88l-431 -305c-141,-88 -324,-187 -460,-290 -244,-186 -801,-499 -910,-586 145,-94 323,-119 511,-178l748 -261c40,-12 742,-164 631,-294 -44,-46 6,-26 -65,-25 -132,1 -1606,547 -1845,630 -186,66 -108,8 -257,28 -73,143 -3,74 -123,158 60,207 400,773 524,941 111,149 330,513 403,694 39,97 35,170 133,199 77,-103 -156,-535 -229,-657 -90,-151 -580,-749 -594,-977z"/>
    <path class="fil5" d="M7414 3051c-232,62 -372,123 -305,456 26,131 49,187 141,257 443,336 612,-273 613,-406 4,-273 -206,-371 -449,-307z"/>
    <path class="fil5" d="M4834 3010c-585,310 -262,866 205,725 114,-34 178,-76 236,-163 269,-407 -190,-695 -441,-562z"/>
    <path class="fil5" d="M6478 9198c104,-51 147,-166 207,-267l236 -309c-6,106 -154,754 -69,816 71,52 230,-335 284,-434 75,114 -54,292 58,489 169,-18 178,-199 317,-289 5,6 9,9 11,21l110 259c184,-1 314,26 444,30 -2,-100 -29,-108 -137,-124 -95,-13 -185,0 -285,-8 -17,-140 -25,-206 -85,-302 -192,12 -118,194 -336,291 1,-160 50,-397 -10,-533 -89,12 -45,-31 -176,192 -56,95 -68,164 -142,237 -11,-258 140,-671 85,-828 -160,32 -264,393 -409,491 13,-141 77,-270 138,-396 97,-199 164,-258 101,-366 -76,37 -15,-38 -76,95 -84,184 -320,805 -266,935z"/>
    <path class="fil5" d="M6186 15386c12,58 -12,51 45,31 91,-82 42,-39 157,-79 203,-70 298,-169 400,-203 187,-62 18,22 133,-19 6,-2 254,-156 266,-280 -166,30 -564,397 -807,435 50,-110 96,-136 196,-230 70,-67 119,-112 194,-178 100,-89 340,-254 366,-381 -271,78 -528,472 -810,549 84,-160 247,-211 362,-379l-87 15 -28 27 -26 30 -29 31 -29 28 -29 29 -31 27 -28 30 -29 28 -30 28 -29 28 -29 29 -28 28 -27 31 -31 28 -27 28 -31 31 -28 26 -25 31 10 61c157,-60 268,-160 385,-222l-85 100c-33,36 -50,52 -78,94 -56,85 -38,143 -133,168z"/>
    <path class="fil5" d="M2500 3266c321,-155 537,-350 1001,-522 89,-33 294,-101 365,-146l-27 -92c-176,36 -930,407 -1065,498 -103,70 -246,135 -274,262z"/>
    <path class="fil5" d="M3636 7088c81,88 64,140 202,198 205,86 797,296 992,197 -39,-116 -17,-64 -294,-101l-645 -165c-145,-42 -166,-113 -255,-129z"/>
    <path class="fil5" d="M9651 2084c83,-20 179,-139 256,-192 578,-396 911,-309 975,-493 -14,-10 29,-77 -171,1 -207,81 -1032,451 -1060,684z"/>
    <path class="fil5" d="M4111 9086c123,-39 81,-169 134,-515 21,-144 118,-438 37,-563 -129,27 -80,53 -88,217 -11,227 -145,698 -83,861z"/>
    <path class="fil5" d="M10798 15085c49,86 126,67 329,36 722,-112 927,149 993,-94 -89,-51 -1276,37 -1322,58z"/>
    <path class="fil5" d="M695 4555c-25,-47 -10,-19 -41,-45 -88,65 -17,183 14,308 27,114 26,267 71,349 88,-65 68,-124 76,-266l36 39c35,45 43,123 153,132 59,5 25,0 52,-14 -42,-62 -3,-10 -61,-47 -38,-25 -14,58 -43,-25l-100 -266c-71,11 -65,17 -112,52l-45 -217z"/>
    <path class="fil5" d="M2221 1463c57,172 299,53 611,525 58,86 90,174 185,214 60,-195 -662,-903 -796,-739z"/>
    <path class="fil5" d="M7941 7104c137,-103 334,-16 373,-199 -115,9 -503,121 -543,228 47,30 53,25 94,46l91 69c-127,145 -205,72 -269,173 85,28 280,-73 383,-173 -39,-107 -106,-109 -112,-130 -2,-9 -11,-9 -17,-14z"/>
    <path class="fil5" d="M7611 11530c-170,-107 -311,30 -337,-267 58,-69 34,-83 131,-122 121,-49 100,31 159,-90 -184,-93 -380,104 -384,263 -5,196 254,312 431,216z"/>
    <path class="fil5" d="M5732 12973c61,-77 28,-888 51,-1084 8,-65 23,-99 29,-175l-25 -179c-145,-44 -58,77 -53,236 9,319 -55,1039 -2,1202z"/>
    <path class="fil5" d="M11290 5260c116,60 661,-355 647,-535 -98,6 -96,58 -156,135 -225,289 -457,321 -491,400z"/>
    <path class="fil5" d="M8549 12253c45,-29 204,-240 399,-399 256,-209 321,-217 539,-209 -95,-317 -874,387 -938,608z"/>
    <path class="fil5" d="M3894 15018c71,-25 72,-56 145,-121 359,-321 481,-132 524,-302 -132,-64 -607,169 -669,423z"/>
    <path class="fil5" d="M4922 8939c20,-30 116,-727 54,-841 -93,70 -18,88 -67,401 -22,138 -42,343 13,440z"/>
    <path class="fil5" d="M10046 2088c67,-25 237,-147 318,-199 181,-114 307,-148 258,-235l-459 266c-79,54 -111,50 -117,168z"/>
    <path class="fil5" d="M11448 14665l547 2c-15,-117 -149,-92 -277,-91 -141,1 -266,-23 -270,89z"/>
    <path class="fil5" d="M10767 4249c24,-36 17,6 26,-58l6 -432c-9,-139 35,-51 -57,-103 -28,49 -63,501 25,593z"/>
    <path class="fil5" d="M8442 13846c25,13 410,108 522,14 -75,-29 -190,-33 -282,-57 -93,-25 -227,-86 -240,43z"/>
    <path class="fil5" d="M2368 1925l355 331c-5,-158 -207,-352 -313,-387 -16,23 -30,19 -42,56z"/>
    <path class="fil5" d="M2594 6507c77,76 326,269 469,275 -36,-76 -366,-260 -469,-275z"/>
    <path class="fil5" d="M11836 12609c-32,-144 -151,-412 -233,-484 -9,14 -64,-20 1,105l232 379z"/>
    <path class="fil5" d="M4730 10491l42 -394c-1,-148 3,-83 -56,-105 -57,116 8,360 14,499z"/>
    <path class="fil5" d="M2850 3291l209 -123c188,-100 178,-46 219,-151 -97,33 -152,72 -231,114 -116,62 -177,31 -197,160z"/>
    <path class="fil5" d="M11024 4158c-5,-142 -4,-291 -55,-400 -54,81 -39,338 55,400z"/>
    <path class="fil5" d="M8420 9985c28,66 207,119 295,143 -38,-82 -170,-221 -295,-143z"/>
    <path class="fil5" d="M5160 8447c-64,22 -58,93 -63,183 -3,58 -23,201 -2,228 41,50 73,-331 65,-411z"/>
    <path class="fil5" d="M11497 4990c87,-60 200,-145 206,-267 -69,19 -201,179 -206,267z"/>
    <path class="fil5" d="M2456 2370c-8,-54 -45,-142 -73,-190 -65,89 -141,187 73,190z"/>
    <path class="fil5" d="M8065 15172c-88,-53 -295,-87 -396,10l396 -10z"/>
    <path class="fil5" d="M4034 15140c94,-23 259,-131 302,-197 -134,14 -240,114 -302,197z"/>
    <path class="fil5" d="M10221 13443c100,42 162,-20 187,-104 -63,2 -45,-9 -106,16 -85,36 -59,32 -81,88z"/>
    <path class="fil5" d="M3458 6998c13,-104 -87,-134 -166,-96 5,5 -20,41 72,82 45,19 44,17 94,14z"/>
    <path class="fil5" d="M4016 8451c5,-102 31,-205 -49,-241 -43,83 -22,193 49,241z"/>
    <path class="fil5" d="M11836 14221l141 20c85,-1 71,11 137,-20 -23,-61 32,-64 -118,-42 -82,12 -106,17 -160,42z"/>
    <path class="fil5" d="M818 2167c7,-101 25,-338 -20,-406 -45,63 -5,319 20,406z"/>
    <path class="fil5" d="M5913 12598l24 -353c-95,65 -52,235 -24,353z"/>
    <path class="fil5" d="M1352 5549c-18,-62 -84,-163 -122,-218 -84,70 59,187 122,218z"/>
    <path class="fil5" d="M5006 11772c57,-55 114,-168 74,-246 -68,96 -48,104 -74,246z"/>
    <path class="fil5" d="M10421 2223c49,-44 79,-81 100,-148 -81,12 -157,61 -100,148z"/>
    <path class="fil5" d="M6186 5537c50,-37 104,-70 0,-125 -37,61 -47,58 0,125z"/>
    <path class="fil5" d="M10364 12750c62,-45 78,-11 28,-115 -7,5 -35,-2 -48,43 -34,115 4,50 20,72z"/>
    <path class="fil5" d="M4804 11364c77,-33 87,-46 116,-142 -64,45 -90,57 -116,142z"/>
    <path class="fil5" d="M11142 4134c18,-28 25,14 26,-58 1,-118 -16,-61 -26,-78 -37,63 -40,55 0,136z"/>
    <path class="fil5" d="M10277 12409l52 -91c-39,3 -41,-24 -65,18 -56,98 13,72 13,73z"/>
    <path class="fil5" d="M7150 15207l55 0c-24,-84 14,-37 -54,-74l-1 74z"/>
   </g>
  </g>
 </g>
</svg>
