<?xml version='1.0' encoding='utf-8'?>
<svg xmlns="http://www.w3.org/2000/svg" data-name="Layer 1" viewBox="0 0 3874 3492.8"> <defs> <style>.cls-1{fill:#0e2d37;}.cls-2{fill:#dfc7a9;}.cls-3{fill:#fefefe;}.cls-4{fill:#c4e8eb;}</style> </defs> <path class="cls-1" transform="translate(-313 -503.59)" d="m1521.7 1899.8c-154.4-21.73-262.66-103.74-341.24-229.08-103.52-165.09-102.54-333.23 3.33-492.77 88.18-132.88 184.23-267.27 308.3-365 392.78-309.37 856.82-431.88 1360.3-155.21 230.15 126.48 393.67 315.58 537.92 522.38 178.86 256.42 26 628.11-278.94 708.28-18 4.73-47.72-5.35-51.8 25.6-4.17 31.65 23.44 35.13 44.34 45.35 148.54 72.63 273 174.25 360.27 315.66 28.26 45.79 42.82 41.83 68.08 1.18 55-88.43 84.11-184.07 85.71-288 0.86-56.12-0.71-112.31 1.17-168.39s26.6-68.78 74.49-39.49c14.6 8.93 28 20.32 40.51 32.07 159.77 149.8 231.46 333.72 211.37 553.72 31.18-1.76 42-29.56 62.62-43.07 45.53-29.88 83.72-15 85.69 37.91 10.24 273.37-109.36 531.46-419.76 611.17-33.3 8.55-50.26 19.37-54.8 57.34-20 167.12-43.33 333.86-67.31 500.47-4.27 29.66-0.56 53.58 15.39 79.18 53.75 86.25 59.53 175.09 2 261.83-23.6 35.59-13.07 43 23.68 42.76 90.68-0.68 181.37 0.34 272.05-0.05 30.63-0.13 60 3.55 58.49 42.18-1.43 36.72-29 40.61-60.56 40.57q-1632.2-2.35-3264.5-3.58c-12.94 0-26 0.31-38.78-1.33-22.22-2.85-36.24-17-36.17-38.71 0.07-21.56 13-36.33 36.22-37.93 15-1 30.2-0.84 45.31-0.84q401.6 0 803.18-0.3c20.27 0 42.49 8.21 65.16-10.74-48.11-65.39-68-137.66-44.94-217.71 3.58-12.4 5.36-28.06 13.82-35.88 85.24-78.72 47.57-172.74 36.23-264.56-37.82-306-92.25-610.59-76.09-921.13 10.04-192.85 38.25-381.76 119.29-563.88zm1506.6 1929.2-0.24 2.15c33.5-5.24 33.89-32.78 37.13-57.09 10.46-78.64-30.75-132.17-90.07-174-104.11-73.41-262.21-71.46-372.86 2.26-95.32 63.51-110.61 157.43-41.09 252.41 28 28.8 64.9 40.46 102 48.67 63.28 14 94.23-7.33 116.3-74.92 6.68-16.73 3.63-33.38-0.12-50.12-5.55-24.79-5.63-49.45 25.27-55.21 34.67-6.46 50.32 15.9 55.22 46.75 3 18.8 3.52 38 5.15 57-3.94 24.88-29.67 57.26-13.9 71.31 23.56 21 61.82 11.78 92.34-0.08 25.15-9.78 55.81-11.78 70.22-40.69 7.99-7.91 28.4-9.39 14.65-28.44zm-1704.8-2120.8q0.42 6.4 6.78 7.28c34.83 44.18 84.46 65.4 135 83.29 89 31.53 162.92-5.32 193.22-95.43 8.14-24.23 15.12-50.34 15.11-75.59-0.15-264.78-1.82-529.57-3.08-794.35 6-11.75 12.65-26.39-1.21-34.08-17.75-9.86-33.15 4.33-46.34 14.47-167.42 128.63-300.64 289.76-405.61 469.63-77.82 133.35-13.06 346.34 107.06 425.86zm376.51 2119.3c1-16.88 0.4-34.07 3.45-50.58 9.79-52.95 41-64.09 89.85-33.07-16.29 53.88-25.28 108.54 28.93 145.91 43.89 30.26 91 19.22 133.92-7.38 104.18-64.66 109.47-177.76 12.88-261.39-114.25-98.86-297.24-98.89-408.7-0.93-72.83 64-91.54 175-9 233.91 15.12 27.46 45.4 29.51 69.81 41.09 27.86 13.21 63.24 23.59 86.12 7.06 26.51-19.16-10.13-48.38-7.26-74.62zm1850-1404.3c49.51 141.06 84.41 284.76 76.18 435.81-2.29 42 17.93 39.91 47.92 29.35 182.9-64.37 291.9-190.88 324.9-382.3 12.63-22.68 15.32-46.06 7.4-75.94-39.93 33.31-74.9 64.19-111.71 92.71-37.65 29.17-81.67 46.46-126.73 60.92-8.79-34.91 19.85-54.73 33.78-79.67 82-146.69 85-293.52 5.21-441.72-20.23-58.26-54.66-106.13-106.74-163 8.67 196.19-28.21 357.82-154.21 489.8-11.84 12.48-3.67 23.45 4.05 34.04zm-637.43-1577.2c-2.05 10.46-5.8 20.91-5.9 31.39-2.45 252-5.06 503.92-6.07 755.89-0.16 38.93 12.75 76.25 33.82 109.76 40.24 64 79.54 80.94 152.29 63 84.39-20.86 152.9-65.31 199.24-140.62 122.75-114.75 134.63-318.63 20.64-463.69-82.44-104.91-172-204.28-259.88-304.84-38.2-43.73-84.82-77.46-138.21-101.74-13.5 21.02-4.5 35.91 4.07 50.85zm216.67 1297.9c94.8 459.27-12.77 912.07-53.4 1378.8 99.5-55.22 193.4-47.7 288.55-36.33 33.75 4 69.8 37 96.05 18.47 29.7-21 16.95-68.4 22.35-103.91 30.66-201.62 71.35-402.45 58.35-608.3 5-281.66-173.14-619-439.8-731.46zm-313.6-1309.3c17-67.32-11.76-105.36-72.39-136.12-301.1-152.76-600.53-154.93-904.57-7.46-72.6 35.22-99.27 80.07-79.24 155.68-0.6 230.88-3.44 461.78-0.85 692.62 1.32 116.82-1.93 229.3-99.69 312.67-21.61 18.44-17.19 33-4.68 54.94 263 461.55 993.54 463.46 1265.3 3.12 10.64-18 19.35-30.26-1.26-49.12-84.73-77.55-104.26-177.65-103-288.29 2.85-245.99 0.56-492.03 0.37-738.04zm-1191 1192.1c-13.47-20.07-20.47-45.66-45.44-57.7-57.21 153.51-84.93 309.57-93.11 469.82-18.14 355.67 42.79 704.45 90.18 1054.4 6 44.45 27.14 14.45 43.23 7.5 136.25-33.39 268.25-30.77 396.5 53.32 0-144.29-0.39-281.52 0.46-418.74 0.11-18.24-9.89-43.72 8.92-53.62 22.08-11.63 37.42 14.43 55.85 23.58 16.65 8.27 27.13 21.46 23.43 41.55-6.06 32.84 16.31 40.71 40.62 45.88 96.09 20.43 192.38 22.15 288.79 1.92 16.89-3.54 38.13-5 35.19-28.75-7.58-61.19 43.19-71.82 79.28-95.53 18.12 157 0.7 315.36 11.88 479.07l65.87-40.69c118-36.13 236.21-40.15 357.51 1.36 15.85-122.54 30.39-242 46.91-361.26 37-267.09 75.45-533.85 43.47-804.82-14.64-124.07-45.06-243.83-83.52-366.93-9.21 8.29-14.41 11.48-17.62 16.06-237.11 338.3-649.67 405.11-974.42 298.55-152.62-50.06-266.97-151.8-373.98-265zm862.36 1886.4c-57.26-93.34-51-182.39-32.7-276.14 9.27-47.54 21.36-103.15-10-150.77a410.11 410.11 0 0 1-62-154.94c-5.46-30.74-14.95-45.61-48.95-43.24-66.74 4.64-133.62 4-199-13.54-23-6.2-31.06 2.78-31 25.27 0.53 118.56-8.24 238 3.72 355.37 8.08 79.22 19.34 153.27-22.52 225.12-11.64 20-9.18 32.77 16.81 32.8 124.7 0.16 249.38 0.07 385.64 0.07zm821-12.82c103.41 12.75 190.64-36 214.52-117.28 21-71.4-24-157.3-107-200.84-96.76-50.74-194.71-45.49-292.88-3-18 7.79-30.65 15.48-16 37.55 64.28 96.85 53 193.61-7 289.93 117 0.65 148.87-29.76 141.49-131.42-1.93-26.61 3.76-50.42 31.8-54.6 27.3-4.07 44.8 17 48.84 41.79 7.61 46.38 6.74 93.18-13.77 137.87z"/> <path class="cls-1" transform="translate(-313 -503.59)" d="m4121.9 3914.4c30.12-0.28 67.85-4.91 64.94 39.36-2.86 43.63-41 40.83-74 41-32 0.18-66.79-1.6-65.14-42.29 1.88-47.22 43.3-36.71 74.2-38.07z"/> <path class="cls-1" transform="translate(-313 -503.59)" d="m393.77 3953.4c-4.94 25.58-19.41 40.44-43.83 39.22-25.15-1.26-38.58-18.7-36.78-43 1.76-23.64 15.31-40.68 41.65-37.79 24.19 2.65 36.92 18.52 38.96 41.57z"/> <path class="cls-2" transform="translate(-313 -503.59)" d="m2548.5 3070.5c-36.09 23.71-86.86 34.34-79.28 95.53 2.94 23.73-18.3 25.21-35.19 28.75-96.41 20.23-192.7 18.51-288.79-1.92-24.31-5.17-46.68-13-40.62-45.88 3.7-20.09-6.78-33.28-23.43-41.55-18.43-9.15-33.77-35.21-55.85-23.58-18.81 9.9-8.81 35.38-8.92 53.62-0.85 137.22-0.46 274.45-0.46 418.74-128.25-84.09-260.25-86.71-396.5-53.34-7.34-61.94-14.1-123.94-22.11-185.78-41.16-318.05-82.87-636.33-47.51-957.8 12.36-112.34 21.81-226.69 74.76-330.45 107 113.22 221.39 214.94 374 265 324.75 106.56 737.31 39.75 974.42-298.55 3.21-4.58 8.41-7.77 17.62-16.06 38.46 123.1 68.88 242.86 83.52 366.93 32 271-6.45 537.73-43.47 804.82-16.52 119.22-31.06 238.72-46.91 361.26-121.3-41.51-239.5-37.49-357.5-1.36-0.64-159.72-0.78-319.44-2.3-479.15-0.34-35.53 7.78-64.06 28.81-95.2 43.91-65 73.13-139.48 60.89-219.48-9.57-62.63 5.58-139.49-67.88-176.64-33.81-17.1-49.51-33.11-34.86-72.77 6.95-18.78 4.51-44.62-19.72-56.24-22.59-10.83-42.52-3-57.54 15.46-18.81 23.1-45.11 33.25-71.57 41.87-153.77 50.13-301 43-434.6-57-29.51-22.1-53.42-14.38-74.3 5.57-18.82 18-20.56 41.54 0.09 63.23 10 10.5 24.82 18.13 26.41 38.28-54 3.68-101.35 31.3-114.33 80.23-29.25 110.21-28.79 221.45 33.61 324.29 41.57 68.52 79.31 96.29 151.77 110.62 3.9 0.77 7 4.91 10.79 7 144.79 78.28 289.93 67.9 433.47-1.82 42.09-20.54 55.27-9.2 53.48 33.37z"/> <path class="cls-2" transform="translate(-313 -503.59)" d="m2815.6 834.72c0.19 246 2.48 492.05-0.36 738-1.27 110.64 18.26 210.74 103 288.29 20.61 18.86 11.9 31.09 1.26 49.12-271.77 460.34-1002.3 458.43-1265.3-3.12-12.51-21.94-16.93-36.5 4.68-54.94 97.76-83.37 101-195.85 99.69-312.67-2.59-230.84 0.25-461.74 0.85-692.62 9.88-11.05 18.17-24.29 29.88-32.83 318.2-232.27 718.81-223.95 1026.3 20.77zm-523.07 1374.3c53.29 6 105-0.39 154.6-14 134.54-36.9 242.71-111.68 275.16-253.12 29.51-128.61-9.37-248.41-118.47-327.32-216.28-156.42-473.72-147.83-672.25 38-134 125.37-123.61 351 22.69 460.39 98.16 73.37 213.98 107.79 338.27 96.05zm-319.33-945.32c-79.25 0.48-132 53.41-130 130.44 1.8 69.9 64.3 133.64 131.3 133.91 73.65 0.29 135.13-61.61 134.69-135.6-0.5-77.39-55.23-129.23-135.99-128.75zm754.39 134.71c1-84.29-47-131.88-128.62-135.67-86.71-4-120.17 35.44-129 129.86-6.8 73 56.25 135.8 125.86 135.69 75.22-0.13 130.85-54.98 131.76-129.88z"/> <path class="cls-3" transform="translate(-313 -503.59)" d="m2548.5 3070.5c1.79-42.57-11.39-53.91-53.5-33.46-143.54 69.72-288.68 80.1-433.47 1.82-3.77-2-6.89-6.18-10.79-7-72.46-14.33-110.2-42.1-151.77-110.62-62.4-102.84-62.86-214.08-33.61-324.29 13-48.93 60.29-76.55 114.33-80.23-1.59-20.15-16.42-27.78-26.41-38.28-20.65-21.69-18.91-45.25-0.09-63.23 20.88-19.95 44.79-27.67 74.3-5.57 133.62 100.07 280.83 107.17 434.6 57 26.46-8.62 52.76-18.77 71.57-41.87 15-18.45 35-26.29 57.54-15.46 24.23 11.62 26.67 37.46 19.72 56.24-14.65 39.66 1.05 55.67 34.86 72.77 73.46 37.15 58.31 114 67.88 176.64 12.24 80-17 154.49-60.89 219.48-21 31.14-29.15 59.67-28.81 95.2 1.52 159.71 1.66 319.43 2.3 479.15l-65.88 40.69c-11.18-163.62 6.24-321.94-11.88-478.98z"/> <path class="cls-2" transform="translate(-313 -503.59)" d="m3541.1 2792.7c13 205.85-27.69 406.68-58.35 608.3-5.4 35.51 7.35 82.9-22.35 103.91-26.25 18.57-62.3-14.44-96.05-18.47-95.15-11.37-189-18.89-288.55 36.33 40.63-466.74 148.2-919.54 53.4-1378.8 58.88 11.65 97.11 55.73 134.64 95 139.12 145.56 220.12 321.42 254.92 518.95 2.77 15.7 4.31 29.92 22.34 34.78z"/> <path class="cls-2" transform="translate(-313 -503.59)" d="m3286 1665.4c-46.34 75.31-114.85 119.76-199.24 140.62-72.75 18-112.05 1-152.29-63-21.07-33.51-34-70.83-33.82-109.76 1-252 3.62-503.93 6.07-755.89 0.1-10.48 3.85-20.93 5.9-31.38 19.63-1.55 31.89 11.57 44.2 23.29 107.58 102.34 197 220.8 294.23 332.33 84.51 96.93 106.41 208.71 75.44 331.6-11.3 44.66-26.92 88.17-40.49 132.19z"/> <path class="cls-2" transform="translate(-313 -503.59)" d="m1670.5 833.44c1.26 264.78 2.93 529.57 3.08 794.35 0 25.25-7 51.36-15.11 75.59-30.3 90.11-104.17 127-193.22 95.43-50.51-17.89-100.14-39.11-135-83.29 5.92-10-1.64-7.54-6.79-7.28 0 0 0.9 1.08 0.92 1 5.16-26.44-11.75-44.47-24.11-64.41-91.07-146.94-83.54-302.15 24.46-437.36 80.33-100.57 162.34-199.92 246.77-297 27.1-31.14 49.65-72.64 99-77.03z"/> <path class="cls-2" transform="translate(-313 -503.59)" d="m3999 2506.1c-33 191.42-142.09 317.94-324.89 382.3-30 10.56-50.21 12.66-47.92-29.35 8.23-151.05-26.67-294.75-76.17-435.81 148.47-75.56 236.18-194.36 256.93-360.84 79.76 148.2 76.76 295-5.21 441.72-13.93 24.94-42.57 44.76-33.79 79.67-19.19 5.53-41.2 7.12-51.25 35.34 51.92 7.77 95.53 5.16 140.92-15.15 54.04-24.15 96.23-62.55 141.38-97.88z"/> <path class="cls-3" transform="translate(-313 -503.59)" d="M2865,3826.88c-1.63-19-2.17-38.2-5.15-57-4.9-30.85-20.55-53.21-55.22-46.75-30.9,5.76-30.82,30.42-25.27,55.21,3.75,16.74,6.8,33.39.12,50.12-52.8-.85-107.27,5.92-157.85-5.1-37.49-8.17-48.22,5.68-60.47,31.35-69.52-95-54.23-188.9,41.09-252.41,110.65-73.72,268.75-75.67,372.86-2.26,59.32,41.82,100.53,95.35,90.07,174-3.24,24.31-3.63,51.85-37.13,57.09-5.79-20.6,19.91-39.95-.24-64.77C2980.78,3805.08,2927,3828,2865,3826.88Z"/> <path class="cls-2" transform="translate(-313 -503.59)" d="m3308 3900.3c20.51-44.69 21.38-91.49 13.8-137.92-4-24.81-21.54-45.86-48.84-41.79-28 4.18-33.73 28-31.8 54.6 7.38 101.66-24.51 132.07-141.49 131.42 60-96.32 71.26-193.08 7-289.93-14.65-22.07-2-29.76 16-37.55 98.17-42.44 196.12-47.69 292.88 3 83 43.54 128 129.44 107 200.84-23.91 81.34-111.14 130.08-214.55 117.33z"/> <path class="cls-3" transform="translate(-313 -503.59)" d="m1624.6 2026.8c-53 103.76-62.4 218.11-74.76 330.45-35.36 321.47 6.35 639.75 47.51 957.8 8 61.84 14.77 123.84 22.11 185.78-16.09 7-37.21 37-43.23-7.48-47.39-350-108.32-698.76-90.18-1054.4 8.18-160.25 35.9-316.31 93.11-469.82 24.97 12.04 31.97 37.63 45.44 57.7z"/> <path class="cls-3" transform="translate(-313 -503.59)" d="m2815.6 834.72c-307.5-244.72-708.11-253.04-1026.3-20.72-11.71 8.54-20 21.78-29.88 32.83-20-75.61 6.64-120.46 79.24-155.68 304-147.47 603.47-145.3 904.57 7.46 60.63 30.75 89.38 68.79 72.39 136.11z"/> <path class="cls-3" transform="translate(-313 -503.59)" d="m1551.3 3854c-82.5-59-63.79-169.9 9-233.91 111.46-98 294.45-97.93 408.7 0.93-36.3 6-69.31 20.93-102 36.86-37.12 18.07-75.76 34.5-73.69 86-48.86-31-80.06-19.88-89.85 33.07-3 16.51-2.4 33.7-3.45 50.58-31.89 3-63.61 2.18-93.63-10.08-37.21-15.19-57.79-7.45-55.08 36.55z"/> <path class="cls-2" transform="translate(-313 -503.59)" d="m1793.3 3743.9c-2.07-51.5 36.57-67.93 73.69-86 32.73-15.93 65.74-30.9 102-36.86 96.59 83.63 91.3 196.73-12.88 261.39-42.87 26.6-90 37.64-133.92 7.38-54.2-37.37-45.2-92.03-28.89-145.91z"/> <path class="cls-3" transform="translate(-313 -503.59)" d="m3286 1665.4c13.62-44 29.24-87.53 40.49-132.15 31-122.89 9.07-234.67-75.44-331.6-97.22-111.53-186.65-230-294.23-332.33-12.31-11.72-24.57-24.84-44.2-23.29-8.57-15-17.58-29.84-4.07-50.9 53.39 24.28 100 58 138.21 101.74 87.87 100.56 177.44 199.93 259.88 304.84 113.94 145.06 102.06 348.94-20.64 463.69z"/> <path class="cls-3" transform="translate(-313 -503.59)" d="m3807 2062.4c-20.75 166.48-108.46 285.28-256.93 360.84-7.73-10.59-15.9-21.56-4-34 126-132 162.88-293.61 154.21-489.8 52.05 56.83 86.48 104.7 106.72 162.96z"/> <path class="cls-3" transform="translate(-313 -503.59)" d="m3541.1 2792.7c-18-4.86-19.57-19.08-22.34-34.78-34.8-197.53-115.8-373.39-254.92-518.93-37.53-39.28-75.76-83.36-134.64-95l-27.9-82.73c266.66 112.44 444.81 449.78 439.8 731.44z"/> <path class="cls-2" transform="translate(-313 -503.59)" d="m2865 3826.9c62.05 1.16 115.82-21.8 162.81-60.53 20.15 24.82-5.55 44.17 0.24 64.77 0 0 0.24-2.15 0.24-2.14-12.43 5.61-12.55 17.53-14.63 28.44-14.41 28.91-45.07 30.91-70.22 40.69-30.52 11.86-68.78 21.08-92.34 0.08-15.81-14.05 9.9-46.43 13.9-71.31z"/> <path class="cls-2" transform="translate(-313 -503.59)" d="m2561.1 3854.7c12.25-25.67 23-39.52 60.47-31.35 50.58 11 105 4.25 157.85 5.1-22.07 67.59-53 88.93-116.3 74.92-37.14-8.21-74.04-19.87-102.02-48.67z"/> <path class="cls-2" transform="translate(-313 -503.59)" d="m1551.3 3854c-2.71-44 17.87-51.75 55.08-36.55 30 12.26 61.74 13 93.63 10.08-2.88 26.24 33.76 55.47 7.22 74.62-22.88 16.53-58.26 6.15-86.12-7.06-24.41-11.57-54.69-13.62-69.81-41.09z"/> <path class="cls-3" transform="translate(-313 -503.59)" d="m3013.6 3857.4c2.08-10.91 2.2-22.83 14.63-28.44 13.75 19.07-6.66 20.55-14.63 28.44z"/> <path class="cls-4" transform="translate(-313 -503.59)" d="m1323.5 1708.2c5.15-0.26 12.71-2.76 6.79 7.28q-6.37-0.87-6.79-7.28z"/> <path class="cls-3" transform="translate(-313 -503.59)" d="m2292.6 2209c-124.29 11.74-240.11-22.68-338.27-96.1-146.3-109.42-156.67-335-22.69-460.39 198.53-185.78 456-194.37 672.25-38 109.1 78.91 148 198.71 118.47 327.32-32.45 141.44-140.62 216.22-275.16 253.12-49.61 13.66-101.31 20-154.6 14.05zm-6.41-648.83c-6.46 0-12.93 0.07-19.39 0-51.11-0.6-105.13 0.22-120.65 61.34-15.28 60.19 16.25 99.31 74.42 116 21.22 6.1 25 20.59 26 38.9 2.37 43.89-15.38 76.24-57 91.2s-76 2.73-99.76-35.84c-13.88-22.54-30-50-60-30.19-31.48 20.79-21.51 52.63-5.55 80.44 13.37 23.31 34.88 41.4 58.84 48.4 37.77 11 51.88 31.9 61.81 69.88 27 103.11 158.37 147 230.8 70.19 58.28-61.84 97.64-140.51 171-191.83 25.56-17.88 22.88-57.89-7.51-78.35-33.74-22.71-43.44 9.85-55.33 32-19.13 35.68-51.06 46.55-87.43 38.93-36.11-7.56-60.48-31-67.75-69.43-7.47-39.46 4.8-62.61 45-78.54 39.11-15.49 57.61-51.3 47.57-95.42-9.93-43.65-40.27-64.34-83.41-67.42-17.1-1.16-34.41-0.14-51.66-0.26z"/> <path class="cls-1" transform="translate(-313 -503.59)" d="m1973.2 1263.7c80.75-0.48 135.49 51.36 136 128.75 0.44 74-61 135.89-134.69 135.6-67-0.27-129.5-64-131.3-133.91-2.03-77.03 50.75-129.96 129.99-130.44zm-27.12 107.94c26.86-0.29 42.16-14.76 42.74-39.26 0.63-26.53-13.26-46.93-42.23-46.32-23.57 0.51-42.49 15.64-43.79 39.59-1.51 27.48 17.23 42.18 43.28 45.99z"/> <path class="cls-1" transform="translate(-313 -503.59)" d="m2727.6 1398.4c-0.91 74.9-56.54 129.75-131.73 129.88-69.61 0.11-132.66-62.7-125.86-135.69 8.8-94.42 42.26-133.88 129-129.86 81.58 3.79 129.62 51.38 128.59 135.67zm-118.05-68.61c-3.84-19.9-12.09-40.59-37.09-43.79-27.87-3.56-46.68 14.44-49.56 39.6-3.09 26.92 15.45 44.81 42.6 46.16 25.03 1.25 38.34-15.63 44.05-41.97z"/> <path class="cls-1" transform="translate(-313 -503.59)" d="m2286.2 1560.3c17.25 0.06 34.56-1 51.72 0.26 43.14 3.08 73.48 23.77 83.41 67.42 10 44.12-8.46 79.93-47.57 95.42-40.25 15.93-52.52 39.08-45 78.54 7.27 38.45 31.64 61.87 67.75 69.43 36.37 7.62 68.3-3.25 87.43-38.93 11.89-22.17 21.59-54.73 55.33-32 30.39 20.46 33.07 60.47 7.51 78.35-73.32 51.32-112.68 130-171 191.83-72.43 76.85-203.82 32.92-230.8-70.19-9.93-38-24-58.85-61.81-69.88-24-7-45.47-25.09-58.84-48.4-16-27.81-25.93-59.65 5.55-80.44 30-19.79 46.08 7.65 60 30.19 23.76 38.57 58 50.84 99.76 35.84s59.39-47.31 57-91.2c-1-18.31-4.81-32.8-26-38.9-58.17-16.74-89.7-55.86-74.42-116 15.52-61.12 69.54-61.94 120.65-61.34 6.4 0.01 12.87-0.06 19.33 0zm-4.58 398.66c-14.93-9.33-6.87-57-49.31-29-37 24.38-20.83 47.68-6.09 70.28 28.35 43.47 89.81 42.66 120.28-0.25 11.29-15.91 23-36.41 8.67-53.14-11.73-13.73-31.89-26.43-49.17-27.68-22.65-1.67-2.59 32.16-24.38 39.79z"/> <path class="cls-4" transform="translate(-313 -503.59)" d="m1946.1 1371.7c-26-3.81-44.79-18.51-43.28-46 1.3-24 20.22-39.08 43.79-39.59 29-0.61 42.86 19.79 42.23 46.32-0.58 24.51-15.86 38.98-42.74 39.27z"/> <path class="cls-4" transform="translate(-313 -503.59)" d="m2609.6 1329.8c-5.71 26.34-19 43.22-44 42-27.15-1.35-45.69-19.24-42.6-46.16 2.88-25.16 21.69-43.16 49.56-39.6 24.95 3.17 33.2 23.86 37.04 43.76z"/> <path class="cls-2" transform="translate(-313 -503.59)" d="m2281.6 1958.9c21.79-7.63 1.73-41.46 24.38-39.82 17.28 1.25 37.44 14 49.17 27.68 14.29 16.73 2.62 37.23-8.67 53.14-30.47 42.91-91.93 43.72-120.28 0.25-14.74-22.6-30.93-45.9 6.09-70.28 42.44-27.91 34.38 19.7 49.31 29.03z"/> </svg>