<?xml version='1.0' encoding='utf-8'?>
<svg xmlns="http://www.w3.org/2000/svg" enable-background="new 0 0 850.39 850.39" version="1.1" viewBox="0 0 850.39 850.39">
<path d="m579.68 224.25c23.438-10.604 25.265-15.882 33.239-19.496 2.201-0.998 9.312-1.242 9.597 1.157 0.771 6.473-4.687 25.942-9.064 33.406-17.328 29.552-43.302 18.029-43.302 18.029l1.976-16.383c-1e-3 1e-3 3.377-14.823 7.554-16.713z" fill="#FFC017"/>
<path d="m488.68 228.14c-21.445-14.208-22.408-19.709-29.704-24.548-2.015-1.335-8.993-2.712-9.658-0.389-1.794 6.267 0.489 26.357 3.619 34.424 12.392 31.937 39.872 24.706 39.872 24.706l0.663-16.489s-0.97-15.172-4.792-17.704z" fill="#FFC017"/>
<path d="m534.57 221.18c22.225 0.799 17.71-32.2 17.71-32.2l14.564 3.585s-0.877 42.266 1.502 46.198c9.109 15.059-78.55 18.846-70.324 3.287 4.818-9.113 0.784-51.3 0.784-51.3l12.362-2.106c1e-3 -1e-3 -1.098 31.655 23.402 32.536z" fill="#FFC017"/>
<path d="m346.33 457.06s-16.808 28.484-19.333 38c-2.473 9.318-9e-3 28.021-0.667 37.333-0.576 8.151-6.667 32-6.667 32l4.333 1.667s5.689-24.624 6.333-33c0.684-8.896-0.979-27.049 1.333-35.667 2.492-9.289 18-34 18-34l-3.332-6.333z" fill="#FFC017"/>
<path d="m431.45 491.61l-0.16 0.681-1.94 8.21v0.01l-1.42 6.04v0.01l-0.8 3.35v0.011l-2.35 9.979-0.43 1.83-0.66 2.811-3.71 15.729s-0.36 1.51-0.99 4.101c-1.42 5.789-4.21 16.97-7.47 28.579-1.59 5.69-3.3 11.48-5.01 16.79-2.01 6.271-4.02 11.87-5.86 15.86-6.5 14.08 0 62 0 62l4.38 23.83 0.28 1.51s-7.81 4.07-10.66 4.66c-3.7 0.78-15.09 0-15.09 0l1.11-2.37 2.64-5.63s-3.02-9.44-3.75-12.66c-0.67-2.93-1.51-9.41 0-12 7.75-13.34 7.75-60.67 7.75-60.67s-5.08-25.21-4-29.899c0.86-3.69 2.37-7.421 3.73-11.86 1.12-3.66 2.14-7.811 2.58-12.811 0.46-5.189 0.31-11.31-0.97-18.76-0.23-1.34-0.5-3.05-0.81-4.99-1.07-6.79-2.51-16.54-3.61-24.02-0.91-6.29-1.58-10.99-1.58-10.99l4.67-4.359 1.99-1.851 1.34-1.25 34.66-32.34 0.98 6.49 3.59 23.649 1.57 10.33z" fill="#FFC017"/>
<path d="m505.47 494.72c-0.01 1.52-0.149 3.26-0.42 5.17-0.479 3.54-1.37 7.67-2.52 12.12-1.601 6.2-3.721 13.03-5.98 19.74-1.1 3.3-2.24 6.569-3.38 9.72-2.57 7.18-5.09 13.76-7.05 18.729v0.011c-2.21 5.62-3.69 9.18-3.69 9.18s0.09 0.54 0.23 1.5c0.47 3.33 1.479 11.68 0.979 19.28v0.01c-0.17 2.74-0.55 5.37-1.21 7.65-0.02 0.079-0.05 0.17-0.08 0.26-1.09 3.78-3.35 12.229-4.369 16.04-0.32 1.189-0.511 1.93-0.511 1.93s-7.91 36.45-6.66 48.66c0.591 5.83 5.591 18.62 8.841 26.46 1.6 3.88 2.779 6.55 2.779 6.55s-6.62 5.83-12.96 5.66c-9.31-0.25-15.47-5.66-15.47-5.66s0-0.07-0.01-0.189c-0.09-1.46-0.641-10.881-0.181-14.15 0.71-5.17 5.931-20 5.931-20s9.06-38.86 5.729-51.33c-2.66-10 0-42 0-42l-1.56-15.97v-0.01l-1.98-20.141-1.38-14.12-0.3-3.1-0.47-1.91-5.778-23.42 3.1-4.97 8.16-13.061 3.05-4.89 6.011-9.61c0.01-0.02 0.02-0.029 0.04-0.05l6.54-10.49 4.34-6.96 2.899-4.64s1.87 4.61 4.38 11.33c0.99 2.66 2.091 5.649 3.2 8.82 1.74 4.92 3.54 10.279 5.101 15.479 0.18 0.57 0.35 1.14 0.51 1.71h0.01s0 0.01-0.01 0.01c0.02 0 0 0.021 0 0.021s0.01 0 0 0.01c0.83 2.8 1.57 5.5 2.2 8.08 1.199 4.971 1.949 9.362 1.939 12.541z" fill="#FFC017"/>
<path d="m543.13 322.98l-0.01 0.01c-0.36 0.34-9.16 8.67-18.96 19.98-2.54 2.93-5.15 6.06-7.69 9.3-2.38 3.02-4.7 6.14-6.85 9.28-2.13 3.09-4.101 6.21-5.82 9.29-2.069 3.71-3.72 8.68-5.02 14.24-0.681 2.89-1.271 5.94-1.78 9.05-1.33 8.17-2.12 16.79-2.58 24.11-0.2 3.2-0.34 6.15-0.439 8.709-0.221 5.721-0.221 9.5-0.221 9.761l-6.02-6.221-9.26-9.57-12.45-12.87s0.14-0.56 0.399-1.57c0.2-0.83 0.49-1.96 0.851-3.34 0.489-1.89 1.109-4.25 1.83-6.9 1.88-6.99 4.439-16.06 7.08-24.21 0.649-2.02 1.31-3.98 1.96-5.84 1.779-5.05 3.54-9.36 5.09-12.04 1.63-2.81 4.46-6.83 7.8-11.3 1.15-1.53 2.35-3.11 3.58-4.71 4.149-5.4 8.66-11.03 12.54-15.77-0.01-0.01-0.01-0.01 0.01-0.02 5.311-6.54 9.35-11.35 9.35-11.35l26.591 11.97h0.01l9e-3 0.011z" fill="#FFC017"/>
<path d="m501.48 471.52c-0.021 0.84-0.07 1.68-0.141 2.54 0 0 0 0.01-0.01 0.01v0.031c-0.07 1.08-0.18 2.18-0.33 3.29-0.31 2.36-0.81 4.64-1.45 6.82-0.939 3.18-2.189 6.17-3.649 8.949-1.82 3.431-3.94 6.551-6.181 9.341-0.01 0.02-0.029 0.05-0.05 0.069-0.27 0.33-0.54 0.66-0.81 0.98-0.03 0.04-0.061 0.07-0.091 0.1-4.779 5.7-9.93 9.95-13.55 12.58v0.01c-2.859 2.07-4.76 3.15-4.76 3.15s-0.5 0.03-1.39 0.07h-0.011c-1.67 0.08-4.699 0.22-8.51 0.359-3.62 0.13-7.939 0.271-12.45 0.36h-0.01c-6.25 0.12-12.85 0.15-18.43-0.03-1.74-0.06-3.38-0.14-4.88-0.25-1.83-0.13-3.45-0.3-4.78-0.51-24.89-4-26.53-17.33-26.53-17.33l-4.167-0.059-5.07-0.07-17.32-0.23h-0.01l-11.92-0.17-10.31-0.14s-2.14-13.5-2.86-24.85c-0.29-4.61-0.35-8.881 0.07-11.74v-0.01c0.03-0.261 0.07-0.5 0.12-0.73 2.12-10.9 8.27-19.25 14.9-25.35 6.18-5.7 12.77-9.44 16.91-11.46 2.57-1.261 4.19-1.86 4.19-1.86s35.01-7.11 39.92-7.33c0.57-0.03 1.18-0.08 1.83-0.15 5.52-0.64 13.91-3.01 22.16-5.68 11.49-3.73 22.68-8.03 25.37-9.09 0.399-0.15 0.609-0.23 0.609-0.23l2.32 3.04 9.29 12.12s-0.01 0 0 0.01l9.05 11.82 5.21 6.811v0.01s2.65 4.77 4.86 12.43c0.7 2.44 1.36 5.17 1.87 8.141h0.01c0.741 4.318 1.181 9.118 0.981 14.228z" fill="#FFC017"/>
<path d="m578.25 326.16c-1.04 3.29-2.58 6.38-4.36 9.21-7 11.11-17.859 18.28-17.859 18.28s0.13 12.69-18.78 12.69c-20.58 0-20.78-14.07-20.78-14.07s-13.42-2.5-21.85-14.13c-0.351-0.47-0.69-0.96-1.01-1.47-2.03-3.15-3.69-6.91-4.681-11.38-1.41-6.39-1.55-12.41-1.04-17.71 0.46-4.82 1.45-9.04 2.48-12.4 1.37-4.48 2.84-7.43 3.229-8.17v-0.01c0.07-0.12 0.101-0.18 0.101-0.18s-0.46-2.24-1.07-5.78c-0.61-3.55-1.37-8.41-1.95-13.64-0.05-0.44-0.1-0.89-0.149-1.33-0.16-1.57-0.311-3.16-0.431-4.75-0.06-0.73-0.109-1.46-0.159-2.19-0.171-2.9-0.25-5.75-0.19-8.42v-0.01c0.14-5.34 0.86-9.94 2.56-12.63 0.051-0.08 0.101-0.16 0.15-0.23 5.78-8.54 28.9-12.49 39.1-12.25 10.57 0.25 33.881 5.3 40.61 14.16 0.3 0.38 0.561 0.78 0.79 1.18 1.55 2.72 2.05 7.28 1.94 12.54-0.03 1.81-0.141 3.71-0.301 5.64-0.01 0.12-0.02 0.24-0.029 0.36-0.061 0.62-0.12 1.24-0.181 1.87-0.159 1.48-0.34 2.97-0.54 4.46-0.01 0.07-0.02 0.14-0.029 0.21-0.061 0.43-0.12 0.87-0.181 1.3-0.729 5.04-1.649 9.89-2.449 13.71-0.521 2.45-0.98 4.47-1.311 5.87-0.31 1.33-0.5 2.08-0.5 2.08s2.18 2.07 4.561 5.79c1.84 2.88 3.81 6.75 4.989 11.42 1.43 5.61 1.72 12.38-0.68 19.98z" fill="#FFE68B"/>
<path d="m519.89 307.17s-2.528-31.912-6.565-41.501c-3.491-8.292-21.398-28.439-21.398-28.439s7.216-15.072 40.547-15.346c33.335-0.273 41.351 15.567 41.351 15.567s-15.455 21.229-18.562 29.38c-3.529 9.263-6.54 39.125-6.54 39.125l-28.833 1.214z" fill="#FFC017"/>
<path d="m559.42 293.12s20.475 9.315 30.934-8.087c9.125-15.183-1.547-28.693-8.945-30.784-18.424-5.208-23.804 16.282-23.804 16.282l1.815 22.589z" fill="#FFE68B"/>
<path d="m490.68 295.21s-17.962-1.381-19.518-21.625c-1.587-20.65 19.464-23.011 19.464-23.011l12.147 25.471-12.093 19.165z" fill="#FFE68B"/>
<ellipse transform="matrix(.971 .239 -.239 .971 79.786 -109.71)" cx="492.25" cy="274.1" rx="18.387" ry="18.72" fill="#D08000" opacity=".1"/>
<ellipse transform="matrix(.971 .239 -.239 .971 58.703 -115)" cx="503.47" cy="184.52" rx="11.461" ry="10.333" fill="#D08000"/>
<ellipse transform="matrix(.971 .239 -.239 .971 60.242 -128.85)" cx="561.42" cy="183.98" rx="11.461" ry="10.333" fill="#D08000"/>
<path d="m393.47 502.06l-1.76 7.48-3.87 16.409-4.09 17.33-1.75 7.44s-1.14 4.85-2.96 12.03c-1.91 7.5-4.54 17.54-7.38 27.229-2.1 7.16-4.3 14.12-6.39 19.73-0.89 2.39-1.77 4.529-2.6 6.34-6.5 14.08 0 62 0 62l4.02 21.859 0.64 3.48s-7.81 4.07-10.66 4.66c-3.7 0.78-15.09 0-15.09 0l1.44-3.11 0.06-0.09 2.25-4.8s-3.02-9.44-3.75-12.66c-0.67-2.93-1.51-9.41 0-12 7.75-13.34 7.75-60.67 7.75-60.67s-4.71-24.36-4-29.9c0.17-1.34 0.44-2.649 0.78-3.949 1.25-4.971 3.4-9.931 4.66-16.471 0.8-4.12 1.25-8.87 0.89-14.64-0.15-2.57-0.47-5.351-0.99-8.37-0.34-2-0.79-4.81-1.28-8.02-1.98-12.801-4.72-31.98-4.72-31.98l4.24-3.95 20.99-19.59 4.36-4.07 13.07-12.189 2.65 17.479 0.67 4.41 0.38 2.5 2.44 16.083z" fill="#FFC017"/>
<path d="m343.08 704.85s8.871 0.575 11.752 0c3.149-0.629 11.86-4.935 11.86-4.935l14.64 16.808-7.167 0.834-7.068-4.5 4.735 7.833-17.834 0.667s-9.413 0-12.331-4.834c-3.179-5.265 1.413-11.873 1.413-11.873z" fill="#D08000"/>
<path d="m380.42 695.22s8.871 0.575 11.752 0c3.149-0.629 11.86-4.935 11.86-4.935l14.64 16.808-7.167 0.834-7.068-4.5 4.735 7.833-17.833 0.667s-9.413 0-12.331-4.834c-3.179-5.265 1.412-11.873 1.412-11.873z" fill="#D08000"/>
<path d="m459.51 722.8l-7.06-4.5 4.729 7.84-17.83 0.66s-9.42 0-12.33-4.83c-2.74-4.54 0.28-10.061 1.181-11.51 0.14-0.23 0.229-0.36 0.229-0.36s8.87 0.57 11.75 0c3.15-0.63 11.86-4.94 11.86-4.94l0.37 0.421v0.01l1.899 2.18 0.341 0.38c0.05 0.061 0.1 0.12 0.159 0.181l11.87 13.64-7.168 0.828z" fill="#D08000"/>
<path d="m486.33 707.92l-7.07-4.5 4.74 7.84-17.83 0.66s-7.74 0-11.36-3.59c-0.06-0.061-0.109-0.12-0.159-0.181l-0.341-0.38c-0.17-0.21-0.34-0.439-0.479-0.68-1.99-3.32-0.92-7.16 0.16-9.55 0.63-1.41 1.26-2.32 1.26-2.32s8.87 0.57 11.75 0c3.15-0.63 11.86-4.94 11.86-4.94l0.79 0.9 13.85 15.91-7.171 0.831z" fill="#D08000"/>
<path d="m326.96 574.11c1.576-8.415-0.409-15.847-4.435-16.601-4.025-0.754-8.566 5.455-10.143 13.869-1.576 8.415 4.435 16.602 4.435 16.602s8.567-5.456 10.143-13.87z" fill="#D08000"/>
<path d="m386.67 482.72s11 8.666 20 13c4.41 2.124 18.528 6.332 18.528 6.332l4.821 19.538s-12.437 1.717-27.929-5.385c-6.626-3.037-12.087-8.152-12.087-8.152s-2.273-20.32-3.333-25.333z" fill="#FFE68B"/>
<path d="m475.78 497.68l0.888 7.709-1.729 5.543s7.879-3.49 11.896-7.279c6.484-6.117 5.404-16.484 4.417-15.264-7.688 9.501-15.472 9.291-15.472 9.291z" fill="#FFE68B"/>
<ellipse transform="matrix(.9999 .0103 -.0103 .9999 3.3674 -5.5021)" cx="535.58" cy="324.01" rx="28.5" ry="20.75" fill="#FFE68B"/>
<ellipse transform="matrix(.9999 .0103 -.0103 .9999 3.3852 -5.5018)" cx="535.56" cy="325.73" rx="28.5" ry="21.174" fill="#D08000" opacity=".1"/>
<path d="m476.67 505.39c-0.1 2.03-0.34 4.23-0.689 6.57-0.221 1.38-0.471 2.8-0.761 4.27v0.01c-2.31 11.721-6.93 25.86-11.31 37.841v0.01c-5.32 14.58-10.28 25.97-10.28 25.97s1.76 10.41 1.26 19.98c-0.149 3.02-0.529 5.96-1.26 8.46-0.72 2.46-2.02 7.26-3.12 11.319-1.01 3.771-1.84 6.9-1.84 6.9s-7.91 36.45-6.67 48.67c0.7 6.89 7.57 23.53 10.41 30.19v0.01c0.75 1.75 1.22 2.81 1.22 2.81s-6.63 5.83-12.96 5.66c-5.43-0.15-9.78-2.04-12.47-3.6-1.94-1.12-3.01-2.061-3.01-2.061s-0.68-10.79-0.19-14.34c0.71-5.17 5.93-20 5.93-20s9.07-38.86 5.74-51.34c-1.729-6.48-1.22-22.24-0.64-32.5 0.31-5.55 0.64-9.5 0.64-9.5l-0.78-7.98-4.439-45.35-1.431-5.8-0.359-1.44-2.53-10.229v-0.011l-1.94-7.85 6.1-9.77 10.55-16.881v-0.01l1.521-2.439c0-0.011 0-0.011 0.01-0.021l10.35-16.56 5.61-8.99s2.88 5.86 6.29 14.22c0.88 2.141 1.79 4.45 2.689 6.86 3.46 9.2 6.851 19.979 7.99 29.189 0.339 2.743 0.489 5.353 0.369 7.733z" fill="#FFC017"/>
<path d="m451.47 204.76s2.105 28.136 5.75 35.125c2.759 5.29 16.75 17 16.75 17s4.132-4.268 5.625-5.068c1.877-1.006 7.308-1.182 7.308-1.182s1.146-8.444 1.238-9.25c0.264-2.29-1.142-6.979-2.421-8.896-2.795-4.19-15.914-12.354-15.914-12.354l-18.336-15.375z" fill="#FFE68B" opacity=".2"/>
<path d="m619.46 208.06s-5.637 27.646-10.133 34.119c-3.404 4.9-18.76 14.752-18.76 14.752s-3.562-4.755-4.941-5.737c-1.735-1.234-7.101-2.094-7.101-2.094s-0.071-8.521-0.062-9.333c0.027-2.305 2.012-6.779 3.523-8.52 3.301-3.804 17.345-10.248 17.345-10.248l20.129-12.939z" fill="#FFE68B" opacity=".2"/>
<path d="m480.81 449.13c-0.75 3.825-6.269 10.666-9.92 12.029-3.65 1.363-12.326-0.148-15.371-2.58-2.34-1.867-5.105-8.369-4.189-11.22 2.064-6.427 18.918-12.716 25.09-9.979 2.866 1.271 4.992 8.672 4.39 11.75z" fill="#D08000" opacity=".2"/>
<path d="m439.31 469.46c-0.75 3.825-6.269 10.666-9.92 12.029-3.65 1.363-12.326-0.148-15.371-2.58-2.34-1.867-5.105-8.369-4.189-11.22 2.064-6.427 18.918-12.716 25.09-9.979 2.866 1.271 4.992 8.672 4.39 11.75z" fill="#D08000" opacity=".2"/>
<path d="m401.44 466.67c-0.75 3.825-6.269 10.666-9.92 12.029-3.65 1.363-12.326-0.148-15.371-2.58-2.34-1.867-5.105-8.369-4.189-11.22 2.064-6.427 18.918-12.716 25.09-9.979 2.867 1.271 4.993 8.672 4.39 11.75z" fill="#D08000" opacity=".2"/>
<path d="m375.94 490.08c-0.75 3.825-6.269 10.666-9.92 12.029-3.65 1.363-12.326-0.148-15.371-2.58-2.34-1.867-5.105-8.369-4.189-11.22 2.064-6.427 18.918-12.716 25.09-9.979 2.867 1.271 4.993 8.672 4.39 11.75z" fill="#D08000" opacity=".2"/>
<path d="m386.56 439.15c-0.75 3.82-6.26 10.67-9.92 12.03-3.65 1.36-12.32-0.15-15.37-2.58-2.03-1.62-4.37-6.7-4.37-9.89 6.18-5.7 12.77-9.44 16.91-11.46 3.32-0.681 6.39-0.73 8.36 0.149 2.87 1.271 5 8.671 4.39 11.751z" fill="#D08000" opacity=".2"/>
<path d="m419.86 435.27c-0.75 3.825-6.269 10.666-9.92 12.029-3.65 1.363-12.326-0.148-15.371-2.58-2.34-1.867-5.105-8.369-4.189-11.22 2.064-6.427 18.918-12.716 25.09-9.979 2.867 1.27 4.993 8.672 4.39 11.75z" fill="#D08000" opacity=".2"/>
<path d="m498.62 449.15c-2.01-0.13-4.2-0.52-6.101-1.1-1.72-0.521-3.22-1.19-4.17-1.95-1.08-0.86-2.26-2.71-3.109-4.74-1-2.359-1.57-4.95-1.08-6.479 0.49-1.51 1.79-3.01 3.58-4.391 0.26-0.199 0.529-0.39 0.81-0.59 1.57-1.1 3.44-2.1 5.431-2.95-0.221 5.721-0.221 9.5-0.221 9.761v0.01c0-1e-3 2.65 4.769 4.86 12.429z" fill="#D08000" opacity=".2"/>
<path d="m479.45 418.32c-0.75 3.825-6.269 10.666-9.92 12.029-3.65 1.363-12.326-0.148-15.371-2.58-2.34-1.867-5.105-8.369-4.189-11.22 2.064-6.427 18.918-12.716 25.09-9.979 2.867 1.27 4.993 8.672 4.39 11.75z" fill="#D08000" opacity=".2"/>
<path d="m448.26 436.67c-0.6 3.06-5.015 8.532-7.936 9.624-2.92 1.09-9.861-0.119-12.297-2.064-1.872-1.494-4.084-6.695-3.352-8.977 1.651-5.141 15.135-10.172 20.072-7.982 2.294 1.016 3.995 6.938 3.513 9.399z" fill="#D08000" opacity=".2"/>
<path d="m465.45 476.67c-0.6 3.06-5.015 8.532-7.936 9.624-2.92 1.09-9.861-0.119-12.297-2.064-1.872-1.494-4.084-6.695-3.352-8.977 1.651-5.141 15.135-10.172 20.072-7.982 2.294 1.016 3.996 6.938 3.513 9.399z" fill="#D08000" opacity=".2"/>
<path d="m547.4 261.73c-0.6 3.06-5.015 8.532-7.936 9.624-2.92 1.09-9.861-0.119-12.297-2.064-1.872-1.494-4.084-6.695-3.352-8.977 1.651-5.141 15.135-10.172 20.072-7.982 2.295 1.015 3.996 6.937 3.513 9.399z" fill="#D08000" opacity=".2"/>
<path d="m547.4 291c-0.6 3.06-5.015 8.532-7.936 9.624-2.92 1.09-9.861-0.119-12.297-2.064-1.872-1.494-4.084-6.695-3.352-8.977 1.651-5.141 15.135-10.172 20.072-7.982 2.295 1.015 3.996 6.937 3.513 9.399z" fill="#D08000" opacity=".2"/>
<path d="m563.76 240.47c-0.6 3.06-5.015 8.532-7.936 9.624-2.92 1.09-9.861-0.119-12.297-2.064-1.872-1.494-4.084-6.695-3.352-8.977 1.651-5.141 15.135-10.172 20.072-7.982 2.294 1.015 3.995 6.937 3.513 9.399z" fill="#D08000" opacity=".2"/>
<path d="m526.7 240.47c-0.6 3.06-5.015 8.532-7.936 9.624-2.92 1.09-9.861-0.119-12.297-2.064-1.872-1.494-4.084-6.695-3.352-8.977 1.651-5.141 15.135-10.172 20.072-7.982 2.295 1.015 3.996 6.937 3.513 9.399z" fill="#D08000" opacity=".2"/>
<path d="m368.73 464.19c-0.6 3.06-5.015 8.532-7.936 9.624-2.92 1.09-9.861-0.119-12.297-2.064-1.872-1.494-4.084-6.695-3.352-8.977 1.651-5.141 15.135-10.172 20.072-7.982 2.294 1.015 3.995 6.937 3.513 9.399z" fill="#D08000" opacity=".2"/>
<path d="m469.68 524.39c-0.6 3.06-5.016 8.532-7.936 9.624-2.92 1.09-9.861-0.119-12.297-2.064-1.873-1.494-4.084-6.695-3.352-8.977 1.65-5.141 15.135-10.172 20.072-7.982 2.294 1.015 3.995 6.937 3.513 9.399z" fill="#D08000" opacity=".2"/>
<path d="m502.53 512.01c-1.601 6.2-3.721 13.03-5.98 19.74-3.33 0.1-7.899-0.96-9.79-2.471-1.87-1.489-4.08-6.689-3.35-8.97 1.55-4.849 13.6-9.589 19.12-8.299z" fill="#D08000" opacity=".2"/>
<path d="m493.17 541.47c-2.57 7.18-5.09 13.76-7.05 18.729v0.011c-3.36 0.31-8.521-0.801-10.55-2.431-1.87-1.489-4.08-6.689-3.351-8.97 1.65-5.15 15.141-10.18 20.07-7.99 0.311 0.141 0.601 0.361 0.881 0.651z" fill="#D08000" opacity=".2"/>
<path d="m483.64 590.17v0.01c-0.1 0.04-0.199 0.08-0.29 0.11-2.92 1.09-9.859-0.12-12.3-2.061-1.87-1.5-4.08-6.7-3.35-8.979 1.229-3.83 9.03-7.601 14.96-8.36 0.47 3.33 1.48 11.68 0.98 19.28z" fill="#D08000" opacity=".2"/>
<path d="m460.16 552.89c-0.6 3.06-5.016 8.532-7.936 9.624-2.92 1.09-9.861-0.119-12.297-2.064-1.873-1.494-4.084-6.695-3.352-8.977 1.65-5.141 15.135-10.172 20.072-7.982 2.294 1.015 3.996 6.937 3.513 9.399z" fill="#D08000" opacity=".2"/>
<path d="m454.89 600.04c-0.149 3.02-0.529 5.96-1.26 8.46-0.72 2.46-2.02 7.26-3.12 11.319-2.91-0.279-6.109-1.199-7.6-2.39-1.88-1.49-4.09-6.69-3.36-8.98 1.27-3.909 9.36-7.76 15.34-8.409z" fill="#D08000" opacity=".2"/>
<path d="m451.23 580.67c-0.601 3.06-5.011 8.529-7.931 9.62-1.649 0.619-4.59 0.5-7.27-0.07 0.31-5.55 0.64-9.5 0.64-9.5l-0.78-7.98c4.341-1.79 9.25-2.609 11.83-1.47 2.291 1.021 4.001 6.94 3.511 9.4z" fill="#D08000" opacity=".2"/>
<path d="m451.23 504.43c-0.6 3.06-5.016 8.532-7.936 9.624-2.92 1.09-9.861-0.119-12.297-2.064-1.873-1.494-4.084-6.695-3.352-8.977 1.65-5.141 15.135-10.172 20.072-7.982 2.295 1.015 3.996 6.937 3.513 9.399z" fill="#D08000" opacity=".2"/>
<path d="m378.92 514.41c-0.6 3.06-5.015 8.532-7.936 9.624-2.92 1.09-9.861-0.119-12.297-2.064-1.872-1.494-4.084-6.695-3.352-8.977 1.651-5.141 15.135-10.172 20.072-7.982 2.295 1.015 3.996 6.937 3.513 9.399z" fill="#D08000" opacity=".2"/>
<path d="m367.02 540.24c-0.6 3.061-5.02 8.53-7.94 9.631-1.68 0.63-4.7 0.489-7.42-0.11-0.15-2.57-0.47-5.351-0.99-8.37-0.34-2-0.79-4.81-1.28-8.02 4.76-2.48 11.07-3.881 14.11-2.53 2.3 1.019 4 6.939 3.52 9.399z" fill="#D08000" opacity=".2"/>
<path d="m383.75 543.28l-1.75 7.44s-1.14 4.85-2.96 12.03c-3.26 0.63-9.19-0.53-11.4-2.301-1.87-1.489-4.09-6.689-3.35-8.979 1.59-4.94 14.11-9.78 19.46-8.19z" fill="#D08000" opacity=".2"/>
<path d="m411.52 572.95c-1.59 5.69-3.3 11.48-5.01 16.79-0.37 0.24-0.74 0.42-1.08 0.551-2.92 1.09-9.86-0.11-12.29-2.061-1.87-1.49-4.09-6.7-3.35-8.979 1.65-5.141 15.13-10.17 20.07-7.98 0.61 0.27 1.17 0.879 1.66 1.679z" fill="#D08000" opacity=".2"/>
<path d="m408.26 556.02c-0.6 3.061-5.02 8.53-7.94 9.63-2.92 1.09-9.86-0.12-12.29-2.069-0.32-0.261-0.66-0.62-0.99-1.07 1.12-3.66 2.14-7.811 2.58-12.811 4.84-2.81 11.86-4.529 15.13-3.079 2.29 1.019 3.99 6.939 3.51 9.399z" fill="#D08000" opacity=".2"/>
<path d="m423.69 524.54l-3.71 15.729s-0.36 1.51-0.99 4.101c-3.36 0.27-8.41-0.841-10.42-2.44-1.87-1.49-4.08-6.69-3.35-8.98 1.5-4.66 12.71-9.221 18.47-8.41z" fill="#D08000" opacity=".2"/>
<path d="m371.66 589.98c-2.1 7.16-4.3 14.12-6.39 19.73-2.61-0.37-5.26-1.2-6.58-2.261-1.87-1.489-4.09-6.689-3.35-8.979 1.33-4.13 10.28-8.19 16.32-8.49z" fill="#D08000" opacity=".2"/>
<path d="m365.3 572.66c-0.6 3.061-5.01 8.53-7.93 9.62-2.58 0.96-8.28 0.141-11.26-1.409 1.25-4.971 3.4-9.931 4.66-16.471 4.13-1.55 8.6-2.21 11.02-1.14 2.29 1.02 4 6.94 3.51 9.4z" fill="#D08000" opacity=".2"/>
<path d="m501.48 471.52c-0.221 0.28-0.44 0.561-0.66 0.83-1.53 1.84-3.32 3.43-4.75 3.96-2.92 1.09-9.86-0.12-12.301-2.06-1.869-1.5-4.079-6.7-3.35-8.98 1.25-3.899 9.32-7.74 15.3-8.399 1.891-0.221 3.58-0.11 4.771 0.42h0.01c0.74 4.319 1.18 9.119 0.98 14.229z" fill="#D08000" opacity=".2"/>
<path d="m441.91 412.23c-0.01 0.22-0.03 0.42-0.07 0.6-0.6 3.06-5.02 8.53-7.939 9.62s-9.86-0.11-12.291-2.06c-0.63-0.5-1.29-1.4-1.86-2.48 5.52-0.64 13.91-3.01 22.16-5.68z" fill="#D08000" opacity=".2"/>
<path d="m505.47 494.72c-0.01 1.52-0.149 3.26-0.42 5.17-2.55-0.38-5.09-1.2-6.38-2.23-0.99-0.789-2.08-2.619-2.77-4.5-0.62-1.68-0.931-3.399-0.58-4.479 0.5-1.57 2.109-3.12 4.229-4.47 1.2-0.761 2.561-1.45 3.98-2.03 1.201 4.969 1.951 9.36 1.941 12.539z" fill="#D08000" opacity=".2"/>
<path d="m482.35 598.09c-1.09 3.78-3.35 12.229-4.369 16.04-0.271-0.15-0.5-0.311-0.711-0.471-1.869-1.5-4.079-6.699-3.35-8.979 0.8-2.49 4.39-4.96 8.43-6.59z" fill="#D08000" opacity=".2"/>
<path d="m497 394.13c-1.33 8.17-2.12 16.79-2.58 24.11-3.54-0.38-7.33-1.51-9.14-2.95-2.34-1.86-5.11-8.36-4.19-11.21 1.36-4.21 9.03-8.35 15.91-9.95z" fill="#D08000" opacity=".2"/>
<path d="m487.52 384.18c-0.75 3.82-6.27 10.67-9.92 12.03-1.939 0.72-5.31 0.63-8.489 0.03 1.88-6.99 4.439-16.06 7.08-24.21 2.77-0.42 5.25-0.35 6.939 0.4 2.87 1.27 4.99 8.67 4.39 11.75z" fill="#D08000" opacity=".2"/>
<path d="m509.62 361.55c-2.13 3.09-4.101 6.21-5.82 9.29-2.069 3.71-3.72 8.68-5.02 14.24-1.57-0.5-2.931-1.13-3.82-1.84-2.34-1.86-5.1-8.37-4.19-11.22 1.55-4.81 11.41-9.55 18.85-10.47z" fill="#D08000" opacity=".2"/>
<path d="m494.33 353.79c-0.75 3.83-6.271 10.67-9.92 12.03-1.49 0.56-3.82 0.64-6.26 0.37 1.779-5.05 3.54-9.36 5.09-12.04 1.63-2.81 4.46-6.83 7.8-11.3 2.29 2.36 3.81 8.28 3.29 10.94z" fill="#D08000" opacity=".2"/>
<path d="m522.83 354.05s0.665 2.783 13.653 3.296c12.017 0.475 14.749-2.749 14.749-2.749s3e-3 8.256-14.494 8.256c-13.702 0-13.908-8.803-13.908-8.803z" fill="#D08000" opacity=".3"/>
<path d="m578.25 326.16c-1.04 3.29-2.58 6.38-4.36 9.21-3.88-2.39-6.59-7.73-6.59-13.93 0-8.44 5-15.28 11.16-15.28 0.16 0 0.32 0 0.47 0.02 1.43 5.61 1.72 12.38-0.68 19.98z" fill="#FFA182" opacity=".1"/>
<path d="m504.58 321.43c0 1.7-0.21 3.34-0.61 4.87-1.21 4.67-4.1 8.34-7.739 9.76-0.841 0.33-1.721 0.54-2.62 0.61-2.03-3.15-3.69-6.91-4.681-11.38-1.41-6.39-1.55-12.41-1.04-17.71 1.5-0.91 3.17-1.42 4.94-1.42 6.49 0 11.75 6.83 11.75 15.27z" fill="#FFA182" opacity=".1"/>
<ellipse cx="523.67" cy="326.82" rx="4.667" ry="2.815" fill="#D08000" opacity=".1"/>
<ellipse cx="546" cy="326.82" rx="4.667" ry="2.815" fill="#D08000" opacity=".1"/>
<ellipse transform="matrix(.971 .239 -.239 .971 79.783 -109.71)" cx="492.25" cy="274.1" rx="12.769" ry="13" fill="#D08000" stroke="#fff" stroke-miterlimit="10" stroke-width="4"/>
<ellipse transform="matrix(.971 .239 -.239 .971 79.784 -109.71)" cx="492.25" cy="274.1" rx="6.537" ry="6.991"/>
<path d="m488.4 274.61c0.316-1.291-0.369-2.569-1.529-2.855s-2.359 0.529-2.678 1.821c-0.316 1.29 0.365 2.568 1.528 2.854 1.386 0.341 2.3-0.286 2.679-1.82z" fill="#fff"/>
<ellipse transform="matrix(.971 .239 -.239 .971 82.247 -129.02)" cx="573.09" cy="274.61" rx="17.802" ry="18.055" fill="#D08000" opacity=".1"/>
<ellipse transform="matrix(.971 .239 -.239 .971 82.16 -129)" cx="572.96" cy="274.26" rx="12.769" ry="13" fill="#D08000" stroke="#fff" stroke-miterlimit="10" stroke-width="4"/>
<ellipse transform="matrix(.971 .239 -.239 .971 82.161 -129)" cx="572.96" cy="274.26" rx="6.537" ry="6.991"/>
<ellipse transform="matrix(.971 .239 -.239 .971 82.045 -127.62)" cx="567.3" cy="274.53" rx="2.166" ry="2.407" fill="#fff"/>
</svg>