<?xml version='1.0' encoding='utf-8'?>
<svg xmlns="http://www.w3.org/2000/svg" version="1.1" id="svg2" x="0px" y="0px" viewBox="0 0 643.06284 616.92346" width="643.06287" height="616.92346"><metadata id="metadata38"/><defs id="defs36"/><style type="text/css" id="style2"> .st0{fill:#F4BD5B;stroke:#000000;stroke-width:1.4684;stroke-linecap:round;stroke-linejoin:round;} .st1{fill:#893E0B;stroke:#000000;stroke-linecap:round;stroke-linejoin:round;} .st2{fill:none;stroke:#000000;stroke-linecap:round;stroke-linejoin:round;} .st3{fill:none;stroke:#000000;stroke-linecap:round;} .st4{fill:#6D320B;stroke:#000000;stroke-linecap:round;stroke-linejoin:round;} .st5{fill:#EDD5BD;stroke:#000000;stroke-linecap:round;stroke-linejoin:round;} .st6{fill:#C1B2A4;stroke:#000000;stroke-linecap:round;stroke-linejoin:round;} .st7{fill:#F4BD5B;stroke:#000000;stroke-linecap:round;stroke-linejoin:round;} .st8{fill:#251F1F;stroke:#000000;stroke-linecap:round;stroke-linejoin:round;} .st9{fill:#FFFFFF;stroke:#000000;stroke-linecap:round;stroke-linejoin:round;} .st10{stroke:#000000;stroke-linecap:round;stroke-linejoin:round;} .st11{fill:#6D350F;stroke:#000000;stroke-linecap:round;stroke-linejoin:round;} </style><g id="g8" transform="translate(-4.1728854,-51.976783)"><path id="path3886" class="st0" d="m 575.2,595 c 4.6,-37.5 -2.1,-58.9 -8.7,-95.7 -4.3,-13.4 -9,-33.9 -6.3,-59.3 3,-20.4 10.5,-39 18.1,-58 3,-9.3 -0.8,-12.2 -7.1,-15.8 l 6.4,-16.4 c 9.8,-34.6 -31.8,24.1 -16.3,1.7 0,-15.9 -2.4,-13.4 -5.2,-12.2 58.5,-100.1 110.9,37.8 82.4,88 0.5,-13.3 -2.2,-22.9 -4.6,-32.8 2.1,12.2 6.2,22.5 4.1,36.3 -2.9,17.9 1.1,31.6 -11.3,57.2 -6.2,11 -11.5,21.2 -20.5,30 -6,-8.4 -4.8,-19.4 -2.4,-29 1.2,-4.5 2.6,-8.8 3.7,-12.4 -4,15.4 -10.6,26.6 -1.3,41.5 -13.4,21.3 -16.6,41.4 -24.7,63.1 z" style="fill:#f4bd5b;stroke:#000000;stroke-width:1.4684;stroke-linecap:round;stroke-linejoin:round"/><path id="path3888" class="st0" d="m 594.5,478 c -0.1,-18.2 0,-21.8 6.2,-31.4 -2.5,3 -3.8,6.6 -5.7,10.8 -11.5,-13 -11,-26.1 -7.2,-33.9" style="fill:#f4bd5b;stroke:#000000;stroke-width:1.4684;stroke-linecap:round;stroke-linejoin:round"/><path id="path3890" class="st0" d="m 568.4,476.8 c -4.9,-12.2 -6.1,-25 -8,-37.8" style="fill:#f4bd5b;stroke:#000000;stroke-width:1.4684;stroke-linecap:round;stroke-linejoin:round"/><path id="path3892" class="st0" d="m 608.4,431.9 c 9.3,-21 10.7,-50.1 1.3,-70 0.4,-1.5 10.1,13.4 9.3,12.4 1,-17.4 -1.2,-25.7 -7.6,-41" style="fill:#f4bd5b;stroke:#000000;stroke-width:1.4684;stroke-linecap:round;stroke-linejoin:round"/></g><title id="title3930">Sciccareddu</title><path class="st1" d="m 567.82711,301.32322 c -9,-20 -29.3,-35.7 -60.3,-45.3 -18.3,-6.1 -47.5,-6.2 -65.1,-2.3 -61.5,13.3 -170,40.5 -159.5,-55.5 2.6,-21.2 8.3,-39.2 8.5,-57.3 -1.7,-13.5 -4.8,-18.9 -11.7,-21.3 10.8,-13.9 16.9,-39.300003 23.5,-57.900003 2,-16.3 4.4,-17.6 2.3,-23.3 -1.3,-3.7 -32.1,15.6 -40.3,22.7 -11.6,9.9 -39.6,30.5 -39.6,30.5 v 0 c -9.3,6.9 -13.6,4.6 -5.7,-6 l -17,15.000003 c -4.6,4.2 -20.3,11.6 -7.7,-5.000003 -10.1,7.700003 -17.1,17.200003 -35.9,19.900003 -16.6,3.9 -7,-13.1 5.7,-20.700003 -5.3,1.7 -48.9,28.800003 -39.6,9.700003 -1.8,1.9 -24,14 -30.499995,24.4 -9.6,16 -6.1,29.6 -10,39.8 -4.7,10.5 -9.5,22.3 -14.9,31 -21.9,3.8 -31.2,8.1 -47.5,24.2 -0.1,0.2 -0.3,0.3 -0.4,0.5 0.9,-1.3 -1.5,-1.6 -2.6,-2 -5.4,-0.8 -8.7,1.9 -10.1000004,3.1 -10.29999998,10.3 -12.2,18.7 -3,32.2 0.1,-0.6 0.2,-1.3 0.3,-1.9 -1.6,12.6 2.1,24.1 14.0000004,33.1 7.1,5 11.3,6.1 10.4,5.5 -0.2,-0.1 -0.5,-0.8 -1,-1.8 6.6,11.9 31.7,9.6 50.4,9.2 -12.7,16.1 2.3,19.9 19.3,12.8 16.899995,-7.1 29.699995,-15.8 38.999995,-26.1 v 0 c 14.1,-11.6 28.1,-16.7 33.9,-16.6 21.5,10.2 32.6,38.5 30.4,59.8 -4.4,29.5 -9.9,47.8 -3.3,77.3 11.4,24.2 27.3,31.5 26.3,50.3 0.1,17.2 -6,21.4 -6.2,37.2 3.4,35.5 5.3,24.9 6.1,38.5 -7.3,9.3 -9.9,10.8 -22.5,19.2 -6,4.4 -4.7,10.7 3.7,7.7 9.4,-3.4 17.2,-5.6 21.9,-5.7 5.2,1.9 4.8,10 14,13.7 4.4,0.5 6.2,-3 12,-3 7.9,5.2 5.6,4 10.5,8 10.4,4.4 3.5,-11.7 0.5,-18.9 -3.7,-10.3 -8.3,-20.3 -7,-31.9 4.2,-17.8 12.9,-32.3 14.7,-52.1 1.8,-17.8 0.7,-25.2 -1.6,-40.6 23.9,13.6 87.9,20.3 124.7,9.6 13.1,-3.3 23.8,0.2 26.6,2 12,16 13.7,22 20.1,35.2 -0.8,8.8 -7.2,23 -6,28.9 1,10.2 3.6,15.8 6,22.9 3.7,7.8 0,14.2 -2.5,16.2 -14.1,11 -31.2,28.7 -2.2,17.5 13.4,1.5 13.4,14.7 29.2,11.2 4.5,3.1 19.6,15.7 19.4,3 -1.5,-8.4 -4.2,-16.2 -7,-23.9 -1.6,-7.9 -0.7,-13.7 1,-18.9 7.1,-13.3 6.4,-18.9 7.2,-25.9 0.9,-11.9 -0.5,-18 -1.5,-24.2 0.7,-6.3 -1.2,-9.5 12.2,-31.7 17.5,-23.6 35,-42.8 52.4,-65.6 14.8,-21.6 24.5,-56.8 16,-86.4 z m -559.5999954,-53.4 c 0.5,-2 1.1,-3.9 1.8000004,-5.8 -0.7000004,2 -1.3000004,3.9 -1.8000004,5.8 z m 6.3000004,-12.2 c 0.4,-1 1.4,-2.8 2.6,-4.6 -1,1.5 -1.8,3 -2.6,4.6 z m 14,47.5 c -0.2,1.9 -0.2,3.7 0.1,5.2 -0.5,-2 -0.7,-4 -0.1,-5.2 z" id="path12" style="fill:#893e0b;stroke:#000000;stroke-linecap:round;stroke-linejoin:round"/><path id="path3868" class="st2" d="m 285.32711,374.12322 c -8.6,20.9 -12.2,35.7 -13.3,57.2 2.1,-10.1 5.3,-19.4 11.3,-28.3" style="fill:none;stroke:#000000;stroke-linecap:round;stroke-linejoin:round"/><path id="path3870" class="st3" d="m 444.12711,341.22322 c -28.3,24.1 -35.2,62.1 -21,101.6" style="fill:none;stroke:#000000;stroke-linecap:round"/><path id="path3872" class="st4" d="m 395.62711,441.52322 c 4.3,9.3 6.6,10.2 13.3,20 4.3,8.7 7.9,13.5 8.1,23.2 -4,15 -6,31.3 -2.7,45.1 -5.8,5.3 -22.1,18.5 -6.7,18.9 4.4,-1.2 8.2,-5.1 12,-6 7.6,-1.5 11.1,11.2 12.9,10 2.5,-2.8 17.6,-7.6 9.6,-24.8 -1.4,-6.8 -5,-12.3 -4.5,-24.7 1.9,-11.1 5.3,-20 5.3,-24.8 -0.3,-5.1 -12.1,-24.7 -19.4,-35.5 -7.5,-2.4 -15.2,-4.8 -27.9,-1.4 z" style="fill:#6d320b;stroke:#000000;stroke-linecap:round;stroke-linejoin:round"/><path id="path3874" class="st5" d="m 423.02711,564.42322 c -17.8,15 -21,27.8 -21.7,44.9 0.7,11 64.9,7.6 74.2,0.7 5.8,-8.8 4.7,-25.3 4.3,-27.4 -2.6,-1.3 -8.2,-5.3 -12.2,-8.8 -5.1,2.1 -9.4,0.9 -13.1,-2.1 -5,-4.1 -10,-6.6 -15.1,-8 -16.7,5.4 -17.2,2.6 -16.4,0.7 z" style="fill:#edd5bd;stroke:#000000;stroke-linecap:round;stroke-linejoin:round"/><path id="path3876" class="st6" d="m 401.42711,547.02322 c -15.3,14.7 -23,36.3 -20.7,45.6 1.4,2.6 3,4.5 22.1,2.9 3.4,-11.5 10.2,-21.4 19.7,-30.6 1.5,-5.1 5.9,-8.1 9.6,-11.7 -5,-6.4 -6.5,-12.1 -13.5,-10 -7.6,3.4 -9.9,7.8 -17.2,3.8 z" style="fill:#c1b2a4;stroke:#000000;stroke-linecap:round;stroke-linejoin:round"/><path id="path3878" class="st5" d="m 200.62711,562.32322 c -8.3,4.2 -11,9.4 -14.7,15 -6.4,11.2 -7.3,18.2 -6.2,27.2 2.4,6.4 27.5,3.5 38.9,4 16.2,-0.6 33.4,-1 37.4,-3.5 3,-4.4 4.1,-12.1 5.5,-16.7 0.9,-5.9 3.1,-12.9 -2,-17.7 -5.3,-6 -10,-2.2 -15.7,-0.2 -6.5,-0.6 -7.3,-7.2 -14.2,-13.5 -5,-1.1 -10,1.5 -15,2.7 -5.3,1.5 -12.5,4.9 -14,2.7 z" style="fill:#edd5bd;stroke:#000000;stroke-linecap:round;stroke-linejoin:round"/><path id="path3880" class="st6" d="m 185.92711,477.52322 c 7.1,12.1 13.7,26.4 10.2,30.2 -16.6,17.3 -64.9,39 -71.3,33.4 -12.2,-5.3 -10.2,-44.6 1.2,-55.6 7.6,3.2 6.8,-4.5 18.4,-13.8 9.6,-6.9 9.9,-6.6 19.4,-0.9 8.6,-5.2 9.4,-2.5 13.5,3.9 1.7,1.2 7.9,2.6 8.6,2.8 z" style="fill:#c1b2a4;stroke:#000000;stroke-linecap:round;stroke-linejoin:round"/><path id="path3882" class="st4" d="m 200.12711,350.22322 c 0.6,-3.8 -19.6,21.9 -30.9,29.3 -9.8,6.5 -46.1,19.3 -52.8,26.9 -16.799995,19.2 7,48 12.5,58.6 l -3.2,17.7 c -0.4,4.8 5.6,4.9 8.2,0.6 6.4,-10.8 17,-17.3 19.7,-17.3 4.2,0.1 7.8,2.6 10.5,5.1 5.8,-3.7 8.2,-6.6 13.2,3.4 14.9,7.9 17.4,-1.2 14.2,-8.5 -4.2,-4.8 -11.4,-8.5 -19.7,-14.2 -3.5,-6 -4.6,-15.3 -5.3,-25.1 15.5,-5.7 26.9,-11.2 33.3,-17.3 -4.8,-22.7 -2.8,-37.1 0.3,-59.2 z" style="fill:#6d320b;stroke:#000000;stroke-linecap:round;stroke-linejoin:round"/><path id="path3884" class="st2" d="m 161.72711,415.42322 5.5,10 -3.5,4 -9,-5 h -8.5" style="fill:none;stroke:#000000;stroke-linecap:round;stroke-linejoin:round"/><path id="path3894" class="st7" d="m 289.32711,102.12322 c 11.1,7.4 34.2,51.8 23.1,50.6 -6,-4.5 -7.6,-10 -9.6,-15.5 1.8,6.1 4.4,11.7 9.5,15.5 1.2,12.3 -1,55.6 -10,52.8 -2.7,-5.4 -4.1,-11.2 -2.6,-17.6 -2.4,7.5 0.5,12.9 2.6,18.6 0.7,21 14.8,28.9 30.4,39.4 8.6,6.9 4.1,9 -3.9,8.4 l -8.5,-7.6 15.1,13.6 c 5.4,3.6 8.7,5.1 12.4,7 -14,-0.6 -19.2,-0.1 -38.1,-7.2 -21.9,-13.5 -29.6,-26.7 -26.3,-66.3 9.1,-44.8 8.5,-45.4 7.9,-54.6 -0.6,-9.9 -7.2,-17.2 -11.6,-19.7 5.1,-7.1 9.6,-17.4 9.6,-17.4 z" style="fill:#f4bd5b;stroke:#000000;stroke-linecap:round;stroke-linejoin:round"/><path id="path3896" class="st2" d="m 273.92711,204.02322 c -6.7,13.8 -16.9,30.3 -28.5,39.5 -24.7,19 -44.8,26.3 -72.6,28.4" style="fill:none;stroke:#000000;stroke-linecap:round;stroke-linejoin:round"/><path id="path3782-5" class="st8" d="m 164.12711,141.72322 c -0.6,-2.6 -3.6,-8.9 -8.1,-10 -14.3,-3.1 -11.7,13.4 -1.9,4.9 8.6,0.3 13.5,18.3 10,5.1 z" style="fill:#251f1f;stroke:#000000;stroke-linecap:round;stroke-linejoin:round"/><path id="path3788-8" class="st2" d="m 138.82711,152.12322 c -14.6,17 -21.7,43.6 -16.7,62.1" style="fill:none;stroke:#000000;stroke-linecap:round;stroke-linejoin:round"/><path id="path3778-8" class="st2" d="m 102.92711,262.12322 c 3.5,-6.7 2.5,-15.7 -2.999995,-18.3 -15,-6.6 -30.1,18.9 -28.1,31 0.5,2.2 1.2,2.7 2.6,3.7" style="fill:none;stroke:#000000;stroke-linecap:round;stroke-linejoin:round"/><path id="path3780-1" class="st8" d="m 93.627115,255.22322 c -2.5,0 -5.5,3 -8.5,6.7 -2.3,2.8 -4.1,5.9 -4.9,9.2 -0.4,2.4 0,4.3 1.4,5.8 6.1,4.6 6.2,-11.2 8.5,-15.3 z" style="fill:#251f1f;stroke:#000000;stroke-linecap:round;stroke-linejoin:round"/><path id="path3790-2" class="st9" d="m 139.02711,157.52322 c 8.6,-3.6 16.2,2 17.5,7.5 3.9,13.2 -4.3,45.7 -18.1,47.6 -14.2,2.1 -17.8,-9.6 -16,-24.4 3.9,-16.1 8,-27 16.6,-30.7 z" style="fill:#ffffff;stroke:#000000;stroke-linecap:round;stroke-linejoin:round"/><path id="path3792-1" class="st10" d="m 151.52711,198.92322 c -0.2,-11.3 -8.8,-10 -11,-1.1 -1.2,4.7 -2.7,19 6.2,9.3" style="stroke:#000000;stroke-linecap:round;stroke-linejoin:round"/><path id="path4094" class="st7" d="m 249.32711,73.123217 c -9.4,-9.6 -36,-23.1 -44,-25.3 0,0 -15.8,-3.3 -30.7,-2.8 -20.5,-0.4 -72,17.2 -59.9,22.7 l 19.2,-7.3 c 0,0 -20.8,8.3 -23.6,9 -18.099995,8.3 -49.699995,37.100003 -25.999995,28.9 4,-1.4 -3.3,1.5 24.899995,-13.2 -10.999995,6.9 -19.799995,7.7 -33.099995,21.200003 -6.3,7 -16.2,18.6 -18.3,24 -9.1,22.4 33.5,-1.9 38.9,-4.8 3.699995,-2.9 1,-2.6 45.199995,-32.800003 l -15.9,11.300003 c -9.9,20.1 32.2,-6.700003 39.1,-9.300003 1.7,-1.7 -23.4,17.100003 -11.5,21.200003 18.4,0.2 28.3,-9.3 41.7,-20.300003 -7.6,8.300003 -5.1,11.100003 -1.4,10.000003 10.9,-4.2 17.7,-13.300003 25.5,-19.800003 -6.8,11.5 -3.1,11.6 6.5,5.7 6.5,-6.5 3.1,-2.4 12.4,-9.1 z" style="fill:#f4bd5b;stroke:#000000;stroke-linecap:round;stroke-linejoin:round"/><path id="path4096" class="st4" d="m 170.52711,45.223217 c -0.4,1.5 0.7,-43.7000004 -4,-44.70000039 -4.7,-1 -29.8,33.60000039 -29.8,33.60000039 l -11.5,22.1 c 0,0 20.5,-6 22.6,-7.1 0,0.1 23,-5.4 22.7,-3.9 z" style="fill:#6d320b;stroke:#000000;stroke-linecap:round;stroke-linejoin:round"/><path id="path4100" class="st11" d="m 287.12711,78.123217 c -7,10.5 -8.8,22.800003 -19.6,27.400003 -10.8,-7.000003 -9.2,-5.3 -19.2,-14.500003 0.7,-5.1 33.1,-29.9 47.8,-40.4 0,0 -6.2,22.7 -9,27.5 z" style="fill:#6d350f;stroke:#000000;stroke-linecap:round;stroke-linejoin:round"/><path id="path4102" class="st8" d="m 80.527115,301.72322 c 18.6,-7 32.099995,-16.6 46.299995,-26.3 3.3,-4.6 4.2,-9.5 6.1,-14.3 -3.3,-1 -4.1,2.6 -5.4,4.4 0.7,-2.6 3.2,-5.8 5.8,-4.8 5.4,1 3.6,7.4 3.8,11.1 -0.5,-3.8 0.3,-9.7 -4,-10.7 -2.7,5.1 -3.1,10.3 -5.9,14.4 -2.8,4.1 -8.6,11.9 -11.8,15.3 -6.4,6.8 -13.8,12.1 -23.199995,16.7 -11.4,4.6 -7.9,-6.1 -1.3,-10.1 z" style="fill:#251f1f;stroke:#000000;stroke-linecap:round;stroke-linejoin:round"/></svg>