<?xml version='1.0' encoding='utf-8'?>
<svg xmlns="http://www.w3.org/2000/svg" width="1300" height="3000" viewBox="0 0 343.95833 793.75002" version="1.1" id="svg8"> <defs id="defs2"> </defs> <metadata id="metadata5"> </metadata> <g id="layer1" transform="translate(0,496.75002)"> <g id="g947" transform="matrix(2.1457962,0,0,2.1457962,-395.34603,105.47233)"> <path id="path876" d="m 318.89648,-198.69531 a 0.50005,0.50005 0 0 0 -0.3164,0.89062 c 3.404,2.81841 4.57562,5.76103 4.75,8.875 0.17438,3.11397 -0.69849,6.40752 -1.50977,9.75391 -0.81127,3.34638 -1.56047,6.75113 -1.01562,10.10937 0.54485,3.35825 2.42186,6.63141 6.6875,9.59766 a 0.50034524,0.50034524 0 1 0 0.57031,-0.82227 c -4.09867,-2.85014 -5.76735,-5.82826 -6.27148,-8.93554 -0.50414,-3.10729 0.19256,-6.38235 1,-9.71289 0.80743,-3.33055 1.7259,-6.71027 1.53906,-10.04688 -0.18685,-3.33661 -1.5285,-6.62176 -5.11328,-9.58984 a 0.50005,0.50005 0 0 0 -0.32032,-0.11914 z" style="color:#000000;font-style:normal;font-variant:normal;font-weight:normal;font-stretch:normal;font-size:medium;line-height:normal;font-family:sans-serif;font-variant-ligatures:normal;font-variant-position:normal;font-variant-caps:normal;font-variant-numeric:normal;font-variant-alternates:normal;font-feature-settings:normal;text-indent:0;text-align:start;text-decoration:none;text-decoration-line:none;text-decoration-style:solid;text-decoration-color:#000000;letter-spacing:normal;word-spacing:normal;text-transform:none;writing-mode:lr-tb;direction:ltr;text-orientation:mixed;dominant-baseline:auto;baseline-shift:baseline;text-anchor:start;white-space:normal;shape-padding:0;clip-rule:nonzero;display:inline;overflow:visible;visibility:visible;opacity:0.20249999;isolation:auto;mix-blend-mode:normal;color-interpolation:sRGB;color-interpolation-filters:linearRGB;solid-color:#000000;solid-opacity:1;vector-effect:none;fill:#3ea3ce;fill-opacity:1;fill-rule:nonzero;stroke:none;stroke-width:1;stroke-linecap:round;stroke-linejoin:round;stroke-miterlimit:4;stroke-dasharray:none;stroke-dashoffset:0;stroke-opacity:1;paint-order:normal;color-rendering:auto;image-rendering:auto;shape-rendering:auto;text-rendering:auto;enable-background:accumulate"/> <path id="path878" d="m 291.40625,-189.58398 a 0.50005,0.50005 0 0 0 -0.44531,0.70507 c 7.16738,16.59815 9.8837,27.78576 10.19336,36.19922 0.30966,8.41347 -1.76654,14.06756 -4.28516,19.7168 -5.03724,11.29848 -11.81547,22.53271 -4.04492,54.373046 a 0.50005,0.50005 0 1 0 0.9707,-0.236328 c -7.72646,-31.659668 -1.0873,-42.348418 3.98633,-53.728518 2.53681,-5.69005 4.68941,-11.56469 4.37305,-20.16015 -0.31636,-8.59547 -3.07968,-19.89679 -10.27539,-36.56055 a 0.50005,0.50005 0 0 0 -0.47266,-0.30859 z" style="color:#000000;font-style:normal;font-variant:normal;font-weight:normal;font-stretch:normal;font-size:medium;line-height:normal;font-family:sans-serif;font-variant-ligatures:normal;font-variant-position:normal;font-variant-caps:normal;font-variant-numeric:normal;font-variant-alternates:normal;font-feature-settings:normal;text-indent:0;text-align:start;text-decoration:none;text-decoration-line:none;text-decoration-style:solid;text-decoration-color:#000000;letter-spacing:normal;word-spacing:normal;text-transform:none;writing-mode:lr-tb;direction:ltr;text-orientation:mixed;dominant-baseline:auto;baseline-shift:baseline;text-anchor:start;white-space:normal;shape-padding:0;clip-rule:nonzero;display:inline;overflow:visible;visibility:visible;opacity:0.20249999;isolation:auto;mix-blend-mode:normal;color-interpolation:sRGB;color-interpolation-filters:linearRGB;solid-color:#000000;solid-opacity:1;vector-effect:none;fill:#3ea3ce;fill-opacity:1;fill-rule:nonzero;stroke:none;stroke-width:1;stroke-linecap:round;stroke-linejoin:round;stroke-miterlimit:4;stroke-dasharray:none;stroke-dashoffset:0;stroke-opacity:1;paint-order:normal;color-rendering:auto;image-rendering:auto;shape-rendering:auto;text-rendering:auto;enable-background:accumulate"/> <path id="path882" d="m 247.91797,-189.58398 a 0.50005,0.50005 0 0 0 -0.46094,0.43359 c -3.9637,27.17969 -9.53816,45.405 -11.24609,62.81641 -1.70793,17.4114 0.49131,33.988431 12.04883,57.671871 22.98122,47.092648 12.0625,86.203125 12.0625,86.203125 a 0.50005,0.50005 0 1 0 0.96289,0.269531 c 0,0 11.00493,-39.508775 -12.12696,-86.910156 -11.49903,-23.563604 -13.64698,-39.870761 -11.95312,-57.138671 1.69385,-17.26791 7.26839,-35.51869 11.24219,-62.76758 a 0.50005,0.50005 0 0 0 -0.5293,-0.57812 z" style="color:#000000;font-style:normal;font-variant:normal;font-weight:normal;font-stretch:normal;font-size:medium;line-height:normal;font-family:sans-serif;font-variant-ligatures:normal;font-variant-position:normal;font-variant-caps:normal;font-variant-numeric:normal;font-variant-alternates:normal;font-feature-settings:normal;text-indent:0;text-align:start;text-decoration:none;text-decoration-line:none;text-decoration-style:solid;text-decoration-color:#000000;letter-spacing:normal;word-spacing:normal;text-transform:none;writing-mode:lr-tb;direction:ltr;text-orientation:mixed;dominant-baseline:auto;baseline-shift:baseline;text-anchor:start;white-space:normal;shape-padding:0;clip-rule:nonzero;display:inline;overflow:visible;visibility:visible;opacity:0.20249999;isolation:auto;mix-blend-mode:normal;color-interpolation:sRGB;color-interpolation-filters:linearRGB;solid-color:#000000;solid-opacity:1;vector-effect:none;fill:#3ea3ce;fill-opacity:1;fill-rule:nonzero;stroke:none;stroke-width:1;stroke-linecap:round;stroke-linejoin:round;stroke-miterlimit:4;stroke-dasharray:none;stroke-dashoffset:0;stroke-opacity:1;paint-order:normal;color-rendering:auto;image-rendering:auto;shape-rendering:auto;text-rendering:auto;enable-background:accumulate"/> <path id="path886" d="m 228.66992,-185.80469 a 0.50005,0.50005 0 0 0 -0.47265,0.35938 c -4.19391,13.53487 -1.60947,22.86626 1.03711,32.08203 2.64657,9.21577 5.35289,18.31982 1.60546,31.81055 a 0.50005,0.50005 0 1 0 0.96289,0.26757 c 3.81211,-13.72354 1.03767,-23.14294 -1.60742,-32.35351 -2.64508,-9.21057 -5.16453,-18.2103 -1.04297,-31.51172 a 0.50005,0.50005 0 0 0 -0.48242,-0.6543 z" style="color:#000000;font-style:normal;font-variant:normal;font-weight:normal;font-stretch:normal;font-size:medium;line-height:normal;font-family:sans-serif;font-variant-ligatures:normal;font-variant-position:normal;font-variant-caps:normal;font-variant-numeric:normal;font-variant-alternates:normal;font-feature-settings:normal;text-indent:0;text-align:start;text-decoration:none;text-decoration-line:none;text-decoration-style:solid;text-decoration-color:#000000;letter-spacing:normal;word-spacing:normal;text-transform:none;writing-mode:lr-tb;direction:ltr;text-orientation:mixed;dominant-baseline:auto;baseline-shift:baseline;text-anchor:start;white-space:normal;shape-padding:0;clip-rule:nonzero;display:inline;overflow:visible;visibility:visible;opacity:0.20249999;isolation:auto;mix-blend-mode:normal;color-interpolation:sRGB;color-interpolation-filters:linearRGB;solid-color:#000000;solid-opacity:1;vector-effect:none;fill:#3ea3ce;fill-opacity:1;fill-rule:nonzero;stroke:none;stroke-width:1;stroke-linecap:round;stroke-linejoin:round;stroke-miterlimit:4;stroke-dasharray:none;stroke-dashoffset:0;stroke-opacity:1;paint-order:normal;color-rendering:auto;image-rendering:auto;shape-rendering:auto;text-rendering:auto;enable-background:accumulate"/> <path id="path888" d="m 218.09961,-184.29297 a 0.50005,0.50005 0 0 0 -0.49414,0.39453 c -4.17325,18.02084 -1.67881,24.48644 0.9668,31.24219 2.6456,6.75575 5.44154,13.831 2.05078,33.79883 a 0.50026513,0.50026513 0 1 0 0.98633,0.16797 c 3.4128,-20.09763 0.53863,-27.57513 -2.10743,-34.33203 -2.64606,-6.75691 -5.0641,-12.76545 -0.92187,-30.65235 a 0.50005,0.50005 0 0 0 -0.48047,-0.61914 z" style="color:#000000;font-style:normal;font-variant:normal;font-weight:normal;font-stretch:normal;font-size:medium;line-height:normal;font-family:sans-serif;font-variant-ligatures:normal;font-variant-position:normal;font-variant-caps:normal;font-variant-numeric:normal;font-variant-alternates:normal;font-feature-settings:normal;text-indent:0;text-align:start;text-decoration:none;text-decoration-line:none;text-decoration-style:solid;text-decoration-color:#000000;letter-spacing:normal;word-spacing:normal;text-transform:none;writing-mode:lr-tb;direction:ltr;text-orientation:mixed;dominant-baseline:auto;baseline-shift:baseline;text-anchor:start;white-space:normal;shape-padding:0;clip-rule:nonzero;display:inline;overflow:visible;visibility:visible;opacity:0.20249999;isolation:auto;mix-blend-mode:normal;color-interpolation:sRGB;color-interpolation-filters:linearRGB;solid-color:#000000;solid-opacity:1;vector-effect:none;fill:#3ea3ce;fill-opacity:1;fill-rule:nonzero;stroke:none;stroke-width:1;stroke-linecap:round;stroke-linejoin:round;stroke-miterlimit:4;stroke-dasharray:none;stroke-dashoffset:0;stroke-opacity:1;paint-order:normal;color-rendering:auto;image-rendering:auto;shape-rendering:auto;text-rendering:auto;enable-background:accumulate"/> <path id="path890" d="m 204.87695,-188.07227 a 0.50005,0.50005 0 0 0 -0.48633,0.3418 c -2.4693,7.02804 -3.21885,11.69004 -3.10351,15.04102 0.11534,3.35097 1.12244,5.38626 2.05469,7.01172 0.93224,1.62545 1.74026,2.79841 1.71289,4.68164 -0.0274,1.88322 -0.92244,4.57777 -3.64258,9.08007 a 0.50005,0.50005 0 1 0 0.85547,0.51758 c 2.76051,-4.56912 3.75542,-7.40396 3.78711,-9.58398 0.0317,-2.18002 -0.93337,-3.60602 -1.84375,-5.19336 -0.91039,-1.58734 -1.8167,-3.37776 -1.92578,-6.54688 -0.10909,-3.16911 0.60444,-7.72065 3.04882,-14.67773 a 0.50005,0.50005 0 0 0 -0.45703,-0.67188 z" style="color:#000000;font-style:normal;font-variant:normal;font-weight:normal;font-stretch:normal;font-size:medium;line-height:normal;font-family:sans-serif;font-variant-ligatures:normal;font-variant-position:normal;font-variant-caps:normal;font-variant-numeric:normal;font-variant-alternates:normal;font-feature-settings:normal;text-indent:0;text-align:start;text-decoration:none;text-decoration-line:none;text-decoration-style:solid;text-decoration-color:#000000;letter-spacing:normal;word-spacing:normal;text-transform:none;writing-mode:lr-tb;direction:ltr;text-orientation:mixed;dominant-baseline:auto;baseline-shift:baseline;text-anchor:start;white-space:normal;shape-padding:0;clip-rule:nonzero;display:inline;overflow:visible;visibility:visible;opacity:0.20249999;isolation:auto;mix-blend-mode:normal;color-interpolation:sRGB;color-interpolation-filters:linearRGB;solid-color:#000000;solid-opacity:1;vector-effect:none;fill:#3ea3ce;fill-opacity:1;fill-rule:nonzero;stroke:none;stroke-width:1;stroke-linecap:round;stroke-linejoin:round;stroke-miterlimit:4;stroke-dasharray:none;stroke-dashoffset:0;stroke-opacity:1;paint-order:normal;color-rendering:auto;image-rendering:auto;shape-rendering:auto;text-rendering:auto;enable-background:accumulate"/> </g> <path style="opacity:0.84100001;fill:#57b6fd;fill-opacity:1;fill-rule:nonzero;stroke:none;stroke-width:6.43738842;stroke-linecap:round;stroke-linejoin:round;stroke-miterlimit:4;stroke-dasharray:none;stroke-dashoffset:0;stroke-opacity:0.37704988;paint-order:normal" d="m 131.13241,-310.18316 c 4.58805,17.20519 -6.88206,42.43943 1.14701,49.32149 8.0291,6.8821 -2.29402,12.61715 3.44104,24.08731 5.73505,11.47008 -14.91115,11.47008 -4.58805,22.94024 10.3231,11.47007 -13.76412,13.7641 3.44104,24.08723 17.20519,10.32308 -9.17609,10.32308 14.91116,25.23426 24.08723,14.91112 3.44102,4.58803 14.91114,20.64621 11.47012,16.05813 -13.76413,29.82229 -1.14699,38.99837 12.61711,9.176122 -17.20519,22.940231 -2.29403,32.11636 14.91114,9.17607 -12.61713,29.822288 -1.14702,37.851351 11.47012,8.029121 -8.02907,47.027538 1.14702,51.615574 9.17609,4.588037 -29.82232,12.617099 -16.05818,24.087245 13.76415,11.47009 -11.47011,22.940237 -1.14701,32.11631 10.3231,9.176128 -14.91114,24.087246 4.58806,33.26338 19.49919,9.17607 2.29402,13.7641 16.05815,21.79322 13.76412,8.02907 26.38127,-3.44102 8.02907,-19.49921 -18.35218,-16.058182 -13.76412,-26.381262 -10.32308,-35.55739 3.44102,-9.176073 -11.47012,-19.499211 -1.14701,-29.822291 10.3231,-10.323138 0,-14.911174 11.47009,-27.528271 11.47016,-12.6171578 4.58804,-27.528274 1.14702,-43.586456 -3.44102,-16.058181 14.91118,-14.911174 13.76416,-32.116365 -1.14701,-17.205134 21.79323,-28.675281 6.88207,-41.292377 -14.91118,-12.61716 21.79322,-34.41038 5.73504,-45.88047 -16.05813,-11.47014 0,-32.11637 -11.47009,-55.05661 -11.47016,-22.94023 4.58803,-30.96929 -5.73505,-35.55739 -10.32315,-4.58803 19.49922,1.14708 3.44102,-16.05813 -16.05817,-17.20518 16.0582,-42.43942 -8.02912,-55.0566 -24.08723,-12.61709 -47.02746,-1.14699 -47.02746,-1.14699 z" id="path836"/> <path style="opacity:0.45;fill:#3ea3ce;fill-opacity:1;fill-rule:nonzero;stroke:none;stroke-width:6.43738842;stroke-linecap:round;stroke-linejoin:round;stroke-miterlimit:4;stroke-dasharray:none;stroke-dashoffset:0;stroke-opacity:0.37704988;paint-order:normal" d="m 275.65592,-314.77119 c -19.49921,37.85139 -43.58646,61.93864 -51.61558,49.32149 -8.02905,-12.61711 24.08732,30.96935 6.88213,36.7044 -17.20521,5.73505 12.61709,6.88206 3.44102,32.1163 -9.17607,25.23426 24.08725,28.67535 9.17607,49.32156 -14.91112,20.64616 10.32314,57.350558 -16.05813,56.203549 -26.38132,-1.14701 -45.88047,61.938654 -56.2036,58.497627 -10.3231,-3.441082 -3.44104,57.350562 -28.6753,58.497572 -25.23424,1.147009 -32.11633,28.675281 -19.4992,47.027482 12.61713,18.352199 11.47012,36.7044 -13.76414,11.470145 -25.23426,-25.234254 -1.14702,-30.969356 -8.02908,-48.174489 -6.88208,-17.205192 13.76415,-11.470148 14.91116,-32.1163661 1.14702,-20.6462179 28.67528,17.2051921 26.38126,-36.7043439 -2.29401,-53.909591 24.08725,-27.528329 25.23426,-37.851409 1.14701,-10.323138 17.20519,-6.882054 18.3522,-21.793228 1.14701,-14.911169 42.43945,6.882053 22.94024,-34.410379 -19.4992,-41.29237 12.61711,-26.38126 -8.02912,-58.49758 -20.64617,-32.11635 -32.11631,-28.67526 -34.41033,-64.23267 -2.29403,-35.55739 36.7044,-59.64464 43.58646,-71.11471 6.88206,-11.47016 49.32149,-28.67529 49.32149,-28.67529 z" id="path838"/> <path style="opacity:0.45;fill:#3ea3ce;fill-opacity:1;fill-rule:nonzero;stroke:none;stroke-width:6.43738842;stroke-linecap:round;stroke-linejoin:round;stroke-miterlimit:4;stroke-dasharray:none;stroke-dashoffset:0;stroke-opacity:0.37704988;paint-order:normal" d="m 107.04516,-311.33017 c 9.17611,28.67528 -29.8223,53.90958 -19.49919,67.67369 10.3231,13.76416 -11.47012,12.61715 12.61713,22.94023 24.08725,10.32315 -14.91116,24.08725 9.17609,36.7044 24.08725,12.61711 1.14701,43.58647 19.49921,57.35057 18.35218,13.76417 1.147,48.174544 13.76413,64.23267 12.61713,16.058181 -20.64621,45.880472 -12.61713,55.0566002 8.02909,9.1760726 11.47011,14.9111165 29.82231,16.0581255 18.35216,1.14701 8.02908,34.4103833 26.38128,48.1745483 18.3522,13.764107 48.1745,6.882053 27.52827,-3.441085 C 193.07105,43.096499 203.39418,19.009254 199.95311,4.0980799 196.51207,-10.813036 180.45394,-9.6660269 171.27783,-24.577201 c -9.17609,-14.911174 -8.02907,-2.294017 1.14699,-21.793228 9.17614,-19.499208 -10.32308,-24.087244 2.29403,-38.998419 12.61715,-14.911112 -28.67528,-13.764106 -16.05815,-38.998362 12.61713,-25.2343 -19.49919,-11.47014 -9.17609,-24.08729 10.3231,-12.61711 -8.0291,-9.17607 -2.29403,-25.23426 5.73505,-16.05813 -21.79322,-11.4701 -13.76414,-27.52827 8.02907,-16.05818 -6.88206,-24.08725 -2.29403,-37.85142 4.58805,-13.7641 16.05817,0 12.61713,-20.64616 -3.44102,-20.64621 -2.29401,-58.49761 -2.29401,-58.49761" id="path840"/> <path style="opacity:0.45;fill:none;fill-opacity:1;fill-rule:nonzero;stroke:#7fc5f9;stroke-width:2.1457963;stroke-linecap:round;stroke-linejoin:round;stroke-miterlimit:4;stroke-dasharray:none;stroke-dashoffset:0;stroke-opacity:1;paint-order:normal" d="m 172.39588,-295.38287 c 24.33176,50.2857 -5.67741,51.09677 10.54375,92.46079 16.22126,41.36408 -20.27646,158.156658 -20.27646,158.156658" id="path880"/> <path style="color:#000000;font-style:normal;font-variant:normal;font-weight:normal;font-stretch:normal;font-size:medium;line-height:normal;font-family:sans-serif;font-variant-ligatures:normal;font-variant-position:normal;font-variant-caps:normal;font-variant-numeric:normal;font-variant-alternates:normal;font-feature-settings:normal;text-indent:0;text-align:start;text-decoration:none;text-decoration-line:none;text-decoration-style:solid;text-decoration-color:#000000;letter-spacing:normal;word-spacing:normal;text-transform:none;writing-mode:lr-tb;direction:ltr;text-orientation:mixed;dominant-baseline:auto;baseline-shift:baseline;text-anchor:start;white-space:normal;shape-padding:0;clip-rule:nonzero;display:inline;overflow:visible;visibility:visible;opacity:1;isolation:auto;mix-blend-mode:normal;color-interpolation:sRGB;color-interpolation-filters:linearRGB;solid-color:#000000;solid-opacity:1;vector-effect:none;fill:#7fc5f9;fill-opacity:1;fill-rule:nonzero;stroke:none;stroke-width:4.2915926;stroke-linecap:round;stroke-linejoin:round;stroke-miterlimit:4;stroke-dasharray:none;stroke-dashoffset:0;stroke-opacity:1;paint-order:normal;color-rendering:auto;image-rendering:auto;shape-rendering:auto;text-rendering:auto;enable-background:accumulate" d="m 144.06533,-337.84316 c -1.29526,0.0149 -2.86809,0.34036 -4.37006,1.45376 -3.43305,2.54479 -6.04148,8.23658 -6.26179,20.72037 -0.16335,9.25663 1.01325,22.42966 4.51089,41.23447 -3.90998,-6.74727 -8.30696,-13.67571 -13.2621,-20.79911 -0.48502,-4.52553 -1.06009,-9.21491 -1.74758,-14.10373 a 2.1460107,2.1460107 0 0 0 -2.24657,-1.87287 2.1460107,2.1460107 0 0 0 -2.00263,2.47274 c 0.30053,2.13704 0.57628,4.22923 0.8372,6.29285 -0.52362,-0.71177 -1.04853,-1.42446 -1.58346,-2.1401 a 2.1460107,2.1460107 0 0 0 -1.85625,-0.88375 2.1460107,2.1460107 0 0 0 -1.58014,3.45301 c 2.09843,2.80737 4.10332,5.58198 6.02782,8.3265 6.53742,62.22866 -5.42529,89.48339 -12.67107,113.50183 -3.90294,12.93753 -6.43845,25.0704 -3.67923,40.72435 2.75921,15.65401 10.70814,34.73235 27.4135,62.094556 a 2.1463202,2.1463202 0 1 0 3.6626,-2.238777 c -16.55797,-27.120859 -24.23391,-45.748239 -26.85131,-60.597589 -2.61739,-14.84934 -0.27769,-26.01484 3.5617,-38.74174 6.82747,-22.63184 18.36837,-49.82815 13.55706,-107.41075 5.95019,9.01421 10.97555,17.68436 15.27247,26.06509 5.41238,25.12734 14.31528,58.50552 28.27067,102.8733 1.23076,8.72596 2.51802,17.26372 4.25584,25.67147 -0.2367,3.43892 -0.47452,6.87762 -0.74517,10.66622 -0.46239,6.47357 -0.1119,12.75194 0.89488,18.88298 -15.78111,50.282176 -26.33662,100.0721758 -1.95162,179.187976 2.78132,9.023803 5.2125,17.67301 7.35845,26.000824 -0.90827,2.66725 -1.7273,5.42472 -2.4129,8.32429 -4.00684,16.9463 -3.5816,38.2796 6.52574,71.20057 a 2.1462737,2.1462737 0 1 0 4.10279,-1.26187 c -9.96535,-32.45871 -10.2608,-52.84763 -6.45364,-68.94958 0.0896,-0.37886 0.18418,-0.75334 0.27836,-1.12777 15.41352,64.12872 12.39733,107.08652 4.7792,134.65686 -4.45008,16.10519 -10.46485,26.97995 -15.32568,33.80948 -4.86081,6.82954 -8.4241,9.50082 -8.4241,9.50082 a 2.1460107,2.1460107 0 1 0 2.59809,3.41531 c 0,0 4.18147,-3.20535 9.3212,-10.42669 5.13965,-7.22139 11.38509,-18.56987 15.96774,-35.15452 8.12455,-29.4033 11.00863,-75.24482 -6.47584,-143.7962 4.23859,-11.865693 10.54541,-22.075679 16.2494,-34.531369 7.10864,-15.522859 13.10541,-34.470052 12.41714,-63.9208124 -0.24146,-10.3311994 -1.30064,-21.9646286 -3.39981,-35.2122046 4.74161,7.155308 9.50985,14.385615 14.00727,21.7881744 4.90722,8.07715052 9.50792,16.3430183 13.43953,24.9263116 -11.52345,12.613805 -26.12299,30.200576 -25.64711,65.892466 a 2.1460107,2.1460107 0 1 0 4.2869,-0.05876 c -0.44374,-33.282393 12.08019,-49.278294 23.25636,-61.555656 5.92694,13.929491 9.96307,28.737109 10.5764,44.971348 -7.14639,8.588345 -13.07912,12.535798 -13.07912,12.535798 a 2.1460107,2.1460107 0 1 0 2.38077,3.570585 c 0,0 4.65713,-3.117698 10.75825,-9.724851 -0.31776,17.636619 -4.71379,36.96017 -15.03295,58.63048 a 2.1460107,2.1460107 0 1 0 3.87217,1.84846 c 11.50654,-24.16378 15.77652,-45.696417 15.29462,-65.271476 5.15413,-6.376423 10.7653,-14.935984 15.29134,-25.878812 11.5498,-27.924215 16.08288,-71.374639 -11.05541,-133.157618 -26.97041,-61.400544 -39.93974,-86.744604 -39.10658,-111.183164 0.83316,-24.43857 15.53393,-49.26899 44.80614,-109.53541 a 2.1460107,2.1460107 0 0 0 -2.05364,-3.11038 2.1460107,2.1460107 0 0 0 -1.80633,1.23195 c -29.22531,60.16985 -44.35012,85.23747 -45.2375,111.26747 -0.88738,26.02995 12.52773,51.72742 39.46692,113.057115 26.77124,60.947264 22.12586,102.945517 11.0222,129.791137 -3.50303,8.469346 -7.64221,15.419302 -11.66755,20.970966 -1.24126,-15.602796 -5.46435,-29.949691 -11.3138,-43.413406 1.90484,-2.063629 3.73387,-4.059639 5.39134,-6.044465 2.98388,-3.5732543 5.46826,-7.1620641 6.81069,-11.24395798 1.34237,-4.08183722 1.45501,-8.62746282 -0.11758,-13.69234502 -3.14501,-10.129708 -12.64606,-22.499157 -32.24593,-40.94617 -10.16729,-9.569177 -17.95529,-18.925847 -24.01485,-28.234033 -3.37086,-12.213888 -7.38275,-25.405251 -12.12328,-39.697591 -0.03,-0.0906 -0.0576,-0.17674 -0.0876,-0.26724 16.37589,-50.21898 33.83747,-106.19697 24.26875,-196.56842 a 2.1460107,2.1460107 0 0 0 -2.17894,-1.95275 2.1460107,2.1460107 0 0 0 -2.0869,2.40626 c 9.13945,86.31681 -6.4881,140.52799 -22.27388,189.22219 -1.40232,-4.26851 -2.77274,-8.47014 -4.09393,-12.56464 1.63419,-26.52348 1.69102,-43.36191 -1.78754,-64.11714 -4.34083,-25.90044 -14.10571,-57.74736 -33.0288,-122.54465 a 2.1460107,2.1460107 0 0 0 -2.07137,-1.57571 2.1460107,2.1460107 0 0 0 -1.14657,0.33599 c 0.66997,-1.33323 1.36663,-2.13232 1.95161,-2.56591 1.69265,-1.25471 2.90081,-0.5234 2.90081,-0.5234 a 2.1475639,2.1475639 0 0 0 1.78528,-3.90652 c 0,0 -0.95395,-0.38833 -2.33528,-0.46129 -0.17267,-0.009 -0.35166,-0.0132 -0.5367,-0.0111 z m -4.69939,9.79798 a 2.1460107,2.1460107 0 0 0 0.031,0.11315 c 18.92828,64.81506 28.65842,96.62178 32.92016,122.05009 2.90472,17.33146 3.29981,31.79843 2.35083,51.95503 -0.48173,-1.52019 -0.93933,-2.98922 -1.40942,-4.48431 -0.23794,-1.69619 -0.47605,-3.38925 -0.71518,-5.10741 -3.99913,-28.73046 -8.56103,-60.51084 -27.57321,-97.96545 -5.6414,-26.24847 -7.44117,-43.26478 -7.24979,-54.10956 0.10235,-5.79919 0.78184,-9.7601 1.64556,-12.45154 z m 144.28964,5.36363 a 2.1460107,2.1460107 0 0 0 -2.10797,2.38077 c 6.26299,64.90737 -12.46154,94.89953 -20.31341,128.48817 -3.92599,16.79431 -5.01696,34.46 1.34947,57.21555 6.36643,22.75549 20.1097,50.607599 45.70657,88.28386 a 2.1460107,2.1460107 0 1 0 3.5506,-2.40961 c -25.44517,-37.453025 -38.9421,-64.94535 -45.12106,-87.0308 -6.17902,-22.0855 -5.11933,-38.75645 -1.30291,-55.08209 7.63272,-32.65124 26.75955,-64.02346 20.40544,-129.87539 a 2.1460107,2.1460107 0 0 0 -2.16673,-1.97046 z m -234.04276,9.17482 a 2.1460107,2.1460107 0 0 0 -2.05696,2.01145 c -2.34129,30.43693 8.96005,53.39074 11.91038,76.99336 1.24945,9.9956 1.0982,20.1608 -2.11239,31.23358 -2.43875,-7.66594 -5.34729,-14.35513 -8.30656,-20.52631 -5.92463,-12.35503 -11.91206,-22.57876 -14.79455,-34.50809 -2.88249,-11.92928 -2.78603,-25.68198 3.71805,-45.47698 a 2.1460107,2.1460107 0 0 0 -2.0248,-2.84092 2.1460107,2.1460107 0 0 0 -2.05363,1.5036 c -6.68656,20.35037 -6.88106,35.12892 -3.81341,47.82448 3.06763,12.69556 9.26835,23.19288 15.1006,35.35528 3.61836,7.54557 7.14613,15.75886 9.80131,25.59051 -5.24967,13.27414 -15.05679,27.96708 -32.05191,45.2408 a 2.1460107,2.1460107 0 1 0 3.05938,3.00948 c 15.11087,-15.35861 24.75128,-29.00082 30.60816,-41.51499 4.47214,21.22197 4.73712,49.79341 -5.5499,93.424595 a 2.1464741,2.1464741 0 0 0 4.17822,0.985771 c 11.30473,-47.947616 9.90525,-78.547886 4.15272,-100.986006 5.27065,-14.02414 5.86823,-26.67547 4.34678,-38.84706 -3.07147,-24.57181 -14.13607,-46.92177 -11.88931,-76.12954 a 2.1460107,2.1460107 0 0 0 -2.22218,-2.34301 z m 24.05252,14.91538 a 2.1460107,2.1460107 0 0 0 -1.91058,2.87532 c 14.92371,43.0492 22.32554,60.81794 24.27428,76.12954 1.94876,15.3116 -1.40673,28.8255 -8.29435,63.83769 -6.96766,35.41892 2.61024,47.24868 8.90978,60.547686 3.14977,6.649506 5.55376,13.711989 5.08417,25.10373 -0.46958,11.391684 -3.90646,27.108881 -12.74869,50.497974 a 2.1460397,2.1460397 0 1 0 4.01412,1.51695 c 8.93646,-23.638446 12.52326,-39.752437 13.02147,-51.83864 0.49821,-12.086147 -2.18783,-20.149501 -5.49002,-27.120747 -6.60433,-13.942543 -15.37582,-23.333163 -8.57934,-57.881963 6.87649,-34.95553 10.4023,-48.97262 8.33649,-65.2038 -2.06578,-16.23123 -9.5731,-34.01557 -24.47166,-76.99227 a 2.1460107,2.1460107 0 0 0 -2.14567,-1.47147 z m 76.12399,57.92301 c 7.97243,19.71331 12.16534,37.79197 15.06733,54.83365 -6.27414,-21.08213 -11.22369,-39.24238 -15.06733,-54.83365 z m 28.54456,112.05028 c 0.61072,1.85873 1.22218,3.71763 1.84845,5.6098 -0.0926,0.28393 -0.18457,0.56791 -0.27717,0.85162 -0.56252,-2.14414 -1.08597,-4.29702 -1.57128,-6.46142 z m -1.61897,10.79595 c 0.27257,0.95472 0.55712,1.90836 0.84832,2.86091 -0.27082,0.83277 -0.55026,1.68705 -0.81948,2.51822 -0.0745,-1.78061 -0.0848,-3.57314 -0.0288,-5.37913 z m 5.73618,1.71657 c 1.7018,5.23208 3.30125,10.30968 4.80588,15.24143 -2.04053,-4.62023 -3.76419,-9.2551 -5.23498,-13.92302 0.14188,-0.4358 0.28682,-0.88193 0.4291,-1.31841 z m -2.59918,8.03378 c 3.20405,8.906899 7.37735,17.749025 13.04478,26.615109 2.99132,10.87186 5.46349,20.943886 7.47597,30.298796 -10.54433,-16.791705 -19.33491,-33.316571 -22.4668,-50.817385 0.64007,-2.02729 1.29093,-4.06094 1.94605,-6.09652 z m -4.53308,14.444142 c 4.98602,18.805259 15.71487,36.386976 27.41018,54.20601 3.19361,17.183788 4.71408,31.7337067 5.00658,44.2505989 0.67379,28.8317511 -5.08567,46.8761221 -12.02796,62.0357961 -4.70101,10.265568 -10.01661,19.243214 -14.20569,29.229849 -1.7759,-6.590403 -3.72025,-13.364359 -5.87818,-20.365525 C 152.6627,1.233084 160.92356,-46.137767 175.31884,-93.627618 Z m 24.69899,22.277171 c 5.02514,6.510296 10.94339,13.051932 17.96483,19.660334 19.39855,18.257388 28.39186,30.404793 31.08943,39.093231 1.34873,4.344191 1.21911,7.7878863 0.13751,11.0764745 -1.08155,3.288645 -3.20388,6.456361 -6.02675,9.8368102 -1.22031,1.461367 -2.58243,2.9713903 -4.0119,4.5341573 -3.82618,-8.2198814 -8.21414,-16.12001 -12.86508,-23.775271 -6.34282,-10.440036 -13.10491,-20.455798 -19.54611,-30.30436 -1.74802,-9.271793 -3.97584,-19.285511 -6.74193,-30.121376 z" id="path842"/> <path style="opacity:1;fill:#0d4774;fill-opacity:0.30303034;fill-rule:nonzero;stroke:none;stroke-width:6.43738842;stroke-linecap:round;stroke-linejoin:round;stroke-miterlimit:4;stroke-dasharray:none;stroke-dashoffset:0;stroke-opacity:0.37704988;paint-order:normal" d="m 150.19332,-373.17852 c -37.94272,11.89211 -49.02324,22.69377 -86.34272,36.3656 -6.31235,5.41011 -8.20571,14.77155 -17.55194,15.8881 -5.60963,4.34144 -5.7864,12.91904 -14.11951,13.71299 -14.46814,7.01709 -4.58789,1.76888 -6.57084,7.96354 -2.88374,9.00857 -1.108,20.22091 9.8897,17.02303 5.39232,7.18638 15.81278,4.15739 22.38835,3.26479 9.42668,16.19177 31.22917,11.64826 45.05853,4.57722 14.93015,-6.68573 33.4512,-11.99595 48.23752,-1.91174 18.19867,5.56079 34.00645,-7.90363 50.87045,-11.95695 9.4718,11.56753 25.91159,12.38324 37.91186,4.57657 8.35481,-3.50625 17.93596,-15.08188 27.1745,-9.8321 8.9908,11.35188 31.2288,9.93274 32.51801,-6.86487 0.666,-4.88999 1.57699,-5.70207 7.17746,-4.91692 13.43903,1.88407 11.54779,-9.0611 11.62749,-19.59917 0.13733,-18.16442 -1.17287,5.00292 -10.25723,-4.9864 1.39116,-9.70722 -20.61861,-5.2725 -33.15706,-5.91375 -14.00576,-1.30748 -8.10879,-17.27684 -21.76191,-21.86006 -44.48897,-6.27363 -58.43471,-11.61312 -103.09266,-15.52988 z" id="path917"/> <path style="opacity:1;fill:#7fc5f9;fill-opacity:1;fill-rule:nonzero;stroke:none;stroke-width:6.43738842;stroke-linecap:round;stroke-linejoin:round;stroke-miterlimit:4;stroke-dasharray:none;stroke-dashoffset:0;stroke-opacity:0.37704988;paint-order:normal" d="m 285.97901,-346.88752 c 27.52827,9.17609 45.88047,-3.44108 40.14542,10.32308 -5.73505,13.76417 24.08725,28.67529 13.76417,36.7044 -10.32315,8.02908 -21.79323,-18.3522 -38.99841,-18.3522 -17.20521,0 -9.17613,33.26332 -25.23427,13.76417 -16.05819,-19.49921 -49.32149,27.52827 -63.08565,8.02908 -13.76417,-19.49922 -41.29244,20.6462 -64.23267,4.58803 -22.94024,-16.05819 -74.55578,25.23424 -79.14383,5.73503 -4.58804,-19.4992 -21.79323,4.5881 -26.38126,-8.02906 -4.58806,-12.61715 -42.43945043,24.08725 -40.1454224,5.73505 2.294028,-18.3522 22.9402324,-8.02905 20.6462124,-19.49921 -2.29401,-11.4701 13.76414,-3.44102 14.91115,-14.91112 1.14702,-11.47014 28.67531,-13.76417 28.67531,-13.76417 l 86.02587,-24.08725 z" id="path832"/> <path style="opacity:1;fill:#3ea3ce;fill-opacity:0.34848483;fill-rule:nonzero;stroke:none;stroke-width:6.98548508;stroke-linecap:round;stroke-linejoin:round;stroke-miterlimit:4;stroke-dasharray:none;stroke-dashoffset:0;stroke-opacity:0.37704988;paint-order:normal" d="m 152.92521,-360.65151 -86.0251,24.08691 c 0,0 -27.52838,2.29424 -28.6754,13.76439 -0.23058,2.30594 -1.06987,3.81579 -2.23548,4.86243 19.08161,3.03594 43.82015,-3.55679 62.63901,2.66015 38.15016,12.60313 94.98608,-8.98503 139.71886,-6.10544 34.53143,2.22288 70.83665,-3.65677 86.16699,-21.90133 -5.68066,-1.10789 -20.02727,2.56671 -38.53548,-3.60271 z" id="path900"/> <path style="opacity:1;fill:#3198c4;fill-opacity:1;fill-rule:nonzero;stroke:none;stroke-width:6.43738842;stroke-linecap:round;stroke-linejoin:round;stroke-miterlimit:4;stroke-dasharray:none;stroke-dashoffset:0;stroke-opacity:0.37704988;paint-order:normal" d="m 173.27733,-493.57732 c 113.48815,6.91993 144.68355,92.51636 143.55299,123.46503 -1.13058,30.94871 -45.10672,40.81998 -86.32976,38.16631 -41.22295,-2.65366 -93.59969,17.24077 -128.7565,5.6265 -35.15681,-11.6143 -92.7466204,25.30636 -83.83304,-61.5991 8.91357,-86.90541 80.93995,-110.19689 155.36631,-105.65874 z" id="path834"/> <path style="opacity:1;fill:#3ea3ce;fill-opacity:1;fill-rule:nonzero;stroke:none;stroke-width:2.1457963;stroke-linecap:round;stroke-linejoin:round;stroke-miterlimit:4;stroke-dasharray:none;stroke-dashoffset:0;stroke-opacity:1;paint-order:normal" d="m 155.90697,-494.1141 c -2.11567,8.2e-4 -4.22477,0.0299 -6.32722,0.0821 -81.85827,23.65281 -100.24745,103.84263 -97.48195,165.98907 16.10622,0.53731 34.85985,-3.16164 49.64637,1.72321 35.15681,11.6143 87.53357,-8.28006 128.75657,-5.62643 41.223,2.65368 85.19944,-7.21748 86.32998,-38.16622 1.1306,-30.94865 -30.06511,-116.54506 -143.55331,-123.465 -5.81454,-0.35454 -11.61413,-0.53893 -17.37044,-0.53669 z" id="path1027"/> <path style="opacity:0.45;fill:#0f5774;fill-opacity:0.4848485;fill-rule:nonzero;stroke:none;stroke-width:2.1457963;stroke-linecap:round;stroke-linejoin:round;stroke-miterlimit:4;stroke-dasharray:none;stroke-dashoffset:0;stroke-opacity:1;paint-order:normal" d="m 262.42351,-427.58566 c 39.4958,40.24984 32.71258,64.05569 17.84332,72.18435 2.93348,-14.57734 0.90182,-30.27066 -17.84332,-72.18435 z" id="path905"/> <path id="path909" d="m 61.05113,-426.87793 c -31.22936,46.95418 -20.09383,69.06142 -3.96206,74.25137 -5.62031,-13.76648 -6.5736,-29.56203 3.96206,-74.25137 z" style="opacity:0.45;fill:#0f5774;fill-opacity:0.4848485;fill-rule:nonzero;stroke:none;stroke-width:2.1457963;stroke-linecap:round;stroke-linejoin:round;stroke-miterlimit:4;stroke-dasharray:none;stroke-dashoffset:0;stroke-opacity:1;paint-order:normal"/> <path style="opacity:0.45;fill:#0f5774;fill-opacity:0.4848485;fill-rule:nonzero;stroke:none;stroke-width:2.1457963;stroke-linecap:round;stroke-linejoin:round;stroke-miterlimit:4;stroke-dasharray:none;stroke-dashoffset:0;stroke-opacity:1;paint-order:normal" d="m 101.57531,-440.09245 c -22.30772,47.35972 -14.41642,87.31026 1.71535,92.50021 -5.62031,-13.76649 -10.6289,-48.21641 -1.71535,-92.50021 z" id="path911"/> <path id="path913" d="m 221.81689,-444.17277 c 30.44921,42.58429 29.85985,83.30249 14.92221,91.30477 3.05699,-14.55194 1.79822,-49.34128 -14.92221,-91.30477 z" style="opacity:0.45;fill:#0f5774;fill-opacity:0.4848485;fill-rule:nonzero;stroke:none;stroke-width:2.1457963;stroke-linecap:round;stroke-linejoin:round;stroke-miterlimit:4;stroke-dasharray:none;stroke-dashoffset:0;stroke-opacity:1;paint-order:normal"/> </g> </svg>