<?xml version="1.0" encoding="UTF-8"?>
<svg viewBox="0 0 561.17401 859.23633" xmlns="http://www.w3.org/2000/svg">
 <g transform="translate(-104.95 -96.496)" stroke="#000">
  <g transform="matrix(.56081 -.33838 .36887 .52088 -31.466 242.44)">
   <path transform="matrix(.99947 .03261 -.03261 .99947 131.79 -138.19)" d="m266.39 1135.8c-4.2699 0.1684-216.84-342.55-219.98-345.45s-103.36-176.6-103.53-180.87 138.4-157.12 141.31-160.26 144.37-153.32 148.64-153.49 157.12 138.4 160.26 141.31 153.32 144.37 153.49 148.64-94.136 200.57-97.036 203.71-178.88 346.26-183.15 346.43z" fill="#f95"/>
   <path d="m477.42 636.4c0 11.708-54.74 91.909-111.79 91.909s-104.76-81.38-104.76-93.088 47.709 60.095 104.76 60.095 111.79-70.624 111.79-58.916z" fill="#f00" stroke-width=".63116"/>
   <path transform="translate(846.46 286)" d="m-438.48 292.66a42.829 23.454 0 1 1 -85.657 0 42.829 23.454 0 1 1 85.657 0z" fill="#f60"/>
   <g transform="translate(795.39 157.04)">
    <path d="m-316.12 269.21a38.75 89.736 0 1 1 -77.5 0 38.75 89.736 0 1 1 77.5 0z" fill="#fff"/>
    <path transform="translate(2.0395 -234.54)" d="m-332.43 547.6a27.533 31.612 0 1 1 -55.065 0 27.533 31.612 0 1 1 55.065 0z"/>
   </g>
   <g transform="translate(639.39 157.04)">
    <path d="m-316.12 269.21a38.75 89.736 0 1 1 -77.5 0 38.75 89.736 0 1 1 77.5 0z" fill="#fff"/>
    <path transform="translate(2.0395 -234.54)" d="m-332.43 547.6a27.533 31.612 0 1 1 -55.065 0 27.533 31.612 0 1 1 55.065 0z"/>
   </g>
  </g>
  <path d="m541.53 644.13c9.7344-1.9981 14.819 2.4527 23.146 8.2173 10.639 7.3651 18.253 9.3166 26.707 19.722 6.5806 8.099 7.1219 14.101 7.1219 24.652 0 11.82 2.799 23.712-5.3414 31.226-10.55 9.7386-14.79 19.688-26.707 27.939-12.258 8.4858-22.991 7.2026-37.39 9.8608-14.964 2.7625-31.414-1.1031-46.292 1.6435l-26.707 4.9304c-17.404 3.213-42.027 15.134-49.853 29.582-3.2238 5.9515-16.811 13.874-23.146 19.722-6.9289 6.3957-13.372 13.987-19.585 19.722-6.5465 6.0427-12.489 13.166-19.585 18.078-10.279 7.1162-16.606 13.408-24.927 23.008-7.2284 8.3402-13.098 13.734-19.585 19.722-5.5803 5.1509-3.5609-3.7233-3.5609-6.5738" fill="none" stroke-width=".83875"/>
  <path transform="matrix(.59527 .38018 -.38112 .59379 906.8 690.37)" d="m-403.81 320.2c-0.95376 0.28259-35.359-33.55-36.081-34.234s-36.313-33.267-36.081-34.234 46.734-13.847 47.688-14.13 46.966-14.814 47.688-14.13-11.375 47.397-11.607 48.364-10.654 48.081-11.607 48.364z" fill="#06f"/>
  <path transform="matrix(-.64995 -.29416 .28112 -.63954 285.64 709.12)" d="m-403.81 320.2c-0.95376 0.28259-35.359-33.55-36.081-34.234s-36.313-33.267-36.081-34.234 46.734-13.847 47.688-14.13 46.966-14.814 47.688-14.13-11.375 47.397-11.607 48.364-10.654 48.081-11.607 48.364z" fill="#0066fe"/>
  <path transform="matrix(.29639 -.60959 .70202 .23759 452.94 481.22)" d="m-403.81 320.2c-0.95376 0.28259-35.359-33.55-36.081-34.234s-36.313-33.267-36.081-34.234 46.734-13.847 47.688-14.13 46.966-14.814 47.688-14.13-11.375 47.397-11.607 48.364-10.654 48.081-11.607 48.364z" fill="#d42aff"/>
  <path transform="matrix(.55593 .42792 -.43728 .55985 764.56 879.49)" d="m-403.81 320.2c-0.95376 0.28259-35.359-33.55-36.081-34.234s-36.313-33.267-36.081-34.234 46.734-13.847 47.688-14.13 46.966-14.814 47.688-14.13-11.375 47.397-11.607 48.364-10.654 48.081-11.607 48.364z" fill="#5fd35f"/>
  <path transform="matrix(-.59667 -.37831 .37893 -.59499 9.9991 785.59)" d="m-403.81 320.2c-0.95376 0.28259-35.359-33.55-36.081-34.234s-36.313-33.267-36.081-34.234 46.734-13.847 47.688-14.13 46.966-14.814 47.688-14.13-11.375 47.397-11.607 48.364-10.654 48.081-11.607 48.364z" fill="#5fd35f"/>
  <path transform="matrix(-.27392 .61848 -.71031 -.21557 551.77 1049.9)" d="m-403.81 320.2c-0.95376 0.28259-35.359-33.55-36.081-34.234s-36.313-33.267-36.081-34.234 46.734-13.847 47.688-14.13 46.966-14.814 47.688-14.13-11.375 47.397-11.607 48.364-10.654 48.081-11.607 48.364z" fill="#d42aff"/>
  <path transform="matrix(.52853 .03798 -.00432 .54398 513.55 78.961)" d="m-303.88 254.93c-0.98908 2.1195-114.17 9.9549-116.5 10.158s-115.16 12.074-116.5 10.158 48.465-103.85 49.454-105.97 47.124-105.77 49.454-105.97 65.708 93.899 67.049 95.815 68.038 93.696 67.049 95.815z" fill="#fc0"/>
  <path transform="matrix(-.52817 -.05415 .02005 -.54261 -60.386 328.62)" d="m-303.88 254.93c-0.98908 2.1195-114.17 9.9549-116.5 10.158s-115.16 12.074-116.5 10.158 48.465-103.85 49.454-105.97 47.124-105.77 49.454-105.97 65.708 93.899 67.049 95.815 68.038 93.696 67.049 95.815z" fill="#fc0"/>
  <path transform="matrix(-.59667 -.37831 .37893 -.59499 129.34 233.66)" d="m-403.81 320.2c-0.95376 0.28259-35.359-33.55-36.081-34.234s-36.313-33.267-36.081-34.234 46.734-13.847 47.688-14.13 46.966-14.814 47.688-14.13-11.375 47.397-11.607 48.364-10.654 48.081-11.607 48.364z" fill="#f06"/>
  <path transform="matrix(.55708 .4345 -.43496 .55534 883.58 331.05)" d="m-403.81 320.2c-0.95376 0.28259-35.359-33.55-36.081-34.234s-36.313-33.267-36.081-34.234 46.734-13.847 47.688-14.13 46.966-14.814 47.688-14.13-11.375 47.397-11.607 48.364-10.654 48.081-11.607 48.364z" fill="#f06"/>
  <path transform="matrix(.5086 .49037 -.49064 .50682 543.24 576.89)" d="m-403.81 320.2c-0.95376 0.28259-35.359-33.55-36.081-34.234s-36.313-33.267-36.081-34.234 46.734-13.847 47.688-14.13 46.966-14.814 47.688-14.13-11.375 47.397-11.607 48.364-10.654 48.081-11.607 48.364z" fill="#f06"/>
  <path transform="matrix(-.45853 -.53748 .53758 -.45674 -176.1 330.09)" d="m-403.81 320.2c-0.95376 0.28259-35.359-33.55-36.081-34.234s-36.313-33.267-36.081-34.234 46.734-13.847 47.688-14.13 46.966-14.814 47.688-14.13-11.375 47.397-11.607 48.364-10.654 48.081-11.607 48.364z" fill="#f06"/>
  <path transform="matrix(-.45215 -.54285 .54293 -.45036 -41.718 810.36)" d="m-403.81 320.2c-0.95376 0.28259-35.359-33.55-36.081-34.234s-36.313-33.267-36.081-34.234 46.734-13.847 47.688-14.13 46.966-14.814 47.688-14.13-11.375 47.397-11.607 48.364-10.654 48.081-11.607 48.364z" fill="#5fd35f"/>
 </g>
</svg>
