<?xml version='1.0' encoding='utf-8'?>
<svg xmlns="http://www.w3.org/2000/svg" enable-background="new 0 0 850.39 850.39" version="1.1" viewBox="0 0 850.39 850.39">
<path d="m380.52 326.4c-0.771 4.503-6.479 6.363-9.446 9.436-4.375 4.531-3.931 10.335-5.946 15.844-4.187 11.435-17.687 17.363-21.005 30.184-1.653 6.387 0.311 11.053 0.937 16.867 0.524 4.861-3.018 9.149-2.009 13.741 1.289 5.869 7.792 7.116 10.566 11.789 2.646 4.458 0.754 9.329 1.274 14.074 0.96 8.76 8.429 14.677 16.918 15.216-7.856-2.941-3.23-20.126 0.979-24.415-0.328 8.297 13.048 13.616 19.26 15.744 1.116-8.512 3.664-13.695 12.455-15.644 6.958-1.539 22.419-0.752 26.162-8.061 2.578 3.924 6.549 8.2 7.74 12.829 1.156 4.495 1.08 14.877-2.439 18.465 7.746-3.362 12.086-8.784 15.574-16.137 2.016 5.715 3.607 12.562 1.252 18.489 3.025-9.526 14.699-17.386 19.732-26.579 6.402-11.689 10.693-24.546 14.109-37.523 6.109-23.205 0.078-48.419-20.66-62.15-13.25-8.772-29.691-14.443-46.13-13.14-7.362 0.584-14.674 0.846-21.837 2.637-4.59 1.148-15.882 2.925-17.431 7.804" fill="#CF7528"/>
<path d="m394.52 351.11c20.402-2.605 18.034-17.736 18.034-17.736l32.297-6.962s-4.188 19.439-1.449 24.427c1.307 2.378 10.949 5.481 10.949 5.481 2.352 8.781-28.895 26.072-37.986 26.244-9.383 0.177-31.154-30.265-21.845-31.454z" fill="#F5B6A1"/>
<path d="m432.11 214.03c10.318-0.407 18.041-3.342 27.512 2.5 3.891 2.399 7.307 5.539 9.344 9.569 3.154 6.231 3.674 8.868 9.439 12.677 5.41 3.574 7.904 6.368 8.719 12.739 0.574 4.51-0.488 10.401 2.387 14.143 3.107 4.043 8.488 5.34 11.258 10.382 2.924 5.316 2.521 10.336 1.52 16.307-1.09 6.499-5.414 14.063 2.986 17.667 2.125 0.912 7.783 1.984 9.775 0.375 2.551-2.063 1.561-6.696-1.305-7.725 8.117 1.844 10.852 7.706 9.986 15.585-1.049 9.579-10.16 10.095-18.443 9.431 6.033 4.637-3.078 10.6-0.803 15.937 2.725 6.396 15.156 2.474 9.646-3.748 4.139 5.358 9.598 7.473 8.391 15.323-0.982 6.392-7.047 8.08-13.086 7.322 4.887 4.065-4.938 10.675 3.279 14.217 5.775 2.492 11.236 0.192 15.598 6.455 2.801 4.025 3.152 11.042-0.258 14.896-3.475 3.929-13.84 5.427-17.57 1.597 4.955 1.296 5.398-6.016 0.508-6.511-5.807-0.587-6.443 5.836-4.58 9.064 3.74 6.48 12.148 12.522 20.242 10.036-2.16 10.466-12.91 11.457-21.986 10.962-1.039 9.829 14.828 11.767 21.566 12.375-5.221 2.427-7.652 6.992-14.123 8.089-5.895 0.999-11.471-0.596-16.666-3.063-4.158 11.149 11.393 15.51 19.334 17.015-11.219 5.104-25.967 5.471-35.428-3.13-0.201 4.784 0.424 9.136 5.566 11.165-11.867-5.257-28.143-9.01-27.309-24.918 0.262-4.988 1.078-5.031-1.732-9.18-1.836-2.71-4.646-5.031-4.988-8.706-0.445-4.757 7.912-11.505 2.285-15.312-0.271 6-7.006 8.411-10.607 3.258 15.547-4.317-4.082-19.751 3.51-25.711 4.201-3.3 9.008-1.718 8.59-9.141-0.254-4.516-2.236-7.095-1.291-11.955 0.348-1.803 2.26-5.21 1.789-6.794-0.877-2.936-2.654-1.54-5.133-2.665-4.139-1.879-7.564-2.06-9.742-9.628-2.881-10.016 0.342-23.548 0.934-33.908 0.555-9.763-2.334-20.023-3.293-29.904-0.91-9.365 0.775-20.441-1.73-29.448-1.926-6.924-7.117-10.887-7.238-18.104-0.105-6.36 0.059-13.05 1.096-19.669 1.311-0.191 2.578 0.119 3.594 0.835" fill="#CF7528"/>
<path d="m433.65 214.73c-9.515-3.51-14.714-7.473-25.645-4.916-4.997 1.169-15.905 1.835-19.046 5.857-4.216 5.398-5.137 6.934-11.767 8.819-5.435 1.544-11.482 3.643-14.921 8.496-2.902 4.098-1.069 9.75-4.898 13.586-3.805 3.812-8.152 3.49-11.334 8.315-4.171 6.322-0.857 7.892 0.058 14.555 0.839 6.112-2.983 11.523-9.399 9.656-0.967-2.56-1.828-5.445-0.381-7.976-6.954 2.069-10.003 8.708-8.611 15.823 1.6 8.19 7.868 10.378 15.326 11.169-9.995-0.576-5.577 11.738-7.005 16.988-2.075 7.641-15.218 5.715-15.69-1.076-3.327 4.627-7.438 7.973-5.22 14.448 1.795 5.236 7.457 8.002 12.541 8.431-3.263 0.274-4.787 1.619-5.697 4.65-1.072 3.562 1.657 4.696 1.431 7.15-0.524 5.674-7.461 4.361-9.674 9.709-1.926 4.654 2.839 9.799-0.726 13.5-3.81 3.955-9.244-0.803-11.394-4.555-2.352 4.005-3.436 8.346-1.592 12.829 1.31 3.184 6.822 9.475 10.416 8.073-4.17 0.22-5.581 3.97-8.9 5.95-3.056 1.824-6.724 0.937-9.942 1.585 1.172 8.4 14.598 19.203 22.872 12.833-5.361 2.172-5.726 9.997-3.267 14.55 3.064 5.681 7.605 6.863 13.543 7.74-3.847-2.866-1.152-12.327 2.609-14.064-0.367 5.984 0.301 5.5 3.953 9.521 3.357 3.696 1.533 6.22 3.116 11.073 2.219 6.8 14.792 14.693 21.768 10.969-6.281-0.986-6.261-13.216-5.99-17.928 0.178-3.116 1.164-6.447 0.899-9.548-0.322-3.759-2.219-6.976-1.986-10.818 0.852 5.837 9.489 7.562 14.581 6.892-4.632-3.194-4.954-11.615-4.931-16.782 0.036-8.327 5.339-8.337 8.492-14.176 3.147-5.827 0.488-12.959 0.354-18.734-0.235-10.025 6.633-7.01 14.037-6.661 1.511-2.568 5.541-11.435 7.841-12.051-0.315 0.084 4.676 1.701 5.697 1.741 2.963 0.115 4.569-0.338 7.185-1.779 10.702-5.893 13.224-17.882 14.899-29.211 1.727-11.671 3.581-23.256 5.278-34.88 1.83-12.525 12.758-23.45 12.366-36.283-0.34-11.177-4.014-23.094-2.787-34.169" fill="#CF7528"/>
<path d="m381.75 280.21c-0.094 2.065-2.228 5.875-2.301 7.941-0.076 2.14 1.799 8.374 1.799 8.374s-0.972 16.857 1.758 21.51c5.079 8.657 20.514 19.067 34.549 19.391 15.385 0.355 35.467-10.153 40.545-17.802 6.357-9.576 3.941-23.492 3.941-23.492s6.051-26.188 2.479-33.897c-4.305-9.283-22.969-22.524-33.076-24.105-9.42-1.474-29.64 1.062-37.622 6.278-5.451 3.562-16.405 20.226-16.405 20.226s4.518 11.538 4.333 15.576z" fill="#F5B6A1"/>
<path d="m381.22 463.41c0.418-8.365 23.392-2.244 33.489-1.179 28.673 3.024 21.533-11.169 31.578-6.782 56.039 24.462 114.32 227.5 114.32 227.5s-80.408 6.626-155.11-1.254c-79.021-8.334-105.57-24.413-105.57-24.413s78.943-147.13 81.285-193.87z" fill="#F4BAD5"/>
<path d="m474.46 363.65c8.538 12.247 24.461 54.227 24.461 54.227s9.606 40.123 5.865 48.302c-1.477 3.23-9.942 3.179-12.706 0.949-8.771-7.071-11.053-41.458-11.053-41.458l-19.029-34.226s-4.894-19.125-4.018-25.526c0.249-1.807 2.32-5.079 3.679-6.297 1.468-1.317 11.64 2.364 12.801 4.029z" fill="#F5B6A1"/>
<path d="m486.77 461.79c-1.46 1.289-2.623 2.761-4.122 4.035-1.2 1.023-3.961 3.361-2.521 5.124 1.554 1.901 3.763-0.226 5.044-1.008 1.737-1.058 4.473-0.093 5.884-1.435-0.676 2.809 3.8 0.758 0.403 16.287-0.204 0.938-0.953 4.521 0.955 4.158 0.664-0.128 4.712-9.592 4.836-8.706 0.138 1.02-1.303 7.176-1.592 8.769-0.372 2.054-1.282 4.522 0.839 4.702 1.071 0.093 2.5-4.558 2.919-6.206 0.383-1.501 0.393-3.029 0.767-4.509 0.184-0.734-1.937 11.217-1.247 13.522 0.601 2.009 1.932 1.174 2.626-0.319 0.797-1.717 2.188-12.142 2.199-11.156 0.012 1.067-1.235 8.14 0.813 8.485 1.415 0.483 2.555-5.188 2.906-8.455 0.377-3.52 1.031-7.082 0.693-10.638-0.552-5.824-2.708-12.789-8.774-14.631-4.665-1.418-10.06-3.027-12.895 2.19" fill="#F5B6A1"/>
<g fill="#F5B6A1">
	<path d="m370.27 352.55c-7.709 12.786-20.818 55.728-20.818 55.728s-6.929 40.674-2.653 48.587c1.687 3.124 10.131 2.511 12.741 0.104 8.283-7.637 8.283-42.1 8.283-42.1l16.721-35.411s3.617-19.407 2.318-25.736c-0.367-1.785-2.65-4.915-4.086-6.04-1.553-1.216-11.458 3.13-12.506 4.868z"/>
	<path d="m362.99 459.35c1.06 1.634 1.788 3.363 2.888 4.992 0.883 1.309 2.913 4.303 1.054 5.612-2.007 1.416-3.565-1.227-4.589-2.323-1.391-1.485-4.284-1.289-5.283-2.962-0.103 2.888-3.863-0.29-4.759 15.581-0.056 0.961-0.296 4.611-2.037 3.75-0.604-0.301-1.965-10.502-2.321-9.685-0.406 0.946-0.671 7.262-0.82 8.874-0.193 2.078 0.021 4.7-2.07 4.305-1.059-0.198-1.185-5.063-1.147-6.762 0.034-1.549 0.437-3.023 0.474-4.548 0.02-0.759-1.144 11.324-2.428 13.36-1.119 1.773-2.178 0.612-2.445-1.014-0.307-1.866 1.15-12.283 0.876-11.336-0.298 1.024-0.994 8.172-3.06 7.955-1.492 0.086-1.07-5.683-0.531-8.924 0.581-3.492 0.908-7.1 2.188-10.436 2.094-5.461 6.042-11.591 12.379-11.74 4.875-0.112 10.504-0.215 11.834 5.571"/>
</g>
<path d="m428.06 307.19c0.402-3.831-4.393-8.514-9.958-9.101-5.563-0.587-10.623 4.154-11.027 7.985s4.001 5.301 9.564 5.888 11.017-0.941 11.421-4.772z" fill="#F6DBD2" opacity=".1"/>
<ellipse transform="matrix(.9945 .1048 -.1048 .9945 34.667 -42.453)" cx="421.15" cy="308.53" rx="1.395" ry=".971" fill="#F15825" opacity=".2"/>
<ellipse transform="matrix(.9945 .105 -.105 .9945 34.695 -41.728)" cx="413.75" cy="308.73" rx="1.395" ry=".971" fill="#F15825" opacity=".2"/>
<ellipse transform="matrix(.9945 .1049 -.1049 .9945 35.124 -39.627)" cx="394.34" cy="314.15" rx="10.279" ry="10.062" fill="#F8A286" opacity=".5"/>
<ellipse transform="matrix(.9945 .1049 -.1049 .9945 35.104 -45.08)" cx="446.09" cy="311.16" rx="10.279" ry="10.062" fill="#F8A286" opacity=".5"/>
<path d="m453.2 286.09c0.199-1.9 0.547-5.19 0.547-5.19s-7.297-5.654-11.738-6.123c-6.764-0.713-12.721 3.195-13.305 8.729-0.291 2.767 1.566 8.496 1.566 8.496s6.242 2.46 9.623 2.817c6.766 0.714 12.723-3.195 13.307-8.729z" fill="#fff"/>
<path d="m451.32 285.62c0.471-4.472-2.779-8.478-7.258-8.95-4.484-0.473-8.498 2.766-8.969 7.238-0.473 4.47 2.777 8.477 7.262 8.95 4.479 0.472 8.493-2.768 8.965-7.238z" fill="#94BCE4"/>
<ellipse transform="matrix(.9945 .1049 -.1049 .9945 32.149 -45.041)" cx="444.33" cy="283.16" rx="5.598" ry="5.486" fill="#231F20"/>
<ellipse transform="matrix(.9945 .1048 -.1048 .9945 32.497 -44.592)" cx="440.71" cy="287.04" rx="2.03" ry="1.894" fill="#fff"/>
<path d="m455.16 279.29c-2.867-2.92-10.477-8.533-17.1-7.89-17.206 1.671-9.301 21.097-9.301 21.097l0.846 0.089s-6.327-16.856 9.059-18.805c5.777-0.732 15.885 6.676 15.885 6.676s0.924-0.847 0.611-1.167z" stroke="#000" stroke-miterlimit="10"/>
<path d="m405.31 291.17c-0.087-5.293-3.935-10.187-9.38-10.761-4.567-0.482-10.127 4.651-10.127 4.651s-0.663 3.11-0.755 3.973c-0.563 5.337 3.395 10.129 8.843 10.705 4.766 0.502 11.458-5.483 11.458-5.483s-0.026-2.413-0.039-3.085z" fill="#fff"/>
<ellipse transform="matrix(.9945 .1049 -.1049 .9945 32.591 -39.899)" cx="395.57" cy="289.85" rx="8.157" ry="8.14" fill="#94BCE4"/>
<ellipse transform="matrix(.9945 .1049 -.1049 .9945 32.455 -40.007)" cx="396.43" cy="288.44" rx="5.598" ry="5.486" fill="#231F20"/>
<ellipse transform="matrix(.9945 .1048 -.1048 .9945 32.777 -39.586)" cx="393.1" cy="292.13" rx="2.029" ry="1.894" fill="#fff"/>
<path d="m381.46 286.44c1.165-3.069 7.162-9.156 13.942-8.44 13.392 1.413 11.09 16.301 11.09 16.301s1.461-14.148-11.391-14.605c-9.035-0.322-11.701 9.169-11.701 9.169s-2.214-1.699-1.94-2.425z" fill="#231F20" stroke="#231F20" stroke-miterlimit="10"/>
<path d="m443.89 258.96c-2.891-0.305-5.01 0.276-7.789 0.981-1.391 0.353-6.008-0.633-5.779 1.498 0.131 1.212 1.6 1.589 2.451 2.052 1.088 0.593 2.031 1.354 3.271 1.602 2.484 0.496 4.459-1.084 6.648-1.745 1.484-0.449 3.293-0.416 4.891-0.1 1.176 0.233 4.469 1.548 4.232-0.496-0.297-2.596-5.938-3.774-8.035-3.924" fill="#CF7528"/>
<path d="m389.08 268.55c2.095 0.221 4.735 0.97 5.308-1.757 0.56-2.669-2.762-2.971-4.666-3.176-2.286-0.247-4.98 0.504-6.769 2.003-1.313 1.103-4.121 2.201-4.738 3.852-0.217 0.578-0.211 1.136-2e-3 1.693 1.274 0.318 3.705-2.129 4.9-2.722 1.328-0.658 4.633-0.886 5.967 0.107" fill="#CF7528"/>
<path d="m405.56 319.76c0.515 0.145 1.127-0.322 1.6-0.49 0.601-0.212 3.776-1.537 4.779-2.006 2.145-1.004 3.896-0.853 5.636 0.748 0.694-0.854 1.226-1.427 2.303-1.828 0.982-0.367 2.007-0.143 3.052-0.036 1.051 0.108 4.873 2.068 6.144 2.322 0.195 0.039 0.412 0.112 0.588 0.178-1.109 1.633-5.952 5.911-6.956 6.436-1.189 0.62-2.447 1.001-3.771 1.169-2.752 0.35-5.367-0.851-7.514-2.361-0.979-0.689-2.096-1.254-3.095-2.001-0.886-0.664-1.712-1.417-2.588-2.113" fill="#F26222" opacity=".5"/>
<path d="m428.96 233.56c-0.498 4.727 11.447 19.181 14.451 22.092 3.619 3.508 5.668 5.244 6.316 10.284 0.617 4.807 5.824 6.596 6.027 11.42 0.105 2.487 0.242 3.516 1.836 5.444 1.555 1.881 2.16 2.456 1.982 4.932-0.17 2.327-0.467 3.744 0.486 5.884 0.871 1.959 2.033 3.664 2.932 5.506 1.625 3.331 0.393 7.875 0.525 11.476 0.219 5.861-4.799 8.201-6.125 13.3-0.402 1.548-0.43 3.522-0.301 5.049 0.213 2.461 0.854 2.98-0.758 4.982-3.395 4.215-1.951 8.469-0.199 13.476 1.557 4.442 3.213 8.98 7.717 11.015 3.803 1.717 11.26 1.399 11.063-4.181-7.58 2.522-9.898-6.729-9.148-12.421 0.826-6.25 7.316-9.971 8.725-15.864 0.527 2.611-0.467 5.691 0.748 8.458 1.148 2.621 3.186 4.838 5.838 5.982 3.947 1.704 14.885 3.689 15.91-2.947-4.271-2.242-6.572-10.277-7.713-14.623-1.459-5.563 0.186-11.104-0.125-16.753-0.395-7.135-6.379-11.315-7.691-17.899-0.57-2.871 0.176-6.08 0.486-9.025 0.459-4.349 0.395-8.614-0.998-12.726-1.83-5.414-5.42-10.045-7.416-15.406-1.047-2.813-1.414-5.839-2.936-8.48-2.074-3.601-6.109-6.163-9.662-8.038-5.898-3.113-13.131-3.504-19.564-4.958-5.279-1.193-8.23 1.445-9.885 6.007" fill="#CF7528"/>
<path d="m424.68 242.52c-5.974 5.873-15.064 9.385-23.455 8.491 2.255 0.268 3.646-2.648 4.296-4.188-3.786 3.126-9.191 7.443-14.456 7.548 1.786 0.295 2.013-2.011 2.348-3.231-7.429 4.048-13.707 11.607-11.979 20.466 0.568 2.914 1.874 8.518 0.714 11.46-0.787 2.001-2.806 2.938-3.358 5.24-0.586 2.445 0.049 3.415 0.843 5.46 1.111 2.863-0.222 7.511-0.676 10.655-0.575 3.998-2.601 7.113-3.038 11.111-0.97 8.879 7.933 18.942 15.251 15.39 0.073 2.143 2.04-1.389 0 0 3.573 0.292 0.395 5.794 3.388 4.121-1.308 3.788 3.733 1.664-0.098 3.664-1.32 0.689-4.442 0.879-5.449 1.828-1.143 1.08-0.5 4.337-0.191 5.936 1.014 5.263 2.56 9.58 1.127 15.12-0.637 2.458-1.991 4.613-3.966 6.264-2.366 1.978-4.646 1.544-7.658 1.124-2.075-0.29-4.083-0.585-5.389-2.401 2.359 0.293 4.057-1.545 3.562-3.91-0.509-2.423-2.904-2.223-4.718-3.49-4.251-2.974-4.223-10.06-5.024-14.803-1.938-11.477-6.057-21.662-4.799-33.583 1.469-13.917 2.529-27.795 7.172-40.965 1.601-4.535 3.252-8.947 5.034-13.428 1.519-3.817 1.589-8.062 3.259-11.695 3.417-7.425 9.418-13.346 17.004-16.569 4.04-1.716 7.162-3.394 11.599-2.749 4.44 0.646 8.801 2.431 12.993 3.768 3.374 1.075 9.939 2.432 11.083 6.407 0.605 2.102-0.482 2.938-1.908 3.998-1.334 0.991-2.26 2.265-3.533 3.191" fill="#CF7528"/>
<path d="m450.03 354.55s13.938 0.283 22.955 5.867c5.514 3.415 8.773 15.75 8.773 15.75l-21.242 15.19-10.486-36.807z" fill="#F4BAD5"/>
<path d="m381.02 463.41s3.483-52.262-4.318-72.993c-6.655-17.684 16.296-40.564 16.296-40.564 5.369 0.566 9.91-0.94 9.91-0.94s-5.716 11.864-3.673 16.835c2.362 5.749 19.688 8.636 24.508 8.943 4.932 0.314 15.182 0.743 18.821-6.053 1.881-3.513 7.469-14.083 7.469-14.083l10.674 4.038s-3.365 4.487-3.713 6.276c-1.229 6.342 4.398 19.109 3.875 25.548-0.381 4.683-6.768 12.54-7.693 17.146-2.014 10.027 5.15 53.586 5.15 53.586s-30.588 5.78-42.238 5.052c-11.143-0.696-35.068-2.791-35.068-2.791z" fill="#F4BAD5"/>
<path d="m457.43 455.44s-40.87 16.957-76.352 0.767l-0.277 9.988s26.063 18.688 80.102 0.061l-3.473-10.816z" fill="#ED77AE"/>
<path d="m393 349.85s-18.119-2.374-26.299 7.414c-3.399 4.067-9.939 18.729-9.939 18.729l22.06 9.473 14.178-35.616z" fill="#F4BAD5"/>
<path d="m400.98 163.25l7.391 48.991s6.699 8.908 16.314 8.908c11.54 0 17.342-6.509 17.342-6.509l6.916-50.019-15.209 25.3-8.773-24.957-8.423 25.118-15.558-26.832z" fill="#FDB92E"/>
<path d="m414.17 212.25c8.975 8.975 27.36 1.746 27.36 1.746s-5.797 6.356-17.551 6.356c-5.787 0-13.591-5.419-14.486-9.392-2.42-10.746-7.555-42.364-7.555-42.364s8.234 39.656 12.232 43.654z" fill="#FED92E" opacity=".2"/>
<ellipse cx="424.96" cy="164.2" rx="3.034" ry="3.411" fill="#FED92E"/>
<ellipse cx="448.94" cy="164.62" rx="3.033" ry="3.411" fill="#FED92E"/>
<ellipse cx="402.03" cy="164.62" rx="3.034" ry="3.411" fill="#FED92E"/>
<path d="m450.03 468.02s25.596 40.071 38.868 93.898c14.627 59.321 18.015 123.44 18.015 123.44l53.693-2.414s-29.852-90.085-47.355-131.22c-24.353-57.23-53.067-87.692-53.067-87.692l-10.154 3.99z" fill="#ED77AE" opacity=".1"/>
<path d="m451.12 459.36l6.871-2.162s-6.871-36.294-4.816-49.639c0.678-4.396 5.455-8.463 7.344-16.201 0.403-1.656-14.533 17.586-16.188 24.246-2.78 11.202 6.789 43.756 6.789 43.756z" fill="#ED77AE" opacity=".1"/>
	<path d="m468.76 455.71c2.525-5.074 2.082-10.424-0.988-11.953-3.072-1.527-7.609 1.347-10.131 6.423-2.525 5.069 0.99 11.948 0.99 11.948s7.605-1.347 10.129-6.418z" fill="#ED77AE"/>
	<path d="m471.53 464.94c5.566-1.065 9.555-4.658 8.912-8.027-0.646-3.37-5.682-5.238-11.248-4.17-5.563 1.062-8.906 8.025-8.906 8.025s5.678 5.236 11.242 4.172z" fill="#E591BE"/>
	<path d="m447.36 459.69c-5.443 1.581-9.078 5.53-8.123 8.824 0.957 3.295 6.145 4.686 11.586 3.102 5.441-1.577 8.119-8.822 8.119-8.822s-6.142-4.684-11.582-3.104z" fill="#E591BE"/>
	<path d="m460.77 449.84c-1.996-5.305-6.213-8.626-9.424-7.421-3.211 1.208-4.197 6.487-2.199 11.792 1.99 5.303 9.42 7.416 9.42 7.416s4.196-6.484 2.203-11.787z" fill="#E591BE"/>
	<path d="m457.5 476.32c1.988 5.308 6.203 8.632 9.416 7.431 3.213-1.206 4.203-6.483 2.211-11.79-1.984-5.305-9.412-7.425-9.412-7.425s-4.203 6.48-2.215 11.784z" fill="#E591BE"/>
	<path d="m465.1 472.29c5.096 2.474 10.443 1.979 11.939-1.107 1.5-3.085-1.422-7.592-6.516-10.067-5.1-2.472-11.945 1.106-11.945 1.106s1.424 7.594 6.522 10.068z" fill="#ED77AE"/>
	<path d="m468.45 464.63c4.346-1.298 7.23-4.48 6.447-7.11-0.783-2.629-4.941-3.71-9.285-2.413-4.346 1.294-6.447 7.105-6.447 7.105s4.943 3.711 9.285 2.418z" fill="#F8C3DA"/>
	<path d="m452.2 452c-5.076-2.521-10.424-2.076-11.953 0.995-1.525 3.073 1.354 7.606 6.428 10.127 5.072 2.52 11.949-0.995 11.949-0.995s-1.35-7.606-6.424-10.127z" fill="#ED77AE"/>
	<path d="m448.47 468.6c-2.477 5.091-1.988 10.441 1.098 11.941 3.086 1.499 7.594-1.417 10.072-6.512s-1.096-11.942-1.096-11.942-7.594 1.417-10.074 6.513z" fill="#ED77AE"/>
	<path d="m457.28 472.02c1.658 4.222 5.074 6.827 7.627 5.827 2.555-1.006 3.279-5.24 1.621-9.456-1.66-4.222-7.625-5.825-7.625-5.825s-3.281 5.24-1.623 9.454z" fill="#F8C3DA"/>
	<path d="m460.6 452.58c-1.994-4.072-5.607-6.396-8.07-5.189-2.469 1.207-2.846 5.485-0.854 9.557 1.994 4.073 8.072 5.188 8.072 5.188s2.844-5.489 0.852-9.556z" fill="#F8C3DA"/>
	<path d="m449.55 460.22c-4.273 1.513-6.994 4.837-6.08 7.423 0.914 2.588 5.123 3.456 9.395 1.944 4.277-1.513 6.078-7.422 6.078-7.422s-5.124-3.456-9.393-1.945z" fill="#F8C3DA"/>
	<path d="m462 464.04c0.762-1.527 0.225-3.342-1.199-4.053-1.422-0.705-3.195-0.042-3.955 1.487-0.76 1.527-0.223 3.341 1.201 4.051 1.424 0.708 3.197 0.043 3.953-1.485z" fill="#ED77AE"/>
<path d="m467.19 386.59l-5.433 3.884 19.663 34.887c0.778 6.911 0.752 6.88 2.472 21.712 1.148 9.901 5.611 15.063 5.611 15.063s-1.054-28.54-3.331-38.404c-1.919-8.312-18.982-37.142-18.982-37.142z" fill="#EF756A" opacity=".1"/>
<path d="m373.1 383.01s-6.917 21.962-8.353 29.489c-2.022 10.601-4.349 42.945-4.349 42.945s3.474-1.424 6.166-20.437c0.839-5.931 1.26-20.135 1.26-20.135l9.965-21.104s-1.445-2.903-1.716-3.943c-0.366-1.407-0.575-5.785-0.575-5.785l-2.398-1.03z" fill="#EF756A" opacity=".1"/>
<path d="m431.56 335.36l7.179-2.524s0.507 9.447 1.978 13.423c2.494 6.747 8.699 8.234 8.699 8.234l-1.573 3.514s-11.003-1.733-12.93-7.764c-1.062-3.325-3.353-14.883-3.353-14.883z" fill="#EF756A" opacity=".1"/>
</svg>