<?xml version="1.0" encoding="UTF-8"?>
<svg width="210mm" height="297mm" version="1.1" viewBox="0 0 744.09448819 1052.3622047" xmlns="http://www.w3.org/2000/svg">
 <g transform="translate(-7.3581)" fill-rule="evenodd">
  <path d="m358.44 392.52c12.562 20.397 23.167 88.308 8.6945 96.141-14.472 7.8331-48.541-47.378-61.102-67.775-12.562-20.397-11.013-43.283 3.4592-51.116s36.387 2.3521 48.949 22.749z" fill="#e78a8a"/>
  <path d="m356.41 391.46c12.562 20.397 23.167 88.308 8.6945 96.141-14.472 7.8331-48.541-47.378-61.102-67.775-12.562-20.397-11.013-43.283 3.4592-51.116s36.387 2.3521 48.949 22.749z" fill="#ffdbdb"/>
  <path d="m358.7 439.25c4.9949 16.071 10.366 36.903 4.5109 40.616s-19.67-17.504-27.5-32.4c-7.8308-14.897-3.6331-28.14 2.2216-31.852 5.8547-3.7124 16.05 8.4576 20.768 23.637z" fill="#fff1f1"/>
 </g>
 <g transform="translate(0 -.80045)" fill-rule="evenodd">
  <path d="m439.86 672.83c0.99139 6.9648 3.1934 11.995 1.4088 14.212-1.7845 2.2172-8.547 1.557-12.282 1.557-7.4696-1e-5 -21.812 4.157-21.812-9.6432 0-13.8 4.0358-41.612 16.707-41.484 16.527 0.16682 13.792 19.999 15.978 35.358z" fill="#e78a8a"/>
  <path d="m439.14 672.44c0.99139 6.9648 3.1934 11.995 1.4088 14.212-1.7845 2.2172-8.547 1.557-12.282 1.557-7.4696-1e-5 -21.812 4.157-21.812-9.6432 0-13.8 4.0358-41.612 16.707-41.484 16.527 0.16682 13.792 19.999 15.978 35.358z" fill="#ffdbdb"/>
 </g>
 <g transform="translate(-38.61 1.1375)" fill-rule="evenodd">
  <path d="m439.86 672.83c0.99139 6.9648 3.1934 11.995 1.4088 14.212-1.7845 2.2172-8.547 1.557-12.282 1.557-7.4696-1e-5 -21.812 4.157-21.812-9.6432 0-13.8 4.0358-41.612 16.707-41.484 16.527 0.16682 13.792 19.999 15.978 35.358z" fill="#e78a8a"/>
  <path d="m439.14 672.44c0.99139 6.9648 3.1934 11.995 1.4088 14.212-1.7845 2.2172-8.547 1.557-12.282 1.557-7.4696-1e-5 -21.812 4.157-21.812-9.6432 0-13.8 4.0358-41.612 16.707-41.484 16.527 0.16682 13.792 19.999 15.978 35.358z" fill="#ffdbdb"/>
 </g>
 <g transform="translate(-20.664 -6.5192)" fill-rule="evenodd">
  <path d="m513.42 429.85c-11.384 21.077-39.744 71.026-53.764 62.409-14.02-8.6166-7.38-74.555 4.0038-95.633 11.384-21.077 25.411-35.724 39.431-27.108s21.712 39.254 10.329 60.331z" fill="#e78a8a" fill-opacity=".97255"/>
  <path d="m511.82 429.05c-11.384 21.077-39.744 71.026-53.764 62.409-14.02-8.6166-7.38-74.555 4.0038-95.633 11.384-21.077 25.411-35.724 39.431-27.108s21.712 39.254 10.329 60.331z" fill="#ffdbdb"/>
  <path d="m486.92 451.12c-7.7963 14.915-15.649 38.904-24.305 35.012-6.3229-2.8428-1.5182-21.414 1.3159-38.003 3.7757-22.101 16.369-31.219 22.633-28.25 9.0565 4.2921 7.2451 18.063 0.35634 31.241z" fill="#fff1f1"/>
 </g>
 <g transform="translate(-4.2024 5.1856)" fill-rule="evenodd">
  <path d="m431.99 613.47c0 11.566-5.6432 13.584-0.25403 13.584 5.3892-1e-5 26.327 3.076 20.667-13.584-3.7206-10.951-16.777-35.373-26.327-34.243-12.625 1.4934 5.9141 22.677 5.9141 34.243z" fill="#e78a8a"/>
  <path d="m431.01 613.37c0 11.566-5.6432 13.584-0.25403 13.584 5.3892-1e-5 26.327 3.076 20.667-13.584-3.7206-10.951-16.777-35.373-26.327-34.243-12.625 1.4934 5.9141 22.677 5.9141 34.243z" fill="#ffdbdb"/>
 </g>
 <g transform="translate(-50.429 -13.825)" fill-rule="evenodd">
  <path d="m494.88 651.72c0 24.646-22.447 28.029-43.224 28.029s-46.026-7.8089-46.026-32.455c0-24.646 25.248-56.796 46.026-56.796s43.224 36.576 43.224 61.221z" fill="#e78a8a"/>
  <path d="m493.28 651.32c0 24.646-22.447 28.029-43.224 28.029s-46.026-7.8089-46.026-32.455c0-24.646 25.248-56.796 46.026-56.796s43.224 36.576 43.224 61.221z" fill="#ffdbdb"/>
 </g>
 <g transform="translate(1.3351 5.7159)" fill-rule="evenodd">
  <path d="m370.77 614.56c0 11.566 5.6432 13.584 0.25403 13.584-5.3892-1e-5 -26.327 3.076-20.667-13.584 3.7206-10.951 16.777-35.373 26.327-34.243 12.625 1.4934-5.9141 22.677-5.9141 34.243z" fill="#e78a8a"/>
  <path d="m370.04 613.47c0 11.566 5.6432 13.584 0.25403 13.584-5.3892-1e-5 -26.327 3.076-20.667-13.584 3.7206-10.951 16.777-35.373 26.327-34.243 12.625 1.4934-5.9141 22.677-5.9141 34.243z" fill="#ffdbdb"/>
 </g>
 <g transform="translate(-2.6015 5.3857)" fill-rule="evenodd">
  <path d="m485.15 534.5c0 38.216-42.468 45.558-87.378 45.558s-75.256-7.3428-75.256-45.558 35.902-73.64 80.812-73.64 81.822 35.424 81.822 73.64z" fill="#e78a8a"/>
  <path d="m483.54 532.9c0 38.216-42.468 45.558-87.378 45.558s-75.256-7.3428-75.256-45.558 35.902-73.64 80.812-73.64 81.822 35.424 81.822 73.64z" fill="#ffdbdb"/>
 </g>
 <g transform="translate(-2.0011 7.787)">
  <ellipse cx="372.14" cy="551.24" rx="4.8214" ry="7.1429" fill="#e78a8a" fill-rule="evenodd"/>
  <ellipse cx="445.17" cy="549.45" rx="4.8214" ry="7.1429" fill="#e78a8a" fill-rule="evenodd"/>
  <path d="m403.13 568.58c4.1033-0.13256 6.9578-3.3141 6.9578-3.3141s2.4977 2.7839 5.3522 2.9164" fill="none" stroke="#e78a8a" stroke-linecap="round" stroke-linejoin="round" stroke-width="1px"/>
 </g>
 <path d="m434 588.07 3.3771-4.9203s-2.269-0.26172-1.7413 0.7328 3.7992 2.9312 1.9524 3.5593c-1.8468 0.62812-4.1158-1.2562-4.1158-1.2562s4.8018 0.99452 6.1737-0.10468 1.3719-1.2039 1.3719-1.2039l-1.4247 2.5125s3.9048-5.182 3.3771-2.4078-1.0026 2.7742-1.0026 2.7742 7.5984-1.5703 7.2818-1.7273-4.0103-1.3086-4.0103-1.3086 1.6358 3.7687 1.6358 3.5593 1.2136-4.3445 1.2136-4.3445l-3.3771 2.8265" fill="none" stroke="#e78a8a" stroke-linecap="round" stroke-linejoin="round" stroke-width=".1"/>
</svg>
