<?xml version='1.0' encoding='utf-8'?>
<svg xmlns="http://www.w3.org/2000/svg" id="cachalot" viewBox="0 0 1200 996"><defs><style>.cls-1{fill:#273448;}.cls-2{fill:#363b47;}.cls-3{fill:#62749f;}.cls-4{fill:#fff;}.cls-5{fill:#4c597a;}.cls-6{fill:#3c4761;}.cls-7{fill:#e6e6e6;}.cls-8{fill:#d1d1d1;}.cls-9{fill:#21242b;}.cls-10{fill:#9bb2eb;}.cls-11{fill:#070b1a;}.cls-12{fill:#212736;}.cls-13{opacity:0.5;}</style></defs><title>Cartoon cachalot</title><g id="fcolor"><path class="cls-1" d="M1184.65,59.88c-.09-.52-.17-1-.31-1.54a1.72,1.72,0,0,0-1.4-1.31c-.24-.37-.46-.76-.72-1.13a1.33,1.33,0,0,0-2.42,1c.14.87.3,1.73.46,2.59-2.18,6.44-4,12.49-8.72,17.75-4.92,5.51-11.34,9.32-18,12.32-14.54,6.53-30.17,10.88-45.07,16.56q-21.12,8-41.86,17c-8.24,3.57-20.84,7.84-25.38,16.64-4.45-4.59-14.64-7.58-18.26-8-5.32-.66-11.45-.3-15.43,3.81a12.7,12.7,0,0,0-1,1.19,40.06,40.06,0,0,0-8.61-11.66,2.16,2.16,0,0,0-2.44-.5c-4.8-2.64-12-1-16.18,2.05-2.54,1.87-6.43,6.2-7.16,10.14-7,.69-13.2-2.57-19.62-5.07-6.65-2.59-13.28-5.23-20-7.75q-18.75-7.09-37.54-14.12c-23.41-8.8-47.66-20.33-73-21.23-13.54-.48-27.43,3.29-40.78-.28-10.45-2.8-19.89-9.78-30.94-10.35-15.35-.8-29.68,12.35-20,27.46,6.16,9.6,18.08,16.13,27.6,21.79a155.09,155.09,0,0,0,19.37,10c4.85,2.67,10.12,4.81,14.92,7.06q11.36,5.32,23,10.06a469.65,469.65,0,0,0,51.77,17.65,409.79,409.79,0,0,0,52.31,11.18c8.13,1.15,16.3,2,24.34,3.65,8.31,1.71,15.64,4.77,23.09,8.51,3.12,12.66-2.21,25.28-8.06,36.56a280.16,280.16,0,0,1-19.19,31.32A252,252,0,0,1,915.93,292q-6.51,6.88-13.5,13.26c-3.28,3-7.14,5.85-10.11,9.27l-.31.15a5,5,0,0,0-.87.42l-1.46.65a17.94,17.94,0,0,0-2.56,1.6c-4.06-2.3-8.32-4.24-13-4.29-9.3-.12-14.51,7.39-20.4,13.36-16.18,16.41-41.48,21.73-62.93,27.62q-36.91,10.16-74.68,16.85c-56.66,10-113.69,12.94-171.12,11.71a82.24,82.24,0,0,0-17.59-8.94c-16.1-6-33.92-7.28-50.9-5.44a145.29,145.29,0,0,0-34.05,8c-29.69-10.33-59.39-20.4-88.44-32.47a945.89,945.89,0,0,1-88.1-42c-13.3-7.22-26.82-14.84-41.72-18.16-15.43-3.45-31.2-1.52-46.84-2.16-29.71-1.22-57.57-19-87.77-12.69-28,5.88-36.35,32-42.16,56.76a460.53,460.53,0,0,0-12.08,89.92A475.8,475.8,0,0,0,63.27,593c10.23,28.2,22.28,58.47,43.65,80.23C128,694.64,160.6,705,189.61,694.88l0,0c45.43-2.53,90.8-13.35,136.38-8.67,23.8,2.44,47.09,8.18,70.55,12.68q8.61,1.65,17.3,2.93c-13.35,10.08-32.4,11.44-48.23,14.71-20.92,4.33-41.77,9-62.7,13.22-19.65,4-40.21,6.83-59,14a112.56,112.56,0,0,0-22.74,11.67c-5.85,3.94-12.78,8.59-15.35,15.48-3.28,8.8.41,16.66,6.64,22.24,15.45,21.46,46.75,26.79,71.36,25.24,16.72-1.06,33.19-4.89,49.48-8.6q24.92-5.67,49.53-12.6C415.23,788,446.55,775.7,478.75,766c16.25-4.89,32.94-8.63,50-9,4.27-.09,8.54,0,12.81.14-6.51,8-11.1,18.72-15.68,27.68-5.17,10.13-10.86,20.73-14.3,31.62-2.56,8.1-2.58,16.89,4.37,22.82,6.72,5.74,16.66,7.39,25.15,8.22,16.87,1.66,41.27,1.37,54.36-11.41,6.57-6.41,8.52-15.65,8.61-24.52a117.09,117.09,0,0,0-1-13.87,2.07,2.07,0,0,0,1-1.39c2.91-15.62,18.18-25.94,26-39.28a2.77,2.77,0,0,0,.39-1.33A487.4,487.4,0,0,0,693,743.92c.75,1.05,1.48,2.1,2.24,3.14,14.77,20.29,31.06,39.51,50.18,55.86,18.63,15.93,39.11,29.57,60.13,42.13,12,7.17,24.11,14.43,37.2,19.44,9.37,3.58,21.47,7,31.88,4.87a2,2,0,0,0,2.32.79c10.25-3.74,19.33-11,27.9-17.65q6.76-5.22,13.29-10.74c2.83-2.41,6-4.66,8.21-7.6a1.82,1.82,0,0,0,2.86-1c6.07-24.91,3.92-54-2-78.77-2.63-11-8.37-18.79-17.73-25-11-7.32-22.82-13.52-34.22-20.13q-18.51-10.75-37.06-21.43c35.24-15.38,70.42-32.42,103.2-52.54,15-9.18,29.34-19.72,41.16-32.8,12.07-13.36,21.21-29,28.81-45.28,32.45-69.37,41.77-147.37,41.94-223.22.09-43-2.92-86-6.32-128.8,9.42,1.74,20.77,0,29.91-1.22a145.1,145.1,0,0,0,30.42-7.18,136.33,136.33,0,0,0,51.55-33,112.4,112.4,0,0,0,28.36-51.05C1191.13,97,1192.83,75.11,1184.65,59.88Z"/><path class="cls-2" d="M491.08,701.77c-.09-.51-.48-.5-.87-.3a3.77,3.77,0,0,0-1.19.39c-.39.18-.79.38-1.18.58,0-.76-.48-1.18-1.71-.91-19.86,4.36-39.71-3.51-59.66-.44-14.88,2.29-29.06,8.79-42.27,16.15.51-1.25.64-2.18,0-2.06-36,7.06-71.7,16-107.45,24.32-14.86,3.44-29.87,7-43.49,14.08-9.59,5-24.9,14-24.65,26.62.31,15.71,23,17.13,34.26,17.73,17.34.92,34.63-1.92,51.46-5.81a811.52,811.52,0,0,0,101.92-31.34c32.15-12.09,63-27.51,88-51.57a10,10,0,0,0,.73-.89l.21-.1a10.35,10.35,0,0,0,2.66-1.74,14.66,14.66,0,0,0,1.12-1.11A8.19,8.19,0,0,0,490,704l.13-.21C490.56,703.32,491.2,702.39,491.08,701.77Z"/><path class="cls-3" d="M457.85,440.43c-4.65,6.44-9.27,12.47-13.22,18.91,7.76-2.21,16.37-2.91,24.19-3.83q15-1.77,29.94-3.33c10-1,20-1.91,30-2.79,7.76-.67,16.36-2.38,24.37-2.1A81.42,81.42,0,0,0,531,433.19a76.45,76.45,0,0,0-38.68-5.52C479.67,429.11,468.9,434,458,439.85A.8.8,0,0,1,457.85,440.43Z"/><path class="cls-3" d="M545.88,757.34c-3.27,7.95-8.82,15.41-12.91,22.94-4.38,8.08-8.51,16.31-12.31,24.68-4.14,9.13-11.57,22.93-1.92,31.11,7,6,18.51,6.82,27.28,7.2,15.17.65,36.35.42,47.42-11.78,13.81-15.24,1.58-35.85,4.35-53.27.21-1.32,2-1,2.34,0a28.83,28.83,0,0,1,1.59,6.07,67.92,67.92,0,0,1,5.36-7.67c5-6.56,9.9-13.85,15.52-20.06-14.05,1.44-28.13,2.23-42.09,2.27C569,758.86,557.42,757.89,545.88,757.34Z"/><path class="cls-4" d="M558.44,452.58a3.27,3.27,0,0,1-.33.14c-9,2.93-20,2.2-29.38,3-10,.85-20,1.79-30,2.69s-20,1.9-29.94,2.81c-8.48.78-17.56,2.14-26.14,1.42a73.15,73.15,0,0,0-6.43,14.92c-3.89,13-2.82,27.85,5,39.26,14.59,21.18,47.15,19.35,69.38,14.69C531.9,527.05,553.35,516,564,496.22c7.69-14.33,6.85-29.3-3.8-41.76C559.6,453.82,559,453.2,558.44,452.58Zm-81.83,53c-6.59,9-25.82,9.27-33.47,1.74-5.92-5.83-5.6-15.16-1.13-21.48a10.74,10.74,0,0,1,2.76-4.88c.52-2.55,3.34-4.59,5.84-5.62,5.4-2.23,11.76-1.32,17,.8a21.14,21.14,0,0,1,4.53,2.51c-.41.43-.73.8-.85.94a7.37,7.37,0,0,0-.87,1.19,3.1,3.1,0,0,0-.7,1.07,1,1,0,0,0-.09.29l0,0c0,.19-.05.38-.08.57-.22.66-.4,1.34-.57,2s-.89,2.61-.5,3.43a.56.56,0,0,0,.25.37c0,.18,0,.35,0,.53a.14.14,0,0,0,0,.07c-.1.42,0,.67.18.81a.54.54,0,0,0,.42.19l.56,0a.6.6,0,0,0,.27,0h.19a4.34,4.34,0,0,0,.17.4c.44.91,1.5.28,2.24-.31.32,0,.64,0,1-.07a11.36,11.36,0,0,0,4.84-2.3c.18-.13.35-.29.53-.43A18.57,18.57,0,0,1,476.61,505.54Z"/><path class="cls-3" d="M453.43,441.84a2.06,2.06,0,0,1-.57-.25l-.11.16c-.11.31-.2.63-.28.95Z"/><path class="cls-3" d="M128.74,358.9a2.85,2.85,0,0,1-.54.18c-1.09,3.84-2.66,7.45-3,11.57-.24,3.07-.7,8.48,4,9,2.62.27,4.93-1.85,6.51-3.65,3.3-3.72,6.56-10.7,3.34-15.42C136.32,356.56,132.45,357.3,128.74,358.9Z"/><path class="cls-3" d="M893.87,320c.18-.26-.14.24-.17.29-.13.21-.25.43-.37.65a1,1,0,0,1,0,.1l.54.32c9,5.19,16.15,5.38,23.12-2.93,4.52-5.4,8.33-12.23,15.2-14.93,4-1.59,10.07,0,12.53-3.91,1.64-2.64,1.75-6.43,2.21-9.42.85-5.58,2.07-12,7.81-14.59,4-1.79,7.68,0,11.77-.25,6.41-.32,6.36-4.71,6.14-9.87-.25-5.7-1.26-12.84,3.71-17,4-3.34,9.48-2.49,12.86-7.06,3.1-4.19,4.24-10.07,5.64-15q4.95-17.35,8.28-35.12c3.93-21.15,6.22-45.12-8.44-62.86-4.69-.07-8.88-.61-13.12,2.77-2.46,2-3.7,4.4-4.78,7.28a5.2,5.2,0,0,1-2.12,3,1,1,0,0,1-.4.15,4.3,4.3,0,0,1-3.1.64,6.26,6.26,0,0,1-2-.62,3.77,3.77,0,0,1-1-.68c-8.15.7-17.57-4.48-24.57-7-13-4.7-25.89-9.61-38.82-14.47-21.67-8.16-43.5-18.15-66.19-23.09-22.14-4.83-45.14,3.32-66.46-5.34-9.07-3.69-18.66-9.49-28.81-6.9-4.91,1.24-10,4.26-10.68,9.71-.78,5.79,3.19,10.62,7.23,14.31,9.06,8.28,19.78,14.33,30.73,19.95a1.82,1.82,0,0,1,.8.05c8.63,2.31,16.73,7.78,24.82,11.56q12.87,6,26.1,11.24a478.4,478.4,0,0,0,51.95,17.15c17.52,4.69,35.33,8.31,53.22,11.31,12.63,2.11,27.76,3.66,38.66,11.33a1.91,1.91,0,0,1,3.11.24,29.76,29.76,0,0,1,1.52,3.75,1.29,1.29,0,0,1,.23.67c3.14,10.29.19,21-4.07,30.92a222.94,222.94,0,0,1-19.84,36.3,263.11,263.11,0,0,1-25.35,32q-7.2,7.75-15,14.9c-3.75,3.43-7.79,7.46-12.45,9.76Z"/><path class="cls-3" d="M1182.87,71.79c-2.87,6.38-8.29,12-13.44,15.93-11.73,8.83-26.64,12.59-40.26,17.44q-23.91,8.5-47.35,18.23c-13.5,5.6-28.94,10-38.54,21.53a6,6,0,0,1-1,2.51,1.58,1.58,0,0,1-1.75.71c-2-.76-2.13-1.56-3.44-3a18.73,18.73,0,0,0-8.59-5.76c-3.45-1.18-7.92-2.36-11.51-1.83-4.59.67-6.34,2.63-7.84,6,4.41,14,2.9,30.39.53,44.5a367.09,367.09,0,0,1-9.74,42.43c-2.86,9.77-5.79,17.66-15.85,21.25-6.19,2.21-5.89,5.8-5.59,11.56.18,3.44.59,7.1-.35,10.47-2.35,8.34-9.51,7.36-16.47,7.09-10.59-.4-8.08,11.63-10.55,18.87a12.51,12.51,0,0,1-5,6.92c-3.78,2.33-8.31.9-12.23,2.63-7.42,3.27-10.84,12.67-16.87,17.74-5.54,4.66-12.23,5.61-19,3.15-7.77-2.84-14.73-10.42-23.2-11-6.93-.49-11.23,5.56-15.44,10.08a66.61,66.61,0,0,1-11.06,9.47C829,351.87,803.61,357,781.28,362.79a785.34,785.34,0,0,1-78.77,16.12c-49.87,7.62-100.92,11.16-151.38,8.59,4.43,4.18,7.85,9.13,9.18,14.89a1.26,1.26,0,0,1-2.09,1.21c-5.75-5.16-10.39-11.24-16.88-15.6A78.05,78.05,0,0,0,521,378.33c-14.64-4.55-30.33-5.36-45.52-3.78a129.91,129.91,0,0,0-28.64,6.34,2.27,2.27,0,0,1-2.6,1l-.16,0a135.52,135.52,0,0,0-15.94,7,131,131,0,0,0-20.49,13.15c-6.07,4.77-11,10.82-16.93,15.61-2.29,1.85-6.24-.53-4.38-3.38,4.35-6.67,11.46-12.08,17.7-16.91a141.62,141.62,0,0,1,23-14.56c2.41-1.21,4.87-2.34,7.35-3.41-61.14-16-120-43.06-175.32-73.12-13.16-7.16-26.66-14.34-41.65-16.65-15.78-2.44-31.85-.14-47.68-2-27-3.13-53.69-19-81.31-11.76-29.23,7.69-33.54,43.47-38.32,68.66A472.24,472.24,0,0,0,72.26,597.82c9.46,24.89,20.52,51.28,39.46,70.57,20.42,20.81,48.3,27.21,76.35,20.9a2.78,2.78,0,0,1,2.66.66c24.1-4.21,48.59-6.62,72.89-9.33,23-2.55,45.73-3.51,68.72-.59,22.24,2.82,44.05,8.06,66,12.31,23,4.46,46,7.37,69.47,7a286.62,286.62,0,0,0,34.76-2.46q9.17-1.24,18.26-3.07c4.11-.83,7.76-1.51,11.86-.22a.37.37,0,0,1,.17.61c-4,3.86-9,4.52-14.31,5.54-6,1.15-12.05,2.11-18.11,2.9-1.33.18-2.66.34-4,.5a2.48,2.48,0,0,1-.39.51c-14.36,14.63-30.06,27.88-47.6,38.6-18.59,11.36-38.93,17.52-59.5,24.19-36.63,11.87-72.11,28.6-110.41,34.61-16.38,2.57-34.7,4-51-.15a71.51,71.51,0,0,0,27.88,10.93c18.61,3.13,37.76.11,56-3.65,31.75-6.52,63.18-14.92,94.13-24.49,30.55-9.45,60.38-22.33,91.7-29,31.52-6.76,62.9-1.13,94.74-2.21,33-1.12,65-7.39,97.28-13.68-13.61-19.32-26.25-39.38-38.3-59.68q-10.27-17.32-19.86-35c-6-11.09-12.86-22.44-16.68-34.51-.7-2.19,2.32-3.14,3.49-1.47,8.11,11.55,13.84,25.1,20.62,37.47s14,24.88,21.35,37.09c25.48,42.16,52.77,84.59,90.72,116.65C769,814.79,789.15,828,809.76,840.23c10.84,6.44,21.8,13.06,33.58,17.67a74.46,74.46,0,0,0,20,5.16c5.29.49,10.49-.29,15.76-.17,7.43-5.76,15.51-10.8,22.84-16.7,4.43-3.57,8.8-7.24,13.16-10.89,3.23-2.71,6.32-5.9,10.46-6.89.18-12.65.9-25.25.06-37.9a217,217,0,0,0-2.58-22c-1.19-7-2.16-15-5.51-21.43-5.09-9.74-16.17-14.74-25.24-20q-16.47-9.62-33-19.19-33-19.14-66.15-38Q760.65,651.2,728,632.85c-6.39-3.58-19-7.65-19.05-16.67,0-5.61,3.32-11-3-15.07-4.07-2.62-10.84-.93-14.5,1.74-1.17.86-2.32-.75-1.81-1.81,4.06-8.47,14.46-10.25,21.55-3.94A16.45,16.45,0,0,1,713,599c1.48-3,5.13-4.94,4.69-8.71-.6-5.28-9.56-6.77-14-7-11.2-.58-20.11,6.79-30.83,7.4-1.21.07-1.54-1.4-.91-2.19,6.73-8.31,19.74-12.67,31.35-12a2.46,2.46,0,0,0-.29-.09c-3.37-.84-6.94-.25-10.35-.53a1.41,1.41,0,0,1-.71-2.6c4.23-2.66,9.46-3.93,14.17-1.83,2.77,1.23,5.68,3.71,6.12,6.75a27,27,0,0,1,3,1.23c4.58,2.24,10.94,6.61,9.21,12.43-1.17,3.92-4.94,9.72-9.31,10.56a15.71,15.71,0,0,1,1.5,5.83c.17,3.42-1.11,5.41.39,8.73,1.84,4.09,5.88,5.32,9.72,7.47q53,29.68,105.74,60a2.63,2.63,0,0,1,1-.71c38.32-17.41,77.8-35.12,112.92-58.52,15.73-10.48,30-22.92,41.09-38.37,10.46-14.63,18.29-31,25-47.67,13.93-34.38,23-70.51,28.34-107.18,11.11-75.92,6.32-152.93,1.72-229.2a2.94,2.94,0,0,1-.08-1.44l-.48-7.93c-.16-2.66,3.9-2.61,4.11,0q.24,2.88.46,5.74c8.51-1.23,17.7-.21,26.27-1.15a142.54,142.54,0,0,0,29-6.26,135.4,135.4,0,0,0,50.57-30.36,106.52,106.52,0,0,0,28.91-48.33,93,93,0,0,0,3.39-28.22A78.84,78.84,0,0,0,1182.87,71.79ZM140.1,379.37c-4.74,5.54-14.94,9.09-19.34,1.05-3.62-6.6-1.29-18.1,4.22-23.69a3.16,3.16,0,0,1,.29-1.29c3.19-7,13.71-4,17.61.65C148.68,363,145.35,373.23,140.1,379.37ZM543.61,704.23a1.78,1.78,0,0,1-2.59-1.05c-1.84-4.54.36-10.48-.42-15.43-.45-2.84-1.25-6.26-3.15-8.54s-4.38-2.36-6.57-3.69a1.18,1.18,0,0,1-.43-1.6c4.6-6.43,12.84,1.6,14.86,6.38C548,686.68,550.3,699.67,543.61,704.23Zm23.58-200.69c-13.72,21.87-39.35,32.93-64.24,35.67C477.9,542,445.51,538.09,434.07,512c-9.06-20.61-2.5-44.55,11.33-61.73.88-4.59,4-8.78,7.45-11.75a.78.78,0,0,1,.37-.17c24.12-21.35,63.27-20.55,90.12-5.41,11.9,6.7,24,17.42,29.33,30.27C578.18,476.59,574.62,491.68,567.19,503.54Zm197.22,65.05c-.81,0-1-1.05-.39-1.44,7.44-4.88,17.42-7.14,25.55-10.8,8.47-3.81,16.74-8.07,24.85-12.59a350.26,350.26,0,0,0,47.82-32.41c.43-.34,1,.23.62.63a250.48,250.48,0,0,1-46.74,34.69,258.48,258.48,0,0,1-27,13.42C781.46,563.36,772.75,568,764.41,568.59Zm161.76-46.91C907.49,539,886,553.4,864.3,566.62q-17.09,10.39-35,19.29c-9.86,4.91-19.85,10.11-31,10.74-.86.05-.84-1.24,0-1.32,12.85-1.2,24.94-9.05,36.14-15.07q16-8.61,31.49-18.11c20.65-12.7,39.87-27.29,59.52-41.45C926,520.28,926.68,521.21,926.17,521.68Zm18.64-47c-11.12,15.59-27.54,28.83-42.19,41-15.2,12.64-31,24.22-48.25,33.86a.22.22,0,0,1-.22-.38c15.85-12,31.86-23.79,47.06-36.58,7.34-6.17,14.53-12.5,21.51-19.07s13.43-13.8,20.88-19.78C944.23,473.19,945.36,473.86,944.81,474.63Z"/><path class="cls-2" d="M141,363.75c-.14-2.9-.27-6.33-3.09-7.23a3.68,3.68,0,0,0-.15-.47c-3.38-8.17-15.31,6.5-14.63,11.62l.06.28a19.13,19.13,0,0,0-1,2.71c-.47,1.71-1.07,4.93-.19,6.95a4.29,4.29,0,0,0,.92,2.43c4.93,6.3,13.5-3.79,15.75-7.62A15.21,15.21,0,0,0,141,363.75Z"/></g><g id="Dark"><path class="cls-5" d="M1052.23,278.23c-1.63-13.23-3.85-26.38-5.69-39.59-.87-6.32-1.84-12.64-2.54-19-1.31,7.92-2.79,15.82-4.23,23.69-4.75,25.93-7.33,52.1-11.61,78.1-4.86,29.49-11.22,59.78-20.94,88.7C1003,428.71,997.55,447.6,990,465.5c-2.94,11.77-6.16,23.64-9.91,35.34-.9,1.9-1.78,3.81-2.72,5.69-14.27,28.73-32.78,54.9-56.09,76q-11.31,1.94-22.61,4c-3.3.59-7.69,5.61-7.82,9a21.47,21.47,0,0,1-3.73,12Q881.37,611,875.35,614A284,284,0,0,1,833.3,630.5c-15.1,4.67-31,7-45.9,12.35a9.74,9.74,0,0,0-1.59.78c-3.08.67-6.13,1.46-9.16,2.31-1.08-.15-2.16-.32-3.23-.55-.75-.16-2.13,1-3.19,2.38l-1.06.31c-1.28.36-5.81,6.16-3.63,6.34,1.52.12,3,.24,4.52.34-.16.77,0,1.36.81,1.54,2,.47,4,.8,6,1.07a1.36,1.36,0,0,0,1.49,1.22c1.24,0,2.5,0,3.76-.08l-1.88.88h0a15.66,15.66,0,0,0,.87,2.3,128.88,128.88,0,0,1,16.38,5.84c7,3.12,20.27,8.69,24.18,16.44a9.93,9.93,0,0,0,4.36.62c.07,2.08,1.11,3.45,4.31,2.27,32.15-11.79,64.49-24,93.78-42a221,221,0,0,0,54.65-47.38,6.67,6.67,0,0,0,2.85-1.45c8.37-7,13.74-16.79,17.22-27.17.63-1.06,1.27-2.12,1.88-3.2,18.34-32.3,29.86-68.74,37.19-105a384.44,384.44,0,0,0,6-43,44,44,0,0,0,2.77-10.59c.78-6.13,1.34-12.29,1.87-18.44,1-11.72,1.51-23.39,1.52-35.15q0-7.69-.21-15.37C1055.23,318.89,1054.65,298,1052.23,278.23ZM954.8,558.1,952,560.62q3.16-4.05,6.19-8.2Q956.55,555.3,954.8,558.1Z"/><path class="cls-5" d="M689.93,737.47a290.84,290.84,0,0,1-17.28-24.38,4.16,4.16,0,0,1,0-3.61,43.93,43.93,0,0,1-5.49-5.6,111.52,111.52,0,0,1-10.72-16.61c-2.3-4.23-3.87-10-7.55-13.24.34-.59.64-1.16.89-1.68,1.06-2.21,2.45-6.32-1.45-5.44C615,674.47,581.3,664,548.48,656.8c4.41.64,8.78,1.19,13,1.71,20.3,2.48,42.06,5.69,62.43,2.25.51-.09,2.18-2,1.38-2.16-9.65-1.73-20.12-1.58-29.92-2.08s-19.74-1.26-29.52-2.66c-20.1-2.89-39.92-8.48-60-10.82-.49-.06-1.85,1.68-1.37,1.92a110,110,0,0,0,21,7.47c-34.47-5.66-69.43-7.85-104.33-8.4-16.43-.26-32.85-.16-49.27.1-7-3.29-14.46-6.34-22.09-8a23.19,23.19,0,0,0-6.22-1,44.06,44.06,0,0,0-14.05.64c-5.31,1.14-10.13,3.62-12.95,8.32-1,.28-2,.52-3,.73l-2.81.14c-2.56.12-5.27.07-7.88.41-3.7-.59-7.16-2.5-10.91-3.1a26.45,26.45,0,0,0-12.95,1,9.79,9.79,0,0,0-3,2.93c-26.47.53-53,.7-79.36-1.29-19-1.44-38-3.31-56.64-7.59a214.6,214.6,0,0,1-29.46-8.94c-7.9-3.07-15.35-7-23.09-10.43a11.56,11.56,0,0,0-1.38-1.68c-1.55-1.48-3.71-1.75-5.66-2.32s-5,4.59-4.88,6.2c.19,2.49.14,5.09,1.24,7.39a51.07,51.07,0,0,0,3.32,5.22,19.16,19.16,0,0,0,3.5,4.46,7.11,7.11,0,0,0,2.76,1.38,28.17,28.17,0,0,0,2.61,10.2A68.19,68.19,0,0,0,99,663.9c6.89,8,16.09,14,25.73,18.39,7.22,7.92,21.25,11.63,30.54,12.47,9,.81,18.17-.23,27-1.76,5.08-.87,10.41-1.53,15.33-3.07,6.73-.77,13.43-1.73,20.05-2.74,11.42-1.73,22.83-3.5,34.27-5,2.43,1.18,4.75,1.52,8.4,1.94,5.37.63,10.77,1.2,16.17,1.35,10.5.28,20.79-1.39,31.24-2a185.73,185.73,0,0,1,31.89,1.15c5.1.59,10.18,1.33,15.25,2.17,5.85,1,9.14,1.88,13.85-.29,14.07,3.31,28.11,7,42.44,9.63A285.59,285.59,0,0,0,464.41,701c9.79,0,20.2,0,30.33-1.24l-.45.81a23.09,23.09,0,0,0-4.54,4.77h0c-5,6.17-9.73,12.41-15.34,18.08-.74.75-1.5,1.5-2.25,2.25l-3.71,2.81c-12,8.07-25.26,14.32-38.49,20-19.58,8.35-39.56,15.76-59.48,23.26-20.53,7.73-41.17,15.41-62.59,20.35a260.66,260.66,0,0,1-36,5.57,168.3,168.3,0,0,1-18.92.61c-5.36-.13-10.35.87-15.46,2a62.6,62.6,0,0,0-6.44-1.45c-1.91-.26-6.77,5.54-5.14,7.21a10.28,10.28,0,0,0,3.47,2.29.3.3,0,0,0,.19.21A97.23,97.23,0,0,0,247.11,813a.9.9,0,0,0,.23.25c4.88,3.54,12.67,3.42,18.51,3.72a155.3,155.3,0,0,0,22.62-.48c10.27-1,22.4-2.29,32.17-7,7.27-1.69,14.46-3.72,21.61-6,27.27-8.51,54.35-17,82.09-23.92,28-7,56.06-14.47,84.38-20.11a325.1,325.1,0,0,1,38.17-5.22,41.66,41.66,0,0,0-5.83,8.53c-6.71,12.82-13.1,25.78-19.45,38.79-4.53,9.27-15,24.32-7.67,34.45,5.63,7.73,17.62,8.1,26.23,8.06A149.23,149.23,0,0,0,564,842c-.06,1.17.32,2.07,1.59,2.12l-.08.13c10-1.31,21.49-6.42,29-13,1.52-1.34,11-12.58,5.9-13.51a20.67,20.67,0,0,0,1.42-2.7c-1.28,3.42.2-.49.64-1.73a18.73,18.73,0,0,0,1.14-4.84,100.92,100.92,0,0,0,.18-12.78,144.39,144.39,0,0,0-.8-14.83c.64-.76,1.28-1.53,1.89-2.31a99.37,99.37,0,0,0,15.82-20.12,47,47,0,0,0,3.3-6q3.51.15,7,.38c3.64.23,7.42.36,11.2.65a49.19,49.19,0,0,1,15.31-4.69l4.43.17a6,6,0,0,0,3-1.06c1.34-.11,2.66-.21,4-.29,5-.32,10.06-.41,15.1-.46a24.73,24.73,0,0,0,4.23-5.88,31.55,31.55,0,0,0,2.56-3.31A1.18,1.18,0,0,1,689.93,737.47Z"/><path class="cls-5" d="M563.64,534.56l1.07-1.19c.39-.83.8-1.67,1.2-2.5a261.18,261.18,0,0,0,5.07-27c.5-4.14.93-8.3,1.32-12.48-.26-1.64-.51-3.29-.77-4.93a61.52,61.52,0,0,1-1.74,6.35,50.66,50.66,0,0,0-6,7.88c1.46-2.81,1.63-3.22.5-1.21a14.3,14.3,0,0,0-1.28,2.64,2.87,2.87,0,0,0-.15.37c-.78,1.88-1.42,3.95-2.06,5.89-.09.26-.15.53-.23.79-7.83,8.78-18.93,13.87-30.22,17.47a149.76,149.76,0,0,1-46.7,7.51,140.64,140.64,0,0,1-22.81-1.93c-.55-.09-1.09-.21-1.64-.35-.79-.45-1.57-.93-2.34-1.4-1.32-1.05-2.65-2.08-4.05-3.06a35.52,35.52,0,0,0-5-3l-.55-.23A21,21,0,0,0,440.8,521c-2.12-5.39-5.09-10.62-6.52-16.25A102.91,102.91,0,0,1,431,477.07c.08-2.1-3.33,2-3.55,2.65-3.67,10.95-5.33,21.46-3.23,32.92,0,.27.1.56.16.86a1.19,1.19,0,0,0,.05.26c1,5.57,2.76,14,6.62,19.18a23.76,23.76,0,0,0,7.2,10.75c.25.42.5.84.77,1.26a42.89,42.89,0,0,0,8.65,9.64,76.38,76.38,0,0,0,22.54,13.63c15.5,5.91,32.4,7.13,48.31,2,17.12-5.53,31.79-17.93,42.54-32.1C562,536.94,562.8,535.76,563.64,534.56Z"/><path class="cls-5" d="M1008.69,154.17c-.82-4.15-1.84-8.26-2.91-12.35-1-3.92-1.62-9.13-3.74-12.61-1.62-2.67-5.19-3.69-7.24-1.49a21.41,21.41,0,0,0-1.34-1.93l-1.68-.17-1.43-.13a11.48,11.48,0,0,0-1.31,1.19c-2.54-.46-8.38,8-8.27,10.34.28,5.8.23,13.35,1.42,20.39.28,12.47,0,24.71-2,37.26-.14.91-.33,1.8-.5,2.7a21.21,21.21,0,0,0-2.07,3.17,114.21,114.21,0,0,0-4,12.42,23.75,23.75,0,0,0-2.35,3.86c-17.36,36-41.19,67.64-72,93.23-2.09,1.74-13.1,14.66-6.85,16a21,21,0,0,0,8.6.06,1.16,1.16,0,0,0,.27.48C919,332.86,921.23,305.3,935,304a19.47,19.47,0,0,0,4.31-.87,7.46,7.46,0,0,0,3.71-1.77,14.75,14.75,0,0,0,6.34-9.69,7.7,7.7,0,0,0,.36-2.55,1.36,1.36,0,0,0,0-.2,23,23,0,0,0-1.37-8.83l0-.05a27.3,27.3,0,0,1,2.8-3.11c4.32,1.74,9.34,3.59,12.91,1.66l.16-.09a12.36,12.36,0,0,0,5.14.26c1.56-.25,2.88-1.67,3.8-2.85.74-.94,2.38-3.05,1.88-4.36a20.76,20.76,0,0,1-.84-2.89c-.08-.4-.11-.85-.22-1.24s-.39-.67-.52-1.07a.81.81,0,0,0-.15-.26c.06-.23.13-.44.19-.67a2.32,2.32,0,0,0,.07-.68,9.15,9.15,0,0,0,1-3.9c-.24-1.88-.39-3.74-.48-5.6a69,69,0,0,0,10.56-10.17,16.19,16.19,0,0,0,.67,2c1.08,2.67,5.89-4.26,6.19-5.25l4.5-14.61c7.63-10.55,12.28-24.09,10.45-36.75C1011.33,179.32,1011.07,166.16,1008.69,154.17Z"/><path class="cls-5" d="M913.37,839.75c-1.57-1.42-4.55-.14-7.08,1.28a11.87,11.87,0,0,0-3.78,1.75c-1.58.92-3.16,1.86-4.74,2.8-2.63-3.15-8.62-3.69-12.5-4.84a124.85,124.85,0,0,1-14.06-5.11,264,264,0,0,1-25.92-12.92c-8.49-4.8-16.74-10-24.95-15.29A142.33,142.33,0,0,1,797,788.35c-5.46-5.36-12.69-7.2-18.66-11.7-3.72-2.81-4.61-5.19-4.79-9.68-.13-3.16-.19-6.08-2.54-8.54s-6.13-3.38-9.34-4.35a58,58,0,0,1-12.25-5,60.86,60.86,0,0,1-14.46-11.65c.82-1.67,1.19-3.2.75-4.16-2.22-4.91-6.53-8.35-9.48-12.84a73.54,73.54,0,0,1-4.16-7.16c5.32-11.07-3.88-18.25-14.91-18.46-3.11-.06-6.63.76-8.37-2.43-1.15-2.09-.47-5.2-1.3-7.5-1.83-5.08-6.79-7.42-10.52-10.9-5.24-4.9-6.41-12.93-9.43-19.23-1.18-2.47-2.34-5.57-4.15-7.62-1.28-1.45-4.9-2.47-5.13-4.68-.17-1.65,2-4,1.85-6.13a7.72,7.72,0,0,0-3.25-5.52c-3.66-2.67-8.21-1.84-12.13,0-1.69-2.68-3.4-5.34-5.08-8-3.49-5.56-6.58-11.91-11.21-16.6-.67-.67-1.76-.18-2.9.83a43.64,43.64,0,0,0-2.7-4.48c-.47-1.08-.92-2.18-1.34-3.31-.06-.17-.29-.08-.54.11-.14-.34-.27-.68-.4-1-.07-.15-.41.13-.59.4-.42-.61-.87-1.21-1.34-1.81l-.32-.65c0-.08-.13-.07-.24,0-.24-.1-.79.43-1.12.94l-.56-.7-.63-1.71c-.11-.3-1,.59-.88.93s.25.86.37,1.28a1.43,1.43,0,0,0-.32.79c.23.94.5,1.85.79,2.76a.43.43,0,0,0,0,.16c.1.35.22.68.33,1-.27.41-.44.82-.32,1,.57,1,1.13,2,1.69,2.93.06.14.11.28.16.41a.58.58,0,0,0,0,.5l.61,1c.73,1.66,1.53,3.28,2.42,4.89.2.46.41.93.62,1.39a1.53,1.53,0,0,0,0,.68c3.41,11.31,10.82,22.15,16.45,32.5,5.8,10.64,11.7,21.23,17.81,31.68,11.75,20.09,24.06,40.23,38.07,58.83,28,37.2,61.37,71.49,100.86,96.52,23.49,14.89,51.48,26.49,79.6,26.88,1.15,0,2.56-.85,4-2.15,3.51-1.47,6.89-3.34,10.29-5,4.81-2.37,9.12-4.7,12.84-8.66C911.75,844.32,914.68,840.93,913.37,839.75ZM660.17,639.33a4.67,4.67,0,0,1,1.74,2.66C661.33,641.1,660.74,640.22,660.17,639.33Z"/><path class="cls-5" d="M551.21,445.1a8.51,8.51,0,0,0-2.41-1.45.88.88,0,0,0-.87-.55l-3.24-.7c1-2.25,1.19-4.24-.19-5.37-5.55-4.55-15.29-5.76-22.17-7.38a103.5,103.5,0,0,0-25-3.13q-2.52,0-5,.27a2.69,2.69,0,0,0-2.51-.25c-1.42.36-2.82.76-4.21,1.2a64.3,64.3,0,0,0-11.7,3.47c-8.86,1.76-15.43,7.16-21,14.22-1.12,1.42-4.09,5.29-4.76,8.32-1.38,1.68-2.47,3.54-1.7,4.28-.46,2.14.64,3.48,2.74,2.28,1.32.74,3.6-.58,5.25-1.87,3.06-.37,6.15-1.07,8.88-1.62,2.36-.48,4.66-1.1,6.94-1.8,2.73-.15,5.47-.29,8.21-.38,10.45-.32,21.08-.9,31.51,0,1.5.13,3.67-1.29,5.76-3.35,5.35,1.64,10.84,3.48,16.14,3.39,1,0,2.58-.85,4.27-2.14a31,31,0,0,0,3.51.67c2.55.3,3-.18,5.4-1.5a9.32,9.32,0,0,0,3.48-3.91l.8-.11C549.93,447.62,552,445.73,551.21,445.1Z"/><path class="cls-5" d="M715.22,597.44a12.12,12.12,0,0,0-1.55-1.89c-.22-2.37-4.74-3.27-7.94-3.66-1-.2-1.81-.35-2.38-.44-5.74-1-11.85.85-14.67,6.23-.27.5-.17.64.05.61-.26.39-.5.8-.74,1.23-.41.78-.06,1,.5.73a7.21,7.21,0,0,0-.22.83c-.13.78,1.24-.65,1.34-.85s.27-.5.41-.74c2.47-1.12,4.86-2.26,7.22-3.57,4.31-.83,8.78.13,13.08,2-.1.2-.19.62.15.38l.25-.2.39.18c0,.07,0,.12,0,.14l.5.24a.29.29,0,0,0,.16,0,5.63,5.63,0,0,1,.38.45c.06.08.15.05.25,0,.38.33.76.65,1.12,1,.12.11.48-.32.49-.54C714.73,599,715.55,597.94,715.22,597.44Z"/><path class="cls-5" d="M702.89,576.9c-9.61-2.62-26,0-30.51,10.24-.37.83,0,1.19.73.57.28-.23.58-.43.86-.65a7.75,7.75,0,0,0-.56,3.43c0,.54,1.5-1.12,1.57-1.48.49-2.49,4.74-5,6.88-6a25.76,25.76,0,0,1,4.26-1.06c3.46-.8,6.92-1.57,10.37-2.36a3.32,3.32,0,0,0,1.21-1.28c1.51-.11,3-.24,4.53-.43C702.48,577.9,703.27,577,702.89,576.9Zm-25.3,5.55a18.61,18.61,0,0,1,4.38-1.9,51.21,51.21,0,0,0-5.45,2.89C672.45,585.91,676.55,583.1,677.59,582.45Z"/><path class="cls-6" d="M622.6,754.89c.08-.82-.35-1.14-1.84.06L618,757.18c.45-1.3.31-2.21-1-2.23q-33.12-.37-66.24.23c-1.49,0-4.49,2.86-6.67,5.78a36.59,36.59,0,0,0-5.22,6.09l-8.18,16.33a40.2,40.2,0,0,0-5.59,8c-4.48,7.53-8.8,16.26-10.79,25.06a25.52,25.52,0,0,0-2.59,6.38c-.8,3.21-.76,7.27,2,8.35,1.88,7.64,8.27,11,15.69,12.22a5.78,5.78,0,0,0,.36,1c2.16,4.23,12.57,3.27,16.4,3.26,6.58,0,14.3-.3,20.48-2.87a20.9,20.9,0,0,0,2.59-1.3c3.18,2.42,8.75-.71,13.35-4.3-.62,2-.22,3.11,2.51,1.53C593.77,835.75,602.47,823,602,812a38.45,38.45,0,0,0,1.7-10.94c0-1.71-.52-2.46-1.32-2.6a68.31,68.31,0,0,0,1-16,23.6,23.6,0,0,0,3-3,10.78,10.78,0,0,0,2.62-2.33c2.27-2.66,3.68-5.81,5.58-8.72a58.46,58.46,0,0,1,5.94-7.56c.91-1,3-3.21,2.77-4.77C623.18,755.35,623,755,622.6,754.89Z"/><path class="cls-7" d="M568.6,478.46a29.08,29.08,0,0,0,.39-9.57c0-.37-.28-.43-.59-.35-.81-7.15-4.23-13.6-11.94-15.27-.62-.14-1.53.39-2.43,1.22-.35-.2-.7-.4-1.07-.57-4.47-2.08-6.92-.94-11.08,1.28a6.05,6.05,0,0,0-1.28,1.15c-4.18-1.92-9.3-1.76-15.22,1.72-.21.12-1.48,1.6-.84,1.66,12.89,1.17,20.3,13.47,20.92,25.4a49.74,49.74,0,0,1-3.38,20.15c-2.5,6.52-7.33,11-10.54,17-.41.77-1.13,3.14.66,2.48a14.31,14.31,0,0,0,4.34-2.74c.25,1.37,1.92,1.32,4.15-.35a80.06,80.06,0,0,0,19.1-20.39c3.75-5.76,10.16-15.5,8.88-22.68Zm-14.91,2.71c-.16.44-.34.87-.51,1.31,0-.15,0-.29,0-.44a37.48,37.48,0,0,0-1.92-12c.18.32.36.66.52,1A22.12,22.12,0,0,1,553.69,481.17Z"/><path class="cls-8" d="M566.94,469.55c0-.26-.3-.22-.64,0-.09-.66-.2-1.31-.32-2-.93-4.9-3.16-12.94-7.82-15.38-2-1-5.39,4.22-5.08,5.86.86,4.57,3.63,8.69,4.78,13.3a45.48,45.48,0,0,1,1.33,14.83c0,.51-.11,1-.17,1.52a70.39,70.39,0,0,1-3.93,12.93l-.14.3c-.7,1.37-2.4,3.35-2.41,5.09q-1.32,2.47-2.88,4.86c-2.27,3.42-1.2,4.08.56,3.33l-1.05.9c1.82.29,4.21-3.09,5-4.24,1.4-2.15,2.69-4.38,3.88-6.66,3.32-3.7,5.56-9.9,6.9-15a7.21,7.21,0,0,0,.73-1,23.76,23.76,0,0,0,2.61-9.82C568.43,475.33,567.47,472.57,566.94,469.55Z"/><path class="cls-2" d="M145.79,362.75c.05-3.39-1-6.6-3.63-8.36a13.23,13.23,0,0,0-1-1.49c-4.29-5.51-12.72-2.83-16.55,2.36a19.17,19.17,0,0,0-6.35,14,21.72,21.72,0,0,0-.48,4.31c0,4.52,1.4,10.59,5.86,12.79s10.07-.24,13.56-3.19c.34-.29.66-.61,1-.92,3.51-1,6.81-9.71,7.37-12.12A19.74,19.74,0,0,0,145.79,362.75Z"/><path class="cls-9" d="M144.06,355.51a9.15,9.15,0,0,0-4.89-4.74.77.77,0,0,0-.55.1,11.39,11.39,0,0,0-1.4-.69.38.38,0,0,0-.33.06,3,3,0,0,0-.65-.46c-.34-.16-.81.65-.85.9a8.58,8.58,0,0,0,.94,5.41c.2.41.39.83.61,1.22.95,4,2,7.86,1.28,12.3-1.07,6.63-5.76,9.95-9.06,15.23a5.37,5.37,0,0,0-.68,2.33c.46,0,.92-.09,1.38-.16.93-.49,1.87-1,2.78-1.48a14.87,14.87,0,0,0,5.33-3.18l.31-.29a21.57,21.57,0,0,0,2.28-2c1-1,4.63-4.54,4.45-6.42C147.33,368.33,148,359.52,144.06,355.51Z"/><path class="cls-5" d="M1181.6,109.36c-6.41,12.78-12.59,25-22,35.93a134.89,134.89,0,0,1-32.26,27.25,149.69,149.69,0,0,1-37.87,16.29c-8.45,2.36-23.49,7.15-33.65,3.9l-1.75,0a40.34,40.34,0,0,1-10.66.71,1.27,1.27,0,0,0,0,.81c7,12.59,28,7.29,39.26,4.77a138,138,0,0,0,44.73-19.14c3-2,6-4,8.83-6.18a.45.45,0,0,0,.27.18c2.83.72,6.48-3,8.52-4.51a116.93,116.93,0,0,0,10.31-8.53c5.5-5.18,9.93-10.56,12.76-17.58.34-.87-.79-.05-1,.2-1.19,1.59-2.47,3.13-3.8,4.63,10.12-12,20.37-26.78,24.67-42C1189.61,100.55,1182.35,107.86,1181.6,109.36Z"/><path class="cls-5" d="M448.83,620.1a67.48,67.48,0,0,0-11-1.32c-1.61,0-3.72,2-5.32,4.39a3.31,3.31,0,0,0-.26.27c-6.87-1.14-13.74-.28-20.68.37-3.49.13-7,.36-10.51.51-.66,0-1.31,0-2-.08-11.17-.69-22.15-7.6-33.23-3.28-1.41.55-8.87,8.13-6.06,9.4a44,44,0,0,0,13,4c8,3,17.29,4.14,25.2,5.24a167.83,167.83,0,0,0,37.95.71c2.1-.18,9.39-7.45,6.72-9.42l-.22-.15.31-.08C444.85,630.11,452.67,620.85,448.83,620.1Z"/><path class="cls-5" d="M486.64,635.39c-8.31-3.48-18-6.46-27-4.73a8.47,8.47,0,0,0-2.71,2.22,30.52,30.52,0,0,0-5.89-.44c-1.13,0-3.73,2.9-2.87,4,6.41,8.44,23,8.33,32.46,7.4C482.39,643.7,489.08,636.41,486.64,635.39Z"/><path class="cls-5" d="M460.75,620.68a19.83,19.83,0,0,0-3-.34c-.8-.09-2,.86-2.48,1.29a13.71,13.71,0,0,0-2.8,3.23c-.54.88-2.53,4.18-.52,4.52,1,.16,1.92.34,2.89.49,2,.31,3.41-1.09,4.67-2.47S464.22,621.65,460.75,620.68Z"/><path class="cls-5" d="M130.48,624.65c-1.41-1.92-3.78-3.16-6.28-4.3a1.4,1.4,0,0,0-.34-1.56l-.57-.42a1.23,1.23,0,0,0-1.19,0l-1,.47-.14.09a21.43,21.43,0,0,1-3.94-2.19c-4.25-3.16-6.44-8.1-10.42-11.26-4.31-3.42-11.92-3.78-16.92-5.61-5.77-2.12-11-5.21-16.52-7.78-2.19-1-7.68,5.84-5.84,7.42.65.56,1.33,1.09,2,1.6-.34,13.46,20.86,9.7,28.41,15.44,5.66,4.3,12.46,13.89,19.23,11.72a16.46,16.46,0,0,0,11.37-.35C129.17,627.6,131.19,625.6,130.48,624.65Z"/><path class="cls-5" d="M143,617.68a.61.61,0,0,0-.64-.5s-.42-.35-.52-.4a9.41,9.41,0,0,0-1.07-.31,11.51,11.51,0,0,1-1.75-.89,8.72,8.72,0,0,1-3.12-2.63c-.95-1.34-4.29,2.43-4.73,3s-3.33,4.66-1.82,5.3l0,0a7,7,0,0,0,6.2,3.58,7.62,7.62,0,0,0,4.69-2C141.68,621.62,143.48,619.69,143,617.68Z"/><path class="cls-5" d="M974.74,491.54c-4.54,14.42-11.14,29-20.21,41.14-.3.41-.08.6.25.19,10.34-12.92,18-26.44,22-42.59C977.12,488.72,975,490.89,974.74,491.54Z"/><path class="cls-5" d="M826.74,618.54l-1-.42c-1.69-.76-3.69,1.61-4.93,3.64,0-.66-.28-1-1.22-.49-9.7,4.7-19.8,6.3-30.3,8.23-.89.16-4.66,4.19-3.3,4.63,7.24,2.35,15.07,1.23,22.33-1.19a.93.93,0,0,0,.57,1c8.54,3.63,16.7-6.44,18.14-14A1.42,1.42,0,0,0,826.74,618.54Z"/><path class="cls-5" d="M836.62,611.75l-.21,0a14,14,0,0,0-2-.62,2,2,0,0,0-1.2,0,2.74,2.74,0,0,1-1.45,0c-.41-.07-1.14.51-1.38.72a8.4,8.4,0,0,0-1.32,1.47c-.39.54-1.5,2.09-.82,2.75.15.15.3.3.46.44a2.35,2.35,0,0,1,.13.74,2.1,2.1,0,0,0,.67.78c.55.51,1.22.83,1.76,1.34s1.34-.12,1.77-.36a9.75,9.75,0,0,0,2.81-2.84C836.27,615.46,838.5,612.12,836.62,611.75Z"/><path class="cls-5" d="M936.41,482.84A95.87,95.87,0,0,1,930,492c-5.35,4-10.08,8.87-14.79,13.74q-11.67,8.66-23.32,17.36h0l-1.5,1.11a20.72,20.72,0,0,0-5.3,6.22A185.5,185.5,0,0,1,861,543.26c-3.61,1.59-6.65,5.28-8.32,8.79-.77,1.61-2.34,6.52,1.35,5.09,14.74-5.71,32.54-13.27,44.74-24.67,4,4.21,10.24,1.41,13.83-2a26,26,0,0,0,6.29-9,22,22,0,0,0,1.29-4.42c.07-.44.13-.89.17-1.34a11.16,11.16,0,0,0,1.26-2.49l.18-.7a6.47,6.47,0,0,0,.3-1.75,142.59,142.59,0,0,0,13.66-13.28c1.87-2.08,4.58-5.11,4.9-8a4.26,4.26,0,0,0-.28-2.49,42.37,42.37,0,0,0,2.58-7.56C943.9,475.45,936.88,482.1,936.41,482.84Z"/><path class="cls-5" d="M936.09,501.81c-1.94.2-3.33,1.3-4.91,2.33a30.37,30.37,0,0,0-5.13,4c-.61.61-2.29,2.58-1.82,3.59.31.68.42.87,1.17,1a11.43,11.43,0,0,0,1.43.08c.47,0,1,.1,1.43.07a6.82,6.82,0,0,0,2.92-1.27,14.36,14.36,0,0,0,5.08-5.89C936.58,505,938,501.62,936.09,501.81Z"/><path class="cls-5" d="M921.48,525.55a426.48,426.48,0,0,1-57,40c-9.94,5.83-20.14,11.16-30.5,16.2-5.06,2.45-10.06,5-15.25,7.22-5.75,2.41-11.93,4-17.26,7.18-.48.29-2.18,2-1.52,2.64,5.57,5.31,23.38-4.42,29-7,10.68-4.93,21.12-10.47,31.32-16.32l.53-.31c-.35,1.11-.15,2,1,2.26h0a10.56,10.56,0,0,0-1.42,3.08c-.24.22-.5.4-.73.63-.84.78-6.23,7.19-5,9a3.75,3.75,0,0,0-.51,2.5c.41,1.7,2.83,1,4,.5a10.22,10.22,0,0,0,1.88-1,25.9,25.9,0,0,0,3.23-1c1.89-.66,8.33-8.73,7.5-10.91a8.56,8.56,0,0,0,2.11.87c5.25,1.46,9.47-3.27,12.13-7.16.69-1,2.86-4.64,1-5.44a1.9,1.9,0,0,0-1.38.07,23.85,23.85,0,0,0,4.9-4.93,18.53,18.53,0,0,0,1.83-3.48,186.29,186.29,0,0,0,31.56-29.21C925.16,528.17,926.9,521.05,921.48,525.55Z"/><path class="cls-5" d="M854.27,582c-1.54-.07-2.92,1.17-3.89,2.21a14.12,14.12,0,0,0-1.69,2.16,7.59,7.59,0,0,0-1,2.15,1.24,1.24,0,0,0-.09.66.72.72,0,0,0,.23.66l-.16-.23a.69.69,0,0,0,.73.57,1.62,1.62,0,0,1,.58,0c.65.14,1.87-.85,2.26-1.17a12.71,12.71,0,0,0,2.53-2.94C854.19,585.47,856.13,582.09,854.27,582Z"/><path class="cls-5" d="M856.49,519.41c-12.28,8.25-24.45,16.76-37.32,24.1a132.72,132.72,0,0,1-19.9,9.45c-6.95,2.55-14.3,4-20.83,7.53-.68.37-3,2.76-3.42,4.34a82.2,82.2,0,0,0-8.11,2.59c-.81.31-5.13,4.78-3.51,5.44,6.55,2.71,15.48-.12,22-2a120.35,120.35,0,0,0,23.91-10.37q2.92-1.61,5.8-3.32a.71.71,0,0,0,.41.53c1.46.74,3.5.55,5.53,0a3.81,3.81,0,0,0,.51,1.32c2.21,3.6,5.92,1.75,8.86-1.1,2.28-.85,4.24-3.2,5.42-5.05,1.43-2.22,2.73-5.42,1.41-8a4,4,0,0,0-1.65-1.7c6.34-4.76,12.53-9.74,18.65-14.75,1.9-1.56,5-4.86,5.09-7.5C859.45,518.89,858.71,517.92,856.49,519.41Z"/><path class="cls-5" d="M817.15,562.78c-.55-.55-.64-1.18-1.4-1.52a5.79,5.79,0,0,0-2-.54,8.2,8.2,0,0,0-4.9,1.57,12.42,12.42,0,0,0-4.45,5.41c-.48,1.19-.92,3.09,1,2.57,1.2-.32,2.34-.88,3.54-1.23.58-.17,1.18-.36,1.77-.5.93-.23,1.91-.68,2.83-.82C814.81,567.54,818.45,564.08,817.15,562.78Z"/></g><g id="Light"><path class="cls-10" d="M923.31,762.93c-6.48-20.8-21.28-33.75-39.71-44.3-44.31-25.36-89.51-49.2-133.88-74.45a114.59,114.59,0,0,1-28.16-22c-6.6-7.25-10.66-21-21.14-22.75-.47-.08-1.65,1.36-1.26,1.75,6.89,6.86,10.35,16.24,16.27,23.84,6.26,8,14.3,14.5,22.7,20.17,19.24,13,39.77,23.83,60.1,35,22.61,12.47,45,25.23,67.52,37.92,18.83,10.61,38.36,21.09,48.26,41.36,10.57,21.66,8.2,45.07,8.61,68.35,0,2.83,5.19-2.77,5.35-4.54C929.8,803.64,929.22,781.89,923.31,762.93Z"/><path class="cls-10" d="M1003.84,135.78a15.66,15.66,0,0,0-2.18-2.81,16.49,16.49,0,0,0-6.67-4c-5.49-1.74-10.53-.18-14.6,3.7-.2.2-1.49,1.89-.68,2,4,.51,7.65-.36,11.61,1.23a16.43,16.43,0,0,1,5.36,3.45,14.15,14.15,0,0,1,1.7,2,8.57,8.57,0,0,1,1.11,1.93,2.49,2.49,0,0,0,1.41,1.25c.88,1.57,4-2.87,3.86-4C1004.52,138.07,1005,137.77,1003.84,135.78Z"/><path class="cls-10" d="M979.13,138.43c-23,3.12-44-7.72-64.94-15.55s-42-16.23-63.25-23.6c-9.11-3.16-18.42-5.83-28.12-6.08-10.22-.26-20.24,2.27-30.43,2.47-11,.21-19.49-4.09-29.1-8.81-7.38-3.63-14.14-6-21.89-2.09-.3.15-1.75,2-1.11,1.94,9.3-1,17.06,3.59,24.94,7.83,7.64,4.1,14.89,6.56,23.66,6.57,10.46,0,20.78-2.5,31.26-1.77,11,.76,21.59,4.32,31.87,8.1,20.86,7.68,41.62,15.62,62.48,23.3,19,7,40.22,17,60.89,13.52C977.33,143.93,980.43,138.26,979.13,138.43Z"/><path class="cls-10" d="M1177.83,78c-8.25,12.14-25,18.5-38,24.05-12.24,5.2-24.85,9-37.65,12.53-21.14,5.79-42.82,11.71-57.19,29.32-.32.39-.58,1.49.19.78,20.11-18.21,48.6-20.86,73.32-29.08A239,239,0,0,0,1158.56,98c8-4.41,20-11.08,21.56-21.18C1180.34,75.32,1178,77.75,1177.83,78Z"/><path class="cls-10" d="M885.18,863l-.18-.89a.47.47,0,0,0-.5-.39c-4.65-.78-9.74-1.07-14.16-2.83-.79-.31-2.32,1.18-3,2.45-2.69-1-5.82-1.12-8.6-1.83-.88-.22-1.75-.48-2.62-.72a264.54,264.54,0,0,0-26.3-11.7q-5.4-3-10.7-6.16c-13.24-7.85-25.74-16.32-38.19-25.21-6.68-5.29-13.13-10.82-19.59-16.39a488.29,488.29,0,0,1-42.13-41q-5-5.52-9.91-11.16c-5-11.22-14.22-20.9-21.11-30.83Q675.86,698.57,664.73,680c-15.13-25.22-27.37-51.81-40.94-77.82-.55-1-2.89,1.39-3.35,2.87-.85.82-1.81,2.3-1.69,2.83,2.08,9.7,6.74,19.37,10.77,28.41q5.9,13.2,12.61,26a507.72,507.72,0,0,0,29.72,50.15q7.21,10.63,15,20.81c-4.37,1.12-8.73,3.41-12.91,4.76a195.23,195.23,0,0,1-19,5c-12.11,2.57-24.62,2.73-36.65,5.4a176.07,176.07,0,0,0-25.37,2.75,1.35,1.35,0,0,0-.48.35q-8.28-.44-16.58-.76c-13.35-.53-26.71-.7-40.06.08A221,221,0,0,0,461.58,768c-.17.07-.57.73-.32.63,23.71-8.74,49.38-13,74.56-13.87,12.39-.41,24.81-.14,37.18.54,6,.32,11.94.79,17.9,1.29,6.33.52,12.64,1.74,18.88.26.51-.12,2.46-2.22,1.85-2.76,9.33-.46,18.81-2.09,27.5-3.18,7.74-1,15.46-2.12,23.14-3.51,7.33-1.32,15.77-2.13,22.45-5.51.29-.14,2-1.87,1.17-2a14.69,14.69,0,0,0-6.38.43,53.4,53.4,0,0,0,9.1-4.68h0a469.72,469.72,0,0,0,61,64.85c8.3,7.3,17,14.13,25.81,20.77,1.55,1.17,3.15,2.23,4.77,3.25,11.64,9,23.69,17.74,36.1,25.59,13.25,8.38,33.8,22.84,50.33,16.76a8.81,8.81,0,0,0,2.65-2.62c4.25,2.66,9.48,4.89,14,1.79C884,865.44,885.39,864.07,885.18,863Z"/><path class="cls-10" d="M497.85,428c-4.91-.69-9.5.39-14.27,1.48-2.32.53-4.61,1-6.89,1.6a.51.51,0,0,0-.29-.41c-5.71-2.86-15.12,5.86-18.85,9.42-4,3.8-12,11.95-11.18,18,.16,1.24,2.52-1.22,2.61-1.34,2.26-2.91,4-6,6.29-8.78.16,0,.31,0,.47-.06a24.63,24.63,0,0,1,5-4.38c3.75-2.47,7.91-4,11.53-6.71,2.68-.41,5.35-1,8-1.52a70.15,70.15,0,0,0,16.16-4.78C496.78,430.33,498.83,428.09,497.85,428Z"/><path class="cls-10" d="M121,385.33c.35.28.72.55,1.11.82,0,0,0,0,0,0,1.31.5,2.61,1,4,1.49a11.51,11.51,0,0,1-1.77-1.12,7.08,7.08,0,0,1-1.7-2.05,18.8,18.8,0,0,1-4.49-8.43c-.09-.59-.17-1.17-.23-1.76l.06-.13c.4-1.93.09-3.88.24-5.85a35.1,35.1,0,0,1,.49-3.63,24.31,24.31,0,0,1,10.84-13.42c.25-.15.93-1.28.32-1-10.71,5.6-18.52,21.88-11.73,31.88A7,7,0,0,0,121,385.33Z"/><path class="cls-10" d="M298.2,394.06c-6.39-4-15.58-7.28-23.29-6.23A10.4,10.4,0,0,0,268,392.1a18.58,18.58,0,0,1-4.41-1.25c-.28-6-6.75-9.9-11.47-13a67.49,67.49,0,0,0-20.86-8.95c-1-.27-2.54.62-4,2-1.58-1.07-3.17-2.11-4.81-3.08-1.9-1.12-6.25,4.73-5.07,6.43a58.39,58.39,0,0,0,10.74,11.35,61.14,61.14,0,0,0,24,15l2,.65,1.13.52a2.18,2.18,0,0,0,1.06.18c3.17.95,6.54,1.59,9.36.31a12,12,0,0,0,4.89-4.36c3.26-.32,7.63.54,10.06.44,5.12-.21,10.49-.77,15.56-1.36C296.73,396.91,299.06,394.59,298.2,394.06Z"/><path class="cls-10" d="M308.08,396.76c-.84-.31-2.13.17-3.07.08a8.2,8.2,0,0,1-3.67-1.28c-.25-.16-.92.73-.7.89,1.81,1.34,4.85,2.41,6.95,1.15C307.69,397.54,308.32,396.84,308.08,396.76Z"/><path class="cls-10" d="M370.38,405.56c-2.36-3.37-7.74-3.3-11.54-3.87a90.09,90.09,0,0,0-15.48-1.09c-.56,0-2.39,2.13-1.73,2.42,7.68,3.36,19.1,7.33,27.34,4.72C369.53,407.56,370.81,406.19,370.38,405.56Z"/><path class="cls-10" d="M722.2,404.81c-4.17-1.06-9.78,1.48-13.89,2.53a101.59,101.59,0,0,0-17.4,5.82c-.23.11-1.43,1.49-.87,1.52,5.13.18,9.61-.88,14.58-2.06l2.1-.48c1.45,1.72,2.71,3,5.29,2.85,3.1-.2,5.59-2.58,7.52-4.87a10.72,10.72,0,0,0,1.68-2.84C721.94,406.53,723.06,405,722.2,404.81Z"/><path class="cls-10" d="M749,396.07c-2.28-.79-4.75.47-7,1-3.25.79-6.24,2.28-9.43,3.23-.43.13-1.79,2-1.16,2,4.7-.07,9.62,1.33,14.09-.82C746.14,401.19,750.64,396.65,749,396.07Z"/><path class="cls-10" d="M874.43,345.6c-5.4,4.77-10.28,9.44-17.08,12.27-.32.14-1.27,1.59-.87,1.52,7.57-1.34,15.55-6.17,18.58-13.59C875.32,345.18,874.73,345.34,874.43,345.6Z"/><path class="cls-10" d="M882.44,337.56a8.93,8.93,0,0,0-2,1.32l-2.13,1.51c-.16.11-.58.87-.22.62l2.23-1.48a14.46,14.46,0,0,0,1.92-1.36C882.36,338.09,882.77,337.45,882.44,337.56Z"/><path class="cls-10" d="M882.37,336.91s.1-.11.07-.11S882.34,336.91,882.37,336.91Z"/><path class="cls-10" d="M1016.58,153.86c-.12-6.13.18-13.76-2.32-19.43-.81-1.86-4.54,3.24-4.56,4.32-.21,9.53,1.69,19,1.33,28.62a197.26,197.26,0,0,1-3.18,28,224.68,224.68,0,0,1-7,28.24c-3.34,10.42-6.27,24.24-17.19,28.57-.06-1-.15-2.1-.28-3.15-.27-2.11-6,4.15-6.12,5.79-.4,4.5-.24,9-.23,13.55,0,2.22,0,4.44,0,6.66,0,.8-.42,4,.62,3.72-3.19,1.63-11.43-.46-14.5.19a16.72,16.72,0,0,0-11.85,13.23c-.44,3.42,1.7,8.36-.4,11-3.34,4.31-13,3.86-17.86,6.67-5.18,3-8.85,7.77-12.14,12.65-2.59,3.86-4.78,8.15-9.74,9.19-4.66,1-9.33-1.74-13.48-3.6-7.55-3.37-14.79-6.32-22.84-8.18.69-1.05,1.32-2.31.94-3.18-.59-1.33-2.42,0-3.08.61-1.88,1.71-3.76,3.41-5.63,5.13-.19-.16-.9.27-1.18.6-.76.93-1.59,1.79-2.38,2.7a11.45,11.45,0,0,0-1.15,1.46,152,152,0,0,1-12.81,8.43A205.5,205.5,0,0,1,822,348.36c-18.24,6.91-37.15,11.93-56.1,16.4a791.25,791.25,0,0,1-131.53,19.5c-25.43,1.61-51.21.29-76.51,2.95-1.17.12-4.11,3.41-4.22,5-3.19-4.25-8.82-6.66-13.53-9a109.2,109.2,0,0,0-18.8-7.22A115,115,0,0,0,479,372.17a137.41,137.41,0,0,0-50.19,14.95c3-2.94,5.81-8.79,3.94-8.63q-3.9.35-7.8.57c1.59-1.89,2.69-4,1.49-4.72-4.75-2.9-11.16-3.38-16.52-4.75s-10.92-2.9-16.33-4.51c-12.2-3.61-24.27-7.74-36.16-12.27-11.36-4.32-22.57-9.12-33.71-14-7.84-3.43-15.84-8.48-24.14-11.41-4.06-2.08-8.11-4.17-12.18-6.23q-13.87-7.06-27.78-14.09c-17.51-8.87-35.5-17.75-55.36-19.43-9.85-.83-19.75-.23-29.62-.79-10.81-.61-20.78-3.34-31-6.92-7.9-2.78-15.75-5.78-24-7.42-9.6-1.9-17.25-1.11-26,2.9a38.36,38.36,0,0,0-6.15-.82c-.74,0-2.27,1.28-3.26,2.66-1-.14-2.08-.26-3.12-.35s-3.62,3.12-2.64,3.7l.87.49a15.47,15.47,0,0,0-1.55,1.27,7.86,7.86,0,0,0-.68.72,4.4,4.4,0,0,0-1.3.58,6.24,6.24,0,0,1,.7-.76c.5-.47,2.75-4.13.72-2.93a17.37,17.37,0,0,0-7.4,9.67,1.44,1.44,0,0,0,0,1.18,36.2,36.2,0,0,0-3.24,6.62,3.08,3.08,0,0,0-.14.54,34,34,0,0,0-2.56,4.5c-1.34,2.86-4.13,8.07-1.56,10.8.73.77,2.51-1.93,2.72-2.32,2.58-4.68,3.39-12.75,8.53-15.15,3.92-1.83,10.58-1.93,14,.94.57.46,2.08-1.61,1.87-2.15-1-2.48-2.12-4.36-4-5.46a8.48,8.48,0,0,0,1.89-2.75,2.7,2.7,0,0,0,.22-1c7,3.36,14.3,6.26,21.22,9.81,10.19,5.22,20.06,11,29.79,17,19.63,12.17,38.86,24.87,59.21,35.83,40.37,21.72,83.68,38.15,129,45.83a347.09,347.09,0,0,0,37,4.35,71,71,0,0,0,18.84,3.66,84.43,84.43,0,0,0,13.51.2,51.46,51.46,0,0,0,5.48.87c1.29.12,3.93-2.41,5.58-4.87.17-.15.34-.31.52-.49a54.78,54.78,0,0,0,7.31-2.87,12.1,12.1,0,0,0,5.13-5.18,1.54,1.54,0,0,0,.1-.19c1.88-.18,3.77-.37,5.65-.59a88,88,0,0,0-22,17.38c-.22.23-1.74,2.74-.55,2.22,5.13-2.24,9.46-5.86,14.24-8.76a147.11,147.11,0,0,1,19.09-9.84A124.13,124.13,0,0,1,477.06,380a113.45,113.45,0,0,1,37.88,4,105.47,105.47,0,0,1,19.77,7.81c5.62,2.91,10.82,7.83,17.27,8.29,1.37.09,4-3.15,3.51-4.45a12.08,12.08,0,0,0-1.32-2.67h0c1.16.24,2.33.46,3.51.67a4.6,4.6,0,0,0-.88,2.42c4,19.72,28.06,20,44.22,20.28,25,.44,49.78-2.29,74.28-6.87,48-9,95.71-23.6,141.77-39.87,22.62-8,44-18.58,61.07-35.8a27.21,27.21,0,0,0,2.61-3.13,111.72,111.72,0,0,0,17.56,8.26c7.09,2.61,12.7.39,18-4.58,6.35-6,9.18-15.3,18-18,7.18-2.23,13.76-3.26,19.11-9,5.14-5.53,5.42-10.54,4.94-17.7l-.06-2.05c.25-.08.54-.18.88-.32,1.43.15,3-.08,4.45,0,2.92.11,5.91.54,8.79-.13,4.67-1.09,8.23-4.86,10.17-9.13,1.83-4,1.37-8.26,1.32-12.58,0-3.19,0-6.41,0-9.63,16-4.94,20.67-32.31,24.31-45.48,3.41-12.32,6.33-24.85,7.64-37.59A156.54,156.54,0,0,0,1016.58,153.86ZM125.92,285.92l-.08,0c-4.29-1.69-8.67-3.11-13-4.53a116.07,116.07,0,0,1,13.43,4A3.73,3.73,0,0,0,125.92,285.92Z"/><path class="cls-10" d="M106.86,300c-3-2.83-7.34-3.59-11.06-5-.15-.06-.51.41-.39.49,3.39,2.21,6.44,5,10.51,5.79C106.26,301.35,107.15,300.26,106.86,300Z"/></g><g id="Ink"><path class="cls-1" d="M543.34,433c-26.85-15.14-66-15.94-90.12,5.41a.78.78,0,0,0-.37.17c-3.46,3-6.57,7.16-7.45,11.75C431.57,467.49,425,491.43,434.07,512,445.51,538.09,477.9,542,503,539.21c24.89-2.74,50.52-13.8,64.24-35.67,7.43-11.86,11-27,5.48-40.29C567.37,450.4,555.24,439.68,543.34,433Zm-12.38.21a81.42,81.42,0,0,1,22.14,14.1c-8-.28-16.61,1.43-24.37,2.1-10,.88-20,1.77-30,2.79s-20,2.15-29.94,3.33c-7.82.92-16.43,1.62-24.19,3.83,3.95-6.44,8.57-12.47,13.22-18.91a.8.8,0,0,0,.16-.58c10.89-5.83,21.66-10.74,34.27-12.18A76.45,76.45,0,0,1,531,433.19Zm-78.1,8.4a2.06,2.06,0,0,0,.57.25l-1,.86c.08-.32.17-.64.28-.95ZM564,496.22c-10.6,19.74-32.05,30.83-53.28,35.28-22.23,4.66-54.79,6.49-69.38-14.69-7.86-11.41-8.93-26.23-5-39.26a73.15,73.15,0,0,1,6.43-14.92c8.58.72,17.66-.64,26.14-1.42,10-.91,20-1.9,29.94-2.81s20-1.84,30-2.69c9.39-.79,20.43-.06,29.38-3a3.27,3.27,0,0,0,.33-.14c.57.62,1.16,1.24,1.71,1.88C570.8,466.92,571.64,481.89,564,496.22Z"/><path class="cls-11" d="M478.54,487.92a11.36,11.36,0,0,1-4.84,2.3c-.32,0-.64.06-1,.07-.74.59-1.8,1.22-2.24.31a4.34,4.34,0,0,1-.17-.4h-.19a.6.6,0,0,1-.27,0l-.56,0a.54.54,0,0,1-.42-.19c-.19-.14-.28-.39-.18-.81a.14.14,0,0,1,0-.07c0-.18,0-.35,0-.53a.56.56,0,0,1-.25-.37c-.39-.82.3-2.61.5-3.43s.35-1.38.57-2c0-.19.05-.38.08-.57l0,0a1,1,0,0,1,.09-.29,3.1,3.1,0,0,1,.7-1.07,7.37,7.37,0,0,1,.87-1.19c.12-.14.44-.51.85-.94a21.14,21.14,0,0,0-4.53-2.51c-5.27-2.12-11.63-3-17-.8-2.5,1-5.32,3.07-5.84,5.62A10.74,10.74,0,0,0,442,485.8c-4.47,6.32-4.79,15.65,1.13,21.48,7.65,7.53,26.88,7.23,33.47-1.74a18.57,18.57,0,0,0,2.46-18.05C478.89,487.63,478.72,487.79,478.54,487.92Z"/><path class="cls-1" d="M530.45,673.92a1.18,1.18,0,0,0,.43,1.6c2.19,1.33,4.78,1.56,6.57,3.69s2.7,5.7,3.15,8.54c.78,5-1.42,10.89.42,15.43a1.78,1.78,0,0,0,2.59,1.05c6.69-4.56,4.38-17.55,1.7-23.93C543.29,675.52,535.05,667.49,530.45,673.92Z"/><path class="cls-1" d="M862.86,512c.42-.4-.19-1-.62-.63a350.26,350.26,0,0,1-47.82,32.41c-8.11,4.52-16.38,8.78-24.85,12.59-8.13,3.66-18.11,5.92-25.55,10.8-.6.39-.42,1.49.39,1.44,8.34-.58,17.05-5.23,24.67-8.5a258.48,258.48,0,0,0,27-13.42A250.48,250.48,0,0,0,862.86,512Z"/><path class="cls-1" d="M943.6,473.69c-7.45,6-13.92,13.24-20.88,19.78s-14.17,12.9-21.51,19.07C886,525.33,870,537.16,854.15,549.12a.22.22,0,0,0,.22.38c17.27-9.64,33-21.22,48.25-33.86,14.65-12.18,31.07-25.42,42.19-41C945.36,473.86,944.23,473.19,943.6,473.69Z"/><path class="cls-1" d="M925.42,520.7c-19.65,14.16-38.87,28.75-59.52,41.45q-15.46,9.52-31.49,18.11c-11.2,6-23.29,13.87-36.14,15.07-.84.08-.86,1.37,0,1.32,11.19-.63,21.18-5.83,31-10.74q17.9-8.92,35-19.29C886,553.4,907.49,539,926.17,521.68,926.68,521.21,926,520.28,925.42,520.7Z"/><path class="cls-1" d="M1184.34,58.34a1.72,1.72,0,0,0-1.4-1.31c-.24-.37-.46-.76-.72-1.13a1.33,1.33,0,0,0-2.42,1c.14.87.3,1.73.46,2.59-2.18,6.44-4,12.49-8.72,17.75-4.92,5.51-11.34,9.32-18,12.32-14.54,6.53-30.17,10.88-45.07,16.56q-21.12,8-41.86,17c-8.24,3.57-20.84,7.84-25.38,16.64-4.45-4.59-14.64-7.58-18.26-8-5.32-.66-11.45-.3-15.43,3.81a12.7,12.7,0,0,0-1,1.19,40.06,40.06,0,0,0-8.61-11.66,2.16,2.16,0,0,0-2.44-.5c-4.8-2.64-12-1-16.18,2.05-2.54,1.87-6.43,6.2-7.16,10.14-7,.69-13.2-2.57-19.62-5.07-6.65-2.59-13.28-5.23-20-7.75q-18.75-7.09-37.54-14.12c-23.41-8.8-47.66-20.33-73-21.23-13.54-.48-27.43,3.29-40.78-.28-10.45-2.8-19.89-9.78-30.94-10.35-15.35-.8-29.68,12.35-20,27.46,6.16,9.6,18.08,16.13,27.6,21.79a155.09,155.09,0,0,0,19.37,10c4.85,2.67,10.12,4.81,14.92,7.06q11.36,5.32,23,10.06a469.65,469.65,0,0,0,51.77,17.65,409.79,409.79,0,0,0,52.31,11.18c8.13,1.15,16.3,2,24.34,3.65,8.31,1.71,15.64,4.77,23.09,8.51,3.12,12.66-2.21,25.28-8.06,36.56a280.16,280.16,0,0,1-19.19,31.32A252,252,0,0,1,915.93,292q-6.51,6.88-13.5,13.26c-3.28,3-7.14,5.85-10.11,9.27l-.31.15a5,5,0,0,0-.87.42l-1.46.65a17.94,17.94,0,0,0-2.56,1.6c-4.06-2.3-8.32-4.24-13-4.29-9.3-.12-14.51,7.39-20.4,13.36-16.18,16.41-41.48,21.73-62.93,27.62q-36.91,10.16-74.68,16.85c-56.66,10-113.69,12.94-171.12,11.71a82.24,82.24,0,0,0-17.59-8.94c-16.1-6-33.92-7.28-50.9-5.44a145.29,145.29,0,0,0-34.05,8c-29.69-10.33-59.39-20.4-88.44-32.47a945.89,945.89,0,0,1-88.1-42c-13.3-7.22-26.82-14.84-41.72-18.16-15.43-3.45-31.2-1.52-46.84-2.16-29.71-1.22-57.57-19-87.77-12.69-28,5.88-36.35,32-42.16,56.76a460.53,460.53,0,0,0-12.08,89.92A475.8,475.8,0,0,0,63.27,593c10.23,28.2,22.28,58.47,43.65,80.23C128,694.64,160.6,705,189.61,694.88l0,0c45.43-2.53,90.8-13.35,136.38-8.67,23.8,2.44,47.09,8.18,70.55,12.68q8.61,1.65,17.3,2.93c-13.35,10.08-32.4,11.44-48.23,14.71-20.92,4.33-41.77,9-62.7,13.22-19.65,4-40.21,6.83-59,14a112.56,112.56,0,0,0-22.74,11.67c-5.85,3.94-12.78,8.59-15.35,15.48-3.28,8.8.41,16.66,6.64,22.24,15.45,21.46,46.75,26.79,71.36,25.24,16.72-1.06,33.19-4.89,49.48-8.6q24.92-5.67,49.53-12.6C415.23,788,446.55,775.7,478.75,766c16.25-4.89,32.94-8.63,50-9,4.27-.09,8.54,0,12.81.14-6.51,8-11.1,18.72-15.68,27.68-5.17,10.13-10.86,20.73-14.3,31.62-2.56,8.1-2.58,16.89,4.37,22.82,6.72,5.74,16.66,7.39,25.15,8.22,16.87,1.66,41.27,1.37,54.36-11.41,6.57-6.41,8.52-15.65,8.61-24.52a117.09,117.09,0,0,0-1-13.87,2.07,2.07,0,0,0,1-1.39c2.91-15.62,18.18-25.94,26-39.28a2.77,2.77,0,0,0,.39-1.33A487.4,487.4,0,0,0,693,743.92c.75,1.05,1.48,2.1,2.24,3.14,14.77,20.29,31.06,39.51,50.18,55.86,18.63,15.93,39.11,29.57,60.13,42.13,12,7.17,24.11,14.43,37.2,19.44,9.37,3.58,21.47,7,31.88,4.87a2,2,0,0,0,2.32.79c10.25-3.74,19.33-11,27.9-17.65q6.76-5.22,13.29-10.74c2.83-2.41,6-4.66,8.21-7.6a1.82,1.82,0,0,0,2.86-1c6.07-24.91,3.92-54-2-78.77-2.63-11-8.37-18.79-17.73-25-11-7.32-22.82-13.52-34.22-20.13q-18.51-10.75-37.06-21.43c35.24-15.38,70.42-32.42,103.2-52.54,15-9.18,29.34-19.72,41.16-32.8,12.07-13.36,21.21-29,28.81-45.28,32.45-69.37,41.77-147.37,41.94-223.22.09-43-2.92-86-6.32-128.8,9.42,1.74,20.77,0,29.91-1.22a145.1,145.1,0,0,0,30.42-7.18,136.33,136.33,0,0,0,51.55-33,112.4,112.4,0,0,0,28.36-51.05c3.86-15.77,5.56-37.61-2.62-52.84C1184.56,59.36,1184.48,58.85,1184.34,58.34ZM906.73,309.55q7.82-7.14,15-14.9a263.11,263.11,0,0,0,25.35-32,222.94,222.94,0,0,0,19.84-36.3c4.26-9.93,7.21-20.63,4.07-30.92a1.29,1.29,0,0,0-.23-.67,29.76,29.76,0,0,0-1.52-3.75,1.91,1.91,0,0,0-3.11-.24c-10.9-7.67-26-9.22-38.66-11.33-17.89-3-35.7-6.62-53.22-11.31A478.4,478.4,0,0,1,822.32,151q-13.23-5.21-26.1-11.24c-8.09-3.78-16.19-9.25-24.82-11.56a1.82,1.82,0,0,0-.8-.05c-11-5.62-21.67-11.67-30.73-19.95-4-3.69-8-8.52-7.23-14.31.73-5.45,5.77-8.47,10.68-9.71,10.15-2.59,19.74,3.21,28.81,6.9,21.32,8.66,44.32.51,66.46,5.34,22.69,4.94,44.52,14.93,66.19,23.09,12.93,4.86,25.84,9.77,38.82,14.47,7,2.54,16.42,7.72,24.57,7a3.77,3.77,0,0,0,1,.68,6.26,6.26,0,0,0,2,.62,4.3,4.3,0,0,0,3.1-.64,1,1,0,0,0,.4-.15,5.2,5.2,0,0,0,2.12-3c1.08-2.88,2.32-5.32,4.78-7.28,4.24-3.38,8.43-2.84,13.12-2.77,14.66,17.74,12.37,41.71,8.44,62.86q-3.3,17.75-8.28,35.12c-1.4,4.91-2.54,10.79-5.64,15-3.38,4.57-8.83,3.72-12.86,7.06-5,4.12-4,11.26-3.71,17,.22,5.16.27,9.55-6.14,9.87-4.09.21-7.74-1.54-11.77.25-5.74,2.55-7,9-7.81,14.59-.46,3-.57,6.78-2.21,9.42-2.46,3.95-8.5,2.32-12.53,3.91-6.87,2.7-10.68,9.53-15.2,14.93-7,8.31-14.11,8.12-23.12,2.93l-.54-.32a1,1,0,0,0,0-.1c.12-.22.24-.44.37-.65,0-.05.35-.55.17-.29l.41-.64C898.94,317,903,313,906.73,309.55Zm-693.86,462c3.79-6.78,12.76-11.56,19.25-15.29a115.89,115.89,0,0,1,26.21-10.76c17.69-5,36.07-7.88,54.08-11.51,21-4.23,42-7.92,62.95-12.31,16.29-3.42,33.71-6.15,45.59-18.88a311.59,311.59,0,0,0,41.87,2.65c8.73-.06,17.46-.58,26.16-1.43-12.24,10.15-24.43,20.5-37.7,29.25-15.06,9.92-31.22,16.81-48.36,22.3C369.33,766.3,336.47,780,302.39,789.12c-16.51,4.41-33.43,7.44-50.57,7.35-8.45,0-17.65-.3-25.73-3C217.56,790.55,207.33,781.46,212.87,771.53Zm394.21,5.09a67.92,67.92,0,0,0-5.36,7.67,28.83,28.83,0,0,0-1.59-6.07c-.38-1-2.13-1.32-2.34,0-2.77,17.42,9.46,38-4.35,53.27-11.07,12.2-32.25,12.43-47.42,11.78-8.77-.38-20.25-1.24-27.28-7.2-9.65-8.18-2.22-22,1.92-31.11,3.8-8.37,7.93-16.6,12.31-24.68,4.09-7.53,9.64-15,12.91-22.94,11.54.55,23.07,1.52,34.63,1.49,14,0,28-.83,42.09-2.27C617,762.77,612.1,770.06,607.08,776.62Zm574.23-663.5a106.52,106.52,0,0,1-28.91,48.33,135.4,135.4,0,0,1-50.57,30.36,142.54,142.54,0,0,1-29,6.26c-8.57.94-17.76-.08-26.27,1.15q-.22-2.86-.46-5.74c-.21-2.61-4.27-2.66-4.11,0l.48,7.93a2.94,2.94,0,0,0,.08,1.44c4.6,76.27,9.39,153.28-1.72,229.2-5.36,36.67-14.41,72.8-28.34,107.18-6.74,16.63-14.57,33-25,47.67-11,15.45-25.36,27.89-41.09,38.37-35.12,23.4-74.6,41.11-112.92,58.52a2.63,2.63,0,0,0-1,.71q-52.71-30.29-105.74-60c-3.84-2.15-7.88-3.38-9.72-7.47-1.5-3.32-.22-5.31-.39-8.73a15.71,15.71,0,0,0-1.5-5.83c4.37-.84,8.14-6.64,9.31-10.56,1.73-5.82-4.63-10.19-9.21-12.43a27,27,0,0,0-3-1.23c-.44-3-3.35-5.52-6.12-6.75-4.71-2.1-9.94-.83-14.17,1.83a1.41,1.41,0,0,0,.71,2.6c3.41.28,7-.31,10.35.53a2.46,2.46,0,0,1,.29.09c-11.61-.7-24.62,3.66-31.35,12-.63.79-.3,2.26.91,2.19,10.72-.61,19.63-8,30.83-7.4,4.45.24,13.41,1.73,14,7,.44,3.77-3.21,5.68-4.69,8.71a16.45,16.45,0,0,0-1.8-1.93c-7.09-6.31-17.49-4.53-21.55,3.94-.51,1.06.64,2.67,1.81,1.81,3.66-2.67,10.43-4.36,14.5-1.74,6.3,4,3,9.46,3,15.07,0,9,12.66,13.09,19.05,16.67q32.68,18.36,65.26,36.94,33.13,18.9,66.15,38,16.5,9.57,33,19.19c9.07,5.3,20.15,10.3,25.24,20,3.35,6.43,4.32,14.38,5.51,21.43a217,217,0,0,1,2.58,22c.84,12.65.12,25.25-.06,37.9-4.14,1-7.23,4.18-10.46,6.89-4.36,3.65-8.73,7.32-13.16,10.89-7.33,5.9-15.41,10.94-22.84,16.7-5.27-.12-10.47.66-15.76.17a74.46,74.46,0,0,1-20-5.16c-11.78-4.61-22.74-11.23-33.58-17.67C789.15,828,769,814.79,750.7,799.31c-38-32.06-65.24-74.49-90.72-116.65q-11.07-18.31-21.35-37.09c-6.78-12.37-12.51-25.92-20.62-37.47-1.17-1.67-4.19-.72-3.49,1.47,3.82,12.07,10.68,23.42,16.68,34.51q9.59,17.71,19.86,35c12.05,20.3,24.69,40.36,38.3,59.68-32.29,6.29-64.27,12.56-97.28,13.68-31.84,1.08-63.22-4.55-94.74,2.21-31.32,6.72-61.15,19.6-91.7,29-30.95,9.57-62.38,18-94.13,24.49-18.28,3.76-37.43,6.78-56,3.65A71.51,71.51,0,0,1,227.59,801c16.3,4.18,34.62,2.72,51,.15,38.3-6,73.78-22.74,110.41-34.61,20.57-6.67,40.91-12.83,59.5-24.19,17.54-10.72,33.24-24,47.6-38.6a2.48,2.48,0,0,0,.39-.51c1.33-.16,2.66-.32,4-.5,6.06-.79,12.11-1.75,18.11-2.9,5.27-1,10.35-1.68,14.31-5.54a.37.37,0,0,0-.17-.61c-4.1-1.29-7.75-.61-11.86.22q-9.09,1.83-18.26,3.07a286.62,286.62,0,0,1-34.76,2.46c-23.49.32-46.45-2.59-69.47-7-22-4.25-43.8-9.49-66-12.31-23-2.92-45.75-2-68.72.59-24.3,2.71-48.79,5.12-72.89,9.33a2.78,2.78,0,0,0-2.66-.66c-28,6.31-55.93-.09-76.35-20.9-18.94-19.29-30-45.68-39.46-70.57A472.24,472.24,0,0,1,50.05,344.56c4.78-25.19,9.09-61,38.32-68.66,27.62-7.26,54.31,8.63,81.31,11.76,15.83,1.83,31.9-.47,47.68,2,15,2.31,28.49,9.49,41.65,16.65,55.3,30.06,114.18,57.07,175.32,73.12-2.48,1.07-4.94,2.2-7.35,3.41a141.62,141.62,0,0,0-23,14.56c-6.24,4.83-13.35,10.24-17.7,16.91-1.86,2.85,2.09,5.23,4.38,3.38,6-4.79,10.86-10.84,16.93-15.61a131,131,0,0,1,20.49-13.15,135.52,135.52,0,0,1,15.94-7l.16,0a2.27,2.27,0,0,0,2.6-1,129.91,129.91,0,0,1,28.64-6.34c15.19-1.58,30.88-.77,45.52,3.78A78.05,78.05,0,0,1,541.34,388c6.49,4.36,11.13,10.44,16.88,15.6a1.26,1.26,0,0,0,2.09-1.21c-1.33-5.76-4.75-10.71-9.18-14.89,50.46,2.57,101.51-1,151.38-8.59a785.34,785.34,0,0,0,78.77-16.12c22.33-5.79,47.72-10.92,67.07-24.17a66.61,66.61,0,0,0,11.06-9.47c4.21-4.52,8.51-10.57,15.44-10.08,8.47.59,15.43,8.17,23.2,11,6.76,2.46,13.45,1.51,19-3.15,6-5.07,9.45-14.47,16.87-17.74,3.92-1.73,8.45-.3,12.23-2.63a12.51,12.51,0,0,0,5-6.92c2.47-7.24,0-19.27,10.55-18.87,7,.27,14.12,1.25,16.47-7.09.94-3.37.53-7,.35-10.47-.3-5.76-.6-9.35,5.59-11.56,10.06-3.59,13-11.48,15.85-21.25a367.09,367.09,0,0,0,9.74-42.43c2.37-14.11,3.88-30.47-.53-44.5,1.5-3.34,3.25-5.3,7.84-6,3.59-.53,8.06.65,11.51,1.83a18.73,18.73,0,0,1,8.59,5.76c1.31,1.49,1.49,2.29,3.44,3a1.58,1.58,0,0,0,1.75-.71,6,6,0,0,0,1-2.51c9.6-11.51,25-15.93,38.54-21.53q23.43-9.72,47.35-18.23c13.62-4.85,28.53-8.61,40.26-17.44,5.15-3.88,10.57-9.55,13.44-15.93a78.84,78.84,0,0,1,1.83,13.11A93,93,0,0,1,1181.31,113.12Z"/></g><g id="ELight"><path class="cls-10" d="M62.15,300.26l0,0Z"/><path class="cls-10" d="M1013.79,158.28a12,12,0,0,0-1.26-8,12.81,12.81,0,0,0-.47-1.31c-.17-1.88-.4-3.75-.71-5.6-.88.68-1.74,1-2.39.58l-.13-.17a1.56,1.56,0,0,0,.1-.61c-.39-3.7-3.57-6-6-8.63l-.33-.12a24.93,24.93,0,0,0-2.17-1.7c-.86-.67-1.68-1.32-2.54-1.91a5.69,5.69,0,0,0-.69-.85,10.66,10.66,0,0,0-1.66-1.15c-.3-.19-.73.08-1.13.5a2.31,2.31,0,0,0-.66.47c-.45-.3-.89-.61-1.31-.92a1.33,1.33,0,0,0-.15.83c.13.39.28.76.44,1.13-.18.27-.27.55-.14.69l.06.06a.86.86,0,0,0,0,.66,14.34,14.34,0,0,0,2,2.4,1,1,0,0,0,0,.73c3.23,6.21,7.32,11.75,10.72,17.79,0,.3.09.61.15.9,0,8.44-.08,16.77-.73,25.17-.49,3.63-1.1,7.22-1.75,10.74q-3.3,17.75-8.28,35.12c-1.4,4.9-2.54,10.79-5.64,15-3.38,4.57-8.83,3.72-12.86,7.06-5,4.11-4,11.26-3.71,16.95.22,5.17.27,9.56-6.14,9.88-4.09.2-7.74-1.55-11.77.24-5.74,2.55-7,9-7.81,14.6-.46,3-.57,6.78-2.21,9.41-2.46,3.95-8.5,2.32-12.53,3.91-6.87,2.71-10.68,9.54-15.2,14.93-7,8.32-14.11,8.13-23.12,2.94l-.54-.32,0-.1c.06-.12.13-.22.19-.33-2.39-.81-4.81-1.67-6.58-3.33-4-2.26-8.2-4.14-12.83-4.2-9.3-.11-14.51,7.4-20.4,13.37-16.18,16.41-41.48,21.72-62.93,27.62q-36.91,10.15-74.68,16.85c-56.66,10-113.69,12.94-171.12,11.7a82.18,82.18,0,0,0-17.59-8.93c-16.1-6-33.92-7.29-50.9-5.44a145.29,145.29,0,0,0-34.05,8c-29.69-10.34-59.39-20.41-88.44-32.48a943.36,943.36,0,0,1-88.1-42c-13.3-7.21-26.82-14.83-41.72-18.16-15.43-3.44-31.2-1.51-46.84-2.15-29.71-1.23-57.57-19-87.77-12.69a43.94,43.94,0,0,0-12.81,4.76c-.94.61-1.86,1.2-2.73,1.78l0,0a5.09,5.09,0,0,0-1.47.92l-.1.1-1.29.83.33.12a10,10,0,0,0-.65.81,8.66,8.66,0,0,0-2,1.7c-.46.51-3.39,4.15-2.83,5.16-.83,1.29-2.16,3.37-2,4.78a9.77,9.77,0,0,0-.65,2.4,17.2,17.2,0,0,0-1.83,3,2.16,2.16,0,0,0-.15.45c-.11.23-.22.45-.32.68-.31.7-.63,1.57-.37,2a10,10,0,0,0-1.1,5,.32.32,0,0,0,.34.27h.28c.8,0,1.64-1.24,2-1.86.17-.34.44-.88.47-1a3.78,3.78,0,0,0,.13-1.05,2.48,2.48,0,0,0,.79-1.57.21.21,0,0,1,0-.06.38.38,0,0,0,.09-.18,4.13,4.13,0,0,0,.3-.68c0-.15.09-.3.13-.45a13.94,13.94,0,0,0,1.09-1.55,5.08,5.08,0,0,0,.91-1.07s0,.06,0,.1a8.36,8.36,0,0,0,.31.78c-.11.42-.14.89.22,1l0,0a.69.69,0,0,0,.64,0,4.64,4.64,0,0,0,1.95-1.67l.47-.65a5.1,5.1,0,0,0,.45-.69l0-.06a7.45,7.45,0,0,0,1.06-1.63c.21-.43.6-1.15.4-1.64v0a.53.53,0,0,0-.39-.33.58.58,0,0,0,0-.14l.28-.32c.78-.92,1.22-2.09,1.93-3a11.56,11.56,0,0,1,1.86-1.84l0,.06a29.29,29.29,0,0,0-.8,3.23.66.66,0,0,0,.35.8c.38.13.82-.15,1.13-.32a9.21,9.21,0,0,0,3-2.8c.11-.15.23-.32.34-.5a16,16,0,0,0,5.29,1,8.23,8.23,0,0,0,5.22-1.89q26.1,7.1,51.78,15.63c3.21,1.07,8.37-6.86,8.24-9.3a277.37,277.37,0,0,0,32.17,6.17c11.41,1.32,23.19-.52,34.46,1.5s21.45,8.72,31.36,14.34c10.38,5.89,20.9,11.56,31.58,16.87a707.85,707.85,0,0,0,65.8,28.49c11.76,4.42,23.67,8.44,35.67,12.15,10.43,3.23,21,6,31.14,9.86-.66,1.12-1,2.13-.26,2.36a54.7,54.7,0,0,0,7.67,1.49,29.64,29.64,0,0,0-9.81,6.51,15.5,15.5,0,0,0-2,3.1,6.65,6.65,0,0,0-.49.53l-2.4,1.19-.73.19c-.84.23-2,1.5-3,2.92a12,12,0,0,0-2.11,4c-4.7,3.79-9.34,8-12.52,12.84,0,.07-.06.13-.1.19l-.15.15a8.48,8.48,0,0,0-1.6,3,2.09,2.09,0,0,0-.39,1.25c-.36.57-.59,1.17-.32,1.54a.43.43,0,0,0,.39.17,2.28,2.28,0,0,0-.22.57c-1.25,1.75-3.14,6.13.37,3.46,3.83-2.92,7.52-6,11.18-9.07,3.22-2,6.26-4.63,8.87-6.53A135.28,135.28,0,0,0,419,395.77a38,38,0,0,0,4.39-3.32c1.17-.37,2.34-.72,3.54-1a19.74,19.74,0,0,0,3.62-.89,9,9,0,0,0,2.85-2.59l.06-.08c7.8-3,15.29-6.57,23.51-8.57a113.52,113.52,0,0,1,34.6-2.95,106.58,106.58,0,0,1,33,7.49,113,113,0,0,1,15.31,7.8c2.15,1.28,4.26,2.88,6.45,4.33,4,4.5,9.39,8.12,14.13,11.43,5.86,4.1,10.73,6.69,17.24,3a12,12,0,0,0,3.54-.2c1-.21,3-2.53,2.59-3.61a8.57,8.57,0,0,0-3.72-4v-.05a.69.69,0,0,0-.74-.58l-.64-.16a55.31,55.31,0,0,0-7.82-2.95,53.87,53.87,0,0,0-5-4.1c-.66-.51-1.35-1-2-1.52-.15-.14-.31-.28-.45-.43s-.49-.51-.73-.77c4.78.77,9.2,1.26,13.63-.32,23.27,4.42,47.63.93,71-1.06,23-2,45.94-4.31,68.73-7.89,41.67-6.56,82.92-16.81,121.32-34.38,4-1.7,7.88-3.56,11.71-5.62a11.26,11.26,0,0,0,4.66-5.68,7.42,7.42,0,0,0,.35-2c3-2.39,5.79-5.07,8.75-7.56,3.5-2.93,6.67-4.49,11.18-3.31,3.67.95,7.15,2.83,10.61,4.36,8.35,3.69,18.78,9.13,26.57,2.65-.39,1.22.38,1.6,1.61.58a18.87,18.87,0,0,0,8-7.34,11.44,11.44,0,0,0,.67-1.17l.18-.15v0a7.89,7.89,0,0,0,2.85-3.28,3.58,3.58,0,0,0,.31-1l.22-.21c4.65-4.15,9.74-6.26,15.44-8.46,6.62-2.56,12.08-7,14.3-14,.78-2.48.19-8.24,1.59-10.19,1.58-2.19,10.44-1.54,13.39-2.87a20.94,20.94,0,0,0,1.93-1,1.72,1.72,0,0,0,1.38,1.36c.48.1,1.1-.41,1.44-.67a8.61,8.61,0,0,0,1.72-1.69l.48-.65c.38-.4.75-.82,1.1-1.26.8-1,1.9-2.52,2-3.88,0-.55,0-1.1-.67-1.19a13.17,13.17,0,0,0,1.35-6.5c-.18-2.92-1.78-5.82-1.15-8.8.43-2,1.93-3.7,3.61-5.18a23.64,23.64,0,0,0,5.9-3.72.66.66,0,0,0,.43.19c.95.1,2.07-1.11,2.65-1.69a27.72,27.72,0,0,0,5.41-7.72,4.63,4.63,0,0,0,.47-1.91,25.4,25.4,0,0,0,2.37-4.68c.26-.71.17-1-.1-1a77.23,77.23,0,0,0,4.62-15.35c1.56-7.63,2.9-15.35,4.07-23.07a27.75,27.75,0,0,0,1.87-5.88,68.13,68.13,0,0,0,2.07-26.57c0-.2-.16-.22-.34-.14,0-.49,0-1,0-1.48A5.86,5.86,0,0,0,1013.79,158.28Z"/><path class="cls-10" d="M983.89,130.9l-.47.4a12,12,0,0,0-1.86.94,17.44,17.44,0,0,0-2.28,2,23.06,23.06,0,0,0-3.95,5.32c-.21.43-.59,1.27.07,1.45s1.27-.66,1.68-1.16c1.17-.36,2.15-1.56,3-2.35l3.36-3.12c.9-.84,2.18-2.13,2.24-3.46S984.41,130.44,983.89,130.9Z"/><path class="cls-10" d="M344,721.27c-4.05.56-8.1,1.39-12.05,2q-11.61,1.91-23.18,4.08c-11.87,2.24-23.78,4.6-35.47,7.67-.67,0-1.35.07-2,.14-4.61,1.39-9.35,2.57-14.1,3.57-2.93,1-5.76,2.09-8.31,3a90,90,0,0,0-18,8c-7.15,2.23-14.74,8.31-20,13.16-4.33,4-8.2,10-5.74,16.08.05.13.16.08.29,0s.1-.46.16-.67a24.22,24.22,0,0,1,3.73-8.09c5.69-11.95,19.28-17.06,31.51-21.86a282,282,0,0,1,37.93-11.65c9.11-2.16,18.31-3.93,27.54-5.48,8.18-3,17-4.71,25.39-6.32,7.22-1.38,14.59-2.57,21.56-5,1-.36,2.1-.81,3.18-1.27A61.83,61.83,0,0,0,344,721.27Z"/></g><g id="Edark"><path class="cls-3" d="M444.27,373.58c-2.46-1.44-6.92.61-9.32,1.56-.31.12-.59.27-.89.4-6.94,1.37-14.89,6.93-20.28,10.55a104.46,104.46,0,0,0-19.91,17.33c-.3.34-.82,1.74,0,.95a138.13,138.13,0,0,1,19.69-15.66c6.94-4.45,14.73-7.25,21.69-11.56l.15-.13c2.71-.78,5.56-1.1,8.1-2.3C443.71,374.64,444.61,373.79,444.27,373.58Z"/><path class="cls-3" d="M627,416.7c-5-.8-10.19-.05-15.24-.42a62.84,62.84,0,0,1-18.48-4.21,68.2,68.2,0,0,1-14.07-7.52c-4.93-3.41-9.23-8.36-14.64-10.9-.24-.11-.71.54-.58.75,6.21,9.82,19.79,17.48,30.53,21.28,9.69,3.42,21.44,6,31.47,2.78C626.27,418.36,627.59,416.8,627,416.7Z"/><path class="cls-3" d="M1005.08,150.41c-.07-.35-1,.66-1,.92-.2,12.39.45,24.54-1,36.9-.33,2.76-.74,5.51-1.19,8.25a118,118,0,0,0-5.95,24.66q-.56,1.76-1.14,3.48c-2.72,7.9-5.64,15.71-13.75,19.56-2.5,1.19-4.67,2.08-6.43,4.32-3.27,4.16-2.68,9.67-2.71,14.86-.17,1.22-.33,2.43-.46,3.65a25.33,25.33,0,0,0-.43,4.11,8.2,8.2,0,0,1-5,2.47c-1.67.29-3.51-.33-5.24-.44a0,0,0,0,1,0,0,3,3,0,0,0-2.48-.11,6.8,6.8,0,0,0-3.61,1.09,2.78,2.78,0,0,0-1.62.57c.14-.82-1.38.42-1.67,1-.14.28-.26.57-.39.86a17.63,17.63,0,0,0-1.63,2.14c-.16.24-.31.5-.45.76a1.72,1.72,0,0,0-.41.38,35.38,35.38,0,0,0-3.08,8.51,23.83,23.83,0,0,0-.83,7.27c-1.46,2.48-3.5,4.68-6.13,5.48s-4.48,0-6.7.47c.07-.14.09-.26,0-.3-1.64-.7-3.83,1-5,2a12,12,0,0,0-3.15,4c-.88,1-1.66,2.2-2.36,3.16a47.49,47.49,0,0,0-3.52,5.68c-1.41,1.36-3,2.5-4.35,3.93,0,0-.6.87-.28.82a3.41,3.41,0,0,0,.62-.19c-.5.43-1,.85-1.56,1.27.91-.22,1.82-.45,2.72-.7a42.43,42.43,0,0,0,6.9-7.38c1.5-2.06,2.67-4.73,4.47-6.52a13,13,0,0,1,9.77-4,11.82,11.82,0,0,0,3.2,0,9.84,9.84,0,0,0,6.09-4.92c0,.14,0,.28,0,.41s.06.28.17.28c.94-2.5,2-5,3.05-7.38,1.2-5.36,2.63-11.29,6.14-14.25,4.23-3.58,9.16.08,14-2.23,5.16-2.47,6.28-8.16,5.34-13.29.1-2.93-.28-5.86.42-8.79,1.44-6,8-6.75,11.93-10.39,5.82-5.37,8.62-13.3,11.08-20.6a173,173,0,0,0,8-35.76C1006.59,174.78,1007.55,161.89,1005.08,150.41ZM947,287.88c-.18.72-.34,1.45-.5,2.18.06-.6.11-1.21.21-1.81a43,43,0,0,1,.95-4.37,6.51,6.51,0,0,0,.08,1.25A16,16,0,0,0,947,287.88Z"/><path class="cls-12" d="M626.11,756.63c-.64-1.6-2.58-.94-3.94-.71-.93.15-1.81.36-2.69.59-7.12.1-14.94-.22-22.25.8q-13.4-.79-26.82-.81a1.6,1.6,0,0,0-.7.19c-1.09-.06-2.18-.11-3.25-.2-5.8-.49-11.6-1.28-17.42-1.4-.73-.24-1.79.54-2.69,1.61l-.71.43c-3,2-4.92,5.35-6.21,8.59-.37.94-.49,2,.6,2.3l1.92.56c-.09.54,0,1,.65,1.2l.64.17c.37.1.83-.19,1.27-.59,6.77,2,13.78,4.21,20.78,4.58a25.16,25.16,0,0,0,5.32,1.48c.39.08.94.14,1.57.21-1.53,2.1-2.46,4.33-1.33,5.11a27.32,27.32,0,0,0,16.61,5.08c-1.34,1.55-2.76,3.66-2.46,4.73a3.19,3.19,0,0,0-.22,2.78,61,61,0,0,1,4.16,7.46c.29,3.31.85,7,3.23,8.52.3,1,.58,2,.83,3,.86,3.55.42,10,2.11,13.55-1.12,1.7-2.35,3.3-3.57,5-.59.81-2.32,2.95-1.79,4.16s2.11,0,2.7-.53a22,22,0,0,0,6.72-10l.14-.2c2.2-3.51,2.72-6.85,2.88-11,.06-1.71,0-3.42,0-5.12-.08-2.27-.82-3.59-1.73-5.63-.17-.37-.5-.32-.87-.06,0-.14-.07-.27-.11-.4a8.18,8.18,0,0,0,1-1.8,103.77,103.77,0,0,0,1.8-18.29l.37-.43c3.17-4,6.5-7.92,9.94-11.71a5.14,5.14,0,0,0,.46-.5h0l1.29-.26c1-.21,2.41-1.53,3.73-3.14a16.09,16.09,0,0,0,3.85-5,9.67,9.67,0,0,0,2.1-1.17C624.72,759.33,626.53,757.69,626.11,756.63Z"/></g><g id="Shadow" class="cls-13"><path class="cls-11" d="M688.88,736.88l-.06,0,0-.07c-2.77-4-5.19-8.21-7.32-11.61q-1.9-3-3.69-6.13c-4.58-5.89-9.24-11.74-13.36-18-6.46-9.84-12.41-20.05-18-30.42-5.33-9.91-10.29-20-15.06-30.2-.94-2-1.85-4.14-2.75-6.31-.14-.75-.29-1.5-.43-2.24a1.21,1.21,0,0,0-1-1.13c-2.72-6.55-5.65-13.21-9.92-18.39a46.55,46.55,0,0,0-1-5.46c-.52-2-4.72,3.6-4.86,4.6-1.63,11.82-1.68,23.82-3.27,35.67a246.62,246.62,0,0,1-7.58,36.08,225.38,225.38,0,0,1-30.43,64.33c-.74,1.09-2.88,4.74-.61,5.32,8.95,2.27,18,1.27,27.07.5q14.3-1.21,28.58-2.62c19.12-1.88,38.23-3.92,57.23-6.73a4.56,4.56,0,0,0,2.13-1.24,1.13,1.13,0,0,0,.1.13c.14.16.3.31.46.46l1.72-.61c.72-.25,1.54-.57,2.42-.92a4,4,0,0,0,.26-1.38l0-.12c0-.06,0-.12,0-.19a6.82,6.82,0,0,0,.76-1.11l-.06-.11C689.86,738.29,689.37,737.59,688.88,736.88Z"/><path class="cls-11" d="M484.27,704.6c.29-.86.26-1.48-.35-1.58a.75.75,0,0,0-.52-.19,2.1,2.1,0,0,0-1.13.29,317.49,317.49,0,0,1-52.33,0c-4.56-.38-6.72.14-9.16,2-5.25,1.8-10.37,5.18-15.31,7.24-4.2,1.76-8.73,2.95-13,4.62-9.31.9-18.49,2.67-27.74,4.21-2.61.43-9.23,9.57-6.2,9.64,1.85,0,3.7,0,5.55,0a15.39,15.39,0,0,0-4.64,4.31c-5.55,8,2.8,9.3,10.69,9.15a11.48,11.48,0,0,0-2.13,5.1c-.39,2.73.93,4,3.06,4.46A20,20,0,0,0,368,764c0,.72,0,1.83,1.08,1.78l1.32-.09c-1.52,1.94-3.08,4.87-1.35,4.26,11.68-4.12,23.15-9,34.56-14,2.43-.91,4.84-1.87,7.25-2.86,5.06.12,11.11-3.66,15.24-5.52a187.31,187.31,0,0,0,20.41-10.76,168.77,168.77,0,0,0,19-13.42c2.9-2.38,6-4.84,8.79-7.56q3-2.34,5.91-4.77a1850.47,1850.47,0,0,1,3.73-4.37c.12-.25.56-1.3.26-1.67A1.46,1.46,0,0,0,484.27,704.6Z"/></g></svg>