<?xml version="1.0" encoding="UTF-8"?>
<svg version="1.1" viewBox="-20 -20 152 142" xmlns="http://www.w3.org/2000/svg">
 <path d="m5.544 25.599c3.433 1.771 7.372 1.453 18.545 0.356 0.13-10.841-0.076-5.597-0.734-15.569 12.088 3.014 10.032 3.981 17.348 4.027 3.572-6.799 8.604-19.935 11.992-18.812 0.432 3.878 8.235 13.08 14.248 18.715 10.138-3.919 14.106-3.179 20.354-6.906 0.993 7.37 4.364 13.13 0.933 18.989 0 0 9.219 5.717 19.799 7.146-2.329 4.523-6.723 14.374-11.098 19.99 11.96 2.692 5.741 13.85 19.092 17.417-10.149 5.441-9.502 3.655-24.524 4.915 0 0-5.857 12.707-3.358 21.069-10.111-2.306-18.222-4.053-21.879-9.029-8.207 4.164-16.184 8.437-23.543 15.558l-7.019-16.054c-13.836-7.744-18.145 0.024-25.411 2.218 1.038-6.596 5.559-19.065 8.751-23.016-9.978-6.216-13.733-10.63-23.842-12.668l19.842-7.074c-3.304-12.193-5.573-15.394-9.496-21.272z" fill="url(#c)"/>
 <path d="m64.387 16.089c20.74 4.598 31.613 16.39 31.613 36.181s-16.794 31.719-37.536 35.644c-24.495 4.635-42.316-12.723-38.182-35.859 0.854-4.777 2.774-9.944 5.979-14.206 6.587-8.758 11.492-18.229 19.672-23.01 3.781-2.21 13.485 0.148 18.454 1.25z" fill="url(#d)"/>
 <path d="m60.013 25.902l0.013 0.015 0.322 0.908-0.438 0.775-9e-3 5e-3 -0.092 0.064-0.096 0.065-0.095 0.064-0.095 0.062-0.096 0.062-0.095 0.061-0.095 0.059-0.095 0.058-0.094 0.058-0.095 0.056-0.095 0.055-0.095 0.054-0.095 0.052-0.095 0.052-0.095 0.051-0.095 0.05-0.095 0.048-0.096 0.048-0.095 0.046-0.096 0.046-0.096 0.045-0.096 0.043-0.096 0.043-0.097 0.041-0.097 0.041-0.097 0.04-0.097 0.039-0.098 0.038-0.098 0.037-0.098 0.036-0.099 0.036-0.099 0.034-0.1 0.034-0.1 0.033-0.1 0.032-0.101 0.031-0.101 0.031-0.102 0.03-0.103 0.029-0.104 0.029-0.207 0.054-0.211 0.053-0.214 0.05-0.216 0.047-0.22 0.046-0.224 0.044-0.228 0.042-0.232 0.04-0.236 0.039-0.24 0.038-0.246 0.036-0.249 0.035-0.519-0.277 0.313-0.497 0.232-0.093 0.224-0.091 0.218-0.091 0.212-0.091 0.207-0.09 0.201-0.09 0.195-0.091 0.191-0.091 0.185-0.091 0.181-0.092 0.176-0.092 0.172-0.094 0.083-0.046 0.083-0.048 0.082-0.047 0.081-0.048 0.08-0.048 0.079-0.049 0.078-0.048 0.077-0.05 0.076-0.049 0.076-0.05 0.075-0.051 0.074-0.051 0.073-0.051 0.072-0.052 0.072-0.052 0.071-0.053 0.071-0.054 0.07-0.054 0.069-0.055 0.069-0.055 0.068-0.056 0.068-0.057 0.068-0.058 0.067-0.058 0.067-0.059 0.067-0.06 0.066-0.06 0.066-0.062 0.066-0.062 0.065-0.064 0.066-0.064 0.065-0.065 0.066-0.066 0.065-0.068 0.065-0.068 0.065-0.069 0.066-0.071 0.065-0.072 0.065-0.073 0.069-0.077 7e-3 -7e-3 0.825-0.331 0.858 0.449z"/>
 <path d="m51.772 24.647l0.43 0.768v0.01l2e-3 0.08 3e-3 0.088 1e-3 0.088v0.086l-1e-3 0.086-3e-3 0.084-4e-3 0.084-5e-3 0.083-6e-3 0.082-8e-3 0.081-8e-3 0.08-0.01 0.079-0.01 0.079-0.012 0.077-0.013 0.077-0.013 0.075-0.015 0.075-0.015 0.074-0.017 0.073-0.017 0.075-0.036 0.139-0.04 0.138-0.041 0.136-0.045 0.132-0.046 0.129-0.048 0.127-0.05 0.124-0.051 0.122-0.053 0.12-0.053 0.118-0.055 0.116-0.055 0.116-0.11 0.225-0.112 0.224-0.112 0.222-0.055 0.111-0.055 0.112-0.054 0.112-0.054 0.115-0.49 0.32-0.289-0.508 5e-3 -0.131 7e-3 -0.131 8e-3 -0.13 8e-3 -0.129 0.017-0.253 0.017-0.247 0.014-0.243 6e-3 -0.118 4e-3 -0.117 4e-3 -0.116 1e-3 -0.114v-0.113l-2e-3 -0.111-4e-3 -0.109-7e-3 -0.108-8e-3 -0.106-0.012-0.105-0.013-0.103-0.016-0.105-0.019-0.098-0.011-0.05-0.011-0.05-0.012-0.049-0.012-0.049-0.014-0.049-0.014-0.049-0.015-0.048-0.016-0.049-0.016-0.048-0.017-0.049-0.018-0.048-0.019-0.048-0.02-0.048-0.021-0.048-0.022-0.049-0.022-0.048-0.024-0.049-0.03-0.066 0.067-0.871 0.863-0.537 0.019-5e-3 0.98 0.16z"/>
 <path d="m46.387 24.535l0.4 0.79v0.118l1e-3 0.101 1e-3 0.101 2e-3 0.099 4e-3 0.099 4e-3 0.098 5e-3 0.096 6e-3 0.096 7e-3 0.096 8e-3 0.094 9e-3 0.093 9e-3 0.093 0.011 0.092 0.011 0.091 0.013 0.09 0.013 0.089 0.015 0.088 0.015 0.088 0.016 0.087 0.017 0.086 0.018 0.085 0.019 0.084 0.02 0.084 0.021 0.082 0.022 0.082 0.023 0.081 0.023 0.081 0.025 0.079 0.025 0.079 0.027 0.078 0.027 0.077 0.029 0.077 0.029 0.076 0.03 0.075 0.032 0.074 0.032 0.074 0.033 0.072 0.034 0.073 0.035 0.071 0.037 0.071 0.037 0.07 0.038 0.069 0.04 0.069 0.04 0.068 0.041 0.067 0.043 0.066 0.043 0.066 0.045 0.066 0.045 0.064 0.047 0.064 0.048 0.063 0.049 0.063 0.05 0.062 0.051 0.061 0.052 0.06 0.054 0.06 0.054 0.059 0.056 0.059 0.057 0.058 0.058 0.057 0.059 0.056 0.061 0.056 0.062 0.055 0.065 0.056 0.131 0.56-0.564 0.114-0.084-0.039-0.085-0.043-0.085-0.044-0.084-0.046-0.084-0.047-0.082-0.048-0.082-0.05-0.082-0.051-0.08-0.052-0.08-0.054-0.079-0.055-0.078-0.056-0.077-0.058-0.077-0.059-0.076-0.061-0.075-0.062-0.074-0.063-0.074-0.064-0.072-0.066-0.072-0.068-0.071-0.068-0.07-0.07-0.069-0.071-0.069-0.073-0.067-0.074-0.067-0.075-0.065-0.077-0.065-0.077-0.064-0.08-0.063-0.08-0.062-0.082-0.062-0.082-0.06-0.085-0.059-0.085-0.059-0.087-0.058-0.088-0.056-0.089-0.056-0.09-0.055-0.092-0.054-0.092-0.053-0.094-0.052-0.096-0.051-0.096-0.05-0.097-0.05-0.099-0.048-0.1-0.047-0.101-0.047-0.102-0.045-0.104-0.045-0.104-0.044-0.106-0.043-0.106-0.042-0.108-0.041-0.109-0.04-0.11-0.039-0.111-0.038-0.113-0.038-0.113-0.036-0.115-0.036-0.115-0.034-0.117-0.034-0.118-0.033-0.119-0.034-0.124 0.171-0.871 0.843-0.477 0.02-2e-3 0.949 0.222z"/>
 <path d="m44.059 28.67l0.58 0.802 5e-3 0.019-0.091 1.027-0.753 0.435-0.01 1e-3h-0.051l-0.038-2e-3 -0.037-2e-3 -0.038-1e-3 -0.037 1e-3h-0.036l-0.036 2e-3 -0.036 3e-3 -0.036 3e-3 -0.036 4e-3 -0.035 5e-3 -0.035 6e-3 -0.035 7e-3 -0.035 7e-3 -0.036 9e-3 -0.035 9e-3 -0.035 0.01-0.035 0.012-0.035 0.012-0.035 0.013-0.036 0.015-0.035 0.015-0.036 0.017-0.035 0.018-0.036 0.018-0.035 0.02-0.036 0.021-0.036 0.022-0.036 0.024-0.036 0.024-0.036 0.026-0.036 0.027-0.036 0.028-0.036 0.029-0.036 0.03-0.036 0.032-0.035 0.033-0.036 0.034-0.036 0.035-0.036 0.036-0.035 0.037-0.036 0.038-0.035 0.04-0.036 0.04-0.035 0.042-0.034 0.041-0.07 0.09-0.069 0.093-0.068 0.096-0.068 0.1-0.066 0.104-0.066 0.107-0.065 0.11-0.064 0.114-0.064 0.119-0.505 0.299-0.265-0.524 0.012-0.141 0.015-0.143 0.017-0.142 0.02-0.141 0.022-0.141 0.026-0.139 0.028-0.139 0.032-0.139 0.034-0.135 0.02-0.07 0.02-0.068 0.02-0.068 0.022-0.068 0.023-0.067 0.024-0.067 0.025-0.067 0.026-0.066 0.027-0.067 0.028-0.065 0.03-0.066 0.03-0.065 0.032-0.065 0.034-0.065 0.034-0.064 0.036-0.064 0.037-0.063 0.039-0.063 0.04-0.063 0.042-0.061 0.043-0.062 0.045-0.061 0.046-0.06 0.047-0.059 0.049-0.059 0.051-0.058 0.053-0.057 0.054-0.057 0.055-0.055 0.057-0.055 0.059-0.054 0.061-0.052 0.062-0.052 0.063-0.051 0.065-0.049 0.067-0.049 0.068-0.047 0.07-0.046 0.071-0.045 0.073-0.043 0.074-0.042 0.076-0.041 0.077-0.039 0.079-0.038 0.08-0.036 0.068-0.032 0.01-4e-3 0.88 0.043z"/>
 <path d="m39.324 25.285l0.018 9e-3 0.667 0.713-0.108 0.878-6e-3 9e-3 -0.038 0.056-0.034 0.05-0.033 0.051-0.033 0.052-0.033 0.053-0.032 0.053-0.032 0.055-0.032 0.055-0.03 0.056-0.031 0.058-0.03 0.058-0.029 0.06-0.029 0.06-0.029 0.062-0.028 0.062-0.027 0.064-0.027 0.065-0.027 0.065-0.026 0.067-0.025 0.069-0.024 0.069-0.025 0.07-0.023 0.072-0.023 0.073-0.022 0.074-0.022 0.075-0.021 0.077-0.02 0.078-0.019 0.079-0.019 0.08-0.019 0.082-0.017 0.083-0.017 0.084-0.016 0.086-0.015 0.087-0.014 0.088-0.014 0.089-0.013 0.091-0.012 0.093-0.011 0.093-0.01 0.095-0.01 0.097-9e-3 0.097-7e-3 0.1-7e-3 0.1-6e-3 0.102-6e-3 0.104-4e-3 0.104-3e-3 0.107-2e-3 0.107-2e-3 0.109v0.223l2e-3 0.113 2e-3 0.115 4e-3 0.117 4e-3 0.117 6e-3 0.12 6e-3 0.121 8e-3 0.122 9e-3 0.124 9e-3 0.125 0.011 0.126 0.012 0.13-0.298 0.496-0.483-0.318-0.046-0.125-0.045-0.126-0.043-0.125-0.042-0.123-0.04-0.123-0.04-0.123-0.038-0.121-0.037-0.121-0.035-0.119-0.034-0.12-0.033-0.118-0.031-0.117-0.031-0.117-0.029-0.116-0.027-0.115-0.027-0.115-0.025-0.114-0.024-0.113-0.022-0.112-0.022-0.112-0.02-0.111-0.019-0.111-0.018-0.109-0.016-0.109-0.015-0.109-0.014-0.108-0.013-0.107-0.011-0.106-0.011-0.106-9e-3 -0.106-7e-3 -0.105-7e-3 -0.104-6e-3 -0.103-4e-3 -0.103-3e-3 -0.103-1e-3 -0.101-1e-3 -0.102 1e-3 -0.1 1e-3 -0.1 3e-3 -0.1 5e-3 -0.099 5e-3 -0.098 7e-3 -0.098 7e-3 -0.097 9e-3 -0.097 0.011-0.096 0.011-0.096 0.012-0.095 0.014-0.094 0.015-0.094 0.016-0.094 0.017-0.093 0.019-0.092 0.019-0.091 0.021-0.091 0.021-0.091 0.023-0.09 0.024-0.089 0.025-0.089 0.026-0.088 0.028-0.088 0.028-0.087 0.03-0.086 0.027-0.079 3e-3 -9e-3 0.631-0.628 0.961 0.071z"/>
 <path d="m33.522 30.823l0.048 0.068 0.035 0.054 0.037 0.053 0.038 0.054 0.04 0.053 0.041 0.054 0.043 0.053 0.044 0.053 0.044 0.054 0.046 0.052 0.047 0.053 0.048 0.052 0.049 0.052 0.05 0.052 0.051 0.051 0.052 0.051 0.052 0.05 0.053 0.05 0.053 0.049 0.052 0.047 0.112 0.097 0.11 0.093 0.112 0.091 0.113 0.087 0.112 0.085 0.112 0.081 0.111 0.079 0.11 0.074 0.108 0.072 0.106 0.067 0.103 0.064 0.1 0.06 0.097 0.056 0.092 0.052 0.088 0.048 0.083 0.043 0.076 0.039 0.071 0.035 0.064 0.03 0.055 0.025 0.046 0.021 0.046 0.016 0.416 0.503-0.513 0.403-0.065 5e-3 -0.08 2e-3 -0.086 1e-3 -0.093-1e-3 -0.098-3e-3 -0.105-5e-3 -0.112-6e-3 -0.117-9e-3 -0.124-0.011-0.128-0.013-0.135-0.015-0.139-0.019-0.144-0.02-0.148-0.024-0.153-0.027-0.156-0.03-0.16-0.033-0.163-0.036-0.166-0.04-0.169-0.044-0.171-0.048-0.17-0.051-0.09-0.028-0.087-0.029-0.088-0.03-0.088-0.031-0.089-0.032-0.089-0.033-0.089-0.035-0.089-0.036-0.089-0.037-0.09-0.039-0.089-0.04-0.09-0.041-0.09-0.043-0.089-0.045-0.09-0.046-0.089-0.047-0.089-0.05-0.089-0.051-0.089-0.053-0.08-0.048-9e-3 -5e-3 -0.52-0.853 0.402-1.061 0.013-0.015 1.024-0.554 0.891 0.433z"/>
 <path d="m68.83 45.662l0.024 0.198 0.023 0.197 0.022 0.197 0.022 0.195 0.02 0.195 0.02 0.195 0.019 0.193 0.017 0.193 0.017 0.192 0.016 0.191 0.015 0.191 0.014 0.19 0.013 0.189 0.013 0.188 0.011 0.188 0.01 0.186 0.01 0.186 9e-3 0.186 8e-3 0.184 7e-3 0.184 6e-3 0.183 5e-3 0.182 4e-3 0.182 4e-3 0.18 2e-3 0.181 2e-3 0.179 1e-3 0.178v0.178l-1e-3 0.177-2e-3 0.177-2e-3 0.175-4e-3 0.175-4e-3 0.174-5e-3 0.174-6e-3 0.172-7e-3 0.172-7e-3 0.171-9e-3 0.171-9e-3 0.17-0.01 0.169-0.011 0.168-0.012 0.167-0.012 0.167-0.014 0.166-0.014 0.166-0.015 0.164-0.016 0.164-0.016 0.163-0.017 0.163-0.019 0.161-0.019 0.161-0.019 0.161-0.021 0.159-0.021 0.159-0.022 0.158-0.023 0.158-0.024 0.156-0.024 0.156-0.025 0.155-0.026 0.155-0.027 0.154-0.027 0.153-0.029 0.152-0.029 0.152-0.029 0.151-0.031 0.15-0.031 0.15-0.032 0.148-0.033 0.148-0.033 0.148-0.034 0.146-0.035 0.146-0.036 0.146-0.036 0.144-0.037 0.144-0.038 0.143-0.038 0.142-0.04 0.142-0.04 0.141-0.04 0.14-0.042 0.14-0.042 0.139-0.042 0.138-0.044 0.138-0.044 0.136-0.045 0.136-0.045 0.136-0.046 0.134-0.047 0.134-0.048 0.134-0.048 0.132-0.049 0.132-0.05 0.131-0.05 0.131-0.051 0.129-0.051 0.129-0.052 0.129-0.053 0.127-0.054 0.127-0.054 0.126-0.055 0.126-0.055 0.125-0.056 0.124-0.057 0.123-0.057 0.123-0.058 0.122-0.059 0.122-0.059 0.12-0.06 0.12-0.061 0.12-0.061 0.118-0.061 0.118-0.063 0.117-0.063 0.117-0.063 0.115-0.064 0.116-0.065 0.114-0.065 0.114-0.066 0.113-0.066 0.112-0.068 0.112-0.067 0.111-0.068 0.11-0.069 0.109-0.069 0.109-0.07 0.109-0.071 0.107-0.071 0.107-0.071 0.106-0.073 0.105-0.072 0.105-0.073 0.104-0.074 0.104-0.075 0.102-0.074 0.102-0.076 0.101-0.076 0.101-0.076 0.1-0.077 0.099-0.078 0.099-0.077 0.098-0.079 0.097-0.079 0.096-0.079 0.096-0.081 0.095-0.08 0.095-0.081 0.093-0.082 0.093-0.081 0.093-0.083 0.091-0.083 0.091-0.083 0.091-0.084 0.089-0.085 0.089-0.084 0.089-0.086 0.087-0.085 0.087-0.087 0.086-0.086 0.086-0.087 0.085-0.088 0.084-0.088 0.083-0.089 0.083-0.088 0.082-0.09 0.082-0.089 0.081-0.091 0.08-0.091 0.08-0.182 0.156-0.184 0.154-0.185 0.152-0.188 0.148-0.188 0.146-0.191 0.144-0.191 0.14-0.194 0.138-0.195 0.136-0.196 0.132-0.197 0.131-0.199 0.127-0.2 0.125-0.202 0.122-0.203 0.119-0.204 0.117-0.205 0.114-0.206 0.111-0.208 0.109-0.208 0.107-0.21 0.103-0.211 0.101-0.212 0.099-0.213 0.096-0.214 0.093-0.215 0.091-0.215 0.088-0.217 0.086-0.218 0.083-0.218 0.08-0.219 0.078-0.22 0.076-0.221 0.072-0.221 0.071-0.223 0.068-0.223 0.065-0.223 0.063-0.224 0.06-0.225 0.058-0.225 0.055-0.226 0.053-0.227 0.051-0.227 0.047-0.227 0.046-0.1 0.019-0.1 0.018-0.102 0.017-0.102 0.016-0.104 0.015-0.105 0.015-0.106 0.013-0.106 0.013-0.108 0.012-0.109 0.011-0.11 0.01-0.11 9e-3 -0.112 9e-3 -0.112 7e-3 -0.113 7e-3 -0.115 5e-3 -0.115 5e-3 -0.116 4e-3 -0.116 3e-3 -0.118 2e-3 -0.118 1e-3h-0.119l-0.12-1e-3 -0.121-2e-3 -0.121-3e-3 -0.122-4e-3 -0.123-5e-3 -0.123-6e-3 -0.124-7e-3 -0.125-8e-3 -0.125-9e-3 -0.126-0.01-0.127-0.011-0.127-0.012-0.127-0.013-0.128-0.015-0.129-0.015-0.129-0.016-0.129-0.018-0.13-0.019-0.131-0.02-0.131-0.021-0.131-0.022-0.131-0.023-0.132-0.025-0.132-0.025-0.133-0.027-0.133-0.028-0.133-0.03-0.133-0.03-0.133-0.032-0.134-0.033-0.134-0.034-0.134-0.035-0.134-0.037-0.135-0.038-0.134-0.04-0.135-0.04-0.134-0.042-0.135-0.044-0.135-0.044-0.134-0.046-0.135-0.048-0.135-0.048-0.134-0.051-0.135-0.051-0.134-0.053-0.134-0.054-0.134-0.056-0.134-0.057-0.134-0.059-0.134-0.06-0.133-0.062-0.133-0.063-0.133-0.065-0.132-0.066-0.132-0.067-0.132-0.07-0.132-0.07-0.131-0.073-0.13-0.074-0.131-0.075-0.129-0.077-0.13-0.079-0.128-0.08-0.128-0.082-0.128-0.083-0.127-0.086-0.127-0.086-0.125-0.089-0.126-0.09-0.124-0.092-0.124-0.094-0.123-0.095-0.122-0.097-0.122-0.099-0.12-0.1-0.12-0.103-0.119-0.104-0.118-0.105-0.118-0.108-0.116-0.109-0.115-0.112-0.114-0.113-0.114-0.114-0.112-0.117-0.111-0.119-0.11-0.12-0.109-0.122-0.108-0.124-0.106-0.126-0.106-0.128-0.104-0.129-0.103-0.132-0.101-0.133-0.101-0.135-0.098-0.137-0.098-0.139-0.096-0.141-0.095-0.143-0.093-0.145-0.092-0.147-0.09-0.148-0.089-0.151-0.087-0.152-0.086-0.155-0.084-0.156-0.079-0.151 0.535-1.614 1.613 0.534 0.068 0.14 0.065 0.13 0.066 0.129 0.067 0.127 0.069 0.126 0.07 0.124 0.072 0.123 0.072 0.121 0.074 0.119 0.075 0.118 0.076 0.116 0.078 0.115 0.078 0.113 0.08 0.112 0.081 0.11 0.082 0.109 0.083 0.107 0.084 0.106 0.085 0.104 0.086 0.103 0.087 0.102 0.088 0.1 0.089 0.099 0.091 0.097 0.091 0.096 0.092 0.095 0.093 0.093 0.094 0.092 0.094 0.09 0.096 0.09 0.097 0.087 0.097 0.087 0.098 0.085 0.099 0.084 0.1 0.082 0.101 0.082 0.101 0.079 0.102 0.079 0.103 0.077 0.104 0.076 0.104 0.075 0.105 0.074 0.105 0.072 0.107 0.071 0.107 0.07 0.107 0.068 0.108 0.068 0.109 0.066 0.109 0.064 0.109 0.064 0.11 0.062 0.111 0.061 0.111 0.06 0.112 0.059 0.112 0.057 0.112 0.057 0.113 0.055 0.113 0.054 0.113 0.053 0.114 0.051 0.114 0.051 0.114 0.049 0.115 0.048 0.115 0.047 0.115 0.046 0.115 0.044 0.115 0.044 0.116 0.042 0.116 0.042 0.115 0.04 0.116 0.039 0.116 0.038 0.116 0.036 0.116 0.036 0.116 0.035 0.116 0.033 0.116 0.033 0.115 0.031 0.116 0.031 0.116 0.029 0.115 0.028 0.115 0.027 0.115 0.026 0.115 0.025 0.115 0.024 0.114 0.023 0.114 0.023 0.114 0.021 0.113 0.02 0.113 0.019 0.113 0.018 0.112 0.017 0.112 0.016 0.111 0.015 0.111 0.014 0.111 0.013 0.109 0.012 0.11 0.012 0.108 0.01 0.109 0.01 0.107 8e-3 0.107 8e-3 0.106 7e-3 0.106 5e-3 0.105 5e-3 0.104 5e-3 0.103 3e-3 0.103 2e-3 0.101 2e-3h0.201l0.099-1e-3 0.098-1e-3 0.098-3e-3 0.096-3e-3 0.095-4e-3 0.094-5e-3 0.093-6e-3 0.093-6e-3 0.09-7e-3 0.09-8e-3 0.089-9e-3 0.087-9e-3 0.087-0.01 0.085-0.011 0.083-0.011 0.083-0.012 0.081-0.013 0.209-0.035 0.208-0.037 0.208-0.04 0.208-0.041 0.207-0.044 0.207-0.047 0.206-0.048 0.206-0.051 0.205-0.053 0.204-0.056 0.204-0.058 0.204-0.06 0.203-0.062 0.202-0.065 0.201-0.067 0.201-0.07 0.2-0.071 0.199-0.075 0.198-0.076 0.198-0.079 0.197-0.081 0.196-0.084 0.195-0.086 0.194-0.089 0.193-0.091 0.192-0.093 0.192-0.096 0.19-0.098 0.189-0.1 0.189-0.103 0.187-0.106 0.186-0.108 0.185-0.11 0.184-0.113 0.183-0.116 0.181-0.118 0.181-0.12 0.179-0.123 0.178-0.125 0.176-0.128 0.176-0.131 0.174-0.133 0.172-0.135 0.173-0.139 0.084-0.07 0.085-0.07 0.084-0.072 0.084-0.072 0.084-0.072 0.083-0.074 0.083-0.074 0.083-0.074 0.082-0.076 0.082-0.075 0.082-0.077 0.081-0.077 0.081-0.078 0.08-0.079 0.08-0.079 0.08-0.08 0.079-0.08 0.079-0.082 0.078-0.081 0.078-0.083 0.078-0.083 0.077-0.084 0.077-0.085 0.076-0.085 0.076-0.086 0.076-0.086 0.075-0.088 0.075-0.088 0.074-0.088 0.074-0.089 0.073-0.09 0.073-0.091 0.073-0.091 0.072-0.093 0.071-0.092 0.072-0.094 0.07-0.094 0.071-0.095 0.07-0.095 0.069-0.096 0.069-0.097 0.068-0.098 0.068-0.098 0.068-0.099 0.067-0.1 0.066-0.1 0.067-0.101 0.065-0.102 0.065-0.103 0.065-0.103 0.064-0.104 0.063-0.105 0.064-0.105 0.062-0.106 0.062-0.107 0.062-0.107 0.061-0.109 0.06-0.109 0.06-0.109 0.06-0.111 0.059-0.111 0.058-0.112 0.058-0.112 0.058-0.114 0.056-0.114 0.057-0.115 0.055-0.115 0.055-0.116 0.055-0.117 0.054-0.118 0.054-0.119 0.053-0.119 0.052-0.12 0.052-0.12 0.051-0.122 0.05-0.122 0.051-0.123 0.049-0.124 0.049-0.124 0.048-0.125 0.048-0.126 0.047-0.127 0.046-0.127 0.046-0.129 0.045-0.129 0.045-0.129 0.044-0.131 0.043-0.131 0.043-0.132 0.042-0.133 0.042-0.133 0.041-0.135 0.04-0.135 0.04-0.135 0.039-0.137 0.038-0.137 0.038-0.139 0.037-0.138 0.036-0.14 0.036-0.141 0.035-0.141 0.034-0.142 0.034-0.143 0.032-0.143 0.033-0.144 0.031-0.146 0.031-0.146 0.031-0.146 0.029-0.148 0.029-0.148 0.028-0.149 0.028-0.15 0.026-0.15 0.026-0.152 0.026-0.152 0.024-0.153 0.024-0.154 0.023-0.154 0.023-0.156 0.021-0.156 0.021-0.157 0.02-0.158 0.02-0.158 0.018-0.16 0.018-0.16 0.018-0.161 0.016-0.162 0.016-0.162 0.014-0.164 0.015-0.164 0.013-0.165 0.013-0.166 0.011-0.166 0.011-0.168 0.011-0.168 9e-3 -0.169 9e-3 -0.17 8e-3 -0.17 7e-3 -0.172 6e-3 -0.172 5e-3 -0.173 5e-3 -0.174 4e-3 -0.175 3e-3 -0.175 2e-3 -0.177 1e-3 -0.177 1e-3 -0.178-1e-3 -0.179-1e-3 -0.179-2e-3 -0.181-3e-3 -0.181-3e-3 -0.182-5e-3 -0.183-5e-3 -0.184-7e-3 -0.185-7e-3 -0.185-8e-3 -0.186-8e-3 -0.187-0.01-0.188-0.011-0.189-0.011-0.19-0.013-0.19-0.013-0.191-0.014-0.192-0.015-0.193-0.016-0.194-0.017-0.194-0.017-0.197 0.355-0.444 0.442 0.359z" fill="#7d0c16"/>
 <ellipse cx="39.4" cy="37.704" rx="3.095" ry="4.142"/>
 <ellipse cx="50.998" cy="34.27" rx="3.284" ry="3.067"/>
 <defs>
  <linearGradient id="c" x2="1" gradientTransform="matrix(117.57 -28.038 28.038 117.57 3.5818 62.427)" gradientUnits="userSpaceOnUse">
   <stop stop-color="#f5ff00" offset="0"/>
   <stop stop-color="#ffc500" offset="1"/>
  </linearGradient>
  <linearGradient id="d" x2="1" gradientTransform="matrix(76.315 0 0 74.74 19.685 51.296)" gradientUnits="userSpaceOnUse">
   <stop stop-color="#ffcd00" offset="0"/>
   <stop stop-color="#fdc00a" offset=".56"/>
   <stop stop-color="#f68c31" offset="1"/>
  </linearGradient>
 </defs>
</svg>
