<?xml version='1.0' encoding='utf-8'?>
<svg xmlns="http://www.w3.org/2000/svg" version="1.1" width="2048.00" height="2048.00" viewBox="0 0 2048.0 2048.0"> <g id="document" transform="matrix(1,0,0,1,1024.0,1024.0)"> <g> <g> <g> <g> <g> <path d="M645.202,-4.9634 L645.202,101.948 L682.572,54.5252 L682.572,-48.4168 L645.202,-4.9634 Z " fill="#e8decb" fill-opacity="1.00"/> <path d="M-757.891,-48.5002 L-822.173,-4.99476 L-822.173,102.231 L645.711,102.231 L645.711,-4.99476 L682.428,-48.5002 L-757.891,-48.5002 Z " fill="#d3bc97" fill-opacity="1.00"/> </g> <g> <path d="M812.976,-211.108 L812.976,-104.196 L850.346,-151.619 L850.346,-254.561 L812.976,-211.108 Z " fill="#e8decb" fill-opacity="1.00"/> <path d="M-590.117,-254.644 L-654.399,-211.139 L-654.399,-103.913 L813.485,-103.913 L813.485,-211.139 L850.202,-254.644 L-590.117,-254.644 Z " fill="#d3bc97" fill-opacity="1.00"/> </g> </g> <g> <g> <path d="M-29.8446,-299.824 L-326.402,70.2602 L-177.73,70.2602 L118.827,-299.824 L-29.8446,-299.824 Z " fill="#cbc02b" fill-opacity="1.00"/> <path d="M-211.477,-299.824 L-508.034,70.2602 L-369.966,70.2602 L-73.4082,-299.824 L-211.477,-299.824 Z " fill="#e48531" fill-opacity="1.00"/> <path d="M-395.096,-299.824 L-691.654,70.2602 L-548.884,70.2602 L-252.326,-299.824 L-395.096,-299.824 Z " fill="#ab1d1d" fill-opacity="1.00"/> <path d="M516.966,-299.824 L220.409,70.2602 L369.081,70.2602 L665.639,-299.824 L516.966,-299.824 Z " fill="#2e0a65" fill-opacity="1.00"/> <path d="M335.334,-299.824 L38.7766,70.2602 L176.845,70.2602 L473.403,-299.824 L335.334,-299.824 Z " fill="#176fb0" fill-opacity="1.00"/> <path d="M151.715,-299.824 L-144.843,70.2602 L-2.07274,70.2602 L294.485,-299.824 L151.715,-299.824 Z " fill="#127028" fill-opacity="1.00"/> <path d="M682.257,-267.418 L434.664,37.8542 L583.336,37.8542 L830.929,-267.418 L682.257,-267.418 Z " fill="#3a0951" fill-opacity="1.00"/> <path d="M-602.753,-267.418 L-850.346,37.8542 L-701.674,37.8542 L-454.081,-267.418 L-602.753,-267.418 Z " fill="#981464" fill-opacity="1.00"/> </g> <g> <path d="M-51.7248,-299.824 L-325.834,41.1111 L-325.834,70.2602 L-199.611,70.2602 L96.9472,-299.824 L-51.7248,-299.824 Z " fill="#cbc02b" fill-opacity="1.00"/> <path d="M-233.357,-299.824 L-508.523,41.5464 L-508.523,70.2602 L-391.846,70.2602 L-95.2885,-299.824 L-233.357,-299.824 Z " fill="#e48531" fill-opacity="1.00"/> <path d="M-416.976,-299.824 L-691.522,41.2244 L-691.522,70.2602 L-570.764,70.2602 L-274.206,-299.824 L-416.976,-299.824 Z " fill="#ab1d1d" fill-opacity="1.00"/> <path d="M495.086,-299.824 L219.416,41.9402 L219.416,70.2602 L347.2,70.2602 L643.758,-299.824 L495.086,-299.824 Z " fill="#2e0a65" fill-opacity="1.00"/> <path d="M313.454,-299.824 L38.2218,41.9402 L38.2218,70.2602 L154.965,70.2602 L451.523,-299.824 L313.454,-299.824 Z " fill="#176fb0" fill-opacity="1.00"/> <path d="M129.835,-299.824 L-145.366,42.5451 L-145.366,70.2602 L-23.953,70.2602 L272.605,-299.824 L129.835,-299.824 Z " fill="#127028" fill-opacity="1.00"/> <path d="M660.376,-267.418 L435.13,9.21227 L435.13,37.8542 L561.456,37.8542 L809.049,-267.418 L660.376,-267.418 Z " fill="#3a0951" fill-opacity="1.00"/> <path d="M-610.865,-267.418 L-849.17,8.77989 L-849.17,37.8542 L-723.554,37.8542 L-475.962,-267.418 L-610.865,-267.418 Z " fill="#981464" fill-opacity="1.00"/> </g> <g> <path d="M-6.10249,-328.456 L-302.66,41.6281 L-153.988,41.6281 L118.899,-300.341 L118.899,-328.456 L-6.10249,-328.456 Z " fill="#cbc02b" fill-opacity="1.00"/> <path d="M-187.734,-328.456 L-484.292,41.6281 L-346.224,41.6281 L-73.0212,-299.469 L-73.0212,-328.456 L-187.734,-328.456 Z " fill="#e48531" fill-opacity="1.00"/> <path d="M-371.354,-328.456 L-667.912,41.6281 L-525.142,41.6281 L-251.522,-300.483 L-251.522,-328.456 L-371.354,-328.456 Z " fill="#ab1d1d" fill-opacity="1.00"/> <path d="M540.709,-328.456 L244.151,41.6281 L392.823,41.6281 L665.618,-300.099 L665.618,-328.456 L540.709,-328.456 Z " fill="#2e0a65" fill-opacity="1.00"/> <path d="M359.077,-328.456 L62.5187,41.6281 L200.587,41.6281 L473.358,-299.011 L473.358,-328.456 L359.077,-328.456 Z " fill="#176fb0" fill-opacity="1.00"/> <path d="M175.457,-328.456 L-121.101,41.6281 L21.6694,41.6281 L294.05,-300.04 L294.05,-328.456 L175.457,-328.456 Z " fill="#127028" fill-opacity="1.00"/> <path d="M705.999,-296.05 L458.406,9.22217 L607.078,9.22217 L831.444,-267.505 L831.444,-296.05 L705.999,-296.05 Z " fill="#3a0951" fill-opacity="1.00"/> <path d="M-579.011,-296.05 L-826.604,9.22216 L-677.932,9.22216 L-454.886,-266.545 L-454.886,-296.05 L-579.011,-296.05 Z " fill="#981464" fill-opacity="1.00"/> </g> <g> <path d="M-29.8446,-328.456 L-326.402,41.6281 L-177.73,41.6281 L118.827,-328.456 L-29.8446,-328.456 Z " fill="#fff24d" fill-opacity="1.00"/> <path d="M-211.477,-328.456 L-508.034,41.6281 L-369.966,41.6281 L-73.4082,-328.456 L-211.477,-328.456 Z " fill="#ff7c0a" fill-opacity="1.00"/> <path d="M-395.096,-328.456 L-691.654,41.6281 L-548.884,41.6281 L-252.326,-328.456 L-395.096,-328.456 Z " fill="#fe3030" fill-opacity="1.00"/> <path d="M516.966,-328.456 L220.409,41.6281 L369.081,41.6281 L665.639,-328.456 L516.966,-328.456 Z " fill="#5000ce" fill-opacity="1.00"/> <path d="M335.334,-328.456 L38.7766,41.6281 L176.845,41.6281 L473.403,-328.456 L335.334,-328.456 Z " fill="#1099fe" fill-opacity="1.00"/> <path d="M151.715,-328.456 L-144.843,41.6281 L-2.07274,41.6281 L294.485,-328.456 L151.715,-328.456 Z " fill="#02ce31" fill-opacity="1.00"/> <path d="M682.257,-296.05 L434.664,9.22217 L583.336,9.22217 L830.929,-296.05 L682.257,-296.05 Z " fill="#8000bb" fill-opacity="1.00"/> <path d="M-585.543,-296.05 L-849.643,9.22216 L-700.97,9.22216 L-453.378,-296.05 L-585.543,-296.05 Z " fill="#fe2aaa" fill-opacity="1.00"/> </g> </g> </g> <path d="M-565.562,-227.847 C-551.44,-230.118 -541.383,-240.612 -543.1,-251.285 C-544.816,-261.957 -557.656,-268.768 -571.778,-266.497 C-585.9,-264.225 -595.957,-253.732 -594.24,-243.059 C-592.523,-232.386 -579.683,-225.575 -565.562,-227.847 Z M-730.095,-24.0579 C-716.074,-26.8908 -706.444,-37.777 -708.585,-48.3728 C-710.726,-58.9686 -723.828,-65.2618 -737.848,-62.4289 C-751.868,-59.596 -761.498,-48.7098 -759.357,-38.114 C-757.216,-27.5181 -744.115,-21.225 -730.095,-24.0579 Z M721.052,-224.692 C735.174,-226.963 745.231,-237.456 743.514,-248.129 C741.797,-258.802 728.958,-265.613 714.836,-263.341 C700.714,-261.07 690.657,-250.576 692.374,-239.904 C694.091,-229.231 706.93,-222.42 721.052,-224.692 Z M550.839,-13.5927 C564.859,-16.4256 574.489,-27.3117 572.348,-37.9076 C570.207,-48.5034 557.106,-54.7965 543.086,-51.9636 C529.066,-49.1307 519.436,-38.2446 521.577,-27.6487 C523.718,-17.0529 536.819,-10.7598 550.839,-13.5927 Z M-383.645,-237.386 C-368.272,-239.762 -357.265,-251.107 -359.061,-262.726 C-360.857,-274.344 -374.775,-281.837 -390.149,-279.46 C-405.522,-277.084 -416.529,-265.739 -414.733,-254.121 C-412.937,-242.502 -399.018,-235.01 -383.645,-237.386 Z M-553.391,-24.158 C-538.125,-27.1455 -527.58,-38.9204 -529.838,-50.4581 C-532.095,-61.9957 -546.302,-68.9269 -561.568,-65.9394 C-576.834,-62.9518 -587.379,-51.1769 -585.122,-39.6393 C-582.864,-28.1016 -568.658,-21.1704 -553.391,-24.158 Z M-22.4753,-236.316 C-7.10211,-238.692 3.90454,-250.037 2.10865,-261.655 C0.312767,-273.274 -13.6055,-280.766 -28.9788,-278.39 C-44.3521,-276.014 -55.3587,-264.669 -53.5628,-253.05 C-51.7669,-241.432 -37.8486,-233.94 -22.4753,-236.316 Z M-192.222,-23.0877 C-176.955,-26.0752 -166.41,-37.8502 -168.668,-49.3878 C-170.926,-60.9254 -185.132,-67.8566 -200.398,-64.8691 C-215.664,-61.8816 -226.21,-50.1066 -223.952,-38.569 C-221.694,-27.0314 -207.488,-20.1001 -192.222,-23.0877 Z M-203.055,-236.316 C-187.681,-238.692 -176.675,-250.037 -178.471,-261.655 C-180.266,-273.274 -194.185,-280.766 -209.558,-278.39 C-224.931,-276.014 -235.938,-264.669 -234.142,-253.05 C-232.346,-241.432 -218.428,-233.94 -203.055,-236.316 Z M-372.801,-23.0877 C-357.535,-26.0752 -346.989,-37.8502 -349.247,-49.3878 C-351.505,-60.9254 -365.711,-67.8566 -380.977,-64.8691 C-396.243,-61.8816 -406.789,-50.1066 -404.531,-38.569 C-402.273,-27.0314 -388.067,-20.1001 -372.801,-23.0877 Z M158.11,-235.245 C173.483,-237.622 184.489,-248.967 182.694,-260.585 C180.898,-272.204 166.979,-279.696 151.606,-277.32 C136.233,-274.944 125.226,-263.599 127.022,-251.98 C128.818,-240.362 142.736,-232.869 158.11,-235.245 Z M-11.6366,-22.0174 C3.62964,-25.0049 14.1751,-36.7799 11.9172,-48.3175 C9.65933,-59.8551 -4.54674,-66.7863 -19.813,-63.7988 C-35.0792,-60.8113 -45.6246,-49.0363 -43.3667,-37.4987 C-41.1089,-25.9611 -26.9028,-19.0299 -11.6366,-22.0174 Z M348.181,-234.175 C363.554,-236.551 374.561,-247.896 372.765,-259.515 C370.969,-271.133 357.05,-278.626 341.677,-276.249 C326.304,-273.873 315.297,-262.528 317.093,-250.91 C318.889,-239.291 332.807,-231.799 348.181,-234.175 Z M178.435,-20.9471 C193.701,-23.9347 204.246,-35.7096 201.988,-47.2472 C199.73,-58.7849 185.524,-65.7161 170.258,-62.7285 C154.992,-59.741 144.447,-47.966 146.704,-36.4284 C148.962,-24.8908 163.168,-17.9596 178.435,-20.9471 Z M520.907,-226.105 C536.28,-228.482 547.287,-239.827 545.491,-251.445 C543.695,-263.064 529.777,-270.556 514.404,-268.18 C499.031,-265.804 488.024,-254.459 489.82,-242.84 C491.616,-231.222 505.534,-223.729 520.907,-226.105 Z M351.161,-12.8774 C366.427,-15.8649 376.973,-27.6399 374.715,-39.1775 C372.457,-50.7151 358.251,-57.6463 342.985,-54.6588 C327.718,-51.6713 317.173,-39.8963 319.431,-28.3587 C321.689,-16.8211 335.895,-9.88988 351.161,-12.8774 Z " fill="#8a8a8a" fill-opacity="1.00" stroke-width="2.14" stroke="#4d4d4d" stroke-linecap="square" stroke-linejoin="miter"/> </g> <g> <path d="M-510.488,161.191 C-510.488,97.7877 -561.887,46.3894 -625.29,46.3894 C-688.693,46.3894 -740.091,97.7877 -740.091,161.191 C-740.091,224.594 -688.693,275.992 -625.29,275.992 C-561.887,275.992 -510.488,224.594 -510.488,161.191 Z " fill="#bc0d0d" fill-opacity="1.00"/> <path d="M-562.596,209.868 L350.723,414.386 L362.977,383.78 L-550.307,179.251 L-550.329,179.307 C-559.042,176.28 -567.675,180.698 -571.157,189.012 C-574.762,197.621 -570.552,208.337 -562.596,209.868 Z " fill="#d3bc97" fill-opacity="1.00"/> <path d="M371.75,410.09 C375.273,404.664 375.464,401.945 375.457,399.504 C375.018,392.795 372.308,387.35 366.437,384.952 C363.912,383.934 362.049,383.621 360.205,383.649 C355.913,383.587 351.909,385.251 348.853,388.179 C347.996,388.927 347.233,389.737 346.589,390.584 C344.806,394.023 344.745,394.165 344.685,394.308 C341.508,401.893 344.399,411.113 350.573,414.246 C356.236,418.968 368.227,415.515 371.75,410.09 Z " fill="#e8decb" fill-opacity="1.00"/> </g> </g> </g> </svg>