<?xml version="1.0" encoding="UTF-8"?>
<svg viewBox="0 0 640 480" xmlns="http://www.w3.org/2000/svg">
 <g fill-rule="evenodd">
  <path d="m426.5 238.04c17.554-0.49359 38.786 14.788 42.204 32.662 5.9573 31.145-38.407 52.476-60.848 59.596-36.908 11.709-77.129 8.4206-115.25 9.0723-17.016 0.29028-40.555-0.81207-55.952 8.1225-1.3191 0.76575-9.8296 4.8436-6.4104 6.509 1.7941 0.87317 17.528-7.575 20.562-8.4151 14.521-4.0249 29.562-4.7339 44.534-4.6011 25.261 0.22473 50.004 0.80597 75.074-2.1221 34.267-4.0018 68.036-12.135 91.528-39.688 10.788-12.654 12.203-29.357 2.2557-43.406-4.499-6.3552-10.848-11.149-17.719-14.425-3.5081-1.672-7.3276-3.1208-11.114-4.0089-1.2443-0.29199-12.115-1.4401-9.246 0.45062 0.12805 0.085388 0.25714 0.16968 0.38574 0.25397" fill="#a6a6a6"/>
  <path d="m301.2 285.54c37.224-1.0428 70.52-23.955 83.603-60.027 13.002-35.846 1.9162-77.572-27.018-101.74-28.789-24.052-71.085-27.996-102.99-7.7193-31.818 20.224-48.409 58.843-40.903 96.522 8.4966 42.655 45.429 71.913 87.308 72.968"/>
  <path d="m301.2 281.13c35.141-0.85834 67.606-22.755 79.678-57.116 12.103-34.45 1.8947-73.589-25.734-96.935-27.458-23.201-67.708-26.305-98.185-7.3248-30.379 18.92-46.116 56.266-38.958 91.919 8.1754 40.724 43.231 68.354 83.199 69.456" fill="#ff8c00"/>
  <path d="m314.72 289.86c37.214-1.4395 70.51-23.679 83.584-60.046 12.947-36.015 1.871-77.41-27.018-101.84-28.678-24.25-71.189-27.592-102.97-7.6256-31.879 20.026-48.429 59.028-40.922 96.54 8.5929 42.939 45.389 71.519 87.326 72.968"/>
  <path d="m314.72 285.54c34.984-0.92606 67.703-22.923 79.678-57.229 12.024-34.445 1.8737-73.601-25.844-96.935-27.495-23.146-67.597-26.288-98.093-7.3061-30.34 18.883-46.14 56.443-38.958 92.014 8.1991 40.616 43.332 68.391 83.217 69.456" fill="#d94c00"/>
  <path d="m394.6 178.5c-3.8707 57.071-55.786 97.841-110.71 85.497-6.1473-1.3811-11.983-3.4382-17.83-5.7107 22.859 18.403 63.291 22.108 88.5 8.3209 26.918-14.722 37.65-46.382 39.546-75.992 0.25769-4.0392 0.48523-8.0729 0.49438-12.116" fill="#ff7300"/>
  <path d="m263.62 245.95c-24.97-40.869-3.0045-102.54 37.694-122.29 3.5876-1.742 7.3819-3.0388 11.06-4.2078-8.7973-1.1751-21.989 4.8733-29.173 9.5791-14.173 9.2849-24.618 19.438-31.374 35.574-9.7592 23.309-3.5866 51.87 7.4836 73.532 1.3578 2.657 2.742 5.2754 4.3102 7.8129" fill="#fff"/>
  <path d="m329.1 295.48c37.251-1.4197 70.48-23.711 83.602-60.046 12.955-35.868 1.9452-77.551-27.018-101.74-28.756-24.02-71.125-28.024-102.99-7.7192-31.802 20.265-48.412 58.815-40.902 96.522 8.5525 42.937 45.394 71.533 87.309 72.986"/>
  <path d="m329.1 291.16c35.066-1.158 67.594-22.768 79.677-57.23 12.118-34.563 1.8054-73.411-25.844-96.821-27.42-23.217-67.629-26.289-98.075-7.3254-30.341 18.898-46.11 56.184-38.959 91.806 8.1878 40.786 43.227 68.335 83.2 69.57" fill="#ff8c00"/>
  <path d="m342.62 299.78c37.117-1.1856 70.58-23.785 83.585-59.934 12.95-36.002 1.8963-77.442-27.02-101.84-28.743-24.249-71.212-27.598-103.06-7.625-31.912 20.012-48.393 59.002-40.921 96.521 8.5213 42.789 45.524 71.689 87.419 72.875"/>
  <path d="m342.62 295.48c35.129-1.2577 67.471-22.578 79.585-57.135 12.08-34.46 1.8748-73.59-25.752-96.935-27.427-23.175-67.643-26.296-98.093-7.3254-30.395 18.936-46.065 56.257-38.959 91.92 8.1679 40.991 43.274 68.004 83.218 69.475" fill="#f90"/>
  <path d="m415.25 190.32c5.6723 50.558-45.699 96.749-94.077 85.908-4.8013-1.0765-9.3164-2.9297-13.903-4.6204 5.9036 7.2163 19.575 10.759 28.192 12.434 16.993 3.3048 34.412 0.70459 49.34-8.5087 25.546-15.766 32.986-45.836 31.511-74.584-0.18237-3.5461-0.59448-7.1122-1.0625-10.63" fill="#ff7300"/>
  <path d="m284.66 253.48c-20.143-42.672 7.886-102.45 50.368-116.94 3.9578-1.3502 7.971-2.246 11.996-3.0625-25.715-3.8486-52.894 16.821-65.207 37.893-13.063 22.359-8.1066 50.715-0.53098 73.935 0.90646 2.781 2.0652 5.5702 3.3747 8.1705" fill="#fff"/>
  <g fill="#a6a6a6">
   <path d="m228.68 352.61c-16.756-1.0864-38.24-0.034729-49.047 14.829-13.829 19.022 30.831 29.626 41.939 23.158 3.4435-2.0058 9.7936-4.3945 2.5037-3.1093-5.5367 0.9751-9.2917 2.5474-15.279 2.197-9.5537-0.55859-24.912-2.4972-29.073-13.128-0.076385 1.9965 0.13931-3.3186 0.09198-2.9115 0.48795-2.6653 1.5881-5.2198 3.1363-7.4196-0.4874 0.2727 3.4812-2.2196 4.513-2.8928-0.073151 0.056763-0.14041 0.11902-0.20227 0.18842 5.9477-5.8721 15.072-7.786 23.002-8.5076 3.6081-0.32831 7.2496-0.37512 10.876-0.4126 2.5553-0.025879 9.877 1.1932 7.5379-1.9921"/>
   <path d="m227.98 386.48c4.7104-5.1334 8.361-10.644 8.5111-17.937 0.073151-3.5418-0.67624-6.818-2.1459-10.011-0.38626-0.84064-5.2828-8.5682-5.2828-4.7714 0 2.1931 4.0062 5.6936 4.5948 8.3214 0.71011 3.1721 1.0862 6.1827 0.49545 9.4193-0.58908 3.225-1.9501 6.1068-3.7146 8.8178-1.4127 2.1722-6.4303 5.6187-2.458 6.1608"/>
  </g>
  <path d="m232 358.72c7.6703-0.66602 7.9602-9.4166 0-9.523-8.0468-0.10742-7.8252 8.9852 0 9.523" fill="#404040"/>
 </g>
 <g fill="none" stroke="#000" stroke-width="5">
  <line x1="79" x2="538" y1="32" y2="31"/>
  <line x1="82" x2="84" y1="34" y2="464"/>
  <line x1="84" x2="539" y1="461" y2="460"/>
  <line x1="535" x2="539" y1="31" y2="462"/>
 </g>
</svg>
