<?xml version="1.0" encoding="UTF-8"?>
<svg version="1.1" viewBox="0 0 477.1 593.58" xmlns="http://www.w3.org/2000/svg" xmlns:xlink="http://www.w3.org/1999/xlink">
 <defs>
  <linearGradient id="a">
   <stop stop-color="#4a4a4a" offset="0"/>
   <stop stop-color="#333" stop-opacity=".49804" offset=".5"/>
   <stop stop-color="#333" stop-opacity="0" offset="1"/>
  </linearGradient>
  <linearGradient id="d" x1="290.61" x2="311.44" y1="440.84" y2="495.26" gradientUnits="userSpaceOnUse" xlink:href="#a"/>
  <linearGradient id="e" x1="290.61" x2="311.44" y1="440.84" y2="495.26" gradientTransform="matrix(-1 0 0 1 758.61 0)" gradientUnits="userSpaceOnUse" xlink:href="#a"/>
 </defs>
 <g transform="translate(-139.19 -224.99)">
  <path d="m256.13 704.55s-29.872-5.6194-38.153-24.252c-8.2813-18.633 5.6194-19.224-0.59152-36.674-6.211-17.45-6.211-19.224-6.211-19.224s22.478 3.2534 24.252 18.041c1.7746 14.788-12.126 25.731 8.577 38.153s20.407 8.577 20.407 8.577z" fill="none" stroke="#000" stroke-width="1px"/>
  <path d="m280.38 541.29s-27.801 66.842-27.801 107.66c0 40.815 6.5067 47.322 6.5067 47.322l-67.528 11.585s-52.868 13.558-46.361 41.359c6.5067 27.801 14.513 36.966 14.513 36.966s5.3206 25.933 37.236 14.573c35.216-12.536 95.172-47.402 95.172-47.402s44.457 26.323 88.821 24.548c44.364-1.7746 83.109-24.844 83.109-24.844l91.981 49.096s26.628 13.591 37.857-8.8728c2.8609-5.723 12.514-37.413 15.971-55.011 3.4571-17.599-22.503-24.778-31.351-27.21-45.455-12.492-77.489-17.154-77.489-17.154s8.8728-23.069-1.7746-72.165c-11.646-53.699-27.801-80.447-27.801-80.447z" fill="#fff" stroke="#000" stroke-width="1px"/>
  <path d="m316.21 316.21c11.16-28.15 45.27-31.89 45.27-31.89l-15.159-41.725c22.352-10.592 31.28-14.493 56.884-1.6731l-16.444 43.888s36.398 1.3021 46.559 31.4c15.18-43.518 32.333-38.205 51.865-40.154 19.532-1.9484 56.884 1.6731 56.884 1.6731s-15.011 40.042-45.173 58.139c-16.731 10.038-46.846 3.7644-46.846 3.7644s81.064 143.33 36.808 197.42c-45.173 55.211-184.39 50.836-219.17 0-43.564-63.675 38.481-199.1 38.481-199.1s-20.077 10.038-50.192-3.3462c-22.05-9.7999-40.154-61.904-40.154-61.904s35.135 0 55.211 6.6923c20.077 6.6923 30.671 13.093 45.173 36.808z" fill="none" stroke="#000" stroke-width="1px"/>
  <path d="m255.98 493.88c11.832-112.09 233-116.04 244.27-1.3331 11.266 114.71-256.1 113.43-244.27 1.3331z" stroke="#000" stroke-width=".98105px"/>
  <path d="m234 276.53c-6.0326 0.13135-11.124 1.7888-14 6.625 0 0 7.5505-7.0889 24.281-2.9062 16.731 4.1827 21.74 11.7 35.125 11.281 13.385-0.41827 17.562 1.25 17.562 1.25s-10.012-6.9077-22.594-12.125c-9.2253 2.7394-27.103-4.414-40.375-4.125zm261.47 1.97c-8.7458 0.13399-18.103 1.5496-23.719 6.0938-11.29 9.1361-21.836 5.6161-25.094 5.8125-9.1131 10.653-11.219 22.031-11.219 22.031s24.641-4.907 32.531-13.656c17.43-19.32 48.97-18.53 48.97-18.53s-10.224-1.9223-21.469-1.75zm44.938 3.8438s-4.5526 5.1039-19.25 8.3438c-17.363 3.8274-40.562 16.312-40.562 16.312s18.023-6.5616 32.188-4.1875c8.9072 1.493 13.812 2.5312 13.812 2.5312s10.466-11.707 13.812-23zm-128 10.438c-2.93 3.9028-20.498 13.404-45.594 5.875-25.1-7.53-43.07 9.59-43.07 9.59s13.382-7.0841 35.969-4.1562c22.586 2.9279 25.911 11.276 46.406 7.0938 20.495-4.1827 21.344-6.2812 21.344-6.2812s-5.4402-6.4076-15.062-12.125zm-167.1 2.84c-11.067 0.22333-18.625 2.5938-18.625 2.5938l7.9688 13.406s13.377-6.7115 37.219-0.4375c23.841 6.274 38.469-0.40625 38.469-0.40625s-9.6227 0.8317-34.719-9.625c-10.98-4.5748-21.705-5.705-30.312-5.5312zm90.625 22.031c-15.053 0.1348-32.355 5.5114-38.969 10.688-9.6202 7.5288-17.562 12.531-17.562 12.531s22.993 0.43268 27.594-3.75-4.1875 6.6875-4.1875 6.6875 12.577-12.125 30.562-12.125c17.986 0 32.606 9.214 48.5 10.469 15.894 1.2548 63.156-7.125 63.156-7.125s-76.13-5.4471-91.188-13.812c-4.7055-2.6142-11.064-3.6238-17.906-3.5625zm164.59 1.6562c-5.1746 0.0886-12.134 1.2727-21.188 4.8438-13.011 5.1324-40.594-2.0938-40.594-2.0938s10.503 10.031 35.156 10.031c5.4375 0 21.551 1.1082 19.656 5.0312 14.836-9.0433 19.219-15.062 19.219-15.062s-3.6256-2.8977-12.25-2.75zm-260.34 1.19c8.7006 11.17 9.9375 10.344 9.9375 10.344s0.85078 0.18454 18.406 0.4375c12.435 0.17917 17.969-9.625 17.969-9.625s-9.6202 2.9303-27.188 2.0938c-15.371-0.73197-18.565-2.7582-19.125-3.25zm92.75 32.531s55.632 28.44 89.094 25.094c33.461-3.3461 52.688 12.969 52.688 12.969l-15.875-33.469s-12.128 8.7812-52.281 8.7812c-40.154 0-73.625-13.375-73.625-13.375zm-20.35 1.22c-9.673 0.29869-18.125 5.4688-18.125 5.4688s-1.9118 3.2578-3.7812 7.5312c36.193-12.876 50.625-0.84375 50.625-0.84375s-6.9613-11.332-26.781-12.125c-0.65354-0.0261-1.2926-0.0512-1.9375-0.0312zm7.3125 25.094c-7.1124 0.0491-13.09 0.66106-16.75 2.125-16.72 6.7-26.77 18.42-26.77 18.42l-7.0938 17.969s19.654-28.438 44.75-28.438 71.094-3.3438 71.094-3.3438-39.817-6.8943-65.219-6.7188zm107.04 15.47c-33.631 0.20679-60.367 4.625-70.562 4.625-10.875 0-44.344 2.0938-44.344 2.0938s112.11 1.6707 133.44 3.3438c19.344 1.5172 43.062 24.281 43.062 24.281l-7.0938-20.938s-10.88-12.957-47.688-13.375c-2.3005-0.0261-4.5704-0.045-6.8125-0.0312zm-107.38 15.94s-32.63 0.83896-42.25 7.5312c-9.6202 6.6923-14.219 17.125-14.219 17.125l-3.5312 16.906c1.7085-6.8064 7.4308-22.887 24.438-30.281 9.6202-4.1827 35.562-11.281 35.562-11.281zm-60 41.562c-0.48831 1.9454-0.65625 3.1875-0.65625 3.1875l0.65625-3.1875z" stroke="#000" stroke-width="1px"/>
  <path d="m354 329.19c-12.635 5e-3 -25.766 16.06-31.281 28.156-5.9779 13.112-7.5077 33.648 3.375 43.094 11.228 9.745 35.284 8.8594 44.531-2.7812 14.17-17.836 9.868-58.866-11.25-67.406-1.7607-0.71204-3.57-1.0632-5.375-1.0625zm50.469 0c-1.805-6.8e-4 -3.6143 0.35046-5.375 1.0625-21.118 8.5402-25.42 49.57-11.25 67.406 9.2478 11.641 33.303 12.526 44.531 2.7812 10.883-9.4454 9.3529-29.982 3.375-43.094-5.5152-12.097-18.647-28.152-31.281-28.156z" fill="#fff" stroke="#000" stroke-width="1.7093"/>
  <path d="m364.81 355.88c-5.4879 2e-3 -11.198 6.9646-13.594 12.219-2.5965 5.695-3.2581 14.616 1.4688 18.719 4.8768 4.2327 15.327 3.8686 19.344-1.1875 6.1546-7.7471 4.2663-25.572-4.9062-29.281-0.76476-0.30927-1.5285-0.46904-2.3125-0.46875zm28.75 0c-0.78398-2.9e-4 -1.5477 0.15948-2.3125 0.46875-9.1726 3.7094-11.061 21.534-4.9062 29.281 4.0167 5.0561 14.467 5.4202 19.344 1.1875 4.7269-4.1026 4.0652-13.024 1.4688-18.719-2.3955-5.2542-8.1059-12.217-13.594-12.219z" stroke="#000" stroke-width=".74245"/>
  <path d="m295.39 490.06c-4.4794-7.9946-4.984-20.593-1.0599-29.66 6.5449-15.123 33.433-13.97 35.384 8.9397 10.444-26.18-26.718-35.65-37.786-17.384-5.565 9.1843-8.5726 27.303 3.4614 38.104z" fill="url(#d)"/>
  <path d="m463.22 490.06c4.4794-7.9946 4.984-20.593 1.0599-29.66-6.5449-15.123-33.433-13.97-35.384 8.9397-10.444-26.18 26.718-35.65 37.786-17.384 5.565 9.1843 8.5726 27.303-3.4614 38.104z" fill="url(#e)"/>
  <path d="m350.46 522.73s-3.6351 24.729 29.713 24.729c32.874 0 29.397-24.266 29.397-24.266" fill="none" stroke="#f00" stroke-linecap="round" stroke-linejoin="round" stroke-width="1.0271"/>
  <path d="m258.91 455.49s3.2286-23.954 25.096-33.461c9.6202-4.1827 35.553-11.293 35.553-11.293s-32.625 0.83654-42.245 7.5288c-9.6202 6.6923-14.221 17.149-14.221 17.149z" stroke="#000" stroke-width="1px"/>
  <path d="m359.64 286.34s0.59152 5.3237 15.971 4.7322c15.38-0.59152 16.563-3.5491 16.563-3.5491l12.422-50.871-0.0294-0.0204-0.0881-0.0594-0.14662-0.0957-0.50065 1.645 0.0328-1.9353-0.9123 1.7331-0.0826-0.21532-0.14005-2.1612-0.49299-0.25951-0.9936 1.349-0.16308-1.92-0.66326-0.3063-1.1632 1.6057-0.33204-2.2469-0.83158-0.32969-1.6266 1.8859-0.2033-2.5505-0.99794-0.32969-1.7924 1.8937-0.36836-2.5349-1.1624-0.3063-1.6604 1.6291-0.82724-2.2002-1.3248-0.25951-1.6743 1.8316-1.1363-2.2856-1.4853-0.18932-1.5384 2.0575-1.5913-2.3477-1.6439-0.0957-1.8442 2.3067-1.6006-2.3865-1.5648-0.0663-1.2575 2.3533-1.835-2.3288-1.5226 0.084-1.3557 2.3455-1.6299-2.0509-1.458 0.20394-0.98776 2.7512-1.846-2.2469-1.3708 0.29359-0.44946 2.6828-2.1875-2.0296-1.2611 0.35293-0.18441 3.1757-2.2107-2.4341-1.129 0.38196-0.19263 2.751-1.9156-1.9816-0.97429 0.38068 0.2653 2.4438-2.0417-1.7073-0.79713 0.34909 0.30208 2.8458-1.7017-2.2028-0.59748 0.2872 0.805 2.478-0.45187 0.2291-1.7062-2.0232-0.29627 0.15752-0.21471 0.11669-0.13066 0.0725-0.0441 0.0249z" stroke="#000" stroke-width="1px"/>
  <path d="m273.97 559.66-11.28 35.96s53.534 4.5913 77.375-2.9375 88.25-0.40625 88.25-0.40625-25.922-4.392-42.656-6.2812c-25.933-2.9279-61.918 2.0841-83.25-0.84375-21.332-2.9279-28.438-25.5-28.438-25.5zm209.97 8.7812s-21.349 30.93-69.031 35.531c-47.683 4.601-53.115 1.6899-61.062 3.7812-7.9471 2.0913-7.0938 3.75-7.0938 3.75s16.729-2.4976 68.594-0.40625c51.865 2.0913 77.781-12.562 77.781-12.562l-9.2-30.09zm-212.41 41.18c-7.8458-0.015-13.469 0.625-13.469 0.625l-2.5 14.219s17.99-15.065 53.125-0.84375 63.562-1.25 63.562-1.25-9.6034 2.9255-23.406 3.3438c-13.803 0.41827-24.69-1.2476-43.094-10.031-10.352-4.9408-24.131-6.0432-34.219-6.0625zm211 4.4375c-7.8922 0.0199-16.766 0.43759-20.75 2.0312-4.18 1.68-26.78 11.72-26.78 11.72s34.7-9.5986 45.156-8.3438c10.457 1.2548 20.094 7.0938 20.094 7.0938l-2.9375-12.125s-6.8891-0.39485-14.781-0.375zm-224.25 25.562c-3.1494 0.0588-4.8125 0.3125-4.8125 0.3125v28.875s27.364-11.298 56.469 1.25c41.574 17.924 78.625 1.25 78.625 1.25s-23.461 7.1129-66.031-14.219c-31.928-15.999-54.802-17.645-64.25-17.469zm163.34 0.13c-31.468 0.42572-66.5 10.219-66.5 10.219s31.365-7.4287 61.062 3.1562 13.378-0.11563 48.094 4.8125c24.908 3.5358 39.719 4.875 39.719 4.875s0.83413-11.891-2.0938-21.594c0 0-18.394 12.522-51.438 1.9375-8.25-2.65-18.35-3.55-28.84-3.41zm78.531 36.438c-3.3109-0.0618-9.3904 1.8178-20.406 9.5938-21.332 15.058-70.68 7.9351-86.156 11.281-7.3136 1.5813-12.283 1.9278-15.5 1.875 12.35 1.5884 66.062 8.3849 97.062 9.8438 35.553 1.6731 42.25-11.719 42.25-11.719l-15.5-3.75s1.6755-2.9327 2.0938-15.062c0 0-0.53284-2.0007-3.8438-2.0625zm-122.06 22.75c-1.5777-0.20292-5-0.625-5-0.625s1.4098 0.56608 5 0.625zm-80.21-15.82c-19.427 0.081-38.219 8.5-38.219 8.5 10.915-5.1162 41.006 6.9554 50.906 11.344-1.9087-3.0773 32.595-2.8398 9.3125-15.094-6.7054-3.5291-14.398-4.7817-22-4.75zm12.688 19.844c0.27941 0.45048 1.3323 0.98408 3.4688 1.625-0.18348-0.1231-1.6515-0.81949-3.4688-1.625zm-60.031-4.6562-21.156 3.125s9.8604-1.2017 12.094 5.8125c4.0544 12.734 11.906 22.281 11.906 22.281s-0.66222-6.1671-2.875-17.219c-1.564-7.8116 0.0312-14 0.0312-14zm274.25 0.3125s5.4495 9.1924-0.40625 24.25-12.969 27.188-12.969 27.188 21.76-14.635 30.125-28.438c8.3654-13.803 7.5312-17.562 7.5312-17.562l-24.281-5.4375zm-261.84 6.0625s5.5554 15.092 5.8438 23c0.52115 14.294-7.5312 42.25-7.5312 42.25s8.7196-3.5297 13.375-7.0938c2.9678-11.722 3.3558-15.478 2.9375-29.281-0.38531-12.715-14.625-28.875-14.625-28.875zm-69.656 2.7188c-30.594 7.1302-65.957 8.9577-41.312 70.5 17.618 43.995 41.829 29.808 72.812 10.375-2.6667-31.749-6.3997-52.104-31.5-80.875zm369.91 0c-25.1 28.771-28.802 49.126-31.469 80.875 30.984 19.433 55.163 33.62 72.781-10.375 24.645-61.542-10.719-63.37-41.312-70.5zm-354.47 0.875c3.8368 2.7102 19.602 14.909 25.938 36.25 7.9471 26.769-4.5938 41.812-4.5938 41.812l26.344-13.812s-6.8084-19.917-14.656-34.281c-7.1028-13.001-28.919-27.337-33.031-29.969zm305.77 6.74c-8.3907 10.138-18.444 9.6428-26.812 20.312-8.6381 11.014-1.25 29.281-1.25 29.281s6.9486 2.6905 18 10.031c-9.81-16.38-7.42-21.78-5.44-32.62 1.7728-9.6876 13.367-24.358 15.5-27zm-179.88 3.4062s15.299 27.131 33.031 27.594c24.678 1.6731 28.031 18.406 28.031 18.406l17.969-28.844s-9.8309-7.2957-33.875 2.5c-11.293 4.6009-45.156-19.656-45.156-19.656zm192.81 35.312s-7.2114 8.6601-9.2188 13.812c-1.6392 4.2076-2.0625 13.375-2.0625 13.375l10.04 5.84s-3.4578-10.192-3.3438-15.469c0.13078-6.0518 4.5938-17.562 4.5938-17.562z" stroke="#000" stroke-width="1.0191px"/>
  <path d="m363.93 635.93 14.196 138.42s2.3661 39.632-43.772 40.223c-46.139 0.59152-55.603-15.971-56.194-43.181-0.59152-27.21 25.435-139.6 25.435-139.6" fill="#fff" stroke="#000" stroke-width="1px"/>
  <path d="m396.36 635.93-14.196 138.42s-2.3661 39.632 43.772 40.223c46.139 0.59152 55.603-15.971 56.194-43.181 0.59152-27.21-25.435-139.6-25.435-139.6" fill="#fff" stroke="#000" stroke-width="1px"/>
  <path d="m189.28 601.91s4.4375 28.096 12.719 36.969c8.2813 8.8728 14.783 7.4241 23.656 3.875 0 0 15.391-11.268 2.9688-24.281s-39.344-16.562-39.344-16.562zm44.125 35.938s-1.6707 5.0457-3.3438 6.7188-9 3.5312-9 3.5312 3.9591 1.9062 6.4688 1.9062c2.5096 0 6.9062-0.4375 6.9062-0.4375s3.5697-6.2813-1.0312-11.719zm-15.5 20.938c-3.7644 5.4375-1.875 11.906-1.875 11.906s4.6034-3.9808 7.5312-3.5625c2.9279 0.41827 5.8438-6.6875 5.8438-6.6875s-7.3149 1.6803-9.4062 0.84375c-2.0913-0.83653-2.0938-2.5-2.0938-2.5zm15.688 12.125s0.19395 3.8823-2.2812 6.6875c-3.137 3.5553-12.781 3.75-12.781 3.75l2.5312 3.375s12.111 1.8654 15.875-1.0625c3.7644-2.9279-0.40625-8.7812-0.40625-8.7812l-2.9375-3.9688zm14.844 12.531s1.6995 4.2091-4.1562 6.7188c-5.8558 2.5096-11.938 3.3438-11.938 3.3438s13.833 2.0594 17.781 0.8125c3.9735-1.2548 4.5938-7.5312 4.5938-7.5312l-6.2812-3.3438z" stroke="#000" stroke-width="1px"/>
  <path d="m190.53 603.09s10.052 13.025 19.812 19.531c9.7601 6.5067 15.406 18.344 15.406 18.344s0.9658-9.096-7.4062-15.375c-9.4643-7.0982-27.812-22.5-27.812-22.5zm10 5.0312s6.4899 2.6808 16.25 9.1875 9.7812 14.188 9.7812 14.188 2.3482-5.3415-4.75-13.031c-7.0982-7.6898-21.281-10.344-21.281-10.344zm-3.9062 8.5938s3.7622 13.944 11.969 20.438c8.2066 6.4938 13.312 3.7188 13.312 3.7188s-7.6459 0.58154-14.875-8.6562c-7.2291-9.2378-10.406-15.5-10.406-15.5z" fill="#808080" stroke="#000" stroke-width="1px"/>
  <path d="m373.78 233.56 2.5312 55.625 0.65625-55.438-3.1875-0.1875zm-20.062 3.6875-2.9375 1.1875 14.781 50.875-11.844-52.062zm40.875 0-11.812 52.062 14.781-50.875-2.9688-1.1875z" fill="#999" stroke="#000" stroke-width="1px"/>
  <path d="m303.66 634.5-2.5 10.062s10.469 5.8365 15.906 5c5.4375-0.83653 22.156-10.031 22.156-10.031s-17.983 3.3606-25.094 1.6875c-7.12-1.67-10.47-6.72-10.47-6.72zm42.188 18.406c-4.3955 0.0709-9.0479 1.6104-13.312 5.875-12.64 12.64-35.706 13.703-37.531 12.375-0.0801 2.4818-2.625 16.906-2.625 16.906s22.893-2.0859 33.469-5.0312c10.576-2.9454 12.482-14.238 18.812-19.25 6.331-5.012 19.25-4.1875 19.25-4.1875s-8.3923-6.8435-18.062-6.6875zm-50.85 18.25c0.0114-0.35455-0.0204-0.45913-0.125-0.25-0.0466 0.0931 0.0175 0.17173 0.125 0.25zm74.344 19.406s-3.7741 4.5914-19.25 7.9375-36.406 1.25-36.406 1.25 13.389 2.5096 31.375 5.4375 27.625 17.594 27.625 17.594l-3.3438-32.219zm-54.125 27.531c-3.7463-0.0689-7.1301 0.44291-9.875 1.75-17.56 8.36-20.09 0.84-20.09 0.84l-4.19 21.31s15.5-12.536 42.688-11.281c27.187 1.2548 42.656 5 42.656 5s-30.958-17.253-51.188-17.625zm11.4 28.71c-14.55-0.0824-29.715 2.3727-46.438 8.75-3.8869 31.172-7.5261 60.8 54.094 59.469 47.381-1.0235 45.237-29.22 40.875-60.281-16.316-4.5022-32.041-7.8442-48.531-7.9375z" stroke="#000" stroke-width="1px"/>
  <path d="m452.56 647.47s-10.039 9.6346-32.625 7.125c-22.59-2.52-24.69-2.1-24.69-2.1l-2.0625 19.25s8.1585-6.8633 23-6.2812c21.332 0.83654 36.375-18 36.375-18zm11.281 16.75c-7.0784 12.257-11.539 12.173-19.625 12.938-8.9683 0.17598-23.875 8.8125-23.875 8.8125s16.482-4.3012 23.031-3.9375c10.173 0.56503 17.124 4.9161 23.844-0.6875l-3.375-17.125zm-37.812 36.188c-1.7887 6e-3 -3.6789 0.0642-5.6875 0.1875-16.069 0.98625-30.938 5.4375-30.938 5.4375l-2.09 22.58s12.564-11.72 29.281-18.812c13.803-5.8558 40.156-1.2812 40.156-1.2812-10.503-5.3804-18.198-8.1687-30.719-8.125zm24.188 22.938c-22.425 0.023-47.438 19.5-47.438 19.5s18.732-5.3476 43.094-4.1875c26.351 1.2548 33.875 9.625 33.875 9.625l-2.5-16.312s0.82925-5.4471-22.594-8.375c-1.4639-0.18299-2.9425-0.25153-4.4375-0.25zm-16.5 23.469c-16.49 0.0933-32.184 3.4353-48.5 7.9375-4.3624 31.061-6.537 59.258 40.844 60.281 61.62 1.3311 57.981-28.297 54.094-59.469-16.723-6.3773-31.887-8.8324-46.438-8.75z" stroke="#000" stroke-width="1px"/>
 </g>
</svg>
