<?xml version="1.0" encoding="UTF-8"?>
<svg viewBox="0 0 1013.4816 305.55063" xmlns="http://www.w3.org/2000/svg" xmlns:xlink="http://www.w3.org/1999/xlink">
 <defs>
  <filter id="d" x="-.23811" y="-.1884" width="1.4762" height="1.3768">
   <feGaussianBlur stdDeviation="5.03243"/>
  </filter>
  <filter id="a" x="-.21647" y="-.17127" width="1.4329" height="1.3425">
   <feGaussianBlur stdDeviation="4.57494"/>
  </filter>
  <linearGradient id="b">
   <stop stop-color="#b3b3b3" offset="0"/>
   <stop stop-color="#b6b6b6" offset=".11829"/>
   <stop stop-color="#b9b9b9" offset=".26326"/>
   <stop stop-color="#bfbfbf" offset=".42627"/>
   <stop stop-color="#ccc" offset=".59316"/>
   <stop stop-color="#e6e6e6" offset="1"/>
  </linearGradient>
  <linearGradient id="e">
   <stop stop-color="#d35f5f" offset="0"/>
   <stop stop-color="#a02c2c" offset="1"/>
  </linearGradient>
  <linearGradient id="v" x1="3220.6" x2="3206.6" y1="1586.9" y2="1610.2" gradientUnits="userSpaceOnUse">
   <stop stop-color="#501616" offset="0"/>
   <stop stop-color="#782121" offset=".5762"/>
   <stop stop-color="#a02c2c" offset="1"/>
  </linearGradient>
  <linearGradient id="c">
   <stop stop-color="#333" offset="0"/>
   <stop stop-color="#333" stop-opacity="0" offset="1"/>
  </linearGradient>
  <linearGradient id="f">
   <stop stop-color="#59f" offset="0"/>
   <stop stop-color="#0055d4" offset="1"/>
  </linearGradient>
  <linearGradient id="x" x1="3183.8" x2="3169.8" y1="1825.9" y2="1849.2" gradientUnits="userSpaceOnUse">
   <stop stop-color="#025" offset="0"/>
   <stop stop-color="#003380" offset=".5762"/>
   <stop stop-color="#0055d4" offset="1"/>
  </linearGradient>
  <linearGradient id="g">
   <stop stop-color="#ff2a7f" offset="0"/>
   <stop stop-color="#a04" offset="1"/>
  </linearGradient>
  <linearGradient id="z" x1="3172.7" x2="3158.7" y1="1540.3" y2="1563.6" gradientUnits="userSpaceOnUse">
   <stop stop-color="#502" offset="0"/>
   <stop stop-color="#800033" offset=".5762"/>
   <stop stop-color="#a04" offset="1"/>
  </linearGradient>
  <linearGradient id="t" x1="3396.2" x2="3382.2" y1="1445.5" y2="1468.9" gradientUnits="userSpaceOnUse">
   <stop stop-color="#ac5a14" offset="0"/>
   <stop stop-color="#b15d14" offset=".29946"/>
   <stop stop-color="#bf6816" offset=".5762"/>
   <stop stop-color="#ce7319" offset="1"/>
  </linearGradient>
  <linearGradient id="w" x1="3193.4" x2="3181.8" y1="1649.5" y2="1643.1" gradientUnits="userSpaceOnUse" xlink:href="#b"/>
  <linearGradient id="y" x1="3156.6" x2="3145.1" y1="1888.5" y2="1882.1" gradientUnits="userSpaceOnUse" xlink:href="#b"/>
  <linearGradient id="aa" x1="3145.6" x2="3134" y1="1602.9" y2="1596.5" gradientUnits="userSpaceOnUse" xlink:href="#b"/>
  <linearGradient id="u" x1="3369" x2="3357.4" y1="1508.1" y2="1501.7" gradientUnits="userSpaceOnUse" xlink:href="#b"/>
  <radialGradient id="j" cx="3018.3" cy="1134" r="41.366" gradientUnits="userSpaceOnUse">
   <stop stop-color="#ffd918" offset="0"/>
   <stop stop-color="#edae1d" offset=".54232"/>
   <stop stop-color="#db8322" offset="1"/>
  </radialGradient>
  <radialGradient id="h" cx="2998.4" cy="1136.9" r="41.366" gradientTransform="matrix(.88234 1.2171 -.67562 .48854 1132.6 -3079.5)" gradientUnits="userSpaceOnUse">
   <stop stop-color="#eeb414" offset="0"/>
   <stop stop-color="#edae1d" offset=".40969"/>
   <stop stop-color="#db8322" offset="1"/>
  </radialGradient>
  <radialGradient id="m" cx="3018.3" cy="1134" r="41.366" gradientUnits="userSpaceOnUse" xlink:href="#e"/>
  <radialGradient id="l" cx="3053.6" cy="1284.7" r="35.708" gradientTransform="matrix(-.19806 .56437 -.77184 -.27086 4822.4 211.53)" gradientUnits="userSpaceOnUse" xlink:href="#c"/>
  <radialGradient id="k" cx="2991" cy="1134.4" r="41.366" gradientTransform="matrix(.73533 1.4976 -1.259 .75351 2238 -4214.6)" gradientUnits="userSpaceOnUse" xlink:href="#e"/>
  <radialGradient id="p" cx="3018.3" cy="1134" r="41.366" gradientUnits="userSpaceOnUse" xlink:href="#f"/>
  <radialGradient id="o" cx="3053.6" cy="1284.7" r="35.708" gradientTransform="matrix(-.19806 .56437 -.77184 -.27086 4785.6 450.53)" gradientUnits="userSpaceOnUse" xlink:href="#c"/>
  <radialGradient id="n" cx="2991" cy="1134.4" r="41.366" gradientTransform="matrix(.73533 1.4976 -1.259 .75351 2238 -4214.6)" gradientUnits="userSpaceOnUse" xlink:href="#f"/>
  <radialGradient id="s" cx="3018.3" cy="1134" r="41.366" gradientUnits="userSpaceOnUse" xlink:href="#g"/>
  <radialGradient id="r" cx="3053.6" cy="1284.7" r="35.708" gradientTransform="matrix(-.19806 .56437 -.77184 -.27086 4774.6 164.91)" gradientUnits="userSpaceOnUse" xlink:href="#c"/>
  <radialGradient id="q" cx="2998.6" cy="1136.9" r="41.366" gradientTransform="matrix(.7146 1.1918 -1.2359 .83026 2273 -3392.1)" gradientUnits="userSpaceOnUse" xlink:href="#g"/>
  <radialGradient id="i" cx="3053.6" cy="1284.7" r="35.708" gradientTransform="matrix(-.19806 .56437 -.77184 -.27086 4998 70.155)" gradientUnits="userSpaceOnUse" xlink:href="#c"/>
 </defs>
 <g transform="matrix(1.9939 0 0 1.9935 -6405.3 -2745.5)">
  <path d="m3366.3 1487.1-18.385 42.78 35.709-36.416z" fill="url(#u)"/>
  <path transform="matrix(.67349 -.93145 1.0026 .72079 216.68 3457)" d="m3059.7 1134c0 22.846-18.52 41.366-41.366 41.366s-41.366-18.52-41.366-41.366 18.52-41.366 41.366-41.366 41.366 18.52 41.366 41.366z" fill="url(#j)"/>
  <path d="m3382.9 1420.3-16.263 23.334c-12.718 18.247 35.466 47.54 47.376 29.345l21.92-34.295z" fill="url(#t)"/>
  <path d="m3382.9 1420.3-16.263 23.334c-12.718 18.247 35.466 47.54 47.376 29.345l21.92-34.295z" fill="url(#i)"/>
  <path transform="matrix(.54006 -.70839 .80394 .54818 870.14 2938.8)" d="m3059.7 1134c0 22.846-18.52 41.366-41.366 41.366s-41.366-18.52-41.366-41.366 18.52-41.366 41.366-41.366 41.366 18.52 41.366 41.366z" fill="url(#h)" stroke="#db8322"/>
  <path d="m3410.3 1390.3c-9.9026-0.1606-19.452 4.125-25.406 12.438-10.028 14-6.0536 34.135 8.875 44.969 11.32 8.2146 25.655 8.7116 36.312 2.375-9.0877 2.0046-19.298 0.3532-27.812-5.3438-14.929-9.9887-18.904-28.561-8.875-41.469 6.1549-7.9222 16.15-11.876 26.406-11.437-3.134-0.9745-6.3315-1.4799-9.5-1.5313z" fill="#fea" filter="url(#d)"/>
  <path d="m3410.3 1390.3c-9.9026-0.1606-19.452 4.125-25.406 12.438-10.028 14-6.0536 34.135 8.875 44.969 11.32 8.2146 25.655 8.7116 36.312 2.375-9.0877 2.0046-19.298 0.3532-27.812-5.3438-14.929-9.9887-18.904-28.561-8.875-41.469 6.1549-7.9222 16.15-11.876 26.406-11.437-3.134-0.9745-6.3315-1.4799-9.5-1.5313z" fill="#ffd916" filter="url(#a)"/>
  <path transform="matrix(1.2064 0 0 1.2382 -270.4 -147.09)" d="m3026.3 1268.8c-9.9026-0.1606-19.452 4.125-25.406 12.438-10.028 14-6.0536 34.135 8.875 44.969 11.32 8.2146 25.655 8.7116 36.312 2.375-9.0877 2.0046-19.298 0.3532-27.812-5.3438-14.929-9.9887-18.904-28.561-8.875-41.469 6.1549-7.9222 16.15-11.876 26.406-11.437-3.134-0.9745-6.3315-1.4799-9.5-1.5313z" fill="#ffd916" filter="url(#a)" stroke="#db8322"/>
 </g>
 <g transform="matrix(1.9939 0 0 1.9935 -5424.9 -2933.6)">
  <path d="m3142.8 1581.8-18.385 42.78 35.709-36.416z" fill="url(#aa)"/>
  <path transform="matrix(.67349 -.93145 1.0026 .72079 -6.7608 3551.8)" d="m3059.7 1134c0 22.846-18.52 41.366-41.366 41.366s-41.366-18.52-41.366-41.366 18.52-41.366 41.366-41.366 41.366 18.52 41.366 41.366z" fill="url(#s)"/>
  <path d="m3159.5 1515-16.263 23.334c-12.718 18.247 35.466 47.54 47.376 29.345l21.92-34.295z" fill="url(#z)"/>
  <path d="m3159.5 1515-16.263 23.334c-12.718 18.247 35.466 47.54 47.376 29.345l21.92-34.295z" fill="url(#r)"/>
  <path transform="matrix(.54006 -.70839 .80394 .54818 646.7 3033.6)" d="m3059.7 1134c0 22.846-18.52 41.366-41.366 41.366s-41.366-18.52-41.366-41.366 18.52-41.366 41.366-41.366 41.366 18.52 41.366 41.366z" fill="url(#q)" stroke="#d40055"/>
  <path d="m3186.8 1485.1c-9.9026-0.1606-19.452 4.125-25.406 12.438-10.028 14-6.0536 34.135 8.875 44.969 11.32 8.2146 25.655 8.7116 36.312 2.375-9.0877 2.0046-19.298 0.3532-27.812-5.3438-14.929-9.9887-18.904-28.561-8.875-41.469 6.1549-7.9222 16.15-11.876 26.406-11.437-3.134-0.9745-6.3315-1.4799-9.5-1.5313z" fill="#ffd5e5" filter="url(#d)"/>
  <path transform="matrix(1.2064 0 0 1.2382 -493.6 -51.843)" d="m3026.3 1268.8c-9.9026-0.1606-19.452 4.125-25.406 12.438-10.028 14-6.0536 34.135 8.875 44.969 11.32 8.2146 25.655 8.7116 36.312 2.375-9.0877 2.0046-19.298 0.3532-27.812-5.3438-14.929-9.9887-18.904-28.561-8.875-41.469 6.1549-7.9222 16.15-11.876 26.406-11.437-3.134-0.9745-6.3315-1.4799-9.5-1.5313z" fill="#ff80b2" filter="url(#a)" stroke="#db8322"/>
  <path d="m3186.8 1485.1c-9.9026-0.1606-19.452 4.125-25.406 12.438-10.028 14-6.0536 34.135 8.875 44.969 11.32 8.2146 25.655 8.7116 36.312 2.375-9.0877 2.0046-19.298 0.3532-27.812-5.3438-14.929-9.9887-18.904-28.561-8.875-41.469 6.1549-7.9222 16.15-11.876 26.406-11.437-3.134-0.9745-6.3315-1.4799-9.5-1.5313z" fill="#ff80b2" filter="url(#a)"/>
 </g>
 <g transform="matrix(1.9939 0 0 1.9935 -5719.9 -3505.8)">
  <path d="m3153.9 1867.4-18.385 42.78 35.709-36.416z" fill="url(#y)"/>
  <path transform="matrix(.67349 -.93145 1.0026 .72079 4.3002 3837.4)" d="m3059.7 1134c0 22.846-18.52 41.366-41.366 41.366s-41.366-18.52-41.366-41.366 18.52-41.366 41.366-41.366 41.366 18.52 41.366 41.366z" fill="url(#p)"/>
  <path d="m3170.5 1800.6-16.263 23.334c-12.718 18.247 35.466 47.54 47.376 29.345l21.92-34.295z" fill="url(#x)"/>
  <path d="m3170.5 1800.6-16.263 23.334c-12.718 18.247 35.466 47.54 47.376 29.345l21.92-34.295z" fill="url(#o)"/>
  <path transform="matrix(.54006 -.70839 .80394 .54818 657.76 3319.2)" d="m3059.7 1134c0 22.846-18.52 41.366-41.366 41.366s-41.366-18.52-41.366-41.366 18.52-41.366 41.366-41.366 41.366 18.52 41.366 41.366z" fill="url(#n)" stroke="#06f"/>
  <path d="m3197.9 1770.7c-9.9026-0.1606-19.452 4.125-25.406 12.438-10.028 14-6.0536 34.135 8.875 44.969 11.32 8.2146 25.655 8.7116 36.312 2.375-9.0877 2.0046-19.298 0.3532-27.812-5.3438-14.929-9.9887-18.904-28.561-8.875-41.469 6.1549-7.9222 16.15-11.876 26.406-11.437-3.134-0.9745-6.3315-1.4799-9.5-1.5313z" fill="#d5e5ff" filter="url(#d)"/>
  <path d="m3197.9 1770.7c-9.9026-0.1606-19.452 4.125-25.406 12.438-10.028 14-6.0536 34.135 8.875 44.969 11.32 8.2146 25.655 8.7116 36.312 2.375-9.0877 2.0046-19.298 0.3532-27.812-5.3438-14.929-9.9887-18.904-28.561-8.875-41.469 6.1549-7.9222 16.15-11.876 26.406-11.437-3.134-0.9745-6.3315-1.4799-9.5-1.5313z" fill="#acf" filter="url(#a)"/>
  <path transform="matrix(1.2064 0 0 1.2382 -482.79 233.28)" d="m3026.3 1268.8c-9.9026-0.1606-19.452 4.125-25.406 12.438-10.028 14-6.0536 34.135 8.875 44.969 11.32 8.2146 25.655 8.7116 36.312 2.375-9.0877 2.0046-19.298 0.3532-27.812-5.3438-14.929-9.9887-18.904-28.561-8.875-41.469 6.1549-7.9222 16.15-11.876 26.406-11.437-3.134-0.9745-6.3315-1.4799-9.5-1.5313z" fill="#acf" filter="url(#a)"/>
 </g>
 <g transform="matrix(1.9939 0 0 1.9935 -6289.3 -3026.1)">
  <path d="m3190.7 1628.4-18.385 42.78 35.709-36.416z" fill="url(#w)"/>
  <path transform="matrix(.67349 -.93145 1.0026 .72079 41.07 3598.4)" d="m3059.7 1134c0 22.846-18.52 41.366-41.366 41.366s-41.366-18.52-41.366-41.366 18.52-41.366 41.366-41.366 41.366 18.52 41.366 41.366z" fill="url(#m)"/>
  <path d="m3207.3 1561.6-16.263 23.334c-12.718 18.247 35.466 47.54 47.376 29.345l21.92-34.295z" fill="url(#v)"/>
  <path d="m3207.3 1561.6-16.263 23.334c-12.718 18.247 35.466 47.54 47.376 29.345l21.92-34.295z" fill="url(#l)"/>
  <path transform="matrix(.54006 -.70839 .80394 .54818 694.53 3080.2)" d="m3059.7 1134c0 22.846-18.52 41.366-41.366 41.366s-41.366-18.52-41.366-41.366 18.52-41.366 41.366-41.366 41.366 18.52 41.366 41.366z" fill="url(#k)" stroke="#c83737"/>
  <path d="m3234.7 1531.7c-9.9026-0.1606-19.452 4.125-25.406 12.438-10.028 14-6.0536 34.135 8.875 44.969 11.32 8.2146 25.655 8.7116 36.312 2.375-9.0877 2.0046-19.298 0.3532-27.812-5.3438-14.929-9.9887-18.904-28.561-8.875-41.469 6.1549-7.9222 16.15-11.876 26.406-11.437-3.134-0.9745-6.3315-1.4799-9.5-1.5313z" fill="#f4d7d7" filter="url(#d)"/>
  <path d="m3234.7 1531.7c-9.9026-0.1606-19.452 4.125-25.406 12.438-10.028 14-6.0536 34.135 8.875 44.969 11.32 8.2146 25.655 8.7116 36.312 2.375-9.0877 2.0046-19.298 0.3532-27.812-5.3438-14.929-9.9887-18.904-28.561-8.875-41.469 6.1549-7.9222 16.15-11.876 26.406-11.437-3.134-0.9745-6.3315-1.4799-9.5-1.5313z" fill="#de8787" filter="url(#a)"/>
  <path transform="matrix(1.2064 0 0 1.2382 -446.02 -5.7224)" d="m3026.3 1268.8c-9.9026-0.1606-19.452 4.125-25.406 12.438-10.028 14-6.0536 34.135 8.875 44.969 11.32 8.2146 25.655 8.7116 36.312 2.375-9.0877 2.0046-19.298 0.3532-27.812-5.3438-14.929-9.9887-18.904-28.561-8.875-41.469 6.1549-7.9222 16.15-11.876 26.406-11.437-3.134-0.9745-6.3315-1.4799-9.5-1.5313z" fill="#de8787" filter="url(#a)"/>
 </g>
</svg>
