<?xml version="1.0" encoding="UTF-8"?>
<svg viewBox="0 0 1052.3622 744.09448" xmlns="http://www.w3.org/2000/svg" xmlns:xlink="http://www.w3.org/1999/xlink">
 <defs>
  <linearGradient id="a">
   <stop offset="0"/>
   <stop stop-opacity="0" offset="1"/>
  </linearGradient>
  <linearGradient id="g" x1="321.72" x2="335.99" y1="528.36" y2="444.95" gradientTransform="matrix(1.3578 0 0 .84614 37.116 -32.335)" gradientUnits="userSpaceOnUse" xlink:href="#a"/>
  <linearGradient id="f" x1="388.28" x2="373.44" y1="411.84" y2="360.71" gradientTransform="matrix(1.006 0 0 1.142 34.056 -29.784)" gradientUnits="userSpaceOnUse" xlink:href="#a"/>
  <linearGradient id="e" x1="535.29" x2="577.68" y1="380.3" y2="315.41" gradientTransform="matrix(.83683 0 0 1.3729 34.056 -29.784)" gradientUnits="userSpaceOnUse" xlink:href="#a"/>
  <linearGradient id="d" x1="472.49" x2="471.55" y1="380" y2="306.5" gradientTransform="matrix(1.2732 0 0 .90235 34.056 -29.784)" gradientUnits="userSpaceOnUse" xlink:href="#a"/>
  <linearGradient id="c" x1="276.01" x2="277.88" y1="373.71" y2="276.62" gradientTransform="matrix(1.1826 0 0 .97148 34.056 -29.784)" gradientUnits="userSpaceOnUse" xlink:href="#a"/>
  <linearGradient id="b" x1="472.49" x2="471.55" y1="380" y2="306.5" gradientTransform="matrix(1.2732 0 0 .90235 -51.692 -126.25)" gradientUnits="userSpaceOnUse" xlink:href="#a"/>
 </defs>
 <path transform="matrix(1.1708 0 0 1.1708 -45.07 -50.191)" d="m619.41 155.27a88.289 88.289 0 1 1 -176.58 0 88.289 88.289 0 1 1 176.58 0z" stroke="#000" stroke-linecap="round" stroke-linejoin="round" stroke-width="2.66"/>
 <path transform="matrix(1.2914 0 0 1.2232 -93.208 -64.471)" d="m488 220.09a86 88 0 1 1 -172 0 86 88 0 1 1 172 0z" fill="#af350b" stroke="#000" stroke-linecap="round" stroke-linejoin="round" stroke-width="2.66"/>
 <path transform="matrix(1.2194 0 0 1.2768 -75.189 -74.886)" d="m698 229.09a95 87 0 1 1 -190 0 95 87 0 1 1 190 0z" fill="#00b800" stroke="#000" stroke-linecap="round" stroke-linejoin="round" stroke-width="2.66"/>
 <path transform="matrix(1.0718 0 0 1.0718 31.912 -44.79)" d="m672 271.09a46 43 0 1 1 -92 0 46 43 0 1 1 92 0z" fill="#fff"/>
 <path transform="matrix(1.249 0 0 1.2273 -65.224 -75.151)" d="m354.49 302a101.34 98.917 0 1 1 -202.68 0 101.34 98.917 0 1 1 202.68 0z" fill="#ff7d00" stroke="#000" stroke-linecap="round" stroke-linejoin="round" stroke-width="2.66"/>
 <path d="m492.81 184.69s12.862 0 21.437-10.718 8.3799-22.606 8.3799-22.606 0.19489 3.313 15.201 5.4567 24.945 2.5335 24.945 2.5335-6.4311 13.837 2.1437 26.699 20.852 26.699 30.791 37.222l-75.029-10.718-27.868-27.868z" fill="url(#b)" fill-rule="evenodd"/>
 <path transform="matrix(1.4663 0 0 1.4654 -180.21 -126.29)" d="m548.28 290.69a82.767 81.152 0 1 1 -165.53 0 82.767 81.152 0 1 1 165.53 0z" fill="#fff" stroke="#000" stroke-linecap="round" stroke-linejoin="round" stroke-width="2.66"/>
 <path transform="matrix(1.209 0 0 1.1422 -80.468 -51.115)" d="m803.45 326.62a109.82 114.66 0 1 1 -219.64 0 109.82 114.66 0 1 1 219.64 0z" fill="#9517a1" stroke="#000" stroke-linecap="round" stroke-linejoin="round" stroke-width="2.66"/>
 <path d="m668.81 229.79c-1.8907 10.399-6.6176 27.416-17.017 45.377s-19.853 38.76-22.689 33.088 4.7268-30.252 12.29-45.377 23.634-32.142 27.416-33.088z" fill="#fff" fill-rule="evenodd"/>
 <path d="m453.57 193.06s49.734 11.569 82.012 32.903 71.864 56.345 71.864 56.345l-48.929 106.57-69.652 10.667-79.845-64.971-25.708-43.59c3.1127-25.325 9.871-47.174 28.595-66.499 15.611-20.449 41.664-31.423 41.664-31.423z" fill="#ffd900" fill-rule="evenodd"/>
 <path d="m578.55 281.15s12.862 0 21.437-10.718 10.718-27.868 10.718-27.868-2.1437 8.5748 12.862 10.718 21.437-2.1437 21.437-2.1437-12.862 8.5748-4.2874 21.437 47.161 47.161 47.161 47.161l-81.46-10.718-27.868-27.868z" fill="url(#d)" fill-rule="evenodd"/>
 <path d="m430.74 421.21-21.437-92.179s12.862 30.012 77.173 30.012 70.742 2.1437 70.742 2.1437l-126.48 60.023z" fill="url(#g)" fill-rule="evenodd"/>
 <path d="m340.6 279.01s11.097 0 18.495-10.718 5.6363-26.062 5.6363-26.062 1.7616 6.7692 14.708 8.9129 14.282-3.9492 14.282-3.9492-8.6894 19.368 0.51395 40.054c15.222 32.723 21.395 47.499 21.395 47.499l-50.986-27.868-24.043-27.868z" fill="url(#c)" fill-rule="evenodd"/>
 <path transform="matrix(1.3001 0 0 1.3862 -85.932 -130.31)" d="m408.13 391.23a102.46 100.33 0 1 1 -204.91 0 102.46 100.33 0 1 1 204.91 0z" fill="#f00000" stroke="#000" stroke-linecap="round" stroke-linejoin="round" stroke-width="2.66"/>
 <path transform="matrix(1.3241 -.1115 0 1.1708 -99.84 -42.798)" d="m332.45 322.79a35.711 22.532 0 1 1 -71.422 0 35.711 22.532 0 1 1 71.422 0z" fill="#fff"/>
 <path transform="matrix(1.2406 0 0 1.1789 -93.335 -65.348)" d="m664.91 415.47a113.51 120.31 0 1 1 -227.02 0 113.51 120.31 0 1 1 227.02 0z" fill="#0000a4" stroke="#000" stroke-linecap="round" stroke-linejoin="round" stroke-width="2.66"/>
 <path d="m454.22 377.62s15.006 19.293 38.586 36.443 42.874 27.868 42.874 49.305 6.4311 45.017 0 55.736-70.742-64.311-70.742-64.311l-12.862-42.874 2.1437-34.299z" fill="url(#e)" fill-rule="evenodd"/>
 <path d="m366.33 403.34s51.449-2.1437 62.167-17.15l10.718-15.006s2.1437-2.1437 4.2874 23.581-17.15 64.311-17.15 64.311l-60.023-55.736z" fill="url(#f)" fill-rule="evenodd"/>
 <path transform="matrix(1.4282 0 0 1.5433 -148.54 -244.94)" d="m487.57 517.06a112.12 102.35 0 1 1 -224.25 0 112.12 102.35 0 1 1 224.25 0z" fill="#ffda00" stroke="#000" stroke-linecap="round" stroke-linejoin="round" stroke-width="2.66"/>
 <path transform="matrix(1.3659 -.14979 0 1.1234 -116.87 6.6185)" d="m374.98 497.05a41.872 52.572 0 1 1 -83.743 0 41.872 52.572 0 1 1 83.743 0z" fill="#fff"/>
 <path d="m340.46 488.06c-2.3415 11.707-4.683 9.366-9.366 23.415s-4.4852 14.445-7.0245 32.781" fill="none" stroke="#000" stroke-linecap="round" stroke-width="7.3172"/>
 <path d="m243.68 537.5s7.6998-47.132 39.199-89.364c35.699-31.733 52.032-37.566 87.731-41.532s47.599 3.9666 47.599 3.9666-77.465-0.23334-113.16 39.432c-33.599 27.066-61.365 87.498-61.365 87.498z" fill="#fff" fill-opacity=".71351" fill-rule="evenodd"/>
 <path d="m190.46 399.09s1.1697-33.246 18.126-64.891c20.521-24.685 30.612-29.959 53.378-35.401s31.102-0.84091 31.102-0.84091-50.114 5.6808-69.994 35.864c-19.54 21.292-32.612 65.269-32.612 65.269z" fill="#fff" fill-opacity=".71351" fill-rule="evenodd"/>
 <path d="m403.7 264.3s-0.92631-18.602 30.117-50.491c32.271-22.105 45.468-24.662 72.727-22.607s34.675 10.793 34.675 10.793-57.555-12.15-91.258 16.858c-29.867 18.369-46.261 45.448-46.261 45.448z" fill="#fff" fill-opacity=".52432" fill-rule="evenodd"/>
 <path d="m672.3 249s-16.559-0.74954 19.261-31.99c36.045-20.018 50.087-20.892 78.299-14.424s35.006 17.453 35.006 17.453-58.726-22.468-97.009 5.1177c-33.135 16.17-35.557 23.844-35.557 23.844z" fill="#fff" fill-opacity=".71351" fill-rule="evenodd"/>
 <path d="m587.71 152.4s-14.01-0.56066 16.295-23.929c30.496-14.974 42.375-15.628 66.244-10.79s29.616 13.055 29.616 13.055-49.684-16.806-82.073 3.8281c-28.033 12.095-30.082 17.835-30.082 17.835z" fill="#fff" fill-opacity=".71351" fill-rule="evenodd"/>
 <path d="m376.91 707.36s44.099 4.1999 69.298-6.2998 60.899-41.999 73.498-62.998 27.299-50.399 27.299-69.298 0-48.299-6.2998-60.899l-14.7-29.399s12.6 39.899 8.3998 67.198-10.5 48.299-29.399 83.998c-23.099 33.599-29.399 41.999-54.599 60.899-35.699 18.9-73.498 16.8-73.498 16.8z" fill-opacity=".22703" fill-rule="evenodd"/>
 <path d="m565.9 566.74s44.099 3.816 69.298-5.724 60.899-38.16 73.498-57.24 27.299-45.792 27.299-62.964 0-43.884-6.2998-55.332l-14.7-26.712s12.6 36.252 8.3998 61.056-10.5 43.884-29.399 76.32c-23.099 30.528-29.399 38.16-54.599 55.332-35.699 17.172-73.498 15.264-73.498 15.264z" fill-opacity=".22703" fill-rule="evenodd"/>
 <path d="m742.3 451.76c41.999-4.1999 42.155-0.57588 69.843-9.6359s35.414-23.641 49.258-41.761 29.996-43.488 29.996-59.796 0-41.676-6.9221-52.548l-16.151-25.368s13.844 34.428 9.2294 57.984-11.537 41.676-32.303 72.48c-25.381 28.992-17.603 27.84-45.291 44.148-39.225 16.308-57.658 14.496-57.658 14.496z" fill-opacity=".22703" fill-rule="evenodd"/>
 <path d="m133.71 305.7s-1.1069-37.739 5.1103-53.611 16.874-28.969 24.533-35.295 22.089-9.655 22.089-9.655-20.425 16.87-32.637 46.283-19.096 52.278-19.096 52.278z" fill="#fff" fill-opacity=".55135" fill-rule="evenodd"/>
 <path d="m285.9 291.92c-1.8999-2.5745-2.767-4.8155-2.6013-6.7231 0.14942-1.924 1.3192-3.3049 3.5092-4.1426 3.3612-1.2856 7.2049-1.0255 11.531 0.7803s8.779 5.0204 13.358 9.6436c1.5373 1.5521 2.9793 3.209 4.3258 4.9707 1.3454 1.7394 2.6034 3.5918 3.7743 5.5572l-4.4486 1.7016c-0.62854-1.672-1.5704-3.4063-2.8257-5.2029s-2.7742-3.5948-4.5569-5.3945c-3.1074-3.1372-6.0409-5.305-8.8008-6.5033-2.7761-1.2148-5.2516-1.4063-7.4266-0.57446-2.0076 0.76794-2.8136 2.1349-2.4181 4.101 0.36399 1.9554 1.8952 4.2953 4.5937 7.0197l4.2686 4.3095-3.787 1.4485-4.4648-4.5077c-2.4368-2.4602-4.7499-4.1709-6.9393-5.1321-2.2045-0.95535-4.1585-1.1073-5.862-0.45572-1.749 0.66901-2.4168 1.8579-2.0036 3.5667 0.38181 1.6981 1.8157 3.8021 4.3015 6.3118 1.3575 1.3704 2.9499 2.7876 4.7774 4.2515s3.9624 3.0264 6.4048 4.6877l-4.1064 1.5707c-2.3674-1.7127-4.4906-3.348-6.3694-4.9061-1.8951-1.5746-3.5705-3.0966-5.0261-4.5662-3.7615-3.7977-5.9396-7.1082-6.5342-9.9316-0.60974-2.8176 0.43897-4.7441 3.1461-5.7796 1.886-0.72134 4.0635-0.74602 6.5326-0.07401 2.454 0.67785 5.0032 2.0023 7.6475 3.9733" fill-opacity=".61081"/>
 <path d="m474.44 382.2s-1.0851-21.849 35.281-59.306c37.804-25.965 53.264-28.968 85.197-26.554s40.621 12.677 40.621 12.677-67.424-14.272-106.91 19.801c-34.988 21.576-54.193 53.383-54.193 53.383z" fill="#fff" fill-opacity=".52432" fill-rule="evenodd"/>
 <path d="m343.67 165.69s-0.69528-14.813 22.605-40.207c24.222-17.603 34.128-19.639 54.588-18.003s26.027 8.5943 26.027 8.5943-43.201-9.6756-68.498 13.424c-22.418 14.627-34.723 36.191-34.723 36.191z" fill="#fff" fill-opacity=".52432" fill-rule="evenodd"/>
 <path d="m520.77 66.656s-11.927-0.43212 13.873-18.443c25.963-11.541 36.077-12.045 56.398-8.316s25.214 10.062 25.214 10.062-42.299-12.953-69.875 2.9505c-23.867 9.3223-25.611 13.746-25.611 13.746z" fill="#fff" fill-opacity=".71351" fill-rule="evenodd"/>
</svg>
