<?xml version="1.0" encoding="UTF-8"?>
<svg version="1.1" viewBox="0 0 324.18 267.13" xmlns="http://www.w3.org/2000/svg" xmlns:xlink="http://www.w3.org/1999/xlink">
 <defs>
  <linearGradient id="h" x1="217.3" x2="218.76" y1="792.66" y2="801.52" gradientTransform="translate(2.6194 .80402)" gradientUnits="userSpaceOnUse" xlink:href="#c"/>
  <linearGradient id="c">
   <stop stop-color="#60a658" offset="0"/>
   <stop stop-color="#60a658" stop-opacity="0" offset="1"/>
  </linearGradient>
  <linearGradient id="a" x1="217.3" x2="219.07" y1="792.66" y2="803.26" gradientUnits="userSpaceOnUse" xlink:href="#c"/>
  <linearGradient id="i" x1="219.95" x2="296.73" y1="841.92" y2="866.75" gradientTransform="translate(330.23 -444.61)" gradientUnits="userSpaceOnUse">
   <stop stop-color="#84b479" stop-opacity=".72458" offset="0"/>
   <stop stop-color="#84b479" stop-opacity="0" offset="1"/>
  </linearGradient>
  <linearGradient id="j" x1="167.18" x2="173.24" y1="779.87" y2="789.47" gradientTransform="translate(330.23 -444.61)" gradientUnits="userSpaceOnUse">
   <stop stop-color="#956241" offset="0"/>
   <stop stop-color="#008100" offset="1"/>
  </linearGradient>
  <filter id="k" color-interpolation-filters="sRGB">
   <feGaussianBlur stdDeviation="0.61744255"/>
  </filter>
  <linearGradient id="b" x1="-43.929" x2="-11.718" y1="962.36" y2="966.21" gradientUnits="userSpaceOnUse">
   <stop stop-color="#d45d6a" offset="0"/>
   <stop stop-color="#d45d6a" stop-opacity="0" offset="1"/>
  </linearGradient>
  <linearGradient id="f" x1="15.714" x2="15.357" y1="919.86" y2="941.65" gradientUnits="userSpaceOnUse">
   <stop stop-color="#dc6976" offset="0"/>
   <stop stop-color="#dc6976" stop-opacity="0" offset="1"/>
  </linearGradient>
  <filter id="g" x="-.033595" y="-.28036" width="1.0672" height="1.5607" color-interpolation-filters="sRGB">
   <feGaussianBlur stdDeviation="0.98203681"/>
  </filter>
  <linearGradient id="e" x1="55.357" x2="56.786" y1="949.86" y2="973.43" gradientUnits="userSpaceOnUse">
   <stop stop-color="#e74c5b" offset="0"/>
   <stop stop-color="#d0515d" stop-opacity="0" offset="1"/>
  </linearGradient>
  <linearGradient id="d" x1="16.429" x2="15.714" y1="969.5" y2="1028.8" gradientUnits="userSpaceOnUse">
   <stop stop-color="#cc5660" stop-opacity="0" offset="0"/>
   <stop stop-color="#cc5660" offset="1"/>
  </linearGradient>
 </defs>
 <g transform="translate(-340.77 -327.37)">
  <path d="m502.49 339.84s9.4908-0.43178 21.109 3.2064c11.222-5.8784 31.529-18.704 77.221-2.9392 45.691 15.765 64.128 80.961 64.128 80.961-27.522 10.154-60.387 18.437-92.184-4.5424s-44.355-47.829-50.501-70.541c-6.8674-2.2972-13.783-2.5436-17.524-1.742-1.0688-0.2672-2.2486-4.4036-2.2486-4.4036z" fill="#008100"/>
  <g transform="translate(548.16 -442.18)">
   <path d="m-5.9805 916.97c-0.64619 1e-3 -1.3053 0.0126-1.952 0.0312-15.764 1.4588-29.338 12.613-34.144 26.719-5.6883 16.268-5.4894 34.411 0.33086 50.625 6.4616 18.191 23.254 32.503 43.044 36.781 5.5724 1.0075 10.814 1.4751 15.715 1.4061 4.9014 0.069 10.11-0.3986 15.682-1.4061 19.789-4.2785 36.615-18.59 43.077-36.781 5.8202-16.214 6.0191-34.357 0.33085-50.625-4.8057-14.105-18.413-25.26-34.177-26.719-8.3239-0.2403-16.59 1.047-24.913 1.375-7.677-0.31-15.323-1.42-22.994-1.41z" fill="#b90a14"/>
   <g fill="url(#b)">
    <path d="m7.8259 1031.7c-0.81801-0.427-1.5883-0.7044-2.4375-1.25-1.8415-1.1831-3.7348-2.6515-5.5938-4.5-0.92948-0.9243-1.8494-1.9442-2.75-3.0625-0.90062-1.1184-1.7754-2.3566-2.625-3.6875-0.84961-1.3309-1.661-2.7505-2.4375-4.3125-0.77646-1.562-1.5063-3.251-2.1875-5.0625-0.68115-1.8115-1.3113-3.7642-1.875-5.8438-0.5637-2.0795-1.0759-4.2901-1.5-6.6562-0.84821-4.7322-1.5052-9.3057-2.0625-13.656-0.55734-4.3506-1.0073-8.4682-1.4062-12.344-0.79799-7.7511-1.4152-14.46-2.375-19.75-0.47991-2.6451-1.0308-4.9541-1.75-6.8438-0.35958-0.9448-0.7745-1.7928-1.2188-2.5312-0.44425-0.7385-0.92327-1.3546-1.4688-1.875-0.54548-0.5204-1.1492-0.9282-1.8125-1.2188-0.66328-0.2906-1.3899-0.482-2.1875-0.5312-0.79764-0.049-1.6764 0.046-2.625 0.25-0.94857 0.2039-1.9777 0.5312-3.0938 1-0.89286 0.9375-1.7458 2.2621-2.5312 3.9062-0.78544 1.6441-1.5056 3.5977-2.125 5.8438-0.61942 2.2461-1.1364 4.7878-1.5312 7.5312-0.39481 2.7435-0.66964 5.7076-0.78125 8.8438-0.11161 3.1361-0.04269 6.4195 0.1875 9.8437 0.23019 3.4243 0.65067 6.9861 1.2812 10.594 0.63058 3.6077 1.4729 7.2822 2.5625 10.969 1.0896 3.6866 2.4241 7.3706 4.0312 11.031 0.80357 1.8303 1.6961 3.5346 2.6875 5.125 0.21814 0.3499 0.49246 0.6299 0.71875 0.9687 8.0026 7.9231 18.279 13.79 29.656 16.25 2.4858 0.4495 4.8966 0.7339 7.25 0.9688z" fill="url(#b)"/>
   </g>
   <path d="m-6.3482 916.97c-0.64619 9e-4 -1.2908 0.0132-1.9375 0.0312-14.778 1.3676-27.647 11.272-33.156 24.125 7.201-7.6752 13.969-11.743 23.332-11.951 10.464-0.23258 18.101 6.764 32.387 6.764s23.933-8.9375 33.219-8.9375c6.7877 0 15.111 1.9314 24.812 9.375-6.3671-10.497-17.839-18.18-30.75-19.375-8.3239-0.2403-16.583 1.0469-24.906 1.375-7.6768-0.3026-15.329-1.4194-23-1.4062z" fill="url(#f)"/>
   <path d="m-11.864 921.86c-2.9172 0.0167-5.6161 0.43304-7.9375 1.5938 8.6041 0 21.115 4.1508 29.781 5.9688 1.1859 0.39585 2.8197 0.70599 5 0.84375 0.09837-4e-3 0.21135-0.0249 0.3125-0.0312 0.08054 5e-3 0.17123 0.0277 0.25 0.0312 1.9765-0.12488 3.5317-0.40753 4.6875-0.75 0.04958-0.0102 0.10641-0.0209 0.15625-0.0312 0.01023-3e-3 0.02109 3e-3 0.03125 0 8.6755-1.8106 21.291-6.0312 29.938-6.0312-2.3214-1.1607-5.0515-1.577-7.9688-1.5938-7.7891-0.0447-17.061 2.9633-24.531 3.625-0.74206-9e-3 -1.5266 0.0266-2.4062 0.125-0.02198 2e-3 -0.04044-3e-3 -0.0625 0-0.12041 0-0.25328 2e-3 -0.375 0-0.81417-0.0876-1.5548-0.13094-2.25-0.125-7.4853-0.65071-16.809-3.6698-24.625-3.625z" fill="#a13138" filter="url(#g)"/>
   <path d="m55.765 942.21c18.571-2.5 18.398 18.831 18.398 24.189 0 5.3571-24.232 10.375-30.303 4.3037-6.0714-6.0714-0.95196-26.706 11.905-28.492z" fill="url(#e)"/>
   <path d="m-46.54 969.47c0.14885 8.3342 1.6157 16.67 4.4375 24.531 6.4616 18.191 23.242 32.503 43.031 36.781 5.5724 1.0075 10.817 1.4753 15.719 1.4063 4.9014 0.069 10.115-0.3988 15.688-1.4063 19.789-4.2784 36.632-18.59 43.094-36.781 2.7936-7.7823 4.2634-16.031 4.4375-24.281-57.908 20.354-95.501 13.718-126.41-0.25z" fill="url(#d)"/>
  </g>
  <g transform="translate(387.31 -438.04)">
   <path d="m-5.9805 916.97c-0.64619 1e-3 -1.3053 0.0126-1.952 0.0312-15.764 1.4588-29.338 12.613-34.144 26.719-5.6883 16.268-5.4894 34.411 0.33086 50.625 6.4616 18.191 23.254 32.503 43.044 36.781 5.5724 1.0075 10.814 1.4751 15.715 1.4061 4.9014 0.069 10.11-0.3986 15.682-1.4061 19.789-4.2785 36.615-18.59 43.077-36.781 5.8202-16.214 6.0191-34.357 0.33085-50.625-4.8057-14.105-18.413-25.26-34.177-26.719-8.3239-0.2403-16.59 1.047-24.913 1.375-7.677-0.31-15.323-1.42-22.994-1.41z" fill="#b90a14"/>
   <g fill="url(#b)">
    <path d="m7.8259 1031.7c-0.81801-0.427-1.5883-0.7044-2.4375-1.25-1.8415-1.1831-3.7348-2.6515-5.5938-4.5-0.92948-0.9243-1.8494-1.9442-2.75-3.0625-0.90062-1.1184-1.7754-2.3566-2.625-3.6875-0.84961-1.3309-1.661-2.7505-2.4375-4.3125-0.77646-1.562-1.5063-3.251-2.1875-5.0625-0.68115-1.8115-1.3113-3.7642-1.875-5.8438-0.5637-2.0795-1.0759-4.2901-1.5-6.6562-0.84821-4.7322-1.5052-9.3057-2.0625-13.656-0.55734-4.3506-1.0073-8.4682-1.4062-12.344-0.79799-7.7511-1.4152-14.46-2.375-19.75-0.47991-2.6451-1.0308-4.9541-1.75-6.8438-0.35958-0.9448-0.7745-1.7928-1.2188-2.5312-0.44425-0.7385-0.92327-1.3546-1.4688-1.875-0.54548-0.5204-1.1492-0.9282-1.8125-1.2188-0.66328-0.2906-1.3899-0.482-2.1875-0.5312-0.79764-0.049-1.6764 0.046-2.625 0.25-0.94857 0.2039-1.9777 0.5312-3.0938 1-0.89286 0.9375-1.7458 2.2621-2.5312 3.9062-0.78544 1.6441-1.5056 3.5977-2.125 5.8438-0.61942 2.2461-1.1364 4.7878-1.5312 7.5312-0.39481 2.7435-0.66964 5.7076-0.78125 8.8438-0.11161 3.1361-0.04269 6.4195 0.1875 9.8437 0.23019 3.4243 0.65067 6.9861 1.2812 10.594 0.63058 3.6077 1.4729 7.2822 2.5625 10.969 1.0896 3.6866 2.4241 7.3706 4.0312 11.031 0.80357 1.8303 1.6961 3.5346 2.6875 5.125 0.21814 0.3499 0.49246 0.6299 0.71875 0.9687 8.0026 7.9231 18.279 13.79 29.656 16.25 2.4858 0.4495 4.8966 0.7339 7.25 0.9688z" fill="url(#b)"/>
   </g>
   <path d="m-6.3482 916.97c-0.64619 9e-4 -1.2908 0.0132-1.9375 0.0312-14.778 1.3676-27.647 11.272-33.156 24.125 7.201-7.6752 13.969-11.743 23.332-11.951 10.464-0.23258 18.101 6.764 32.387 6.764s23.933-8.9375 33.219-8.9375c6.7877 0 15.111 1.9314 24.812 9.375-6.3671-10.497-17.839-18.18-30.75-19.375-8.3239-0.2403-16.583 1.0469-24.906 1.375-7.6768-0.3026-15.329-1.4194-23-1.4062z" fill="url(#f)"/>
   <path d="m-11.864 921.86c-2.9172 0.0167-5.6161 0.43304-7.9375 1.5938 8.6041 0 21.115 4.1508 29.781 5.9688 1.1859 0.39585 2.8197 0.70599 5 0.84375 0.09837-4e-3 0.21135-0.0249 0.3125-0.0312 0.08054 5e-3 0.17123 0.0277 0.25 0.0312 1.9765-0.12488 3.5317-0.40753 4.6875-0.75 0.04958-0.0102 0.10641-0.0209 0.15625-0.0312 0.01023-3e-3 0.02109 3e-3 0.03125 0 8.6755-1.8106 21.291-6.0312 29.938-6.0312-2.3214-1.1607-5.0515-1.577-7.9688-1.5938-7.7891-0.0447-17.061 2.9633-24.531 3.625-0.74206-9e-3 -1.5266 0.0266-2.4062 0.125-0.02198 2e-3 -0.04044-3e-3 -0.0625 0-0.12041 0-0.25328 2e-3 -0.375 0-0.81417-0.0876-1.5548-0.13094-2.25-0.125-7.4853-0.65071-16.809-3.6698-24.625-3.625z" fill="#a13138" filter="url(#g)"/>
   <path d="m55.765 942.21c18.571-2.5 18.398 18.831 18.398 24.189 0 5.3571-24.232 10.375-30.303 4.3037-6.0714-6.0714-0.95196-26.706 11.905-28.492z" fill="url(#e)"/>
   <path d="m-46.54 969.47c0.14885 8.3342 1.6157 16.67 4.4375 24.531 6.4616 18.191 23.242 32.503 43.031 36.781 5.5724 1.0075 10.817 1.4753 15.719 1.4063 4.9014 0.069 10.115-0.3988 15.688-1.4063 19.789-4.2784 36.632-18.59 43.094-36.781 2.7936-7.7823 4.2634-16.031 4.4375-24.281-57.908 20.354-95.501 13.718-126.41-0.25z" fill="url(#d)"/>
  </g>
  <path d="m503.09 339.65-2.1875 2.1875c-15.644 15.466-41.005 38.651-62.406 64.594-21.402 25.943-39.06 54.646-38.688 81.844l0.0312 2.5 5-0.0625-0.0312-2.5c-0.34172-24.945 16.464-53.019 37.562-78.594 20.278-24.58 43.959-46.452 59.812-62 10.396 16.519 24.936 42.525 36.969 68.031 6.3125 13.381 11.899 26.545 15.781 37.938 3.882 11.392 5.9912 21.118 5.5938 27l-0.15625 2.5 4.9688 0.34375 0.1875-2.5c0.49545-7.3326-1.8686-17.272-5.8438-28.938-3.9751-11.666-9.6339-24.974-16-38.469-12.732-26.989-28.285-54.687-38.906-71.25l-1.6875-2.625z" color="#000000" fill="#008000" style="block-progression:tb;text-indent:0;text-transform:none"/>
  <path d="m502.76 342.46-0.625 0.625c-15.695 15.516-40.987 38.656-62.281 64.469-21.298 25.817-39.022 56.293-38.66 82.708v0.71875h1.4375v-0.71875c-0.35285-25.758 17.138-56.061 38.348-81.77 20.38-24.704 44.12-46.613 59.938-62.125 0.74965-0.74825 2.1874-0.58487 2.75 0.3125 10.446 16.598 24.993 42.635 37.062 68.219 6.3317 13.421 11.96 26.636 15.875 38.125 3.9181 11.498 5.9959 22.581 5.5612 29.013l-0.0312 0.75 1.4375 0.0937 0.0625-0.75h-0.0312c0.46267-6.8475-1.6785-17.998-5.6237-29.576-3.9423-11.569-9.5591-24.827-15.906-38.281-12.694-26.908-28.251-54.563-38.812-71.031l-0.5-0.78125z" color="#000000" fill="#0fc60f" filter="url(#k)" style="block-progression:tb;text-indent:0;text-transform:none"/>
  <path d="m503.2 339.83s-5.1116-12.076-7.2545-12.433c-2.1429-0.35714-6.7857 2.8571-5.7143 5s8.9286 11.429 8.9286 11.429z" fill="url(#j)"/>
  <path d="m522.42 344.11c-0.40425 0.58083-0.68176 1.3873-0.0313 1.8127 6.1456 22.712 18.578 47.864 50.375 70.844 30.939 22.36 62.882 15.136 89.937 5.375 0.63781-0.34436 1.257-0.67588 1.9062-1.0312-50.003-10.859-101.02-39.624-142.19-77z" fill="url(#i)"/>
  <g transform="matrix(1.1786 -.068766 .077645 1.3308 246.39 -683.62)">
   <path d="m210.77 804.49 50.351-0.88335c-9.1868 1.59-2.4734-8.3035-2.4734-8.3035s-24.91-7.4201-56.181 2.4734c2.2967 2.2967 8.3035 6.7134 8.3035 6.7134z" fill="url(#a)"/>
   <path d="m202.68 797.54c21.607-6.6071 47.451-5.8216 56.177-2.4687" fill="none" stroke="#0c650c" stroke-linecap="round" stroke-width=".5"/>
  </g>
  <g transform="matrix(1.08 -.063459 .071147 1.2281 256.59 -613.74)">
   <path d="m210.77 804.49 50.351-0.88335c-9.1868 1.59-2.4734-8.3035-2.4734-8.3035s-24.378-7.5961-55.649 2.2974c2.2967 2.2967 7.7714 6.8894 7.7714 6.8894z" fill="url(#a)"/>
   <path d="m203.1 797.36c21.607-6.6071 47.035-5.6397 55.76-2.2868" fill="none" stroke="#0c650c" stroke-linecap="round" stroke-width=".5"/>
  </g>
  <g transform="matrix(1.1517 -.059479 .075873 1.1511 268.15 -530.88)">
   <path d="m211.27 804.25 49.847-0.63808c-9.1868 1.59-2.4734-8.3035-2.4734-8.3035s-24.629-7.5684-55.9 2.3251c2.2967 2.2967 8.5268 6.6165 8.5268 6.6165z" fill="url(#a)"/>
   <path d="m202.68 797.54c21.607-6.6071 47.451-5.8216 56.177-2.4687" fill="none" stroke="#0c650c" stroke-linecap="round" stroke-width=".5"/>
  </g>
  <g transform="matrix(1.1142 -.0014721 .017408 1.0524 337.95 -453.26)">
   <path d="m212.08 802.83 49.035 0.7767c-9.1868 1.59-2.4734-8.3035-2.4734-8.3035s-24.174-7.8939-55.445 1.9996c2.5274 1.8816 8.8826 5.5272 8.8826 5.5272z" fill="url(#a)"/>
   <path d="m203.3 797.24c21.607-6.6071 46.83-5.5257 55.555-2.1728" fill="none" stroke="#0c650c" stroke-linecap="round" stroke-width=".5"/>
  </g>
  <g transform="matrix(1.1142 -.0014721 .017408 1.0524 358.11 -442.13)">
   <path d="m212.68 802.57s35.181 8.0199 37.742 4.1737c2.5616-3.8462-1.2035-7.0553-1.2035-7.0553s-16.281-10.762-46.016-2.231c2.5298 1.7332 9.4778 5.1126 9.4778 5.1126z" fill="url(#a)"/>
   <path d="m203.3 797.24c21.607-6.6071 37.121-1.2659 45.846 2.087" fill="none" stroke="#0c650c" stroke-linecap="round" stroke-width=".5"/>
  </g>
  <g transform="matrix(1.1081 .11663 -.094234 1.0483 467.81 -453.5)">
   <path d="m218.6 802.92s14.229 5.3793 16.79 1.5331c2.5616-3.8462-0.22249-4.6862-3.0066-5.7592s-6.6176-4-26.571-0.43397c2.5298 1.7332 12.788 4.6601 12.788 4.6601z" fill="url(#h)"/>
   <path d="m206 798.04c10.317-1.5592 17.41-2.4435 26.336 0.46573" fill="none" stroke="#0c650c" stroke-linecap="round" stroke-width=".5"/>
  </g>
 </g>
</svg>
