<?xml version="1.0" encoding="UTF-8"?>
<svg viewBox="0 0 1062.99 708.661" xmlns="http://www.w3.org/2000/svg">
 <path d="m0 0h1063v708.66h-1063z" fill="#f30" fill-rule="evenodd"/>
 <path transform="matrix(6.2061 0 0 6.2061 -1415.4 -3060.2)" d="m266.186,534.45-10.408-7.432-10.357,7.505 3.852-12.196-10.338-7.531 12.79-.105 3.967-12.159 4.052,12.131 12.79.016-10.285,7.602 3.937,12.169z" fill="#ff0" fill-rule="evenodd"/>
 <path transform="matrix(1.63 .55554 -.55554 1.63 253.84 -925.67)" d="m266.186,534.45-10.408-7.432-10.357,7.505 3.852-12.196-10.338-7.531 12.79-.105 3.967-12.159 4.052,12.131 12.79.016-10.285,7.602 3.937,12.169z" fill="#ff0" fill-rule="evenodd"/>
 <path transform="matrix(1.6793 .38143 -.38143 1.6793 95.09 -579.25)" d="m266.186,534.45-10.408-7.432-10.357,7.505 3.852-12.196-10.338-7.531 12.79-.105 3.967-12.159 4.052,12.131 12.79.016-10.285,7.602 3.937,12.169z" fill="#ff0" fill-rule="evenodd"/>
 <path transform="matrix(1.4007 1.0019 -1.0019 1.4007 603.91 -806.68)" d="m266.186,534.45-10.408-7.432-10.357,7.505 3.852-12.196-10.338-7.531 12.79-.105 3.967-12.159 4.052,12.131 12.79.016-10.285,7.602 3.937,12.169z" fill="#ff0" fill-rule="evenodd"/>
 <path transform="matrix(1.7221 -.01214 .01214 1.7221 -26.659 -602.32)" d="m266.186,534.45-10.408-7.432-10.357,7.505 3.852-12.196-10.338-7.531 12.79-.105 3.967-12.159 4.052,12.131 12.79.016-10.285,7.602 3.937,12.169z" fill="#ff0" fill-rule="evenodd"/>
</svg>
