<?xml version="1.0" encoding="utf-8"?>
<!DOCTYPE svg PUBLIC "-//W3C//DTD SVG 1.1//EN" "http://www.w3.org/Graphics/SVG/1.1/DTD/svg11.dtd">
<svg version="1.1"
	 id="svg2" xmlns:rdf="http://www.w3.org/1999/02/22-rdf-syntax-ns#" xmlns:svg="http://www.w3.org/2000/svg" xmlns:dc="http://purl.org/dc/elements/1.1/" xmlns:cc="http://creativecommons.org/ns#"
	 xmlns="http://www.w3.org/2000/svg" xmlns:xlink="http://www.w3.org/1999/xlink" x="0px" y="0px" viewBox="0 0 2246.9375 2000"
	 enable-background="new 0 0 2246.9375 2000" xml:space="preserve">
<g id="g10" transform="matrix(1.25,0,0,-1.25,0,2000)">
	<g id="g12">
		<g>
			<defs>
				<rect id="SVGID_1_" x="-224.6942" y="-200" width="2246.9424" height="2000"/>
			</defs>
			<clipPath id="SVGID_2_">
				<use xlink:href="#SVGID_1_"  overflow="visible"/>
			</clipPath>
			<g id="g14" clip-path="url(#SVGID_2_)">
				<g id="g20" transform="translate(43.9474,0.8547)">
					<path id="path22" d="M0,0l930.845-0.19c2.249,4.464,3.356,9.467,5.129,14.026c1.172,3.072,3.768,5.573,5.225,8.676
						c1.963,4.211,6.871,6.934,10.227,9.689c1.266,1.013,3.483,3.578,4.591,1.456c0.823-1.551,3.293-5.066,3.293-6.617
						c-13.837,0-21.119-16.306-21.119-27.895l814.232,0.538c0.823,1.488,1.394,3.135,0.887,4.94
						c0.5699,1.9,0.2209,4.179-0.222,6.016h-0.158c-0.064,0.158-0.032,0-0.095,0.158c-6.681,0-14.85,9.277-16.37,15.42
						c-3.926,0.981-5.7939-3.736-9.593,1.805c-1.837,2.659-4.085,4.179-6.46,5.889c-0.728,0.538-4.021,1.931-4.021,2.786
						c0,3.831,5.541,2.66,0.5699,8.042c-3.514,3.832-5.509-5.097-9.499,0.349c-4.718,4.876-15.0081,5.826-19.8199,10.638
						c-2.249,2.248-3.23,8.581-4.496,11.747c-1.7419,4.243-3.99,0.76-7.3781,3.61c-3.7679,3.166-10.005,7.345-10.6379,12.443
						c-0.444,3.515-0.5389,6.522-1.9,9.784c-1.7419,4.211-7.4091,5.984-9.91,10.163c-4.022,8.043-2.724,4.021-8.8979,4.021
						c-15.546,0-37.298,4.496-48.2531,16.307c-4.813,5.192-5.035,12.475-8.011,18.459c-4.306,8.612-14.2159-0.475-15.071,12.475
						c-0.38,3.863,0.095,13.425-1.647,16.496l-11.208,19.504c-1.52,2.628-2.248,6.807-1.488,10.005
						c1.0129,4.275-5.129,7.979-3.262,13.393c0,3.452,1.014,7.156-0.76,10.322c-2.089,3.768-6.554,5.415-7.4399,10.164
						c-1.457,7.758,6.333,10.575,3.356,18.459c-1.3929,3.673-1.52,6.966-0.728,10.734c0.38,1.805,0.285,3.705-0.412,5.414
						c-1.171,2.945-0.38,6.649,0.475,9.594c0.5699,3.799,0.222,6.807-0.6331,10.259c-5.7939,0-2.058,11.272-2.058,15.103
						c0,12.57,11.335,3.229,18.111,1.868c3.641-0.729,10.1639-1.362,13.425,0.411c6.681,3.673,3.198,0.317,8.106-0.886
						c0.094-0.444,0.411-0.76,0.474-1.235c1.14-0.285,1.457-2.818,3.04-2.121c1.488,0.633-0.6021,3.704-1.14,3.831
						c-0.031,0.221,0.032,0.221-0.158,0.253c-2.28,11.557-23.462,13.71-23.7469,14.85c-1.14,0.221-2.28,12.665-6.9659,15.578
						c-4.021,2.501-4.559,0.57-8.105,4.781c-2.027,2.374-6.745-1.013-9.7531,3.768c-0.443,4.116-5.952,15.482-8.6121,19.092
						c-2.343,3.23-7.061,10.86-10.48,12.159c-7.093,2.691-13.489,8.453-16.623,15.166c-1.583,3.419-4.496,4.939-6.301,7.884
						c-0.791,1.298-2.6591,0.791-3.673,2.28c-1.361,1.963,2.407,4.4,3.0081,6.237c0.381,4.306-6.6801,11.779-9.087,15.42
						c-1.171,1.773,0.95,2.881-1.3929,5.509c-1.235,1.393,0.222,7.915-1.14,11.145c-2.343,5.573-11.556,8.169-13.0129,13.71
						c-0.792,3.008,0.222,6.523-0.506,9.594c-0.9189,3.894-5.067,6.237-7.03,9.752c0,2.818,0.824,6.744-0.095,9.277
						c-0.506,1.425-2.564,2.976-3.356,4.591l-11.62,23.779c-2.501,5.097-6.269,4.337-6.554,11.145
						c-0.092,2.473-1.73,4.353-3.402,6.454L0.183,528.474L0,0z"/>
				</g>
				<g id="g24" transform="translate(44.1307,529.3284)">
					<path id="path26" fill="#FFFFFF" d="M0,0h1440.509c-1.795,2.256-3.6281,4.767-3.6281,8.554
						c-1.203,4.211-3.134,4.844-5.509,8.042c-3.546,4.781-1.519,9.404-4.749,15.008c-2.47,4.338-4.559,4.813-4.813,10.259
						c-0.38,8.391-7.757,8.897-9.182,16.338c-1.235,6.427-4.338,13.805-9.087,19.092c-3.04,2.628-4.559,3.895-6.396,7.789
						c-1.9,4.053-7.504,4.56-8.739,10.101c-1.076,4.844-1.3929,7.725-3.704,12.38c-3.262,6.554-9.467,5.952-10.481,14.596
						c-0.855,7.441-5.351,10.86-8.105,17.478c-1.932,2.881-3.7679,4.496-5.225,7.631c-2.374,4.971-1.709,8.073-5.572,12.791
						c-2.723,3.293,0.506,6.713-1.488,10.259c-1.552,2.754-3.198,2.818-4.75,4.749c-1.266,1.583-1.0129,3.99-2.6281,5.573
						c-4.369,4.401-11.082,14.184-9.8149,20.992c-1.172,5.731-4.749,10.005-7.219,14.944c-1.299,2.629-6.364,3.61-6.364,6.808
						c0,5.288-2.9771,1.963-5.161,3.451c-0.665,0.412,0.38,6.396,0.728,7.789c1.963,7.662,3.8311-0.823,6.1429-1.646
						c1.994-0.729,0.728,6.174,0.728,7.694c0,6.015-9.246,2.089-6.871,6.902c0.9821,1.963,1.583,6.839,3.198,7.947
						c1.203,0.855,3.926-0.158,5.7939-0.158v0.158c-3.989,1.013-1.298,6.745-1.298,8.961c0,1.678-2.406-0.443-3.103-0.19
						c-2.248,0.886-2.533,2.311-4.021,4.116c-0.791,1.868-4.021,10.924-6.301,10.924c-0.507,2.026,2.1851,1.804-0.5699,3.831
						c-4.337,3.198,1.963,3.198,0,6.807c-2.501,4.559-8.897,5.541-11.145,9.53c-0.697,1.235,0.981,5.51,0.981,7.378
						c0,1.235-1.0439,5.984,0.5699,6.396c0.1899,0.664,1.394,0.886,1.488,1.488c0.824,0.126,0.792,7.061-2.311,8.675
						c-2.058,1.108-4.116,3.578-5.889,4.18c-4.2111,1.488-6.048,1.425-8.771,5.351c-0.918,2.279-6.934,3.989-6.934,6.807
						c0,1.456,1.298,2.153,1.298,3.768c0,6.522-3.957,7.694-7.535,11.557c-3.0081,3.261,0.443,7.092-3.7679,10.005
						c-1.71,1.172-8.011,3.546-7.694,5.668c0.95,6.174,1.71,8.928-3.293,13.361c-3.04,2.691-8.644,8.169,0.095,8.961
						c1.0129-0.887,4.401-6.174,6.395-4.623c2.755,2.185-8.042,8.296-5.825,10.67c1.266,1.393,2.248,4.211,2.121,6.174
						c-0.158,2.692-7.757-0.665-7.757,5.731c0,1.552-2.09,1.488-2.787,2.628c-3.324,5.351,3.705,3.863,6.1429,2.628
						c3.293-1.71,5.541-2.121,6.871-5.921c0.918-2.659,1.108-3.989,4.337-3.356c2.058,0.38-0.791,4.116-1.804,5.256
						c-3.167,3.546,0.126,6.617-1.647,9.182c-1.868,2.723-2.311,3.863-3.578,7.219c-1.108,2.882-4.686,8.359-6.649,10.734
						c-1.171,1.425-3.324,5.192-4.844,5.921c-3.4189,1.646-5.889,2.153-8.9919,5.224c-3.452,1.108-7.757,2.85-10.639,5.098
						c-2.501,1.963-0.063,3.483-1.3929,5.667c-2.691,4.338-8.549,8.708-13.203,9.847c0,4.18,2.026,5.13-3.103,7.124
						c-2.5649,1.014-1.995,4.465-5.319,5.256c-3.356,0.792-2.9449,8.549-5.826,10.259c-5.066,2.976-5.573,5.762-5.573,11.968
						c-1.488,3.515-4.433,4.021-6.934,6.143c-3.261,2.723-4.179,9.657-8.042,13.551c-4.621,4.621-7.923,11.086-13.374,14.498H0.187
						L0,0z"/>
				</g>
				<g id="g28" transform="translate(44.1307,529.3284)">
					<path id="path30" fill="none" stroke="#000000" stroke-miterlimit="10" d="M0,0h1440.509
						c-1.795,2.256-3.6281,4.767-3.6281,8.554c-1.203,4.211-3.134,4.844-5.509,8.042c-3.546,4.781-1.519,9.404-4.749,15.008
						c-2.47,4.338-4.559,4.813-4.813,10.259c-0.38,8.391-7.757,8.897-9.182,16.338c-1.235,6.427-4.338,13.805-9.087,19.092
						c-3.04,2.628-4.559,3.895-6.396,7.789c-1.9,4.053-7.504,4.56-8.739,10.101c-1.076,4.844-1.3929,7.725-3.704,12.38
						c-3.262,6.554-9.467,5.952-10.481,14.596c-0.855,7.441-5.351,10.86-8.105,17.478c-1.932,2.881-3.7679,4.496-5.225,7.631
						c-2.374,4.971-1.709,8.073-5.572,12.791c-2.723,3.293,0.506,6.713-1.488,10.259c-1.552,2.754-3.198,2.818-4.75,4.749
						c-1.266,1.583-1.0129,3.99-2.6281,5.573c-4.369,4.401-11.082,14.184-9.8149,20.992c-1.172,5.731-4.749,10.005-7.219,14.944
						c-1.299,2.629-6.364,3.61-6.364,6.808c0,5.288-2.9771,1.963-5.161,3.451c-0.665,0.412,0.38,6.396,0.728,7.789
						c1.963,7.662,3.8311-0.823,6.1429-1.646c1.994-0.729,0.728,6.174,0.728,7.694c0,6.015-9.246,2.089-6.871,6.902
						c0.9821,1.963,1.583,6.839,3.198,7.947c1.203,0.855,3.926-0.158,5.7939-0.158v0.158c-3.989,1.013-1.298,6.745-1.298,8.961
						c0,1.678-2.406-0.443-3.103-0.19c-2.248,0.886-2.533,2.311-4.021,4.116c-0.791,1.868-4.021,10.924-6.301,10.924
						c-0.507,2.026,2.1851,1.804-0.5699,3.831c-4.337,3.198,1.963,3.198,0,6.807c-2.501,4.559-8.897,5.541-11.145,9.53
						c-0.697,1.235,0.981,5.51,0.981,7.378c0,1.235-1.0439,5.984,0.5699,6.396c0.1899,0.664,1.394,0.886,1.488,1.488
						c0.824,0.126,0.792,7.061-2.311,8.675c-2.058,1.108-4.116,3.578-5.889,4.18c-4.2111,1.488-6.048,1.425-8.771,5.351
						c-0.918,2.279-6.934,3.989-6.934,6.807c0,1.456,1.298,2.153,1.298,3.768c0,6.522-3.957,7.694-7.535,11.557
						c-3.0081,3.261,0.443,7.092-3.7679,10.005c-1.71,1.172-8.011,3.546-7.694,5.668c0.95,6.174,1.71,8.928-3.293,13.361
						c-3.04,2.691-8.644,8.169,0.095,8.961c1.0129-0.887,4.401-6.174,6.395-4.623c2.755,2.185-8.042,8.296-5.825,10.67
						c1.266,1.393,2.248,4.211,2.121,6.174c-0.158,2.692-7.757-0.665-7.757,5.731c0,1.552-2.09,1.488-2.787,2.628
						c-3.324,5.351,3.705,3.863,6.1429,2.628c3.293-1.71,5.541-2.121,6.871-5.921c0.918-2.659,1.108-3.989,4.337-3.356
						c2.058,0.38-0.791,4.116-1.804,5.256c-3.167,3.546,0.126,6.617-1.647,9.182c-1.868,2.723-2.311,3.863-3.578,7.219
						c-1.108,2.882-4.686,8.359-6.649,10.734c-1.171,1.425-3.324,5.192-4.844,5.921c-3.4189,1.646-5.889,2.153-8.9919,5.224
						c-3.452,1.108-7.757,2.85-10.639,5.098c-2.501,1.963-0.063,3.483-1.3929,5.667c-2.691,4.338-8.549,8.708-13.203,9.847
						c0,4.18,2.026,5.13-3.103,7.124c-2.5649,1.014-1.995,4.465-5.319,5.256c-3.356,0.792-2.9449,8.549-5.826,10.259
						c-5.066,2.976-5.573,5.762-5.573,11.968c-1.488,3.515-4.433,4.021-6.934,6.143c-3.261,2.723-4.179,9.657-8.042,13.551
						c-4.621,4.621-7.923,11.086-13.374,14.498H0.187L0,0z"/>
				</g>
				<g id="g32" transform="translate(1266.0237,1061.928)">
					<path id="path34" fill="#FFFFFF" stroke="#000000" stroke-miterlimit="10" d="M0,0c2.28-3.926,7.187-4.844,9.847-8.201
						c2.09-2.628,2.279-6.522,4.338-9.435c6.807-9.657,19.694-11.019,25.551-19.852c2.312-2.09,9.088-10.164,9.088-13.109
						c0-6.427,0.791-4.686,5.731-7.472c1.424-0.792,1.519-5.288,2.216-6.966c1.045-2.533,2.184-3.863,4.084-5.762
						c2.66-2.66,2.343-6.745,5.003-9.246l10.48-10.005c3.894-2.913,7.092-6.016,11.969-7.568c4.116-1.298,4.622-3.799,7.693-5.984
						c2.28-1.615,5.225-0.475,7.283-2.786c7.282-8.264,10.86-15.325,23.842-15.325c9.657,0,6.617-9.372,14.976-9.372l0.064,0.095
						c0,2.976-1.995,6.776-0.159,9.277c2.311,3.103,3.736,6.301,4.686,10.164c8.581,0,4.496,8.58,8.328,9.34
						c0.126,0.444,1.804,0.507,2.311,1.077c2.248,2.469,2.881,5.762,4.907,7.789c4.402,4.401,7.6,3.926,8.043,12.475
						c0.602,3.356,0.031,5.002-2.154,7.44c-0.981,1.109,2.629,4.908,2.787,6.586c0.506,5.541,1.171,7.156-1.646,12.222
						c-2.819,5.098-4.971,13.33-3.926,19.346c0.538,3.039,0.538,6.617,3.198,8.453c2.627,1.837,2.311,8.581,3.514,11.652
						c2.248,1.932,1.963,5.573,4.749,7.441c1.425,0.95,3.989,0.728,4.116,3.039c0.21,4.49-0.35,7.832,0.843,12.061H-6.417
						C-4.036,4.971-1.478,2.561,0,0"/>
				</g>
				<g id="g36" transform="translate(1499.5979,1252.7892)">
					<path id="path38" fill="#CE1126" d="M0,0c0,3.198-3.135,6.649-4.116,9.91c0,2.945,0.348,6.713-0.57,9.436
						c-0.729,2.28-2.723,4.116-3.261,6.491c-1.299,5.572-1.837,11.018-4.908,15.989c-1.678,2.692-1.52,7.093-2.945,10.259
						l-19.757,58.48c-2.502,8.011-4.274,12.602-10.892,17.32c-5.921,4.211-2.849,9.689-1.203,15.894
						c0.792,3.103-5.794,5.731-5.985,8.613c-0.474,6.49-0.189,12.823-1.962,19.124c-0.317,6.332-5.257,14.786-8.106,20.485
						c-2.881,5.731-4.908,11.589-8.106,17.003l-24.38,79.821c-4.971-4.623-10.322-8.897-16.337-12.665
						c-5.51-3.451-14.66-10.48-21.056-11.145l-38.882-11.81c-7.092-2.153-20.675-4.939-27.673-2.122
						c-3.419,1.362-7.408,4.402-11.145,4.402c-5.667-3.768-12.443-3.99-18.839-6.301l-15.325-4.75
						c-3.704-1.171-5.603-6.395-9.561-5.097c0,2.216,2.786,5.699-0.761,7.124c-6.617,2.723-2.691,5.414-2.691,9.372
						c-0.158,0.095-0.063,0.253-0.412,0.317c-0.379,1.583-2.627,3.008-2.627,5.414c-3.325,0.475-6.903-3.198-10.132-4.18
						c-4.497-1.361-3.99-3.894-7.283-6.554c-2.185-1.773-4.338-1.393-6.807-2.153c-6.681-2.026-2.628-0.253-6.649,0.76
						c-0.285,1.235-3.515-2.47-5.161-2.786c-2.596-0.539-4.211-1.235-6.048-3.388c-2.501-2.913-10.036-6.491-13.836-5.731
						c-0.539,1.045-0.158,2.153-0.158,3.293c-1.14,0.665-7.093,0.222-8.455-0.158c-7.947-0.475-12.855,2.723-19.313,6.965
						c-4.782,3.483-9.214,7.631-11.621,13.045c-1.994,4.433-9.055,8.391-13.108,10.734c-3.704,2.153-4.148,5.572-6.301,7.124
						c-0.982,0.728-5.129,0.285-6.554,0.412c-3.008,0.316-5.351,0.696-8.2,1.646c-6.744,2.248-12.317,10.132-18.84,11.557
						c-5.889,2.374-11.651,9.403-15.292,14.438c-3.262,4.496-2.882,9.34-5.573,13.71c-4.021,0.506-11.905,1.994-15.894,0.665
						c-5.003-1.71-8.803-6.776-14.566-8.391c-14.976-4.148-24.316-6.269-39.008-0.063c-4.781,1.963-9.498,5.762-13.995,8.454
						c-3.926,2.343-8.137,3.672-12.443,5.224c-7.757,2.85-16.274,6.522-24.475,7.726c-5.921,0.854-11.367,0.126-17.129,0.475
						c-22.29-6.365-42.523-17.763-65.415-21.816c-6.649-1.14-13.203,0-19.346-0.823c-4.147,0.696-4.084,4.907-8.833,2.723
						c-2.819-1.299-3.072-5.763-4.75-8.201c-3.799-5.478-3.134-13.836-8.612-19.029c-7.409-7.029-32.422-17.984-32.422,0.475
						l-0.095,0.095c-2.818,0-7.156-6.649-9.974-8.296c-2.28-3.577-8.485-7.884-11.968-10.638c-5.288-4.243-4.275,1.583-6.776-1.172
						l-3.926-4.274c-0.507-0.539-0.887-0.697,0.063-0.602c1.488,0.19,2.723,0.95,4.085,0.95l0.095-0.095
						c0-1.931-3.198-3.293-4.592-4.179c-1.171-0.729-6.395-5.636-6.807-4.908c-0.696,1.267-0.158,2.216-2.121,2.216
						c-0.95-2.881-9.847-10.1-12.855-11.493c-8.074-3.768-16.528-12.824-23.652-18.523c-19.757-12.253-35.588-21.467-58.639-26.406
						c-13.488-2.913-33.689,3.831-42.428,14.596c-2.089,2.691-1.488,6.681-2.849,8.106c-2.027,2.089-6.839-0.254-8.771,1.33
						c-2.659,2.153-6.491,7.947-10.322,8.105c-4.053,0.19-10.67-2.121-13.836,1.235c-2.248,2.375-6.396,7.567-10.322,6.649
						c-7.314-1.741-11.494,5.984-18.84,5.984c-3.894,0-8.738-3.166-12.285-3.039l-15.958,0.57c-6.205,0.221-9.91,5.161-17.541,3.198
						c-8.358-1.109-27.736-3.768-29.952,7.884c-1.267,6.459-4.085,9.657-4.5909,16.242c-0.507,6.428-4.37-1.361-5.4139-2.058
						c-4.465-2.976-14.059-5.16-19.568-6.396c-6.301-1.424-6.5861,2.122-11.968,2.375c-2.438,0.127-5.3831-0.253-7.6949,0.317
						c-2.374,0.633-2.248,2.343-5.0649,2.628l-9.7531,0.981c-5.825,0.38-9.91,4.212-11.145,9.436
						c-0.791,3.419-5.731,8.612-5.731,10.829c0,1.709,2.375,5.984-0.063,6.174c-13.995,1.044-30.2369-4.813-42.111,4.907
						c-3.261,2.691-5.319-0.063-9.087,4.18c-3.926,4.464-6.491,3.609-12.6021,3.039c-11.62-0.728-14.375,0.38-22.449,6.808
						c-3.197,2.533-20.454,0.76-25.614,1.963c-1.9,0.443-3.072,2.311-5.0031,2.311c-2.153,0-3.736-2.469-6.301-2.469
						c-2.881,0-5.541,1.677-8.296,2.627c-4.496,1.552-8.549,1.615-13.329,1.805c-6.2061,0.222-10.069,5.067-15.642,5.826
						l-39.071,10.322c-12.444,3.293-19.188,2.248-30.776-1.646c-5.446-1.805-13.33-6.618-18.9351-6.301
						c-18.839-6.586-42.87-14.407-62.723-8.296c-3.863,1.204-7.662,4.75-10.005,5.509c0,2.819,3.8311,1.362,1.172,5.89
						c-1.71,2.913-1.9,6.047-2.533,9.372c-0.317,1.583-0.697,3.641-1.172,5.826l-3.8311-1.646l-6.871-10.259l-0.601-9.024
						l-31.6-24.918l0.665-11.082l3.61-5.098l-1.995-25.425c1.52-8.137,7.0291-15.229,9.119-23.113l3.166-12.064
						c1.235-4.623,4.085-8.042,4.844-12.886c1.109-5.193,4.085-11.557,4.085-16.655c0-3.831-0.285-6.554-2.375-9.657
						c-3.261-4.939-1.551-13.615-5.066-19.282c-1.3929-2.248-3.673-5.193-2.469-8.043c1.583-3.578-1.14-6.902-1.394-10.575
						c-1.646-6.301-6.11-8.359-9.245-13.868c-2.723-4.749-3.7679-7.694-8.422-10.924c-7.3459-5.066-4.496-7.757-7.884-14.596
						c-3.483-7.029-7.536-12.412-9.879-20.264c0.127-1.647,0.507-2.628,1.71-3.768c0.728-0.696,1.266-1.361,2.121-1.868
						c2.502-1.488,3.736-4.591,4.908-6.966l8.517-30.111l-0.063-17.794l11.778-28.212c1.457-3.641,0.032-6.554-2.469-9.277
						c-4.338-4.781-3.452-9.372-1.552-15.261c0.696-2.121,2.786-5.224,4.116-7.124c1.932-2.818,2.786-6.079,4.5909-9.024
						l10.702-24.285l-0.041-117.629h1167.804c-1.348,0.843-2.821,1.508-4.484,1.903c-6.934,1.646-3.673,1.868-4.18,8.264
						c-0.475,6.142-2.659,11.177-4.084,17.161c-1.805,7.567-1.868,11.747-9.594,13.773c-7.092,1.868-2.596,6.269-8.422,9.34
						c-5.288,2.818-3.673,5.035-5.003,10.354c-1.235,4.939-6.681,8.454-7.187,13.108c-0.19,1.678,1.52,1.964,0.887,4.021
						c-0.254,0.887-1.869,5.89-1.14,6.333c2.374,1.33,3.989,3.989,4.907,6.459c0.159,6.079-1.329,10.955-3.451,16.655
						c-2.818,7.662-3.609,16.179-5.952,24.19c-1.014,3.419-3.262,6.396-5.731,8.77l-11.874,11.494
						c-3.419,5.477-23.366,16.496-18.839,25.013c1.076,2.09,3.356,3.261,3.356,5.573c0,2.659-1.235,4.401-1.551,6.807
						c-0.19,1.267,4.179,7.156,4.971,8.866c2.437,5.319,5.509,8.865,9.498,13.14c1.837,1.583,6.301,6.205,7.061,8.517
						c0.665,2.058-9.024,5.287-3.451,11.81c2.723,3.198,6.586,4.939,10.828,4.939l0.064-0.095c0-1.836-1.552-2.596-0.253-4.591
						c2.437-3.736,6.142-6.744,9.182-10.005c3.514-3.768,1.013-3.863-0.475-6.649c-1.045-1.9,2.279-9.467,4.179-10.734
						c3.103-2.121,10.1-7.092,5.225-11.493c-1.932-3.483-1.457-7.061-0.823-10.829c0.284-1.741,2.28-4.053,0.348-5.319
						c-4.053-2.66,0.031-2.121,2.279-3.546c4.053-2.533,1.488-7.314,3.04-10.987c0.57-1.362,2.185-6.174,1.14-7.283
						c-5.035-5.414,2.121-5.572,5.731-6.807c4.939-1.742,7.726-7.694,6.617-12.475c1.457-5.193,2.122-6.396,6.238-9.372
						c1.52-1.077,5.541-3.641,4.179-5.985c-1.868-3.166,5.32-11.62,8.676-11.62c4.243,0,3.261-4.844,6.554-7.219
						c3.736-2.723,11.304-7.915,13.583-11.81c1.488-2.564-2.343-2.469,1.33-5.921c1.488-1.393,3.23-1.044,4.971-1.646
						c1.836-0.602,2.976-2.628,4.274-3.926c1.331-2.185,5.32-3.135,4.085-5.256c-1.013-1.742-0.602-3.546-0.982-5.414
						c-0.284-1.52,2.185-3.167,2.312-4.433c0.095-1.33-1.584-6.808-2.217-8.359c-1.551-3.926,4.781-12.57,7.378-15.673
						c4.084-4.908-2.723-12.222-4.021-17.794c-0.792-4.623,3.293-5.985,4.021-9.689c0.538-2.786-1.077-5.193,0.886-7.789
						c0.966-1.269,2.159-2.519,3.399-3.771h188.179c0.069,0.244,0.121,0.48,0.202,0.731c1.646,5.098,8.707,11.969,7.947,16.908
						c-0.601,3.926,3.958,6.047,5.51,9.34c2.026,4.402,1.203,8.391,1.203,13.204c1.013,2.659-0.602,7.282,1.33,9.214
						c3.926,3.926,2.469,9.815,1.551,14.754c-1.71,8.961,9.246,4.686,6.048,13.298c-2.945,7.916-0.571,19.631,4.337,26.249
						c6.111,2.184,3.642,16.654,4.528,22.448c0.507,3.388,2.47,4.053,4.56,6.174c2.184,2.154,0.379,6.301,3.704,6.966
						c2.85,0.57,2.787,4.243,3.831,6.554c1.299,2.818,7.695,9.816,10.322,11.146c0.38,0.19,0.729,0.443,1.108,0.728
						c-2.248,3.514-4.401,9.309-5.287,13.393C-1.931-7.567,0-4.623,0,0"/>
				</g>
				<g id="g40" transform="translate(715.7316,792.657)">
					<path id="path42" fill="#FFFFFF" d="M0,0l186.733-173.348l-13.294,314.829c-1.954,47.714-43.417,36.767-73.537,19.555
						C69.39,141.481,34.58,141.481-2.195,154.392c-36.766-12.911-71.578-12.911-102.091,6.644
						c-30.117,17.211-71.576,28.16-73.534-19.555l-13.302-314.829L0,0z"/>
				</g>
				<g id="g44" transform="translate(715.7316,792.657)">
					<path id="path46" fill="none" stroke="#C09300" stroke-width="3.463" stroke-linejoin="round" d="M0,0l186.733-173.348
						l-13.294,314.829c-1.954,47.714-43.417,36.767-73.537,19.555C69.39,141.481,34.58,141.481-2.195,154.392
						c-36.766-12.911-71.578-12.911-102.091,6.644c-30.117,17.211-71.576,28.16-73.534-19.555l-13.302-314.829L0,0L0,0z"/>
				</g>
				<g id="g48" transform="translate(559.3939,945.0958)">
					<path id="path50" fill="#C09300" d="M0,0l-12.908-306.241l-21.906-19.543l13.301,314.829C-15.256-6.652-4.301-0.002,0-0.002V0z
						"/>
				</g>
				<g id="g52" transform="translate(585.6229,923.1747)">
					<path id="path54" fill="#C09300" d="M0,0l-10.953-256.169l-21.9-22.413l13.298,295.799C-15.25,12.917-2.34,2.358,0,0.011V0z"/>
				</g>
				<g id="g56" transform="translate(609.4798,903.6257)">
					<path id="path58" fill="#C09300" d="M0,0l-8.601-213.654l-17.601-17.202l10.954,243.763C-10.954,8.604-2.348,2.346,0,0.001V0z"
						/>
				</g>
				<g id="g60" transform="translate(635.2998,892.6652)">
					<path id="path62" fill="#C09300" d="M0,0l-8.606-182.095l-17.213-13.958l8.606,202.699C-12.908,4.693-4.304,0,0,0z"/>
				</g>
				<g id="g64" transform="translate(659.1567,892.6652)">
					<path id="path66" fill="#C09300" d="M0,0l-6.264-151.749l-17.598-17.212l6.651,167.004C-12.914-1.956-1.96-1.956,0,0.001V0z"/>
				</g>
				<g id="g68" transform="translate(867.6525,945.0958)">
					<path id="path70" fill="#C09300" d="M0,0l12.908-306.241l21.906-19.543L21.513-10.955C15.256-6.652,4.301-0.002,0-0.002V0z"/>
				</g>
				<g id="g72" transform="translate(841.4235,923.1747)">
					<path id="path74" fill="#C09300" d="M0,0l10.953-256.169l21.9-22.413L19.555,17.217C15.25,12.917,2.34,2.358,0,0.011V0z"/>
				</g>
				<g id="g76" transform="translate(817.5666,903.6257)">
					<path id="path78" fill="#C09300" d="M0,0l8.601-213.654l17.601-17.202L15.248,12.907C10.954,8.604,2.348,2.346,0,0.001V0z"/>
				</g>
				<g id="g80" transform="translate(791.7466,892.6652)">
					<path id="path82" fill="#C09300" d="M0,0l8.606-182.095l17.213-13.958L17.213,6.646C12.908,4.693,4.304,0,0,0z"/>
				</g>
				<g id="g84" transform="translate(767.8897,892.6652)">
					<path id="path86" fill="#C09300" d="M0,0l6.264-151.749l17.598-17.212L17.211-1.957C12.914-1.956,1.96-1.956,0,0.001V0z"/>
				</g>
				<g id="g88" transform="translate(722.139,758.1395)">
					<path id="path90" fill="#C09300" d="M0,0l26.209-119.298l-8.609-8.603l-8.996,6.65L-6.26-14.869l6.259-106.382l-8.608-10.95
						l-8.605,10.95l6.26,106.382l-14.861-106.382l-9.004-6.65l-8.601,8.603L-17.214,0H0z"/>
				</g>
				<g id="g92" transform="translate(722.139,758.1395)">
					<path id="path94" fill="none" stroke="#C09300" stroke-width="2.928" d="M0,0l26.209-119.298l-8.609-8.603l-8.996,6.65
						L-6.26-14.869l6.259-106.382l-8.608-10.95l-8.605,10.95l6.26,106.382l-14.861-106.382l-9.004-6.65l-8.601,8.603L-17.214,0H0
						L0,0z"/>
				</g>
				<g id="g96" transform="translate(654.8489,810.5428)">
					<path id="path98" fill="#FFFFFF" d="M0,0l-52.022-184.598l71.585-10.954L50.067-56.708L0,0.001V0z"/>
				</g>
				<g id="g100" transform="translate(654.8489,810.5428)">
					<path id="path102" fill="none" stroke="#C09300" stroke-width="3.241" stroke-linejoin="round" d="M0,0l-52.022-184.598
						l71.585-10.954L50.067-56.708L0,0.001V0z"/>
				</g>
				<g id="g104" transform="translate(637.6447,747.5606)">
					<path id="path106" fill="none" stroke="#C09300" stroke-width="3.464" stroke-linejoin="round" d="M0,0l6.259-15.249
						l33.822,32.304"/>
				</g>
				<g id="g108" transform="translate(661.0653,785.7861)">
					<path id="path110" fill="none" stroke="#C09300" stroke-width="3.464" stroke-linejoin="round" d="M0,0l7.077-66.379
						L28.591-38.22"/>
				</g>
				<g id="g112" transform="translate(681.0505,736.6273)">
					<path id="path114" fill="none" stroke="#C09300" stroke-width="3.464" stroke-linejoin="round" d="M0,0l11.751-40.557"/>
				</g>
				<g id="g116" transform="translate(681.0538,638.8359)">
					<path id="path118" fill="none" stroke="#C09300" stroke-width="3.464" stroke-linejoin="round" d="M0,0l-7.607,35.984
						l-6.641,36.598l-15.925-21.564l-6.983,24.863L-59.444,53.02l11.335-41.581l15.643,25.724l8.604-26.208l16.06,24.98
						 M16.356,72.135L-7.413,36.033"/>
				</g>
				<g id="g120" transform="translate(618.0682,630.2391)">
					<path id="path122" fill="none" stroke="#C09300" stroke-width="3.464" stroke-linejoin="round" d="M0,0l14.45,20.295
						l9.414-31.237l12.908,21.9l8.608-26.212"/>
				</g>
				<g id="g124" transform="translate(772.1975,810.5428)">
					<path id="path126" fill="#FFFFFF" d="M0,0l52.022-184.598l-71.585-10.954L-50.067-56.708L0,0.001V0z"/>
				</g>
				<g id="g128" transform="translate(772.1975,810.5428)">
					<path id="path130" fill="none" stroke="#C09300" stroke-width="3.241" stroke-linejoin="round" d="M0,0l52.022-184.598
						l-71.585-10.954L-50.067-56.708L0,0.001V0z"/>
				</g>
				<g id="g132" transform="translate(789.4017,747.5606)">
					<path id="path134" fill="none" stroke="#C09300" stroke-width="3.464" stroke-linejoin="round" d="M0,0l-6.259-15.249
						l-33.822,32.304"/>
				</g>
				<g id="g136" transform="translate(765.9811,785.7861)">
					<path id="path138" fill="none" stroke="#C09300" stroke-width="3.464" stroke-linejoin="round" d="M0,0l-7.077-66.379
						L-28.591-38.22"/>
				</g>
				<g id="g140" transform="translate(745.9958,736.6273)">
					<path id="path142" fill="none" stroke="#C09300" stroke-width="3.464" stroke-linejoin="round" d="M0,0l-11.751-40.557"/>
				</g>
				<g id="g144" transform="translate(745.9926,638.8359)">
					<path id="path146" fill="none" stroke="#C09300" stroke-width="3.464" stroke-linejoin="round" d="M0,0l7.607,35.984
						l6.641,36.598l15.925-21.564l6.983,24.863L59.444,53.02L48.109,11.439L32.466,37.163l-8.604-26.208l-16.06,24.98
						 M-16.356,72.135L7.413,36.033"/>
				</g>
				<g id="g148" transform="translate(808.9781,630.2391)">
					<path id="path150" fill="none" stroke="#C09300" stroke-width="3.464" stroke-linejoin="round" d="M0,0l-14.45,20.295
						l-9.414-31.237l-12.908,21.9l-8.608-26.212"/>
				</g>
				<g id="g152" transform="translate(713.5232,543.4272)">
					<path id="path154" fill="#FFFFFF" d="M0,0c54.375,0,106.399,4.301,136.906,12.907c12.911,2.342,12.911,8.991,12.911,17.601
						c12.911,4.301,6.257,19.55,15.253,19.55c-8.996-2.352-10.949,15.252-21.902,12.901c0,15.258-15.256,17.212-28.165,12.917
						C89.185,67.267,43.419,65.31,0,65.31c-43.417,1.957-88.794,1.957-115.002,10.566c-12.907,4.295-28.156,2.341-28.156-12.917
						c-10.956,2.351-12.911-15.253-21.905-12.901c8.994,0,2.343-15.249,15.253-19.55c0-8.61,0-15.259,13.299-17.601
						C-106.397,4.301-54.367,0,0,0z"/>
				</g>
				<g id="g156" transform="translate(713.5232,543.4272)">
					<path id="path158" fill="none" stroke="#C09300" stroke-width="6.483" stroke-linecap="round" stroke-linejoin="round" d="M0,0
						c54.375,0,106.399,4.301,136.906,12.907c12.911,2.342,12.911,8.991,12.911,17.601c12.911,4.301,6.257,19.55,15.253,19.55
						c-8.996-2.352-10.949,15.252-21.902,12.901c0,15.258-15.256,17.212-28.165,12.917C89.185,67.267,43.419,65.31,0,65.31
						c-43.417,1.957-88.794,1.957-115.002,10.566c-12.907,4.295-28.156,2.341-28.156-12.917
						c-10.956,2.351-12.911-15.253-21.905-12.901c8.994,0,2.343-15.249,15.253-19.55c0-8.61,0-15.259,13.299-17.601
						C-106.397,4.301-54.367,0,0,0L0,0z"/>
				</g>
				<g id="g160" transform="translate(639.6077,625.9585)">
					<path id="path162" fill="#FFFFFF" d="M0,0c17.598-2.348,37.157-4.301,52.417-2.348c8.598,0,14.858-14.861-2.352-17.212
						c-15.249-1.95-39.112,0-52.021,2.351c-10.953,1.957-34.812,6.256-50.07,10.566c-15.255,6.643-4.297,19.544,4.3,17.592
						C-34.423,6.649-17.211,2.343,0.002,0H0z"/>
				</g>
				<g id="g164" transform="translate(639.6077,625.9585)">
					<path id="path166" fill="none" stroke="#C09300" stroke-width="3.464" stroke-linecap="round" stroke-linejoin="round" d="M0,0
						c17.598-2.348,37.157-4.301,52.417-2.348c8.598,0,14.858-14.861-2.352-17.212c-15.249-1.95-39.112,0-52.021,2.351
						c-10.953,1.957-34.812,6.256-50.07,10.566c-15.255,6.643-4.297,19.544,4.3,17.592C-34.423,6.649-17.211,2.343,0.002,0H0z"/>
				</g>
				<g id="g168" transform="translate(787.4659,625.9585)">
					<path id="path170" fill="#FFFFFF" d="M0,0c-17.605-2.348-37.157-4.301-52.024-2.348c-8.999,0-15.258-14.861,1.955-17.212
						c15.256-1.95,39.117,0,52.016,2.351c10.958,1.957,34.815,6.256,50.07,10.566C67.276,0,56.325,12.901,47.716,10.949
						C34.417,6.649,17.207,2.343,0,0z"/>
				</g>
				<g id="g172" transform="translate(787.4659,625.9585)">
					<path id="path174" fill="none" stroke="#C09300" stroke-width="3.464" stroke-linecap="round" stroke-linejoin="round" d="M0,0
						c-17.605-2.348-37.157-4.301-52.024-2.348c-8.999,0-15.258-14.861,1.955-17.212c15.256-1.95,39.117,0,52.016,2.351
						c10.958,1.957,34.815,6.256,50.07,10.566C67.276,0,56.325,12.901,47.716,10.949C34.417,6.649,17.207,2.343,0,0L0,0z"/>
				</g>
				<g id="g176" transform="translate(585.6229,634.547)">
					<path id="path178" fill="#FFFFFF" d="M0,0c-13.297,2.348-19.555-12.901-15.249-21.503c1.953,4.301,10.951,4.301,12.909,8.602
						C0-6.256-4.298-6.256,0,0z"/>
				</g>
				<g id="g180" transform="translate(585.6229,634.547)">
					<path id="path182" fill="none" stroke="#C09300" stroke-width="3.464" stroke-linecap="round" stroke-linejoin="round" d="M0,0
						c-13.297,2.348-19.555-12.901-15.249-21.503c1.953,4.301,10.951,4.301,12.909,8.602C0-6.256-4.298-6.256,0,0L0,0z"/>
				</g>
				<g id="g184" transform="translate(637.6447,594.5492)">
					<path id="path186" fill="#FFFFFF" d="M0,0c0,8.596,8.601,7.539,8.601,16.145c0,4.3-2.342,10.953-6.644,10.953
						c-4.304,0-8.609-4.302-8.609-8.603C-8.609,9.887,0,8.594,0,0"/>
				</g>
				<g id="g188" transform="translate(637.6447,594.5492)">
					<path id="path190" fill="none" stroke="#C09300" stroke-width="3.464" stroke-linecap="round" stroke-linejoin="round" d="M0,0
						c0,8.596,8.601,7.539,8.601,16.145c0,4.3-2.342,10.953-6.644,10.953c-4.304,0-8.609-4.302-8.609-8.603
						C-8.609,9.887,0,8.594,0,0z"/>
				</g>
				<g id="g192" transform="translate(699.5635,619.3058)">
					<path id="path194" fill="#FFFFFF" d="M0,0c12.898,0,11.62-17.215,5.359-25.82c0,6.258-10.95,8.605-10.95,12.901
						C-5.591-6.261,4.295-6.261,0,0z"/>
				</g>
				<g id="g196" transform="translate(699.5635,619.3058)">
					<path id="path198" fill="none" stroke="#C09300" stroke-width="3.464" stroke-linecap="round" stroke-linejoin="round" d="M0,0
						c12.898,0,11.62-17.215,5.359-25.82c0,6.258-10.95,8.605-10.95,12.901C-5.591-6.261,4.295-6.261,0,0C0,0,0,0,0,0z"/>
				</g>
				<g id="g200" transform="translate(841.4235,634.547)">
					<path id="path202" fill="#FFFFFF" d="M0,0c13.299,2.348,19.56-12.901,15.256-21.503c-1.959,4.301-10.953,4.301-12.908,8.602
						C0-6.256,4.305-6.256,0,0z"/>
				</g>
				<g id="g204" transform="translate(841.4235,634.547)">
					<path id="path206" fill="none" stroke="#C09300" stroke-width="3.464" stroke-linecap="round" stroke-linejoin="round" d="M0,0
						c13.299,2.348,19.56-12.901,15.256-21.503c-1.959,4.301-10.953,4.301-12.908,8.602C0-6.256,4.305-6.256,0,0L0,0z"/>
				</g>
				<g id="g208" transform="translate(789.4017,594.5492)">
					<path id="path210" fill="#FFFFFF" d="M0,0c0,8.596-8.597,7.539-8.597,16.145c0,4.3,2.343,10.953,6.647,10.953
						c4.3,0,8.606-4.302,8.606-8.603C8.613,9.887,0,8.594,0,0z"/>
				</g>
				<g id="g212" transform="translate(789.4017,594.5492)">
					<path id="path214" fill="none" stroke="#C09300" stroke-width="3.464" stroke-linecap="round" stroke-linejoin="round" d="M0,0
						c0,8.596-8.597,7.539-8.597,16.145c0,4.3,2.343,10.953,6.647,10.953c4.3,0,8.606-4.302,8.606-8.603C8.613,9.887,0,8.594,0,0
						L0,0z"/>
				</g>
				<g id="g216" transform="translate(727.4829,619.3058)">
					<path id="path218" fill="#FFFFFF" d="M0,0c-12.903,0-11.623-17.215-5.364-25.82c0,6.258,10.949,8.605,10.949,12.901
						C5.587-6.261-4.302-6.261,0,0"/>
				</g>
				<g id="g220" transform="translate(727.4829,619.3058)">
					<path id="path222" fill="none" stroke="#C09300" stroke-width="3.464" stroke-linecap="round" stroke-linejoin="round" d="M0,0
						c-12.903,0-11.623-17.215-5.364-25.82c0,6.258,10.949,8.605,10.949,12.901C5.587-6.261-4.302-6.261,0,0z"/>
				</g>
				<g id="g224" transform="translate(589.9308,630.2391)">
					<path id="path226" fill="#FFFFFF" d="M0,0c4.308,0,10.954-1.956,12.911-4.3L-0.013,0.008L0,0z"/>
				</g>
				<g id="g228" transform="translate(589.9308,630.2391)">
					<path id="path230" fill="none" stroke="#C09300" stroke-width="2.431" stroke-linecap="round" stroke-linejoin="round" d="M0,0
						c4.308,0,10.954-1.956,12.911-4.3L-0.013,0.008L0,0z"/>
				</g>
				<g id="g232" transform="translate(611.4156,623.5865)">
					<path id="path234" fill="#FFFFFF" d="M0,0c2.35,0,10.956-1.953,15.257-4.295L-0.011,0.013L0,0z"/>
				</g>
				<g id="g236" transform="translate(611.4156,623.5865)">
					<path id="path238" fill="none" stroke="#C09300" stroke-width="2.431" stroke-linecap="round" stroke-linejoin="round" d="M0,0
						c2.35,0,10.956-1.953,15.257-4.295L-0.011,0.013L0,0z"/>
				</g>
				<g id="g240" transform="translate(689.6663,614.998)">
					<path id="path242" fill="#FFFFFF" d="M0,0c-4.301,0-12.907,0-15.249-1.95l15.241,1.963L0,0z"/>
				</g>
				<g id="g244" transform="translate(689.6663,614.998)">
					<path id="path246" fill="none" stroke="#C09300" stroke-width="2.431" stroke-linecap="round" stroke-linejoin="round" d="M0,0
						c-4.301,0-12.907,0-15.249-1.95l15.241,1.963L0,0z"/>
				</g>
				<g id="g248" transform="translate(665.8094,614.998)">
					<path id="path250" fill="#FFFFFF" d="M0,0c-2.341,2.352-10.951,2.352-15.251,0H-0.01H0z"/>
				</g>
				<g id="g252" transform="translate(665.8094,614.998)">
					<path id="path254" fill="none" stroke="#C09300" stroke-width="2.431" stroke-linecap="round" stroke-linejoin="round" d="M0,0
						c-2.341,2.352-10.951,2.352-15.251,0H-0.01H0z"/>
				</g>
				<g id="g256" transform="translate(837.1429,630.2391)">
					<path id="path258" fill="#FFFFFF" d="M0,0c-4.301,0-10.564-1.956-12.911-4.3L0,0z"/>
				</g>
				<g id="g260" transform="translate(837.1429,630.2391)">
					<path id="path262" fill="none" stroke="#C09300" stroke-width="2.431" stroke-linecap="round" stroke-linejoin="round" d="M0,0
						c-4.301,0-10.564-1.956-12.911-4.3L0,0z"/>
				</g>
				<g id="g264" transform="translate(815.6308,623.5865)">
					<path id="path266" fill="#FFFFFF" d="M0,0c-2.345,0-10.953-1.953-15.256-4.295L0.013,0.013L0,0z"/>
				</g>
				<g id="g268" transform="translate(815.6308,623.5865)">
					<path id="path270" fill="none" stroke="#C09300" stroke-width="2.431" stroke-linecap="round" stroke-linejoin="round" d="M0,0
						c-2.345,0-10.953-1.953-15.256-4.295L0.013,0.013L0,0z"/>
				</g>
				<g id="g272" transform="translate(737.3801,614.998)">
					<path id="path274" fill="#FFFFFF" d="M0,0c4.306,0,12.911,0,15.256-1.95L-0.013,0.013L0,0z"/>
				</g>
				<g id="g276" transform="translate(737.3801,614.998)">
					<path id="path278" fill="none" stroke="#C09300" stroke-width="2.431" stroke-linecap="round" stroke-linejoin="round" d="M0,0
						c4.306,0,12.911,0,15.256-1.95L-0.013,0.013L0,0z"/>
				</g>
				<g id="g280" transform="translate(761.237,614.998)">
					<path id="path282" fill="#FFFFFF" d="M0,0c2.345,2.352,10.956,2.352,15.256,0H-0.013H0z"/>
				</g>
				<g id="g284" transform="translate(761.237,614.998)">
					<path id="path286" fill="none" stroke="#C09300" stroke-width="2.431" stroke-linecap="round" stroke-linejoin="round" d="M0,0
						c2.345,2.352,10.956,2.352,15.256,0H-0.013H0z"/>
				</g>
				<g id="g288" transform="translate(586.3045,595.858)">
					<path id="path290" fill="#C09300" d="M0,0c-1.456,0.278-2.221,1.43-1.854,2.794c0.446,1.66,1.776,2.61,3.033,2.166
						c0.799-0.283,2.263-1.758,2.268-2.287c0.008-0.608-0.765-2.052-1.098-2.055C2.206,0.616,1.984,0.491,1.855,0.339
						C1.583,0.017,0.728-0.139,0,0z"/>
				</g>
				<g id="g292" transform="translate(736.0714,585.17)">
					<path id="path294" fill="#C09300" d="M0,0c-0.542,0.201-1.405,1.414-1.404,1.973c0.006,1.056,1.566,2.775,2.533,2.785
						c0.477,0.003,1.785-0.676,2.274-1.185C4.289,2.652,4.096,1.139,2.982,0.28C2.434-0.143,0.8-0.296,0,0z"/>
				</g>
				<g id="g296" transform="translate(737.0529,578.4083)">
					<path id="path298" fill="#C09300" d="M0,0c-1.146,0.387-1.565,0.948-1.658,2.218c-0.097,1.324,0.032,1.53,1.43,2.292
						l0.997,0.544l0.945-0.422C3.022,4.049,3.604,3.42,3.65,2.54C3.7,1.592,2.997,0.622,1.905,0.133C0.946-0.297,0.889-0.301,0,0z"
						/>
				</g>
				<g id="g300" transform="translate(588.5298,588.3328)">
					<path id="path302" fill="#C09300" d="M0,0c0.223,0.038,0.381,0.005,0.596-0.085c0.681-0.29,0.701-0.844,0-1.448
						C0.29-1.798-0.058-2.053-0.17-2.045c-1.276,0.11-1.652,0.3-1.704,0.767c-0.047,0.412,0.083,0.531,0.937,0.937
						C-0.513-0.138-0.223-0.038,0,0z M9.799,19.767c-0.944,0.03-2.24-0.838-2.983-1.278c-1.77-0.415-3.83-1.502-5.538-0.341
						c-1.683,0.521-3.92,0.11-4.175-1.959c0.432-1.778,2.922-2.793,4.431-1.619c1.12,1.465,4.175,2.325,4.516-0.171
						c-1.247-1.887-1.104-4.386-2.13-6.39C3.753,6.761,3.233,5.576,2.556,4.516c-1.26-0.127-2.6,0.022-3.664-0.767
						c-1.706-0.093-3.448-0.942-4.43-2.386c-1.1-1.576-2.151-3.177-2.471-5.112c0.292-1.976,2.556-2.543,4.26-2.641
						c1.818-0.501,3.638-1.157,5.453-1.704c2.959-0.663,5.731-1.733,8.691-2.386c4.32-1.302,8.855-1.901,13.207-3.067
						c0.455-0.152,0.883-0.283,1.363-0.341c1.806-0.376,2.748,1.589,2.897,3.067c0.896,3.162,1.58,6.378,2.471,9.543
						c0.613,1.269,1.353,4.137-1.108,3.493C27.821,1.373,26.63,0.106,24.879,0c-2.382-0.139-1.022-2.577-0.085-3.579
						c0.207-1.601-0.299-3.514-1.363-4.771c-1.418-0.899-3.194,0.153-4.686,0.511c-1.567-0.027-4.699,0.772-3.238,2.897
						c0.519,1.573,0.565,3.295,1.193,4.856c0.8,1.676,0.915,3.504,1.278,5.283C16.993,7.317,15.31,4.5,13.973,4.26
						c-0.921-0.64-4.377-0.911-2.556-2.556c1.568-1.192,0.366-3.263,0.085-4.772c-0.1-2.1-2.284-2.601-4.005-2.13
						C5.786-5.115,3.404-3.841,4.856-1.96c0.33,1.568,0.878,3.109,1.193,4.686C6.696,4.629,7.241,6.442,7.923,8.35
						c0.296,1.69,0.903,3.293,1.705,4.771c0.047,1.869,1.302,3.477,1.278,5.368c-0.128,0.924-0.542,1.26-1.108,1.278
						C9.798,19.767,9.799,19.767,9.799,19.767z"/>
				</g>
				<g id="g304" transform="translate(585.7047,574.6458)">
					<path id="path306" fill="#C09300" d="M0,0c-1.352,1.271-1.135,2.199,0.865,3.69C1.721,4.327,2.24,4.255,3.218,3.362
						c1.506-1.374,1.567-2.243,0.237-3.421C2.798-0.641,2.511-0.76,1.746-0.768C0.946-0.776,0.719-0.677,0,0z"/>
				</g>
				<g id="g308" transform="translate(594.0206,572.1373)">
					<path id="path310" fill="#C09300" d="M0,0c-1.322,0.326-2.084,1.657-1.697,2.965c0.35,1.185,0.553,1.302,2.291,1.319
						C2.543,4.303,2.921,3.978,2.94,2.262c0.01-0.966-0.065-1.19-0.545-1.637C1.83,0.1,0.745-0.184,0,0z"/>
				</g>
				<g id="g312" transform="translate(836.9793,571.9193)">
					<path id="path314" fill="#C09300" d="M0,0c-0.619,0.515-0.744,0.748-0.751,1.404c-0.008,1.119,0.637,1.94,2.034,2.573
						C3.142,4.819,3.9,4.703,4.601,3.47c0.931-1.639,0.886-2.308-0.229-3.413c-0.616-0.61-0.731-0.646-2.14-0.66
						C0.848-0.611,0.69-0.574,0,0z"/>
				</g>
				<g id="g316" transform="translate(605.0629,568.7837)">
					<path id="path318" fill="#C09300" d="M0,0c-0.992,0.265-1.506,1.009-1.519,2.2C-1.53,3.11-1.465,3.255-0.828,3.753
						c0.412,0.323,1.064,0.599,1.578,0.67c0.727,0.099,0.993,0.036,1.579-0.376c1.501-1.055,1.819-2.099,0.95-3.112
						C2.354-0.143,1.476-0.394,0,0z"/>
				</g>
				<g id="g320" transform="translate(664.8279,566.1118)">
					<path id="path322" fill="#C09300" d="M0,0c-0.22,0.274-0.707,0.437-0.757,0.782c0.088,1.513,0.16,3.045,0.642,4.494
						c0.262,1.426,0.033,2.915,0.53,4.305c0.509,2.527,0.509,5.133,1.096,7.644c0.027,1.293,0.15,2.587,0.525,3.831
						c0.43,1.968,0.037,4.025,0.616,5.97c-0.062,0.73,0.779,2.681,1.518,1.525c1.072-1.572,2.484-2.849,3.873-4.131
						c1.194-0.689,0.098-1.703-0.726-2.045c-1.132-0.446-1.408-1.692-1.327-2.786c-0.159-1.131-0.613-2.2-0.659-3.354
						c-0.239-1.697-0.192-3.421-0.413-5.116C4.422,9.458,4.612,7.684,4.446,5.972c0.022-1.087-0.495-2.073-0.423-3.164
						C3.891,1.702,3.841,0.37,2.913-0.388C2.016-0.841,0.72-0.763,0,0z"/>
				</g>
				<g id="g324" transform="translate(744.101,570.3378)">
					<path id="path326" fill="#C09300" d="M0,0l0.852-0.085l0.085-1.022L1.022-2.13l-1.108-0.341
						c-0.586-0.173-1.099-0.257-1.107-0.255s-0.24,0.145-0.511,0.341c-0.599,0.432-0.446,1.049,0.34,1.874
						C-0.92-0.047-0.713,0.043,0,0z M1.704,22.494C0.389,21.5-0.787,20.325-1.96,19.171c-1.615-1.224,1.327-1.936,1.704-2.983
						c0.429-1.598,0.403-3.3,0.511-4.941C0.744,9.743,0.96,8.143,0.852,6.56C0.71,4.863-1.502,5.221-2.471,4.26
						c-1.341-0.565-1.876-1.883-2.897-2.812c-0.672-1.316-0.851-2.934-0.937-4.43c0.096-1.222-0.825-2.589,0-3.664
						c0.106-0.152,0.232-0.36,0.34-0.512c0.276-0.395,0.934-0.079,1.364-0.17c1.373,0.077,2.804-0.129,4.089,0.426
						c3.299,0.571,6.629,0.616,9.969,0.767c2.043-0.065,4.008,0.646,6.05,0.596c1.6-0.353,2.319,1.381,2.3,2.642
						c-0.906,1.782-0.123,3.894-0.852,5.708c-0.641,1.834-0.388,3.894-0.682,5.794c-0.04,1.495-1.937,2.05-2.896,0.937
						c-0.931-0.941-2.435-1.128-3.153-2.3c-0.808-1.642,1.711-1.645,2.13-2.897c0.48-1.266,0.323-2.674,0.426-4.005
						c0.312-1.615-1.442-1.707-2.556-1.874C8.761-2.082,6.707-2.45,5.879-0.682c-0.521,1.307-0.45,2.707-0.597,4.09
						c-0.035,2.431-0.62,4.821-0.767,7.242c-0.14,2.99-0.656,5.962-0.852,8.946c-0.027,1.242-0.192,3.266-1.959,2.897V22.494z"/>
				</g>
				<g id="g328" transform="translate(643.9123,584.3079)">
					<path id="path330" fill="#C09300" d="M0,0c0.413-0.05,0.642-0.556,0.682-1.448c0.043-0.993,0.562-1.802,1.193-1.96
						c0.497-0.125,0.454-0.651-0.086-1.023c-0.313-0.215-0.874-0.346-1.874-0.34c-1.576,0.008-2.553,0.416-3.408,1.278l-0.511,0.511
						l0.766,0.511c0.387,0.295,1.087,0.907,1.534,1.363C-0.927-0.315-0.413,0.05,0,0z M18.489,11.332
						c-1.037-0.368-2.352-1.89-3.408-1.875c-2.4-0.169-2.065-2.506-0.341-3.323c0.227-0.708,0.014-1.603,0.085-2.385
						c0.335-2.153-1.023-3.885-0.767-6.05c-0.12-2.373-0.837-4.683-0.937-7.072c-0.674-2.463-0.681-4.995-1.108-7.498
						c-0.284-2.244-1.907-1.452-3.323-0.852c-0.011,0.973-0.074,1.924-0.085,2.897c0.59,2.228-1.202,2.878-2.982,3.152
						c-1.871-0.177-2.789,1.427-2.386,3.068c0.804,0.957,2.825,0.691,4.09,0.852c2.676-0.555,2.567,3.031,1.193,4.26
						C7.58-1.761,5.253-1.015,4.6,0.766c0.261,2.362-1.307,4.723-3.237,5.879c-2.968,0.208-5.209-2.353-6.305-4.857
						c-1.234-0.356-2.465-0.726-3.664-1.192c-1.933-0.484-4.689-3.837-2.045-5.113c1.484-0.408,5.999-1.439,4.005-3.493
						c-1.124-1.928-3.275-1.961-5.198-1.448c-1.973-0.002-4.169,0.96-4.089,3.238c-0.403,2.044-0.337,4.247-1.278,6.134
						c-0.405,2.289-3.002,1.753-3.153-0.341c-1.999-1.456-1.733-3.811-0.341-5.538c0.87-1.987,0.009-4.301-0.852-6.134
						c-0.52-2.386-3.151-2.467-5.027-3.238c-0.92-0.357-4.44,0.212-3.152-1.789c2.053-0.725,4.505-1.377,6.646-0.852
						c2.244,0.278,4.192,1.812,5.282,3.749c1.507,1.526,4.096,0.727,6.05,0.766c2.107,0.006,4.26-1.479,6.305-0.511
						c0.593,1.539,3.331,4.078,4.175,1.449c-0.144-2.352,1.934-3.615,4.09-3.323c2.355,0.134,1.484-1.666,1.448-3.068
						c0.156-2.548,1.799-3.884,3.919-4.942c0.723-0.194,1.486-0.129,2.216,0c2.039,0.642,4.235,1.552,4.856,3.834
						c0.828,1.856,0.847,3.956,1.449,5.879c0.483,3.081,1.107,6.162,1.192,9.287C18.645-2.027,18.429,0.966,19,3.833
						c0.361,2.132,0.629,4.263,0.852,6.39c-0.25,1.138-0.741,1.329-1.363,1.108C18.489,11.331,18.489,11.332,18.489,11.332z"/>
				</g>
				<g id="g332" transform="translate(809.0359,571.6159)">
					<path id="path334" fill="#C09300" d="M0,0c0.485,0.003,0.896-0.166,1.193-0.426C1.698-0.869,1.681-1.518,1.108-1.96
						c-0.369-0.284-2.377-0.258-3.068,0c-0.307,0.115-0.424,0.269-0.426,0.597c-0.005,0.384,0.103,0.62,0.767,0.937
						C-1.062-0.16-0.485-0.003,0,0z M-25.22,3.238c0.544-0.128,1.057-0.539,1.193-1.193c0.179-0.866,0.021-1.26-0.682-1.619
						c-0.606-0.308-2.001-0.411-2.386-0.17c-0.124,0.078-0.381,0.28-0.511,0.511c-0.185,0.33-0.151,0.489,0.085,0.681
						c0.165,0.135,0.342,0.327,0.341,0.426c-0.001,0.1,0.183,0.445,0.426,0.767C-26.356,3.17-25.764,3.366-25.22,3.238z
						 M-10.224,7.157c0.297,0.046,0.568-0.109,0.937-0.426c0.491-0.421,0.646-0.76,0.767-1.619c0.085-0.596,0.072-1.368,0-1.704
						c-0.133-0.616-0.145-0.588-1.534-0.596c-1.746-0.017-1.908,0.174-1.874,1.789c0.021,1.027,0.032,1.304,0.596,1.874
						C-10.895,6.918-10.522,7.111-10.224,7.157 M14.144,7.413c1.015,0.066,1.618-0.251,2.045-1.023
						c0.495-0.897,0.158-1.584-1.108-2.13c-0.555-0.239-1.11-0.434-1.193-0.426c-0.083,0.008-0.541,0.28-1.022,0.596
						c-0.737,0.485-0.844,0.72-0.852,1.278C12.005,6.568,12.966,7.335,14.144,7.413 M-3.664,8.35
						c0.343,0.008,0.73-0.162,1.364-0.511c1.195-0.66,2.046-1.753,2.045-2.642c-0.002-0.579-0.149-0.619-1.023-1.022
						c-0.538-0.248-1.149-0.514-1.363-0.511c-0.494,0.005-1.703,0.973-1.704,1.363c-0.002,0.162-0.159,0.781-0.341,1.278
						c-0.321,0.874-0.271,0.863,0.17,1.448C-4.233,8.128-4.006,8.34-3.664,8.35 M14.911,34.167
						c-1.547-0.071-3.101-0.322-4.516-0.682c-2.836,0.176-4.26-2.801-1.534-4.26c1.641-4.184,4.2,0.864,6.817,0.511
						c3.919-0.762,4.25-4.996,4.856-8.18c0.221-3.153,1.13-6.22,2.045-9.202c2.624-2.916-1.965-4.744-3.919-2.47
						c-1.667,1.811-5.236,4.033-7.242,1.533c-2.464-1.043-2.565-4.336-4.601-5.282c-3.297-1.004-3.712,3.05-5.453,4.771
						c-1.602,2.247-4.664,2.444-7.158,3.238c-1.17,2.368-0.56,6.395-2.982,8.009c-2.033-0.83-5.761-4.641-2.641-6.391
						c3.047-2.619-1.33-3.82-2.727-5.623c-1.994-2.221-2.313-5.279-2.641-8.094c-3.433-1.897-4.102,2.147-4.515,4.686
						c-0.268,3.03-2.825,2.141-4.601,1.022c-2.597-1.052-3.894-3.518-5.709-5.453c-0.218-1.766,0.101-3.699,0.085-5.538
						c0.59-2.212,3.278-1.173,4.942-1.022c2.668,1.116,3.761-1.711,1.618-3.323c-1.45-1.843-6.052-0.881-5.623-3.834
						c1.483-0.174,3.028-0.118,4.516,0c2.973,0.812,6.165,2.91,6.475,6.219c0.392,2.886,4.547,2.36,6.816,2.983
						c2.838,0.818,6.257,1.028,6.902-2.556c1.934-2.032,6.13-4.319,8.264-1.534C4.551-4.982,5.593-2.658,5.453-0.17
						c-0.442,2.139,3.459,2.217,4.43,1.022c1.422-2.339,5.865-1.649,8.009-0.341c2.28,1.683,2.775,4.649,6.05,4.687
						c4.859,1.454,9.908,2.293,14.655,4.089c3.845,0.838-0.573,3.266-1.534,4.687c-2.927,1.447-5.475-4.477-8.776-1.534
						c-2.551,1.952-2.378,5.662-3.323,8.52c-0.647,3.701-0.483,7.969-3.152,10.906c-1.834,1.95-4.325,2.419-6.902,2.301
						C14.91,34.167,14.911,34.167,14.911,34.167z"/>
				</g>
				<g id="g336" transform="translate(762.2185,558.4775)">
					<path id="path338" fill="#C09300" d="M0,0c-0.261,0.17-0.648,0.319-0.258,0.604c0.471,0.825,1.412,1.11,2.247,1.417
						C3.483,2.668,4.772,3.767,5.734,5.07C5.871,5.978,6.89,6.471,6.886,7.42c0.008,1.295,0.084,2.622-0.231,3.888
						c-0.35,1.161-1.231,2.05-2.253,2.655c-0.7,0.55-1.838,0.701-2.097,1.675c-0.143,0.934,0.691,1.646,0.984,2.479
						c0.608,1.149,1.12,2.355,1.774,3.476c0.707,0.785,1.797,0.043,2.162-0.715c0.516-0.757,0.973-1.571,1.229-2.447
						c0.824-0.905,1.555-1.966,1.852-3.168c0.404-0.847,1.044-1.642,1.006-2.634c0.001-1.135,0.641-2.147,0.601-3.289
						c0.036-1.528,0.036-3.121-0.523-4.564c-0.382-0.8-1.147-1.281-1.653-1.998C8.867,1.972,7.909,1.2,6.793,0.771
						c-0.789-0.251-1.246-1.16-2.234-0.94C3.156-0.193,1.733-0.384,0.341-0.158C0.429-0.305-0.086,0.092,0-0.001V0z"/>
				</g>
				<g id="g340" transform="translate(743.5421,557.2507)">
					<path id="path342" fill="#C09300" d="M0,0c-0.662,0.68-0.805,0.969-0.812,1.637C-0.82,2.311-0.691,2.579-0.043,3.234
						C1.152,4.441,1.736,4.47,3.799,3.426c1.972-0.998,2.638-1.088,2.814-0.382c0.171,0.682,1.306,1.307,2.384,1.311
						c0.682,0.005,1.068-0.13,1.614-0.555c0.685-0.534,0.718-0.617,0.736-1.853c0.011-1.262-0.006-1.31-0.792-2.006
						C9.799-0.724,9.678-0.766,8.741-0.672c-1.192,0.12-1.908,0.666-2.102,1.605c-0.14,0.681-0.38,0.844-0.559,0.38
						C6.023,1.165,5.729,0.981,5.428,0.906c-0.555-0.14-1.496-0.733-2.165-1.364C3.01-0.696,2.567-0.808,1.849-0.816
						C0.879-0.824,0.745-0.766,0,0z"/>
				</g>
				<g id="g344" transform="translate(725.7134,570.7809)">
					<path id="path346" fill="#C09300" d="M0,0c0.433,0.005,0.571-0.136,0.767-0.937c0.125-0.512,0.271-1.138,0.341-1.364
						c0.099-0.321-0.06-0.426-0.512-0.596c-1.346-0.508-2.687-0.458-3.152,0.17C-2.767-2.441-2.521-1.542-2.13-1.193
						C-1.341-0.488-0.467-0.002,0,0z M-30.758,0.682c0.936-0.019,1.818-0.142,2.727-0.256c1.174-0.193,2.426,0.404,3.578,0
						c2.663-0.453,5.327-0.346,8.009-0.596c0.709,0.011,1.216-0.504,1.704-0.937c0.006-1.864,0.002-3.76,0-5.624
						c-0.081-0.702,0.209-1.631-0.426-2.13c-0.203-0.14-0.431-0.292-0.681-0.341c-0.738,0.191-1.52,0.676-1.875,1.363
						c-0.113,0.975,0.049,1.92,0.085,2.897c-0.019,0.253,0.111,0.647,0,0.852c-0.58,0.411-1.237,0.679-1.959,0.682
						c-2.316,0.079-4.586,0.25-6.902,0.341c-1.927,0.121-3.907-0.165-5.793,0.341c-0.732,0.266-1.685,0.174-2.13,0.937
						c-0.639,0.742,0.282,1.628,0.937,1.96C-32.616,0.565-31.693,0.7-30.758,0.682z M-36.211,10.736
						c-1.812-0.019-3.764-1.544-4.004-3.324c0.414-2.051,2.118-4.061,1.022-6.219c0.757-2.762-2.076-3.81-4.005-2.215
						c-1.164,2.648-1.754,5.55-3.493,7.923c-2.192,0.621-3.148-2.881-4.686-4.089c0.762-2.059,2.987-3.906,3.237-6.476
						c0.533-2.494-0.985-5.264-3.152-6.56c-1.87-1.786-4.432-1.148-6.731-1.534c-2.793-1.632,2.05-2.229,3.323-2.301
						c2.857-0.29,5.822,0.087,7.924,2.216c2.097,1.001,1.935,4.627,4.43,5.027c4.331,0.193,8.623-0.664,12.951-0.767
						c2.316-0.554,5.899,0.275,7.498-1.448c0.006-3.02,2.565-4.882,5.027-6.05c1.36-0.378,2.792,1.307,4.175,1.619
						c2.632,0.839,1.832,4.095,3.408,5.368c4.5,0.243,9.042,0.192,13.548,0.255c0.857-0.022,1.11,1.2,1.704,1.704
						c-0.099,1.742-0.162,3.47-0.426,5.198C4.671,1.262,5.679,4.092,4.09,5.964C1.827,6.58-0.098,4.509-2.385,4.345
						C-4.91,3.22-7.038,0.889-7.157-1.96c-1.495-2.445-3.892,0.435-3.067,2.471c-0.094,0.887,0.192,1.92-0.085,2.726
						c-1.382,1.659-3.803,1.117-5.709,1.364c-2.776-0.111-5.487,0.489-8.264,0.426c-2.435,0.183-4.968-0.212-7.328,0.426
						c-2.813,0.08-2.425,2.83-2.897,4.771c-0.499,0.37-1.1,0.517-1.704,0.511V10.736z"/>
				</g>
				<g id="g348" transform="translate(713.4687,724.9579)">
					<path id="path350" fill="#FFFFFF" d="M0,0c88.999,68.452,81.367,168.724,81.367,168.724c-2.348-0.469-4.579-0.704-6.927-0.704
						c-18.669,0-63.195,10.68-73.583,24.246c-11.128-12.279-56.63-24.246-75.181-24.246c-2.348,0-4.696,0.235-6.927,0.704
						c0,0-7.75-100.27,81.25-168.724H0z"/>
				</g>
				<g id="g352" transform="translate(713.4687,724.9579)">
					<path id="path354" fill="none" stroke="#C09300" stroke-width="3.136" d="M0,0c88.999,68.452,81.367,168.724,81.367,168.724
						c-2.348-0.469-4.579-0.704-6.927-0.704c-18.669,0-63.195,10.68-73.583,24.246c-11.128-12.279-56.63-24.246-75.181-24.246
						c-2.348,0-4.696,0.235-6.927,0.704c0,0-7.75-100.27,81.25-168.724H0z"/>
				</g>
				<g id="g356" transform="translate(787.7386,886.3397)">
					<path id="path358" fill="#FFFFFF" d="M0,0c-0.766-0.048-1.536-0.072-2.311-0.072c-16.92,0-56.218,8.681-71.366,21.695
						c-15.867-12.022-55.815-21.695-72.46-21.695c-0.781,0-1.552,0.095-2.317,0.236c-0.038-3.792,0.159-7.723,0.394-11.298
						c0.881-13.362,3.225-26.771,6.783-39.676c11.201-40.611,34.125-75.123,66.996-101.303
						c32.898,26.202,55.849,60.746,67.074,101.388c3.564,12.901,5.915,26.31,6.804,39.67C-0.17-7.552,0.026-3.715-0.001,0L0,0z"/>
				</g>
				<g id="g360" transform="translate(787.7386,886.3397)">
					<path id="path362" fill="none" stroke="#C09300" stroke-width="2.497" d="M0,0c-0.766-0.048-1.536-0.072-2.311-0.072
						c-16.92,0-56.218,8.681-71.366,21.695c-15.867-12.022-55.815-21.695-72.46-21.695c-0.781,0-1.552,0.095-2.317,0.236
						c-0.038-3.792,0.159-7.723,0.394-11.298c0.881-13.362,3.225-26.771,6.783-39.676c11.201-40.611,34.125-75.123,66.996-101.303
						c32.898,26.202,55.849,60.746,67.074,101.388c3.564,12.901,5.915,26.31,6.804,39.67C-0.17-7.552,0.026-3.715-0.001,0L0,0z"/>
				</g>
				<g id="g364" transform="translate(684.5677,894.5464)">
					<path id="path366" fill="#C09300" d="M0,0c-16.011-5.03-33.342-8.265-42.942-8.265c-0.781,0-1.536,0.116-2.301,0.256
						c-0.039-3.792,0.191-7.757,0.426-11.332c0.881-13.362,3.173-26.718,6.731-39.619c7.539-27.333,20.466-51.891,38.087-73.018
						l0,131.979L0,0z"/>
				</g>
				<g id="g368" transform="translate(740.7882,894.7918)">
					<path id="path370" fill="#C09300" d="M0,0v-134.28c18.524,21.597,31.99,46.912,39.791,75.148
						c3.563,12.901,5.842,26.259,6.731,39.618c0.232,3.502,0.452,7.362,0.426,11.077c-0.766-0.048-1.525-0.085-2.301-0.085
						c-10.17,0-28.41,3.191-44.646,8.52L0,0z"/>
				</g>
				<g id="g372" transform="translate(747.0864,927.1009)">
					<path id="path374" fill="#FFFFFF" d="M0,0c1.817-0.107-2.459,9.728-2.459,9.728c4.811-4.917,22.984-6.093,22.984-6.093
						C9.622,8.449-1.281,44.794,0,73.763c1.177,29.076-4.168,40.513-8.445,44.791c-5.451,5.452-22.983,10.262-34.528,10.904
						c-6.522,0.32-5.452-4.918-5.452-4.918c-12.08,3.1-24.158,4.276-29.612,0.642c-5.132-3.421-6.2-20.525-2.459-17.532
						c9.086,7.269,16.997,0.642,22.449-7.269c4.81-6.948,4.489-26.618-2.459-49.6c-7.269-24.16-27.153-48.32-27.153-48.32
						c10.797,0,25.977,9.622,25.977,9.622L-65.317-2.99c11.438,5.451,20.525,13.896,20.525,13.896l10.904-11.438
						c3.634,4.811,10.904,11.438,10.904,11.438s9.086-9.62,22.983-10.904L0,0z"/>
				</g>
				<g id="g376" transform="translate(747.0864,927.1009)">
					<path id="path378" fill="none" stroke="#C09300" stroke-width="3.321" d="M0,0c1.817-0.107-2.459,9.728-2.459,9.728
						c4.811-4.917,22.984-6.093,22.984-6.093C9.622,8.449-1.281,44.794,0,73.763c1.177,29.076-4.168,40.513-8.445,44.791
						c-5.451,5.452-22.983,10.262-34.528,10.904c-6.522,0.32-5.452-4.918-5.452-4.918c-12.08,3.1-24.158,4.276-29.612,0.642
						c-5.132-3.421-6.2-20.525-2.459-17.532c9.086,7.269,16.997,0.642,22.449-7.269c4.81-6.948,4.489-26.618-2.459-49.6
						c-7.269-24.16-27.153-48.32-27.153-48.32c10.797,0,25.977,9.622,25.977,9.622L-65.317-2.99
						c11.438,5.451,20.525,13.896,20.525,13.896l10.904-11.438c3.634,4.811,10.904,11.438,10.904,11.438s9.086-9.62,22.983-10.904
						L0,0z"/>
				</g>
				<g id="g380" transform="translate(702.9443,996.6813)">
					<path id="path382" fill="none" stroke="#C09300" stroke-width="3.464" d="M0,0c0,0-6.093-44.791-17.531-57.513"/>
				</g>
				<g id="g384" transform="translate(712.5689,997.8537)">
					<path id="path386" fill="none" stroke="#C09300" stroke-width="3.464" d="M0,0c0,0-2.352-45.323-10.262-59.863"/>
				</g>
				<g id="g388" transform="translate(721.1028,996.0269)">
					<path id="path390" fill="none" stroke="#C09300" stroke-width="3.464" d="M0,0c0,0,0-49.601,2.993-58.045"/>
				</g>
				<g id="g392" transform="translate(731.8998,993.5731)">
					<path id="path394" fill="none" stroke="#C09300" stroke-width="3.464" d="M0,0c0,0,2.459-41.691,12.721-56.763"/>
				</g>
				<g id="g396" transform="translate(691.9293,1018.3842)">
					<path id="path398" fill="#C09300" d="M0,0c-0.534,3.956-1.497,7.056-2.886,9.087c-5.452,7.91-13.363,14.538-22.449,7.269
						c0,0,3.1,9.621,9.728,9.942c5.131,0.321,16.783-3.849,27.046-21.38c0,0-7.59,1.71-9.407,0.107C-1.389,2.032,0,0.001,0,0.001V0z
						"/>
				</g>
				<g id="g400" transform="translate(691.9293,1018.3842)">
					<path id="path402" fill="none" stroke="#C09300" stroke-width="0.966" d="M0,0c-0.534,3.956-1.497,7.056-2.886,9.087
						c-5.452,7.91-13.363,14.538-22.449,7.269c0,0,3.1,9.621,9.728,9.942c5.131,0.321,16.783-3.849,27.046-21.38
						c0,0-7.59,1.71-9.407,0.107C-1.389,2.032,0,0.001,0,0.001V0z"/>
				</g>
				<g id="g404" transform="translate(665.6458,1046.6036)">
					<path id="path406" fill="#C09300" d="M0,0c0.748,2.459,1.924,4.703,3.421,5.666C8.873,9.3,20.952,8.124,33.03,5.024
						c0,0-1.069,5.238,5.452,4.918C50.028,9.3,67.561,4.49,73.011-0.962c1.283-1.39,2.779-3.421,4.062-6.521h-0.214
						c-2.672,3.741-10.262,3.527-12.08,3.314c-2.887-0.321-4.704-0.214-8.552-1.176c-1.817-0.428-4.597-0.962-6.093-2.138
						c-1.176-0.962-2.138-4.49-3.955-4.49c-2.887,0-2.673,0.749-3.421,1.604c-0.962,1.176-1.497,2.886-2.459,2.779
						c-2.993-0.534-7.804,1.817-13.897,6.628C20.31,3.849,17.958,5.024,10.047,4.49C2.244,3.848-0.215-0.534-0.215-0.534L-0.001,0H0
						z"/>
				</g>
				<g id="g408" transform="translate(665.6458,1046.6036)">
					<path id="path410" fill="none" stroke="#C09300" stroke-width="0.966" d="M0,0c0.748,2.459,1.924,4.703,3.421,5.666
						C8.873,9.3,20.952,8.124,33.03,5.024c0,0-1.069,5.238,5.452,4.918C50.028,9.3,67.561,4.49,73.011-0.962
						c1.283-1.39,2.779-3.421,4.062-6.521h-0.214c-2.672,3.741-10.262,3.527-12.08,3.314c-2.887-0.321-4.704-0.214-8.552-1.176
						c-1.817-0.428-4.597-0.962-6.093-2.138c-1.176-0.962-2.138-4.49-3.955-4.49c-2.887,0-2.673,0.749-3.421,1.604
						c-0.962,1.176-1.497,2.886-2.459,2.779c-2.993-0.534-7.804,1.817-13.897,6.628C20.31,3.849,17.958,5.024,10.047,4.49
						C2.244,3.848-0.215-0.534-0.215-0.534L-0.001,0H0z"/>
				</g>
				<g id="g412" transform="translate(710.3168,1045.9601)">
					<path id="path414" fill="#FFFFFF" d="M0,0c1.771,0,3.206-1.436,3.206-3.206c0-1.771-1.435-3.207-3.206-3.207
						s-3.206,1.436-3.206,3.207C-3.206-1.436-1.771,0,0,0"/>
				</g>
			</g>
		</g>
	</g>
</g>
</svg>
