<?xml version="1.0" encoding="UTF-8"?>
<svg viewBox="0 0 744.09447 1052.362179" xmlns="http://www.w3.org/2000/svg">
 <path d="m11.897 184.6 10.085-8.4984 228.14-3.5238v450.26l-222.96-1.0364-16.511-14.717 1.2437-422.48z" fill="#391892"/>
 <path d="m250.01 172.57h246.24v450.26h-246.24z" fill="#fff"/>
 <path d="m496.12 172.57 225.72 0.87943 13.777 17.295 0.29317 414.79-16.709 16.123-223.08 1.1726v-450.26z" fill="#cc1400"/>
 <path d="m29.727 173.55h686.77a19.147 19.147 0 0 1 19.147 19.147v410.04a19.147 19.147 0 0 1 -19.147 19.147h-686.77a19.147 19.147 0 0 1 -19.147 -19.147v-410.04a19.147 19.147 0 0 1 19.147 -19.147" fill="none" stroke="#000" stroke-width="16.695"/>
 <path d="m623.24 293.5c-187.31 0.28923-380.72 41.875-523.76 147.95-32.581 23.432-60.416 52.66-80.942 85.017v82.249c0 3.2162 2.5698 5.786 5.786 5.786h697.31c3.2162 0 5.8172-2.5698 5.8172-5.786v-310.58c-15.487-1.4199-30.954-2.5637-46.351-3.3908-19.184-0.82833-38.483-1.2742-57.86-1.2443z" fill="#fff" opacity=".15021"/>
</svg>
