<?xml version="1.0" encoding="UTF-8"?>
<svg enable-background="new 0 0 1482 1702" version="1.1" viewBox="0 0 1482 1702" xmlns="http://www.w3.org/2000/svg">
 <line x1="237.79" x2="237.79" y1="1428.2" y2="1428.2" fill="none"/>
 <line x1="270.92" x2="270.92" y1="1639.4" y2="1639.4" fill="none"/>
 <path d="m256.68 1649.4h-0.973c0.04 0.821 0.593 1.533 1.422 1.596 0.033-0.114 0.195-0.13 0.195-0.261 0-0.569-0.65-0.731-0.65-1.3 1e-3 -0.013 6e-3 -0.022 6e-3 -0.035z" fill="none"/>
 <path d="m726.62 581.76c-3.329 0.49-16.582-12.493-20.971-15.007-4.518-2.589-3.203 7.174-8.177 4.233-4.632-2.739-8.39-7.044-13.468-9.716-4.654-3.102-11.598-5.811-14.815-10.293-3.531-4.92-1.379-6.437-7.792-7.504-8.822-1.469-18.698-11.53-25.781-16.546-2.975-2.106-0.767 1.988-1.347 4.04-0.249 0.884-5.608-0.708-6.349-1.347l-15.584-13.468c-1.918-1.656 3.269-6.065 3.559-9.235 0.501-5.467 5.514-2.469 6.061-8.85 3.216-6.433-3.041-7.611 0.481-12.698 2.605-3.762 5.844-8.127 4.906-12.602-0.618-2.953-0.14-5.881 3.463-6.157 3.569-0.272 6.105-5.99 6.542-9.043 1.675-0.239 3.431-0.375 5.002-1.347 1.926-1.193 0.423-3.234 2.597-3.944 4.504-1.471 3.981-7.003 5.484-7.504v-0.192l0.096-0.096c2.95 0 6.39 2.095 9.235 0.673v1e-3c-2.393-4.787-3.538-5.09-8.658-6.253-4.993-1.134-7.948-2.587-10.39-7.023-2.189-3.975-6.849-1.936-10.005-3.944-6.457-0.587-12.598-3.601-12.313-10.486 0.388-9.357-4.456-2.435-9.139-6.445-2.045-1.753-3.016-5.835-4.906-8.177-4.753-5.886-10.097 0.576-14.43-0.289-2.871-0.573-12.365-8.865-14.045-11.352-4.767-7.049-9.659-21.361-16.739-8.658-4.644 8.331-4.72 0.124-8.081-2.116-0.237-1.665-2.506-9.522-0.481-10.197 0.336-1.344 2.138-1.022 3.078-1.924 1.811-4.075-4.145-5.657-5.58-8.466-1.799-3.524 1.539-6.13 1.539-9.524 0-7.888-5.959-11.016-10.967-15.584-2.478-2.261-1.539-9.41-1.539-12.698 0-2.41-2.309-3.83-2.309-5.676 0-2.462 3.367-2.875 3.367-4.906 3.391-0.847 7.299-0.271 9.62-3.367 0.206-0.274 1.186-2.695 1.347-2.213h0.192c0.513 2.051 1.385 11.788 2.309 12.795 4.893 5.337 6.03 6.837 12.987 5.099 5.683-1.421 2.564-2.955 5.537-7.211 3.952-1.133 24.757-3.604 17.647-11.259-5.144-5.537-10.886-14.559-8.177-22.222 2.407-6.808-2.043-7.503-7.407-6.638-6.826 1.102-8.846-6.3-11.736-10.967-0.881-1.424 0.237-3.306-0.481-4.618-0.871-1.59-2.309-3.172-2.309-5.099 0-5.596 8.649 0.367 6.948-5.947 1.527-2.296-6.715-11.382-6.852-13.774-0.333-5.798 4.999-4.832 8.369-4.04 4.447 1.043 5.337-2.023 9.043-2.213 5.867-0.301 6.361 2.583 9.139-4.906 1.946-5.243 6.566-10.092 4.04-15.392-2.204-4.626-1.815-2.473 3.559-3.367 5.595-0.931 5.062 0.4 6.157-5.291 0.135-0.702 4.686-4.919 5.387-5.387 3.507-2.337 9.425 1.277 9.355-3.806-1.608-2.591 4.156-9.542 5.074-12.259 1.31-3.878 0.779-8.008 1.924-11.736 0.622-2.025 2.85-2.919 3.367-5.387 0.67-3.199-0.129-5.701 1.828-8.466 5.234-7.39 0.105-3.262-2.116-8.562-1.538-3.671-3.172 0.826-4.521 2.116-3.646 3.485-5.434 4.101-7.215-1.251-1.68-5.043-4.097-7.621-9.235-9.331-3.701-1.232-9.805-6.051-12.314-9.043-3.704-2.564-6.832-6.038-10.39-8.85-3.268-2.582-7.837-0.012-11.736 0.192-8.464 0.442-16.018-1.246-22.607 4.618-3.835 3.414-8.048 6.853-12.987 8.562-5.54 1.918-9.425 8.519-14.911 7.311-3.417-0.752-2.759 5.049-4.137 6.542-2.386 2.583-6.917-3.967-9.331-1.251-0.431-0.287-0.359 0.069-0.77 0.385-3.02 0.755-8.933 1.635-12.025 1.635-3.922 0-5.714-3.367-8.273-3.367-4.743 0-14.746-2.059-18.182-6.157-1.538-1.834-8.555-2.508-11.544-5.099-4.036-3.496-6.638-4.656-6.638-10.39l-0.096-0.096c-4.294 0-8.146 2.978-13.083 2.79-9.67-0.369-2.986-5.083-7.6-8.658l-7.696-5.964c-2.746-2.127 3.884-6.964 2.79-8.947-2.78-5.562 1.978-6.573-0.962-11.544-2.58-4.361-3.711-8.559-6.445-12.698-1.721-2.605-6.341-3.584-9.043-4.714-3.1-1.295-11.13 3.479-11.352 1.924-0.389-2.741-1.318-13.885-3.752-14.43-3.605-0.806-6.298 0.073-9.716-1.635-5.606-2.803-4.604 1.364-9.235 2.501-3.952 0.97-5.58-3.607-5.58-6.638-1.352 0.451-2.392 1.732-4.137 1.732-2.711 0-1.628-3.071-2.694-4.137-2.046-2.046-4.156 6.397-5.281 7.268l-1.646-2.169c-6.339 1.668-9.682 3.073-15.103 7.023-4.486 3.268-11.179 5.937-15.969 1.828-3.746-3.212-6.755-0.732-10.774-1.828l4.471 3.924c1.967 0.773 6.423 5.443 3.033 7.043-0.766 0.362-9.082 0.819-10.39 0.77-3.739-0.142-4.604-2.834-8.754-2.116-2.313 0.4-15.831 2.798-16.065 3.559-1.22 3.971-0.283 6.567-4.329 9.428-5.412 3.828-6.064 9.881-11.544 13.757-6.112 4.321-12.76 2.255-10.005 13.276 0.668 4.278-1.583 7.246 2.02 11.063 3.73 3.95 5.836 0.385 10.293 0.385 1.604 0 3.121 1.711 5.002 1.924 2.185 0.247 7.953-4.429 9.043-1.347 5.184 14.663 16.096 16.446 29.822 18.855 6.329 1.11 0.366 7.106-0.577 11.833-1.551 7.767 9.396 5.155 13.66 8.947 5.007 2.808 3.662 2.63 2.79 7.6-1.127 6.43-2.241 9.774-8.658 12.506-5.356 2.281-5.286 3.248-7.792 7.985-3.407 6.442-9.577 3.871-12.795 9.812-3.638 6.719-0.448 13.776 1.924 20.298 0.534 2.734 1.556 8.691 2.694 11.063 0.994 2.075 2.314 5.213 2.405 7.504 0.168 4.242-1.541 7.543-0.192 12.121 1.199 4.067 3.287 4.853 1.828 9.62-0.835 2.725-2.165 4.675-1.443 7.6 0.439 1.781 1.403 3.21 1.924 4.906 0.725 2.362-1.858 5.299 1.347 6.734 3.446 1.542 6.37 1.998 9.524 4.521 1.727 0.5 2.669 1.716 4.137 2.694 2.278 1.516 4.888 2.249 7.215 3.656 2.648 1.601 5.315 3.019 7.792 4.906 2.164 1.647 3.12 4.329 6.349 4.329l2.597-1.154c2.127 0.531 4.626-3.715 7.407-3.848 2.735-0.131 1.707 3.204 1.828 5.195 0.152 2.514 1.626 13.016 2.501 14.815 1.211 2.492 7.417-1.016 9.043-0.289 1.59 0.713 1.719 3.247 4.04 2.694 2.036-0.485 2.764-2.98 4.618-2.79 1.31 0.135 10.777 7.784 12.025 9.331l3.222 6.535c-4.39 3.137-9.546 6.383-12.842 7.606-3.09 1.147-6.372 0.079-9.62 1.251-2.814 1.015-4.18 7.488-7.311 5.772-0.903-0.495-5.805 3.92-10.82 8.79 0.049 2.876 0.112 4.778 0.815 7.564 0.371 1.471 1.123 2.821 1.443 4.425 0.57 2.859 0.773 6.069-0.289 8.85-1.386 3.628-5.367 10.984-3.175 14.526 0.861 1.39 5.808 2.775 7.407 3.175 0.153 1.074 0.655 0.207 0.385 1.828 0 3.975-3.697 0.096-4.521 0.096-2.784 0-1.185 4.718-4.233 6.061-8.165 3.596-9.796 14.027-15.969 17.797-1.629 0.995-6.282 4.891-7.119 6.638-0.217 0.454-3.51 4.178-4.425 4.906-0.778 0.618-1.614 1.054-2.334 1.334l2.334 5.112c0.967 3.627 3.533 7.234-0.481 10.293-3.531 2.693-8.282 4.04-12.698 4.04-3.085 0-5.48 0.908-8.081 2.405-2.859 1.646-4.186 7.032-5.099 10.101-0.947 7.261-1.552 15.817-6.83 21.356-3.369 3.536-7.077 10.274-9.043 14.719-1.597 3.61-1.935 6.693-6.349 7.696-5.905 1.341-10.901 3.884-15.873 7.696-13.389 8.033-8.083 15.686-15.681 24.916-3.854 4.681-13.442 11.346-15.2 16.546-2.279 6.746 1.753 6.936-7.215 9.812-8.016 2.569-16.647 0.999-24.627 3.656-9.736 3.242-16.45 13.158-24.339 2.02-8.959-12.652-7.549-16.37-23.665-5.291-3.968 4.232-5.578 9.062-7.55 13.961h601.14c-1.878-8.255-6.343-1.851-12.252-0.979z" fill="#f93"/>
 <path d="m1027.3 580.99c2.152-2.767 0.807-13.068 0.385-16.45-2.044-2.044-7.671-8.432-10.486-8.081-4.65 6.51-12.921 8.081-20.491 8.081-2.975 0-2.51 3.427-3.848 5.291 1.614 1.076 2.922 0.841 2.79 3.175-0.113 1.981-1.724 4.313-2.405 6.253-0.423 1.205-0.925 2.35-1.436 3.475h35.468c0.014-0.558 0.023-1.137 0.023-1.744z" fill="#f93"/>
 <path d="m1429.4 555.02l1.539-3.463-6.638-3.078c-2.776-1.562-5.807-4.906-9.139-4.906-3.477 0-6.289 1.933-9.812 1.154-8.349-1.845-4.519-7.646-14.815-4.137-4.748 1.619-8.065-0.681-6.445-5.772 1.349-4.243 6.162-6.594 9.043-9.524 2.344-2.383-0.669-13.885-2.982-16.065-2.08-1.96-3.95-2.122-6.253-4.425-3.271-3.272-3.765 0.456-4.233 3.271-1.487 8.935-6.265 1.103-5.195-3.656 0.385-1.711 7.3-6.993 4.906-9.139-1.291-1.158-7.812-9.592-8.562-9.716-2.512-0.418-8.429 5.917-11.64 7.215-14.929 5.971-33.927 15.369-49.543 3.848-4.846-3.575-5.939-4.093-11.448-1.251-3.874 2-13.243 6.506-15.969 9.524-1.78 1.969-0.808 5.892-4.906 5.387-4.119-0.508-3.19 0.991-4.137 4.618-0.955 3.657-4.672 6.972-8.177 8.177-7.763 6.285-15.281 3.632-23.857 5.195-4.995 0.91-5.472 10.24-7.6 14.045-5.339 9.55-23.761 10.02-23.761 19.432 0 8.399-7.629 8.587-13.66 10.774-3.393 1.23-5.96-1.573-8.658-1.058-4.807 0.918-6.989 5.04-11.64 5.483l-15.522 2.698c-0.228 1.038-0.413 2.073-0.525 3.087h252.01c0.29-0.221 0.56-0.452 0.785-0.686 2.46-2.566 3.154-5.32 6.83-6.061 3.607-0.726 3.914-2.982 6.157-4.906 2.719-2.331 6.781-0.01 6.542-5.002-0.211-4.361-4.143-6.717-2.695-11.063z" fill="#f93"/>
 <path d="m1164.6 592.63c5.952 2.853 11.167-4.385 13.853 2.02 1.044 2.49 4.137 4.268 4.137 7.023 0 3.367-5.233 5.036-3.944 9.331 1.122 2.971 4.092 5.769 4.329 8.754 0.179 2.255 0.147 4.393-2.597 5.002-2.241 0.497-3.658-2.02-5.579-2.02-1.714 0-0.104 2.289-1.443 3.367-1.555 1.251-2.265-2.731-3.656-2.501-2.285 0.377-3.407 4.04-7.119 4.04-1.757 0-5.764 0.244-7.119-0.962-1.406-1.251-4.486-5.34-5.964-2.116-3.019 6.583-5.757 4.38-12.025 2.694-6.907 0-15.719 2.41-22.992 1.732-6.141-0.573-10.729-6.349-14.911-6.349-5.072 0-6.179 4.87-10.293 6.83-5.661 2.698-11.704 0.332-17.604 1.635-3.574 0.79-13.316-4.76-17.412-5.772-4.125-1.018-6.936 1.808-10.774 0.866-4.057-0.996-5.809-5.14-9.524-6.926-6.061-2.915-4.328-4.981-7.792-9.524-3.45-4.525 3.542-4.518 5.483-8.273-5.935-7.419-4.555-10.673-4.352-18.747h-35.468c-1.53 3.368-3.146 6.561-2.989 10.666 0.157 4.13 0.83 7.033 0 11.352-2.127 9.04 3.561 11.852 6.253 19.817 2.4 7.099 1.688 6.604-1.443 12.506-1.662 3.136 0.326 9.61-1.828 11.64-5.487 5.172-9.924-7.518-12.506-2.02-1.046 2.226-4.193 0.051-5.868 0.866-1.647 0.801-2.673 2.88-4.906 1.635-3.301-1.84-1.818-3.356-6.542-3.078-4.175 0-3.921 7.142-8.177 2.886-2.708-2.708-8.314-0.953-9.427-4.04-0.375-1.04-1.056-5.714-2.02-5.772-1.708-0.103-6.749 4.851-9.139 5.772-6.848 2.642-8.473-0.066-14.141-3.463-7.709-4.619-14.413-2.124-21.549-5.291-6.456-2.866-15.501 9.762-17.316-5.483-2.011-16.89-20.476 8.05-25.974-4.329-1.97-4.436-2.763-2.02-5.868-2.02-2.117 0-2.74-5.656-7.6-6.349-3.824-1.593-12.062-2.465-10.197-7.311 1.964-5.101 1.647-10.553-4.521-11.255-4.031-0.459-9.701-1.092-13.275-2.982-2.081-1.101-10.041-8.805-10.486-6.349-0.542 2.991-3.364 4.03-5.964 3.175-4.323-1.422-4.081 2.244-7.6 2.501-3.938-0.328-4.856-4.441-9.043-4.521l-9.909-0.192c-0.49 1.96 1.599 13.089-5.676 7.215-4.612-3.724-2.936-7.017-10.582-5.676-5.31 0.932-3.173-2.092-6.349-2.886-4.165-1.04-6.845 1.503-8.081-5.772-0.076-0.45-0.161-0.854-0.248-1.238h-601.14c-0.773 1.92-1.599 3.851-2.648 5.76-2.814 5.128-6.272 7.974-10.774 11.352-8.125 6.093-11.466 18.426-12.025 28.187-0.106 1.86 9.432 7.993 11.544 9.139 6.701 2.932 18.619-1.987 20.394 7.311 1.515 7.935-0.753 14.403-5.002 20.779-2.523 3.784 2.278 9.099 4.137 12.121 3.791 6.166 7.964 10.911 15.873 9.812 3.147-0.438 5.808-5.212 6.734 0.481 0.756 4.645 0.299 9.778 1.828 14.237 1.725 3.943 6.614 7.545 7.792 11.159 1.066 3.268 1.185 5.439 1.539 8.947 0.567 5.613 13.899 14.251 7.311 19.721-5.511 4.576 2.417 7.73-4.618 12.602-3.506 2.428-2.658 3.483-4.906 6.542-2.399 3.265-7.852 3.255-10.486 0.577-1.801-1.832-2.821-9.068-4.618-8.273-6.732 2.978-13.643 3.927-20.298 7.888-4.133 7.085-15.571 6.767-20.491 0.866-4.886-5.86-15.603 0.777-21.26-0.673-4.489-1.151-7.313 3.077-11.159 0.77-3.78-2.268-6.161 3.258-7.6-2.501-1.443 0-1.328 10.717-2.309 12.795-3.452 7.314-6.536 1.51-13.276 2.597-8.603 1.386-11.424 12.632-13.471 19.243l2e-3 2e-3c0.507 0.41 1.08 0.796 1.733 1.15 2.932 1.586 7.049 0.258 7.504-3.175 0.626-4.733 3.974-4.41 5.291-8.369 0.473-1.422 0.667-5.958 3.271-5.291 0.67 0.171-1.058 4.421-1.058 5.58 2.822 0.403 7.606-2.02 10.967-2.02 1.86 0-8.865 7.253-9.235 7.6-9.331 9.331-1.495 11.898 3.463 20.491 1.605 2.783-4.003 3.832-2.405 4.714 4.794 2.643 7.898 6.38 12.121 9.428 6.931 5.004 17.9 10.453 26.359 12.121 3.722 0.733 9.599 3.296 13.276 1.828 4.8-1.916 6.94-5.642 12.506-6.926 2.075-0.922 9.919-1.153 10.101-4.329 0.099-1.735 1.16-11.652 4.137-7.6 3.092 4.208 7.953 3.848 12.795 3.848 0 1.123-1.543 2.294-2.02 3.367-0.721 1.618-0.399 3.053-0.77 4.714-0.483 2.157-2.26 0.458-3.944 1.058-2.546 0.906-2.573 5.652-4.425 7.504-3.265 3.265-5.219 10.975-10.678 10.197-5.214-0.744-4.903 1.112-8.85 4.233-2.707 2.139-3.772 2.891-6.83 1.058-2.857-1.711-3.231 5.912-7.696 4.04-4.217-1.767-7.438 1.98-12.217 3.175-1.677 0.958-5.642 2.623-7.119 0.577-1.488-2.06 1.058-4.33 1.058-6.734-0.434 0.109-0.959 1.354-2.02 1.635-1.05 0.278-4.12 0.209-4.906-0.577-0.344-0.344 0.096-3.289 0.096-3.944-0.487 0-3.092 3.94-3.559 4.618-2.457 3.56 3.48 10.112 5.195 13.179 3.761 6.726 10.222 11.298 15.103 16.931l20.106 19.913 29.822 27.128c17.345 15.778 28.965 4.608 47.811-2.405 3.024-2.218 3.563-4.306 7.792-3.656 4.05 0.622 11.583-5.68 15.969-7.023 4.115-1.261 6.217-2.372 5.291-6.542-0.47-2.116 5.465-10.582 6.83-12.891 4.106-6.943 0.796-8.538-1.058-15.584 1.888-7.405 3.115-12.867 6.542-19.721 1.889-3.78-1.773-5.709-0.096-10.101 1.804-4.722 0.68 10.878 5.291 8.947 3.235-1.356 5.552-4.679 9.524-2.694 2.371 1.185 4.706 0.369 7.131 0.147 1.632-0.15 0.763-0.124 0.21 0.573-0.392 0.497-0.711 1.151-1.185 1.492-2.461 1.777-6.542-0.192-9.235 2.309-1.939 1.801-5.905 14.324-1.154 13.083 1.791-0.467 6.116-3.43 7.504-3.271 0.25 0.028-1.381 3.111-1.732 3.848-1.317 2.762-0.915 5.545-2.886 8.273-1.372 1.901-5.333 2.997-0.77 2.597 4.142-0.363 7.069 0.656 10.678 1.732 0.678 0.202-2.789 1.194-3.175 1.539-1.365 1.225-1.54 3.248-2.501 4.81 0.188 0.668 1.802 3.033 0.962 3.559-3.879 2.431-3.781 2.344-1.539 5.772 2.265 3.465 2.455 2.307 0.096 4.81-5.601 5.941 4.562 3.726 5.964 7.696 0.661 1.87 1.224 2.892 2.309 4.618 2.078 3.303-2.735 5.193 1.924 7.985 2.223 1.333-1.693 10.112-1.828 13.66-0.252 6.606-2.698 11.269-4.714 17.316-1.528 3.762-3.88 7.31-4.04 11.544-0.125 3.279 0.462 6.41 0.77 9.62 0.368 3.835 0.285 7.567 0.77 11.352 0.673 5.252 3.642 4.085 7.6 2.501 0.043-0.176 0.016-0.149 0.192-0.192 0.277 0.422 0.589 1.169 0.866 1.539-0.405 0.54-1.938 1.003-2.597 1.443-1.209 0.805-3.787 1.518-4.04 3.175-0.144 0.945-0.663 1.459-0.192 2.501 0.659 1.459 3.268 0.666 4.521 1.251 0.368 0.184 3.815 2.405 1.443 2.405-5.298 0-4.596 0.936-3.752 4.906 0.677 3.179-1.181 6.404 0.192 9.524 3.602 8.178 7.888-10.798 7.888-4.618 0 6.325 7.327 1.933 2.597 5.772-2.203 1.788-7.988 3.106-4.329 6.061 1.091 0.88 4.043 4.329 1.058 4.329-5.744 0-6.844-1.178-4.233 4.137 0.848 1.727 1.125 3.624 1.732 5.387 0.491 1.426 2.52 2.075 2.886 3.175-7.071 0-2.196 6.583-1.347 9.716 0.327 1.212 4.591 3.387 2.694 3.752-2.843 0.547-2.192 4.289-1.443 6.349 0.23 1.907 2.605 5.749 3.752 7.503 3.636 5.56 4.62 19.114 5.002 25.781 0.217 3.792 0.757 7.42 1.473 10.981h444.71l22.31-13.386c8.981-5.389 12.965-10.213 18.663-18.759 4.198-2.755 6.554-7.505 11.255-9.909l21.645-11.063c4.617-2.36 4.041-9.356 6.349-10.774 3.036-1.867 2.782-0.467 5.772-4.233l12.602-15.873c4.146-5.222 5.887-11.082 10.87-16.065 4.082-1.361 17.262-11.095 19.56-16.294 0.293-0.666 0.486-0.917-0.188-0.251-1.844 1.824-8.79 7.942-8.79 3.365 0-1.811 8.804-14.384 10.871-15.584 5.445-3.161 7.31-5.389 10.293 0.577 0.429 0.86-15.234 13.14-8.177 9.043 7.231-4.199 14.279-5.206 21.933-8.466 5.888-2.507 12.949-3.253 19.144-5.387 5.304-1.827 2.673-5.227 2.982-5.099 5.024 2.099 8.691-6.722 11.063-9.524 1.542-1.82 4.521-2.124 4.521-5.002 0-2.892 1.571-4.66 3.271-6.926 2.091-1.27 2.638-4.202 4.521-5.868 2.76-2.443 7.696-2.855 7.696-7.119 0-7.294-4.266-11.909-5.291-18.855-1.116-7.571-1.776-10.999 4.906-15.007 3.78-2.266 6.197-6.618 10.39-8.369 5.383-2.248 11.693-1.908 17.412-4.81 2.613-1.325 6.113-1.708 8.947-2.79 3.66-1.397 5.842-5.648 9.235-7.792l7.023-6.926c2.762-2.725 6.331 9.364 7.119 11.929 0.283 0.92 0.915 8.002 3.175 5.58 7.596-8.141 4.873-4.528 10.197-0.577 1.704 1.264 7.28 0.524 10.39 1.635 6.155 2.201 2.622-9.292 7.119-7.311 2.048 0.901 7.307 3.41 11.376 3.767l-4.546-6.749c0.353 0.023 0.615 0.069 0.962 0 0-1.69-1.25-3.395-1.25-5.387 3.707-0.618 3.28-3.539 2.02-6.349-1.275-2.846 0.385-2.768 0.385-5.291 0-3.947-2.981-7.463-4.329-10.967-0.768-1.995-0.229-4.606-1.058-6.638-0.995-2.436-1.248-5.153-2.02-7.6 2.248-4.074 2.118-13.79-1.635-16.931-3.8-3.179 1.721-6.84 2.79-10.005 1.347-3.983-2.855-3.793-5.772-4.906-1.399-0.534-8.008-1.073-5.868-3.752 3.007-3.763 4.23-7.502 0.192-10.678-1.56-1.227-3.13-0.967-4.425-2.982-1.749-2.722-2.412-7.426-2.597-10.774 1.323-1.628 2.158-3.189 4.136-3.944 7.271-2.776 2.583-10.001 3.175-15.392 0.247-2.254 0.388-7.215-2.79-7.215-2.656 0-4.85-0.226-7.311-1.251l-4.412 0.046c-0.643-1.099-1.265-2.303-1.841-3.605-1.515-3.426-6.011-4.242-9.462-5.909-1.35-0.652-2.543-1.436-3.333-2.556-1.647-2.337-1.728-5.784-2.691-8.202l3.75-4.4c0.842-1.017 2.962-5.499 3.271-6.734 2.087-0.298 3.703-0.054 4.233 2.597 1.822 0.26 6.447-5.968 7.215-7.504 1.665-3.33-0.726-6.788 3.174-8.947 1.98-1.095 12.868-0.588 15.007 0.481 1.944 0.972 2.379 2.96 3.848 0.192 0.612-1.155 3.848-3.604 3.848-4.521-8.881 0-5.45-5.94-6.734-10.486-0.835-2.958-6.843 0.853-9.716-2.02-0.971-0.971-1.659-3.079-2.982-3.463-3.711-1.076-3.758-0.136-5.964-3.752-1.474-2.417-6.445-7.529-9.235-7.407-1.793 0.078-4.026 1.057-5.483-0.289-2.558-2.362-1.05-4.531-2.213-7.023 5.807-3.695 2.283-9.539 8.85-12.506 1.04-0.47 8.337-7.113 8.947-8.273 3.496-6.641-8.442-4.562-2.405-11.64 2.361-2.767 2.897 1.25 5.195 3.078 1.694 1.347 5.229 3.116 5.772 5.291 2.131 0.532-1.208 2.982 5.483 2.982 1.773 0 12.41 8.715 12.41 2.886 0-3.999-7.6-8.054-0.192-7.792 4.879 0.173 0.953 4.829 2.213 7.985 2.497 6.25 17.183 16.442 23.858 15.488 0-1.645 3.213-11.736 4.81-11.736 0.924 0 0.538 3.335 0.962 4.137 3.869 7.293 8.702 5.604 6.927 14.719-1.768 9.078 2.652 12.596-2.79 22.703-0.476 7.14 7.954 5.904 12.698 8.273 8.826 4.407 17.003 5.284 26.936 4.329 4.566-0.438 8.433 1.798 12.698 1.251 2.163-0.278 3.959-1.751 6.061-2.02 2.223-0.284 4.925 0 7.215 0 3.351 0.744 5.549-1.925 8.754 0.289 8.13 5.612 21.019 1.432 30.11 0.096 6.201-0.911 34.997 13.362 17.124 16.931-3.24 0.647-5.3-0.911-4.329 3.463 0.609 2.742-1.528 9.255-3.656 10.967-1.754 1.412-2.309 8.561-2.886 10.871-1.443 0-5.441-3.176-5.772-0.192 0.092 0.85 0.701 2.585-0.289 3.078-0.523 0.261-1.389-0.266-1.539-0.866-0.227-0.057-0.3-0.096-0.577-0.096-0.133 0.534-2.411 14.727-4.425 8.369-0.41-1.296-1.368-4.448-3.271-3.944-1.317 0.348 2.352 7.428-1.924 5.291-1.272-0.636-2.125-4.985-3.367-2.501-1.31 2.622-0.621 5.964-4.521 5.964-2.765 0-6.383-1.507-8.947-0.866-0.341 1.367 1.879 3.047-0.289 4.329-2.76 1.632-6.349 0.411-6.349 5.195 0 2.376 0.906 6.237-1.347 7.792-4.544 3.137-4.011 5.887-0.962 10.39 3.237 4.781 3.944 7.662 3.944 13.66 1.373 2.908 1.846 10.307 3.848 12.121 1.275 1.157 2.003-4.848 1.732-5.772-0.43-1.465-0.718-4.857 1.443-4.425 1.859 3.718 5.095 14.712 10.101 13.757 7.391-1.41 7.473-4.909 7.792-11.544 0.289-6.013-0.199-5.296 4.617-9.428 6.298-5.403 0.322-10.304 2.982-15.392 1.178-2.251 2.356 3.012 4.425 2.886 1.604-0.097 2.669-4.095 5.195-3.463 0.831 3.326 3.566-0.577 4.521-0.577 1.019 2.037-0.059 4.957 0.481 7.696 1.41 7.153 5.063 8.167 2.79 15.873-1.995 6.759 2.308 17.451 5.868 22.607 1.593 2.308 1.558 8.916 2.309 11.833l4.233 16.45 0.77 13.853c4.246 0 4.382-4.636 5.195-7.888 0.195 0 4.387 4.09 5.099 4.618 4.868 3.614 1.114 6.894 7.696 1.635 2.99-2.389 2.126-7.53 5.868-8.466 5.599-1.399 5.47-10.108 2.405-14.238-3.995-5.385-2.169-15.268-0.385-21.068-0.144-1.871-1.386-8.601 0.481-9.139 2.714-0.783 2.073 2.656 4.04 3.463 5.952 2.443 5.676-9.516 5.676-11.929 0-8.231 5.105-18.292 2.79-26.936l-2.501-9.331c-0.486-1.815-2.32-6.617-0.096-7.985 2.003-1.231 3.774 4.779 4.521 5.772 2.77 3.677 7.529-1.691 11.929-0.77 2.345 0.491 4.743 3.448 6.83 2.405 4.456-2.227 7.244 2.594 10.39 4.906 5.066 3.722 7.138-11.106 8.466-14.141 2.903-6.148 3.584-12.234 7.503-17.893 5.222-7.542 12.124-16.352 14.43-25.301 0.891-3.458 2.629-8.383-1.154-10.39-4.072-2.159-7.597-3.524-4.521-9.235 1.411-2.739 2.442-7.379 5.387-8.85 2.836-1.418 3.86 1.132 5.676-2.116 2.51-4.488 6.921-7.628 10.197-11.448 1.813-2.113-3.045-8.145-0.385-10.293 5.912-4.773 5.075-3.656 3.463-10.101-0.555-2.222 0.143-4.726-0.674-6.926-1.316-3.55-1.885-5.653-1.539-9.812 1.149-3.041 3.047-9.653 6.061-11.159 2.633-1.316 5.944 1.436 8.562-0.481l10.774-7.888c2.36-1.728 7.26-5.481 7.311-6.83 0.171-4.488 6.377-2.501 8.466-5.868 6.801-10.965 15.439-9.28 26.07-12.314 8.048-2.297 7.459-5.145 14.719-0.481 3.223 2.071 1.151 5.424 4.329 6.83 3.025 1.338 14.715 6.038 12.506 2.597l-11.929-18.567c-0.713-1.664-1.74-5.458-1.155-7.215 4e-3 -0.012 1.875-0.858 3.256-1.912h-252.01c-0.448 4.019 0.339 7.71 4.882 9.888z" fill="#fff"/>
 <path d="m147.88 828.13c1.618 0.539 3.099 0.074 4.618-0.77v-2.79c-0.632 0.226-0.949 0.054-1.443-0.481-0.904-0.978-1.559-2.548-2.982-2.694-1.414-0.145-1.154 0.971-1.154 2.02 0 0.719 0.154 1.458 0.096 2.213-0.071 0.935-0.359 2.095 0.865 2.502z" fill="#fff"/>
 <polygon points="1217.1 1357.1" fill="#128807"/>
 <path d="m1209.2 1396.6c0.23 0.087 0.809 0.247 1.058 0.192 0.353-0.076 1.216-0.396 1.347-0.673 0.227-0.481 0.258-1.055 0.481-1.539 0.158-0.343 0.406-0.682 0.481-1.058l-0.192-2.309c-0.261 0.26-0.569 0.622-0.866 0.866-0.458 0.375-0.735 0.827-1.347 0.962-0.382 0.085-1.923-0.557-1.732 0.192 0.149 0.58 0.096 1.281 0.096 1.924 0 0.59 0.066 1.212 0.674 1.443z" fill="#128807"/>
 <path d="m1215 1357.4l2.136-0.28c0-1.579-1.561-4.514-0.481-5.483 1.647-1.476 2.96 0.356 4.81 0 4.458-0.857 0.674-8.162 0.674-10.582 0-2.074 1.51-4.923 0.866-6.83-1.55-4.586-5.001-2.975-2.694-7.888 0.609-1.299-0.392-2.859 0.289-4.329 0.781-1.683 4.406 0.584 5.099-0.962 0.352-0.786-0.854-5.67-0.673-7.215 0.362-3.083-2.513-2.726-3.175-4.714-0.376-1.129 1.767-2.232 2.501-2.694 2.178-1.369 1.106-6.045-0.674-6.638-0.346 1.04-4.382 4.717-5.291 6.253-2.185 3.695 0.134 4.98 0.289 8.369 0.102 2.228-0.834 4.185-1.443 6.253-0.97 3.294 0.033 6.479-0.962 9.716-0.935 3.038-7.968 6.417-1.251 10.39 0.597 1.937-2.837 1.205-3.989 2.716-0.763 1.002 0.17 3.055 0.339 4.171 0.385 2.528-1.279 4.286-1.356 6.643-0.104 3.18 2.57 3.104 4.986 3.104z" fill="#128807"/>
 <path d="m1201.8 1428.6c-0.587-2.29-3.005 1.041-3.944 1.539-1.005 0.532-1.755 1.105-2.694 1.732-2.473 1.648-0.802 7.557-0.481 9.909l1.347 1.251c1.336 1.336 4.284 2.45 5.772 0.962 0.801-0.801 0.674-3.12 0.674-4.329 0-3.794 0.267-7.398-0.674-11.064z" fill="#128807"/>
 <path d="m1213 1511.7c0.387-0.141 0.924-0.42 1.259-0.655l0.847-0.703c0.707-0.631 0.354-1.351 0-2.109-0.119-0.256-0.635-2.238-1.114-1.867-0.445 0.346-0.535 1.046-0.847 1.503-0.524 0.768-1.512 0.905-1.258 2.085 0.187 0.867-0.117 2.194 1.113 1.746z" fill="#128807"/>
 <path d="m307.39 1463.6c-0.081 0.049-0.211 0-0.26 0.064-0.406 0.537-0.521 1.009-0.521 1.69 0 0.359-0.033 0.586 0.065 0.911 0.033 0.113 0.162 0.146 0.195 0.26 8e-3 0.021 0.52 1.7 0.52 0.78 0-0.26-0.13-0.39-0.13-0.65 0-0.813 0.292-1.219 0.455-2.016 2e-3 -0.423-0.096-0.699-0.324-1.039z" fill="#128807"/>
 <polygon points="307.72 1464.7" fill="#128807"/>
 <path d="m1206.9 1378.5c-0.071 1.815 0.175 3.42-1.635 1.443-0.651-0.71-2.167-3.795-2.02-0.577 0.046 1.005 0.761 2.941 1.347 3.752 0.54 0.749 1.389 0.797 1.924 1.539 0.53 0.733 0.469 4.137 1.732 4.137 0.265 0 1.196-2.683 2.116-3.271 0.61-0.389 1.179 0.608 1.347 1.155 0.542 1.768 1.278 2.906 1.635 0.481 0.367-2.488 1.327-4.919 1.924-7.311-0.614 0.614-3.78 2.895-4.04 1.539-0.531-2.766 1.539-5.71 1.539-8.369 0-1.199-0.472-1.445-0.866-2.405-0.5-1.223-0.357-2.531-0.192-3.848l-0.192-1.155c-1.431 0.613-1.611-1.443-2.597-1.443-1.878 0-1.112 6.271-1.347 7.504-0.398 2.079-0.59 4.688-0.675 6.829z" fill="#128807"/>
 <path d="m1251.9 1568.4l0.387-0.679c0-0.247 0.082-0.445 0.145-0.679 0.074-0.271 0.04-0.599 0-0.874-0.049-0.345-0.222-1.386-0.484-1.6-0.226-0.183-0.773 0.406-0.871 0.533-0.337 0.438-0.735 0.808-1.307 0.922 0 0.186 0.108 0.217 0.193 0.388 0.199 0.4 0.498 0.811 0.775 1.164 0.331 0.423 0.597 0.899 1.162 0.825z" fill="#128807"/>
 <path d="m1256.7 1600c0.282-0.406 1.825-2.544 2.276-2.618 0.159-0.642 0.195-4.753-0.63-4.753-0.209 0.265-0.31 0.607-0.435 0.922-0.25 0.625-0.929 1.467-1.452 1.891-0.957 0.777-1.726 0.715-1.646 2.085 0.074 1.274 3e-3 2.427 0.339 3.686l1.548-1.213z" fill="#128807"/>
 <path d="m1268.1 1614.3c-0.078-2.846-2.282-4.863-2.469-7.662-0.048-0.718 0.618-3.802 0.242-4.074-0.621-0.448-4.685 1.779-5.567 2.037-0.688 0.201-1.912 0.227-2.469 0.63-0.873 0.631-0.867 4.642-0.533 5.625 0.712 2.09 2.019 3.343 3.39 4.995 0.287-0.513 0.522 0.751 0.677 1.115 0.765 1.147 1.78 6.265 2.905 6.644 2.853 0.961 1.752-3.339 1.888-4.413 0.215-1.699 1.98-3.282 1.936-4.897z" fill="#128807"/>
 <path d="m1214.3 1365.8l-1.347 3.271c0.119 1.07 1.355 2.043 2.02 0.866 0.495-0.877 0.763-1.597 1.058-2.501 0.52-1.596 1.314-3.014 1.732-4.714 0.279-1.141 1.443-2.395 1.443-3.463-0.787-0.196-1.474 0.096-2.309 0.096-0.708 0-1.31-0.192-1.924-0.192-0.161 0.644-0.481 1.204-0.481 1.924 0 0.801 0.443 1.648 0.289 2.405-0.149 0.734-0.429 1.573-0.481 2.308z" fill="#128807"/>
 <path d="m256.94 1648.7c0.244-1.459-0.181-0.87-0.78-0.13-0.065 0.081-0.211 0.049-0.26 0.13-0.146 0.196-0.195 0.39-0.195 0.651 0 0.032 6e-3 0.063 8e-3 0.094h0.973c0.015-0.298 0.207-0.448 0.254-0.745z" fill="#128807"/>
 <path d="m1249.2 1555.8c0.102-0.524 0.13-1.358-0.532-1.358-1.171 0-1.677 1.67-2.276 2.424-0.378 0.478-0.509 0.342-0.436 1.019 0.099 0.928 1.005 2.237 1.646 2.861l0.29 0.631c0.517-0.231 0.826-0.148 1.114-0.728 0.205-0.411-0.084-0.731-0.242-1.067-0.435-0.929-1.038-1.245-0.533-2.328 0.247-0.53 0.837-0.783 0.969-1.454z" fill="#128807"/>
 <path d="m1230.6 1556.8l0.823-0.728c0.454-0.34 1.598-1.055 1.162-1.746-0.337-0.536-0.718-1.093-1.162-1.552-0.348-0.362-1.818-3.676-2.372-2.909-0.524 0.725-1.321 1.768-1.452 2.667-0.23 1.577 0.997 1.573 1.888 2.279 0.59 0.469 0.828 1.318 1.113 1.989z" fill="#128807"/>
 <path d="m1243.2 1566.1c-0.266-0.192-0.822 0.064-1.162 0.097-0.603 0.061-3.185-0.71-2.033 0.728 0.489 0.611 1.265 1.052 1.694 1.697 0.238 0.357 0.109 0.979 0.194 1.407 0.119 0.6 1.319 0.126 1.839 0.242 0.357 0.08 0.849 0.361 1.162 0.534 0.658 0.363 0.698 0.166 1.016-0.437l-1.21-2.424c-0.637-0.512-0.903-1.414-1.5-1.844z" fill="#128807"/>
 <path d="m288.14 1619.2c-0.032-0.211-0.308-0.26-0.536-0.26-0.13 0-0.163 0.163-0.244 0.26-0.097 0.114-0.13 0.228-0.13 0.39 0 0.211 0.228 0.276 0.39 0.39 0.293-0.195 0.585-0.439 0.52-0.78z" fill="#128807"/>
 <path d="m286.32 1622.8l0.26 0.196c0.228-0.228 0.114-0.521 0.13-0.846-0.228 0.179-0.341 0.357-0.39 0.65z" fill="#128807"/>
 <path d="m241.85 1424.3c0 0.228 0.227 0.31 0.26 0.521 0.081 0.39 0 0.634 0.065 1.04l0.26 0.065c0.374-0.326 0.732-0.423 1.235-0.455 0-0.097 0.065-0.147 0.065-0.244 0-0.227-0.13-0.325-0.195-0.536-0.065-0.244 0.033-0.552-0.195-0.65-0.178-0.065-0.341 0.033-0.52 0-0.195-0.032-0.309-0.195-0.521-0.195-0.243 0-0.454 0.211-0.454 0.454z" fill="#128807"/>
 <path d="m244.97 1463.9c-0.78 0.455-1.073 0.975-1.755 1.56-0.276 0.228-0.472 0.374-0.715 0.65-0.455 0.504-0.764 0.764-1.236 1.235-0.178 0.179-0.389 0.277-0.455 0.521-0.081 0.26-0.033 0.423-0.033 0.699v1.317c0.342-0.049 0.521-0.162 0.813-0.325 0.407-0.227 0.748-0.244 1.171-0.455 0.309-0.162 0.471-0.374 0.78-0.52 0.292-0.147 0.487-0.292 0.78-0.455 0.31-0.162 0.65-0.195 0.781-0.52 0.163-0.374 0.195-0.635 0.195-1.04 0-1.042-0.114-1.66-0.326-2.667z" fill="#128807"/>
 <path d="m287.1 1616.1c0.016-0.129-0.064-0.276-0.195-0.325-0.227-0.098-0.406 0.162-0.52 0.39-0.05 0.114-0.195 0.13-0.195 0.26 0 0.098 0.065 0.163 0.065 0.26 0.406-0.032 0.764-0.195 0.845-0.585z" fill="#128807"/>
 <path d="m231.38 1415.2c0.162 0 0.195-0.162 0.325-0.26 0.195-0.147 0.423-0.227 0.52-0.455 0.236-0.57 0.666-1.648-0.195-0.91-0.276 0.146-0.488 0.228-0.78 0.325-0.244 0.081-0.52 0.13-0.52 0.39 0 0.276 0.146 0.455 0.325 0.65 0.097 0.114 0.162 0.26 0.325 0.26z" fill="#128807"/>
 <path d="m220.2 1381.3c0.406 0.195 0.699 0.244 1.106 0.455 0.195 0.098 0.292 0.325 0.52 0.325 0.211 0 0.309-0.196 0.455-0.325-0.407-0.748-1.203-0.943-1.95-1.365l-1.04-0.39-0.261 0.065-0.13 0.52c0.114 0.423 0.341 0.764 0.781 0.846l0.519-0.131z" fill="#128807"/>
 <path d="m260.8 1444.4c-0.027-0.772 0.013-1.276 0.027-1.961-0.264-0.538-0.45-1.012-1.034-1.29-0.162-0.064-0.358 0.033-0.52 0-0.292 0.748-0.52 1.236-0.52 2.049 0 0.454 0.097 0.715 0.13 1.17 0.747-0.033 1.17 0.032 1.917 0.032z" fill="#128807"/>
 <path d="m238.93 1428.8c0-0.098-0.065-0.162-0.065-0.26 0-0.179 0.162-0.39 0-0.455-0.39-0.163-0.65 0.065-1.073 0.065v1.235c0.488-0.032 1.138-0.097 1.138-0.585z" fill="#128807"/>
 <path d="m284.89 1625.4c0.114 0 0.146 0.13 0.26 0.13 0.325 0 0.147-0.455 0.195-0.781-0.227 0.18-0.358 0.359-0.455 0.651z" fill="#128807"/>
 <path d="m291.98 1137.9l7.504 35.113c0.483 2.256 1.161 5.234 2.694 7.022 3.497 4.083 4.4 4.363 6.253 9.428 1.795 4.906 3.3 8.516 5.964 13.083 3.569 3.569 8.082 2.862 1.058 4.618 0 0.734 6.157 2.178 6.157 5.676 0 5.37-0.929 9.405 3.463 12.698 1.787 1.341 1.225 4.626 3.078 5.964 0.656 0.472 1.932 0.86 2.79 0.481 0.357-0.158 2.25-0.912 2.405-0.289-3.155 1.051-3.333 6.009-0.192 7.407 6.189 2.756 6.192 6.929 9.139 12.217 1.599 2.868 1.058 5.189 1.058 8.273 0 3.848 3.078 7.404 3.078 11.063 1.607 4.686 5.953 10.362 8.273 15.199 3.365 7.019 3.206 18.104 5.002 25.781l6.349 27.128c3.78 4.953 8.805 14.845 10.582 20.971 0.97 3.341 4.645 10.954 7.888 12.314 5.738 2.405 2.306 0.175 5.291 6.253 2.736 5.572 8.5 8.841 10.967 15.488 2.265 6.1 7.864 12.369 8.369 18.951 1.782 3.321 2.862 3.421 3.367 7.215 0.711 5.336 3.646 9.21 5.964 13.853 3.985 7.981 5.458 17.152 9.331 25.204 3.719 7.733 8.64 16.535 11.159 24.723 0.589 2.618 1.086 5.353 1.347 7.888 0.168 1.644-5.486 1.358-3.752-3.848 0.915-2.747-2.213-5.171-2.213-7.6-1.055 0 0.068 7.256 0.289 8.754 0.866 5.892 1.73 14.001 6.061 18.663 1.853 1.995 3.915 11.445 5.58 10.486 1.811-1.045 6.297-1.035 3.367 1.347-1.28 1.041-4.841 1.315-3.367 3.656 1.778 2.825 5.268 4.011 7.311 7.311 2 3.23 6.407 10.3 9.428 12.313 3.89 6.646 12.903 14.208 20.202 17.124 5.453 2.178 8.705 2.763 13.564-1.443 1.502-1.3 4.177-1.439 6.061-1.924 5.225-1.347 16.252-11.253 17.701-16.45 1.471-5.281 0.931-17.262 4.04-21.26 3.064-1.763 6.142-5.129 9.428-6.061l26.455-7.504c6.122-1.736 12.331 1.135 17.797 2.501-1.458-5.833-8.059-3.255-11.929-3.848-11.497-1.76-8.507-14.847-2.886-21.164 2.693-3.025 6.921-8.793 8.947-12.218 2.816-4.763-2.004-9.099 3.559-13.179 5.14 0.604 8.461-6.673 15.103-4.137 2.312 0.882 7.32 1.224 8.85 2.309 2.251 1.594 4.256 1.394 2.694-1.828-1.37-2.827-0.096-11.708-0.096-15.296v-9.235c-1.292 0-4.725 2.929-5.291 1.924-0.241-0.427 2.214-4.279 2.501-5.483 0.763-3.205 4.017-8.104 0.866-11.255-1.092-1.092 0.385-4.062 0.385-5.483 0-2.493-1.631-5.245-1.924-7.888-0.398-3.187-2.501-5.474-2.501-8.947 0-7.349 6.153-19.246 8.754-26.359 1.631-4.459 4.431-7.495 7.311-11.063 1.533-1.898 2.843-3.223 4.04-5.387 1.275-2.303 1.045-5.05 2.116-7.407 4.016-7.414 2.449-15.951 4.425-23.954 0.929-3.76 2.018-8.614-0.192-11.929-3.594-5.393-9.524-2.156-9.524-10.197 0-0.788 0.839-7.647 2.405-5.098 0.644 1.047 2.642 4.617 4.137 4.617 0-2.594-1.557-5.716 0.289-8.177-1.006-1.342-4.566-8.261-5.002-10.005 1.151-3.275-0.192-7.466-0.192-10.967 0-5.206 5.187-7.499 2.982-13.564-5.97-16.417-10.242-30.542-0.673-46.945 2.84-3.652 2.927-13.335 7.792-15.488 4.138-1.83 20.441-9.475 23.665-3.848 3.201 5.588 3.241 4.453 6.061 0.192 1.875-2.833 6.033-2.399 7.6-5.099 3.206-5.519 3.981-13.523 6.638-19.24 3.313-7.13 3.595-2.213 8.273-2.213 2.147 0 3.493-1.307 5.58-1.828 2.102-0.524 3.042 1.931 5.58 0.962 3.413-1.302 8.812 0.391 11.64-1.25 3.694-2.146 6.116-6.225 8.658-9.331 2.096-0.511 8.543-2.175 9.043-4.425 0.573-2.587-1.881-5.719-2.405-8.466-0.592-3.103 5.978-13.591 8.658-15.2l7.031-4.219h-444.71c1.467 7.302 3.684 14.309 5.453 21.829z" fill="#128807"/>
 <polygon points="261.55 1642.8" fill="#128807"/>
 <path d="m272.15 1634.4c0-0.276-0.114-0.601-0.39-0.601-0.114 0-0.163-0.081-0.26-0.13l-0.26 0.065c0.081 0.52 0.389 0.813 0.845 1.04 0.016-0.147 0.065-0.228 0.065-0.374z" fill="#128807"/>
 <path d="m261.55 1642.8c0.098 0 0.147 0.065 0.244 0.065 0.341 0 0.52-0.276 0.731-0.521-0.195-0.114-0.374-0.228-0.585-0.195-0.276 0.05-0.341 0.357-0.39 0.651z" fill="#128807"/>
 <path d="m260.84 1442c0 0.139-3e-3 0.256-6e-3 0.379 0.044 0.09 0.085 0.177 0.136 0.271l-0.13-0.65z" fill="#128807"/>
 <path d="m271.24 1640.2c0.227 0 0.211-0.309 0.26-0.52 0.033-0.129 0.064-0.244 0.064-0.39s-0.113-0.276-0.26-0.26c-0.195 0.016-0.26 0.179-0.389 0.325v0.78c0.13-0.015 0.195 0.065 0.325 0.065z" fill="#128807"/>
 <path d="m280.02 1631.8c-0.162 0.244-0.178 0.471-0.195 0.78l0.26 0.065c0.261-0.26 0.244-0.552 0.195-0.91-0.081 0.049-0.228 0-0.26 0.065z" fill="#128807"/>
 <path d="m277.81 1552v1.04c0.179 0.016 0.276 0.065 0.455 0.065 0.146 0 0.146-0.195 0.26-0.26 0.357-0.227 0.666-0.179 1.106-0.13 0.016-0.227 0.064-0.341 0.064-0.569 0-0.39-0.374-0.748-0.65-0.992-0.504 0.294-0.796 0.456-1.235 0.846z" fill="#128807"/>
 <path d="m282.03 1628.9l0.261 0.065c0.081-0.065 0.227-0.032 0.26-0.13 0.146-0.374-0.065-0.503-0.13-0.91-0.244 0.195-0.374 0.406-0.455 0.715l0.064 0.26z" fill="#128807"/>
 <circle cx="560.33" cy="849.4" r="225.02" fill="#008"/>
 <circle cx="560.33" cy="849.4" r="196.9" fill="#fff"/>
 <circle cx="560.33" cy="849.4" r="39.379" fill="#008"/>
 <ellipse transform="matrix(.1305 -.9914 .9914 .1305 -210.69 1510)" cx="755.54" cy="875.1" rx="9.845" ry="9.845" fill="#008"/>
 <path d="m560.33 1046.3l6.751-118.14-6.751-56.256-6.751 56.256 6.751 118.14z" fill="#008"/>
 <ellipse transform="matrix(.3827 -.9239 .9239 .3827 -396.16 1256.6)" cx="742.24" cy="924.75" rx="9.845" ry="9.845" fill="#008"/>
 <path d="m509.37 1039.6l37.097-112.36 8.039-56.086-21.081 52.592-24.055 115.86z" fill="#008"/>
 <ellipse transform="matrix(.6088 -.7934 .7934 .6088 -488.63 947.68)" cx="716.54" cy="969.27" rx="9.845" ry="9.845" fill="#008"/>
 <path d="m461.88 1019.9l64.915-98.935 22.282-52.095-33.974 45.344-53.223 105.69z" fill="#008"/>
 <ellipse transform="matrix(.7934 -.6088 .6088 .7934 -471.62 621.88)" cx="680.19" cy="1005.6" rx="9.845" ry="9.845" fill="#008"/>
 <path d="m421.1 988.63l88.31-78.763 35.006-44.553-44.553 35.006-78.763 88.31z" fill="#008"/>
 <ellipse transform="matrix(.9239 -.3827 .3827 .9239 -346.28 321.77)" cx="635.68" cy="1031.3" rx="9.845" ry="9.845" fill="#008"/>
 <path d="m389.81 947.85l105.69-53.223 45.344-33.974-52.095 22.282-98.935 64.915z" fill="#008"/>
 <ellipse transform="matrix(.9914 -.1305 .1305 .9914 -131.34 85.429)" cx="586.03" cy="1044.6" rx="9.845" ry="9.845" fill="#008"/>
 <path d="m370.14 900.36l115.86-24.056 52.592-21.081-56.086 8.039-112.37 37.098z" fill="#008"/>
 <ellipse transform="matrix(.1305 -.9914 .9914 .1305 -570.83 1438.3)" cx="534.63" cy="1044.6" rx="9.845" ry="9.845" fill="#008"/>
 <path d="m363.43 849.4l118.14 6.751 56.256-6.751-56.256-6.751-118.14 6.751z" fill="#008"/>
 <ellipse transform="matrix(.3827 -.9239 .9239 .3827 -653.42 1084.7)" cx="484.98" cy="1031.3" rx="9.845" ry="9.845" fill="#008"/>
 <path d="m370.14 798.44l112.36 37.097 56.086 8.039-52.592-21.081-115.86-24.055z" fill="#008"/>
 <ellipse transform="matrix(.6088 -.7934 .7934 .6088 -625.48 742.88)" cx="440.47" cy="1005.6" rx="9.845" ry="9.845" fill="#008"/>
 <path d="m389.81 750.96l98.935 64.915 52.095 22.282-45.344-33.974-105.69-53.223z" fill="#008"/>
 <ellipse transform="matrix(.7934 -.6088 .6088 .7934 -506.54 446.31)" cx="404.12" cy="969.27" rx="9.845" ry="9.845" fill="#008"/>
 <path d="m421.1 710.18l78.763 88.31 44.553 35.006-35.006-44.553-88.31-78.763z" fill="#008"/>
 <ellipse transform="matrix(.9239 -.3827 .3827 .9239 -325.08 215.21)" cx="378.42" cy="924.75" rx="9.845" ry="9.845" fill="#008"/>
 <path d="m461.88 678.89l53.223 105.69 33.974 45.344-22.282-52.095-64.915-98.935z" fill="#008"/>
 <ellipse transform="matrix(.9914 -.1305 .1305 .9914 -111.1 55.144)" cx="365.12" cy="875.1" rx="9.845" ry="9.845" fill="#008"/>
 <path d="m509.37 659.22l24.056 115.86 21.081 52.592-8.039-56.086-37.098-112.37z" fill="#008"/>
 <ellipse transform="matrix(.1305 -.9914 .9914 .1305 -499.2 1078.2)" cx="365.12" cy="823.7" rx="9.845" ry="9.845" fill="#008"/>
 <path d="m560.33 652.51l-6.751 118.14 6.751 56.256 6.751-56.256-6.751-118.14z" fill="#008"/>
 <ellipse transform="matrix(.3827 -.9239 .9239 .3827 -481.53 827.45)" cx="378.42" cy="774.06" rx="9.845" ry="9.845" fill="#008"/>
 <path d="m611.29 659.22l-37.097 112.36-8.039 56.086 21.081-52.592 24.055-115.86z" fill="#008"/>
 <ellipse transform="matrix(.6088 -.7934 .7934 .6088 -420.68 606.03)" cx="404.12" cy="729.54" rx="9.845" ry="9.845" fill="#008"/>
 <path d="m658.78 678.89l-64.915 98.935-22.282 52.095 33.974-45.344 53.223-105.69z" fill="#008"/>
 <ellipse transform="matrix(.7934 -.6088 .6088 .7934 -330.97 411.39)" cx="440.47" cy="693.2" rx="9.845" ry="9.845" fill="#008"/>
 <path d="m699.56 710.18l-88.31 78.763-35.006 44.553 44.553-35.006 78.763-88.31z" fill="#008"/>
 <ellipse transform="matrix(.9239 -.3827 .3827 .9239 -218.52 236.4)" cx="484.98" cy="667.5" rx="9.845" ry="9.845" fill="#008"/>
 <path d="m730.85 750.96l-105.69 53.222-45.344 33.974 52.095-22.282 98.935-64.914z" fill="#008"/>
 <ellipse transform="matrix(.9914 -.1305 .1305 .9914 -80.815 75.38)" cx="534.63" cy="654.19" rx="9.845" ry="9.845" fill="#008"/>
 <path d="m750.52 798.44l-115.86 24.056-52.592 21.081 56.086-8.039 112.37-37.098z" fill="#008"/>
 <ellipse transform="matrix(.1305 -.9914 .9914 .1305 -139.06 1149.8)" cx="586.03" cy="654.19" rx="9.845" ry="9.845" fill="#008"/>
 <path d="m757.22 849.4l-118.14-6.751-56.256 6.751 56.256 6.751 118.14-6.751z" fill="#008"/>
 <ellipse transform="matrix(.3827 -.9239 .9239 .3827 -224.27 999.35)" cx="635.68" cy="667.5" rx="9.845" ry="9.845" fill="#008"/>
 <path d="m750.52 900.36l-112.36-37.097-56.086-8.039 52.592 21.081 115.86 24.055z" fill="#008"/>
 <ellipse transform="matrix(.6088 -.7934 .7934 .6088 -283.83 810.84)" cx="680.19" cy="693.2" rx="9.845" ry="9.845" fill="#008"/>
 <path d="m730.85 947.85l-98.935-64.915-52.095-22.282 45.344 33.974 105.69 53.223z" fill="#008"/>
 <ellipse transform="matrix(.7934 -.6088 .6088 .7934 -296.05 586.96)" cx="716.54" cy="729.54" rx="9.845" ry="9.845" fill="#008"/>
 <path d="m699.56 988.63l-78.763-88.31-44.553-35.006 35.006 44.553 88.31 78.763z" fill="#008"/>
 <ellipse transform="matrix(.9239 -.3827 .3827 .9239 -239.72 342.96)" cx="742.24" cy="774.06" rx="9.845" ry="9.845" fill="#008"/>
 <path d="m658.78 1019.9l-53.223-105.69-33.974-45.344 22.282 52.095 64.915 98.935z" fill="#008"/>
 <ellipse transform="matrix(.9914 -.1305 .1305 .9914 -101.05 105.66)" cx="755.54" cy="823.7" rx="9.845" ry="9.845" fill="#008"/>
 <path d="m611.29 1039.6l-24.056-115.86-21.081-52.592 8.039 56.086 37.098 112.37z" fill="#008"/>
</svg>
