<?xml version='1.0' encoding='utf-8'?>
<svg xmlns="http://www.w3.org/2000/svg" enable-background="new 0 0 1742.1638 1600" version="1.1" viewBox="0 0 1742.1638 1600">
	<path d="m1742 200.17c-0.7507-1.0637-2.1899-1.6268-3.4414-1.314-1.533 0.4067-1.7522 1.0012-2.9722 1.8146-0.8135 0.5631-1.8772 0.6257-2.7844 0.6884-1.314 0.1251-1.4705 2.2526-2.4404 2.6279-1.189 0.9387-3.7544 2.6907-5.1934 1.9397-1.3142-0.657-1.627-2.3777-2.9097-2.8157-2.8472-1.0012-4.7241 3.6604-8.3223 0.876-1.5955-1.2201-3.0347-1.6581-5.0996-1.2201-1.314-0.3129-2.7529-0.2816-4.1296 0.1876-1.408 0.4694-2.4717 1.7834-3.8169 2.1902-2.1899 0.5944-5.7566 0.1564-6.7891-2.1902-0.876-1.9709-1.0325-1.7832-2.7532-2.4402-1.8459-0.7196-0.8135-3.7544-3.4727-4.8806-4.7244-0.9073-10.575 3.0347-14.986 1.0637-4.2236-1.8772-5.7878-5.6628-9.198-7.54-0.8447-0.438-8.0405-2.3777-8.7603-2.1899-1.7832 0.4692-3.5039 1.9709-5.3499 1.314-4.9431-1.8146-7.6025-4.0671-10.356-8.5098-1.533-2.5342-4.2861 0.2502-7.0393 0.7195-2.4404-2.4402-3.0349-4.0671-6.2886-5.5063-2.3152-1.0323-1.8459-4.7866-5.0371-5.8503-1.314-0.438-3.6604-0.2817-3.9419-2.0024-2.7532 0-3.4102-0.9697-4.8806-3.0034-0.3755-1.9084-0.7822-3.1912-0.7822-5.1935 0-0.7821 2.9097-3.5979 1.1262-4.0673 0-6.351 0.6885-6.6638-5.3499-5.1621 0 4.3488-3.7229 3.3164-6.2258 2.7532-2.8472-0.657-2.9409 3.7856-7.759 2.4089-2.8784-0.782-2.3152 3.0349-3.7229 3.817-1.7834 0.9698-5.6316-0.5319-7.7903-0.8761-4.6929-0.7821-6.7891 0.5006-10.919 1.9398-3.3477 1.1576-3.6604-8.1656-2.7532-9.4171-1.0325-1.3766-1.0012-4.6304-2.7532-6.8829 0-2.6593-4.6616-8.8226-6.8828-9.73-3.9109-1.5956-7.9468 3.5665-9.386-3.3789-0.563-2.847-2.9094-4.5677-2.9094-7.3834 0-4.9432 4.7866-2.3464 4.7866-6.4137 0.751-0.2504 3.9734-1.0951 3.2224-2.3464 0.1565-0.2191-0.438-1.9398-0.4065-2.4403 0.3752-2.9409-1.502-5.6941 2.9407-3.7231 3.6294 1.627 1.4705-3.0659-0.5005-3.5665 0-4.3488-4.5364-5.4751-4.5364-9.8864 0-3.8481 2.8157-6.226 4.6929-8.7601-0.751-1.0011-0.6257-5.0996-1.627-6.7264-1.314-2.1274-3.2849-5.2249-5.2561-6.9456-5.2246-4.7242-3.0347-8.322-5.6626-13.703-3.9734-6.9454-13.891-14.861-21.431-16.863-9.1042-2.4092-17.583-5.5063-20.805 4.3799-0.1563 0-0.1877-0.0625-0.2502 0.0626-0.1565 0-0.5005 0.0626-0.5632-0.0626-0.1563 0-0.5005-0.125-0.563-0.2502l-3.3789-0.0938c-0.313 0.9385-1.8147-1.2515-1.9397-1.5957l-0.9075-2.5342c-0.6257-1.752-0.2815-3.9733-0.8132-5.8191-1.189-4.3176 1.9084-8.854-0.8762-12.483-2.5342-3.2852-0.4692-4.4426-1.877-6.7266-0.8135-1.3766-4.5054-0.8135-6.0696-1.7207-3.5042 0-12.859 0.657-15.612-1.4392-4.4114-3.3789-1.5017-7.7902-8.4785-3.6604-1.4705 0.876-2.1899-0.4692-3.5039-0.4692-3.4729 0-6.0696 2.0961-8.8853 1.8457-5.3813-0.438-5.8193 8.0405-8.1033 6.8831-2.3149-1.1576-6.4448-12.17-7.2896-14.642-3.4414 0-7.8528 8.1969-10.512 1.6895-1.5013-3.6923-2.1583-4.9436-3.1907-4.9436-1.0637 0-2.5342 1.2827-5.6313 2.5968l-7.446 3.2537-5.2561 2.4091c0 1.2513 2.1899 3.9108 2.1899 5.1935-6.4761 2.1274-9.6672-9.6675-15.768 0.7195-1.4705 2.4717-19.366 11.388-20.899 6.8204-1.2202 0-4.0046 4.912-4.5051 6.4137-1.0325 2.9095-4.4114 2.7218-7.0708 4.3486-6.1318 3.8169-11.513-4.5051-15.111-5.3186-5.7253-1.314 0.3755-5.1934-5.6001-5.1934-7.54 0-5.5063 4.2549-14.298 0-3.9734-0.5945-6.3511 1.5642-9.8862 1.2827-3.7856-0.2816-4.0674 0.5317-7.5088 2.4402-1.6582 0.9073-2.9097-1.2827-4.3801-1.7832-1.2512-0.438-6.4761-0.7196-7.9465-0.7196-4.0359 0-5.5376 3.3163-9.198 2.5654-2.5657-0.5006-3.1914 0.6884-5.4438 1.1576-2.5654 0.9698-3.9421-3.1599-8.0718-1.533-3.9109 1.5017-5.2249-0.9073-8.9165-0.3442-4.3489 0.657-13.703 5.6316-18.208 2.1901-1.5332-1.1576-2.5654 2.8783-3.3789 3.3163-0.9075 0.5006-15.362-0.5005-15.956-0.9698-2.3777-1.8146-4.7241 3.1599-8.009 1.2201l-1.7834-1.0637c-0.7507-0.563-9.8862 2.5342-11.075 3.4103-5.7566 4.2235-6.0068 6.1633-13.516 6.1633-2.4089 0-3.2849-0.8761-4.8494 1.2201 0.4692 0.6257-1.3765 1.0951-1.6267 1.2827-2.3152-1.752-3.2227-1.6268-5.2561 0.6571-2.5967 2.9095-3.3789-0.0314-5.3499-0.2504-2.2527-0.219-7.8215 6.3511-7.1333 8.854 1.0325 3.6292 1.5017 4.4426-3.8794 4.4426-6.0696 0-5.5691 3.4414-7.0396 7.2896-0.7195 1.9086-4.8806 0.313-6.3823 1.2202-2.7219 1.6895 0.5945 3.3477-5.0056 3.8169-3.0349 0.2502-6.4138 2.6594-6.4138 5.9131-3.3477 0.8135-10.981-1.1576-10.981 1.3766 0 4.3488 3.9109 11.67-1.22 11.67l-9.7927-6.0071c-6.6013-4.0359-5.1621-1.9084-8.8225 5.1936-1.2515 2.2212-4.2236 3.1285-4.6304 3.8169-0.438 0.8135 2.2839 2.4089 2.2839 3.8169 0 4.9744-5.6003 1.0011-6.5701 2.9095-1.5645 3.1599-1.4705 1.3141-3.7856 3.6605l-5.1936 5.1621c-5.5376 5.569-3.9731 2.3778-7.5085 7.2897-1.7207 2.4091 0.219 4.474-3.3164 4.0673-3.6604-0.4067-4.0984 3.5353-6.3198 4.0671-3.7854 0.8447-0.8447 5.2561-2.8469 5.8192-1.2515 0.3441-3.0659-0.4067-3.0659 1.6895 0 1.1888-0.8447 4.1298-2.1902 4.4739 0 3.5979 3.4414 0.7821 4.3801 2.9095 2.0649 4.693 6.0381 2.0337 7.1958 4.693 3.6604 6.1633 6.3823-1.8146 6.3823 6.6639 0 2.6593 4.9119 4.3174 6.1633 5.8191 1.6895 2.0649 1.5642 4.4114 3.4102 6.2573 3.2224 3.2224 5.0996 3.6292 1.7834 8.103 2.7532 3.6918 2.8469 2.5342 6.4448 4.5365 3.2852 1.8146 1.314 7.7589-2.0022 8.5099-1.5645 0.344 0.7195 2.5967-2.0337 4.2861-2.7219 1.6895 3.5354 4.2236 4.8494 4.2236 0.0938 0.3441 1.4705 1.095 1.627 1.6895 0.344 0 0.9697 0.4067 1.3765 0.0938 4.7869 3.6293 1.9397 2.3466 1.9397 7.3835 0 3.7544 2.1902 4.9119 2.7532 7.54 4.2861 3.4102 3.1599 5.9756-0.563 9.6986-1.5645 1.5643-7.54 7.6652-7.54 9.73-0.8135 0.219 0.8135 2.0961 0.9697 2.3464 0.5632 0.9073 1.2202 1.6581 1.7209 2.5342 0.876 1.5956 3.5664 2.0336 4.2861 4.0359 2.1274 5.9131 7.4148 0.7196 3.7856 8.1969-2.4404 5.0684-1.8147 3.7544-6.0696 4.9432-2.1274 0.5944-6.2886 6.7578-5.1621 8.8226 0.4067 0.7822 2.1274 5.3812 0.657 5.7566v0.1565c-0.4692 0.1252-2.4092 2.1901-2.9409 2.5967 0 9.8552-21.838 7.6965-22.714 20.18-0.4067 5.8505-3.5979 3.3163-5.2561 7.3835-1.8459 4.5052-6.1633 2.6281-8.9165 7.1332-3.8169 6.2573-7.8528 1.4705-5.5063 10.95 2.0022 0-0.751 3.8794-1.2827 4.4426-1.189 1.314-3.0349 2.1899-4.5366 2.7532-4.8806 1.8772-1.658 8.322-3.1599 10.637 0 9.949 14.392 7.0393 11.326 14.986-0.9072 2.3777 4.2236 1.1262 4.2236 2.9095 0 1.3766-2.4092 2.0336-2.0337 3.0035 0.657 1.7207 0.751 2.4089-0.7195 3.8794-5.4126 5.4125-0.3755 5.2874-0.751 9.8864-0.2502 3.4415-0.782 4.1298-2.5654 6.9768l-4.1296 6.5701c-2.4092 3.8169 3.3789 5.1622-2.5969 7.2272-2.1899 0.7507-1.4077 2.3151-3.0034 2.8157-1.6582 0.5319-3.0034-1.408-4.8494 0.2502-1.658 1.5017-2.8157 2.7532-4.9431 2.0337-1.2827 3.9106-3.7544 2.7844-6.9456 2.4089-3.4101-0.3755-6.7578 3.5979-11.263 3.1599-6.1321 0-15.424-0.9698-20.367 1.8772-5.131 2.9409-12.796-2.0337-18.553-2.0337-3.7855 0-6.5701-1.3765-10.919-1.3765-2.8472 0-42.424-17.02-37.293-3.6292 1.1262 2.9408-3.8169 3.9106-3.8169 8.1655 0 0.219 4.9431 6.6013 5.913 9.1669 0.7821 2.0336 3.723 2.8783 3.8795 3.5665 0.5945-0.4066 1.7207 5.6003 1.7207 6.9768 0 2.3152 0.7196 3.8483 2.3464 5.35 4.1924 2.4091 6.7266-1.6268 9.7925 0.2504 3.2225 1.9709 4.912-0.2817 5.9757 2.9095 0.5944 1.7833-0.3441 4.5677 0.3129 5.6627 1.189 1.9711 5.3499 1.6895 5.3499 3.7231 0 3.7855-3.7855 10.794-2.6592 13.703 0.9697 2.5342 7.1958 6.2573 7.1958 7.8529 0 4.8492 5.2874 2.2213 5.5063 4.0673 0.1564 1.4077 0.4066 3.0659 2.0022 3.2537 1.5957 0.1565-1.2827 2.8783-0.9698 3.723 0.4067 1.0011 2.5656 2.6281 1.7833 3.4103-1.314 1.314-3.5667 1.7207-3.5667 3.7229-0.2815 0.0626-0.5005 0-0.7821 0-2.0336 3.5354-15.205 12.89-18.208 12.89-1.7833-7.1958-10.043 8.416-11.169 8.416-2.3152 0-14.266 3.6292-16.269 5.0996-2.8783-2.1274-4.3175-8.2283-10.106-2.4404-1.8458 1.8459-8.5098 4.1611-11.763 3.2539-8.0405-2.2527-13.328 9.2919-13.328 17.176 0 7.3522 4.7241 8.7913-2.5029 11.607-0.9072 1.3141-1.9709 5.5063-3.9734 5.5063-1.533 0-4.1609 0.5631-4.6929 2.1901-1.5642 4.6929 4.2549 6.1946 5.8192 8.2595-2.0336 2.7532 0.7196 4.0359 0.7196 5.9131 0 2.7844-2.7844 3.9106-3.7856 6.1633-2.3777 5.3186-4.7241 9.3857-9.8864 13.203-14.861 11.107-0.3129 13.922-3.9733 26.499 0 2.1274-1.4392 4.2549-0.7822 6.4136 0.3755 1.2827 0.876 2.3464 0.876 3.8169 0 4.0985-2.7844 4.5365-0.8135 9.3858 2.3152 5.6628 0.532 10.199 1.8772 15.8 0.657 2.847 3.4728 3.504 3.4728 7.8841 0 2.5029-3.066 1.752-3.3163 2.5029-2.8784 0-5.2561 6.6013-8.9791 8.0092-4.0359 2.3152-1.5017 6.4136-4.2236 8.8539-3.8169 3.4415-1.3453 3.0974-3.1598 6.6326-0.8447 1.6582-11.169 11.044-11.951 11.044-7.1958 0-3.1912-3.1286-7.6024 2.9722-2.5342 3.504-9.8551-1.0324-13.296-1.0324-1.408-4.3488-4.2863-4.5991-7.6025-6.8829-2.5654-1.8146-0.8761-8.416-1.8459-10.95-0.2502-0.6257-6.2572-1.7833-7.1333-1.1263-0.657-0.5319-0.2502 0.3754-1.2827-0.7196l-5.5688-6.2572c-0.0625-0.1251-0.8135-1.2515-1.0012-0.7196-2.6906 0-9.3857 7.54-12.546 8.6037 0 0.0939 0.0313 0.0626-0.0313 0.0939 0 0.0626-0.0313 0.0938 0.0313 0.1251 0 1.0637 8.322 1.4078 9.4485 1.4391 6.6013 0.2816 3.6917 7.1332-0.1877 4.0046-2.3152-1.8459-3.5979-2.6594-6.6327-2.5029-3.4728 0.1877-4.38-2.2526-8.6975-2.2526-3.4415 0-12.17 0.876-13.703-2.6593-1.189-2.7219-1.3141-4.3801-5.2874-3.1286-1.5331-0.3129-4.3801-6.9142-5.6628-1.314-0.5005 2.19-2.0649 6.2885-3.723 7.9467-1.6895 1.6581-4.1298 1.7207-5.1935 4.0672-1.752 3.8795 0.8135 3.5353-4.4426 5.9756l-10.856 5.0371c-2.0024 0.9073-3.7544-0.3755-5.8193 0.4692-3.5353 1.4705-9.855 9.073-12.201 11.451-4.0673 4.0671-17.395-3.5979-16.206 2.7532-0.4067 1.5643 2.1588 11.857 4.6304 10.356 2.0649 6.3824 11.138-0.5944 14.642 1.1576 5.4126 2.6906 0.9386 10.137-3.8794 10.512-5.6002 0.4693-7.0081 4.3175-11.576 6.1634-1.9397 0.7822-4.5051-0.4067-6.7264 0.3441-3.0035 0.9699-4.818 3.5667-8.2595 3.7856-3.0973 0.219-21.712 4.7867-22.401 3.8169-1.5331-2.0962-2.6907-1.4079-5.0059-1.8459-0.7195-0.4067-3.2224-1.4705-3.4102-2.19-3.2537 0-10.7 4.0046-12.233 0.9698-0.7507-1.533-4.0984-0.9386-3.6292-2.19 1.6895-4.3801 1.9397-2.3777 0.97-6.1634-1.5017 0-1.9711-2.3464-4.693-1.314-1.5956 0.6257-3.6292 1.095-5.35 1.2202-4.2549 0.3442-10.262 2.9722-11.388 7.4774-1.4704 5.694-6.9455-0.2191-8.4159 3.066l-5.0997 11.357c-3.1912 7.0706-3.2537 6.0069-7.6964 12.952-3.9733 6.226-15.518 8.5724-22.745 7.1332l-9.3859 41.892c-1.5017 3.4415-3.6917 6.7891 0.3442 8.3534 1.1888 0.4693 0.1564 1.3766 0.6257 2.0336-0.7822 1.0637 3.5666 1.1576 3.5666 3.2538 0 3.2224-1.5956 3.4102 1.1263 5.8192 2.2213 1.9711-3.1599 8.4473-1.7833 11.2 1.3453 2.6281-2.0962 5.2874-2.0962 8.5098 0 2.19-1.0637 9.8238-3.2225 10.356 0 0.219-0.3129 0.876-0.3441 0.9698l0.2502 3.5041-2.9096 2.5029 0.2503 3.723-3.504 3.0035 14.83 11.419-5.4438 7.8841-2.2526 0.876-3.8169 5.256-122.48 38.106-49.056-6.0695c-5.4125 0-3.9733-1.971-7.1958 2.0023-0.7822 1.0012-5.6315-0.5632-8.1031 1.3766-2.1274 1.7207-3.8482-0.6883-5.6628 0-2.1588 0.8447-4.7242 4.6303-6.7891 4.0671-5.6628-1.5643-3.723-0.6257-8.1656 3.3163-2.7219 2.4403-8.6663-0.9386-8.6663 6.3198 0.0313 0 0.9699 1.9711 1.0637 2.3465 0.1564 0.7821 0.9699 1.095 0 1.8771-1.2202 0.9698-2.7844 1.2515-4.1298 2.3464-3.1599 2.5029-5.0057-2.9409-8.2595-3.3163l-47.242-9.1668-24.622 2.7532v1.9397l-3.7231-1.2827-86.412 7.9467-162.97-55.126 31.411 39.483 11.951 12.389c0.876 1.0324 0.3129 2.2526 0.9698 3.0034 0.8134 0.9073 1.8459 0.3755 2.5029 0.9073 4.0672-3.0974 2.7219 4.7554 3.2538 6.132 0.876 2.2839-1.8146 3.7543-2.0336 5.7567-0.0939 0.9073 5.5689 8.1031 6.4763 8.5098 1.4704 0.657 1.4391 8.1343 2.0336 10.45 1.8771 0 6.0069-1.752 4.7555 2.6906-0.5006 1.8459 2.4716 2.1588 2.6906 4.38 0.3754 3.9108-5.6002 3.2538 0.6257 5.1935 3.0348 0.9073 4.6304 3.5666 5.037 6.8829-0.3441 0.8447-0.1877 1.9085 0.4067 2.6594-0.5632 0.5631 2.9722 6.6326 3.5666 7.6964 2.2839 4.2549 4.0672 9.511 7.6651 12.733 2.9722 2.6281 5.9131 1.4705 8.3534 5.9131 2.3464 4.2861 6.3198 8.7288 10.262 10.7 2.2839 1.1577 3.5666 2.4092 5.037 4.693 1.0637 1.6895 6.2572 4.4426 6.2885 4.5365 4.6616 0 10.794 3.5353 16.363 5.1309l23.527 6.7266 3.9733 0.5631 6.6326 6.5701 3.0034 0.0626 2.0336 5.9131 8.3221 8.8539 21.587-3.0035-0.7822 11.263-2.6906 17.833 6.8204 28.533 2.2526 36.448-6.3198 13.954c1.4079 1.408 4.6616 4.0673 3.723 6.4763-1.5643 4.0671-2.7219 1.6581-5.0996 4.0671 1.752 2.3152 9.1981 8.2595 11.013 2.7532 4.4426 1.4705 5.694 3.6917 11.263 1.533 2.5341-1.0011 7.2896-4.0984 9.6987-2.1899 4.2862 3.4102 8.1656-5.4438 12.295-1.2827 1.1888 1.1888 12.702 5.1934 10.043 8.7288 7.8215 7.884-5.913 4.5365-5.913 10.95l0.5631 19.147c0.6883 0.97-0.3128 6.7578-0.4067 6.9456-2.2213 4.0046-8.9791-0.6257-5.5689 8.1969 0.9698 2.5656-0.1564 10.637 0 10.856 3.3788 5.4437-15.268 5.8817-16.425 4.9431-1.8458-1.4705-13.922 0.97-17.645-0.0938-4.0046-1.0951-22.745 4.5051-22.995 4.8806-4.2862 6.7264-19.867 0.657-22.338 8.103-3.1286-2.3464-9.8551 0.2815-11.951 2.9097-0.5944 1.533 1.4078 3.2224 0.9698 3.5665l-2.1274 3.5665c-0.5632 1.0012-5.7567-0.782-2.4091 4.693 1.314 2.1901-1.533 8.2908-1.7833 8.1969-3.285-1.0325-2.0649 3.0034-3.0035 5.0996-0.4693 1.0637-0.5632 1.9398-1.4391 2.5342-0.5632 0.3442-2.5342-0.1877-2.5967 0.1565-1.7833-1.3453-6.2885-0.3442-7.6025-2.5342-2.9722-4.8181-2.0023-1.9397-5.1935-4.1298-4.5052-3.0973-4.7242 4.912-10.105 6.5074-2.9722 0.876-7.6964-1.6268-7.6964 3.2225 0 5.1622-3.4102 10.919-3.9733 16.707-0.438 4.8181-1.7833 11.889-0.876 16.456 0 0.9072-0.657 3.7544 0.5005 3.6292 2.0649-0.1877 3.3163 1.3453 3.3163 3.4102 0 0.4694-4.9119 1.627-3.9733 1.9397-1.5956 2.1588-2.0023 2.0962 0.3129 3.7231 1.752 1.2202-0.2191 2.4403-0.7196 3.9106-0.7509 2.1276 1.9084 6.4451-1.4705 7.9468-3.5353 1.5642-1.9084 4.0359-6.1321 0.9698-1.1888-0.8761-2.9095-1.6268-2.9095 0.4694 0 2.7844-4.0672 1.4077-4.0672 4.3799 0 2.8784-2.5655 2.5029-2.5655 6.3198l-0.9073 35.103-4.0046 17.176c3.504 0.7195 6.6639 1.8146 10.387 3.1599 10.512 3.7856-5.8192 13.234 2.5342 14.173 0.8134 0.0938 10.888-1.189 11.732-1.7834 1.752-1.2201-0.5632-3.8169-0.1564-5.4124 0.8134-3.3164 3.1599-2.3152 5.256-3.8795 7.0707 0 14.579 1.5643 20.148-0.2504-2.1901-2.9408-10.356-8.1969-2.1901-10.387 7.8528-2.0962 20.899-4.3486 24.591 5.9131 1.7833 4.9746-5.5063 2.7844-5.2561 5.5063 0.0313 0.4067 3.7231 0.0939 4.3801 0.0939 2.3464 0 5.2874 1.9711 7.1019-0.4066 0.4693-0.5945-1.7207-1.4392-2.19-1.627-3.8795-1.408 0.8134-8.6663 3.723-9.73 2.0336-0.7195 8.3221 0.1565 8.0092-2.9722-0.5944-6.5701 8.9791-3.8481 13.766-3.0973 5.0058 0.7821 16.018 0.438 19.992 1.9397l11.638 2.0336c1.5018 0.2502 3.1912 1.0325 4.6304 1.5331 0.4693 0.1876 4.2862 1.9711 4.5365 0.9698 1.0324 0 4.3174-4.8494 7.5086-3.2224 5.7567-7.7278 32.444 5.3811 42.236 3.1599 2.3777-0.532-3.285-10.262 3.2537-16.144 6.5701-5.9131 18.146-4.5052 25.561-1.2827 3.0347-1.6268 19.429 0.5319 23.308 1.5331 1.9189 0.4993 3.7809 0.8696 5.0851 0.6619 0.9205 0.2825 1.8733 0.3872 2.8279 0.5144 0.5023 0.0669 0.991 0.1167 1.4775 0.1278 1.6367 1.1952 7.1811 0.1862 8.4113 0.6356 7.0081 2.0336 13.735 3.9733 19.491 8.5098 8.9165 7.0081 15.111-7.0706 22.901 0.7509 2.2839 2.2838-1.095 6.6639-0.3129 10.105 0.0626 0.2816 10.45-1.8145 11.326-2.9722-9.4797-3.1599-7.2271-13.265 1.6895-15.487 9.5735-2.3777 21.619-0.7195 31.411 0.1565 4.1611 0.7821 12.421 2.5654 16.425 1.533 7.6964-1.9709 3.8482-4.0046 8.3221-8.5098l16.269 0.4067c1.8146 0.0313 3.5041-2.9722 5.6628-1.2827 3.7231 2.8469 7.9467 2.4716 12.233 3.7856 2.6594 0.8447 17.301-2.3778 19.241-3.9734 7.2271-5.8192 11.232-2.2213 21.368-3.066 10.543-2.7845 21.306-6.226 32.444-5.6002 4.4426 0.2502 18.615 3.4728 19.742 8.103 0.5286 0 1.2179-0.075 1.8613-0.2563 0.3699 0.2676 0.8378 0.4392 1.4127 0.4482-0.6683-0.0105 0.1562 0.2373 0.35 0.3523 0.1328 0.0789 0.2722 0.1458 0.4072 0.2205 0.2888 0.283 0.5709 0.5717 0.8601 0.8542 0.0673 1.3673 0.7549 2.8018 2.6486 4.4819 6.6326 5.8818 12.452 7.446 17.802 16.05 0.0313 0.2815-0.0939 0.7821 0.1564 0.876 0 5.9756-2.0336 4.9119-3.7231 9.9802-1.0324 3.0974 2.0649 6.0696 0 9.3232-1.6268 2.5342-1.0637 3.5979-0.4067 6.226 0.6257 2.4091-1.752 2.2838-2.4091 3.9733-1.095 2.6907 2.7219 3.3477-0.0939 6.1633-2.1587 2.1588-1.6894 3.5042-0.9698 5.6628 2.1901 0 4.0046-1.408 5.9756-2.5029 4.4739-2.4402 4.8806 2.9722 10.45-0.7195 5.4125-3.5979 8.8853 7.2583 13.516 6.3197 9.8551-2.0336 6.6952 4.6304 12.546 6.0695 3.8169-2.1899 1.9084 3.0348 2.9095 5.2561 1.8458 4.1924 7.8215-8.0405 6.3824-0.5631-0.7197 3.8481-0.1877 9.8239 3.9733 11.2 0 1.7208-2.4091 2.8158-1.2827 5.0059 1.8146 3.5667 4.0359 3.3477 4.0359 8.2595 0 1.9709-0.1877 4.4114 0.4694 6.1633 0.4066 1.095 3.0972 2.5029 3.0972 2.5342 2.0337 1.1576 1.1263 8.6975 1.1263 10.919-1.3766 3.8795 6.1321 22.901 8.5099 26.593 3.4414 5.3812 2.8469 9.1981 7.9153 14.266 2.6281 2.6594 22.401 17.145 24.341 16.707 5.2874-1.2515 9.4797 1.0637 13.703-0.657 4.3799-1.8146 1.6895-10.888 4.1923-11.513 1.2201 3.6292 3.4728 6.1633 6.8829 8.2595 3.066 1.9084-2.0023 7.3522 3.1599 8.8539 4.5677-0.438 7.0706 4.0673 9.4484-2.5342 0.5631-1.5331 0.0313-8.4159 1.0637-8.6661 0.5631 1.6895 3.1912 1.2513 2.9095 3.8794-0.2502 2.5967-4.2236 9.4484-3.3163 11.107 1.5956 2.9095 6.0695 3.4415 8.8226 4.0671 0.219 0.0626 0.438 0.0626 0.6257 0.0626 1.2827 0 2.1587-0.9386 2.847-1.9711l-0.1564-6.4449c0.7195-1.6895 1.9709-2.0336 2.5029-3.5667 0.8134-2.2838-1.3455-4.2549 0.1564-6.9767 0.657-1.1888 2.4091-1.0011 3.4102-3.066 2.7532-5.7566 2.6906-1.314 6.3824-3.1599 1.314-0.657 1.314-2.1587 2.2838-3.2537 0.438-0.5007 3.3788-3.1287 3.7855-2.9097l41.673 0.0938 1.2202-36.573c6.2571-3.5667 8.5098-0.8135 8.5098 6.4136 0 4.1611 2.9409 0.3129 3.4727-1.7833 0.3442-1.314 0.219-2.847 1.3767-3.6605l3.1599-2.1899c4.7241-1.189 5.0684 10.762 9.3857 8.103 4.1611-2.5342 2.5029-6.9768 9.2294-4.7554l9.8551 3.2224c5.5063 1.8146 6.1008-6.1946 11.889-4.1924 4.2236 1.4392 10.606 0.7196 15.455 0.7196l4.6929 0.5631 8.3535-3.1599 14.548 14.11 29.065 0.3129 4.9432-4.6304 4.6929-10.762 13.828-1.9398 3.4103-3.1598 8.8851-0.2504 6.7266-3.5665c1.4392-0.7197 20.899-9.5736 16.081 0.0625-1.2827 2.6281-3.8481 1.6895-2.5654 5.5376 2.0649 6.2886-2.4091 6.9143 4.4426 10.45 5.2874 2.7218 16.018 2.4716 21.368 0.0626 2.5028-1.1263 9.6987 0.3754 6.6325-3.8795-3.5666-4.9432 3.4102-4.036 4.4426-6.4762-2.0334-1.7207 4.8181-2.9097 5.7566-2.9097 0.876-0.1877 2.8784 0.657 3.6292 1.189 0.7822-0.5632 2.0649-0.1877 3.0662-1.189 1.7832-1.8146 1.5017-3.5979 4.3801-4.0671 6.1321-1.0012 3.3474-6.0696-2.3464-4.6304-11.607 2.9722-5.5378-6.8203-7.1958-11.576-0.9387-2.6281 0.5005-9.1356 2.5027-10.95 1.6895-1.5017 6.7891-4.2236 6.7891-6.5701-0.125-0.0314-0.0625-0.0626-0.0625-0.219-3.1287-1.0325-3.9106-6.7578-4.2861-9.5736l-11.576-18.24-4.4739-23.903-14.454-14.924-1.2202-5.7566-7.3835-7.759 1.1577-1.314v-12.952l-0.9075-0.8135 0.9075-12.483-0.1877-4.6302-2.0962-3.3163-5.569-0.313-6.3197 2.8158-15.362 1.8772-12.952-4.474-0.4067-4.1296-3.8169-3.7856-4.1923-5.1309-8.2595-12.64-1.5331-17.082 5.2561-8.2909 3.7856-9.8862-1.5331-5.7567 2.9095-8.8226-1.6895-5.5063 1.2828-7.1333-1.4392-7.9465-2.847-2.4404-7.3522-3.3789-18.928 2.9097-9.5422-1.9397-7.1332-6.9143-21.431-9.073-3.5665-8.322 2.9095-23.371 7.446-20.586 8.1031-5.5063 4.693-5.5063 16.331-13.922 9.0729-12.264 7.1019-5.5688 10.856-28.376 9.6361-10.95 7.8528-4.38 7.1019-9.3859 14.392-2.5967 9.2294 2.8469 0.0939 2.5968 8.1031 7.9154 0.6256 11.044 7.4462 12.139 13.516 2.2839 32.788-15.393 16.331-3.4103 30.191-1.1262 24.278-9.4797 2.8157-19.304 7.6963-10.7 15.549-13.359 5.4749-7.6339 9.8865-31.849 10.043-12.89 10.199-4.6304 25.248-15.799 20.305-8.6663 6.7891-14.986 8.7288-10.543 9.8865-20.649 10.825-21.587 11.013-40.578 18.709-8.0405 22.714-6.5701 4.6929-5.0996 11.67-9.4797-0.3127-9.6361-3.9109-6.2572-3.9419-4.1923 8.2283-7.4774-2.4404-6.4136c0.1877-0.5944 0.8135-1.0324 2.2839-1.0324 3.6292 0 3.0659-5.9756 5.3499-6.226 2.1902-0.2502 3.5667 2.0962 4.4426 1.8459 1.627-0.438 3.2852-1.6269 2.7532-3.4727-0.8135-2.9409 2.6907-1.8146 1.8772-5.8505-0.9385-4.5365 3.2537-2.4716 5.1621-4.0359 2.8472-2.3464 5.6941-8.4473 8.0093-9.8239 3.0974-1.8146 5.9131-0.7821 4.2236-7.2896-0.3755-1.3766 3.3789-0.7822 3.6292-2.1901 1.0637-5.6002 3.5354-5.1309 7.1958-8.4159 1.9712-1.7833 1.0012-4.6929 4.0671-5.2874 0.6572-0.1252 1.0325-3.8795 1.4392-4.5365 0.6882-1.0637 3.6919-2.7219 3.9734-2.7532 7.0393-0.2503 3.9734-1.8771 7.6025-5.6628 4.9431-5.1622 3.7544-2.5342 10.199-3.0035 1.7832-0.1251 3.2849-0.7821 4.4739-1.7833l0.7822-7.0394c-1.408-3.285-3.9109-2.7532-6.7891-1.7833-3.5042 1.1576-4.6616-0.657-8.416 0.3129-5.4126 1.3766-4.5051-8.9165-3.8169-9.1668-0.6882-1.4079 2.6907-8.0405 2.8469-9.949 0.4695-6.2885-0.6882-6.2572 4.5366-10.543 1.408-1.1888 1.8145-4.3174 3.7229-6.2572 1.1577-1.1576 3.0349 1.0012 3.4729-0.0626 0.657-1.752-3.2539-8.9165-5.0996-9.0729-3.2224-0.2816-2.5969-2.2839-0.8135-4.3175 3.5354-4.0046-2.0337-4.0046-1.627-6.6326-1.9709-1.971-3.9734-7.2897-5.3186-9.8864-1.8772-3.5353-6.0068-3.6605 0.0625-8.416 4.0674-3.2225 4.0046-14.579 9.3232-16.644 2.8472-1.095 2.1589-2.7845 4.0359-3.723 3.0349-1.5018 2.5342-0.4693 5.4126-0.4693 0-0.0313 0.2815-0.4693 0.3442-0.5006 0-3.1286 2.5027-1.2827 4.1921-1.2827 0.8762-2.628 4.3489-1.6895 5.8193-2.5967 2.5967-1.5643 2.4089-4.9119 3.8794-6.9768 4.7869-3.4102 5.4126-7.3522 11.826-4.0359 1.095 0.5632 10.137-0.6883 11.889-0.9698 1.8772-0.3129 4.2236-3.504 5.5063-3.504 3.5979 0 6.6953 4.6929 7.446-2.6593 0.1877-1.8146 3.3789 1.4391 4.6304 1.4391 1.0012-4.1611 8.9792-7.8841 6.8516-13.453-0.876-2.3152 2.0962-2.3777 2.9097-3.0035 2.0649 1.533 4.6929-3.2537 3.0974-5.3499-1.9709-2.5342-6.5076-1.7207-3.3164-5.9756-2.3152-3.1286-1.9084-3.723-6.1633-5.037-3.4414-1.0637-3.2224-4.1923-6.4761-4.2862-1.9712 1.5018-1.8459-2.7532-4.0361-2.7532-2.6279 0-3.7542 2.5967-4.9431-0.7509-2.7219-7.5399-3.2224-3.5979-8.8228-7.0394-3.1284-1.9397-1.7832 2.8158-5.8191 3.9734-4.0671 1.1576-7.446-2.5029-10.356-4.1298-0.5005-0.2816-5.9756-1.8771-6.3823-1.8771-0.9072 2.7532-7.978 3.2224-10.356 2.5967-6.0068-1.533-2.3777-3.1287-3.9106-7.0393-0.8135-1.9398-3.2852-2.3464-3.7231-3.6605-0.4067-1.3141 2.0024-3.6918 1.1577-4.7867-3.2852-4.2236 2.7217-4.1299 2.4089-6.7266-0.1565-1.3766-2.5967-2.3777-2.8157-4.3488-0.219-1.8146 0.4067-5.694 1.1262-7.1332 0.5317-1.095 3.3789-10.137 1.2827-9.9177-0.7822 0.0939-5.2249 3.2224-5.1621 3.3477 1.0325 2.7219 2.8469 2.6906 0.3127 5.5063-1.8772 2.0962-14.047 3.9106-14.955 0.1564-2.5969 0-3.5979-2.3464-4.5366-4.38-0.3127-2.4091-2.2524-8.854-3.3164-11.576-0.9697-2.5028-5.3186-1.1262-7.446-2.1899-3.6292-1.8146 1.1577-7.665-1.7832-12.327-2.4089-3.7856-10.418-1.9397-13.516-6.0696-1.2202 0.5945-2.0334-4.2549-2.3464-4.7867-4.8494-7.9154-6.6013-7.1332-13.516-11.92-11.013-7.6338 8.4473-10.668 11.263-16.3 2.2839-3.0347 3.0662-9.6986 3.0662-13.672 0-3.3164-3.0034-16.738-6.7266-17.02-2.1587-0.1877-6.6013 0.2504-8.5723-0.5006-3.1912-1.2202-1.189-5.9756-2.9097-6.5701 0-2.6279-2.8469-6.0382-2.8469-8.8226 0-1.2201 3.5039-6.5074 4.3799-7.9467 2.3464-3.285 16.519-9.3232 20.242-9.3232 0.6257-1.9397 5.9756-3.0974 6.2883-7.2897 1.3142-17.364-18.428-18.584-29.596-13.547-7.7903 3.504-9.6362-6.351-7.9468-11.889 1.1577-3.7855 4.7869-5.1622 7.54-7.1332 4.1609-3.0348 2.2524-5.3812 2.2524-9.511-0.0625-0.876-0.4692-2.2527-1.533-2.2527-0.4692-1.4705-5.4124 0.6571-5.4124-3.8169 0-9.417-4.5679-3.4102-8.5725-3.4102-1.9084 0-5.6628-2.0022-8.8225-2.0022-0.0627-0.1565-0.094-0.094-0.2505-0.094-0.0625-0.1564-1.5017-0.4066-1.7832-0.4066-0.0625-0.2504-0.4067-0.1564-0.4067-0.5631-0.1252-0.0314-0.0313-0.1877-0.1565-0.313 1.7834-2.4089 3.2224-5.9131 5.3501-8.2908 1.9397-2.1587 5.3186-1.3452 7.6023-3.3789 2.7847-2.5342 1.3142-4.1296 2.5029-7.0706 1.7522-4.3175 7.6965-7.7903 4.7869-12.546-1.8147-2.9408 0.8135-6.1947 2.0962-9.3232 1.1262-2.7844 13.39 1.6582 17.145 1.3766 1.3452-0.0939 12.42-8.6975 14.079-10.387 1.0325-0.6257 5.5688-3.8481 6.4136-3.2224 4.8806-3.6605 18.459-0.2816 23.465 1.7832 5.1621 2.1274 9.3545 7.4148 14.392 9.1355 9.2607 3.2225 18.553-1.5642 27.094 4.1299 6.3823 4.2549 20.148 0.3441 28.502 1.3765 1.3142 0.1252 3.4104 4.5052 6.1321 6.5076 7.0708 5.0996 10.95 9.1355 21.368 7.446 15.862-2.5654 21.494 5.6316 35.447-3.4727 5.3499-3.5042 11.482-7.2271 16.018-11.764 1.314-1.314 2.9409-4.3799 5.0996-4.3799 2.3152 0 4.3176 4.0671 4.1299 4.1296 4.8494 4.8494 5.1934 0.532 10.199-0.4692 7.8528-1.533 4.5364-4.8181 8.979-7.0707 3.5042-1.7521 9.0105-0.8447 12.859-2.8158 8.322-4.2861 3.4414-8.7913 16.362-4.1296 2.3464 0.8447 11.294 4.599 12.452 1.1262 1.3452-4.0984 5.0684-5.0996 6.3198-8.5098 2.3464-6.5076-3.1599-11.2 5.0996-14.204 2.9097-1.0325 6.6013-4.2863 9.6047-4.2863 1.0325 0 2.6907 1.6582 3.3164 2.4403 0.3127 0.3442 1.001 1.0325 1.3765 1.2827 5.9756 4.1611 4.5679-0.657 6.4763-5.5063 1.9709-3.1912 3.6604-4.4426 7.1331-5.4124 1.2827-0.3755 2.7219-0.3442 4.0361-0.6571 2.9094-0.6884 4.4424-1.4391 7.0393-3.0973l68.861-53.499-0.1568-1.5326z" fill="#007800"/>
	<g fill="#fff">
		<path d="m1289.2 828.07c-82.836 73.632-209.68 66.171-283.31-16.665-73.632-82.836-66.171-209.68 16.665-283.31 3.4756-3.0897 7.0352-6.0237 10.659-8.8282-88.284 28.214-152.22 110.91-152.22 208.56 0 120.91 98.014 218.92 218.92 218.92 88.556 0 164.83-52.584 199.3-128.23-3.2111 3.271-6.5439 6.4633-10.021 9.5542z"/>
		<polygon points="1236.7 628.12 1263.5 582.38 1215 603.63 1179.7 564 1185 616.77 1136.4 638.02 1188.2 649.37 1193.4 702.14 1220.2 656.39 1272 667.75"/>
	</g>
</svg>