<?xml version='1.0' encoding='utf-8'?>
<svg xmlns="http://www.w3.org/2000/svg" enable-background="new 0 0 1901.365 1685.52" version="1.1" viewBox="0 0 1901.365 1685.52">
	<path d="m1440.9 998.5c-5.609-2.521-2.708-3.062-1.057-7.006 0.76-1.817 0.398-5.355 0.651-7.413 0.339-2.762 2.101-7.288 3.091-10.101 1.759-5.003 9.001-5.48 13.339-4.724 1.527-6.652-2.367-4.416 3.823-8.31 0-3.992-6.321-10.872 0.406-13.115 10.642-3.546 11.578-10.414 13.258-20.203 0.499-2.913-1.586-7.591-2.603-10.346-1.957-5.302-7.531-2.045-9.272-8.961 0.428-1.674 1.136-4.064 0.814-5.702-1.345-0.333-0.374-4.081-2.928-3.177-5.093 1.803-6.641 0.115-10.248-3.503-1.26-1.262 0.255-4.166-1.545-5.295l-8.703-5.458c-1.612-1.012-10.694-12.8-12.85-11.078-11.209 8.946-4.332-16.113-10.086-15.804-2.549 0.136-3.514-0.815-5.531-0.815-1.751 0-6.75 4.926-6.75 0.733 0-4.172 1.425-8.064-5.449-8.472-2.292-1.147-2.458-2.07-3.417-4.317-0.563-1.324-1.798-1.886-1.87-3.503-0.083-1.838 1.595-2.849 1.219-4.643-0.432-2.057-0.753-4.582-2.521-6.029l-1.547-1.059c-1.735 1.005-3.367 2.219-5.206 3.015-5.688 2.465-10.923 1.738-16.591 2.606-7.662 1.174-5.824 8.297-9.434 9.613-11.017 4.016-18.544-1.714-27.166 8.472-2.391 2.825-10.173 15.488-13.338 14.826-4.104-0.859-4.376-5.215-8.458-1.629-4.591 4.034-2.583 10.369-11.062 6.354-3.758-1.779-3.613-0.16-6.913 1.547-2.724 1.409-3.45 7.372-5.368 10.02-3.142 4.339-5.205 0.817-5.205 7.738 0 3.003-1.648 3.849-3.579 5.784-6.655 6.668-8.387 17.438-15.779 23.379-2.895 2.327-3.391 3.403-5.368 6.354-2.106 3.144 0.096 5.021-1.546 7.332-1.539 2.166-4.799 3.239-5.937 5.621-0.604 1.266 0.897 2.603-0.163 3.747-1.387 1.496-5.489 0.165-6.263 2.688-1.667 5.427-3.556 2.185-6.994 4.97-4.221 3.419-9.003 0.226-11.875 5.213-1.384 2.403-4.884 0.75-6.67 3.666-2.382 3.889-3.927 1.573-6.75 3.584-0.691 0.492-1.53 0.741-2.278 1.14-0.224 0.119-0.446 0.236-0.662 0.351-0.812 4.994 5.86 9.637 7.901 14.068 2.851 6.19 5.261 13.565 6.67 20.284 0.191 0.592 0.403 1.196 0.626 1.804 1.35 3.679 3.263 7.572 5.392 10.659 2.295 3.328 6.079 1.75 7.727 5.702 1.853 4.447 1.776 12.511 7.238 13.278 4.23 0.594 8.151-2.329 5.287 3.422-3.303 6.635-3.142 8.672-1.382 15.559 0.296 1.16-1.981 6.474 1.138 5.376 2.226-0.784 6.93-3.163 9.11-2.851 0.853 3.452-0.349 6.989 3.09 9.286 5.552 1.176 3.365 0.448 5.124 4.399 1.422 3.196 3.898 1.864 5.693 3.665 0 8.81 8.654 10.173 13.909 16.292 6.656 7.753 12.153 3.992 21.715 3.992 1.048 1.39-0.422 3.14 2.034 4.643 3.621 2.219 9.888 0.739 14.152 1.63 0.99 0.206 4.39 3.472 4.718 0.978 0.558-4.257-1.065-6.192 2.928-9.613 2.845-2.436 2.656-6.215 4.31-9.531-1.88-5.683-3.243-9.065 3.985-11.487 6.15 0 5.125-4.131 5.125-8.879-3.555-2.825-6.897-7.92-4.881-11.975 0.278-0.054 0.432-0.081 0.732-0.081 1.925 1.925 8.878 0.673 10.98-0.57 2.627-1.553 1.497-2.977 2.034-5.458 0.815-3.766 5.497-7.843 8.784-7.169 5.77 1.184 8.077-3.539 13.094-4.561 3.223-0.657 6.637 1.877 9.597 2.688 5.863 1.604 8.135-3.314 13.745-3.502 7.911-0.265 9.982-3.763 16.999-6.924 6.007-2.431 9.861-6.847 15.127-10.264 2.406-1.562 8.048-2.871 8.378-5.539 2.04-1.025 3.8-2.066 4.519-3.165 0.856-1.305 0.233-2.696-3.217-4.246z" fill="none"/>
	<path d="m435.9 1642.7c0.353 0.05 0.724 0.049 1.107 0h-1.107z" fill="none"/>
	<path d="m1503.5 42.791h2.504c-0.884-0.043-1.716-0.04-2.504 0z" fill="none"/>
	<path d="m443.39 1639.9c2.493-1.246 1.319-9.67 7.564-13.033 5.305-2.858 7.218-1.554 12.362-2.281 1.271-5.06 1.463-6.808 6.263-10.02 8.721 1.25 11.994-8.589 16.429-13.849 8.818-10.454 24.795-9.321 36.844-7.25 2.012 0.346 7.738 2.301 9.435 0.733 4.644-4.29-3.335-4.395-3.335-7.82 11.293-6.423 15.37-5.812 28.224-3.584 4.77 1.023 8.765 0.878 13.176 3.422 17.172 9.904 19.685-6.028 35.054-6.028 7.089 0 14.046 6.212 19.927 4.643l19.845-5.295c0.512-3.644 5.043-5.726 5.043-7.82-7.246-3.623 0.091-8.04 4.717-10.509 3.303 0.619 10.943-1.396 14.64-1.874 12.682-1.639-4.895-5.682 1.627-12.219 13.524-13.555 28.029-0.826 40.666-9.776 6.219-4.405 11.018-3.991 18.219-4.806 4.368-0.495 5.285-0.339 8.54 2.118 3.382 2.554 7.414 2.358 11.142 3.992 6.298 1.978 11.066 5.411 17.894 3.258 6.487-2.046 14.538 2.933 22.123 2.933 5.66 0 7.957 5.051 13.176 5.051 3.928 0 8.51-0.923 5.938-5.539-2.981-5.346 6.884-13.197 12.038-13.197 9.378 0 15.996-2.2 25.701 1.385 11.88 6.102 33.35 7.077 46.767 8.96 6.572 0.922 12.593 5.152 18.462 5.784 6.441 0.694 12.031-2.725 14.721 5.376 3.162 2.538 7.664 3.259 11.712 3.259 7.545-0.519 13.909 3.124 20.985 1.955 3.422-0.566 9.302 2.661 12.118 1.059v-0.407c-1.841-1.311-4.251-7.015-1.871-8.716 0.634-3.503 8.909-3.78 9.109-8.88 0.486-12.361 12.911-14.174 23.424-14.174 10.36 0 22.191 8.322 32.778 9.694 7.406-1.794 20.691 5.294 28.06 0.734 3.173-1.963-6.261-10.69-7.482-13.278-5.149-10.906 16.623-23.474 23.749-26.312 17.935-7.146 32.356-3.162 48.8 4.399 10.278-2.357 16.742 4.372 26.759-1.466l18.869-10.998c4.86-2.833 8.211-4.427 13.909-5.051 7.638-0.838 10.04-8.067 18.056-8.96 8.438-0.94 16.321-7.151 21.472-13.442 4.983-1.174 14.427-9.153 18.544-12.382l26.27-20.61c7.962-6.247 15.08-13.037 24.075-17.922l22.448-18.003c3.542-2.841 9.933-6.197 12.037-10.183 1.68-3.182 0.883-7.676 5.206-9.287 7.062-2.63 10.213-2.187 15.778-8.391 5.477-6.105 15.59-13.437 22.529-17.677l28.223-31.362c10.389-11.544 22.494-22.254 32.371-34.133 3.837-5.866 6.351-14.031 12.688-17.025 5.621-2.654 8.622-10.06 11.712-15.152 2.089-3.442 6.352-4.446 6.832-8.31 0.94-7.573 8.045-9.762 13.583-13.034 6.757-3.993 12.481-10.14 17.649-15.967 6.509-2.54 8.216-10.618 14.722-13.522 4.697-2.096 8.978-0.503 12.688-5.132l33.753-42.115c3.981-1.636 7.485-11.413 10.33-15.071 4.932-6.343 8.087-15.446 12.525-22.321l3.286-5.089h-519.93l-632.29 531.28c0.936 0.639 1.9 1.244 2.945 1.766 0.277 0.139 0.575 0.221 0.885 0.265h1.107c2.198-0.28 4.773-1.986 6.383-2.791z" fill="#002395"/>
	<path d="m1623.1 576.1c0.627-3.824 1.555-6.96 2.879-8.448 8.124-9.124 15.117-21.117 21.066-31.852 3.614-6.824 9.377-15.476 10.98-23.053 1.284-6.064 5.623-9.043 9.76-13.197 2.557-2.568 8.639-7.566 10.004-10.59 2.269-5.023 8.419-5.435 13.176-6.354l49.613 33.888 11.466-6.272c-2.43-5.375-5.379-12.329-3.253-18.248 2.265-6.309 5.303-12.658 6.1-19.388 0.545-4.604-1.924-10.967-0.898-14.745l3.253-49.204-1.951-73.478c-0.511-8.735-0.284-16.215-3.417-24.276-2.779-7.148-8.458-14.033-8.458-22.483-0.813-13.092-0.993-19.719-11.223-28.024-10.276-8.339-5.371-20.154-10.736-29.977-4.09-7.487-11.357-11.367-13.176-20.528-1.658-8.351 1.202-26.655 3.404-35.122l-24.709-98.577c-3.638-1.789-6.712-3.824-7.729-5.682-1.278-2.337-2.342-2.037-5.693-2.037-2.543 0-2.273-2.205-4.311-2.281-6.99-0.263-8.919 2.861-15.616-0.325-7.673-3.651-18.145-5.288-26.352-3.177-3.133 0.805-5.625 0.023-8.539 0.488-3.297 0.526-6.456 3.796-9.923 2.199-5.345-2.461-7.746 2.466-12.525 0-3.853-1.988-4.309 0.611-7.645 2.281-3.309 1.656-7.068-0.203-10.574 0.244-10.095 1.291-6.096-5.203-13.339-6.679-4.419-0.901-8.886 4.507-12.525 0.162-3.485-4.163-15.327-10.241-27.198-14.307-6.842-2.343-13.689-4.012-18.96-4.268h-2.504c-2.17 0.112-3.958 0.541-5.181 1.387-3.367 2.332-11.467 1.727-15.696 1.548-3.598-0.152-8.403 2.563-12.357 3.823-1.669 0.532-3.186 0.805-4.398 0.494-3.124-0.803-6.858-1.42-10.257-1.322-0.95 0.027-1.877 0.112-2.756 0.263-4.14 0.713-6.251 4.398-10.98 4.398-4.538 0-8.281-1.339-10.085 4.318-0.907 2.849-2.812 2.827-3.823 4.97-1.784 3.782 1.183 16.213-5.774 17.839-3.307 0.772-8.205-3.46-10.004 1.956-1.406 4.233-7.896 4.137-11.955 5.539-3.929 1.358-8.43 6.298-12.201 5.458-5.724-1.276-6.83 3.753-11.304 3.584-1.325-0.049-5.472-2.331-7.24-2.852-3.006-0.886-8.939 0.203-11.55 1.874-4.228 2.706-7.193 7.12-10.898 9.449-0.854 0.537-2.425-0.178-3.09 0.489-1.963 1.968-3.41 4.308-5.532 6.436-0.838 0.841 0.309 2.788-0.406 4.072-1.218 2.187-6.657 6.548-8.783 7.821-3.105 1.858-6.241 2.515-3.823 6.68 1.158 1.996 0.869 3.747-1.302 5.051-2.523 1.516-11.054 5.099-10.573 8.391 1.983 13.541-14.785 11.281-18.137 21.913-4.395 13.945-7.981 0.13-12.607 6.191-2.735 3.583-6.249-1.846-7.889 3.748-1.003 3.419-1.21 8.333-3.335 11.16-1.868 2.485-2.886 7.267-6.995 5.214-2.797-1.398-5.705 0.148-6.1 3.096-0.643 4.796-10.354-1.571-11.387-0.652-3.537 3.149-3.507 6.024-8.377 8.064-3.396 1.423-8.97 7.744-11.387 6.68-3.354-1.477-3.035 4.519-3.823 5.947-2.097 3.799-6.628-0.114-5.448 7.006 0.899 5.435-3.694 4.595-6.019 1.222-2.051-2.976-6.018 7.623-6.018 8.227v2.852 3.666c0 3.213-2.017 5.087-2.44 7.983-0.425 2.908 2.046 4.105 1.219 7.332-0.78 3.045-1.98 4.51-3.335 7.087-1.076 2.047 0.079 4.138-1.057 5.785-2.434 3.525-2.658 7.104-5.043 10.997-1.883 3.076 0.254 5.81 0.814 9.042 0.434 2.508-2.115 10.359-3.741 12.3-4.411 5.267-13.019 3.674-16.592 8.635-1.393 1.935-6.762 6.305-8.621 7.576-3.628 2.481-9.652 5.795-11.955 9.124-2.022 2.922-1.074 8.245-1.952 11.73-0.939 3.732-3.91 4.063-5.708 6.671l-17.228 4.082c-8.185 3.763-17.599 2.494-25.05 6.436-7.862 4.158-13.61 1.411-21.229 3.421-2.411 0.637 2.433 6.468 1.139 8.472-2.097 3.247 2.641 5.403 1.708 10.101-1.494 7.526-7.057 17.262-10.085 24.684-1.912 4.689-3.158 11.717-6.019 15.641-6.149 12.298-6.75 25.61-12.119 38.205-6.485 15.216-14.167 17.05-27.897 25.172-9.026 5.339-18.984 0.645-28.71 1.303-2.177 0-4.157-2.865-7.402-3.34-2.254-0.331-4.531 0.085-6.262 1.629-3.121 2.783-8.992 7.82-12.932 7.82-4.587 0-6.403 2.692-11.387 1.222-2.147-0.633-3.865-0.691-5.43-0.549l105.62 88.747h558.74z" fill="#DE3831"/>
	<path d="m1584.3 1109.4l11.598-17.964c4.936-0.965 14.178-23.242 16.511-28.349 4.866-10.657 11.938-20.321 15.697-31.607 3.923-4.491 5.456-10.504 9.841-15.396l10.004-11.16c0.674-0.752 1.197-1.479 1.605-2.187h-205.46c-0.719 1.099-2.48 2.14-4.519 3.165-0.33 2.668-5.971 3.977-8.378 5.539-5.266 3.418-9.121 7.834-15.127 10.264-7.017 3.162-9.088 6.66-16.999 6.924-5.61 0.188-7.882 5.106-13.745 3.502-2.96-0.81-6.374-3.344-9.597-2.688-5.018 1.022-7.325 5.745-13.094 4.561-3.287-0.675-7.968 3.402-8.784 7.169-0.537 2.481 0.593 3.905-2.034 5.458-2.102 1.244-9.055 2.495-10.98 0.57-0.3 0-0.454 0.027-0.732 0.081-2.016 4.055 1.326 9.15 4.881 11.975 0 4.748 1.026 8.879-5.125 8.879-7.228 2.422-5.865 5.804-3.985 11.487-1.654 3.316-1.465 7.095-4.31 9.531-3.993 3.42-2.37 5.355-2.928 9.613-0.327 2.494-3.727-0.772-4.718-0.978-4.264-0.891-10.531 0.589-14.152-1.63-2.456-1.504-0.987-3.254-2.034-4.643-9.562 0-15.059 3.762-21.715-3.992-5.254-6.119-13.909-7.482-13.909-16.292-1.795-1.801-4.271-0.47-5.693-3.665-1.759-3.951 0.428-3.223-5.124-4.399-3.44-2.297-2.237-5.834-3.09-9.286-2.18-0.313-6.884 2.066-9.11 2.851-3.119 1.098-0.842-4.216-1.138-5.376-1.76-6.888-1.92-8.925 1.382-15.559 2.864-5.751-1.057-2.828-5.287-3.422-5.461-0.768-5.385-8.831-7.238-13.278-1.648-3.953-5.432-2.375-7.727-5.702-2.129-3.087-4.042-6.98-5.392-10.659h-184.94l-697.4 585.98c0.075 0.245 0.15 0.456 0.219 0.613 1.659-0.042 5.258-1.396 6.832-0.652 2.399 1.134 1.575 4.003 5.206 1.385 5.864-4.227 5.609-2.498 9.841 1.955 1.808 1.901 3.507 5.413 4.88 7.739 1.84 3.117-1.553 6.757-3.254 9.123-1.113 1.551-4.717 5.708-4.717 7.332 4.784 1.183 10.137-5.797 14.477-0.896 2.345 8.438 5.794 3.31 11.387 6.923 4.615 2.98 9.619 16.375 15.698 13.768 6.635-2.845 15.008-3.229 21.716-0.571 3.363 1.333 5.788 3.428 8.442 5.239l632.29-531.28h519.93z" fill="#fff"/>
	<path d="m1837.2 682.76c1.116-3.301 2.192-6.61 3.111-9.945 4.248-4.755 7.787-19.493 8.377-25.986 0.175-1.931 1.361-3.875 1.464-5.703 0.114-2.017-1.504 0.108-2.928 0-3.096-0.234-1.116-9.118 1.952-3.91 3.608 6.123 3.361-7.898 3.579-9.613 0.205-1.613 0.326-3.234 0.394-4.857l-55.539 0.54c-4.857 0.177-6.899-1.403-11.062-3.015-2.29-0.887-4.598-2.498-7.157-1.547-2.126 0.789-2.774 2.191-4.555 3.259-2.331 1.397-3.617-0.489-5.286-2.037l-1.871-1.141c-0.502-0.864-1.043-3.258-2.195-3.258-1.68 0-2.772 1.113-4.23 1.63-0.873 0.308-2.275-0.047-3.09-0.407-0.498-0.22-1.689-0.082-2.2-0.082l-2.766 61.259h-53.107c-6.092-0.956-11.169-3.538-16.836-5.783-6.347-2.516-13.015-4.045-19.032-7.169-3.21-1.665-5.767-6.049-8.459-7.168-1.279-2.818-4.355-6.241-6.831-8.147-5.333-5.342-9.188-8.259-7.971-16.211 1.049-6.851-0.533-6.242-4.473-11.404-1.808-2.368-1.444-8.518-4.88-6.354-2.659 1.676-5.126 7.242-7.401 2.688-1.667-3.334-2.532-12.711-1.708-16.374-0.663-4.458-0.837-17.057 0.618-25.929h-558.74l-105.62-88.747c-2.762 0.251-5.04 1.133-8.316 0.63-2.643-0.406-4.205-2.101-6.181-3.584-2.206-1.657-6.555-1.149-7.565-2.606-2.559-3.699-8.34-3.445-12.444-3.096-2.675 1.004-5.954 3.631-8.377 1.059-1.14-1.211-2.218-4.079-3.741-4.48-2.63-0.694-8.236-6.184-10.167-8.716-3.069-4.024-5.195-2.344-9.271-1.141-2.724 0.803-12.099 1.762-14.071-0.407-2.735-3.006-4.275 0.184-6.588 0.57-3.368 0.562-5.253-5.287-7.889-6.843-9.11-5.382-13.026-14.491-23.424-18.491-1.273-0.086-9.419-5.168-9.679-6.273-1.043-4.442-5.807-1.985-8.296-5.295-1.684-2.238-1.463-4.238-4.23-5.621-2.974-1.487-2.907 4.96-7.238 2.281-4.573-2.83-10.248-2.02-14.966-3.747-7.562-2.769-10.677 5.919-15.615 4.399-2.724-0.839-6.049 2.885-7.239 0.488-1.953-3.931-5.935 2.744-7.157 4.725-2.542 4.124-8.543 7.324-9.598 12.056-0.206 0.926-0.35 1.602-0.47 2.115l282.52 237.39h798.44z" fill="#fff"/>
	<path d="m437.2 690.09l0.105 126.02c-1.438-0.17-4.419-0.029-6.019 0.245-2.179 0.374-4.46 0.705-6.425 1.792-3.846 2.127-7.553 12.212-12.363 6.598-3.695-4.312-7.069 2.543-9.435 3.91-2.877 1.663-2.773 0.489-4.961-0.734-3.157-1.764-5.151-0.517-7.971 0.815-5.971 2.82 0.512 6.403-6.669 9.939-2.5 1.231-2.778 7.455-3.498 10.019-3.046 10.847-19.175 3.032-22.285 7.82-2.353 3.624-4.236 10.854-0.895 14.419 1.107 1.182 7.988 4.008 1.465 5.132-4.433 0.764-5.43 3.332-8.784 5.866-4.294 3.244-10.835 3.379-15.372 0.652-4.466-2.685-7.895-10.021-11.874-11.242-7.733-2.373-17.991-4.279-26.108-3.503-4.626 0.442-9.218 1.195-13.826 1.792-4.199 0.545-6.427 3.452-10.085 5.213-6.956 3.351-13.711-0.977-20.902-0.977-4.866 0-8.237 2.721-12.606 3.258-3.329 0.409-11.192-4.354-14.721-5.702-7.837-2.995-9.087-12.863-19.439-12.952-2.197-0.019-9.07 1.033-10.492-0.734-2.003-2.49-3.212 1.391-4.88 0.815-1.308-0.452-3.036-2.096-4.635-1.222-1.753 0.957-5.004 4.601-7.076 3.503-3.728-1.975-1.967-6.397-3.009-9.613-1.304-4.023-9.769 0.028-12.363 0.407-9.301 1.364-8.98-0.669-8.296-9.368 0.104-1.329 1.503-8.717-0.162-8.717-6.696 0-2.81-3.415-5.043-7.901-3.359-6.751-3.729-3.716 2.278-8.961 6.241-5.45-1.564-10.122-1.79-15.641-0.283-6.938-2.848-9.644-10.248-7.82-19.233 4.742-2.86-21.428-14.966-19.633-5.438 0.806-3.369-2.919-6.1-4.969-3.875-2.91-5.776 2.497-8.865 3.584-2.332 0.821-7.464-0.106-10.166 0.733-5.58 1.733-1.527 10.878-3.823 12.138-0.948 0.521-6.554-2.136-5.043 1.303 1.629 3.706 3.636 2.053-1.219 4.48-2.94 1.469 2.451 3.129-0.651 5.458-3.901 2.929-6.513-2.236-7.89 4.155-0.668 3.102 10.464 5.604 5.125 9.857-4.541 3.616-0.34 6.535-2.684 10.753-1.059 1.907-2.396 5.906-5.125 5.295-2.859-0.64-4.445-6.176-6.425-4.724-4.425 3.246-5.957 10.811-11.305 11.73-2.889 0.496-5.054 0.25-7.808 1.466-2.65 1.17-2.462 4.347-3.63 6.402 0.361 0.172 0.726 0.347 1.094 0.522 3.098 1.485 7.11 7.252 9.19 10.264 2.433 3.524 1.716 4.813 2.359 8.961 0.242 1.563 4.038 12.875 4.799 13.278 6.113 3.24 10.196 6.571 11.712 13.767 0.265 2.661 4.456 6.122 6.67 7.413 5.654 3.295 3.781 8.871 5.368 14.256 1.226 4.158 3.251 6.891 5.205 10.59 2.762 5.232 2.96 10.21 6.344 15.478 3.953 6.157 7.023 13.128 7.482 20.61 0.705 5.98 3.977 11.573 4.962 17.514 1.34 8.092 2.273 15.779 5.043 23.542 3.341 9.368 9.779 18.056 10.33 28.675-0.488 4.425 3.781 12.514 5.937 16.455 3.848 7.037 3.44 14.343 7.971 21.75 6.102 9.978 10.253 20.388 14.558 31.2 2.412 5.76 7.962 10.678 9.109 16.455 1.264 6.369 7.635 19.33 11.712 24.521 6.112 7.784 8.761 18.052 13.664 26.637 2.379 4.117 12.607 11.6 12.607 15.315 0 2.893 1.426 6.263 3.473 9.697l411.07-345.39-181.7-152.66z"/>
	<path d="m437.09 561.81l0.106 128.28 181.7 152.67-411.07 345.39c3.659 6.14 9.309 12.488 12.387 16.696 2.572 3.518 7.478 7.474 9.272 11.079 1.988 3.991 3.465 10.566 7.076 13.523 0.887 2.969 4.501 4.365 5.205 7.25 1.085 4.448 0.047 10.06 3.416 13.604 6.398 6.733 0.729 12.246 4.311 19.714 1.547 3.225 1.969 6.392 2.055 9.592l519.91-436.85-334.37-280.95z" fill="#FFB612"/>
	<path d="m1223.7 1002.8c-0.223-0.609-0.435-1.212-0.626-1.804-1.409-6.719-3.819-14.094-6.67-20.284-2.041-4.431-8.713-9.074-7.901-14.068 0.217-0.115 0.438-0.233 0.662-0.351 0.748-0.399 1.587-0.648 2.278-1.14 2.823-2.011 4.368 0.305 6.75-3.584 1.786-2.917 5.286-1.263 6.67-3.666 2.872-4.986 7.654-1.793 11.875-5.213 3.438-2.785 5.327 0.457 6.994-4.97 0.775-2.524 4.876-1.193 6.263-2.688 1.06-1.144-0.441-2.481 0.163-3.747 1.137-2.382 4.398-3.455 5.937-5.621 1.642-2.311-0.561-4.188 1.546-7.332 1.977-2.95 2.473-4.027 5.368-6.354 7.391-5.941 9.124-16.711 15.779-23.379 1.931-1.935 3.579-2.781 3.579-5.784 0-6.921 2.063-3.4 5.205-7.738 1.918-2.648 2.644-8.611 5.368-10.02 3.3-1.708 3.155-3.327 6.913-1.547 8.479 4.015 6.47-2.32 11.062-6.354 4.082-3.587 4.354 0.769 8.458 1.629 3.165 0.662 10.947-12.001 13.338-14.826 8.622-10.186 16.149-4.456 27.166-8.472 3.611-1.316 1.772-8.439 9.434-9.613 5.669-0.868 10.903-0.142 16.591-2.606 1.839-0.796 3.47-2.009 5.206-3.015l1.547 1.059c1.768 1.447 2.089 3.971 2.521 6.029 0.376 1.794-1.302 2.805-1.219 4.643 0.072 1.617 1.307 2.179 1.87 3.503 0.958 2.247 1.125 3.17 3.417 4.317 6.874 0.408 5.449 4.3 5.449 8.472 0 4.193 4.999-0.733 6.75-0.733 2.017 0 2.982 0.951 5.531 0.815 5.754-0.309-1.123 24.75 10.086 15.804 2.156-1.721 11.238 10.066 12.85 11.078l8.703 5.458c1.8 1.13 0.285 4.033 1.545 5.295 3.607 3.618 5.156 5.306 10.248 3.503 2.555-0.904 1.583 2.844 2.928 3.177 0.322 1.638-0.386 4.028-0.814 5.702 1.741 6.916 7.316 3.659 9.272 8.961 1.017 2.754 3.102 7.432 2.603 10.346-1.681 9.788-2.616 16.657-13.258 20.203-6.728 2.243-0.406 9.123-0.406 13.115-6.19 3.894-2.296 1.657-3.823 8.31-4.337-0.756-11.58-0.278-13.339 4.724-0.99 2.813-2.752 7.34-3.091 10.101-0.253 2.058 0.11 5.596-0.651 7.413-1.651 3.945-4.552 4.486 1.057 7.006 3.45 1.55 4.073 2.94 3.218 4.248h205.46c2.987-5.19-0.37-9.385 1.567-15.083 2.387-7.018 7.157-13.837 10.329-20.61 4.493-3.679 7.467-11.357 10.492-16.374 9.628-15.969 24.368-27.798 35.868-42.197 7.301-5.848 11.831-14.327 18.138-21.18 8.373-9.101 22.846-7.933 31.719-16.21l28.467-26.557c3.191-1.648 7.737-8.062 9.678-11.16 3.503-5.588 6.263-10.385 6.263-17.27 0-2.324-0.716-3.279 0.243-5.539 1.55-3.644 3.745-8.032 5.938-11.241 6.524-3.842 7.58-24.172 9.435-31.526 1.166-4.62 3.76-10.246 2.684-15.071-1.378-6.184 0.068-16.309 2.115-22.157 3.297-7.791 5.622-16.47 7.482-24.683 1.763-7.778 4.613-15.427 7.219-23.129h-798.44l-282.52-237.39c-0.573 2.447-0.571 0.912-3.841 2.121-2.936 1.085 0.303 5.029-1.383 7.413-2.563 3.626-4.389 3.157-0.244 7.088 1.662 1.575-1.984 0.994-2.765 1.14-2.745 1.572-3.895 2.206-1.138 3.992 0.896 0.579 2.653 1.927 2.602 3.015-0.145 3.057-3.133 5.392-6.019 5.539-2.306 0.117-0.683 3.576-1.138 4.724-1.278 3.218-4.775 2.384-1.627 5.54 2.617 2.622 2.747 5.567-0.976 7.576-7.203 3.886 1.497 4.448-1.383 9.041-1.731 2.76-0.028 4.388-1.057 7.169-1.971 5.327-4.157 0.398-6.182 2.606-2.228 2.428 1.195 7.234-2.602 10.427-4.311 3.623-4.814 4.672-7.239 9.532 0 11.182-7.045 3.094-10.492 3.258-7.357 0.35-5.455 7.305-10.329 8.798-2.803 0.859-0.702 5.035-6.181 5.295-2.139 0.102-2.028 2.402-3.579 3.177-1.747 0.873-3.368-0.982-5.206 1.222-1.975 2.372-4.223 2.768-5.774 4.643-1.437 1.738-0.895 5.405-1.789 7.657-1.229 3.094-3.112 5.889-5.45 8.227-6.239 6.239-8.302 15.162-17.812 16.7-4.874 4.882-12.037 0.351-16.998 1.303-5.503 1.055-2.424 6.89-2.603 10.834-0.462 10.171-14.248 16.873-22.367 11.242-2.197-1.524-5.211 0.897-7.157 1.303-3.683 0.768-5.783-3.015-9.109-3.503-3.501-0.513-10.582-0.291-13.583 1.711-4.676 3.116-7.717-0.881-13.258 1.304-4.964 3.607-6.565 2.061-11.549 0.326-3.092-1.078-8.617-0.182-10.736-2.443-5.462-5.827-15.722-4.967-21.96-0.815l-11.658 7.76c-0.932 0.62-1.137 1.219-1.219-0.039-0.235-3.608-1.967-6.438-3.552-9.676-2.311-4.717-0.716-9.158-3.335-12.952-2.287-3.312 1.986-5.701 1.302-8.554-1.042-4.343 1.358-6.839-1.627-11.323-1.69-2.539-0.869-4.088-1.708-6.762 2.548-6.06 2.902-6.72 7.89-9.856 4.435-2.789 3.377-7.381 7.157-11.16 1.95-1.95 3.232-5.209 5.043-7.495 3.229-4.075 1.517-8.039 4.23-11.404 1.523-1.888 3.189-2.55 2.603-5.214-0.8-3.633-4.1-2.242-2.766-6.924 0.857-3.004-0.283-6.087 0.325-9.45 0.663-3.149 2.163-8.032-1.789-9.612-3.614-1.443-0.162-3.879-0.162-6.192 0-1.677-2.49-1.841-3.498-2.851-2.188-2.194-0.656-3.696-0.976-6.192-0.384-2.993-5.449-1.752-5.449-6.761 0-4.437-5.368-5.563-5.368-10.101 0-5.312 6.142-8.97-0.407-13.278-5.874-5.874-0.611-4.989-0.895-11.241-0.172-3.809-7.923-2.455-8.947-9.123-0.637-4.153-2.095-4.953-4.311-8.228-2.182-3.224-3.209-8.274-5.53-10.997-1.531-1.795-3.427-1.215-4.148-4.073-0.592-2.344 1.436-4.563-1.139-6.11-3.317-1.99-1.496-3.633-3.985-5.539-1.51-3.036-3.131-3.826-4.066-7.251-0.49-1.793-2.72-4.283-4.229-5.376-1.559-1.127-3.122-1.32-4.149-3.177-1.068-1.932-1.983-3.671-3.253-5.458-2.221-3.128-6.555-0.514-9.109-0.978-1.948-0.355-2.237-2.55-4.148-3.095-5.745-1.639-4.783-6.011-9.837-8.716l-5.659-4.659 0.167 201.33 334.37 280.95-519.91 436.85c0.123 4.55-0.438 9.166 0.548 14.113 0 5.838 4.337 11.677 3.416 18.085-4.097 1.553-2.922-0.209-2.521 5.133l1.301 17.351c0.462 6.16-2.393 11.811-4.23 17.596-0.093 0.977-6.476 9.024-7.89 9.938-1.378 0.892-3.687 1.989-4.392 3.502-3.851 8.255-9.868 10.371-16.836 3.584l-5.856-5.703c-1.132-1.103-8.154 2.604-8.866 3.911-0.595 1.089 3.802 6.773-0.57 8.554-1.402 0.571-4.469 1.214-5.043 2.932-0.94 2.813 6.607 2.532 2.766 7.658-1.453 1.939-0.143 3.014 0.813 4.643 0.989 1.686 0.081 5.041 0.081 6.924 0.149 2.838 1.843 2.825 3.498 4.48 1.726 1.726 1.705 5.031 2.114 7.413 0.379 2.203 2.771 2.931 3.254 4.888 2.113 0-1.139-6.076-1.301-6.924-1.837-9.576 5.605-8.243 9.028-1.629 2.013 3.891 1.601 9.266 4.879 12.545 1.344 1.344 4.149 5.151 4.149 7.088 0 3.7-6.827-5.718-7.401-6.436-1.531-1.917-12-6.964-8.215-2.28 6.239 7.722 13.003 9.887 17.405 19.795 1.311 2.95 4.579 6.078 2.928 9.45-1.576 3.217 6.715 7.38 9.598 9.694 1.03 2.805 5.206 5.571 6.913 8.472 2.057 3.497 3.181 7.222 4.88 10.916 3.361 7.308 8.922 10.427 9.841 18.981 0.776 7.225 4.962 12.444 4.962 20.283-1.562 7.825-0.058 4.667-7.157 6.029-3.015 0.578-5.062 11.149-8.703 14.418-1.474 1.322-2.864 4.75 0.162 4.887 6.649 0.301-0.455 5.536-1.871 8.228-1.1 2.093 3.147 7.181 4.393 8.88 2.993 4.078 1.59 10.109 3.985 14.663 1.469 2.794 5.397 6.799 8.541 7.576 0-3.803 3e-3 -11.336-0.976-15.152-0.854-3.331-2.061-4.725-4.311-7.168-2.267-2.46 2.524-7.015 3.823-8.961 7.301-4.487 18.186-7.317 26.758-5.865 3.892 0.659 8.292 1.994 10.736 5.295 2.82 3.81 0.8 6.528 1.79 10.509 0.121 4.364 6.64 5.51 2.196 9.368-1.764 1.532-2.576 5.056-0.651 6.924 1.934 1.875-2.09 11.162 2.034 10.183 4.781-1.135 9.826-3.695 14.639-5.296 2.406-0.8 7.074-1.84 9.354-0.488 2.666 1.579 2.3 2.153 4.717-0.407 3.04-3.22 3.328 1.115 0.895 3.34-1.078 0.985-0.406 5.282 0.188 7.208l697.4-585.98h184.94z" fill="#007A4D"/>
</svg>