<?xml version="1.0" encoding="UTF-8"?>
<svg viewBox="0 0 640 480" xmlns="http://www.w3.org/2000/svg" xmlns:xlink="http://www.w3.org/1999/xlink">
 <defs>
  <linearGradient id="bf" x1="34.521" x2="34.658" y1=".65675" y2=".65675" gradientTransform="translate(-1002.2 -99.152)">
   <stop stop-color="#1a2600" offset="0"/>
   <stop stop-color="#284004" offset="1"/>
  </linearGradient>
  <linearGradient id="a">
   <stop stop-color="#e4568b" offset="0"/>
   <stop stop-color="#f7bcbe" offset="1"/>
  </linearGradient>
  <linearGradient id="d">
   <stop stop-color="#bb933b" offset="0"/>
   <stop stop-color="#bfb085" offset="1"/>
  </linearGradient>
  <linearGradient id="bg" x1="9.4595" x2="9.212" y1=".60559" y2=".60559" gradientTransform="translate(-681.27 -93.821)" xlink:href="#c"/>
  <linearGradient id="bh" x1="6.6166" x2="6.8803" y1=".88594" y2=".88594" gradientTransform="translate(-602.38 -194.04)" xlink:href="#c"/>
  <linearGradient id="bk" x1="24.356" x2="24.938" y1="1.039" y2="1.039" gradientTransform="translate(-920.09 -98.086)">
   <stop stop-color="#366a02" offset="0"/>
   <stop stop-color="#79c996" offset="1"/>
  </linearGradient>
  <linearGradient id="bi" x1="13.902" x2="14.345" y1="1.4857" y2="1.4857" gradientTransform="translate(-906.23 -98.086)" xlink:href="#c"/>
  <linearGradient id="bj" x1="1.486" x2="1.4806" y1="1.9791" y2="1.9791" gradientTransform="translate(-791.09 -524.55)">
   <stop stop-color="#366a02" offset="0"/>
   <stop stop-color="#679566" offset="1"/>
  </linearGradient>
  <linearGradient id="be" x1=".002353" x2="1.0024" y1=".076125" y2=".076125">
   <stop stop-color="#3d5c26" offset="0"/>
   <stop stop-color="#284f00" offset="1"/>
  </linearGradient>
  <linearGradient id="c">
   <stop stop-color="#47550a" offset="0"/>
   <stop stop-color="#738423" offset="1"/>
  </linearGradient>
  <linearGradient id="b">
   <stop stop-color="#cea13a" offset="0"/>
   <stop stop-color="#e0ccb1" offset=".70783"/>
   <stop stop-color="#e1a5af" offset="1"/>
  </linearGradient>
  <radialGradient id="bb" cx="925.15" cy="175.87" r="51.749" gradientTransform="matrix(1.3706 4.1057e-7 -3.6576e-7 1.2211 -892.79 52.397)" gradientUnits="userSpaceOnUse">
   <stop stop-color="#ea9b31" offset="0"/>
   <stop stop-color="#e8ba09" offset=".5"/>
   <stop stop-color="#fce8ba" offset="1"/>
  </radialGradient>
  <radialGradient id="ba" cx="381.72" cy="355.83" r="61.645" gradientTransform="matrix(2.9484 -2.1071e-7 1.6047e-7 2.2455 -743.76 -435.58)" gradientUnits="userSpaceOnUse" xlink:href="#d"/>
  <radialGradient id="az" cx="683.26" cy="314.62" r="59.041" gradientTransform="matrix(1 0 0 .50169 0 171.1)" gradientUnits="userSpaceOnUse" xlink:href="#a"/>
  <radialGradient id="bc" cx="1100.7" cy="142.75" r="66.023" gradientTransform="matrix(.99407 .097811 -.02809 .28548 -678.56 48.357)" gradientUnits="userSpaceOnUse">
   <stop stop-color="#fdfac6" offset="0"/>
   <stop stop-color="#e5d750" offset=".70792"/>
   <stop stop-color="#ffef8a" offset=".84333"/>
   <stop stop-color="#e2cc3b" offset="1"/>
  </radialGradient>
  <radialGradient id="bd" cx="1131" cy="204.71" r="62.241" gradientTransform="matrix(1.231 .12398 -.074725 .74194 -965.4 -82.74)" gradientUnits="userSpaceOnUse">
   <stop stop-color="#c2890f" offset="0"/>
   <stop stop-color="#ffaf2a" offset="1"/>
  </radialGradient>
  <radialGradient id="bl" cx="406.7" cy="241.18" r="90.245" gradientTransform="matrix(.98356 1.7241e-8 -1.3593e-8 .77542 6.2791 71.927)" gradientUnits="userSpaceOnUse" xlink:href="#a"/>
  <radialGradient id="al" cx="554.57" cy="307.03" r="86.32" gradientTransform="matrix(1.4714 0 0 1.2028 -378.1 -27.481)" gradientUnits="userSpaceOnUse" xlink:href="#d"/>
  <radialGradient id="ai" cx="173.52" cy="138.07" r="77.937" gradientTransform="matrix(2.0065 -6.4764e-8 6.2014e-8 1.9213 -175.55 -144.4)" gradientUnits="userSpaceOnUse" xlink:href="#a"/>
  <radialGradient id="ak" cx="298.16" cy="103.34" r="68.517" gradientTransform="matrix(1.4999 2.2199e-8 -3.6793e-8 2.486 -149.04 -176.35)" gradientUnits="userSpaceOnUse" xlink:href="#a"/>
  <radialGradient id="aj" cx="204.51" cy="72.295" r="64.861" gradientTransform="matrix(1.7551 -3.6788e-8 4.9433e-8 2.3584 -154.43 -129.46)" gradientUnits="userSpaceOnUse" xlink:href="#a"/>
  <radialGradient id="ay" cx="472.96" cy="301.68" r="126.84" gradientTransform="matrix(1.8399 0 0 .62528 -397.24 153.5)" gradientUnits="userSpaceOnUse" xlink:href="#b"/>
  <radialGradient id="ap" cx="86.436" cy="155.33" r="75.186" gradientTransform="matrix(1.8087 0 0 1.291 -69.899 -29.447)" gradientUnits="userSpaceOnUse" xlink:href="#a"/>
  <radialGradient id="ax" cx="694.89" cy="413.04" r="77.674" gradientTransform="matrix(1.351 -6.5659e-8 3.9956e-8 .82211 -243.77 64.43)" gradientUnits="userSpaceOnUse" xlink:href="#a"/>
  <radialGradient id="ao" cx="427.68" cy="264.65" r="111.52" gradientTransform="matrix(1.0795 0 0 .77116 -121.55 135.53)" gradientUnits="userSpaceOnUse" xlink:href="#b"/>
  <radialGradient id="am" cx="681.45" cy="481.55" r="86.443" gradientTransform="matrix(1 0 0 .76744 -168.92 109.94)" gradientUnits="userSpaceOnUse">
   <stop stop-color="#a3912a" offset="0"/>
   <stop stop-color="#b9a37a" offset="1"/>
  </radialGradient>
  <radialGradient id="an" cx="191.69" cy="443.37" r="91.848" gradientTransform="matrix(1.9309 0 0 .3663 -178.45 262.48)" gradientUnits="userSpaceOnUse" xlink:href="#a"/>
  <radialGradient id="aq" cx="295.49" cy="344.29" r="125.14" gradientTransform="matrix(1 0 0 1.062 0 -60.188)" gradientUnits="userSpaceOnUse" xlink:href="#b"/>
  <radialGradient id="aw" cx="537.05" cy="375.78" r="70.854" gradientTransform="matrix(1.863 -2.0757e-8 0 .66161 -461.57 156.46)" gradientUnits="userSpaceOnUse" xlink:href="#b"/>
  <radialGradient id="ar" cx="526.65" cy="100.08" r="79.073" gradientTransform="matrix(1.4659 -1.043e-7 1.2518e-7 1.7594 -246.57 -84.99)" gradientUnits="userSpaceOnUse" xlink:href="#a"/>
  <radialGradient id="av" cx="665.56" cy="92.261" r="80.863" gradientTransform="matrix(1.574 2.1698e-8 -2.0261e-8 1.4697 -382 -31.078)" gradientUnits="userSpaceOnUse" xlink:href="#a"/>
  <radialGradient id="at" cx="730.49" cy="152.82" r="130.47" gradientTransform="matrix(1.4211 2.5771e-7 -2.0369e-7 1.1232 -307.93 41.307)" gradientUnits="userSpaceOnUse" xlink:href="#a"/>
  <radialGradient id="as" cx="604.94" cy="172.73" r="92.479" gradientTransform="matrix(1.6891 -1.773e-7 1.2874e-7 1.2264 -419.22 -4.2632)" gradientUnits="userSpaceOnUse" xlink:href="#a"/>
  <radialGradient id="au" cx="724.54" cy="178.44" r="71.281" gradientTransform="matrix(1.447 0 0 .98594 -323.09 29.649)" gradientUnits="userSpaceOnUse" xlink:href="#a"/>
 </defs>
 <path d="m0 0.1899l800-0.1899v533h-800v-532.81z" fill="url(#bj)"/>
 <path d="m800 363.07l-724.63-199.54s-22.088-9.603-32.652-17.286-13.445-16.326-21.128-17.287c-7.6829-0.96-21.59 13.027-21.59 13.027v391.01h800v-169.93z" fill="url(#be)"/>
 <path d="m651.59 533s33.613-43.424 44.657-59.27 40.335-82.111 40.335-82.111 17.287 0 29.771-6.243c12.485-6.242 20.168-14.885 20.168-14.885l-5.762-1.921s-12.005 12.005-19.688 15.366-24.969 3.841-24.969 3.841-8.643-10.564-12.485-20.167c-3.841-9.604-7.683-23.529-7.683-23.529l-7.202-1.441s10.563 24.97 13.445 31.692c2.881 6.723 7.683 14.886 7.683 14.886s-21.128 56.181-35.534 78.27c-14.405 22.088-52.769 65.512-52.769 65.512h10.033z" fill="#1c3801"/>
 <path d="m800 328.15v-137.62l-120.38 39.761-56.01 81.86 176.38 16.003z" fill="#395c00"/>
 <path d="m800 138.14s-25.589 50.903-39.13 59.52-53.548 16.003-53.548 16.003l-11.694 27.081s46.161 7.386 62.78-1.231c16.618-8.617 41.451-44.659 41.451-44.659l0.141-56.714z" fill="#4d7d00"/>
 <path d="m800 324.82s-29.806-7.152-65.34-15.315c-35.533-8.163-97.477-18.247-97.477-18.247l-33.612 31.692 107.56 20.648s17.767 11.524 47.538 19.687c29.772 8.163 41.331 11.045 41.331 11.045v-49.51z" fill="#3e7a03"/>
 <path d="m626.16 533s7.177-25.177 12.459-49.666c5.282-24.49 11.044-53.301 11.044-53.301l-11.044 0.481s-5.282 45.137-11.044 68.186c-5.762 23.048-11.525 31.692-11.525 31.692s-6.722-33.613-10.564-48.979c-3.841-15.366-11.524-45.617-11.524-45.617h-4.322s1.921 19.687 2.401 29.771c0.47998 10.084 3.362 56.181 3.362 56.181s-20.648-23.048-27.371-31.212c-6.722-8.163-17.767-19.207-17.767-19.207l-6.242 4.322s24.489 21.608 30.732 29.771c6.242 8.163 17.488 27.578 17.488 27.578h33.917z" fill="#1c3900"/>
 <path d="m316.06 533s62.819-9.748 80.572-16.576 56.263-42.061 102.97-42.334c46.704-0.27301 86.702 58.91 86.702 58.91h-270.24z" fill="#172e00"/>
 <path d="m164.63 533s27.589-114.01-11.785-193.72c-39.375-79.71-80.671-130.61-106.6-148.86-25.93-18.247-46.245-24.699-46.245-24.699v367.28h164.63z" fill="#3d6f16"/>
 <path d="m54.451 354.91l85.972-39.371c-3.8985-7.8939-7.797-14.752-11.695-21.704 0 0-82.037 43.58-74.276 61.075z" fill="#50822e"/>
 <g fill="#4d812e">
  <path d="m149.74 532.66s9.084-5.548 3.972-10.66-25.56-15.336-31.808-16.472-30.104-2.84-39.76 1.704-31.808 12.496-43.168 11.36-39.075-10.021-39.075-10.021l0.096 24.427 149.74-0.338z"/>
  <path d="m165.93 527.56s-5.397-19.758-4.829-29.414c0.56799-9.656 2.84-27.264 2.84-27.264s-21.584 16.472-34.648 18.176-88.607-5.112-95.991-10.224-25.56-11.359-23.288-17.039 56.8-9.088 62.48-7.384 31.808 13.632 47.144 13.632 49.416-11.36 49.416-14.768-34.648 5.112-51.12 3.976-35.784-2.272-35.784-5.112 47.144-15.336 53.96-17.04 32.944-13.064 31.24-17.04-68.16 18.744-76.68 22.152-24.992 8.52-28.4 4.544 5.1119-9.656 3.976-13.632c-1.136-3.976-26.128-5.112-26.128-9.088s15.904-10.792 22.72-11.36c6.8159-0.56799 24.424 1.704 33.512 1.704 9.0876 0 52.256-3.408 55.664-3.408s19.841-4.422 19.841-4.422 2.635 31.52 1.499 60.654c-1.041 26.699-7.423 62.357-7.423 62.357z"/>
  <path d="m136.67 319.8s3.9759 6.248 3.408 10.224c-0.56799 3.976-4.544 6.816-1.704 10.792 2.8399 3.976 10.792 0.56799 13.632 9.6559s2.84 17.608-6.248 22.72c-9.0879 5.112-60.208 22.72-56.8 28.968 3.4079 6.248 80.088-10.224 80.088-10.224s-10.141-40.04-17.081-54.284c-5.6842-11.666-9.6146-19.556-15.294-17.852z"/>
 </g>
 <path d="m414.73 167.31s10.661-73.564 9.595-93.821-1.066-73.298-1.066-73.298h-18.125s8.529 64.769 6.397 86.092-25.588 91.689-25.588 91.689l28.787-10.662z" fill="url(#bk)"/>
 <path d="m204.7 534.07s-17.058-169.52-17.058-218.56c0-49.043-12.794-205.77-18.125-243.08-5.33-37.315-14.926-72.232-14.926-72.232h-27.72s29.853 53.041 31.985 112.75c2.132 59.704 10.661 173.78 10.661 218.56 0 44.778 8.53 117.28 11.728 145 3.199 27.72 6.397 57.572 6.397 57.572h17.058z" fill="url(#bg)"/>
 <path d="m329.19 533l-61.585-454.18s3.199-23.455-4.264-45.845c-7.463-22.389-9.596-32.784-9.596-32.784h-21.323l10.662 59.438 62.903 473.37h23.203z" fill="url(#bh)"/>
 <path d="m616.29 533l-28.842-110.88-38.381-1.066 47.416 111.95h19.807z" fill="url(#bi)"/>
 <path d="m407.58 533s-1.884-30.926-2.261-59.95c-0.37698-29.025 0.37701-66.719 0.37701-66.719l-14.701-24.878-12.816 24.501s0.37698 35.81 1.131 59.18c0.754 23.37 0.87802 67.866 0.87802 67.866h27.392z" fill="url(#bf)"/>
 <path d="m398.32 389.75l-5.241-41.492-18.344 0.4368-98.706 92.155s38.434 18.344 71.191-1.747c32.756-20.091 51.1-49.353 51.1-49.353z" fill="url(#ba)"/>
 <path d="m707.22 346.25s8.84-8.104-3.683-15.103c-12.524-6.998-38.677-10.682-51.569-10.682s-37.203 2.947-43.096 3.684c-5.894 0.737-15.839 4.052-15.839 4.052l64.46 12.892 49.727 5.157z" fill="url(#az)"/>
 <path d="m693.7 352.79l-138.87 47.517 48.99 25.416 64.092 7.3669s22.101-5.8935 27.626-10.682c5.5252-4.7885 13.997-14.366 13.629-15.839-0.36835-1.4734-3.3151-1.4734-3.3151-1.4734s2.5784-16.576 0-26.521c-2.5784-9.9453-12.155-25.784-12.155-25.784z" fill="url(#ax)"/>
 <path d="m552.22 396.72h-23.206l20.996 30.941s38.676 14.734 65.197 12.892c26.521-1.8417 54.515-8.472 54.515-8.472s-30.204-2.5784-55.62-11.05c-25.416-8.4719-61.882-24.311-61.882-24.311z" fill="url(#aw)"/>
 <path d="m441.22 258.35l86.308-66.546 23.795-41.138s1.614-22.182-3.226-35.491-13.713-29.845-17.342-32.265c-3.63-2.4198-40.331 0-50.011 3.6298-9.679 3.6298-47.187 26.215-56.866 39.524-9.68 13.309-29.442 50.817-29.442 50.817l46.784 81.469z" fill="url(#ar)"/>
 <path d="m520.67 192.2l98.811 32.265s29.442-34.685 38.314-55.253c8.8728-20.569 16.132-50.817 17.342-56.463 1.21-5.6463 2.8232-12.906 2.8232-12.906s4.4364 0.80662 3.2264-1.6132c-1.2099-2.4198-20.569-6.4529-36.298-4.0331-15.729 2.4199-47.59 15.326-60.9 26.215-13.309 10.889-33.071 29.038-44.767 42.751-11.696 13.712-18.552 29.038-18.552 29.038z" fill="url(#av)"/>
 <path d="m438.4 254.31l20.972 74.209s56.866-5.6463 71.386-11.696c14.519-6.0496 52.833-34.685 64.529-47.187 11.696-12.503 26.618-37.104 27.022-54.447 0.40326-17.342-1.6133-25.005-10.083-30.248-8.4695-5.243-32.265-7.6629-52.43-5.6463-20.166 2.0165-56.06 16.939-68.966 22.989-12.906 6.0496-31.055 20.166-38.718 29.038-7.6629 8.8728-13.712 22.989-13.712 22.989z" fill="url(#as)"/>
 <path d="m598.91 266.82l20.165-41.541s19.762-9.679 29.845-12.906c10.083-3.226 27.829-5.243 36.701-7.663 8.873-2.419 30.248-9.276 39.928-6.453 9.679 2.824 14.922 7.663 14.922 7.663l-139.95 64.933-1.613-4.033z" fill="url(#au)"/>
 <path d="m76.305 173.67s-4.864-5.168-3.04-8.816c1.824-3.649 4.256-1.216 8.2081-2.129 3.952-0.912 14.288-6.688 23.712-6.992s39.825 6.384 49.857 9.425c10.032 3.04 23.712 6.992 23.712 6.992l43.473 87.857-145.92-86.337z" fill="url(#ap)"/>
 <path d="m323.76 310.16l-31.616 11.856-59.889-6.384s-26.145-4.56-39.217-12.16-41.952-31.008-56.24-46.208c-14.289-15.201-24.625-24.321-31.009-33.441-6.3838-9.12-22.8-34.96-25.232-39.52-2.4321-4.56-4.5601-10.944-4.5601-10.944s18.24 10.944 25.232 14.288 47.425 24.928 58.369 31.312 39.52 26.449 46.208 30.705c6.689 4.256 21.281 10.336 21.281 10.336l98.193 44.08-1.52 6.08z" fill="url(#aq)"/>
 <path d="m368.26 381.06s-25.541 47.694-50.561 56.294c-25.019 8.601-50.3 13.292-77.665 7.297-27.365-5.994-37.008-9.121-41.439-11.467-4.43-2.346-13.031-11.988-13.031-11.988l182.7-40.136z" fill="url(#an)"/>
 <path d="m561.67 473.33s-31.171 16.624-63.233 11.281c-32.061-5.344-60.263-25.827-73.622-41.264s-25.234-39.187-28.499-54.327c-3.266-15.14-6.531-35.03-6.531-35.03l11.28 0.297 160.6 119.04z" fill="url(#am)"/>
 <path d="m530.2 394.66l-79.857-68.279-57.295 22.265s35.624 57.889 51.061 73.623 70.06 49.873 92.028 52.842c21.968 2.9687 27.608-1.7812 28.499-8.0154 0.89056-6.2342-9.7966-37.702-16.624-48.686-6.8279-10.984-17.812-23.749-17.812-23.749z" fill="url(#al)"/>
 <path d="m264.39 96.729s15.364-22.726 29.448-22.726c14.083 0 12.163 4.1611 12.163 4.1611s18.564 4.8012 31.368 14.724c12.803 9.9228 31.368 31.368 39.69 42.891s23.366 40.01 23.366 40.01l-18.885 83.541-70.098-19.845-47.052-142.76z" fill="url(#ak)"/>
 <path d="m438.83 262.4l-33.071 4.305-31.311-13.894-23.874-55.772 123.48 14.09-35.225 51.271z" fill="url(#bd)"/>
 <path d="m401.96 215.89c-11.35-1.1742-18.819-3.4085-24.689-5.5611-5.8707-2.1526-13.894-5.8707-17.612-7.2406-3.7181-1.3698-8.8556-6.0739-8.8556-6.0739s-4.5009-0.97846-4.6966-4.1095c-0.19571-3.1311 7.6319-8.0234 11.546-9.3932 3.9138-1.3698 19.569-4.6966 26.223-5.088 6.6535-0.39139 23.483 0.58708 30.136 1.3698 6.6535 0.78278 20.352 3.7182 26.223 5.4794 5.8707 1.7612 22.504 6.4578 26.027 9.1975 3.5225 2.7397 10.372 7.8276 10.763 10.567 0.39139 2.7397 0 5.2837-3.131 6.2621-3.1311 0.97847-7.4363 3.1311-12.524 3.5224-5.0879 0.39139-23.092 2.6654-31.702 2.6654-8.6105 0-24.38-1.2063-27.706-1.5977z" fill="url(#bc)"/>
 <path d="m320.81 306.79l1.5863-72.018s-33.63-46.003-51.079-64.087-46.955-41.561-62.183-45.051c-15.229-3.4899-25.064-1.5863-25.064-1.5863s-2.2208-2.2208-5.0762-2.2208-5.3934 0.95178-5.3934 0.95178 2.5381-3.1726 2.2208-5.3934c-0.31726-2.2208-1.269-2.2208-1.269-2.2208s-6.6625 4.1244-6.9798 6.6625c-0.31726 2.5381 0.95178 10.152 0.95178 10.152s-1.5863 39.975 23.16 83.122c24.746 43.148 46.32 65.673 62.5 72.653 16.18 6.9797 66.625 19.036 66.625 19.036z" fill="url(#ai)"/>
 <path d="m318.16 229.88s-24.646-87.062-29.768-94.424c-5.121-7.362-16.004-19.205-18.244-25.927-2.241-6.721-4.802-24.326-8.643-31.688-3.841-7.3619-27.527-34.249-33.928-38.09-6.402-3.841-14.404-8.9623-21.766-7.3619s-12.163 8.0021-13.763 13.764c-1.601 5.7615-2.881 6.4016-2.561 10.243 0.31999 3.841 3.201 12.483 3.841 16.644s4.801 24.646 5.121 30.728c0.32001 6.082 2.881 22.086 2.881 22.086l116.83 104.03z" fill="url(#aj)"/>
 <path d="m407.32 261.73c0.58701-6.262 9.198-6.262 9.198-6.262l-5.871-0.391s3.131-0.97899 0.979-4.306c-2.153-3.326-6.654-4.305-6.654-4.305l3.523 8.415-6.85 3.718s2.349-3.327 1.762-7.045c-0.58701-3.718-2.936-6.066-2.936-6.066l-0.587 7.827-2.152 4.306-4.11-1.566s1.37-6.458 1.37-10.372c0-3.913-2.544-9.001-2.544-9.001l-6.262 9.588s-2.74-6.457-4.893-9.197c-2.152-2.74-3.522-5.675-3.718-7.828-0.19501-2.152-2.544-4.501-3.913-5.088-1.37-0.58699-4.306-0.58699-4.893 0.58701-0.58701 1.175-0.19501 5.284-0.19501 5.284s-2.936-5.479-2.349-6.849c0.58701-1.37-1.565-1.957-1.565-1.957v4.697s0.58701-3.132-1.566-4.893c-2.152-1.761-5.675-3.718-5.675-3.718s-4.305-2.74-6.653-4.892c-2.349-2.153-4.11-3.131-6.067-3.523-1.957-0.39101-4.501-0.58701-4.501-0.58701l-3.522-5.87s-1.174-1.566-1.957-0.979c-0.78302 0.58701-1.174 5.479-1.174 5.479s-3.914-1.565-5.48-0.19501c-1.565 1.37-1.174 7.827-1.174 7.827l3.131 2.544s-2.544-0.39101-3.131 0.196c-0.58701 0.58701-0.978 4.305-0.978 4.305l-2.153-0.587s-1.37-4.501-0.39099-6.066c0.978-1.566 2.152-4.11 2.152-4.11l-4.109 4.306-0.783 5.087s-1.957-2.935-3.914-2.935-3.131 1.566-2.544 2.348c0.58701 0.78299 0 3.131 0.392 3.914 0.39099 0.78299 3.327 1.37 3.327 1.37s-3.132 0.196-2.74 1.761c0.39099 1.566 2.152 0.97899 2.152 0.97899s-1.369 4.892 0.19601 5.088c1.566 0.19499 3.718-1.957 3.718-1.957s1.174 2.935-0.39099 3.522c-1.566 0.58701-3.327 1.761-3.327 1.761l4.892-0.587 1.37 4.306 5.675 2.544 77.885 19.373z" fill="url(#bb)"/>
 <path d="m384.86 357.06c22.184 4.4369 55.214-5.6693 68.279-18.98 13.064-13.311 10.846-15.283 13.064-18.487 2.2184-3.2044 11.339-11.832 12.818-14.543 1.479-2.7114 1.7255-7.6413 3.4509-8.8738 1.7255-1.2325 7.1483-6.6553 7.3948-13.557 0.24649-6.9018-4.1904-15.036-18.734-20.952-14.543-5.9158-28.84-8.3808-47.327-7.6413-18.487 0.73949-15.529 4.1904-15.529 4.1904s-29.826-13.804-31.551-13.804c-1.7255 0-3.6974-0.24648-4.4369-0.49298-0.73947-0.24649-0.24649-2.7114-4.6834-4.1904s-17.748-2.2184-21.445-2.4649c-3.6974-0.24649-21.691-4.6834-28.347 0.24649-6.6553 4.9299-7.6413 15.776-7.3948 20.212 0.24649 4.4369 4.6834 31.551 6.6553 39.192 1.972 7.6413 7.8878 18.24 16.022 25.635 8.1343 7.3948 24.156 21.691 30.812 25.389 6.6553 3.6974 13.557 7.8878 20.952 9.1203z" fill="url(#bl)"/>
 <path d="m380.51 354.21l-56.294-45.348s-20.589 8.0792-31.796 8.0792-27.365-2.8668-37.529-2.8668-47.172 7.0368-56.815 12.77c-9.643 5.7336-32.317 23.716-36.748 36.748-4.4306 13.031-3.9093 29.45 2.8668 38.572 6.7762 9.1217 12.249 18.765 24.759 22.674 12.51 3.9093 39.354 11.728 56.815 9.1217 17.462-2.6062 55.773-14.595 81.835-28.668 26.062-14.074 39.614-24.238 39.614-24.238s0.26062-2.8668 2.6062-5.2124 6.7761-7.8186 7.558-11.728c0.78186-3.9093 3.1274-9.9036 3.1274-9.9036z" fill="url(#ao)"/>
 <path d="m482.02 330.28l109.3-1.21s62.917-28.635 81.872-44.768c18.956-16.132 56.06-58.883 58.883-61.303 2.823-2.419 11.293-10.889 9.68-14.519-1.614-3.629-5.243-4.436-19.359-0.806s-56.867 25.408-69.773 31.458c-12.906 6.049-19.762 12.906-26.618 16.132-6.856 3.227-31.055 12.099-31.055 12.099l-112.93 62.917z" fill="url(#at)"/>
 <path d="m530.42 399.66l-75.879-64.829s65.566-13.629 97.243-13.629c31.678 0 39.413 4.7885 44.202 5.5252 4.7884 0.73669 14.734 1.105 21.364 2.5784 6.6302 1.4734 18.786 5.5252 25.048 6.6302 6.2619 1.105 26.889 3.6834 36.835 5.5252 9.9453 1.8417 27.994 4.7885 27.994 4.7885s-38.308 25.416-57.094 33.888-46.78 17.312-68.881 19.522-50.832 0-50.832 0z" fill="url(#ay)"/>
 <g fill="#e1d02f">
  <path d="m385.88 196.71l0.3914-5.088s0.39142-0.78278 1.5655-0.78278c1.1742 0 1.9569 1.5655 1.9569 1.5655v4.1095s-2.7397 0.97846-3.9138 0.19568z"/>
  <path d="m371.98 191.03l0.3914-5.088s0.39142-0.78278 1.5655-0.78278c1.1742 0 1.9569 1.5655 1.9569 1.5655v4.1095s-2.7397 0.97847-3.9138 0.19569z"/>
  <path d="m364.94 186.53l0.3914-5.088s0.39142-0.78278 1.5655-0.78278c1.1742 0 1.9569 1.5655 1.9569 1.5655v4.1095s-2.7397 0.97847-3.9138 0.19569z"/>
  <path d="m369.24 183.01l0.3914-5.088s0.39139-0.78278 1.5655-0.78278c1.1742 0 1.9569 1.5655 1.9569 1.5655v4.1095s-2.7397 0.97847-3.9138 0.19569z"/>
  <path d="m405.05 194.95l0.3914-5.088s0.39142-0.78278 1.5655-0.78278c1.1742 0 1.9569 1.5655 1.9569 1.5655v4.1095s-2.7397 0.97846-3.9138 0.19568z"/>
  <path d="m402.32 202.38l0.3914-5.088s0.39142-0.78276 1.5655-0.78276c1.1742 0 1.9569 1.5655 1.9569 1.5655v4.1095s-2.7397 0.97846-3.9138 0.19569z"/>
 </g>
 <g fill="#e7bb38">
  <path d="m388.81 190.25l0.3914-5.088s0.39142-0.78278 1.5655-0.78278c1.1742 0 1.9569 1.5655 1.9569 1.5655v4.1095s-2.7397 0.97847-3.9138 0.19569z"/>
  <path d="m413.47 185.75l0.3914-5.088s0.39142-0.78278 1.5655-0.78278c1.1742 0 1.9569 1.5655 1.9569 1.5655v4.1095s-2.7397 0.97846-3.9138 0.19568z"/>
  <path d="m422.28 195.14l0.3914-5.088s0.39142-0.78278 1.5655-0.78278c1.1742 0 1.9569 1.5655 1.9569 1.5655v4.1095s-2.7397 0.97847-3.9138 0.19569z"/>
  <path d="m428.93 186.73l0.3914-5.088s0.39139-0.78278 1.5655-0.78278c1.1742 0 1.9569 1.5655 1.9569 1.5655v4.1095s-2.7397 0.97846-3.9138 0.19568z"/>
  <path d="m425.41 191.42l0.3914-5.088s0.39139-0.78278 1.5655-0.78278c1.1742 0 1.9569 1.5655 1.9569 1.5655v4.1095s-2.7397 0.97847-3.9138 0.19569z"/>
  <path d="m398.01 184.77l0.3914-5.088s0.39139-0.78278 1.5655-0.78278c1.1742 0 1.9569 1.5655 1.9569 1.5655v4.1095s-2.7397 0.97847-3.9138 0.19569z"/>
 </g>
 <path d="m381.57 185.55l0.3914-5.088s0.39142-0.78278 1.5655-0.78278c1.1742 0 1.9569 1.5655 1.9569 1.5655v4.1095s-2.7397 0.97847-3.9138 0.19569z" fill="#f1d33f"/>
 <g fill="#ddc940">
  <path d="m422.28 202.77l0.3914-5.088s0.39142-0.78278 1.5655-0.78278c1.1742 0 1.9569 1.5655 1.9569 1.5655v4.1095s-2.7397 0.97846-3.9138 0.19569z"/>
  <path d="m439.3 201.99l0.3914-5.088s0.39142-0.78278 1.5655-0.78278c1.1742 0 1.9569 1.5655 1.9569 1.5655v4.1095s-2.7397 0.97847-3.9138 0.19569z"/>
  <path d="m452.02 201.6l0.3914-5.088s0.39142-0.78278 1.5655-0.78278c1.1742 0 1.9569 1.5655 1.9569 1.5655v4.1095s-2.7397 0.97846-3.9138 0.19569z"/>
  <path d="m459.07 194.95l0.3914-5.088s0.39142-0.78278 1.5655-0.78278c1.1742 0 1.9569 1.5655 1.9569 1.5655v4.1095s-2.7397 0.97847-3.9138 0.19569z"/>
  <path d="m457.89 198.86l0.3914-5.088s0.39142-0.78278 1.5655-0.78278c1.1742 0 1.9569 1.5655 1.9569 1.5655v4.1095s-2.7397 0.97846-3.9138 0.19569z"/>
  <path d="m406.82 188.68l0.3914-5.088s0.39142-0.78278 1.5655-0.78278c1.1742 0 1.9569 1.5655 1.9569 1.5655v4.1095s-2.7397 0.97846-3.9138 0.19568z"/>
 </g>
 <path d="m388.62 182.03l0.3914-5.088s0.39142-0.78278 1.5655-0.78278c1.1742 0 1.9569 1.5655 1.9569 1.5655v4.1095s-2.7397 0.97846-3.9138 0.19569z" fill="#ecd948"/>
 <path d="m376.48 181.05l0.3914-5.088s0.39139-0.78278 1.5655-0.78278c1.1742 0 1.9569 1.5655 1.9569 1.5655v4.1095s-2.7397 0.97847-3.9138 0.19569z" fill="#efe14a"/>
 <g fill="#fff8e4">
  <path d="m381.37 237.64c10.176-7.0449-5.8707-12.72-5.8707-12.72s6.8492 7.8276 5.8707 12.72z"/>
  <path d="m395.71 252.56c9.3932-2.7397 6.4578-15.851 6.4578-15.851s-8.0233 12.133-6.4578 15.851z"/>
  <path d="m390.02 248.03c7.2405-4.8923 2.3482-13.503 2.3482-13.503s-5.675 9.1975-2.3482 13.503z"/>
  <path d="m367.49 239.17c8.0234-0.58707 4.1095-12.916 4.1095-12.916s-5.2836 10.567-4.1095 12.916z"/>
  <path d="m357.69 237.6c-1.174-2.544 5.48-2.544 5.48-2.544l-7.437 1.174s-0.978-3.131-0.58701-3.718c0.392-0.58701 3.523 0.58699 3.523 0.58699s-3.131-2.935-4.697-2.152c-1.565 0.78299-0.58698 5.87-0.58698 5.87s-1.37-7.631 0-8.806c1.37-1.174 3.914-1.369 3.914-1.369s-4.11-1.175-5.479 0.19501c-1.37 1.37-1.566 7.045-1.566 7.045s-2.544-4.892-0.978-5.871c1.565-0.978 3.913-2.152 3.913-2.152h-4.109s0-3.131 1.37-3.523c1.37-0.39099 2.935-1.957 2.935-1.957s-4.109-0.782-5.088 0.783c-0.978 1.566-1.957 3.718-1.761 5.871 0.19598 2.153 0.58698 9.784 0.58698 9.784l10.567 0.783z"/>
  <path d="m342.11 236.66c0.19571-3.9138 4.8923-3.7181 4.8923-3.7181s-5.088-2.9354-4.8923 3.7181z"/>
  <path d="m337.97 235.84c-0.58698-5.088 4.501-6.458 4.501-6.458s-4.892 0-6.067 1.761c-1.174 1.762-1.174 4.306-1.174 4.306l2.74 0.391z"/>
  <path d="m323.43 235.63c0.39139-5.8707 4.3052-4.6966 4.3052-4.6966s-8.6104-0.39139-4.3052 4.6966z"/>
  <path d="m331.47 234.87c-1.5655-3.7181 3.131-6.8492 3.131-6.8492s-7.0449 0.78276-3.131 6.8492z"/>
  <path d="m403.43 256.07l5.479-7.828s-4.501 0.58699-6.066 2.936c-1.566 2.348-1.957 3.718-1.957 3.718l2.544 1.174z"/>
  <path d="m414.38 254.62c0.39142-4.1095 10.372-10.372 10.372-10.372s0.5871 3.3268-2.3483 5.4794-8.0234 4.8923-8.0234 4.8923z"/>
  <path d="m421.23 254.01l5.8708-0.5871s3.5224-4.5009 1.9569-5.4794c-1.5656-0.97846-3.5225 0.39139-5.088 1.7612s-2.7397 4.3052-2.7397 4.3052z"/>
  <path d="m429.91 252.48l-0.196-12.915s1.761-0.392 2.544 1.37c0.78299 1.761 1.174 5.087 1.174 5.087l2.348-8.219s0.58698 5.284 0.19598 8.024c-0.39099 2.739-0.978 8.61-2.153 9.002-1.174 0.39099-1.174-4.501-1.174-4.501l-2.739 2.152z"/>
  <path d="m436.45 254.24c-2.3483-6.2621 6.2621-10.176 6.2621-10.176s-4.8923 8.219-6.2621 10.176z"/>
  <path d="m365.72 236.24c1.5655-5.8707-8.4147-14.677-8.4147-14.677l4.3052 8.0233-5.675-7.632s1.1741 6.8492 3.5224 8.8061 6.2621 5.4794 6.2621 5.4794z"/>
  <path d="m354.37 223.13c0.39139-7.8276-10.959-10.763-10.959-10.763s0.97846 5.088 4.3052 6.4578c3.3268 1.3698 6.6535 4.3052 6.6535 4.3052z"/>
  <path d="m343.02 233.11c-0.78274-4.3052-4.1095-3.5224-5.088-5.2837-0.97846-1.7612-2.9354-3.5224-2.9354-3.5224s-1.9569 3.3268 0.58707 4.6966 7.4363 4.1095 7.4363 4.1095z"/>
  <path d="m328.38 235.38l4.305-4.305s-1.565-2.544-3.131-4.109c-1.565-1.566 0.19598-4.501 0.19598-4.501l2.348 3.914s3.131-5.676 0.58701-6.654-4.501 0.58701-4.501 0.58701l-1.761 4.697-4.501-1.174 2.936 3.326 5.088 2.153s-2.153 2.348-3.327 2.544-1.761 1.565-1.761 1.565l3.522 1.957z"/>
 </g>
 <path d="m800 455.34s-36.529 32.8-53.815 46.726c-17.287 13.925-52.593 30.939-52.593 30.939h17.287s37.707-21.336 53.072-35.261c15.366-13.925 36.049-35.202 36.049-35.202v-7.202z" fill="#172e02"/>
</svg>
