<?xml version="1.0" encoding="UTF-8"?>
<svg viewBox="0 0 170.07 302.2" xmlns="http://www.w3.org/2000/svg">
 <path d="m62.57 70.205c-15.406 26.079-21.51 56.308-34.111 83.613-11.834 22.034-25.96 44.421-26.034 70.446-2.3055 30.287 16.229 62.077 45.535 71.008 24.7 7.253 53.747 8.368 76.171-6.211 16.1-11.912 25.191-31.292 30.898-50.172 6.748-29.24 9.821-59.45 9.459-89.452-1.021-22.922-1.323-46.03-5.815-68.603-11.212-12.354-27.515-17.435-41.813-25.003-9.595-0.5236-20.26-5.347-28.959 1.0718-8.4439 4.4341-16.888 8.8681-25.332 13.302z" fill="#431732" fill-rule="evenodd" stroke="#000" stroke-linejoin="bevel" stroke-miterlimit="2.414" stroke-width="3.47"/>
 <path d="m65.19 68.829l-2.6202 1.375c-15.406 26.079-21.522 56.32-34.124 83.624-11.834 22.034-25.943 44.413-26.017 70.438-0.96252 12.645-0.23671 23.542 5.3328 34.938 0.13383-51.464 13.866-72.208 20.671-87.058 3.7446-8.172-2.05-0.73801 5.0589-0.862 8.6089-0.151 16.859-8.075 15.918-14.044-2.7185-17.253-0.1592-25.007 2.2037-36.238 2.5777-12.251 13.317-39.936 22.391-50.392 4.2138-6.2791-3.7741 0.4269-8.816-1.7813z" fill="#9785af"/>
 <path d="m151.28 74.142c-5.7512 1.7282-11.413 6.0394-14.642 9.9688 6.64 57.584 7.8911 123.46-30.024 170.91-24.26 29.61-56.253 33.986-75.337 32 5.0444 3.5792 10.625 6.4058 16.676 8.25 24.7 7.2528 53.746 8.3603 76.169-6.2188 16.1-11.912 25.211-31.276 30.918-50.156 6.7481-29.24 9.7947-59.466 9.4326-89.469-1.0215-22.922-1.3024-46.02-5.7952-68.594-2.2709-2.5024-4.7684-4.7008-7.3981-6.6875z" fill="#30061d"/>
 <g stroke="#000" stroke-linejoin="bevel" stroke-miterlimit="2.414" stroke-width="3.47">
  <path d="m63.064 70.205c-15.406 26.079-21.51 56.308-34.111 83.614-11.834 22.033-25.96 44.42-26.034 70.445-2.3055 30.288 16.229 62.078 45.535 71.009 24.7 7.252 53.747 8.367 76.171-6.212 16.1-11.912 25.191-31.291 30.898-50.172 6.748-29.24 9.8207-59.45 9.4587-89.452-1.0219-22.922-1.3228-46.03-5.8159-68.603-11.212-12.354-27.514-17.435-41.813-25.003-9.5948-0.5236-20.259-5.347-28.958 1.0718-8.444 4.4341-16.888 8.8681-25.332 13.302z" fill="none"/>
  <path d="m144.92 1.8767c-12.914 7.8824-15.028 29.174-31.32 31.664-15.657 1.8176-32.189 5.1057-43.719 16.962-7.5693 3.3443-23.101 23.681-7.4559 23.618 7.3422-4.129 19.674-7.1255 17.926 5.8516 5.7276 17.102 20.887-3.7062 29.264-2.0769 4.1293 9.6886 8.6196 31.061 23.367 20.162 2.5505-5.9105 11.613-18.42 14.221-5.5527 2.7739 12.145 23.168 15.725 18.733-0.95996-0.91847-19.033-8.6914-37.483-21.422-51.416-6.0486-13.871 24.906-26.525 5.3828-37.784l-2.3625-0.6098-2.6135 0.1417z" fill="#87ad46" fill-rule="evenodd"/>
  <path d="m146.33 5.1587c1.1189 4.0146 3.7336 7.9976 7.8301 9.309" fill="#fff"/>
  <path d="m143.15 11.484c-8.2985 8.6168-9.6226 23.248-21.366 28.524" fill="none"/>
  <path d="m140.21 27.537c-0.78093 4.8992-3.0304 10.858 0.88384 15.039" fill="#fff"/>
 </g>
 <path d="m147.28 1.7667l-2.3427 0.125c-12.914 7.8824-15.027 29.166-31.318 31.656-15.657 1.8176-32.211 5.1123-43.741 16.969-7.114 3.1431-21.238 21.254-9.9258 23.375 0.36362-0.22974 0.71867-0.45986 1.0481-0.71875 3.2689-2.2108 12.342 0.88669 12.851-2.8039 10.782-10.457 17.507-20.874 28.113-24.939 7.2616-2.0221 13.328-5.0776 20.193-8.257 11.24-7.6191 13.134-22.963 23.366-31.562 0.7285-1.2 1.4486-2.4616 1.757-3.8438zm-48.021 49.402c-4.8183 5.5512-8.7012 12.779-19.027 20.536 1.4798 1.4219 0.64775 4.407 0.12603 8.2803 1.0404 3.1064 2.3801 4.9397 3.9456 5.9062-0.26772-0.79739-0.52615-1.5852-0.80146-2.4062 0.77948-6.0293 11.216-26.191 15.757-32.317zm14.205 12.442c-2.5624 2.9979-3.7058 8.5647-3.7299 14.594 3.0781 7.3785 6.4254 20.961 14.087 22.688-1.4194-7.1338-2.4913-18.908-6.4117-15.281l-3.9456-22z" fill="#b9d67c"/>
 <path d="m144.92 1.8767c-12.914 7.8824-15.028 29.174-31.32 31.664-15.657 1.8176-32.189 5.1057-43.719 16.962-7.5693 3.3443-23.101 23.681-7.4559 23.618 7.3422-4.129 19.674-7.1255 17.926 5.8516 5.7277 17.102 20.887-3.7062 29.263-2.0768 4.1301 9.6885 8.6202 31.061 23.367 20.162 2.5508-5.9106 11.613-18.42 14.221-5.5528 2.7738 12.145 23.168 15.725 18.733-0.9599-0.91835-19.034-8.6913-37.483-21.422-51.416-6.0486-13.871 24.906-26.525 5.3828-37.784l-2.3624-0.6098-2.614 0.1417v1e-5z" fill="none" stroke="#000" stroke-linejoin="bevel" stroke-miterlimit="2.414" stroke-width="3.47"/>
</svg>
